<?xml version="1.0" encoding="UTF-8" standalone="no"?>
<!DOCTYPE svg PUBLIC "-//W3C//DTD SVG 1.1//EN"
 "http://www.w3.org/Graphics/SVG/1.1/DTD/svg11.dtd">
<!-- Generated by graphviz version 14.1.5 (20260411.2331)
 -->
<!-- Title: TrafficLight Pages: 1 -->
<svg width="135pt" height="332pt"
 viewBox="0.00 0.00 135.00 332.00" xmlns="http://www.w3.org/2000/svg" xmlns:xlink="http://www.w3.org/1999/xlink">
<g id="graph0" class="graph" transform="scale(1 1) rotate(0) translate(4 327.65)">
<title>TrafficLight</title>
<polygon fill="white" stroke="none" points="-4,4 -4,-327.65 130.52,-327.65 130.52,4 -4,4"/>
<!-- Entry -->
<g id="node1" class="node">
<title>Entry</title>
<ellipse fill="black" stroke="#00688b" cx="68.5" cy="-316.45" rx="7.2" ry="7.2"/>
</g>
<!-- Green -->
<g id="node2" class="node">
<title>Green</title>
<path fill="azure" stroke="none" d="M90,-272.25C90,-272.25 47,-272.25 47,-272.25 41,-272.25 35,-266.25 35,-260.25 35,-260.25 35,-228.5 35,-228.5 35,-222.5 41,-216.5 47,-216.5 47,-216.5 90,-216.5 90,-216.5 96,-216.5 102,-222.5 102,-228.5 102,-228.5 102,-260.25 102,-260.25 102,-266.25 96,-272.25 90,-272.25"/>
<text xml:space="preserve" text-anchor="start" x="50.12" y="-251.95" font-family="Times,serif" font-weight="bold" font-size="14.00">Green</text>
<text xml:space="preserve" text-anchor="start" x="43" y="-215.59" font-family="Times,serif" font-size="10.00">next() &#160;&#160;&#160;&#160;&#160;&#160;&#160;&#160;&#160;&#160;&#160;</text>
<polygon fill="#00688b" stroke="#00688b" points="35,-241.75 35,-241.75 102,-241.75 102,-241.75 35,-241.75"/>
<path fill="none" stroke="#00688b" d="M47,-216.5C47,-216.5 90,-216.5 90,-216.5 96,-216.5 102,-222.5 102,-228.5 102,-228.5 102,-260.25 102,-260.25 102,-266.25 96,-272.25 90,-272.25 90,-272.25 47,-272.25 47,-272.25 41,-272.25 35,-266.25 35,-260.25 35,-260.25 35,-228.5 35,-228.5 35,-222.5 41,-216.5 47,-216.5"/>
</g>
<!-- Entry&#45;&gt;Green -->
<g id="edge1" class="edge">
<title>Entry&#45;&gt;Green</title>
<path fill="none" stroke="red" d="M68.5,-308.98C68.5,-302.88 68.5,-293.19 68.5,-283.2"/>
<polygon fill="red" stroke="red" points="72,-283.48 68.5,-273.48 65,-283.48 72,-283.48"/>
</g>
<!-- Yellow -->
<g id="node3" class="node">
<title>Yellow</title>
<path fill="azure" stroke="none" d="M55,-164C55,-164 12,-164 12,-164 6,-164 0,-158 0,-152 0,-152 0,-120.25 0,-120.25 0,-114.25 6,-108.25 12,-108.25 12,-108.25 55,-108.25 55,-108.25 61,-108.25 67,-114.25 67,-120.25 67,-120.25 67,-152 67,-152 67,-158 61,-164 55,-164"/>
<text xml:space="preserve" text-anchor="start" x="14.38" y="-143.7" font-family="Times,serif" font-weight="bold" font-size="14.00">Yellow</text>
<text xml:space="preserve" text-anchor="start" x="8" y="-107.34" font-family="Times,serif" font-size="10.00">next() &#160;&#160;&#160;&#160;&#160;&#160;&#160;&#160;&#160;&#160;&#160;</text>
<polygon fill="#00688b" stroke="#00688b" points="0,-133.5 0,-133.5 67,-133.5 67,-133.5 0,-133.5"/>
<path fill="none" stroke="#00688b" d="M12,-108.25C12,-108.25 55,-108.25 55,-108.25 61,-108.25 67,-114.25 67,-120.25 67,-120.25 67,-152 67,-152 67,-158 61,-164 55,-164 55,-164 12,-164 12,-164 6,-164 0,-158 0,-152 0,-152 0,-120.25 0,-120.25 0,-114.25 6,-108.25 12,-108.25"/>
</g>
<!-- Green&#45;&gt;Yellow -->
<g id="edge2" class="edge">
<title>Green&#45;&gt;Yellow</title>
<path fill="none" stroke="red" d="M59.67,-216.56C55.48,-203.85 50.41,-188.46 45.85,-174.61"/>
<polygon fill="red" stroke="red" points="49.26,-173.77 42.8,-165.37 42.61,-175.96 49.26,-173.77"/>
<text xml:space="preserve" text-anchor="middle" x="68.47" y="-185.2" font-family="Times,serif" font-size="14.00"> next </text>
</g>
<!-- Red -->
<g id="node4" class="node">
<title>Red</title>
<path fill="azure" stroke="none" d="M90,-55.75C90,-55.75 47,-55.75 47,-55.75 41,-55.75 35,-49.75 35,-43.75 35,-43.75 35,-12 35,-12 35,-6 41,0 47,0 47,0 90,0 90,0 96,0 102,-6 102,-12 102,-12 102,-43.75 102,-43.75 102,-49.75 96,-55.75 90,-55.75"/>
<text xml:space="preserve" text-anchor="start" x="56.88" y="-35.45" font-family="Times,serif" font-weight="bold" font-size="14.00">Red</text>
<text xml:space="preserve" text-anchor="start" x="43" y="0.91" font-family="Times,serif" font-size="10.00">next() &#160;&#160;&#160;&#160;&#160;&#160;&#160;&#160;&#160;&#160;&#160;</text>
<polygon fill="#00688b" stroke="#00688b" points="35,-25.25 35,-25.25 102,-25.25 102,-25.25 35,-25.25"/>
<path fill="none" stroke="#00688b" d="M47,0C47,0 90,0 90,0 96,0 102,-6 102,-12 102,-12 102,-43.75 102,-43.75 102,-49.75 96,-55.75 90,-55.75 90,-55.75 47,-55.75 47,-55.75 41,-55.75 35,-49.75 35,-43.75 35,-43.75 35,-12 35,-12 35,-6 41,0 47,0"/>
</g>
<!-- Yellow&#45;&gt;Red -->
<g id="edge3" class="edge">
<title>Yellow&#45;&gt;Red</title>
<path fill="none" stroke="red" d="M42.33,-108.31C46.52,-95.6 51.59,-80.21 56.15,-66.36"/>
<polygon fill="red" stroke="red" points="59.39,-67.71 59.2,-57.12 52.74,-65.52 59.39,-67.71"/>
<text xml:space="preserve" text-anchor="middle" x="68.47" y="-76.95" font-family="Times,serif" font-size="14.00"> next </text>
</g>
<!-- Red&#45;&gt;Green -->
<g id="edge4" class="edge">
<title>Red&#45;&gt;Green</title>
<path fill="none" stroke="red" d="M81.77,-55.37C84.14,-61.28 86.25,-67.61 87.5,-73.75 98.53,-128.09 98.53,-144.16 87.5,-198.5 86.99,-200.99 86.34,-203.52 85.59,-206.04"/>
<polygon fill="red" stroke="red" points="82.3,-204.86 82.27,-215.46 88.9,-207.19 82.3,-204.86"/>
<text xml:space="preserve" text-anchor="middle" x="111.15" y="-131.07" font-family="Times,serif" font-size="14.00"> next </text>
</g>
</g>
</svg>
