<?xml version="1.0" encoding="UTF-8" standalone="no"?>
<!DOCTYPE svg PUBLIC "-//W3C//DTD SVG 1.1//EN"
 "http://www.w3.org/Graphics/SVG/1.1/DTD/svg11.dtd">
<!-- Generated by graphviz version 14.1.5 (20260411.2331)
 -->
<!-- Title: TrafficLight Pages: 1 -->
<svg width="157pt" height="332pt"
 viewBox="0.00 0.00 157.00 332.00" xmlns="http://www.w3.org/2000/svg" xmlns:xlink="http://www.w3.org/1999/xlink">
<g id="graph0" class="graph" transform="scale(1 1) rotate(0) translate(4 327.65)">
<title>TrafficLight</title>
<polygon fill="white" stroke="none" points="-4,4 -4,-327.65 153.11,-327.65 153.11,4 -4,4"/>
<!-- Entry -->
<g id="node1" class="node">
<title>Entry</title>
<ellipse fill="black" stroke="#00688b" cx="95.5" cy="-316.45" rx="7.2" ry="7.2"/>
</g>
<!-- Green -->
<g id="node2" class="node">
<title>Green</title>
<path fill="azure" stroke="none" d="M135,-272.25C135,-272.25 56,-272.25 56,-272.25 50,-272.25 44,-266.25 44,-260.25 44,-260.25 44,-228.5 44,-228.5 44,-222.5 50,-216.5 56,-216.5 56,-216.5 135,-216.5 135,-216.5 141,-216.5 147,-222.5 147,-228.5 147,-228.5 147,-260.25 147,-260.25 147,-266.25 141,-272.25 135,-272.25"/>
<text xml:space="preserve" text-anchor="start" x="77.12" y="-251.95" font-family="Times,serif" font-weight="bold" font-size="14.00">Green</text>
<text xml:space="preserve" text-anchor="start" x="52" y="-226.75" font-family="Times,serif" font-size="10.00"> &#160;&#160;&#160;&#160;&#160;&#160;&#160;&#160;&#160;&#160;&#160;&#160;&#160;&#160;&#160;next() &#160;&#160;&#160;&#160;&#160;&#160;&#160;&#160;&#160;&#160;&#160;</text>
<polygon fill="#00688b" stroke="#00688b" points="44,-241.75 44,-241.75 147,-241.75 147,-241.75 44,-241.75"/>
<path fill="none" stroke="#00688b" d="M56,-216.5C56,-216.5 135,-216.5 135,-216.5 141,-216.5 147,-222.5 147,-228.5 147,-228.5 147,-260.25 147,-260.25 147,-266.25 141,-272.25 135,-272.25 135,-272.25 56,-272.25 56,-272.25 50,-272.25 44,-266.25 44,-260.25 44,-260.25 44,-228.5 44,-228.5 44,-222.5 50,-216.5 56,-216.5"/>
</g>
<!-- Entry&#45;&gt;Green -->
<g id="edge1" class="edge">
<title>Entry&#45;&gt;Green</title>
<path fill="none" stroke="red" d="M95.5,-308.98C95.5,-302.88 95.5,-293.19 95.5,-283.2"/>
<polygon fill="red" stroke="red" points="99,-283.48 95.5,-273.48 92,-283.48 99,-283.48"/>
</g>
<!-- Yellow -->
<g id="node3" class="node">
<title>Yellow</title>
<path fill="azure" stroke="none" d="M91,-164C91,-164 12,-164 12,-164 6,-164 0,-158 0,-152 0,-152 0,-120.25 0,-120.25 0,-114.25 6,-108.25 12,-108.25 12,-108.25 91,-108.25 91,-108.25 97,-108.25 103,-114.25 103,-120.25 103,-120.25 103,-152 103,-152 103,-158 97,-164 91,-164"/>
<text xml:space="preserve" text-anchor="start" x="32.38" y="-143.7" font-family="Times,serif" font-weight="bold" font-size="14.00">Yellow</text>
<text xml:space="preserve" text-anchor="start" x="8" y="-118.5" font-family="Times,serif" font-size="10.00"> &#160;&#160;&#160;&#160;&#160;&#160;&#160;&#160;&#160;&#160;&#160;&#160;&#160;&#160;&#160;next() &#160;&#160;&#160;&#160;&#160;&#160;&#160;&#160;&#160;&#160;&#160;</text>
<polygon fill="#00688b" stroke="#00688b" points="0,-133.5 0,-133.5 103,-133.5 103,-133.5 0,-133.5"/>
<path fill="none" stroke="#00688b" d="M12,-108.25C12,-108.25 91,-108.25 91,-108.25 97,-108.25 103,-114.25 103,-120.25 103,-120.25 103,-152 103,-152 103,-158 97,-164 91,-164 91,-164 12,-164 12,-164 6,-164 0,-158 0,-152 0,-152 0,-120.25 0,-120.25 0,-114.25 6,-108.25 12,-108.25"/>
</g>
<!-- Green&#45;&gt;Yellow -->
<g id="edge2" class="edge">
<title>Green&#45;&gt;Yellow</title>
<path fill="none" stroke="red" d="M84.4,-216.56C79.08,-203.73 72.63,-188.15 66.86,-174.2"/>
<polygon fill="red" stroke="red" points="70.24,-173.23 63.18,-165.33 63.77,-175.9 70.24,-173.23"/>
<text xml:space="preserve" text-anchor="middle" x="91.51" y="-185.2" font-family="Times,serif" font-size="14.00"> next </text>
</g>
<!-- Red -->
<g id="node4" class="node">
<title>Red</title>
<path fill="azure" stroke="none" d="M135,-55.75C135,-55.75 56,-55.75 56,-55.75 50,-55.75 44,-49.75 44,-43.75 44,-43.75 44,-12 44,-12 44,-6 50,0 56,0 56,0 135,0 135,0 141,0 147,-6 147,-12 147,-12 147,-43.75 147,-43.75 147,-49.75 141,-55.75 135,-55.75"/>
<text xml:space="preserve" text-anchor="start" x="83.88" y="-35.45" font-family="Times,serif" font-weight="bold" font-size="14.00">Red</text>
<text xml:space="preserve" text-anchor="start" x="52" y="-10.25" font-family="Times,serif" font-size="10.00"> &#160;&#160;&#160;&#160;&#160;&#160;&#160;&#160;&#160;&#160;&#160;&#160;&#160;&#160;&#160;next() &#160;&#160;&#160;&#160;&#160;&#160;&#160;&#160;&#160;&#160;&#160;</text>
<polygon fill="#00688b" stroke="#00688b" points="44,-25.25 44,-25.25 147,-25.25 147,-25.25 44,-25.25"/>
<path fill="none" stroke="#00688b" d="M56,0C56,0 135,0 135,0 141,0 147,-6 147,-12 147,-12 147,-43.75 147,-43.75 147,-49.75 141,-55.75 135,-55.75 135,-55.75 56,-55.75 56,-55.75 50,-55.75 44,-49.75 44,-43.75 44,-43.75 44,-12 44,-12 44,-6 50,0 56,0"/>
</g>
<!-- Yellow&#45;&gt;Red -->
<g id="edge3" class="edge">
<title>Yellow&#45;&gt;Red</title>
<path fill="none" stroke="red" d="M62.6,-108.31C67.92,-95.48 74.37,-79.9 80.14,-65.95"/>
<polygon fill="red" stroke="red" points="83.23,-67.65 83.82,-57.08 76.76,-64.98 83.23,-67.65"/>
<text xml:space="preserve" text-anchor="middle" x="91.51" y="-76.95" font-family="Times,serif" font-size="14.00"> next </text>
</g>
<!-- Red&#45;&gt;Green -->
<g id="edge4" class="edge">
<title>Red&#45;&gt;Green</title>
<path fill="none" stroke="red" d="M105.72,-55.62C107.61,-61.51 109.35,-67.78 110.5,-73.75 120.98,-128.19 120.98,-144.06 110.5,-198.5 110.05,-200.83 109.51,-203.21 108.91,-205.59"/>
<polygon fill="red" stroke="red" points="105.55,-204.6 106.14,-215.18 112.28,-206.54 105.55,-204.6"/>
<text xml:space="preserve" text-anchor="middle" x="133.74" y="-131.07" font-family="Times,serif" font-size="14.00"> next </text>
</g>
</g>
</svg>
