<?xml version="1.0" encoding="UTF-8" standalone="no"?>
<!DOCTYPE svg PUBLIC "-//W3C//DTD SVG 1.1//EN"
 "http://www.w3.org/Graphics/SVG/1.1/DTD/svg11.dtd">
<!-- Generated by graphviz version 14.1.5 (20260411.2331)
 -->
<!-- Title: TrafficLight Pages: 1 -->
<svg width="122pt" height="365pt"
 viewBox="0.00 0.00 122.00 365.00" xmlns="http://www.w3.org/2000/svg" xmlns:xlink="http://www.w3.org/1999/xlink">
<g id="graph0" class="graph" transform="scale(1 1) rotate(0) translate(4 361.4)">
<title>TrafficLight</title>
<polygon fill="white" stroke="none" points="-4,4 -4,-361.4 118.2,-361.4 118.2,4 -4,4"/>
<!-- Entry -->
<g id="node1" class="node">
<title>Entry</title>
<ellipse fill="black" stroke="#00688b" cx="59.12" cy="-350.2" rx="7.2" ry="7.2"/>
</g>
<!-- Green -->
<g id="node2" class="node">
<title>Green</title>
<path fill="azure" stroke="none" d="M74.12,-306C74.12,-306 44.12,-306 44.12,-306 38.12,-306 32.12,-300 32.12,-294 32.12,-294 32.12,-251 32.12,-251 32.12,-245 38.12,-239 44.12,-239 44.12,-239 74.12,-239 74.12,-239 80.12,-239 86.12,-245 86.12,-251 86.12,-251 86.12,-294 86.12,-294 86.12,-300 80.12,-306 74.12,-306"/>
<text xml:space="preserve" text-anchor="start" x="40.75" y="-285.7" font-family="Times,serif" font-weight="bold" font-size="14.00">Green</text>
<text xml:space="preserve" text-anchor="start" x="40.75" y="-260.5" font-family="Times,serif" font-size="10.00">next()</text>
<text xml:space="preserve" text-anchor="start" x="40.75" y="-249.25" font-family="Times,serif" font-size="10.00"> &#160;&#160;&#160;&#160;&#160;&#160;&#160;&#160;&#160;&#160;&#160;</text>
<polygon fill="#00688b" stroke="#00688b" points="32.75,-275.5 32.75,-275.5 85.5,-275.5 85.5,-275.5 32.75,-275.5"/>
<path fill="none" stroke="#00688b" d="M44.75,-239C44.75,-239 73.5,-239 73.5,-239 79.5,-239 85.5,-245 85.5,-251 85.5,-251 85.5,-294 85.5,-294 85.5,-300 79.5,-306 73.5,-306 73.5,-306 44.75,-306 44.75,-306 38.75,-306 32.75,-300 32.75,-294 32.75,-294 32.75,-251 32.75,-251 32.75,-245 38.75,-239 44.75,-239"/>
</g>
<!-- Entry&#45;&gt;Green -->
<g id="edge1" class="edge">
<title>Entry&#45;&gt;Green</title>
<path fill="none" stroke="red" d="M59.12,-342.75C59.12,-336.77 59.12,-327.32 59.12,-317.3"/>
<polygon fill="red" stroke="red" points="62.63,-317.41 59.13,-307.41 55.63,-317.41 62.63,-317.41"/>
</g>
<!-- Yellow -->
<g id="node3" class="node">
<title>Yellow</title>
<path fill="azure" stroke="none" d="M42.25,-186.5C42.25,-186.5 12,-186.5 12,-186.5 6,-186.5 0,-180.5 0,-174.5 0,-174.5 0,-131.5 0,-131.5 0,-125.5 6,-119.5 12,-119.5 12,-119.5 42.25,-119.5 42.25,-119.5 48.25,-119.5 54.25,-125.5 54.25,-131.5 54.25,-131.5 54.25,-174.5 54.25,-174.5 54.25,-180.5 48.25,-186.5 42.25,-186.5"/>
<text xml:space="preserve" text-anchor="start" x="8" y="-166.2" font-family="Times,serif" font-weight="bold" font-size="14.00">Yellow</text>
<text xml:space="preserve" text-anchor="start" x="8" y="-141" font-family="Times,serif" font-size="10.00">next()</text>
<text xml:space="preserve" text-anchor="start" x="8" y="-129.75" font-family="Times,serif" font-size="10.00"> &#160;&#160;&#160;&#160;&#160;&#160;&#160;&#160;&#160;&#160;&#160;</text>
<polygon fill="#00688b" stroke="#00688b" points="0,-156 0,-156 54.25,-156 54.25,-156 0,-156"/>
<path fill="none" stroke="#00688b" d="M12,-119.5C12,-119.5 42.25,-119.5 42.25,-119.5 48.25,-119.5 54.25,-125.5 54.25,-131.5 54.25,-131.5 54.25,-174.5 54.25,-174.5 54.25,-180.5 48.25,-186.5 42.25,-186.5 42.25,-186.5 12,-186.5 12,-186.5 6,-186.5 0,-180.5 0,-174.5 0,-174.5 0,-131.5 0,-131.5 0,-125.5 6,-119.5 12,-119.5"/>
</g>
<!-- Green&#45;&gt;Yellow -->
<g id="edge2" class="edge">
<title>Green&#45;&gt;Yellow</title>
<path fill="none" stroke="red" d="M50.3,-239.08C46.76,-226.11 42.64,-210.98 38.86,-197.11"/>
<polygon fill="red" stroke="red" points="42.33,-196.5 36.32,-187.77 35.57,-198.34 42.33,-196.5"/>
<text xml:space="preserve" text-anchor="middle" x="60.42" y="-207.7" font-family="Times,serif" font-size="14.00"> next </text>
</g>
<!-- Red -->
<g id="node4" class="node">
<title>Red</title>
<path fill="azure" stroke="none" d="M74.12,-67C74.12,-67 44.12,-67 44.12,-67 38.12,-67 32.12,-61 32.12,-55 32.12,-55 32.12,-12 32.12,-12 32.12,-6 38.12,0 44.12,0 44.12,0 74.12,0 74.12,0 80.12,0 86.12,-6 86.12,-12 86.12,-12 86.12,-55 86.12,-55 86.12,-61 80.12,-67 74.12,-67"/>
<text xml:space="preserve" text-anchor="start" x="47.5" y="-46.7" font-family="Times,serif" font-weight="bold" font-size="14.00">Red</text>
<text xml:space="preserve" text-anchor="start" x="45.62" y="-21.5" font-family="Times,serif" font-size="10.00">next()</text>
<text xml:space="preserve" text-anchor="start" x="45.62" y="-10.25" font-family="Times,serif" font-size="10.00"> &#160;&#160;&#160;&#160;&#160;&#160;&#160;&#160;&#160;&#160;&#160;</text>
<polygon fill="#00688b" stroke="#00688b" points="37.62,-36.5 37.62,-36.5 80.62,-36.5 80.62,-36.5 37.62,-36.5"/>
<path fill="none" stroke="#00688b" d="M49.62,0C49.62,0 68.62,0 68.62,0 74.62,0 80.62,-6 80.62,-12 80.62,-12 80.62,-55 80.62,-55 80.62,-61 74.62,-67 68.62,-67 68.62,-67 49.62,-67 49.62,-67 43.62,-67 37.62,-61 37.62,-55 37.62,-55 37.62,-12 37.62,-12 37.62,-6 43.62,0 49.62,0"/>
</g>
<!-- Yellow&#45;&gt;Red -->
<g id="edge3" class="edge">
<title>Yellow&#45;&gt;Red</title>
<path fill="none" stroke="red" d="M35.95,-119.58C39.49,-106.61 43.61,-91.48 47.39,-77.61"/>
<polygon fill="red" stroke="red" points="50.68,-78.84 49.93,-68.27 43.92,-77 50.68,-78.84"/>
<text xml:space="preserve" text-anchor="middle" x="60.42" y="-88.2" font-family="Times,serif" font-size="14.00"> next </text>
</g>
<!-- Red&#45;&gt;Green -->
<g id="edge4" class="edge">
<title>Red&#45;&gt;Green</title>
<path fill="none" stroke="red" d="M71.77,-66.98C73.58,-72.89 75.15,-79.07 76.12,-85 85.9,-144.65 85.9,-161.35 76.12,-221 75.75,-223.32 75.27,-225.67 74.73,-228.03"/>
<polygon fill="red" stroke="red" points="71.39,-227 72.16,-237.56 78.15,-228.82 71.39,-227"/>
<text xml:space="preserve" text-anchor="middle" x="98.83" y="-147.95" font-family="Times,serif" font-size="14.00"> next </text>
</g>
</g>
</svg>
