<?xml version="1.0" encoding="UTF-8" standalone="no"?>
<!DOCTYPE svg PUBLIC "-//W3C//DTD SVG 1.1//EN"
 "http://www.w3.org/Graphics/SVG/1.1/DTD/svg11.dtd">
<!-- Generated by graphviz version 14.1.5 (20260411.2331)
 -->
<!-- Title: Switch Pages: 1 -->
<svg width="116pt" height="246pt"
 viewBox="0.00 0.00 116.00 246.00" xmlns="http://www.w3.org/2000/svg" xmlns:xlink="http://www.w3.org/1999/xlink">
<g id="graph0" class="graph" transform="scale(1 1) rotate(0) translate(4 241.9)">
<title>Switch</title>
<polygon fill="white" stroke="none" points="-4,4 -4,-241.9 112.25,-241.9 112.25,4 -4,4"/>
<!-- Entry -->
<g id="node1" class="node">
<title>Entry</title>
<ellipse fill="black" stroke="#00688b" cx="54.12" cy="-230.7" rx="7.2" ry="7.2"/>
</g>
<!-- Off -->
<g id="node2" class="node">
<title>Off</title>
<path fill="azure" stroke="none" d="M96.25,-186.5C96.25,-186.5 12,-186.5 12,-186.5 6,-186.5 0,-180.5 0,-174.5 0,-174.5 0,-131.5 0,-131.5 0,-125.5 6,-119.5 12,-119.5 12,-119.5 96.25,-119.5 96.25,-119.5 102.25,-119.5 108.25,-125.5 108.25,-131.5 108.25,-131.5 108.25,-174.5 108.25,-174.5 108.25,-180.5 102.25,-186.5 96.25,-186.5"/>
<text xml:space="preserve" text-anchor="start" x="44" y="-166.2" font-family="Times,serif" font-weight="bold" font-size="14.00">Off</text>
<text xml:space="preserve" text-anchor="start" x="8" y="-141" font-family="Times,serif" font-size="10.00"> &#160;&#160;&#160;&#160;&#160;&#160;&#160;&#160;&#160;&#160;&#160;&#160;&#160;&#160;&#160;toggle()</text>
<text xml:space="preserve" text-anchor="start" x="8" y="-129.75" font-family="Times,serif" font-size="10.00"> &#160;&#160;&#160;&#160;&#160;&#160;&#160;&#160;&#160;&#160;&#160;&#160;&#160;&#160;&#160;status() &#160;&#160;&#160;&#160;&#160;&#160;&#160;&#160;&#160;&#160;&#160;</text>
<polygon fill="#00688b" stroke="#00688b" points="0,-156 0,-156 108.25,-156 108.25,-156 0,-156"/>
<path fill="none" stroke="#00688b" d="M12,-119.5C12,-119.5 96.25,-119.5 96.25,-119.5 102.25,-119.5 108.25,-125.5 108.25,-131.5 108.25,-131.5 108.25,-174.5 108.25,-174.5 108.25,-180.5 102.25,-186.5 96.25,-186.5 96.25,-186.5 12,-186.5 12,-186.5 6,-186.5 0,-180.5 0,-174.5 0,-174.5 0,-131.5 0,-131.5 0,-125.5 6,-119.5 12,-119.5"/>
</g>
<!-- Entry&#45;&gt;Off -->
<g id="edge1" class="edge">
<title>Entry&#45;&gt;Off</title>
<path fill="none" stroke="red" d="M54.12,-223.25C54.12,-217.27 54.12,-207.82 54.12,-197.8"/>
<polygon fill="red" stroke="red" points="57.63,-197.91 54.13,-187.91 50.63,-197.91 57.63,-197.91"/>
</g>
<!-- On -->
<g id="node3" class="node">
<title>On</title>
<path fill="azure" stroke="none" d="M96.25,-67C96.25,-67 12,-67 12,-67 6,-67 0,-61 0,-55 0,-55 0,-12 0,-12 0,-6 6,0 12,0 12,0 96.25,0 96.25,0 102.25,0 108.25,-6 108.25,-12 108.25,-12 108.25,-55 108.25,-55 108.25,-61 102.25,-67 96.25,-67"/>
<text xml:space="preserve" text-anchor="start" x="44.75" y="-46.7" font-family="Times,serif" font-weight="bold" font-size="14.00">On</text>
<text xml:space="preserve" text-anchor="start" x="8" y="-21.5" font-family="Times,serif" font-size="10.00"> &#160;&#160;&#160;&#160;&#160;&#160;&#160;&#160;&#160;&#160;&#160;&#160;&#160;&#160;&#160;toggle()</text>
<text xml:space="preserve" text-anchor="start" x="8" y="-10.25" font-family="Times,serif" font-size="10.00"> &#160;&#160;&#160;&#160;&#160;&#160;&#160;&#160;&#160;&#160;&#160;&#160;&#160;&#160;&#160;status() &#160;&#160;&#160;&#160;&#160;&#160;&#160;&#160;&#160;&#160;&#160;</text>
<polygon fill="#00688b" stroke="#00688b" points="0,-36.5 0,-36.5 108.25,-36.5 108.25,-36.5 0,-36.5"/>
<path fill="none" stroke="#00688b" d="M12,0C12,0 96.25,0 96.25,0 102.25,0 108.25,-6 108.25,-12 108.25,-12 108.25,-55 108.25,-55 108.25,-61 102.25,-67 96.25,-67 96.25,-67 12,-67 12,-67 6,-67 0,-61 0,-55 0,-55 0,-12 0,-12 0,-6 6,0 12,0"/>
</g>
<!-- Off&#45;&gt;On -->
<g id="edge2" class="edge">
<title>Off&#45;&gt;On</title>
<path fill="none" stroke="red" d="M30.5,-119.54C27.36,-113.78 24.62,-107.65 22.88,-101.5 20.58,-93.44 21.49,-85.13 24.12,-77.22"/>
<polygon fill="red" stroke="red" points="27.29,-78.71 28.03,-68.14 20.86,-75.94 27.29,-78.71"/>
<text xml:space="preserve" text-anchor="middle" x="43.5" y="-88.2" font-family="Times,serif" font-size="14.00"> toggle </text>
</g>
<!-- On&#45;&gt;Off -->
<g id="edge3" class="edge">
<title>On&#45;&gt;Off</title>
<path fill="none" stroke="red" d="M62.19,-66.79C64.07,-77.78 65.24,-90.15 64.12,-101.5 63.91,-103.7 63.64,-105.95 63.33,-108.21"/>
<polygon fill="red" stroke="red" points="59.89,-107.62 61.76,-118.05 66.8,-108.72 59.89,-107.62"/>
<text xml:space="preserve" text-anchor="middle" x="85.18" y="-88.2" font-family="Times,serif" font-size="14.00"> toggle </text>
</g>
</g>
</svg>
