<?xml version="1.0" encoding="UTF-8" standalone="no"?>
<!DOCTYPE svg PUBLIC "-//W3C//DTD SVG 1.1//EN"
 "http://www.w3.org/Graphics/SVG/1.1/DTD/svg11.dtd">
<!-- Generated by graphviz version 14.1.5 (20260411.2331)
 -->
<!-- Title: Switch Pages: 1 -->
<svg width="96pt" height="246pt"
 viewBox="0.00 0.00 96.00 246.00" xmlns="http://www.w3.org/2000/svg" xmlns:xlink="http://www.w3.org/1999/xlink">
<g id="graph0" class="graph" transform="scale(1 1) rotate(0) translate(4 241.9)">
<title>Switch</title>
<polygon fill="white" stroke="none" points="-4,4 -4,-241.9 91.81,-241.9 91.81,4 -4,4"/>
<!-- Entry -->
<g id="node1" class="node">
<title>Entry</title>
<ellipse fill="black" stroke="#00688b" cx="36.12" cy="-230.7" rx="7.2" ry="7.2"/>
</g>
<!-- Off -->
<g id="node2" class="node">
<title>Off</title>
<path fill="azure" stroke="none" d="M60.25,-186.5C60.25,-186.5 12,-186.5 12,-186.5 6,-186.5 0,-180.5 0,-174.5 0,-174.5 0,-131.5 0,-131.5 0,-125.5 6,-119.5 12,-119.5 12,-119.5 60.25,-119.5 60.25,-119.5 66.25,-119.5 72.25,-125.5 72.25,-131.5 72.25,-131.5 72.25,-174.5 72.25,-174.5 72.25,-180.5 66.25,-186.5 60.25,-186.5"/>
<text xml:space="preserve" text-anchor="start" x="26" y="-166.2" font-family="Times,serif" font-weight="bold" font-size="14.00">Off</text>
<text xml:space="preserve" text-anchor="start" x="8" y="-129.84" font-family="Times,serif" font-size="10.00">toggle()</text>
<text xml:space="preserve" text-anchor="start" x="8" y="-118.59" font-family="Times,serif" font-size="10.00">status() &#160;&#160;&#160;&#160;&#160;&#160;&#160;&#160;&#160;&#160;&#160;</text>
<polygon fill="#00688b" stroke="#00688b" points="0,-156 0,-156 72.25,-156 72.25,-156 0,-156"/>
<path fill="none" stroke="#00688b" d="M12,-119.5C12,-119.5 60.25,-119.5 60.25,-119.5 66.25,-119.5 72.25,-125.5 72.25,-131.5 72.25,-131.5 72.25,-174.5 72.25,-174.5 72.25,-180.5 66.25,-186.5 60.25,-186.5 60.25,-186.5 12,-186.5 12,-186.5 6,-186.5 0,-180.5 0,-174.5 0,-174.5 0,-131.5 0,-131.5 0,-125.5 6,-119.5 12,-119.5"/>
</g>
<!-- Entry&#45;&gt;Off -->
<g id="edge1" class="edge">
<title>Entry&#45;&gt;Off</title>
<path fill="none" stroke="red" d="M36.12,-223.25C36.12,-217.27 36.12,-207.82 36.12,-197.8"/>
<polygon fill="red" stroke="red" points="39.63,-197.91 36.13,-187.91 32.63,-197.91 39.63,-197.91"/>
</g>
<!-- On -->
<g id="node3" class="node">
<title>On</title>
<path fill="azure" stroke="none" d="M60.25,-67C60.25,-67 12,-67 12,-67 6,-67 0,-61 0,-55 0,-55 0,-12 0,-12 0,-6 6,0 12,0 12,0 60.25,0 60.25,0 66.25,0 72.25,-6 72.25,-12 72.25,-12 72.25,-55 72.25,-55 72.25,-61 66.25,-67 60.25,-67"/>
<text xml:space="preserve" text-anchor="start" x="26.75" y="-46.7" font-family="Times,serif" font-weight="bold" font-size="14.00">On</text>
<text xml:space="preserve" text-anchor="start" x="8" y="-10.34" font-family="Times,serif" font-size="10.00">toggle()</text>
<text xml:space="preserve" text-anchor="start" x="8" y="0.91" font-family="Times,serif" font-size="10.00">status() &#160;&#160;&#160;&#160;&#160;&#160;&#160;&#160;&#160;&#160;&#160;</text>
<polygon fill="#00688b" stroke="#00688b" points="0,-36.5 0,-36.5 72.25,-36.5 72.25,-36.5 0,-36.5"/>
<path fill="none" stroke="#00688b" d="M12,0C12,0 60.25,0 60.25,0 66.25,0 72.25,-6 72.25,-12 72.25,-12 72.25,-55 72.25,-55 72.25,-61 66.25,-67 60.25,-67 60.25,-67 12,-67 12,-67 6,-67 0,-61 0,-55 0,-55 0,-12 0,-12 0,-6 6,0 12,0"/>
</g>
<!-- Off&#45;&gt;On -->
<g id="edge2" class="edge">
<title>Off&#45;&gt;On</title>
<path fill="none" stroke="red" d="M12.5,-119.54C9.36,-113.78 6.62,-107.65 4.88,-101.5 2.58,-93.44 3.49,-85.13 6.12,-77.22"/>
<polygon fill="red" stroke="red" points="9.29,-78.71 10.03,-68.14 2.86,-75.94 9.29,-78.71"/>
<text xml:space="preserve" text-anchor="middle" x="25.5" y="-88.2" font-family="Times,serif" font-size="14.00"> toggle </text>
</g>
<!-- On&#45;&gt;Off -->
<g id="edge3" class="edge">
<title>On&#45;&gt;Off</title>
<path fill="none" stroke="red" d="M44.19,-66.79C46.07,-77.78 47.24,-90.15 46.12,-101.5 45.91,-103.7 45.64,-105.95 45.33,-108.21"/>
<polygon fill="red" stroke="red" points="41.89,-107.62 43.76,-118.05 48.8,-108.72 41.89,-107.62"/>
<text xml:space="preserve" text-anchor="middle" x="67.18" y="-88.2" font-family="Times,serif" font-size="14.00"> toggle </text>
</g>
</g>
</svg>
