<?xml version="1.0" encoding="UTF-8" standalone="no"?>
<!DOCTYPE svg PUBLIC "-//W3C//DTD SVG 1.1//EN"
 "http://www.w3.org/Graphics/SVG/1.1/DTD/svg11.dtd">
<!-- Generated by graphviz version 14.1.5 (20260411.2331)
 -->
<!-- Title: Switch Pages: 1 -->
<svg width="92pt" height="268pt"
 viewBox="0.00 0.00 92.00 268.00" xmlns="http://www.w3.org/2000/svg" xmlns:xlink="http://www.w3.org/1999/xlink">
<g id="graph0" class="graph" transform="scale(1 1) rotate(0) translate(4 264.4)">
<title>Switch</title>
<polygon fill="white" stroke="none" points="-4,4 -4,-264.4 88.3,-264.4 88.3,4 -4,4"/>
<!-- Entry -->
<g id="node1" class="node">
<title>Entry</title>
<ellipse fill="black" stroke="#00688b" cx="32.64" cy="-253.2" rx="7.2" ry="7.2"/>
</g>
<!-- Off -->
<g id="node2" class="node">
<title>Off</title>
<path fill="azure" stroke="none" d="M47.64,-209C47.64,-209 17.64,-209 17.64,-209 11.64,-209 5.64,-203 5.64,-197 5.64,-197 5.64,-142.75 5.64,-142.75 5.64,-136.75 11.64,-130.75 17.64,-130.75 17.64,-130.75 47.64,-130.75 47.64,-130.75 53.64,-130.75 59.64,-136.75 59.64,-142.75 59.64,-142.75 59.64,-197 59.64,-197 59.64,-203 53.64,-209 47.64,-209"/>
<text xml:space="preserve" text-anchor="start" x="22.51" y="-188.7" font-family="Times,serif" font-weight="bold" font-size="14.00">Off</text>
<text xml:space="preserve" text-anchor="start" x="16.51" y="-163.5" font-family="Times,serif" font-size="10.00">toggle()</text>
<text xml:space="preserve" text-anchor="start" x="16.51" y="-152.25" font-family="Times,serif" font-size="10.00">status()</text>
<text xml:space="preserve" text-anchor="start" x="19.14" y="-141" font-family="Times,serif" font-size="10.00"> &#160;&#160;&#160;&#160;&#160;&#160;&#160;&#160;&#160;&#160;&#160;</text>
<polygon fill="#00688b" stroke="#00688b" points="8.51,-178.5 8.51,-178.5 56.76,-178.5 56.76,-178.5 8.51,-178.5"/>
<path fill="none" stroke="#00688b" d="M20.51,-130.75C20.51,-130.75 44.76,-130.75 44.76,-130.75 50.76,-130.75 56.76,-136.75 56.76,-142.75 56.76,-142.75 56.76,-197 56.76,-197 56.76,-203 50.76,-209 44.76,-209 44.76,-209 20.51,-209 20.51,-209 14.51,-209 8.51,-203 8.51,-197 8.51,-197 8.51,-142.75 8.51,-142.75 8.51,-136.75 14.51,-130.75 20.51,-130.75"/>
</g>
<!-- Entry&#45;&gt;Off -->
<g id="edge1" class="edge">
<title>Entry&#45;&gt;Off</title>
<path fill="none" stroke="red" d="M32.64,-245.54C32.64,-239.53 32.64,-230.07 32.64,-219.88"/>
<polygon fill="red" stroke="red" points="36.14,-220.19 32.64,-210.19 29.14,-220.19 36.14,-220.19"/>
</g>
<!-- On -->
<g id="node3" class="node">
<title>On</title>
<path fill="azure" stroke="none" d="M47.64,-78.25C47.64,-78.25 17.64,-78.25 17.64,-78.25 11.64,-78.25 5.64,-72.25 5.64,-66.25 5.64,-66.25 5.64,-12 5.64,-12 5.64,-6 11.64,0 17.64,0 17.64,0 47.64,0 47.64,0 53.64,0 59.64,-6 59.64,-12 59.64,-12 59.64,-66.25 59.64,-66.25 59.64,-72.25 53.64,-78.25 47.64,-78.25"/>
<text xml:space="preserve" text-anchor="start" x="23.26" y="-57.95" font-family="Times,serif" font-weight="bold" font-size="14.00">On</text>
<text xml:space="preserve" text-anchor="start" x="16.51" y="-32.75" font-family="Times,serif" font-size="10.00">toggle()</text>
<text xml:space="preserve" text-anchor="start" x="16.51" y="-21.5" font-family="Times,serif" font-size="10.00">status()</text>
<text xml:space="preserve" text-anchor="start" x="19.14" y="-10.25" font-family="Times,serif" font-size="10.00"> &#160;&#160;&#160;&#160;&#160;&#160;&#160;&#160;&#160;&#160;&#160;</text>
<polygon fill="#00688b" stroke="#00688b" points="8.51,-47.75 8.51,-47.75 56.76,-47.75 56.76,-47.75 8.51,-47.75"/>
<path fill="none" stroke="#00688b" d="M20.51,0C20.51,0 44.76,0 44.76,0 50.76,0 56.76,-6 56.76,-12 56.76,-12 56.76,-66.25 56.76,-66.25 56.76,-72.25 50.76,-78.25 44.76,-78.25 44.76,-78.25 20.51,-78.25 20.51,-78.25 14.51,-78.25 8.51,-72.25 8.51,-66.25 8.51,-66.25 8.51,-12 8.51,-12 8.51,-6 14.51,0 20.51,0"/>
</g>
<!-- Off&#45;&gt;On -->
<g id="edge2" class="edge">
<title>Off&#45;&gt;On</title>
<path fill="none" stroke="red" d="M8.24,-131.01C5.42,-125.1 2.98,-118.9 1.39,-112.75 -0.65,-104.89 -0.08,-96.79 2,-88.98"/>
<polygon fill="red" stroke="red" points="5.28,-90.2 5.33,-79.6 -1.31,-87.85 5.28,-90.2"/>
<text xml:space="preserve" text-anchor="middle" x="22.01" y="-99.45" font-family="Times,serif" font-size="14.00"> toggle </text>
</g>
<!-- On&#45;&gt;Off -->
<g id="edge3" class="edge">
<title>On&#45;&gt;Off</title>
<path fill="none" stroke="red" d="M41.13,-78.11C42.73,-89.25 43.63,-101.47 42.64,-112.75 42.43,-115.06 42.18,-117.42 41.9,-119.8"/>
<polygon fill="red" stroke="red" points="38.46,-119.07 40.54,-129.46 45.4,-120.04 38.46,-119.07"/>
<text xml:space="preserve" text-anchor="middle" x="63.68" y="-99.45" font-family="Times,serif" font-size="14.00"> toggle </text>
</g>
</g>
</svg>
