<?xml version="1.0" encoding="UTF-8" standalone="no"?>
<!DOCTYPE svg PUBLIC "-//W3C//DTD SVG 1.1//EN"
 "http://www.w3.org/Graphics/SVG/1.1/DTD/svg11.dtd">
<!-- Generated by graphviz version 14.1.5 (20260411.2331)
 -->
<!-- Title: Turnstile Pages: 1 -->
<svg width="82pt" height="246pt"
 viewBox="0.00 0.00 82.00 246.00" xmlns="http://www.w3.org/2000/svg" xmlns:xlink="http://www.w3.org/1999/xlink">
<g id="graph0" class="graph" transform="scale(1 1) rotate(0) translate(4 241.9)">
<title>Turnstile</title>
<polygon fill="white" stroke="none" points="-4,4 -4,-241.9 77.59,-241.9 77.59,4 -4,4"/>
<!-- Entry -->
<g id="node1" class="node">
<title>Entry</title>
<ellipse fill="black" stroke="#00688b" cx="35.38" cy="-230.7" rx="7.2" ry="7.2"/>
</g>
<!-- Locked -->
<g id="node2" class="node">
<title>Locked</title>
<path fill="azure" stroke="none" d="M57.62,-186.5C57.62,-186.5 13.12,-186.5 13.12,-186.5 7.12,-186.5 1.12,-180.5 1.12,-174.5 1.12,-174.5 1.12,-131.5 1.12,-131.5 1.12,-125.5 7.12,-119.5 13.12,-119.5 13.12,-119.5 57.62,-119.5 57.62,-119.5 63.62,-119.5 69.62,-125.5 69.62,-131.5 69.62,-131.5 69.62,-174.5 69.62,-174.5 69.62,-180.5 63.62,-186.5 57.62,-186.5"/>
<text xml:space="preserve" text-anchor="start" x="14" y="-166.2" font-family="Times,serif" font-weight="bold" font-size="14.00">Locked</text>
<text xml:space="preserve" text-anchor="start" x="9.12" y="-129.84" font-family="Times,serif" font-size="10.00">coin()</text>
<text xml:space="preserve" text-anchor="start" x="9.12" y="-118.59" font-family="Times,serif" font-size="10.00">push() &#160;&#160;&#160;&#160;&#160;&#160;&#160;&#160;&#160;&#160;&#160;</text>
<polygon fill="#00688b" stroke="#00688b" points="1.12,-156 1.12,-156 69.62,-156 69.62,-156 1.12,-156"/>
<path fill="none" stroke="#00688b" d="M13.12,-119.5C13.12,-119.5 57.62,-119.5 57.62,-119.5 63.62,-119.5 69.62,-125.5 69.62,-131.5 69.62,-131.5 69.62,-174.5 69.62,-174.5 69.62,-180.5 63.62,-186.5 57.62,-186.5 57.62,-186.5 13.12,-186.5 13.12,-186.5 7.12,-186.5 1.12,-180.5 1.12,-174.5 1.12,-174.5 1.12,-131.5 1.12,-131.5 1.12,-125.5 7.12,-119.5 13.12,-119.5"/>
</g>
<!-- Entry&#45;&gt;Locked -->
<g id="edge1" class="edge">
<title>Entry&#45;&gt;Locked</title>
<path fill="none" stroke="red" d="M35.38,-223.25C35.38,-217.27 35.38,-207.82 35.38,-197.8"/>
<polygon fill="red" stroke="red" points="38.88,-197.91 35.38,-187.91 31.88,-197.91 38.88,-197.91"/>
</g>
<!-- Unlocked -->
<g id="node3" class="node">
<title>Unlocked</title>
<path fill="azure" stroke="none" d="M58.75,-67C58.75,-67 12,-67 12,-67 6,-67 0,-61 0,-55 0,-55 0,-12 0,-12 0,-6 6,0 12,0 12,0 58.75,0 58.75,0 64.75,0 70.75,-6 70.75,-12 70.75,-12 70.75,-55 70.75,-55 70.75,-61 64.75,-67 58.75,-67"/>
<text xml:space="preserve" text-anchor="start" x="8" y="-46.7" font-family="Times,serif" font-weight="bold" font-size="14.00">Unlocked</text>
<text xml:space="preserve" text-anchor="start" x="8" y="-10.34" font-family="Times,serif" font-size="10.00">coin()</text>
<text xml:space="preserve" text-anchor="start" x="8" y="0.91" font-family="Times,serif" font-size="10.00">push() &#160;&#160;&#160;&#160;&#160;&#160;&#160;&#160;&#160;&#160;&#160;</text>
<polygon fill="#00688b" stroke="#00688b" points="0,-36.5 0,-36.5 70.75,-36.5 70.75,-36.5 0,-36.5"/>
<path fill="none" stroke="#00688b" d="M12,0C12,0 58.75,0 58.75,0 64.75,0 70.75,-6 70.75,-12 70.75,-12 70.75,-55 70.75,-55 70.75,-61 64.75,-67 58.75,-67 58.75,-67 12,-67 12,-67 6,-67 0,-61 0,-55 0,-55 0,-12 0,-12 0,-6 6,0 12,0"/>
</g>
<!-- Locked&#45;&gt;Unlocked -->
<g id="edge2" class="edge">
<title>Locked&#45;&gt;Unlocked</title>
<path fill="none" stroke="red" d="M16.13,-119.73C13.44,-113.84 11.1,-107.62 9.62,-101.5 7.73,-93.59 8.47,-85.37 10.63,-77.49"/>
<polygon fill="red" stroke="red" points="13.92,-78.69 13.99,-68.09 7.33,-76.33 13.92,-78.69"/>
<text xml:space="preserve" text-anchor="middle" x="25" y="-88.2" font-family="Times,serif" font-size="14.00"> coin </text>
</g>
<!-- Unlocked&#45;&gt;Locked -->
<g id="edge3" class="edge">
<title>Unlocked&#45;&gt;Locked</title>
<path fill="none" stroke="red" d="M39.41,-66.85C40.35,-77.84 40.93,-90.2 40.38,-101.5 40.27,-103.71 40.13,-105.97 39.97,-108.26"/>
<polygon fill="red" stroke="red" points="36.49,-107.95 39.17,-118.2 43.46,-108.51 36.49,-107.95"/>
<text xml:space="preserve" text-anchor="middle" x="57.09" y="-88.2" font-family="Times,serif" font-size="14.00"> push </text>
</g>
</g>
</svg>
