<?xml version="1.0" encoding="UTF-8" standalone="no"?>
<!DOCTYPE svg PUBLIC "-//W3C//DTD SVG 1.1//EN"
 "http://www.w3.org/Graphics/SVG/1.1/DTD/svg11.dtd">
<!-- Generated by graphviz version 14.1.5 (20260411.2331)
 -->
<!-- Title: Turnstile Pages: 1 -->
<svg width="152pt" height="195pt"
 viewBox="0.00 0.00 152.00 195.00" xmlns="http://www.w3.org/2000/svg" xmlns:xlink="http://www.w3.org/1999/xlink">
<g id="graph0" class="graph" transform="scale(1 1) rotate(0) translate(4 190.5)">
<title>Turnstile</title>
<polygon fill="white" stroke="none" points="-4,4 -4,-190.5 147.5,-190.5 147.5,4 -4,4"/>
<!-- Entry -->
<g id="node1" class="node">
<title>Entry</title>
<ellipse fill="black" stroke="#00688b" cx="14.25" cy="-153" rx="7.2" ry="7.2"/>
</g>
<!-- Locked -->
<g id="node2" class="node">
<title>Locked</title>
<path fill="azure" stroke="none" d="M92.5,-67C92.5,-67 12,-67 12,-67 6,-67 0,-61 0,-55 0,-55 0,-12 0,-12 0,-6 6,0 12,0 12,0 92.5,0 92.5,0 98.5,0 104.5,-6 104.5,-12 104.5,-12 104.5,-55 104.5,-55 104.5,-61 98.5,-67 92.5,-67"/>
<text xml:space="preserve" text-anchor="start" x="30.88" y="-46.7" font-family="Times,serif" font-weight="bold" font-size="14.00">Locked</text>
<text xml:space="preserve" text-anchor="start" x="22.25" y="-21.5" font-family="Times,serif" font-size="10.00"> &#160;&#160;&#160;&#160;&#160;&#160;&#160;&#160;&#160;&#160;&#160;&#160;&#160;&#160;&#160;coin()</text>
<text xml:space="preserve" text-anchor="start" x="8" y="-10.25" font-family="Times,serif" font-size="10.00"> &#160;&#160;&#160;&#160;&#160;&#160;&#160;&#160;&#160;&#160;&#160;&#160;&#160;&#160;&#160;push() &#160;&#160;&#160;&#160;&#160;&#160;&#160;&#160;&#160;&#160;&#160;</text>
<polygon fill="#00688b" stroke="#00688b" points="0,-36.5 0,-36.5 104.5,-36.5 104.5,-36.5 0,-36.5"/>
<path fill="none" stroke="#00688b" d="M12,0C12,0 92.5,0 92.5,0 98.5,0 104.5,-6 104.5,-12 104.5,-12 104.5,-55 104.5,-55 104.5,-61 98.5,-67 92.5,-67 92.5,-67 12,-67 12,-67 6,-67 0,-61 0,-55 0,-55 0,-12 0,-12 0,-6 6,0 12,0"/>
</g>
<!-- Entry&#45;&gt;Locked -->
<g id="edge1" class="edge">
<title>Entry&#45;&gt;Locked</title>
<path fill="none" stroke="red" d="M16.29,-145.68C20.42,-132.92 30.06,-103.1 38.33,-77.55"/>
<polygon fill="red" stroke="red" points="41.55,-78.96 41.3,-68.37 34.89,-76.81 41.55,-78.96"/>
</g>
<!-- Unlocked -->
<g id="node3" class="node">
<title>Unlocked</title>
<path fill="azure" stroke="none" d="M131.5,-186.5C131.5,-186.5 51,-186.5 51,-186.5 45,-186.5 39,-180.5 39,-174.5 39,-174.5 39,-131.5 39,-131.5 39,-125.5 45,-119.5 51,-119.5 51,-119.5 131.5,-119.5 131.5,-119.5 137.5,-119.5 143.5,-125.5 143.5,-131.5 143.5,-131.5 143.5,-174.5 143.5,-174.5 143.5,-180.5 137.5,-186.5 131.5,-186.5"/>
<text xml:space="preserve" text-anchor="start" x="63.88" y="-166.2" font-family="Times,serif" font-weight="bold" font-size="14.00">Unlocked</text>
<text xml:space="preserve" text-anchor="start" x="61.25" y="-141" font-family="Times,serif" font-size="10.00"> &#160;&#160;&#160;&#160;&#160;&#160;&#160;&#160;&#160;&#160;&#160;&#160;&#160;&#160;&#160;coin()</text>
<text xml:space="preserve" text-anchor="start" x="47" y="-129.75" font-family="Times,serif" font-size="10.00"> &#160;&#160;&#160;&#160;&#160;&#160;&#160;&#160;&#160;&#160;&#160;&#160;&#160;&#160;&#160;push() &#160;&#160;&#160;&#160;&#160;&#160;&#160;&#160;&#160;&#160;&#160;</text>
<polygon fill="#00688b" stroke="#00688b" points="39,-156 39,-156 143.5,-156 143.5,-156 39,-156"/>
<path fill="none" stroke="#00688b" d="M51,-119.5C51,-119.5 131.5,-119.5 131.5,-119.5 137.5,-119.5 143.5,-125.5 143.5,-131.5 143.5,-131.5 143.5,-174.5 143.5,-174.5 143.5,-180.5 137.5,-186.5 131.5,-186.5 131.5,-186.5 51,-186.5 51,-186.5 45,-186.5 39,-180.5 39,-174.5 39,-174.5 39,-131.5 39,-131.5 39,-125.5 45,-119.5 51,-119.5"/>
</g>
<!-- Unlocked&#45;&gt;Locked -->
<g id="edge2" class="edge">
<title>Unlocked&#45;&gt;Locked</title>
<path fill="none" stroke="red" d="M80.49,-119.58C76.18,-106.61 71.16,-91.48 66.56,-77.61"/>
<polygon fill="red" stroke="red" points="69.92,-76.64 63.45,-68.25 63.28,-78.84 69.92,-76.64"/>
<text xml:space="preserve" text-anchor="middle" x="90.59" y="-88.2" font-family="Times,serif" font-size="14.00"> push </text>
</g>
</g>
</svg>
