<?xml version="1.0" encoding="UTF-8" standalone="no"?>
<!DOCTYPE svg PUBLIC "-//W3C//DTD SVG 1.1//EN"
 "http://www.w3.org/Graphics/SVG/1.1/DTD/svg11.dtd">
<!-- Generated by graphviz version 14.1.5 (20260411.2331)
 -->
<!-- Title: Turnstile Pages: 1 -->
<svg width="113pt" height="246pt"
 viewBox="0.00 0.00 113.00 246.00" xmlns="http://www.w3.org/2000/svg" xmlns:xlink="http://www.w3.org/1999/xlink">
<g id="graph0" class="graph" transform="scale(1 1) rotate(0) translate(4 241.9)">
<title>Turnstile</title>
<polygon fill="white" stroke="none" points="-4,4 -4,-241.9 108.5,-241.9 108.5,4 -4,4"/>
<!-- Entry -->
<g id="node1" class="node">
<title>Entry</title>
<ellipse fill="black" stroke="#00688b" cx="52.25" cy="-230.7" rx="7.2" ry="7.2"/>
</g>
<!-- Locked -->
<g id="node2" class="node">
<title>Locked</title>
<path fill="azure" stroke="none" d="M92.5,-186.5C92.5,-186.5 12,-186.5 12,-186.5 6,-186.5 0,-180.5 0,-174.5 0,-174.5 0,-131.5 0,-131.5 0,-125.5 6,-119.5 12,-119.5 12,-119.5 92.5,-119.5 92.5,-119.5 98.5,-119.5 104.5,-125.5 104.5,-131.5 104.5,-131.5 104.5,-174.5 104.5,-174.5 104.5,-180.5 98.5,-186.5 92.5,-186.5"/>
<text xml:space="preserve" text-anchor="start" x="30.88" y="-166.2" font-family="Times,serif" font-weight="bold" font-size="14.00">Locked</text>
<text xml:space="preserve" text-anchor="start" x="8" y="-141" font-family="Times,serif" font-size="10.00"> &#160;&#160;&#160;&#160;&#160;&#160;&#160;&#160;&#160;&#160;&#160;&#160;&#160;&#160;&#160;coin()</text>
<text xml:space="preserve" text-anchor="start" x="8" y="-129.75" font-family="Times,serif" font-size="10.00"> &#160;&#160;&#160;&#160;&#160;&#160;&#160;&#160;&#160;&#160;&#160;&#160;&#160;&#160;&#160;push() &#160;&#160;&#160;&#160;&#160;&#160;&#160;&#160;&#160;&#160;&#160;</text>
<polygon fill="#00688b" stroke="#00688b" points="0,-156 0,-156 104.5,-156 104.5,-156 0,-156"/>
<path fill="none" stroke="#00688b" d="M12,-119.5C12,-119.5 92.5,-119.5 92.5,-119.5 98.5,-119.5 104.5,-125.5 104.5,-131.5 104.5,-131.5 104.5,-174.5 104.5,-174.5 104.5,-180.5 98.5,-186.5 92.5,-186.5 92.5,-186.5 12,-186.5 12,-186.5 6,-186.5 0,-180.5 0,-174.5 0,-174.5 0,-131.5 0,-131.5 0,-125.5 6,-119.5 12,-119.5"/>
</g>
<!-- Entry&#45;&gt;Locked -->
<g id="edge1" class="edge">
<title>Entry&#45;&gt;Locked</title>
<path fill="none" stroke="red" d="M52.25,-223.25C52.25,-217.27 52.25,-207.82 52.25,-197.8"/>
<polygon fill="red" stroke="red" points="55.75,-197.91 52.25,-187.91 48.75,-197.91 55.75,-197.91"/>
</g>
<!-- Unlocked -->
<g id="node3" class="node">
<title>Unlocked</title>
<path fill="azure" stroke="none" d="M92.5,-67C92.5,-67 12,-67 12,-67 6,-67 0,-61 0,-55 0,-55 0,-12 0,-12 0,-6 6,0 12,0 12,0 92.5,0 92.5,0 98.5,0 104.5,-6 104.5,-12 104.5,-12 104.5,-55 104.5,-55 104.5,-61 98.5,-67 92.5,-67"/>
<text xml:space="preserve" text-anchor="start" x="24.88" y="-46.7" font-family="Times,serif" font-weight="bold" font-size="14.00">Unlocked</text>
<text xml:space="preserve" text-anchor="start" x="8" y="-21.5" font-family="Times,serif" font-size="10.00"> &#160;&#160;&#160;&#160;&#160;&#160;&#160;&#160;&#160;&#160;&#160;&#160;&#160;&#160;&#160;coin()</text>
<text xml:space="preserve" text-anchor="start" x="8" y="-10.25" font-family="Times,serif" font-size="10.00"> &#160;&#160;&#160;&#160;&#160;&#160;&#160;&#160;&#160;&#160;&#160;&#160;&#160;&#160;&#160;push() &#160;&#160;&#160;&#160;&#160;&#160;&#160;&#160;&#160;&#160;&#160;</text>
<polygon fill="#00688b" stroke="#00688b" points="0,-36.5 0,-36.5 104.5,-36.5 104.5,-36.5 0,-36.5"/>
<path fill="none" stroke="#00688b" d="M12,0C12,0 92.5,0 92.5,0 98.5,0 104.5,-6 104.5,-12 104.5,-12 104.5,-55 104.5,-55 104.5,-61 98.5,-67 92.5,-67 92.5,-67 12,-67 12,-67 6,-67 0,-61 0,-55 0,-55 0,-12 0,-12 0,-6 6,0 12,0"/>
</g>
<!-- Locked&#45;&gt;Unlocked -->
<g id="edge2" class="edge">
<title>Locked&#45;&gt;Unlocked</title>
<path fill="none" stroke="red" d="M33.01,-119.73C30.32,-113.84 27.97,-107.62 26.5,-101.5 24.6,-93.59 25.34,-85.37 27.5,-77.49"/>
<polygon fill="red" stroke="red" points="30.79,-78.69 30.86,-68.09 24.2,-76.33 30.79,-78.69"/>
<text xml:space="preserve" text-anchor="middle" x="41.88" y="-88.2" font-family="Times,serif" font-size="14.00"> coin </text>
</g>
<!-- Unlocked&#45;&gt;Locked -->
<g id="edge3" class="edge">
<title>Unlocked&#45;&gt;Locked</title>
<path fill="none" stroke="red" d="M56.29,-66.85C57.23,-77.84 57.81,-90.2 57.25,-101.5 57.14,-103.71 57,-105.97 56.85,-108.26"/>
<polygon fill="red" stroke="red" points="53.36,-107.95 56.05,-118.2 60.34,-108.51 53.36,-107.95"/>
<text xml:space="preserve" text-anchor="middle" x="73.97" y="-88.2" font-family="Times,serif" font-size="14.00"> push </text>
</g>
</g>
</svg>
