<?xml version="1.0" encoding="UTF-8" standalone="no"?>
<!DOCTYPE svg PUBLIC "-//W3C//DTD SVG 1.1//EN"
 "http://www.w3.org/Graphics/SVG/1.1/DTD/svg11.dtd">
<!-- Generated by graphviz version 14.1.5 (20260411.2331)
 -->
<!-- Title: Turnstile Pages: 1 -->
<svg width="82pt" height="268pt"
 viewBox="0.00 0.00 82.00 268.00" xmlns="http://www.w3.org/2000/svg" xmlns:xlink="http://www.w3.org/1999/xlink">
<g id="graph0" class="graph" transform="scale(1 1) rotate(0) translate(4 264.4)">
<title>Turnstile</title>
<polygon fill="white" stroke="none" points="-4,4 -4,-264.4 77.58,-264.4 77.58,4 -4,4"/>
<!-- Entry -->
<g id="node1" class="node">
<title>Entry</title>
<ellipse fill="black" stroke="#00688b" cx="35.38" cy="-253.2" rx="7.2" ry="7.2"/>
</g>
<!-- Locked -->
<g id="node2" class="node">
<title>Locked</title>
<path fill="azure" stroke="none" d="M52.75,-209C52.75,-209 18,-209 18,-209 12,-209 6,-203 6,-197 6,-197 6,-142.75 6,-142.75 6,-136.75 12,-130.75 18,-130.75 18,-130.75 52.75,-130.75 52.75,-130.75 58.75,-130.75 64.75,-136.75 64.75,-142.75 64.75,-142.75 64.75,-197 64.75,-197 64.75,-203 58.75,-209 52.75,-209"/>
<text xml:space="preserve" text-anchor="start" x="14" y="-188.7" font-family="Times,serif" font-weight="bold" font-size="14.00">Locked</text>
<text xml:space="preserve" text-anchor="start" x="14" y="-163.5" font-family="Times,serif" font-size="10.00">coin()</text>
<text xml:space="preserve" text-anchor="start" x="14" y="-152.25" font-family="Times,serif" font-size="10.00">push()</text>
<text xml:space="preserve" text-anchor="start" x="14" y="-141" font-family="Times,serif" font-size="10.00"> &#160;&#160;&#160;&#160;&#160;&#160;&#160;&#160;&#160;&#160;&#160;</text>
<polygon fill="#00688b" stroke="#00688b" points="6,-178.5 6,-178.5 64.75,-178.5 64.75,-178.5 6,-178.5"/>
<path fill="none" stroke="#00688b" d="M18,-130.75C18,-130.75 52.75,-130.75 52.75,-130.75 58.75,-130.75 64.75,-136.75 64.75,-142.75 64.75,-142.75 64.75,-197 64.75,-197 64.75,-203 58.75,-209 52.75,-209 52.75,-209 18,-209 18,-209 12,-209 6,-203 6,-197 6,-197 6,-142.75 6,-142.75 6,-136.75 12,-130.75 18,-130.75"/>
</g>
<!-- Entry&#45;&gt;Locked -->
<g id="edge1" class="edge">
<title>Entry&#45;&gt;Locked</title>
<path fill="none" stroke="red" d="M35.38,-245.54C35.38,-239.53 35.38,-230.07 35.38,-219.88"/>
<polygon fill="red" stroke="red" points="38.88,-220.19 35.38,-210.19 31.88,-220.19 38.88,-220.19"/>
</g>
<!-- Unlocked -->
<g id="node3" class="node">
<title>Unlocked</title>
<path fill="azure" stroke="none" d="M58.75,-78.25C58.75,-78.25 12,-78.25 12,-78.25 6,-78.25 0,-72.25 0,-66.25 0,-66.25 0,-12 0,-12 0,-6 6,0 12,0 12,0 58.75,0 58.75,0 64.75,0 70.75,-6 70.75,-12 70.75,-12 70.75,-66.25 70.75,-66.25 70.75,-72.25 64.75,-78.25 58.75,-78.25"/>
<text xml:space="preserve" text-anchor="start" x="8" y="-57.95" font-family="Times,serif" font-weight="bold" font-size="14.00">Unlocked</text>
<text xml:space="preserve" text-anchor="start" x="8" y="-32.75" font-family="Times,serif" font-size="10.00">coin()</text>
<text xml:space="preserve" text-anchor="start" x="8" y="-21.5" font-family="Times,serif" font-size="10.00">push()</text>
<text xml:space="preserve" text-anchor="start" x="8" y="-10.25" font-family="Times,serif" font-size="10.00"> &#160;&#160;&#160;&#160;&#160;&#160;&#160;&#160;&#160;&#160;&#160;</text>
<polygon fill="#00688b" stroke="#00688b" points="0,-47.75 0,-47.75 70.75,-47.75 70.75,-47.75 0,-47.75"/>
<path fill="none" stroke="#00688b" d="M12,0C12,0 58.75,0 58.75,0 64.75,0 70.75,-6 70.75,-12 70.75,-12 70.75,-66.25 70.75,-66.25 70.75,-72.25 64.75,-78.25 58.75,-78.25 58.75,-78.25 12,-78.25 12,-78.25 6,-78.25 0,-72.25 0,-66.25 0,-66.25 0,-12 0,-12 0,-6 6,0 12,0"/>
</g>
<!-- Locked&#45;&gt;Unlocked -->
<g id="edge2" class="edge">
<title>Locked&#45;&gt;Unlocked</title>
<path fill="none" stroke="red" d="M13.42,-130.95C9.37,-119.93 7.11,-107.75 9.62,-96.25 10.16,-93.78 10.82,-91.29 11.57,-88.81"/>
<polygon fill="red" stroke="red" points="14.85,-90.03 14.87,-79.44 8.25,-87.71 14.85,-90.03"/>
<text xml:space="preserve" text-anchor="middle" x="25" y="-99.45" font-family="Times,serif" font-size="14.00"> coin </text>
</g>
<!-- Unlocked&#45;&gt;Locked -->
<g id="edge3" class="edge">
<title>Unlocked&#45;&gt;Locked</title>
<path fill="none" stroke="red" d="M39.62,-78.17C40.42,-89.31 40.87,-101.51 40.38,-112.75 40.28,-114.95 40.16,-117.19 40.02,-119.46"/>
<polygon fill="red" stroke="red" points="36.54,-119.14 39.33,-129.36 43.52,-119.63 36.54,-119.14"/>
<text xml:space="preserve" text-anchor="middle" x="57.08" y="-99.45" font-family="Times,serif" font-size="14.00"> push </text>
</g>
</g>
</svg>
