<?xml version="1.0" encoding="UTF-8" standalone="no"?>
<!DOCTYPE svg PUBLIC "-//W3C//DTD SVG 1.1//EN"
 "http://www.w3.org/Graphics/SVG/1.1/DTD/svg11.dtd">
<!-- Generated by graphviz version 14.1.5 (20260411.2331)
 -->
<!-- Title: LoginFlow Pages: 1 -->
<svg width="158pt" height="332pt"
 viewBox="0.00 0.00 158.00 332.00" xmlns="http://www.w3.org/2000/svg" xmlns:xlink="http://www.w3.org/1999/xlink">
<g id="graph0" class="graph" transform="scale(1 1) rotate(0) translate(4 327.65)">
<title>LoginFlow</title>
<polygon fill="white" stroke="none" points="-4,4 -4,-327.65 154.25,-327.65 154.25,4 -4,4"/>
<!-- Entry -->
<g id="node1" class="node">
<title>Entry</title>
<ellipse fill="black" stroke="#00688b" cx="75.12" cy="-316.45" rx="7.2" ry="7.2"/>
</g>
<!-- EnterUsername -->
<g id="node2" class="node">
<title>EnterUsername</title>
<path fill="azure" stroke="none" d="M138.25,-272.25C138.25,-272.25 12,-272.25 12,-272.25 6,-272.25 0,-266.25 0,-260.25 0,-260.25 0,-228.5 0,-228.5 0,-222.5 6,-216.5 12,-216.5 12,-216.5 138.25,-216.5 138.25,-216.5 144.25,-216.5 150.25,-222.5 150.25,-228.5 150.25,-228.5 150.25,-260.25 150.25,-260.25 150.25,-266.25 144.25,-272.25 138.25,-272.25"/>
<text xml:space="preserve" text-anchor="start" x="29" y="-251.95" font-family="Times,serif" font-weight="bold" font-size="14.00">EnterUsername</text>
<text xml:space="preserve" text-anchor="start" x="8" y="-226.75" font-family="Times,serif" font-size="10.00"> &#160;&#160;&#160;&#160;&#160;&#160;&#160;&#160;&#160;&#160;&#160;&#160;&#160;&#160;&#160;submit(value: str) &#160;&#160;&#160;&#160;&#160;&#160;&#160;&#160;&#160;&#160;&#160;</text>
<polygon fill="#00688b" stroke="#00688b" points="0,-241.75 0,-241.75 150.25,-241.75 150.25,-241.75 0,-241.75"/>
<path fill="none" stroke="#00688b" d="M12,-216.5C12,-216.5 138.25,-216.5 138.25,-216.5 144.25,-216.5 150.25,-222.5 150.25,-228.5 150.25,-228.5 150.25,-260.25 150.25,-260.25 150.25,-266.25 144.25,-272.25 138.25,-272.25 138.25,-272.25 12,-272.25 12,-272.25 6,-272.25 0,-266.25 0,-260.25 0,-260.25 0,-228.5 0,-228.5 0,-222.5 6,-216.5 12,-216.5"/>
</g>
<!-- Entry&#45;&gt;EnterUsername -->
<g id="edge1" class="edge">
<title>Entry&#45;&gt;EnterUsername</title>
<path fill="none" stroke="red" d="M75.12,-308.98C75.12,-302.88 75.12,-293.19 75.12,-283.2"/>
<polygon fill="red" stroke="red" points="78.63,-283.48 75.13,-273.48 71.63,-283.48 78.63,-283.48"/>
</g>
<!-- EnterPassword -->
<g id="node3" class="node">
<title>EnterPassword</title>
<path fill="azure" stroke="none" d="M138.25,-164C138.25,-164 12,-164 12,-164 6,-164 0,-158 0,-152 0,-152 0,-120.25 0,-120.25 0,-114.25 6,-108.25 12,-108.25 12,-108.25 138.25,-108.25 138.25,-108.25 144.25,-108.25 150.25,-114.25 150.25,-120.25 150.25,-120.25 150.25,-152 150.25,-152 150.25,-158 144.25,-164 138.25,-164"/>
<text xml:space="preserve" text-anchor="start" x="30.88" y="-143.7" font-family="Times,serif" font-weight="bold" font-size="14.00">EnterPassword</text>
<text xml:space="preserve" text-anchor="start" x="8" y="-118.5" font-family="Times,serif" font-size="10.00"> &#160;&#160;&#160;&#160;&#160;&#160;&#160;&#160;&#160;&#160;&#160;&#160;&#160;&#160;&#160;submit(value: str) &#160;&#160;&#160;&#160;&#160;&#160;&#160;&#160;&#160;&#160;&#160;</text>
<polygon fill="#00688b" stroke="#00688b" points="0,-133.5 0,-133.5 150.25,-133.5 150.25,-133.5 0,-133.5"/>
<path fill="none" stroke="#00688b" d="M12,-108.25C12,-108.25 138.25,-108.25 138.25,-108.25 144.25,-108.25 150.25,-114.25 150.25,-120.25 150.25,-120.25 150.25,-152 150.25,-152 150.25,-158 144.25,-164 138.25,-164 138.25,-164 12,-164 12,-164 6,-164 0,-158 0,-152 0,-152 0,-120.25 0,-120.25 0,-114.25 6,-108.25 12,-108.25"/>
</g>
<!-- EnterUsername&#45;&gt;EnterPassword -->
<g id="edge2" class="edge">
<title>EnterUsername&#45;&gt;EnterPassword</title>
<path fill="none" stroke="red" d="M49.89,-216.8C42.91,-206.33 38.2,-193.95 42.12,-182 43.08,-179.09 44.31,-176.2 45.72,-173.39"/>
<polygon fill="red" stroke="red" points="48.67,-175.28 50.75,-164.89 42.65,-171.71 48.67,-175.28"/>
<text xml:space="preserve" text-anchor="middle" x="64.62" y="-185.2" font-family="Times,serif" font-size="14.00"> submit </text>
</g>
<!-- EnterPassword&#45;&gt;EnterUsername -->
<g id="edge4" class="edge">
<title>EnterPassword&#45;&gt;EnterUsername</title>
<path fill="none" stroke="red" d="M83.52,-163.95C85.02,-169.84 86.35,-176.08 87.12,-182 88.13,-189.67 87.65,-197.82 86.43,-205.59"/>
<polygon fill="red" stroke="red" points="83.05,-204.63 84.5,-215.12 89.91,-206.02 83.05,-204.63"/>
<text xml:space="preserve" text-anchor="middle" x="110.17" y="-185.2" font-family="Times,serif" font-size="14.00"> submit </text>
</g>
<!-- LoggedIn -->
<g id="node4" class="node">
<title>LoggedIn</title>
<path fill="azure" stroke="none" d="M138.25,-55.75C138.25,-55.75 12,-55.75 12,-55.75 6,-55.75 0,-49.75 0,-43.75 0,-43.75 0,-12 0,-12 0,-6 6,0 12,0 12,0 138.25,0 138.25,0 144.25,0 150.25,-6 150.25,-12 150.25,-12 150.25,-43.75 150.25,-43.75 150.25,-49.75 144.25,-55.75 138.25,-55.75"/>
<text xml:space="preserve" text-anchor="start" x="47.38" y="-35.45" font-family="Times,serif" font-weight="bold" font-size="14.00">LoggedIn</text>
<text xml:space="preserve" text-anchor="start" x="8" y="-10.25" font-family="Times,serif" font-size="10.00"> &#160;&#160;&#160;&#160;&#160;&#160;&#160;&#160;&#160;&#160;&#160;&#160;&#160;&#160;&#160;submit(value: str) &#160;&#160;&#160;&#160;&#160;&#160;&#160;&#160;&#160;&#160;&#160;</text>
<polygon fill="#00688b" stroke="#00688b" points="0,-25.25 0,-25.25 150.25,-25.25 150.25,-25.25 0,-25.25"/>
<path fill="none" stroke="#00688b" d="M12,0C12,0 138.25,0 138.25,0 144.25,0 150.25,-6 150.25,-12 150.25,-12 150.25,-43.75 150.25,-43.75 150.25,-49.75 144.25,-55.75 138.25,-55.75 138.25,-55.75 12,-55.75 12,-55.75 6,-55.75 0,-49.75 0,-43.75 0,-43.75 0,-12 0,-12 0,-6 6,0 12,0"/>
</g>
<!-- EnterPassword&#45;&gt;LoggedIn -->
<g id="edge3" class="edge">
<title>EnterPassword&#45;&gt;LoggedIn</title>
<path fill="none" stroke="red" d="M75.12,-108.31C75.12,-95.86 75.12,-80.82 75.12,-67.19"/>
<polygon fill="red" stroke="red" points="78.63,-67.19 75.13,-57.19 71.63,-67.19 78.63,-67.19"/>
<text xml:space="preserve" text-anchor="middle" x="97.62" y="-76.95" font-family="Times,serif" font-size="14.00"> submit </text>
</g>
</g>
</svg>
