<?xml version="1.0" encoding="UTF-8" standalone="no"?>
<!DOCTYPE svg PUBLIC "-//W3C//DTD SVG 1.1//EN"
 "http://www.w3.org/Graphics/SVG/1.1/DTD/svg11.dtd">
<!-- Generated by graphviz version 14.1.5 (20260411.2331)
 -->
<!-- Title: LoginFlow Pages: 1 -->
<svg width="123pt" height="332pt"
 viewBox="0.00 0.00 123.00 332.00" xmlns="http://www.w3.org/2000/svg" xmlns:xlink="http://www.w3.org/1999/xlink">
<g id="graph0" class="graph" transform="scale(1 1) rotate(0) translate(4 327.65)">
<title>LoginFlow</title>
<polygon fill="white" stroke="none" points="-4,4 -4,-327.65 118.67,-327.65 118.67,4 -4,4"/>
<!-- Entry -->
<g id="node1" class="node">
<title>Entry</title>
<ellipse fill="black" stroke="#00688b" cx="57.12" cy="-316.45" rx="7.2" ry="7.2"/>
</g>
<!-- EnterUsername -->
<g id="node2" class="node">
<title>EnterUsername</title>
<path fill="azure" stroke="none" d="M102.25,-272.25C102.25,-272.25 12,-272.25 12,-272.25 6,-272.25 0,-266.25 0,-260.25 0,-260.25 0,-228.5 0,-228.5 0,-222.5 6,-216.5 12,-216.5 12,-216.5 102.25,-216.5 102.25,-216.5 108.25,-216.5 114.25,-222.5 114.25,-228.5 114.25,-228.5 114.25,-260.25 114.25,-260.25 114.25,-266.25 108.25,-272.25 102.25,-272.25"/>
<text xml:space="preserve" text-anchor="start" x="11" y="-251.95" font-family="Times,serif" font-weight="bold" font-size="14.00">EnterUsername</text>
<text xml:space="preserve" text-anchor="start" x="8" y="-215.59" font-family="Times,serif" font-size="10.00">submit(value: str) &#160;&#160;&#160;&#160;&#160;&#160;&#160;&#160;&#160;&#160;&#160;</text>
<polygon fill="#00688b" stroke="#00688b" points="0,-241.75 0,-241.75 114.25,-241.75 114.25,-241.75 0,-241.75"/>
<path fill="none" stroke="#00688b" d="M12,-216.5C12,-216.5 102.25,-216.5 102.25,-216.5 108.25,-216.5 114.25,-222.5 114.25,-228.5 114.25,-228.5 114.25,-260.25 114.25,-260.25 114.25,-266.25 108.25,-272.25 102.25,-272.25 102.25,-272.25 12,-272.25 12,-272.25 6,-272.25 0,-266.25 0,-260.25 0,-260.25 0,-228.5 0,-228.5 0,-222.5 6,-216.5 12,-216.5"/>
</g>
<!-- Entry&#45;&gt;EnterUsername -->
<g id="edge1" class="edge">
<title>Entry&#45;&gt;EnterUsername</title>
<path fill="none" stroke="red" d="M57.12,-308.98C57.12,-302.88 57.12,-293.19 57.12,-283.2"/>
<polygon fill="red" stroke="red" points="60.63,-283.48 57.13,-273.48 53.63,-283.48 60.63,-283.48"/>
</g>
<!-- EnterPassword -->
<g id="node3" class="node">
<title>EnterPassword</title>
<path fill="azure" stroke="none" d="M102.25,-164C102.25,-164 12,-164 12,-164 6,-164 0,-158 0,-152 0,-152 0,-120.25 0,-120.25 0,-114.25 6,-108.25 12,-108.25 12,-108.25 102.25,-108.25 102.25,-108.25 108.25,-108.25 114.25,-114.25 114.25,-120.25 114.25,-120.25 114.25,-152 114.25,-152 114.25,-158 108.25,-164 102.25,-164"/>
<text xml:space="preserve" text-anchor="start" x="12.88" y="-143.7" font-family="Times,serif" font-weight="bold" font-size="14.00">EnterPassword</text>
<text xml:space="preserve" text-anchor="start" x="8" y="-107.34" font-family="Times,serif" font-size="10.00">submit(value: str) &#160;&#160;&#160;&#160;&#160;&#160;&#160;&#160;&#160;&#160;&#160;</text>
<polygon fill="#00688b" stroke="#00688b" points="0,-133.5 0,-133.5 114.25,-133.5 114.25,-133.5 0,-133.5"/>
<path fill="none" stroke="#00688b" d="M12,-108.25C12,-108.25 102.25,-108.25 102.25,-108.25 108.25,-108.25 114.25,-114.25 114.25,-120.25 114.25,-120.25 114.25,-152 114.25,-152 114.25,-158 108.25,-164 102.25,-164 102.25,-164 12,-164 12,-164 6,-164 0,-158 0,-152 0,-152 0,-120.25 0,-120.25 0,-114.25 6,-108.25 12,-108.25"/>
</g>
<!-- EnterUsername&#45;&gt;EnterPassword -->
<g id="edge2" class="edge">
<title>EnterUsername&#45;&gt;EnterPassword</title>
<path fill="none" stroke="red" d="M31.89,-216.8C24.91,-206.33 20.2,-193.95 24.12,-182 25.08,-179.09 26.31,-176.2 27.72,-173.39"/>
<polygon fill="red" stroke="red" points="30.67,-175.28 32.75,-164.89 24.65,-171.71 30.67,-175.28"/>
<text xml:space="preserve" text-anchor="middle" x="46.62" y="-185.2" font-family="Times,serif" font-size="14.00"> submit </text>
</g>
<!-- EnterPassword&#45;&gt;EnterUsername -->
<g id="edge4" class="edge">
<title>EnterPassword&#45;&gt;EnterUsername</title>
<path fill="none" stroke="red" d="M65.52,-163.95C67.02,-169.84 68.35,-176.08 69.12,-182 70.13,-189.67 69.65,-197.82 68.43,-205.59"/>
<polygon fill="red" stroke="red" points="65.05,-204.63 66.5,-215.12 71.91,-206.02 65.05,-204.63"/>
<text xml:space="preserve" text-anchor="middle" x="92.17" y="-185.2" font-family="Times,serif" font-size="14.00"> submit </text>
</g>
<!-- LoggedIn -->
<g id="node4" class="node">
<title>LoggedIn</title>
<path fill="azure" stroke="none" d="M102.25,-55.75C102.25,-55.75 12,-55.75 12,-55.75 6,-55.75 0,-49.75 0,-43.75 0,-43.75 0,-12 0,-12 0,-6 6,0 12,0 12,0 102.25,0 102.25,0 108.25,0 114.25,-6 114.25,-12 114.25,-12 114.25,-43.75 114.25,-43.75 114.25,-49.75 108.25,-55.75 102.25,-55.75"/>
<text xml:space="preserve" text-anchor="start" x="29.38" y="-35.45" font-family="Times,serif" font-weight="bold" font-size="14.00">LoggedIn</text>
<text xml:space="preserve" text-anchor="start" x="8" y="0.91" font-family="Times,serif" font-size="10.00">submit(value: str) &#160;&#160;&#160;&#160;&#160;&#160;&#160;&#160;&#160;&#160;&#160;</text>
<polygon fill="#00688b" stroke="#00688b" points="0,-25.25 0,-25.25 114.25,-25.25 114.25,-25.25 0,-25.25"/>
<path fill="none" stroke="#00688b" d="M12,0C12,0 102.25,0 102.25,0 108.25,0 114.25,-6 114.25,-12 114.25,-12 114.25,-43.75 114.25,-43.75 114.25,-49.75 108.25,-55.75 102.25,-55.75 102.25,-55.75 12,-55.75 12,-55.75 6,-55.75 0,-49.75 0,-43.75 0,-43.75 0,-12 0,-12 0,-6 6,0 12,0"/>
</g>
<!-- EnterPassword&#45;&gt;LoggedIn -->
<g id="edge3" class="edge">
<title>EnterPassword&#45;&gt;LoggedIn</title>
<path fill="none" stroke="red" d="M57.12,-108.31C57.12,-95.86 57.12,-80.82 57.12,-67.19"/>
<polygon fill="red" stroke="red" points="60.63,-67.19 57.13,-57.19 53.63,-67.19 60.63,-67.19"/>
<text xml:space="preserve" text-anchor="middle" x="79.62" y="-76.95" font-family="Times,serif" font-size="14.00"> submit </text>
</g>
</g>
</svg>
