<?xml version="1.0" encoding="UTF-8" standalone="no"?>
<!DOCTYPE svg PUBLIC "-//W3C//DTD SVG 1.1//EN"
 "http://www.w3.org/Graphics/SVG/1.1/DTD/svg11.dtd">
<!-- Generated by graphviz version 14.1.5 (20260411.2331)
 -->
<!-- Title: LoginFlow Pages: 1 -->
<svg width="205pt" height="365pt"
 viewBox="0.00 0.00 205.00 365.00" xmlns="http://www.w3.org/2000/svg" xmlns:xlink="http://www.w3.org/1999/xlink">
<g id="graph0" class="graph" transform="scale(1 1) rotate(0) translate(4 361.4)">
<title>LoginFlow</title>
<polygon fill="white" stroke="none" points="-4,4 -4,-361.4 201.3,-361.4 201.3,4 -4,4"/>
<!-- Entry -->
<g id="node1" class="node">
<title>Entry</title>
<ellipse fill="black" stroke="#00688b" cx="64.32" cy="-350.2" rx="7.2" ry="7.2"/>
</g>
<!-- EnterUsername -->
<g id="node2" class="node">
<title>EnterUsername</title>
<path fill="azure" stroke="none" d="M106.44,-306C106.44,-306 22.19,-306 22.19,-306 16.19,-306 10.19,-300 10.19,-294 10.19,-294 10.19,-251 10.19,-251 10.19,-245 16.19,-239 22.19,-239 22.19,-239 106.44,-239 106.44,-239 112.44,-239 118.44,-245 118.44,-251 118.44,-251 118.44,-294 118.44,-294 118.44,-300 112.44,-306 106.44,-306"/>
<text xml:space="preserve" text-anchor="start" x="18.19" y="-285.7" font-family="Times,serif" font-weight="bold" font-size="14.00">EnterUsername</text>
<text xml:space="preserve" text-anchor="start" x="18.19" y="-260.5" font-family="Times,serif" font-size="10.00">submit(value: str)</text>
<text xml:space="preserve" text-anchor="start" x="40.32" y="-249.25" font-family="Times,serif" font-size="10.00"> &#160;&#160;&#160;&#160;&#160;&#160;&#160;&#160;&#160;&#160;&#160;</text>
<polygon fill="#00688b" stroke="#00688b" points="10.19,-275.5 10.19,-275.5 118.44,-275.5 118.44,-275.5 10.19,-275.5"/>
<path fill="none" stroke="#00688b" d="M22.19,-239C22.19,-239 106.44,-239 106.44,-239 112.44,-239 118.44,-245 118.44,-251 118.44,-251 118.44,-294 118.44,-294 118.44,-300 112.44,-306 106.44,-306 106.44,-306 22.19,-306 22.19,-306 16.19,-306 10.19,-300 10.19,-294 10.19,-294 10.19,-251 10.19,-251 10.19,-245 16.19,-239 22.19,-239"/>
</g>
<!-- Entry&#45;&gt;EnterUsername -->
<g id="edge1" class="edge">
<title>Entry&#45;&gt;EnterUsername</title>
<path fill="none" stroke="red" d="M64.32,-342.75C64.32,-336.77 64.32,-327.32 64.32,-317.3"/>
<polygon fill="red" stroke="red" points="67.82,-317.41 64.32,-307.41 60.82,-317.41 67.82,-317.41"/>
</g>
<!-- EnterPassword -->
<g id="node3" class="node">
<title>EnterPassword</title>
<path fill="azure" stroke="none" d="M104.57,-186.5C104.57,-186.5 24.07,-186.5 24.07,-186.5 18.07,-186.5 12.07,-180.5 12.07,-174.5 12.07,-174.5 12.07,-131.5 12.07,-131.5 12.07,-125.5 18.07,-119.5 24.07,-119.5 24.07,-119.5 104.57,-119.5 104.57,-119.5 110.57,-119.5 116.57,-125.5 116.57,-131.5 116.57,-131.5 116.57,-174.5 116.57,-174.5 116.57,-180.5 110.57,-186.5 104.57,-186.5"/>
<text xml:space="preserve" text-anchor="start" x="20.07" y="-166.2" font-family="Times,serif" font-weight="bold" font-size="14.00">EnterPassword</text>
<text xml:space="preserve" text-anchor="start" x="20.07" y="-141" font-family="Times,serif" font-size="10.00">submit(value: str)</text>
<text xml:space="preserve" text-anchor="start" x="42.19" y="-129.75" font-family="Times,serif" font-size="10.00"> &#160;&#160;&#160;&#160;&#160;&#160;&#160;&#160;&#160;&#160;&#160;</text>
<polygon fill="#00688b" stroke="#00688b" points="12.07,-156 12.07,-156 116.57,-156 116.57,-156 12.07,-156"/>
<path fill="none" stroke="#00688b" d="M24.07,-119.5C24.07,-119.5 104.57,-119.5 104.57,-119.5 110.57,-119.5 116.57,-125.5 116.57,-131.5 116.57,-131.5 116.57,-174.5 116.57,-174.5 116.57,-180.5 110.57,-186.5 104.57,-186.5 104.57,-186.5 24.07,-186.5 24.07,-186.5 18.07,-186.5 12.07,-180.5 12.07,-174.5 12.07,-174.5 12.07,-131.5 12.07,-131.5 12.07,-125.5 18.07,-119.5 24.07,-119.5"/>
</g>
<!-- EnterUsername&#45;&gt;EnterPassword -->
<g id="edge2" class="edge">
<title>EnterUsername&#45;&gt;EnterPassword</title>
<path fill="none" stroke="red" d="M15.54,-239.08C10.42,-233.66 5.95,-227.62 2.82,-221 -1.5,-211.87 0.18,-203.12 5.13,-195.13"/>
<polygon fill="red" stroke="red" points="7.86,-197.31 11.34,-187.3 2.38,-192.96 7.86,-197.31"/>
<text xml:space="preserve" text-anchor="middle" x="54.57" y="-207.7" font-family="Times,serif" font-size="14.00"> username entered </text>
</g>
<!-- EnterPassword&#45;&gt;EnterUsername -->
<g id="edge4" class="edge">
<title>EnterPassword&#45;&gt;EnterUsername</title>
<path fill="none" stroke="red" d="M99,-186.29C106.3,-196.87 110.66,-208.99 106.32,-221 105.28,-223.87 104,-226.69 102.55,-229.44"/>
<polygon fill="red" stroke="red" points="99.68,-227.42 97.39,-237.76 105.63,-231.11 99.68,-227.42"/>
<text xml:space="preserve" text-anchor="middle" x="152.67" y="-207.7" font-family="Times,serif" font-size="14.00"> bad credentials </text>
</g>
<!-- LoggedIn -->
<g id="node4" class="node">
<title>LoggedIn</title>
<path fill="azure" stroke="none" d="M95.94,-67C95.94,-67 32.69,-67 32.69,-67 26.69,-67 20.69,-61 20.69,-55 20.69,-55 20.69,-12 20.69,-12 20.69,-6 26.69,0 32.69,0 32.69,0 95.94,0 95.94,0 101.94,0 107.94,-6 107.94,-12 107.94,-12 107.94,-55 107.94,-55 107.94,-61 101.94,-67 95.94,-67"/>
<text xml:space="preserve" text-anchor="start" x="36.57" y="-46.7" font-family="Times,serif" font-weight="bold" font-size="14.00">LoggedIn</text>
<text xml:space="preserve" text-anchor="start" x="28.69" y="-21.5" font-family="Times,serif" font-size="10.00">submit(value: str)</text>
<text xml:space="preserve" text-anchor="start" x="50.82" y="-10.25" font-family="Times,serif" font-size="10.00"> &#160;&#160;&#160;&#160;&#160;&#160;&#160;&#160;&#160;&#160;&#160;</text>
<polygon fill="#00688b" stroke="#00688b" points="20.69,-36.5 20.69,-36.5 107.94,-36.5 107.94,-36.5 20.69,-36.5"/>
<path fill="none" stroke="#00688b" d="M32.69,0C32.69,0 95.94,0 95.94,0 101.94,0 107.94,-6 107.94,-12 107.94,-12 107.94,-55 107.94,-55 107.94,-61 101.94,-67 95.94,-67 95.94,-67 32.69,-67 32.69,-67 26.69,-67 20.69,-61 20.69,-55 20.69,-55 20.69,-12 20.69,-12 20.69,-6 26.69,0 32.69,0"/>
</g>
<!-- EnterPassword&#45;&gt;LoggedIn -->
<g id="edge3" class="edge">
<title>EnterPassword&#45;&gt;LoggedIn</title>
<path fill="none" stroke="red" d="M64.32,-119.58C64.32,-106.74 64.32,-91.78 64.32,-78.02"/>
<polygon fill="red" stroke="red" points="67.82,-78.33 64.32,-68.33 60.82,-78.33 67.82,-78.33"/>
<text xml:space="preserve" text-anchor="middle" x="104.07" y="-88.2" font-family="Times,serif" font-size="14.00"> authenticated </text>
</g>
</g>
</svg>
