<?xml version="1.0" encoding="UTF-8" standalone="no"?>
<!DOCTYPE svg PUBLIC "-//W3C//DTD SVG 1.1//EN"
 "http://www.w3.org/Graphics/SVG/1.1/DTD/svg11.dtd">
<!-- Generated by graphviz version 14.1.5 (20260411.2331)
 -->
<!-- Title: LoginFlow Pages: 1 -->
<svg width="120pt" height="365pt"
 viewBox="0.00 0.00 120.00 365.00" xmlns="http://www.w3.org/2000/svg" xmlns:xlink="http://www.w3.org/1999/xlink">
<g id="graph0" class="graph" transform="scale(1 1) rotate(0) translate(4 361.4)">
<title>LoginFlow</title>
<polygon fill="white" stroke="none" points="-4,4 -4,-361.4 115.64,-361.4 115.64,4 -4,4"/>
<!-- Entry -->
<g id="node1" class="node">
<title>Entry</title>
<ellipse fill="black" stroke="#00688b" cx="54.12" cy="-350.2" rx="7.2" ry="7.2"/>
</g>
<!-- EnterUsername -->
<g id="node2" class="node">
<title>EnterUsername</title>
<path fill="azure" stroke="none" d="M96.25,-306C96.25,-306 12,-306 12,-306 6,-306 0,-300 0,-294 0,-294 0,-251 0,-251 0,-245 6,-239 12,-239 12,-239 96.25,-239 96.25,-239 102.25,-239 108.25,-245 108.25,-251 108.25,-251 108.25,-294 108.25,-294 108.25,-300 102.25,-306 96.25,-306"/>
<text xml:space="preserve" text-anchor="start" x="8" y="-285.7" font-family="Times,serif" font-weight="bold" font-size="14.00">EnterUsername</text>
<text xml:space="preserve" text-anchor="start" x="8" y="-260.5" font-family="Times,serif" font-size="10.00">submit(value: str)</text>
<text xml:space="preserve" text-anchor="start" x="30.12" y="-249.25" font-family="Times,serif" font-size="10.00"> &#160;&#160;&#160;&#160;&#160;&#160;&#160;&#160;&#160;&#160;&#160;</text>
<polygon fill="#00688b" stroke="#00688b" points="0,-275.5 0,-275.5 108.25,-275.5 108.25,-275.5 0,-275.5"/>
<path fill="none" stroke="#00688b" d="M12,-239C12,-239 96.25,-239 96.25,-239 102.25,-239 108.25,-245 108.25,-251 108.25,-251 108.25,-294 108.25,-294 108.25,-300 102.25,-306 96.25,-306 96.25,-306 12,-306 12,-306 6,-306 0,-300 0,-294 0,-294 0,-251 0,-251 0,-245 6,-239 12,-239"/>
</g>
<!-- Entry&#45;&gt;EnterUsername -->
<g id="edge1" class="edge">
<title>Entry&#45;&gt;EnterUsername</title>
<path fill="none" stroke="red" d="M54.12,-342.75C54.12,-336.77 54.12,-327.32 54.12,-317.3"/>
<polygon fill="red" stroke="red" points="57.63,-317.41 54.13,-307.41 50.63,-317.41 57.63,-317.41"/>
</g>
<!-- EnterPassword -->
<g id="node3" class="node">
<title>EnterPassword</title>
<path fill="azure" stroke="none" d="M94.38,-186.5C94.38,-186.5 13.88,-186.5 13.88,-186.5 7.88,-186.5 1.88,-180.5 1.88,-174.5 1.88,-174.5 1.88,-131.5 1.88,-131.5 1.88,-125.5 7.88,-119.5 13.88,-119.5 13.88,-119.5 94.38,-119.5 94.38,-119.5 100.38,-119.5 106.38,-125.5 106.38,-131.5 106.38,-131.5 106.38,-174.5 106.38,-174.5 106.38,-180.5 100.38,-186.5 94.38,-186.5"/>
<text xml:space="preserve" text-anchor="start" x="9.88" y="-166.2" font-family="Times,serif" font-weight="bold" font-size="14.00">EnterPassword</text>
<text xml:space="preserve" text-anchor="start" x="9.88" y="-141" font-family="Times,serif" font-size="10.00">submit(value: str)</text>
<text xml:space="preserve" text-anchor="start" x="32" y="-129.75" font-family="Times,serif" font-size="10.00"> &#160;&#160;&#160;&#160;&#160;&#160;&#160;&#160;&#160;&#160;&#160;</text>
<polygon fill="#00688b" stroke="#00688b" points="1.88,-156 1.88,-156 106.38,-156 106.38,-156 1.88,-156"/>
<path fill="none" stroke="#00688b" d="M13.88,-119.5C13.88,-119.5 94.38,-119.5 94.38,-119.5 100.38,-119.5 106.38,-125.5 106.38,-131.5 106.38,-131.5 106.38,-174.5 106.38,-174.5 106.38,-180.5 100.38,-186.5 94.38,-186.5 94.38,-186.5 13.88,-186.5 13.88,-186.5 7.88,-186.5 1.88,-180.5 1.88,-174.5 1.88,-174.5 1.88,-131.5 1.88,-131.5 1.88,-125.5 7.88,-119.5 13.88,-119.5"/>
</g>
<!-- EnterUsername&#45;&gt;EnterPassword -->
<g id="edge2" class="edge">
<title>EnterUsername&#45;&gt;EnterPassword</title>
<path fill="none" stroke="red" d="M29.19,-239.17C25.87,-233.39 22.98,-227.22 21.12,-221 18.71,-212.88 19.67,-204.55 22.45,-196.63"/>
<polygon fill="red" stroke="red" points="25.63,-198.09 26.59,-187.54 19.26,-195.19 25.63,-198.09"/>
<text xml:space="preserve" text-anchor="middle" x="43.62" y="-207.7" font-family="Times,serif" font-size="14.00"> submit </text>
</g>
<!-- EnterPassword&#45;&gt;EnterUsername -->
<g id="edge4" class="edge">
<title>EnterPassword&#45;&gt;EnterUsername</title>
<path fill="none" stroke="red" d="M63,-186.4C64.3,-192.37 65.43,-198.59 66.12,-204.5 67.02,-212.15 66.68,-220.25 65.68,-228.07"/>
<polygon fill="red" stroke="red" points="62.26,-227.31 64.06,-237.75 69.16,-228.47 62.26,-227.31"/>
<text xml:space="preserve" text-anchor="middle" x="89.14" y="-207.7" font-family="Times,serif" font-size="14.00"> submit </text>
</g>
<!-- LoggedIn -->
<g id="node4" class="node">
<title>LoggedIn</title>
<path fill="azure" stroke="none" d="M85.75,-67C85.75,-67 22.5,-67 22.5,-67 16.5,-67 10.5,-61 10.5,-55 10.5,-55 10.5,-12 10.5,-12 10.5,-6 16.5,0 22.5,0 22.5,0 85.75,0 85.75,0 91.75,0 97.75,-6 97.75,-12 97.75,-12 97.75,-55 97.75,-55 97.75,-61 91.75,-67 85.75,-67"/>
<text xml:space="preserve" text-anchor="start" x="26.38" y="-46.7" font-family="Times,serif" font-weight="bold" font-size="14.00">LoggedIn</text>
<text xml:space="preserve" text-anchor="start" x="18.5" y="-21.5" font-family="Times,serif" font-size="10.00">submit(value: str)</text>
<text xml:space="preserve" text-anchor="start" x="40.62" y="-10.25" font-family="Times,serif" font-size="10.00"> &#160;&#160;&#160;&#160;&#160;&#160;&#160;&#160;&#160;&#160;&#160;</text>
<polygon fill="#00688b" stroke="#00688b" points="10.5,-36.5 10.5,-36.5 97.75,-36.5 97.75,-36.5 10.5,-36.5"/>
<path fill="none" stroke="#00688b" d="M22.5,0C22.5,0 85.75,0 85.75,0 91.75,0 97.75,-6 97.75,-12 97.75,-12 97.75,-55 97.75,-55 97.75,-61 91.75,-67 85.75,-67 85.75,-67 22.5,-67 22.5,-67 16.5,-67 10.5,-61 10.5,-55 10.5,-55 10.5,-12 10.5,-12 10.5,-6 16.5,0 22.5,0"/>
</g>
<!-- EnterPassword&#45;&gt;LoggedIn -->
<g id="edge3" class="edge">
<title>EnterPassword&#45;&gt;LoggedIn</title>
<path fill="none" stroke="red" d="M54.12,-119.58C54.12,-106.74 54.12,-91.78 54.12,-78.02"/>
<polygon fill="red" stroke="red" points="57.63,-78.33 54.13,-68.33 50.63,-78.33 57.63,-78.33"/>
<text xml:space="preserve" text-anchor="middle" x="76.62" y="-88.2" font-family="Times,serif" font-size="14.00"> submit </text>
</g>
</g>
</svg>
