<?xml version="1.0" encoding="UTF-8" standalone="no"?>
<!DOCTYPE svg PUBLIC "-//W3C//DTD SVG 1.1//EN"
 "http://www.w3.org/Graphics/SVG/1.1/DTD/svg11.dtd">
<!-- Generated by graphviz version 14.1.5 (20260411.2331)
 -->
<!-- Title: Connection Pages: 1 -->
<svg width="158pt" height="365pt"
 viewBox="0.00 0.00 158.00 365.00" xmlns="http://www.w3.org/2000/svg" xmlns:xlink="http://www.w3.org/1999/xlink">
<g id="graph0" class="graph" transform="scale(1 1) rotate(0) translate(4 361.4)">
<title>Connection</title>
<polygon fill="white" stroke="none" points="-4,4 -4,-361.4 153.5,-361.4 153.5,4 -4,4"/>
<!-- Entry -->
<g id="node1" class="node">
<title>Entry</title>
<ellipse fill="black" stroke="#00688b" cx="74.75" cy="-350.2" rx="7.2" ry="7.2"/>
</g>
<!-- Disconnected -->
<g id="node2" class="node">
<title>Disconnected</title>
<path fill="azure" stroke="none" d="M137.5,-306C137.5,-306 12,-306 12,-306 6,-306 0,-300 0,-294 0,-294 0,-262.25 0,-262.25 0,-256.25 6,-250.25 12,-250.25 12,-250.25 137.5,-250.25 137.5,-250.25 143.5,-250.25 149.5,-256.25 149.5,-262.25 149.5,-262.25 149.5,-294 149.5,-294 149.5,-300 143.5,-306 137.5,-306"/>
<text xml:space="preserve" text-anchor="start" x="36.5" y="-285.7" font-family="Times,serif" font-weight="bold" font-size="14.00">Disconnected</text>
<text xml:space="preserve" text-anchor="start" x="8" y="-260.5" font-family="Times,serif" font-size="10.00"> &#160;&#160;&#160;&#160;&#160;&#160;&#160;&#160;&#160;&#160;&#160;&#160;&#160;&#160;&#160;connect(host: str) &#160;&#160;&#160;&#160;&#160;&#160;&#160;&#160;&#160;&#160;&#160;</text>
<polygon fill="#00688b" stroke="#00688b" points="0,-275.5 0,-275.5 149.5,-275.5 149.5,-275.5 0,-275.5"/>
<path fill="none" stroke="#00688b" d="M12,-250.25C12,-250.25 137.5,-250.25 137.5,-250.25 143.5,-250.25 149.5,-256.25 149.5,-262.25 149.5,-262.25 149.5,-294 149.5,-294 149.5,-300 143.5,-306 137.5,-306 137.5,-306 12,-306 12,-306 6,-306 0,-300 0,-294 0,-294 0,-262.25 0,-262.25 0,-256.25 6,-250.25 12,-250.25"/>
</g>
<!-- Entry&#45;&gt;Disconnected -->
<g id="edge1" class="edge">
<title>Entry&#45;&gt;Disconnected</title>
<path fill="none" stroke="red" d="M74.75,-342.73C74.75,-336.63 74.75,-326.94 74.75,-316.95"/>
<polygon fill="red" stroke="red" points="78.25,-317.23 74.75,-307.23 71.25,-317.23 78.25,-317.23"/>
</g>
<!-- Connecting -->
<g id="node3" class="node">
<title>Connecting</title>
<path fill="azure" stroke="none" d="M125.12,-197.75C125.12,-197.75 24.38,-197.75 24.38,-197.75 18.38,-197.75 12.38,-191.75 12.38,-185.75 12.38,-185.75 12.38,-154 12.38,-154 12.38,-148 18.38,-142 24.38,-142 24.38,-142 125.12,-142 125.12,-142 131.12,-142 137.12,-148 137.12,-154 137.12,-154 137.12,-185.75 137.12,-185.75 137.12,-191.75 131.12,-197.75 125.12,-197.75"/>
<text xml:space="preserve" text-anchor="start" x="41.75" y="-177.45" font-family="Times,serif" font-weight="bold" font-size="14.00">Connecting</text>
<text xml:space="preserve" text-anchor="start" x="20.38" y="-152.25" font-family="Times,serif" font-size="10.00"> &#160;&#160;&#160;&#160;&#160;&#160;&#160;&#160;&#160;&#160;&#160;&#160;&#160;&#160;&#160;$&gt;() [enter] &#160;&#160;&#160;&#160;&#160;&#160;&#160;&#160;&#160;&#160;&#160;</text>
<polygon fill="#00688b" stroke="#00688b" points="12.38,-167.25 12.38,-167.25 137.12,-167.25 137.12,-167.25 12.38,-167.25"/>
<path fill="none" stroke="#00688b" d="M24.38,-142C24.38,-142 125.12,-142 125.12,-142 131.12,-142 137.12,-148 137.12,-154 137.12,-154 137.12,-185.75 137.12,-185.75 137.12,-191.75 131.12,-197.75 125.12,-197.75 125.12,-197.75 24.38,-197.75 24.38,-197.75 18.38,-197.75 12.38,-191.75 12.38,-185.75 12.38,-185.75 12.38,-154 12.38,-154 12.38,-148 18.38,-142 24.38,-142"/>
</g>
<!-- Disconnected&#45;&gt;Connecting -->
<g id="edge2" class="edge">
<title>Disconnected&#45;&gt;Connecting</title>
<path fill="none" stroke="red" d="M74.75,-250.31C74.75,-237.86 74.75,-222.82 74.75,-209.19"/>
<polygon fill="red" stroke="red" points="78.25,-209.19 74.75,-199.19 71.25,-209.19 78.25,-209.19"/>
<text xml:space="preserve" text-anchor="middle" x="99.5" y="-218.95" font-family="Times,serif" font-size="14.00"> connect </text>
</g>
<!-- Connected -->
<g id="node4" class="node">
<title>Connected</title>
<path fill="azure" stroke="none" d="M127.38,-89.5C127.38,-89.5 22.12,-89.5 22.12,-89.5 16.12,-89.5 10.12,-83.5 10.12,-77.5 10.12,-77.5 10.12,-12 10.12,-12 10.12,-6 16.12,0 22.12,0 22.12,0 127.38,0 127.38,0 133.38,0 139.38,-6 139.38,-12 139.38,-12 139.38,-77.5 139.38,-77.5 139.38,-83.5 133.38,-89.5 127.38,-89.5"/>
<text xml:space="preserve" text-anchor="start" x="44" y="-69.2" font-family="Times,serif" font-weight="bold" font-size="14.00">Connected</text>
<text xml:space="preserve" text-anchor="start" x="33.88" y="-44" font-family="Times,serif" font-size="10.00"> &#160;&#160;&#160;&#160;&#160;&#160;&#160;&#160;&#160;&#160;&#160;&#160;&#160;&#160;&#160;$&gt;() [enter]</text>
<text xml:space="preserve" text-anchor="start" x="36.12" y="-32.75" font-family="Times,serif" font-size="10.00"> &#160;&#160;&#160;&#160;&#160;&#160;&#160;&#160;&#160;&#160;&#160;&#160;&#160;&#160;&#160;&lt;$() [exit]</text>
<text xml:space="preserve" text-anchor="start" x="28.25" y="-21.5" font-family="Times,serif" font-size="10.00"> &#160;&#160;&#160;&#160;&#160;&#160;&#160;&#160;&#160;&#160;&#160;&#160;&#160;&#160;&#160;send(data: str)</text>
<text xml:space="preserve" text-anchor="start" x="18.12" y="-10.25" font-family="Times,serif" font-size="10.00"> &#160;&#160;&#160;&#160;&#160;&#160;&#160;&#160;&#160;&#160;&#160;&#160;&#160;&#160;&#160;disconnect() &#160;&#160;&#160;&#160;&#160;&#160;&#160;&#160;&#160;&#160;&#160;</text>
<polygon fill="#00688b" stroke="#00688b" points="10.12,-59 10.12,-59 139.38,-59 139.38,-59 10.12,-59"/>
<path fill="none" stroke="#00688b" d="M22.12,0C22.12,0 127.38,0 127.38,0 133.38,0 139.38,-6 139.38,-12 139.38,-12 139.38,-77.5 139.38,-77.5 139.38,-83.5 133.38,-89.5 127.38,-89.5 127.38,-89.5 22.12,-89.5 22.12,-89.5 16.12,-89.5 10.12,-83.5 10.12,-77.5 10.12,-77.5 10.12,-12 10.12,-12 10.12,-6 16.12,0 22.12,0"/>
</g>
<!-- Connecting&#45;&gt;Connected -->
<g id="edge3" class="edge">
<title>Connecting&#45;&gt;Connected</title>
<path fill="none" stroke="red" d="M74.75,-142.16C74.75,-129.99 74.75,-115.12 74.75,-100.73"/>
<polygon fill="red" stroke="red" points="78.25,-100.87 74.75,-90.87 71.25,-100.87 78.25,-100.87"/>
<text xml:space="preserve" text-anchor="middle" x="86" y="-110.7" font-family="Times,serif" font-size="14.00"> $&gt; </text>
</g>
</g>
</svg>
