<?xml version="1.0" encoding="UTF-8" standalone="no"?>
<!DOCTYPE svg PUBLIC "-//W3C//DTD SVG 1.1//EN"
 "http://www.w3.org/Graphics/SVG/1.1/DTD/svg11.dtd">
<!-- Generated by graphviz version 14.1.5 (20260411.2331)
 -->
<!-- Title: Connection Pages: 1 -->
<svg width="186pt" height="399pt"
 viewBox="0.00 0.00 186.00 399.00" xmlns="http://www.w3.org/2000/svg" xmlns:xlink="http://www.w3.org/1999/xlink">
<g id="graph0" class="graph" transform="scale(1 1) rotate(0) translate(4 395.15)">
<title>Connection</title>
<polygon fill="white" stroke="none" points="-4,4 -4,-395.15 182.46,-395.15 182.46,4 -4,4"/>
<!-- Entry -->
<g id="node1" class="node">
<title>Entry</title>
<ellipse fill="black" stroke="#00688b" cx="79" cy="-383.95" rx="7.2" ry="7.2"/>
</g>
<!-- Disconnected -->
<g id="node2" class="node">
<title>Disconnected</title>
<path fill="azure" stroke="none" d="M113.25,-339.75C113.25,-339.75 44.75,-339.75 44.75,-339.75 38.75,-339.75 32.75,-333.75 32.75,-327.75 32.75,-327.75 32.75,-284.75 32.75,-284.75 32.75,-278.75 38.75,-272.75 44.75,-272.75 44.75,-272.75 113.25,-272.75 113.25,-272.75 119.25,-272.75 125.25,-278.75 125.25,-284.75 125.25,-284.75 125.25,-327.75 125.25,-327.75 125.25,-333.75 119.25,-339.75 113.25,-339.75"/>
<text xml:space="preserve" text-anchor="start" x="40.75" y="-319.45" font-family="Times,serif" font-weight="bold" font-size="14.00">Disconnected</text>
<text xml:space="preserve" text-anchor="start" x="40.75" y="-294.25" font-family="Times,serif" font-size="10.00">connect(host: str)</text>
<text xml:space="preserve" text-anchor="start" x="62.5" y="-283" font-family="Times,serif" font-size="10.00"> &#160;&#160;&#160;&#160;&#160;&#160;&#160;&#160;&#160;&#160;&#160;</text>
<polygon fill="#00688b" stroke="#00688b" points="32.75,-309.25 32.75,-309.25 125.25,-309.25 125.25,-309.25 32.75,-309.25"/>
<path fill="none" stroke="#00688b" d="M44.75,-272.75C44.75,-272.75 113.25,-272.75 113.25,-272.75 119.25,-272.75 125.25,-278.75 125.25,-284.75 125.25,-284.75 125.25,-327.75 125.25,-327.75 125.25,-333.75 119.25,-339.75 113.25,-339.75 113.25,-339.75 44.75,-339.75 44.75,-339.75 38.75,-339.75 32.75,-333.75 32.75,-327.75 32.75,-327.75 32.75,-284.75 32.75,-284.75 32.75,-278.75 38.75,-272.75 44.75,-272.75"/>
</g>
<!-- Entry&#45;&gt;Disconnected -->
<g id="edge1" class="edge">
<title>Entry&#45;&gt;Disconnected</title>
<path fill="none" stroke="red" d="M79,-376.5C79,-370.52 79,-361.07 79,-351.05"/>
<polygon fill="red" stroke="red" points="82.5,-351.16 79,-341.16 75.5,-351.16 82.5,-351.16"/>
</g>
<!-- Connecting -->
<g id="node3" class="node">
<title>Connecting</title>
<path fill="azure" stroke="none" d="M70,-220.25C70,-220.25 12,-220.25 12,-220.25 6,-220.25 0,-214.25 0,-208.25 0,-208.25 0,-165.25 0,-165.25 0,-159.25 6,-153.25 12,-153.25 12,-153.25 70,-153.25 70,-153.25 76,-153.25 82,-159.25 82,-165.25 82,-165.25 82,-208.25 82,-208.25 82,-214.25 76,-220.25 70,-220.25"/>
<text xml:space="preserve" text-anchor="start" x="8" y="-199.95" font-family="Times,serif" font-weight="bold" font-size="14.00">Connecting</text>
<text xml:space="preserve" text-anchor="start" x="8" y="-174.75" font-family="Times,serif" font-size="10.00">$&gt;()</text>
<text xml:space="preserve" text-anchor="start" x="8" y="-163.5" font-family="Times,serif" font-size="10.00"> &#160;&#160;&#160;&#160;&#160;&#160;&#160;&#160;&#160;&#160;&#160;</text>
<polygon fill="#00688b" stroke="#00688b" points="0,-189.75 0,-189.75 82,-189.75 82,-189.75 0,-189.75"/>
<path fill="none" stroke="#00688b" d="M12,-153.25C12,-153.25 70,-153.25 70,-153.25 76,-153.25 82,-159.25 82,-165.25 82,-165.25 82,-208.25 82,-208.25 82,-214.25 76,-220.25 70,-220.25 70,-220.25 12,-220.25 12,-220.25 6,-220.25 0,-214.25 0,-208.25 0,-208.25 0,-165.25 0,-165.25 0,-159.25 6,-153.25 12,-153.25"/>
</g>
<!-- Disconnected&#45;&gt;Connecting -->
<g id="edge2" class="edge">
<title>Disconnected&#45;&gt;Connecting</title>
<path fill="none" stroke="red" d="M61.82,-272.89C59.1,-266.96 56.52,-260.75 54.5,-254.75 52,-247.35 49.9,-239.32 48.15,-231.48"/>
<polygon fill="red" stroke="red" points="51.58,-230.79 46.14,-221.7 44.72,-232.2 51.58,-230.79"/>
<text xml:space="preserve" text-anchor="middle" x="79.25" y="-241.45" font-family="Times,serif" font-size="14.00"> connect </text>
</g>
<!-- Connected -->
<g id="node4" class="node">
<title>Connected</title>
<path fill="azure" stroke="none" d="M105.75,-100.75C105.75,-100.75 52.25,-100.75 52.25,-100.75 46.25,-100.75 40.25,-94.75 40.25,-88.75 40.25,-88.75 40.25,-12 40.25,-12 40.25,-6 46.25,0 52.25,0 52.25,0 105.75,0 105.75,0 111.75,0 117.75,-6 117.75,-12 117.75,-12 117.75,-88.75 117.75,-88.75 117.75,-94.75 111.75,-100.75 105.75,-100.75"/>
<text xml:space="preserve" text-anchor="start" x="48.25" y="-80.45" font-family="Times,serif" font-weight="bold" font-size="14.00">Connected</text>
<text xml:space="preserve" text-anchor="start" x="48.25" y="-55.25" font-family="Times,serif" font-size="10.00">$&gt;()</text>
<text xml:space="preserve" text-anchor="start" x="48.25" y="-44" font-family="Times,serif" font-size="10.00">&lt;$()</text>
<text xml:space="preserve" text-anchor="start" x="48.25" y="-32.75" font-family="Times,serif" font-size="10.00">send(data: str)</text>
<text xml:space="preserve" text-anchor="start" x="48.25" y="-21.5" font-family="Times,serif" font-size="10.00">disconnect()</text>
<text xml:space="preserve" text-anchor="start" x="63.25" y="-10.25" font-family="Times,serif" font-size="10.00"> &#160;&#160;&#160;&#160;&#160;&#160;&#160;&#160;&#160;&#160;&#160;</text>
<polygon fill="#00688b" stroke="#00688b" points="40.25,-70.25 40.25,-70.25 117.75,-70.25 117.75,-70.25 40.25,-70.25"/>
<path fill="none" stroke="#00688b" d="M52.25,0C52.25,0 105.75,0 105.75,0 111.75,0 117.75,-6 117.75,-12 117.75,-12 117.75,-88.75 117.75,-88.75 117.75,-94.75 111.75,-100.75 105.75,-100.75 105.75,-100.75 52.25,-100.75 52.25,-100.75 46.25,-100.75 40.25,-94.75 40.25,-88.75 40.25,-88.75 40.25,-12 40.25,-12 40.25,-6 46.25,0 52.25,0"/>
</g>
<!-- Connecting&#45;&gt;Connected -->
<g id="edge3" class="edge">
<title>Connecting&#45;&gt;Connected</title>
<path fill="none" stroke="red" d="M38.18,-153.28C38.05,-142.17 38.84,-129.77 41.75,-118.75 42.43,-116.19 43.22,-113.62 44.11,-111.06"/>
<polygon fill="red" stroke="red" points="47.26,-112.62 47.7,-102.03 40.75,-110.03 47.26,-112.62"/>
<text xml:space="preserve" text-anchor="middle" x="72.88" y="-121.95" font-family="Times,serif" font-size="14.00"> connected </text>
</g>
<!-- Connected&#45;&gt;Disconnected -->
<g id="edge4" class="edge">
<title>Connected&#45;&gt;Disconnected</title>
<path fill="none" stroke="red" d="M99.48,-100.49C101.34,-106.55 102.92,-112.73 104,-118.75 114.68,-178.24 117.77,-195.9 104,-254.75 103.42,-257.23 102.7,-259.72 101.88,-262.2"/>
<polygon fill="red" stroke="red" points="98.62,-260.93 98.24,-271.52 105.14,-263.48 98.62,-260.93"/>
<text xml:space="preserve" text-anchor="middle" x="145.83" y="-181.7" font-family="Times,serif" font-size="14.00"> disconnect </text>
</g>
</g>
</svg>
