<?xml version="1.0" encoding="UTF-8" standalone="no"?>
<!DOCTYPE svg PUBLIC "-//W3C//DTD SVG 1.1//EN"
 "http://www.w3.org/Graphics/SVG/1.1/DTD/svg11.dtd">
<!-- Generated by graphviz version 14.1.5 (20260411.2331)
 -->
<!-- Title: Connection Pages: 1 -->
<svg width="189pt" height="365pt"
 viewBox="0.00 0.00 189.00 365.00" xmlns="http://www.w3.org/2000/svg" xmlns:xlink="http://www.w3.org/1999/xlink">
<g id="graph0" class="graph" transform="scale(1 1) rotate(0) translate(4 361.4)">
<title>Connection</title>
<polygon fill="white" stroke="none" points="-4,4 -4,-361.4 185.29,-361.4 185.29,4 -4,4"/>
<!-- Entry -->
<g id="node1" class="node">
<title>Entry</title>
<ellipse fill="black" stroke="#00688b" cx="84.38" cy="-350.2" rx="7.2" ry="7.2"/>
</g>
<!-- Disconnected -->
<g id="node2" class="node">
<title>Disconnected</title>
<path fill="azure" stroke="none" d="M129.12,-306C129.12,-306 39.62,-306 39.62,-306 33.62,-306 27.62,-300 27.62,-294 27.62,-294 27.62,-262.25 27.62,-262.25 27.62,-256.25 33.62,-250.25 39.62,-250.25 39.62,-250.25 129.12,-250.25 129.12,-250.25 135.12,-250.25 141.12,-256.25 141.12,-262.25 141.12,-262.25 141.12,-294 141.12,-294 141.12,-300 135.12,-306 129.12,-306"/>
<text xml:space="preserve" text-anchor="start" x="46.12" y="-285.7" font-family="Times,serif" font-weight="bold" font-size="14.00">Disconnected</text>
<text xml:space="preserve" text-anchor="start" x="35.62" y="-249.34" font-family="Times,serif" font-size="10.00">connect(host: str) &#160;&#160;&#160;&#160;&#160;&#160;&#160;&#160;&#160;&#160;&#160;</text>
<polygon fill="#00688b" stroke="#00688b" points="27.62,-275.5 27.62,-275.5 141.12,-275.5 141.12,-275.5 27.62,-275.5"/>
<path fill="none" stroke="#00688b" d="M39.62,-250.25C39.62,-250.25 129.12,-250.25 129.12,-250.25 135.12,-250.25 141.12,-256.25 141.12,-262.25 141.12,-262.25 141.12,-294 141.12,-294 141.12,-300 135.12,-306 129.12,-306 129.12,-306 39.62,-306 39.62,-306 33.62,-306 27.62,-300 27.62,-294 27.62,-294 27.62,-262.25 27.62,-262.25 27.62,-256.25 33.62,-250.25 39.62,-250.25"/>
</g>
<!-- Entry&#45;&gt;Disconnected -->
<g id="edge1" class="edge">
<title>Entry&#45;&gt;Disconnected</title>
<path fill="none" stroke="red" d="M84.38,-342.73C84.38,-336.63 84.38,-326.94 84.38,-316.95"/>
<polygon fill="red" stroke="red" points="87.88,-317.23 84.38,-307.23 80.88,-317.23 87.88,-317.23"/>
</g>
<!-- Connecting -->
<g id="node3" class="node">
<title>Connecting</title>
<path fill="azure" stroke="none" d="M76.75,-197.75C76.75,-197.75 12,-197.75 12,-197.75 6,-197.75 0,-191.75 0,-185.75 0,-185.75 0,-154 0,-154 0,-148 6,-142 12,-142 12,-142 76.75,-142 76.75,-142 82.75,-142 88.75,-148 88.75,-154 88.75,-154 88.75,-185.75 88.75,-185.75 88.75,-191.75 82.75,-197.75 76.75,-197.75"/>
<text xml:space="preserve" text-anchor="start" x="11.38" y="-177.45" font-family="Times,serif" font-weight="bold" font-size="14.00">Connecting</text>
<text xml:space="preserve" text-anchor="start" x="8" y="-141.09" font-family="Times,serif" font-size="10.00">$&gt;() [enter] &#160;&#160;&#160;&#160;&#160;&#160;&#160;&#160;&#160;&#160;&#160;</text>
<polygon fill="#00688b" stroke="#00688b" points="0,-167.25 0,-167.25 88.75,-167.25 88.75,-167.25 0,-167.25"/>
<path fill="none" stroke="#00688b" d="M12,-142C12,-142 76.75,-142 76.75,-142 82.75,-142 88.75,-148 88.75,-154 88.75,-154 88.75,-185.75 88.75,-185.75 88.75,-191.75 82.75,-197.75 76.75,-197.75 76.75,-197.75 12,-197.75 12,-197.75 6,-197.75 0,-191.75 0,-185.75 0,-185.75 0,-154 0,-154 0,-148 6,-142 12,-142"/>
</g>
<!-- Disconnected&#45;&gt;Connecting -->
<g id="edge2" class="edge">
<title>Disconnected&#45;&gt;Connecting</title>
<path fill="none" stroke="red" d="M69.22,-250.52C66.21,-244.62 63.24,-238.31 60.88,-232.25 57.93,-224.71 55.31,-216.44 53.08,-208.49"/>
<polygon fill="red" stroke="red" points="56.52,-207.8 50.58,-199.03 49.76,-209.59 56.52,-207.8"/>
<text xml:space="preserve" text-anchor="middle" x="85.62" y="-218.95" font-family="Times,serif" font-size="14.00"> connect </text>
</g>
<!-- Connected -->
<g id="node4" class="node">
<title>Connected</title>
<path fill="azure" stroke="none" d="M119,-89.5C119,-89.5 49.75,-89.5 49.75,-89.5 43.75,-89.5 37.75,-83.5 37.75,-77.5 37.75,-77.5 37.75,-12 37.75,-12 37.75,-6 43.75,0 49.75,0 49.75,0 119,0 119,0 125,0 131,-6 131,-12 131,-12 131,-77.5 131,-77.5 131,-83.5 125,-89.5 119,-89.5"/>
<text xml:space="preserve" text-anchor="start" x="53.62" y="-69.2" font-family="Times,serif" font-weight="bold" font-size="14.00">Connected</text>
<text xml:space="preserve" text-anchor="start" x="45.75" y="-32.84" font-family="Times,serif" font-size="10.00">$&gt;() [enter]</text>
<text xml:space="preserve" text-anchor="start" x="45.75" y="-21.59" font-family="Times,serif" font-size="10.00">&lt;$() [exit]</text>
<text xml:space="preserve" text-anchor="start" x="45.75" y="-10.34" font-family="Times,serif" font-size="10.00">send(data: str)</text>
<text xml:space="preserve" text-anchor="start" x="45.75" y="0.91" font-family="Times,serif" font-size="10.00">disconnect() &#160;&#160;&#160;&#160;&#160;&#160;&#160;&#160;&#160;&#160;&#160;</text>
<polygon fill="#00688b" stroke="#00688b" points="37.75,-59 37.75,-59 131,-59 131,-59 37.75,-59"/>
<path fill="none" stroke="#00688b" d="M49.75,0C49.75,0 119,0 119,0 125,0 131,-6 131,-12 131,-12 131,-77.5 131,-77.5 131,-83.5 125,-89.5 119,-89.5 119,-89.5 49.75,-89.5 49.75,-89.5 43.75,-89.5 37.75,-83.5 37.75,-77.5 37.75,-77.5 37.75,-12 37.75,-12 37.75,-6 43.75,0 49.75,0"/>
</g>
<!-- Connecting&#45;&gt;Connected -->
<g id="edge3" class="edge">
<title>Connecting&#45;&gt;Connected</title>
<path fill="none" stroke="red" d="M53.05,-142.16C57.05,-129.87 61.93,-114.82 66.65,-100.3"/>
<polygon fill="red" stroke="red" points="69.98,-101.39 69.74,-90.8 63.32,-99.23 69.98,-101.39"/>
<text xml:space="preserve" text-anchor="middle" x="74.43" y="-110.7" font-family="Times,serif" font-size="14.00"> $&gt; </text>
</g>
<!-- Connected&#45;&gt;Disconnected -->
<g id="edge4" class="edge">
<title>Connected&#45;&gt;Disconnected</title>
<path fill="none" stroke="red" d="M100.15,-89.32C111.69,-127.51 123.27,-184.26 110.38,-232.25 109.64,-234.99 108.69,-237.73 107.59,-240.44"/>
<polygon fill="red" stroke="red" points="104.54,-238.7 103.4,-249.24 110.86,-241.71 104.54,-238.7"/>
<text xml:space="preserve" text-anchor="middle" x="148.67" y="-164.82" font-family="Times,serif" font-size="14.00"> disconnect </text>
</g>
</g>
</svg>
