<?xml version="1.0" encoding="UTF-8" standalone="no"?>
<!DOCTYPE svg PUBLIC "-//W3C//DTD SVG 1.1//EN"
 "http://www.w3.org/Graphics/SVG/1.1/DTD/svg11.dtd">
<!-- Generated by graphviz version 14.1.5 (20260411.2331)
 -->
<!-- Title: Connection Pages: 1 -->
<svg width="223pt" height="365pt"
 viewBox="0.00 0.00 223.00 365.00" xmlns="http://www.w3.org/2000/svg" xmlns:xlink="http://www.w3.org/1999/xlink">
<g id="graph0" class="graph" transform="scale(1 1) rotate(0) translate(4 361.4)">
<title>Connection</title>
<polygon fill="white" stroke="none" points="-4,4 -4,-361.4 219.19,-361.4 219.19,4 -4,4"/>
<!-- Entry -->
<g id="node1" class="node">
<title>Entry</title>
<ellipse fill="black" stroke="#00688b" cx="111.38" cy="-350.2" rx="7.2" ry="7.2"/>
</g>
<!-- Disconnected -->
<g id="node2" class="node">
<title>Disconnected</title>
<path fill="azure" stroke="none" d="M174.12,-306C174.12,-306 48.62,-306 48.62,-306 42.62,-306 36.62,-300 36.62,-294 36.62,-294 36.62,-262.25 36.62,-262.25 36.62,-256.25 42.62,-250.25 48.62,-250.25 48.62,-250.25 174.12,-250.25 174.12,-250.25 180.12,-250.25 186.12,-256.25 186.12,-262.25 186.12,-262.25 186.12,-294 186.12,-294 186.12,-300 180.12,-306 174.12,-306"/>
<text xml:space="preserve" text-anchor="start" x="73.12" y="-285.7" font-family="Times,serif" font-weight="bold" font-size="14.00">Disconnected</text>
<text xml:space="preserve" text-anchor="start" x="44.62" y="-260.5" font-family="Times,serif" font-size="10.00"> &#160;&#160;&#160;&#160;&#160;&#160;&#160;&#160;&#160;&#160;&#160;&#160;&#160;&#160;&#160;connect(host: str) &#160;&#160;&#160;&#160;&#160;&#160;&#160;&#160;&#160;&#160;&#160;</text>
<polygon fill="#00688b" stroke="#00688b" points="36.62,-275.5 36.62,-275.5 186.12,-275.5 186.12,-275.5 36.62,-275.5"/>
<path fill="none" stroke="#00688b" d="M48.62,-250.25C48.62,-250.25 174.12,-250.25 174.12,-250.25 180.12,-250.25 186.12,-256.25 186.12,-262.25 186.12,-262.25 186.12,-294 186.12,-294 186.12,-300 180.12,-306 174.12,-306 174.12,-306 48.62,-306 48.62,-306 42.62,-306 36.62,-300 36.62,-294 36.62,-294 36.62,-262.25 36.62,-262.25 36.62,-256.25 42.62,-250.25 48.62,-250.25"/>
</g>
<!-- Entry&#45;&gt;Disconnected -->
<g id="edge1" class="edge">
<title>Entry&#45;&gt;Disconnected</title>
<path fill="none" stroke="red" d="M111.38,-342.73C111.38,-336.63 111.38,-326.94 111.38,-316.95"/>
<polygon fill="red" stroke="red" points="114.88,-317.23 111.38,-307.23 107.88,-317.23 114.88,-317.23"/>
</g>
<!-- Connecting -->
<g id="node3" class="node">
<title>Connecting</title>
<path fill="azure" stroke="none" d="M112.75,-197.75C112.75,-197.75 12,-197.75 12,-197.75 6,-197.75 0,-191.75 0,-185.75 0,-185.75 0,-154 0,-154 0,-148 6,-142 12,-142 12,-142 112.75,-142 112.75,-142 118.75,-142 124.75,-148 124.75,-154 124.75,-154 124.75,-185.75 124.75,-185.75 124.75,-191.75 118.75,-197.75 112.75,-197.75"/>
<text xml:space="preserve" text-anchor="start" x="29.38" y="-177.45" font-family="Times,serif" font-weight="bold" font-size="14.00">Connecting</text>
<text xml:space="preserve" text-anchor="start" x="8" y="-152.25" font-family="Times,serif" font-size="10.00"> &#160;&#160;&#160;&#160;&#160;&#160;&#160;&#160;&#160;&#160;&#160;&#160;&#160;&#160;&#160;$&gt;() [enter] &#160;&#160;&#160;&#160;&#160;&#160;&#160;&#160;&#160;&#160;&#160;</text>
<polygon fill="#00688b" stroke="#00688b" points="0,-167.25 0,-167.25 124.75,-167.25 124.75,-167.25 0,-167.25"/>
<path fill="none" stroke="#00688b" d="M12,-142C12,-142 112.75,-142 112.75,-142 118.75,-142 124.75,-148 124.75,-154 124.75,-154 124.75,-185.75 124.75,-185.75 124.75,-191.75 118.75,-197.75 112.75,-197.75 112.75,-197.75 12,-197.75 12,-197.75 6,-197.75 0,-191.75 0,-185.75 0,-185.75 0,-154 0,-154 0,-148 6,-142 12,-142"/>
</g>
<!-- Disconnected&#45;&gt;Connecting -->
<g id="edge2" class="edge">
<title>Disconnected&#45;&gt;Connecting</title>
<path fill="none" stroke="red" d="M99.01,-250.31C93.09,-237.48 85.91,-221.9 79.47,-207.95"/>
<polygon fill="red" stroke="red" points="82.74,-206.67 75.37,-199.05 76.38,-209.6 82.74,-206.67"/>
<text xml:space="preserve" text-anchor="middle" x="114.56" y="-218.95" font-family="Times,serif" font-size="14.00"> connect </text>
</g>
<!-- Connected -->
<g id="node4" class="node">
<title>Connected</title>
<path fill="azure" stroke="none" d="M164,-89.5C164,-89.5 58.75,-89.5 58.75,-89.5 52.75,-89.5 46.75,-83.5 46.75,-77.5 46.75,-77.5 46.75,-12 46.75,-12 46.75,-6 52.75,0 58.75,0 58.75,0 164,0 164,0 170,0 176,-6 176,-12 176,-12 176,-77.5 176,-77.5 176,-83.5 170,-89.5 164,-89.5"/>
<text xml:space="preserve" text-anchor="start" x="80.62" y="-69.2" font-family="Times,serif" font-weight="bold" font-size="14.00">Connected</text>
<text xml:space="preserve" text-anchor="start" x="54.75" y="-44" font-family="Times,serif" font-size="10.00"> &#160;&#160;&#160;&#160;&#160;&#160;&#160;&#160;&#160;&#160;&#160;&#160;&#160;&#160;&#160;$&gt;() [enter]</text>
<text xml:space="preserve" text-anchor="start" x="54.75" y="-32.75" font-family="Times,serif" font-size="10.00"> &#160;&#160;&#160;&#160;&#160;&#160;&#160;&#160;&#160;&#160;&#160;&#160;&#160;&#160;&#160;&lt;$() [exit]</text>
<text xml:space="preserve" text-anchor="start" x="54.75" y="-21.5" font-family="Times,serif" font-size="10.00"> &#160;&#160;&#160;&#160;&#160;&#160;&#160;&#160;&#160;&#160;&#160;&#160;&#160;&#160;&#160;send(data: str)</text>
<text xml:space="preserve" text-anchor="start" x="54.75" y="-10.25" font-family="Times,serif" font-size="10.00"> &#160;&#160;&#160;&#160;&#160;&#160;&#160;&#160;&#160;&#160;&#160;&#160;&#160;&#160;&#160;disconnect() &#160;&#160;&#160;&#160;&#160;&#160;&#160;&#160;&#160;&#160;&#160;</text>
<polygon fill="#00688b" stroke="#00688b" points="46.75,-59 46.75,-59 176,-59 176,-59 46.75,-59"/>
<path fill="none" stroke="#00688b" d="M58.75,0C58.75,0 164,0 164,0 170,0 176,-6 176,-12 176,-12 176,-77.5 176,-77.5 176,-83.5 170,-89.5 164,-89.5 164,-89.5 58.75,-89.5 58.75,-89.5 52.75,-89.5 46.75,-83.5 46.75,-77.5 46.75,-77.5 46.75,-12 46.75,-12 46.75,-6 52.75,0 58.75,0"/>
</g>
<!-- Connecting&#45;&gt;Connected -->
<g id="edge3" class="edge">
<title>Connecting&#45;&gt;Connected</title>
<path fill="none" stroke="red" d="M73.01,-142.16C77.94,-129.75 84,-114.53 89.83,-99.88"/>
<polygon fill="red" stroke="red" points="93.02,-101.35 93.46,-90.76 86.51,-98.76 93.02,-101.35"/>
<text xml:space="preserve" text-anchor="middle" x="96.66" y="-110.7" font-family="Times,serif" font-size="14.00"> $&gt; </text>
</g>
<!-- Connected&#45;&gt;Disconnected -->
<g id="edge4" class="edge">
<title>Connected&#45;&gt;Disconnected</title>
<path fill="none" stroke="red" d="M130.33,-89.16C144.37,-127.49 158.65,-184.54 143.38,-232.25 142.45,-235.14 141.26,-238 139.89,-240.8"/>
<polygon fill="red" stroke="red" points="136.97,-238.86 135.03,-249.27 143.04,-242.34 136.97,-238.86"/>
<text xml:space="preserve" text-anchor="middle" x="182.57" y="-164.82" font-family="Times,serif" font-size="14.00"> disconnect </text>
</g>
</g>
</svg>
