<?xml version="1.0" encoding="UTF-8" standalone="no"?>
<!DOCTYPE svg PUBLIC "-//W3C//DTD SVG 1.1//EN"
 "http://www.w3.org/Graphics/SVG/1.1/DTD/svg11.dtd">
<!-- Generated by graphviz version 14.1.5 (20260411.2331)
 -->
<!-- Title: Retrier Pages: 1 -->
<svg width="174pt" height="377pt"
 viewBox="0.00 0.00 174.00 377.00" xmlns="http://www.w3.org/2000/svg" xmlns:xlink="http://www.w3.org/1999/xlink">
<g id="graph0" class="graph" transform="scale(1 1) rotate(0) translate(4 372.65)">
<title>Retrier</title>
<polygon fill="white" stroke="none" points="-4,4 -4,-372.65 170.07,-372.65 170.07,4 -4,4"/>
<!-- Entry -->
<g id="node1" class="node">
<title>Entry</title>
<ellipse fill="black" stroke="#00688b" cx="79" cy="-361.45" rx="7.2" ry="7.2"/>
</g>
<!-- Idle -->
<g id="node2" class="node">
<title>Idle</title>
<path fill="azure" stroke="none" d="M94,-317.25C94,-317.25 64,-317.25 64,-317.25 58,-317.25 52,-311.25 52,-305.25 52,-305.25 52,-262.25 52,-262.25 52,-256.25 58,-250.25 64,-250.25 64,-250.25 94,-250.25 94,-250.25 100,-250.25 106,-256.25 106,-262.25 106,-262.25 106,-305.25 106,-305.25 106,-311.25 100,-317.25 94,-317.25"/>
<text xml:space="preserve" text-anchor="start" x="67.75" y="-296.95" font-family="Times,serif" font-weight="bold" font-size="14.00">Idle</text>
<text xml:space="preserve" text-anchor="start" x="65.5" y="-271.75" font-family="Times,serif" font-size="10.00">start()</text>
<text xml:space="preserve" text-anchor="start" x="65.5" y="-260.5" font-family="Times,serif" font-size="10.00"> &#160;&#160;&#160;&#160;&#160;&#160;&#160;&#160;&#160;&#160;&#160;</text>
<polygon fill="#00688b" stroke="#00688b" points="57.5,-286.75 57.5,-286.75 100.5,-286.75 100.5,-286.75 57.5,-286.75"/>
<path fill="none" stroke="#00688b" d="M69.5,-250.25C69.5,-250.25 88.5,-250.25 88.5,-250.25 94.5,-250.25 100.5,-256.25 100.5,-262.25 100.5,-262.25 100.5,-305.25 100.5,-305.25 100.5,-311.25 94.5,-317.25 88.5,-317.25 88.5,-317.25 69.5,-317.25 69.5,-317.25 63.5,-317.25 57.5,-311.25 57.5,-305.25 57.5,-305.25 57.5,-262.25 57.5,-262.25 57.5,-256.25 63.5,-250.25 69.5,-250.25"/>
</g>
<!-- Entry&#45;&gt;Idle -->
<g id="edge1" class="edge">
<title>Entry&#45;&gt;Idle</title>
<path fill="none" stroke="red" d="M79,-354C79,-348.02 79,-338.57 79,-328.55"/>
<polygon fill="red" stroke="red" points="82.5,-328.66 79,-318.66 75.5,-328.66 82.5,-328.66"/>
</g>
<!-- Trying -->
<g id="node3" class="node">
<title>Trying</title>
<path fill="azure" stroke="none" d="M94.88,-197.75C94.88,-197.75 63.12,-197.75 63.12,-197.75 57.12,-197.75 51.12,-191.75 51.12,-185.75 51.12,-185.75 51.12,-131.5 51.12,-131.5 51.12,-125.5 57.12,-119.5 63.12,-119.5 63.12,-119.5 94.88,-119.5 94.88,-119.5 100.88,-119.5 106.88,-125.5 106.88,-131.5 106.88,-131.5 106.88,-185.75 106.88,-185.75 106.88,-191.75 100.88,-197.75 94.88,-197.75"/>
<text xml:space="preserve" text-anchor="start" x="59.12" y="-177.45" font-family="Times,serif" font-weight="bold" font-size="14.00">Trying</text>
<text xml:space="preserve" text-anchor="start" x="59.12" y="-152.25" font-family="Times,serif" font-size="10.00">$&gt;()</text>
<text xml:space="preserve" text-anchor="start" x="59.12" y="-141" font-family="Times,serif" font-size="10.00">status()</text>
<text xml:space="preserve" text-anchor="start" x="60.25" y="-129.75" font-family="Times,serif" font-size="10.00"> &#160;&#160;&#160;&#160;&#160;&#160;&#160;&#160;&#160;&#160;&#160;</text>
<polygon fill="#00688b" stroke="#00688b" points="51.12,-167.25 51.12,-167.25 106.88,-167.25 106.88,-167.25 51.12,-167.25"/>
<path fill="none" stroke="#00688b" d="M63.12,-119.5C63.12,-119.5 94.88,-119.5 94.88,-119.5 100.88,-119.5 106.88,-125.5 106.88,-131.5 106.88,-131.5 106.88,-185.75 106.88,-185.75 106.88,-191.75 100.88,-197.75 94.88,-197.75 94.88,-197.75 63.12,-197.75 63.12,-197.75 57.12,-197.75 51.12,-191.75 51.12,-185.75 51.12,-185.75 51.12,-131.5 51.12,-131.5 51.12,-125.5 57.12,-119.5 63.12,-119.5"/>
</g>
<!-- Idle&#45;&gt;Trying -->
<g id="edge2" class="edge">
<title>Idle&#45;&gt;Trying</title>
<path fill="none" stroke="red" d="M79,-250.4C79,-237.71 79,-222.86 79,-208.89"/>
<polygon fill="red" stroke="red" points="82.5,-208.95 79,-198.95 75.5,-208.95 82.5,-208.95"/>
<text xml:space="preserve" text-anchor="middle" x="94.38" y="-218.95" font-family="Times,serif" font-size="14.00"> start </text>
</g>
<!-- Trying&#45;&gt;Trying -->
<g id="edge5" class="edge">
<title>Trying&#45;&gt;Trying</title>
<path fill="none" stroke="red" d="M106.77,-170.87C116.74,-171.13 124.88,-167.05 124.88,-158.62 124.88,-153.75 122.16,-150.33 117.94,-148.37"/>
<polygon fill="red" stroke="red" points="118.72,-144.95 108.26,-146.64 117.49,-151.84 118.72,-144.95"/>
<text xml:space="preserve" text-anchor="middle" x="141.38" y="-153.57" font-family="Times,serif" font-size="14.00"> retry </text>
</g>
<!-- Succeeded -->
<g id="node4" class="node">
<title>Succeeded</title>
<path fill="azure" stroke="none" d="M64,-67C64,-67 12,-67 12,-67 6,-67 0,-61 0,-55 0,-55 0,-12 0,-12 0,-6 6,0 12,0 12,0 64,0 64,0 70,0 76,-6 76,-12 76,-12 76,-55 76,-55 76,-61 70,-67 64,-67"/>
<text xml:space="preserve" text-anchor="start" x="8" y="-46.7" font-family="Times,serif" font-weight="bold" font-size="14.00">Succeeded</text>
<text xml:space="preserve" text-anchor="start" x="8" y="-21.5" font-family="Times,serif" font-size="10.00">status()</text>
<text xml:space="preserve" text-anchor="start" x="9.12" y="-10.25" font-family="Times,serif" font-size="10.00"> &#160;&#160;&#160;&#160;&#160;&#160;&#160;&#160;&#160;&#160;&#160;</text>
<polygon fill="#00688b" stroke="#00688b" points="0,-36.5 0,-36.5 76,-36.5 76,-36.5 0,-36.5"/>
<path fill="none" stroke="#00688b" d="M12,0C12,0 64,0 64,0 70,0 76,-6 76,-12 76,-12 76,-55 76,-55 76,-61 70,-67 64,-67 64,-67 12,-67 12,-67 6,-67 0,-61 0,-55 0,-55 0,-12 0,-12 0,-6 6,0 12,0"/>
</g>
<!-- Trying&#45;&gt;Succeeded -->
<g id="edge3" class="edge">
<title>Trying&#45;&gt;Succeeded</title>
<path fill="none" stroke="red" d="M58.3,-119.57C55.58,-113.63 53.03,-107.48 51,-101.5 48.49,-94.11 46.41,-86.09 44.71,-78.25"/>
<polygon fill="red" stroke="red" points="48.15,-77.61 42.77,-68.48 41.29,-78.97 48.15,-77.61"/>
<text xml:space="preserve" text-anchor="middle" x="75" y="-88.2" font-family="Times,serif" font-size="14.00"> success </text>
</g>
<!-- Failed -->
<g id="node5" class="node">
<title>Failed</title>
<path fill="azure" stroke="none" d="M136,-67C136,-67 106,-67 106,-67 100,-67 94,-61 94,-55 94,-55 94,-12 94,-12 94,-6 100,0 106,0 106,0 136,0 136,0 142,0 148,-6 148,-12 148,-12 148,-55 148,-55 148,-61 142,-67 136,-67"/>
<text xml:space="preserve" text-anchor="start" x="103" y="-46.7" font-family="Times,serif" font-weight="bold" font-size="14.00">Failed</text>
<text xml:space="preserve" text-anchor="start" x="103" y="-21.5" font-family="Times,serif" font-size="10.00">status()</text>
<text xml:space="preserve" text-anchor="start" x="104.12" y="-10.25" font-family="Times,serif" font-size="10.00"> &#160;&#160;&#160;&#160;&#160;&#160;&#160;&#160;&#160;&#160;&#160;</text>
<polygon fill="#00688b" stroke="#00688b" points="95,-36.5 95,-36.5 147,-36.5 147,-36.5 95,-36.5"/>
<path fill="none" stroke="#00688b" d="M107,0C107,0 135,0 135,0 141,0 147,-6 147,-12 147,-12 147,-55 147,-55 147,-61 141,-67 135,-67 135,-67 107,-67 107,-67 101,-67 95,-61 95,-55 95,-55 95,-12 95,-12 95,-6 101,0 107,0"/>
</g>
<!-- Trying&#45;&gt;Failed -->
<g id="edge4" class="edge">
<title>Trying&#45;&gt;Failed</title>
<path fill="none" stroke="red" d="M92.68,-119.63C94.82,-113.57 96.99,-107.37 99,-101.5 101.61,-93.86 104.34,-85.72 106.95,-77.83"/>
<polygon fill="red" stroke="red" points="110.26,-78.96 110.06,-68.37 103.61,-76.77 110.26,-78.96"/>
<text xml:space="preserve" text-anchor="middle" x="135.32" y="-88.2" font-family="Times,serif" font-size="14.00"> exhausted </text>
</g>
</g>
</svg>
