<?xml version="1.0" encoding="UTF-8" standalone="no"?>
<!DOCTYPE svg PUBLIC "-//W3C//DTD SVG 1.1//EN"
 "http://www.w3.org/Graphics/SVG/1.1/DTD/svg11.dtd">
<!-- Generated by graphviz version 14.1.5 (20260411.2331)
 -->
<!-- Title: Retrier Pages: 1 -->
<svg width="185pt" height="377pt"
 viewBox="0.00 0.00 185.00 377.00" xmlns="http://www.w3.org/2000/svg" xmlns:xlink="http://www.w3.org/1999/xlink">
<g id="graph0" class="graph" transform="scale(1 1) rotate(0) translate(4 372.65)">
<title>Retrier</title>
<polygon fill="white" stroke="none" points="-4,4 -4,-372.65 180.65,-372.65 180.65,4 -4,4"/>
<!-- Entry -->
<g id="node1" class="node">
<title>Entry</title>
<ellipse fill="black" stroke="#00688b" cx="81" cy="-361.45" rx="7.2" ry="7.2"/>
</g>
<!-- Idle -->
<g id="node2" class="node">
<title>Idle</title>
<path fill="azure" stroke="none" d="M96,-317.25C96,-317.25 66,-317.25 66,-317.25 60,-317.25 54,-311.25 54,-305.25 54,-305.25 54,-262.25 54,-262.25 54,-256.25 60,-250.25 66,-250.25 66,-250.25 96,-250.25 96,-250.25 102,-250.25 108,-256.25 108,-262.25 108,-262.25 108,-305.25 108,-305.25 108,-311.25 102,-317.25 96,-317.25"/>
<text xml:space="preserve" text-anchor="start" x="69.75" y="-296.95" font-family="Times,serif" font-weight="bold" font-size="14.00">Idle</text>
<text xml:space="preserve" text-anchor="start" x="67.5" y="-271.75" font-family="Times,serif" font-size="10.00">start()</text>
<text xml:space="preserve" text-anchor="start" x="67.5" y="-260.5" font-family="Times,serif" font-size="10.00"> &#160;&#160;&#160;&#160;&#160;&#160;&#160;&#160;&#160;&#160;&#160;</text>
<polygon fill="#00688b" stroke="#00688b" points="59.5,-286.75 59.5,-286.75 102.5,-286.75 102.5,-286.75 59.5,-286.75"/>
<path fill="none" stroke="#00688b" d="M71.5,-250.25C71.5,-250.25 90.5,-250.25 90.5,-250.25 96.5,-250.25 102.5,-256.25 102.5,-262.25 102.5,-262.25 102.5,-305.25 102.5,-305.25 102.5,-311.25 96.5,-317.25 90.5,-317.25 90.5,-317.25 71.5,-317.25 71.5,-317.25 65.5,-317.25 59.5,-311.25 59.5,-305.25 59.5,-305.25 59.5,-262.25 59.5,-262.25 59.5,-256.25 65.5,-250.25 71.5,-250.25"/>
</g>
<!-- Entry&#45;&gt;Idle -->
<g id="edge1" class="edge">
<title>Entry&#45;&gt;Idle</title>
<path fill="none" stroke="red" d="M81,-354C81,-348.02 81,-338.57 81,-328.55"/>
<polygon fill="red" stroke="red" points="84.5,-328.66 81,-318.66 77.5,-328.66 84.5,-328.66"/>
</g>
<!-- Trying -->
<g id="node3" class="node">
<title>Trying</title>
<path fill="azure" stroke="none" d="M96.88,-197.75C96.88,-197.75 65.12,-197.75 65.12,-197.75 59.12,-197.75 53.12,-191.75 53.12,-185.75 53.12,-185.75 53.12,-131.5 53.12,-131.5 53.12,-125.5 59.12,-119.5 65.12,-119.5 65.12,-119.5 96.88,-119.5 96.88,-119.5 102.88,-119.5 108.88,-125.5 108.88,-131.5 108.88,-131.5 108.88,-185.75 108.88,-185.75 108.88,-191.75 102.88,-197.75 96.88,-197.75"/>
<text xml:space="preserve" text-anchor="start" x="61.12" y="-177.45" font-family="Times,serif" font-weight="bold" font-size="14.00">Trying</text>
<text xml:space="preserve" text-anchor="start" x="61.12" y="-152.25" font-family="Times,serif" font-size="10.00">$&gt;()</text>
<text xml:space="preserve" text-anchor="start" x="61.12" y="-141" font-family="Times,serif" font-size="10.00">status()</text>
<text xml:space="preserve" text-anchor="start" x="62.25" y="-129.75" font-family="Times,serif" font-size="10.00"> &#160;&#160;&#160;&#160;&#160;&#160;&#160;&#160;&#160;&#160;&#160;</text>
<polygon fill="#00688b" stroke="#00688b" points="53.12,-167.25 53.12,-167.25 108.88,-167.25 108.88,-167.25 53.12,-167.25"/>
<path fill="none" stroke="#00688b" d="M65.12,-119.5C65.12,-119.5 96.88,-119.5 96.88,-119.5 102.88,-119.5 108.88,-125.5 108.88,-131.5 108.88,-131.5 108.88,-185.75 108.88,-185.75 108.88,-191.75 102.88,-197.75 96.88,-197.75 96.88,-197.75 65.12,-197.75 65.12,-197.75 59.12,-197.75 53.12,-191.75 53.12,-185.75 53.12,-185.75 53.12,-131.5 53.12,-131.5 53.12,-125.5 59.12,-119.5 65.12,-119.5"/>
</g>
<!-- Idle&#45;&gt;Trying -->
<g id="edge2" class="edge">
<title>Idle&#45;&gt;Trying</title>
<path fill="none" stroke="red" d="M81,-250.4C81,-237.71 81,-222.86 81,-208.89"/>
<polygon fill="red" stroke="red" points="84.5,-208.95 81,-198.95 77.5,-208.95 84.5,-208.95"/>
<text xml:space="preserve" text-anchor="middle" x="96.38" y="-218.95" font-family="Times,serif" font-size="14.00"> start </text>
</g>
<!-- Trying&#45;&gt;Trying -->
<g id="edge5" class="edge">
<title>Trying&#45;&gt;Trying</title>
<path fill="none" stroke="red" d="M108.77,-170.87C118.74,-171.13 126.88,-167.05 126.88,-158.62 126.88,-153.75 124.16,-150.33 119.94,-148.37"/>
<polygon fill="red" stroke="red" points="120.72,-144.95 110.26,-146.64 119.49,-151.84 120.72,-144.95"/>
<text xml:space="preserve" text-anchor="middle" x="143.38" y="-153.57" font-family="Times,serif" font-size="14.00"> retry </text>
</g>
<!-- Succeeded -->
<g id="node4" class="node">
<title>Succeeded</title>
<path fill="azure" stroke="none" d="M64,-67C64,-67 12,-67 12,-67 6,-67 0,-61 0,-55 0,-55 0,-12 0,-12 0,-6 6,0 12,0 12,0 64,0 64,0 70,0 76,-6 76,-12 76,-12 76,-55 76,-55 76,-61 70,-67 64,-67"/>
<text xml:space="preserve" text-anchor="start" x="8" y="-46.7" font-family="Times,serif" font-weight="bold" font-size="14.00">Succeeded</text>
<text xml:space="preserve" text-anchor="start" x="8" y="-21.5" font-family="Times,serif" font-size="10.00">status()</text>
<text xml:space="preserve" text-anchor="start" x="9.12" y="-10.25" font-family="Times,serif" font-size="10.00"> &#160;&#160;&#160;&#160;&#160;&#160;&#160;&#160;&#160;&#160;&#160;</text>
<polygon fill="#00688b" stroke="#00688b" points="0,-36.5 0,-36.5 76,-36.5 76,-36.5 0,-36.5"/>
<path fill="none" stroke="#00688b" d="M12,0C12,0 64,0 64,0 70,0 76,-6 76,-12 76,-12 76,-55 76,-55 76,-61 70,-67 64,-67 64,-67 12,-67 12,-67 6,-67 0,-61 0,-55 0,-55 0,-12 0,-12 0,-6 6,0 12,0"/>
</g>
<!-- Trying&#45;&gt;Succeeded -->
<g id="edge3" class="edge">
<title>Trying&#45;&gt;Succeeded</title>
<path fill="none" stroke="red" d="M53.2,-127.58C47.42,-119.65 42.14,-110.71 39,-101.5 36.5,-94.18 35.23,-86.14 34.73,-78.24"/>
<polygon fill="red" stroke="red" points="38.23,-78.32 34.51,-68.4 31.23,-78.48 38.23,-78.32"/>
<text xml:space="preserve" text-anchor="middle" x="70.5" y="-88.2" font-family="Times,serif" font-size="14.00"> succeeded </text>
</g>
<!-- Failed -->
<g id="node5" class="node">
<title>Failed</title>
<path fill="azure" stroke="none" d="M139,-67C139,-67 109,-67 109,-67 103,-67 97,-61 97,-55 97,-55 97,-12 97,-12 97,-6 103,0 109,0 109,0 139,0 139,0 145,0 151,-6 151,-12 151,-12 151,-55 151,-55 151,-61 145,-67 139,-67"/>
<text xml:space="preserve" text-anchor="start" x="106" y="-46.7" font-family="Times,serif" font-weight="bold" font-size="14.00">Failed</text>
<text xml:space="preserve" text-anchor="start" x="106" y="-21.5" font-family="Times,serif" font-size="10.00">status()</text>
<text xml:space="preserve" text-anchor="start" x="107.12" y="-10.25" font-family="Times,serif" font-size="10.00"> &#160;&#160;&#160;&#160;&#160;&#160;&#160;&#160;&#160;&#160;&#160;</text>
<polygon fill="#00688b" stroke="#00688b" points="98,-36.5 98,-36.5 150,-36.5 150,-36.5 98,-36.5"/>
<path fill="none" stroke="#00688b" d="M110,0C110,0 138,0 138,0 144,0 150,-6 150,-12 150,-12 150,-55 150,-55 150,-61 144,-67 138,-67 138,-67 110,-67 110,-67 104,-67 98,-61 98,-55 98,-55 98,-12 98,-12 98,-6 104,0 110,0"/>
</g>
<!-- Trying&#45;&gt;Failed -->
<g id="edge4" class="edge">
<title>Trying&#45;&gt;Failed</title>
<path fill="none" stroke="red" d="M95.44,-119.66C97.68,-113.6 99.93,-107.39 102,-101.5 104.67,-93.88 107.43,-85.75 110.05,-77.86"/>
<polygon fill="red" stroke="red" points="113.36,-79 113.16,-68.4 106.71,-76.81 113.36,-79"/>
<text xml:space="preserve" text-anchor="middle" x="142.15" y="-88.2" font-family="Times,serif" font-size="14.00"> max retries </text>
</g>
</g>
</svg>
