<?xml version="1.0" encoding="UTF-8" standalone="no"?>
<!DOCTYPE svg PUBLIC "-//W3C//DTD SVG 1.1//EN"
 "http://www.w3.org/Graphics/SVG/1.1/DTD/svg11.dtd">
<!-- Generated by graphviz version 14.1.5 (20260411.2331)
 -->
<!-- Title: Retrier Pages: 1 -->
<svg width="242pt" height="343pt"
 viewBox="0.00 0.00 242.00 343.00" xmlns="http://www.w3.org/2000/svg" xmlns:xlink="http://www.w3.org/1999/xlink">
<g id="graph0" class="graph" transform="scale(1 1) rotate(0) translate(4 338.9)">
<title>Retrier</title>
<polygon fill="white" stroke="none" points="-4,4 -4,-338.9 238.25,-338.9 238.25,4 -4,4"/>
<!-- Entry -->
<g id="node1" class="node">
<title>Entry</title>
<ellipse fill="black" stroke="#00688b" cx="117.12" cy="-327.7" rx="7.2" ry="7.2"/>
</g>
<!-- Idle -->
<g id="node2" class="node">
<title>Idle</title>
<path fill="azure" stroke="none" d="M156.25,-283.5C156.25,-283.5 78,-283.5 78,-283.5 72,-283.5 66,-277.5 66,-271.5 66,-271.5 66,-239.75 66,-239.75 66,-233.75 72,-227.75 78,-227.75 78,-227.75 156.25,-227.75 156.25,-227.75 162.25,-227.75 168.25,-233.75 168.25,-239.75 168.25,-239.75 168.25,-271.5 168.25,-271.5 168.25,-277.5 162.25,-283.5 156.25,-283.5"/>
<text xml:space="preserve" text-anchor="start" x="105.88" y="-263.2" font-family="Times,serif" font-weight="bold" font-size="14.00">Idle</text>
<text xml:space="preserve" text-anchor="start" x="74" y="-238" font-family="Times,serif" font-size="10.00"> &#160;&#160;&#160;&#160;&#160;&#160;&#160;&#160;&#160;&#160;&#160;&#160;&#160;&#160;&#160;start() &#160;&#160;&#160;&#160;&#160;&#160;&#160;&#160;&#160;&#160;&#160;</text>
<polygon fill="#00688b" stroke="#00688b" points="66,-253 66,-253 168.25,-253 168.25,-253 66,-253"/>
<path fill="none" stroke="#00688b" d="M78,-227.75C78,-227.75 156.25,-227.75 156.25,-227.75 162.25,-227.75 168.25,-233.75 168.25,-239.75 168.25,-239.75 168.25,-271.5 168.25,-271.5 168.25,-277.5 162.25,-283.5 156.25,-283.5 156.25,-283.5 78,-283.5 78,-283.5 72,-283.5 66,-277.5 66,-271.5 66,-271.5 66,-239.75 66,-239.75 66,-233.75 72,-227.75 78,-227.75"/>
</g>
<!-- Entry&#45;&gt;Idle -->
<g id="edge1" class="edge">
<title>Entry&#45;&gt;Idle</title>
<path fill="none" stroke="red" d="M117.12,-320.23C117.12,-314.13 117.12,-304.44 117.12,-294.45"/>
<polygon fill="red" stroke="red" points="120.63,-294.73 117.13,-284.73 113.63,-294.73 120.63,-294.73"/>
</g>
<!-- Trying -->
<g id="node3" class="node">
<title>Trying</title>
<path fill="azure" stroke="none" d="M159.25,-175.25C159.25,-175.25 75,-175.25 75,-175.25 69,-175.25 63,-169.25 63,-163.25 63,-163.25 63,-120.25 63,-120.25 63,-114.25 69,-108.25 75,-108.25 75,-108.25 159.25,-108.25 159.25,-108.25 165.25,-108.25 171.25,-114.25 171.25,-120.25 171.25,-120.25 171.25,-163.25 171.25,-163.25 171.25,-169.25 165.25,-175.25 159.25,-175.25"/>
<text xml:space="preserve" text-anchor="start" x="97.25" y="-154.95" font-family="Times,serif" font-weight="bold" font-size="14.00">Trying</text>
<text xml:space="preserve" text-anchor="start" x="76.25" y="-129.75" font-family="Times,serif" font-size="10.00"> &#160;&#160;&#160;&#160;&#160;&#160;&#160;&#160;&#160;&#160;&#160;&#160;&#160;&#160;&#160;$&gt;() [enter]</text>
<text xml:space="preserve" text-anchor="start" x="71" y="-118.5" font-family="Times,serif" font-size="10.00"> &#160;&#160;&#160;&#160;&#160;&#160;&#160;&#160;&#160;&#160;&#160;&#160;&#160;&#160;&#160;status() &#160;&#160;&#160;&#160;&#160;&#160;&#160;&#160;&#160;&#160;&#160;</text>
<polygon fill="#00688b" stroke="#00688b" points="63,-144.75 63,-144.75 171.25,-144.75 171.25,-144.75 63,-144.75"/>
<path fill="none" stroke="#00688b" d="M75,-108.25C75,-108.25 159.25,-108.25 159.25,-108.25 165.25,-108.25 171.25,-114.25 171.25,-120.25 171.25,-120.25 171.25,-163.25 171.25,-163.25 171.25,-169.25 165.25,-175.25 159.25,-175.25 159.25,-175.25 75,-175.25 75,-175.25 69,-175.25 63,-169.25 63,-163.25 63,-163.25 63,-120.25 63,-120.25 63,-114.25 69,-108.25 75,-108.25"/>
</g>
<!-- Idle&#45;&gt;Trying -->
<g id="edge2" class="edge">
<title>Idle&#45;&gt;Trying</title>
<path fill="none" stroke="red" d="M117.12,-227.83C117.12,-215.4 117.12,-200.32 117.12,-186.32"/>
<polygon fill="red" stroke="red" points="120.63,-186.42 117.13,-176.42 113.63,-186.42 120.63,-186.42"/>
<text xml:space="preserve" text-anchor="middle" x="132.5" y="-196.45" font-family="Times,serif" font-size="14.00"> start </text>
</g>
<!-- Trying&#45;&gt;Trying -->
<g id="edge5" class="edge">
<title>Trying&#45;&gt;Trying</title>
<path fill="none" stroke="red" d="M171.23,-152.45C181.77,-151.21 189.25,-147.64 189.25,-141.75 189.25,-138.25 186.61,-135.57 182.26,-133.71"/>
<polygon fill="red" stroke="red" points="183.24,-130.35 172.7,-131.4 181.6,-137.15 183.24,-130.35"/>
<text xml:space="preserve" text-anchor="middle" x="200.5" y="-136.7" font-family="Times,serif" font-size="14.00"> $&gt; </text>
</g>
<!-- Succeeded -->
<g id="node4" class="node">
<title>Succeeded</title>
<path fill="azure" stroke="none" d="M96.25,-55.75C96.25,-55.75 12,-55.75 12,-55.75 6,-55.75 0,-49.75 0,-43.75 0,-43.75 0,-12 0,-12 0,-6 6,0 12,0 12,0 96.25,0 96.25,0 102.25,0 108.25,-6 108.25,-12 108.25,-12 108.25,-43.75 108.25,-43.75 108.25,-49.75 102.25,-55.75 96.25,-55.75"/>
<text xml:space="preserve" text-anchor="start" x="24.12" y="-35.45" font-family="Times,serif" font-weight="bold" font-size="14.00">Succeeded</text>
<text xml:space="preserve" text-anchor="start" x="8" y="-10.25" font-family="Times,serif" font-size="10.00"> &#160;&#160;&#160;&#160;&#160;&#160;&#160;&#160;&#160;&#160;&#160;&#160;&#160;&#160;&#160;status() &#160;&#160;&#160;&#160;&#160;&#160;&#160;&#160;&#160;&#160;&#160;</text>
<polygon fill="#00688b" stroke="#00688b" points="0,-25.25 0,-25.25 108.25,-25.25 108.25,-25.25 0,-25.25"/>
<path fill="none" stroke="#00688b" d="M12,0C12,0 96.25,0 96.25,0 102.25,0 108.25,-6 108.25,-12 108.25,-12 108.25,-43.75 108.25,-43.75 108.25,-49.75 102.25,-55.75 96.25,-55.75 96.25,-55.75 12,-55.75 12,-55.75 6,-55.75 0,-49.75 0,-43.75 0,-43.75 0,-12 0,-12 0,-6 6,0 12,0"/>
</g>
<!-- Trying&#45;&gt;Succeeded -->
<g id="edge3" class="edge">
<title>Trying&#45;&gt;Succeeded</title>
<path fill="none" stroke="red" d="M98.9,-108.39C91.3,-94.89 82.43,-79.14 74.61,-65.24"/>
<polygon fill="red" stroke="red" points="77.82,-63.82 69.87,-56.83 71.72,-67.26 77.82,-63.82"/>
<text xml:space="preserve" text-anchor="middle" x="98.76" y="-76.95" font-family="Times,serif" font-size="14.00"> $&gt; </text>
</g>
<!-- Failed -->
<g id="node5" class="node">
<title>Failed</title>
<path fill="azure" stroke="none" d="M222.25,-55.75C222.25,-55.75 138,-55.75 138,-55.75 132,-55.75 126,-49.75 126,-43.75 126,-43.75 126,-12 126,-12 126,-6 132,0 138,0 138,0 222.25,0 222.25,0 228.25,0 234.25,-6 234.25,-12 234.25,-12 234.25,-43.75 234.25,-43.75 234.25,-49.75 228.25,-55.75 222.25,-55.75"/>
<text xml:space="preserve" text-anchor="start" x="162.12" y="-35.45" font-family="Times,serif" font-weight="bold" font-size="14.00">Failed</text>
<text xml:space="preserve" text-anchor="start" x="134" y="-10.25" font-family="Times,serif" font-size="10.00"> &#160;&#160;&#160;&#160;&#160;&#160;&#160;&#160;&#160;&#160;&#160;&#160;&#160;&#160;&#160;status() &#160;&#160;&#160;&#160;&#160;&#160;&#160;&#160;&#160;&#160;&#160;</text>
<polygon fill="#00688b" stroke="#00688b" points="126,-25.25 126,-25.25 234.25,-25.25 234.25,-25.25 126,-25.25"/>
<path fill="none" stroke="#00688b" d="M138,0C138,0 222.25,0 222.25,0 228.25,0 234.25,-6 234.25,-12 234.25,-12 234.25,-43.75 234.25,-43.75 234.25,-49.75 228.25,-55.75 222.25,-55.75 222.25,-55.75 138,-55.75 138,-55.75 132,-55.75 126,-49.75 126,-43.75 126,-43.75 126,-12 126,-12 126,-6 132,0 138,0"/>
</g>
<!-- Trying&#45;&gt;Failed -->
<g id="edge4" class="edge">
<title>Trying&#45;&gt;Failed</title>
<path fill="none" stroke="red" d="M135.35,-108.39C142.95,-94.89 151.82,-79.14 159.64,-65.24"/>
<polygon fill="red" stroke="red" points="162.53,-67.26 164.38,-56.83 156.43,-63.82 162.53,-67.26"/>
<text xml:space="preserve" text-anchor="middle" x="165.52" y="-76.95" font-family="Times,serif" font-size="14.00"> $&gt; </text>
</g>
</g>
</svg>
