<?xml version="1.0" encoding="UTF-8" standalone="no"?>
<!DOCTYPE svg PUBLIC "-//W3C//DTD SVG 1.1//EN"
 "http://www.w3.org/Graphics/SVG/1.1/DTD/svg11.dtd">
<!-- Generated by graphviz version 14.1.5 (20260411.2331)
 -->
<!-- Title: Retrier Pages: 1 -->
<svg width="174pt" height="343pt"
 viewBox="0.00 0.00 174.00 343.00" xmlns="http://www.w3.org/2000/svg" xmlns:xlink="http://www.w3.org/1999/xlink">
<g id="graph0" class="graph" transform="scale(1 1) rotate(0) translate(4 338.9)">
<title>Retrier</title>
<polygon fill="white" stroke="none" points="-4,4 -4,-338.9 170.12,-338.9 170.12,4 -4,4"/>
<!-- Entry -->
<g id="node1" class="node">
<title>Entry</title>
<ellipse fill="black" stroke="#00688b" cx="84" cy="-327.7" rx="7.2" ry="7.2"/>
</g>
<!-- Idle -->
<g id="node2" class="node">
<title>Idle</title>
<path fill="azure" stroke="none" d="M105.12,-283.5C105.12,-283.5 62.88,-283.5 62.88,-283.5 56.88,-283.5 50.88,-277.5 50.88,-271.5 50.88,-271.5 50.88,-239.75 50.88,-239.75 50.88,-233.75 56.88,-227.75 62.88,-227.75 62.88,-227.75 105.12,-227.75 105.12,-227.75 111.12,-227.75 117.12,-233.75 117.12,-239.75 117.12,-239.75 117.12,-271.5 117.12,-271.5 117.12,-277.5 111.12,-283.5 105.12,-283.5"/>
<text xml:space="preserve" text-anchor="start" x="72.75" y="-263.2" font-family="Times,serif" font-weight="bold" font-size="14.00">Idle</text>
<text xml:space="preserve" text-anchor="start" x="58.88" y="-226.84" font-family="Times,serif" font-size="10.00">start() &#160;&#160;&#160;&#160;&#160;&#160;&#160;&#160;&#160;&#160;&#160;</text>
<polygon fill="#00688b" stroke="#00688b" points="50.88,-253 50.88,-253 117.12,-253 117.12,-253 50.88,-253"/>
<path fill="none" stroke="#00688b" d="M62.88,-227.75C62.88,-227.75 105.12,-227.75 105.12,-227.75 111.12,-227.75 117.12,-233.75 117.12,-239.75 117.12,-239.75 117.12,-271.5 117.12,-271.5 117.12,-277.5 111.12,-283.5 105.12,-283.5 105.12,-283.5 62.88,-283.5 62.88,-283.5 56.88,-283.5 50.88,-277.5 50.88,-271.5 50.88,-271.5 50.88,-239.75 50.88,-239.75 50.88,-233.75 56.88,-227.75 62.88,-227.75"/>
</g>
<!-- Entry&#45;&gt;Idle -->
<g id="edge1" class="edge">
<title>Entry&#45;&gt;Idle</title>
<path fill="none" stroke="red" d="M84,-320.23C84,-314.13 84,-304.44 84,-294.45"/>
<polygon fill="red" stroke="red" points="87.5,-294.73 84,-284.73 80.5,-294.73 87.5,-294.73"/>
</g>
<!-- Trying -->
<g id="node3" class="node">
<title>Trying</title>
<path fill="azure" stroke="none" d="M108.12,-175.25C108.12,-175.25 59.88,-175.25 59.88,-175.25 53.88,-175.25 47.88,-169.25 47.88,-163.25 47.88,-163.25 47.88,-120.25 47.88,-120.25 47.88,-114.25 53.88,-108.25 59.88,-108.25 59.88,-108.25 108.12,-108.25 108.12,-108.25 114.12,-108.25 120.12,-114.25 120.12,-120.25 120.12,-120.25 120.12,-163.25 120.12,-163.25 120.12,-169.25 114.12,-175.25 108.12,-175.25"/>
<text xml:space="preserve" text-anchor="start" x="64.12" y="-154.95" font-family="Times,serif" font-weight="bold" font-size="14.00">Trying</text>
<text xml:space="preserve" text-anchor="start" x="55.88" y="-118.59" font-family="Times,serif" font-size="10.00">$&gt;() [enter]</text>
<text xml:space="preserve" text-anchor="start" x="55.88" y="-107.34" font-family="Times,serif" font-size="10.00">status() &#160;&#160;&#160;&#160;&#160;&#160;&#160;&#160;&#160;&#160;&#160;</text>
<polygon fill="#00688b" stroke="#00688b" points="47.88,-144.75 47.88,-144.75 120.12,-144.75 120.12,-144.75 47.88,-144.75"/>
<path fill="none" stroke="#00688b" d="M59.88,-108.25C59.88,-108.25 108.12,-108.25 108.12,-108.25 114.12,-108.25 120.12,-114.25 120.12,-120.25 120.12,-120.25 120.12,-163.25 120.12,-163.25 120.12,-169.25 114.12,-175.25 108.12,-175.25 108.12,-175.25 59.88,-175.25 59.88,-175.25 53.88,-175.25 47.88,-169.25 47.88,-163.25 47.88,-163.25 47.88,-120.25 47.88,-120.25 47.88,-114.25 53.88,-108.25 59.88,-108.25"/>
</g>
<!-- Idle&#45;&gt;Trying -->
<g id="edge2" class="edge">
<title>Idle&#45;&gt;Trying</title>
<path fill="none" stroke="red" d="M84,-227.83C84,-215.4 84,-200.32 84,-186.32"/>
<polygon fill="red" stroke="red" points="87.5,-186.42 84,-176.42 80.5,-186.42 87.5,-186.42"/>
<text xml:space="preserve" text-anchor="middle" x="99.38" y="-196.45" font-family="Times,serif" font-size="14.00"> start </text>
</g>
<!-- Trying&#45;&gt;Trying -->
<g id="edge5" class="edge">
<title>Trying&#45;&gt;Trying</title>
<path fill="none" stroke="red" d="M119.91,-152.91C130.2,-152.47 138.12,-148.75 138.12,-141.75 138.12,-137.59 135.33,-134.59 130.91,-132.75"/>
<polygon fill="red" stroke="red" points="131.89,-129.37 121.4,-130.88 130.54,-136.24 131.89,-129.37"/>
<text xml:space="preserve" text-anchor="middle" x="149.38" y="-136.7" font-family="Times,serif" font-size="14.00"> $&gt; </text>
</g>
<!-- Succeeded -->
<g id="node4" class="node">
<title>Succeeded</title>
<path fill="azure" stroke="none" d="M64,-55.75C64,-55.75 12,-55.75 12,-55.75 6,-55.75 0,-49.75 0,-43.75 0,-43.75 0,-12 0,-12 0,-6 6,0 12,0 12,0 64,0 64,0 70,0 76,-6 76,-12 76,-12 76,-43.75 76,-43.75 76,-49.75 70,-55.75 64,-55.75"/>
<text xml:space="preserve" text-anchor="start" x="8" y="-35.45" font-family="Times,serif" font-weight="bold" font-size="14.00">Succeeded</text>
<text xml:space="preserve" text-anchor="start" x="8" y="0.91" font-family="Times,serif" font-size="10.00">status() &#160;&#160;&#160;&#160;&#160;&#160;&#160;&#160;&#160;&#160;&#160;</text>
<polygon fill="#00688b" stroke="#00688b" points="0,-25.25 0,-25.25 76,-25.25 76,-25.25 0,-25.25"/>
<path fill="none" stroke="#00688b" d="M12,0C12,0 64,0 64,0 70,0 76,-6 76,-12 76,-12 76,-43.75 76,-43.75 76,-49.75 70,-55.75 64,-55.75 64,-55.75 12,-55.75 12,-55.75 6,-55.75 0,-49.75 0,-43.75 0,-43.75 0,-12 0,-12 0,-6 6,0 12,0"/>
</g>
<!-- Trying&#45;&gt;Succeeded -->
<g id="edge3" class="edge">
<title>Trying&#45;&gt;Succeeded</title>
<path fill="none" stroke="red" d="M70.69,-108.39C65.25,-95.15 58.92,-79.76 53.29,-66.06"/>
<polygon fill="red" stroke="red" points="56.57,-64.83 49.53,-56.91 50.09,-67.49 56.57,-64.83"/>
<text xml:space="preserve" text-anchor="middle" x="73.63" y="-76.95" font-family="Times,serif" font-size="14.00"> $&gt; </text>
</g>
<!-- Failed -->
<g id="node5" class="node">
<title>Failed</title>
<path fill="azure" stroke="none" d="M154.12,-55.75C154.12,-55.75 105.88,-55.75 105.88,-55.75 99.88,-55.75 93.88,-49.75 93.88,-43.75 93.88,-43.75 93.88,-12 93.88,-12 93.88,-6 99.88,0 105.88,0 105.88,0 154.12,0 154.12,0 160.12,0 166.12,-6 166.12,-12 166.12,-12 166.12,-43.75 166.12,-43.75 166.12,-49.75 160.12,-55.75 154.12,-55.75"/>
<text xml:space="preserve" text-anchor="start" x="112" y="-35.45" font-family="Times,serif" font-weight="bold" font-size="14.00">Failed</text>
<text xml:space="preserve" text-anchor="start" x="101.88" y="0.91" font-family="Times,serif" font-size="10.00">status() &#160;&#160;&#160;&#160;&#160;&#160;&#160;&#160;&#160;&#160;&#160;</text>
<polygon fill="#00688b" stroke="#00688b" points="93.88,-25.25 93.88,-25.25 166.12,-25.25 166.12,-25.25 93.88,-25.25"/>
<path fill="none" stroke="#00688b" d="M105.88,0C105.88,0 154.12,0 154.12,0 160.12,0 166.12,-6 166.12,-12 166.12,-12 166.12,-43.75 166.12,-43.75 166.12,-49.75 160.12,-55.75 154.12,-55.75 154.12,-55.75 105.88,-55.75 105.88,-55.75 99.88,-55.75 93.88,-49.75 93.88,-43.75 93.88,-43.75 93.88,-12 93.88,-12 93.88,-6 99.88,0 105.88,0"/>
</g>
<!-- Trying&#45;&gt;Failed -->
<g id="edge4" class="edge">
<title>Trying&#45;&gt;Failed</title>
<path fill="none" stroke="red" d="M97.31,-108.39C102.75,-95.15 109.08,-79.76 114.71,-66.06"/>
<polygon fill="red" stroke="red" points="117.91,-67.49 118.47,-56.91 111.43,-64.83 117.91,-67.49"/>
<text xml:space="preserve" text-anchor="middle" x="122.37" y="-76.95" font-family="Times,serif" font-size="14.00"> $&gt; </text>
</g>
</g>
</svg>
