<?xml version="1.0" encoding="UTF-8" standalone="no"?>
<!DOCTYPE svg PUBLIC "-//W3C//DTD SVG 1.1//EN"
 "http://www.w3.org/Graphics/SVG/1.1/DTD/svg11.dtd">
<!-- Generated by graphviz version 14.1.5 (20260411.2331)
 -->
<!-- Title: Editor Pages: 1 -->
<svg width="214pt" height="378pt"
 viewBox="0.00 0.00 214.00 378.00" xmlns="http://www.w3.org/2000/svg" xmlns:xlink="http://www.w3.org/1999/xlink">
<g id="graph0" class="graph" transform="scale(1 1) rotate(0) translate(4 373.98)">
<title>Editor</title>
<polygon fill="white" stroke="none" points="-4,4 -4,-373.98 209.75,-373.98 209.75,4 -4,4"/>
<!-- Entry -->
<g id="node1" class="node">
<title>Entry</title>
<ellipse fill="black" stroke="#00688b" cx="63.5" cy="-362.78" rx="7.2" ry="7.2"/>
</g>
<!-- Init -->
<g id="node2" class="node">
<title>Init</title>
<path fill="azure" stroke="none" d="M115,-318.58C115,-318.58 12,-318.58 12,-318.58 6,-318.58 0,-312.58 0,-306.58 0,-306.58 0,-252.33 0,-252.33 0,-246.33 6,-240.33 12,-240.33 12,-240.33 115,-240.33 115,-240.33 121,-240.33 127,-246.33 127,-252.33 127,-252.33 127,-306.58 127,-306.58 127,-312.58 121,-318.58 115,-318.58"/>
<text xml:space="preserve" text-anchor="start" x="53" y="-298.28" font-family="Times,serif" font-weight="bold" font-size="14.00">Init</text>
<text xml:space="preserve" text-anchor="start" x="12.5" y="-273.08" font-family="Times,serif" font-size="10.00"> &#160;&#160;&#160;&#160;&#160;&#160;&#160;&#160;&#160;&#160;&#160;&#160;&#160;&#160;&#160;type_char(c: str)</text>
<text xml:space="preserve" text-anchor="start" x="32" y="-261.83" font-family="Times,serif" font-size="10.00"> &#160;&#160;&#160;&#160;&#160;&#160;&#160;&#160;&#160;&#160;&#160;&#160;&#160;&#160;&#160;undo()</text>
<text xml:space="preserve" text-anchor="start" x="8" y="-250.58" font-family="Times,serif" font-size="10.00"> &#160;&#160;&#160;&#160;&#160;&#160;&#160;&#160;&#160;&#160;&#160;&#160;&#160;&#160;&#160;get_buffer() &#160;&#160;&#160;&#160;&#160;&#160;&#160;&#160;&#160;&#160;&#160;</text>
<polygon fill="#00688b" stroke="#00688b" points="0,-288.08 0,-288.08 127,-288.08 127,-288.08 0,-288.08"/>
<path fill="none" stroke="#00688b" d="M12,-240.33C12,-240.33 115,-240.33 115,-240.33 121,-240.33 127,-246.33 127,-252.33 127,-252.33 127,-306.58 127,-306.58 127,-312.58 121,-318.58 115,-318.58 115,-318.58 12,-318.58 12,-318.58 6,-318.58 0,-312.58 0,-306.58 0,-306.58 0,-252.33 0,-252.33 0,-246.33 6,-240.33 12,-240.33"/>
</g>
<!-- Entry&#45;&gt;Init -->
<g id="edge1" class="edge">
<title>Entry&#45;&gt;Init</title>
<path fill="none" stroke="red" d="M63.5,-355.13C63.5,-349.11 63.5,-339.66 63.5,-329.47"/>
<polygon fill="red" stroke="red" points="67,-329.77 63.5,-319.77 60,-329.77 67,-329.77"/>
</g>
<!-- Editing -->
<g id="node3" class="node">
<title>Editing</title>
<path fill="azure" stroke="none" d="M115,-187.83C115,-187.83 12,-187.83 12,-187.83 6,-187.83 0,-181.83 0,-175.83 0,-175.83 0,-87.83 0,-87.83 0,-81.83 6,-75.83 12,-75.83 12,-75.83 115,-75.83 115,-75.83 121,-75.83 127,-81.83 127,-87.83 127,-87.83 127,-175.83 127,-175.83 127,-181.83 121,-187.83 115,-187.83"/>
<text xml:space="preserve" text-anchor="start" x="42.12" y="-167.53" font-family="Times,serif" font-weight="bold" font-size="14.00">Editing</text>
<text xml:space="preserve" text-anchor="start" x="22.62" y="-142.33" font-family="Times,serif" font-size="10.00"> &#160;&#160;&#160;&#160;&#160;&#160;&#160;&#160;&#160;&#160;&#160;&#160;&#160;&#160;&#160;$&gt;() [enter]</text>
<text xml:space="preserve" text-anchor="start" x="12.5" y="-131.08" font-family="Times,serif" font-size="10.00"> &#160;&#160;&#160;&#160;&#160;&#160;&#160;&#160;&#160;&#160;&#160;&#160;&#160;&#160;&#160;type_char(c: str)</text>
<text xml:space="preserve" text-anchor="start" x="32" y="-119.83" font-family="Times,serif" font-size="10.00"> &#160;&#160;&#160;&#160;&#160;&#160;&#160;&#160;&#160;&#160;&#160;&#160;&#160;&#160;&#160;undo()</text>
<text xml:space="preserve" text-anchor="start" x="8" y="-108.58" font-family="Times,serif" font-size="10.00"> &#160;&#160;&#160;&#160;&#160;&#160;&#160;&#160;&#160;&#160;&#160;&#160;&#160;&#160;&#160;get_buffer() &#160;&#160;&#160;&#160;&#160;&#160;&#160;&#160;&#160;&#160;&#160;</text>
<text xml:space="preserve" text-anchor="start" x="8" y="-86.08" font-family="Times,serif" font-size="9.00" fill="#666666"> &#160;&#160;&#160;&#160;&#160;&#160;&#160;&#160;&#160;&#160;&#160;&#160;&#160;&#160;&#160;buffer: str &#160;&#160;&#160;&#160;&#160;&#160;&#160;&#160;&#160;&#160;&#160;</text>
<polygon fill="#00688b" stroke="#00688b" points="0,-157.33 0,-157.33 127,-157.33 127,-157.33 0,-157.33"/>
<polygon fill="#00688b" stroke="#00688b" points="0,-100.33 0,-100.33 127,-100.33 127,-100.33 0,-100.33"/>
<path fill="none" stroke="#00688b" d="M12,-75.83C12,-75.83 115,-75.83 115,-75.83 121,-75.83 127,-81.83 127,-87.83 127,-87.83 127,-175.83 127,-175.83 127,-181.83 121,-187.83 115,-187.83 115,-187.83 12,-187.83 12,-187.83 6,-187.83 0,-181.83 0,-175.83 0,-175.83 0,-87.83 0,-87.83 0,-81.83 6,-75.83 12,-75.83"/>
</g>
<!-- Init&#45;&gt;Editing -->
<g id="edge2" class="edge">
<title>Init&#45;&gt;Editing</title>
<path fill="none" stroke="red" d="M63.5,-240.58C63.5,-227.88 63.5,-213.32 63.5,-199.1"/>
<polygon fill="red" stroke="red" points="67,-199.32 63.5,-189.32 60,-199.32 67,-199.32"/>
<text xml:space="preserve" text-anchor="middle" x="93.88" y="-209.03" font-family="Times,serif" font-size="14.00"> type_char </text>
</g>
<!-- Editing&#45;&gt;Editing -->
<g id="edge3" class="edge">
<title>Editing&#45;&gt;Editing</title>
<path fill="none" stroke="red" d="M126.72,-146.23C137.52,-144.26 145,-139.47 145,-131.83 145,-127.18 142.22,-123.59 137.61,-121.04"/>
<polygon fill="red" stroke="red" points="138.75,-117.73 128.16,-117.91 136.55,-124.38 138.75,-117.73"/>
<text xml:space="preserve" text-anchor="middle" x="175.38" y="-126.78" font-family="Times,serif" font-size="14.00"> type_char </text>
</g>
<!-- Stack -->
<g id="node4" class="node">
<title>Stack</title>
<ellipse fill="azure" stroke="#00688b" cx="63.5" cy="-11.67" rx="11.67" ry="11.67"/>
<text xml:space="preserve" text-anchor="middle" x="63.5" y="-6.62" font-family="Times,serif" font-size="14.00">H*</text>
</g>
<!-- Editing&#45;&gt;Stack -->
<g id="edge4" class="edge">
<title>Editing&#45;&gt;Stack</title>
<path fill="none" stroke="red" d="M63.5,-75.9C63.5,-61.38 63.5,-46.53 63.5,-34.87"/>
<polygon fill="red" stroke="red" points="67,-35.15 63.5,-25.15 60,-35.15 67,-35.15"/>
<text xml:space="preserve" text-anchor="middle" x="80.75" y="-44.53" font-family="Times,serif" font-size="14.00"> undo </text>
</g>
</g>
</svg>
