<?xml version="1.0" encoding="UTF-8" standalone="no"?>
<!DOCTYPE svg PUBLIC "-//W3C//DTD SVG 1.1//EN"
 "http://www.w3.org/Graphics/SVG/1.1/DTD/svg11.dtd">
<!-- Generated by graphviz version 14.1.5 (20260411.2331)
 -->
<!-- Title: Editor Pages: 1 -->
<svg width="178pt" height="378pt"
 viewBox="0.00 0.00 178.00 378.00" xmlns="http://www.w3.org/2000/svg" xmlns:xlink="http://www.w3.org/1999/xlink">
<g id="graph0" class="graph" transform="scale(1 1) rotate(0) translate(4 373.98)">
<title>Editor</title>
<polygon fill="white" stroke="none" points="-4,4 -4,-373.98 173.75,-373.98 173.75,4 -4,4"/>
<!-- Entry -->
<g id="node1" class="node">
<title>Entry</title>
<ellipse fill="black" stroke="#00688b" cx="45.5" cy="-362.78" rx="7.2" ry="7.2"/>
</g>
<!-- Init -->
<g id="node2" class="node">
<title>Init</title>
<path fill="azure" stroke="none" d="M79,-318.58C79,-318.58 12,-318.58 12,-318.58 6,-318.58 0,-312.58 0,-306.58 0,-306.58 0,-252.33 0,-252.33 0,-246.33 6,-240.33 12,-240.33 12,-240.33 79,-240.33 79,-240.33 85,-240.33 91,-246.33 91,-252.33 91,-252.33 91,-306.58 91,-306.58 91,-312.58 85,-318.58 79,-318.58"/>
<text xml:space="preserve" text-anchor="start" x="35" y="-298.28" font-family="Times,serif" font-weight="bold" font-size="14.00">Init</text>
<text xml:space="preserve" text-anchor="start" x="8" y="-261.92" font-family="Times,serif" font-size="10.00">type_char(c: str)</text>
<text xml:space="preserve" text-anchor="start" x="8" y="-250.67" font-family="Times,serif" font-size="10.00">undo()</text>
<text xml:space="preserve" text-anchor="start" x="8" y="-239.42" font-family="Times,serif" font-size="10.00">get_buffer() &#160;&#160;&#160;&#160;&#160;&#160;&#160;&#160;&#160;&#160;&#160;</text>
<polygon fill="#00688b" stroke="#00688b" points="0,-288.08 0,-288.08 91,-288.08 91,-288.08 0,-288.08"/>
<path fill="none" stroke="#00688b" d="M12,-240.33C12,-240.33 79,-240.33 79,-240.33 85,-240.33 91,-246.33 91,-252.33 91,-252.33 91,-306.58 91,-306.58 91,-312.58 85,-318.58 79,-318.58 79,-318.58 12,-318.58 12,-318.58 6,-318.58 0,-312.58 0,-306.58 0,-306.58 0,-252.33 0,-252.33 0,-246.33 6,-240.33 12,-240.33"/>
</g>
<!-- Entry&#45;&gt;Init -->
<g id="edge1" class="edge">
<title>Entry&#45;&gt;Init</title>
<path fill="none" stroke="red" d="M45.5,-355.13C45.5,-349.11 45.5,-339.66 45.5,-329.47"/>
<polygon fill="red" stroke="red" points="49,-329.77 45.5,-319.77 42,-329.77 49,-329.77"/>
</g>
<!-- Editing -->
<g id="node3" class="node">
<title>Editing</title>
<path fill="azure" stroke="none" d="M79,-187.83C79,-187.83 12,-187.83 12,-187.83 6,-187.83 0,-181.83 0,-175.83 0,-175.83 0,-87.83 0,-87.83 0,-81.83 6,-75.83 12,-75.83 12,-75.83 79,-75.83 79,-75.83 85,-75.83 91,-81.83 91,-87.83 91,-87.83 91,-175.83 91,-175.83 91,-181.83 85,-187.83 79,-187.83"/>
<text xml:space="preserve" text-anchor="start" x="24.12" y="-167.53" font-family="Times,serif" font-weight="bold" font-size="14.00">Editing</text>
<text xml:space="preserve" text-anchor="start" x="8" y="-131.17" font-family="Times,serif" font-size="10.00">$&gt;() [enter]</text>
<text xml:space="preserve" text-anchor="start" x="8" y="-119.92" font-family="Times,serif" font-size="10.00">type_char(c: str)</text>
<text xml:space="preserve" text-anchor="start" x="8" y="-108.67" font-family="Times,serif" font-size="10.00">undo()</text>
<text xml:space="preserve" text-anchor="start" x="8" y="-97.42" font-family="Times,serif" font-size="10.00">get_buffer() &#160;&#160;&#160;&#160;&#160;&#160;&#160;&#160;&#160;&#160;&#160;</text>
<text xml:space="preserve" text-anchor="start" x="8" y="-75.81" font-family="Times,serif" font-size="9.00" fill="#666666">buffer: str &#160;&#160;&#160;&#160;&#160;&#160;&#160;&#160;&#160;&#160;&#160;</text>
<polygon fill="#00688b" stroke="#00688b" points="0,-157.33 0,-157.33 91,-157.33 91,-157.33 0,-157.33"/>
<polygon fill="#00688b" stroke="#00688b" points="0,-100.33 0,-100.33 91,-100.33 91,-100.33 0,-100.33"/>
<path fill="none" stroke="#00688b" d="M12,-75.83C12,-75.83 79,-75.83 79,-75.83 85,-75.83 91,-81.83 91,-87.83 91,-87.83 91,-175.83 91,-175.83 91,-181.83 85,-187.83 79,-187.83 79,-187.83 12,-187.83 12,-187.83 6,-187.83 0,-181.83 0,-175.83 0,-175.83 0,-87.83 0,-87.83 0,-81.83 6,-75.83 12,-75.83"/>
</g>
<!-- Init&#45;&gt;Editing -->
<g id="edge2" class="edge">
<title>Init&#45;&gt;Editing</title>
<path fill="none" stroke="red" d="M45.5,-240.58C45.5,-227.88 45.5,-213.32 45.5,-199.1"/>
<polygon fill="red" stroke="red" points="49,-199.32 45.5,-189.32 42,-199.32 49,-199.32"/>
<text xml:space="preserve" text-anchor="middle" x="75.88" y="-209.03" font-family="Times,serif" font-size="14.00"> type_char </text>
</g>
<!-- Editing&#45;&gt;Editing -->
<g id="edge3" class="edge">
<title>Editing&#45;&gt;Editing</title>
<path fill="none" stroke="red" d="M90.88,-146.92C101.33,-145.62 109,-140.59 109,-131.83 109,-126.5 106.15,-122.55 101.56,-119.98"/>
<polygon fill="red" stroke="red" points="102.91,-116.73 92.33,-117.19 100.89,-123.43 102.91,-116.73"/>
<text xml:space="preserve" text-anchor="middle" x="139.38" y="-126.78" font-family="Times,serif" font-size="14.00"> type_char </text>
</g>
<!-- Stack -->
<g id="node4" class="node">
<title>Stack</title>
<ellipse fill="azure" stroke="#00688b" cx="45.5" cy="-11.67" rx="11.67" ry="11.67"/>
<text xml:space="preserve" text-anchor="middle" x="45.5" y="-6.62" font-family="Times,serif" font-size="14.00">H*</text>
</g>
<!-- Editing&#45;&gt;Stack -->
<g id="edge4" class="edge">
<title>Editing&#45;&gt;Stack</title>
<path fill="none" stroke="red" d="M45.5,-75.9C45.5,-61.38 45.5,-46.53 45.5,-34.87"/>
<polygon fill="red" stroke="red" points="49,-35.15 45.5,-25.15 42,-35.15 49,-35.15"/>
<text xml:space="preserve" text-anchor="middle" x="62.75" y="-44.53" font-family="Times,serif" font-size="14.00"> undo </text>
</g>
</g>
</svg>
