<?xml version="1.0" encoding="UTF-8" standalone="no"?>
<!DOCTYPE svg PUBLIC "-//W3C//DTD SVG 1.1//EN"
 "http://www.w3.org/Graphics/SVG/1.1/DTD/svg11.dtd">
<!-- Generated by graphviz version 14.1.5 (20260411.2331)
 -->
<!-- Title: Editor Pages: 1 -->
<svg width="169pt" height="411pt"
 viewBox="0.00 0.00 169.00 411.00" xmlns="http://www.w3.org/2000/svg" xmlns:xlink="http://www.w3.org/1999/xlink">
<g id="graph0" class="graph" transform="scale(1 1) rotate(0) translate(4 406.98)">
<title>Editor</title>
<polygon fill="white" stroke="none" points="-4,4 -4,-406.98 164.75,-406.98 164.75,4 -4,4"/>
<!-- Entry -->
<g id="node1" class="node">
<title>Entry</title>
<ellipse fill="black" stroke="#00688b" cx="41" cy="-395.78" rx="7.2" ry="7.2"/>
</g>
<!-- Init -->
<g id="node2" class="node">
<title>Init</title>
<path fill="azure" stroke="none" d="M70,-351.58C70,-351.58 12,-351.58 12,-351.58 6,-351.58 0,-345.58 0,-339.58 0,-339.58 0,-274.08 0,-274.08 0,-268.08 6,-262.08 12,-262.08 12,-262.08 70,-262.08 70,-262.08 76,-262.08 82,-268.08 82,-274.08 82,-274.08 82,-339.58 82,-339.58 82,-345.58 76,-351.58 70,-351.58"/>
<text xml:space="preserve" text-anchor="start" x="30.5" y="-331.28" font-family="Times,serif" font-weight="bold" font-size="14.00">Init</text>
<text xml:space="preserve" text-anchor="start" x="8" y="-306.08" font-family="Times,serif" font-size="10.00">type_char(c: str)</text>
<text xml:space="preserve" text-anchor="start" x="8" y="-294.83" font-family="Times,serif" font-size="10.00">undo()</text>
<text xml:space="preserve" text-anchor="start" x="8" y="-283.58" font-family="Times,serif" font-size="10.00">get_buffer()</text>
<text xml:space="preserve" text-anchor="start" x="27.5" y="-272.33" font-family="Times,serif" font-size="10.00"> &#160;&#160;&#160;&#160;&#160;&#160;&#160;&#160;&#160;&#160;&#160;</text>
<polygon fill="#00688b" stroke="#00688b" points="0,-321.08 0,-321.08 82,-321.08 82,-321.08 0,-321.08"/>
<path fill="none" stroke="#00688b" d="M12,-262.08C12,-262.08 70,-262.08 70,-262.08 76,-262.08 82,-268.08 82,-274.08 82,-274.08 82,-339.58 82,-339.58 82,-345.58 76,-351.58 70,-351.58 70,-351.58 12,-351.58 12,-351.58 6,-351.58 0,-345.58 0,-339.58 0,-339.58 0,-274.08 0,-274.08 0,-268.08 6,-262.08 12,-262.08"/>
</g>
<!-- Entry&#45;&gt;Init -->
<g id="edge1" class="edge">
<title>Entry&#45;&gt;Init</title>
<path fill="none" stroke="red" d="M41,-388.25C41,-382.33 41,-372.99 41,-362.74"/>
<polygon fill="red" stroke="red" points="44.5,-362.89 41,-352.89 37.5,-362.89 44.5,-362.89"/>
</g>
<!-- Editing -->
<g id="node3" class="node">
<title>Editing</title>
<path fill="azure" stroke="none" d="M70,-209.58C70,-209.58 12,-209.58 12,-209.58 6,-209.58 0,-203.58 0,-197.58 0,-197.58 0,-87.83 0,-87.83 0,-81.83 6,-75.83 12,-75.83 12,-75.83 70,-75.83 70,-75.83 76,-75.83 82,-81.83 82,-87.83 82,-87.83 82,-197.58 82,-197.58 82,-203.58 76,-209.58 70,-209.58"/>
<text xml:space="preserve" text-anchor="start" x="19.62" y="-189.28" font-family="Times,serif" font-weight="bold" font-size="14.00">Editing</text>
<text xml:space="preserve" text-anchor="start" x="8" y="-164.08" font-family="Times,serif" font-size="10.00">$&gt;()</text>
<text xml:space="preserve" text-anchor="start" x="8" y="-152.83" font-family="Times,serif" font-size="10.00">type_char(c: str)</text>
<text xml:space="preserve" text-anchor="start" x="8" y="-141.58" font-family="Times,serif" font-size="10.00">undo()</text>
<text xml:space="preserve" text-anchor="start" x="8" y="-130.33" font-family="Times,serif" font-size="10.00">get_buffer()</text>
<text xml:space="preserve" text-anchor="start" x="27.5" y="-119.08" font-family="Times,serif" font-size="10.00"> &#160;&#160;&#160;&#160;&#160;&#160;&#160;&#160;&#160;&#160;&#160;</text>
<text xml:space="preserve" text-anchor="start" x="8" y="-96.58" font-family="Times,serif" font-size="9.00" fill="#666666">buffer: str</text>
<text xml:space="preserve" text-anchor="start" x="12.12" y="-86.08" font-family="Times,serif" font-size="9.00" fill="#666666"> &#160;&#160;&#160;&#160;&#160;&#160;&#160;&#160;&#160;&#160;&#160;</text>
<polygon fill="#00688b" stroke="#00688b" points="0,-179.08 0,-179.08 82,-179.08 82,-179.08 0,-179.08"/>
<polygon fill="#00688b" stroke="#00688b" points="0,-110.83 0,-110.83 82,-110.83 82,-110.83 0,-110.83"/>
<path fill="none" stroke="#00688b" d="M12,-75.83C12,-75.83 70,-75.83 70,-75.83 76,-75.83 82,-81.83 82,-87.83 82,-87.83 82,-197.58 82,-197.58 82,-203.58 76,-209.58 70,-209.58 70,-209.58 12,-209.58 12,-209.58 6,-209.58 0,-203.58 0,-197.58 0,-197.58 0,-87.83 0,-87.83 0,-81.83 6,-75.83 12,-75.83"/>
</g>
<!-- Init&#45;&gt;Editing -->
<g id="edge2" class="edge">
<title>Init&#45;&gt;Editing</title>
<path fill="none" stroke="red" d="M41,-262.39C41,-249.58 41,-235.17 41,-220.92"/>
<polygon fill="red" stroke="red" points="44.5,-221.07 41,-211.07 37.5,-221.07 44.5,-221.07"/>
<text xml:space="preserve" text-anchor="middle" x="71.38" y="-230.78" font-family="Times,serif" font-size="14.00"> type_char </text>
</g>
<!-- Editing&#45;&gt;Editing -->
<g id="edge3" class="edge">
<title>Editing&#45;&gt;Editing</title>
<path fill="none" stroke="red" d="M81.81,-159.96C92.2,-158.83 100,-153.08 100,-142.71 100,-136.39 97.1,-131.79 92.49,-128.9"/>
<polygon fill="red" stroke="red" points="93.84,-125.66 83.25,-125.92 91.69,-132.32 93.84,-125.66"/>
<text xml:space="preserve" text-anchor="middle" x="130.38" y="-137.66" font-family="Times,serif" font-size="14.00"> type_char </text>
</g>
<!-- Stack -->
<g id="node4" class="node">
<title>Stack</title>
<ellipse fill="azure" stroke="#00688b" cx="41" cy="-11.67" rx="11.67" ry="11.67"/>
<text xml:space="preserve" text-anchor="middle" x="41" y="-6.62" font-family="Times,serif" font-size="14.00">H*</text>
</g>
<!-- Editing&#45;&gt;Stack -->
<g id="edge4" class="edge">
<title>Editing&#45;&gt;Stack</title>
<path fill="none" stroke="red" d="M41,-76.05C41,-61.22 41,-46.46 41,-34.92"/>
<polygon fill="red" stroke="red" points="44.5,-34.94 41,-24.94 37.5,-34.94 44.5,-34.94"/>
<text xml:space="preserve" text-anchor="middle" x="58.25" y="-44.53" font-family="Times,serif" font-size="14.00"> undo </text>
</g>
</g>
</svg>
