<?xml version="1.0" encoding="UTF-8" standalone="no"?>
<!DOCTYPE svg PUBLIC "-//W3C//DTD SVG 1.1//EN"
 "http://www.w3.org/Graphics/SVG/1.1/DTD/svg11.dtd">
<!-- Generated by graphviz version 14.1.5 (20260411.2331)
 -->
<!-- Title: DialogManager Pages: 1 -->
<svg width="139pt" height="367pt"
 viewBox="0.00 0.00 139.00 367.00" xmlns="http://www.w3.org/2000/svg" xmlns:xlink="http://www.w3.org/1999/xlink">
<g id="graph0" class="graph" transform="scale(1 1) rotate(0) translate(4 362.73)">
<title>DialogManager</title>
<polygon fill="white" stroke="none" points="-4,4 -4,-362.73 134.75,-362.73 134.75,4 -4,4"/>
<!-- Entry -->
<g id="node1" class="node">
<title>Entry</title>
<ellipse fill="black" stroke="#00688b" cx="39.5" cy="-351.53" rx="7.2" ry="7.2"/>
</g>
<!-- Main -->
<g id="node2" class="node">
<title>Main</title>
<path fill="azure" stroke="none" d="M67,-307.33C67,-307.33 12,-307.33 12,-307.33 6,-307.33 0,-301.33 0,-295.33 0,-295.33 0,-252.33 0,-252.33 0,-246.33 6,-240.33 12,-240.33 12,-240.33 67,-240.33 67,-240.33 73,-240.33 79,-246.33 79,-252.33 79,-252.33 79,-295.33 79,-295.33 79,-301.33 73,-307.33 67,-307.33"/>
<text xml:space="preserve" text-anchor="start" x="23.75" y="-287.03" font-family="Times,serif" font-weight="bold" font-size="14.00">Main</text>
<text xml:space="preserve" text-anchor="start" x="8" y="-250.67" font-family="Times,serif" font-size="10.00">open(name: str)</text>
<text xml:space="preserve" text-anchor="start" x="8.75" y="-239.42" font-family="Times,serif" font-size="10.00">current() &#160;&#160;&#160;&#160;&#160;&#160;&#160;&#160;&#160;&#160;&#160;</text>
<polygon fill="#00688b" stroke="#00688b" points="0,-276.83 0,-276.83 79,-276.83 79,-276.83 0,-276.83"/>
<path fill="none" stroke="#00688b" d="M12,-240.33C12,-240.33 67,-240.33 67,-240.33 73,-240.33 79,-246.33 79,-252.33 79,-252.33 79,-295.33 79,-295.33 79,-301.33 73,-307.33 67,-307.33 67,-307.33 12,-307.33 12,-307.33 6,-307.33 0,-301.33 0,-295.33 0,-295.33 0,-252.33 0,-252.33 0,-246.33 6,-240.33 12,-240.33"/>
</g>
<!-- Entry&#45;&gt;Main -->
<g id="edge1" class="edge">
<title>Entry&#45;&gt;Main</title>
<path fill="none" stroke="red" d="M39.5,-344.08C39.5,-338.11 39.5,-328.65 39.5,-318.63"/>
<polygon fill="red" stroke="red" points="43,-318.74 39.5,-308.74 36,-318.74 43,-318.74"/>
</g>
<!-- Dialog -->
<g id="node3" class="node">
<title>Dialog</title>
<path fill="azure" stroke="none" d="M67,-187.83C67,-187.83 12,-187.83 12,-187.83 6,-187.83 0,-181.83 0,-175.83 0,-175.83 0,-87.83 0,-87.83 0,-81.83 6,-75.83 12,-75.83 12,-75.83 67,-75.83 67,-75.83 73,-75.83 79,-81.83 79,-87.83 79,-87.83 79,-175.83 79,-175.83 79,-181.83 73,-187.83 67,-187.83"/>
<text xml:space="preserve" text-anchor="start" x="20.75" y="-167.53" font-family="Times,serif" font-weight="bold" font-size="14.00">Dialog</text>
<text xml:space="preserve" text-anchor="start" x="8" y="-131.17" font-family="Times,serif" font-size="10.00">$&gt;() [enter]</text>
<text xml:space="preserve" text-anchor="start" x="8" y="-119.92" font-family="Times,serif" font-size="10.00">open(name: str)</text>
<text xml:space="preserve" text-anchor="start" x="8" y="-108.67" font-family="Times,serif" font-size="10.00">close()</text>
<text xml:space="preserve" text-anchor="start" x="8.75" y="-97.42" font-family="Times,serif" font-size="10.00">current() &#160;&#160;&#160;&#160;&#160;&#160;&#160;&#160;&#160;&#160;&#160;</text>
<text xml:space="preserve" text-anchor="start" x="8" y="-75.81" font-family="Times,serif" font-size="9.00" fill="#666666">name: str &#160;&#160;&#160;&#160;&#160;&#160;&#160;&#160;&#160;&#160;&#160;</text>
<polygon fill="#00688b" stroke="#00688b" points="0,-157.33 0,-157.33 79,-157.33 79,-157.33 0,-157.33"/>
<polygon fill="#00688b" stroke="#00688b" points="0,-100.33 0,-100.33 79,-100.33 79,-100.33 0,-100.33"/>
<path fill="none" stroke="#00688b" d="M12,-75.83C12,-75.83 67,-75.83 67,-75.83 73,-75.83 79,-81.83 79,-87.83 79,-87.83 79,-175.83 79,-175.83 79,-181.83 73,-187.83 67,-187.83 67,-187.83 12,-187.83 12,-187.83 6,-187.83 0,-181.83 0,-175.83 0,-175.83 0,-87.83 0,-87.83 0,-81.83 6,-75.83 12,-75.83"/>
</g>
<!-- Main&#45;&gt;Dialog -->
<g id="edge2" class="edge">
<title>Main&#45;&gt;Dialog</title>
<path fill="none" stroke="red" d="M39.5,-240.36C39.5,-228 39.5,-213.42 39.5,-199.05"/>
<polygon fill="red" stroke="red" points="43,-199.13 39.5,-189.13 36,-199.13 43,-199.13"/>
<text xml:space="preserve" text-anchor="middle" x="56.38" y="-209.03" font-family="Times,serif" font-size="14.00"> open </text>
</g>
<!-- Dialog&#45;&gt;Dialog -->
<g id="edge3" class="edge">
<title>Dialog&#45;&gt;Dialog</title>
<path fill="none" stroke="red" d="M78.74,-147.12C89.13,-146.25 97,-141.15 97,-131.83 97,-126.3 94.23,-122.26 89.8,-119.7"/>
<polygon fill="red" stroke="red" points="90.77,-116.34 80.19,-116.96 88.85,-123.07 90.77,-116.34"/>
<text xml:space="preserve" text-anchor="middle" x="113.88" y="-126.78" font-family="Times,serif" font-size="14.00"> open </text>
</g>
<!-- Stack -->
<g id="node4" class="node">
<title>Stack</title>
<ellipse fill="azure" stroke="#00688b" cx="39.5" cy="-11.67" rx="11.67" ry="11.67"/>
<text xml:space="preserve" text-anchor="middle" x="39.5" y="-6.62" font-family="Times,serif" font-size="14.00">H*</text>
</g>
<!-- Dialog&#45;&gt;Stack -->
<g id="edge4" class="edge">
<title>Dialog&#45;&gt;Stack</title>
<path fill="none" stroke="red" d="M39.5,-75.9C39.5,-61.38 39.5,-46.53 39.5,-34.87"/>
<polygon fill="red" stroke="red" points="43,-35.15 39.5,-25.15 36,-35.15 43,-35.15"/>
<text xml:space="preserve" text-anchor="middle" x="57.12" y="-44.53" font-family="Times,serif" font-size="14.00"> close </text>
</g>
</g>
</svg>
