<?xml version="1.0" encoding="UTF-8" standalone="no"?>
<!DOCTYPE svg PUBLIC "-//W3C//DTD SVG 1.1//EN"
 "http://www.w3.org/Graphics/SVG/1.1/DTD/svg11.dtd">
<!-- Generated by graphviz version 14.1.5 (20260411.2331)
 -->
<!-- Title: DialogManager Pages: 1 -->
<svg width="175pt" height="367pt"
 viewBox="0.00 0.00 175.00 367.00" xmlns="http://www.w3.org/2000/svg" xmlns:xlink="http://www.w3.org/1999/xlink">
<g id="graph0" class="graph" transform="scale(1 1) rotate(0) translate(4 362.73)">
<title>DialogManager</title>
<polygon fill="white" stroke="none" points="-4,4 -4,-362.73 170.75,-362.73 170.75,4 -4,4"/>
<!-- Entry -->
<g id="node1" class="node">
<title>Entry</title>
<ellipse fill="black" stroke="#00688b" cx="57.5" cy="-351.53" rx="7.2" ry="7.2"/>
</g>
<!-- Main -->
<g id="node2" class="node">
<title>Main</title>
<path fill="azure" stroke="none" d="M103,-307.33C103,-307.33 12,-307.33 12,-307.33 6,-307.33 0,-301.33 0,-295.33 0,-295.33 0,-252.33 0,-252.33 0,-246.33 6,-240.33 12,-240.33 12,-240.33 103,-240.33 103,-240.33 109,-240.33 115,-246.33 115,-252.33 115,-252.33 115,-295.33 115,-295.33 115,-301.33 109,-307.33 103,-307.33"/>
<text xml:space="preserve" text-anchor="start" x="41.75" y="-287.03" font-family="Times,serif" font-weight="bold" font-size="14.00">Main</text>
<text xml:space="preserve" text-anchor="start" x="8" y="-261.83" font-family="Times,serif" font-size="10.00"> &#160;&#160;&#160;&#160;&#160;&#160;&#160;&#160;&#160;&#160;&#160;&#160;&#160;&#160;&#160;open(name: str)</text>
<text xml:space="preserve" text-anchor="start" x="8.75" y="-250.58" font-family="Times,serif" font-size="10.00"> &#160;&#160;&#160;&#160;&#160;&#160;&#160;&#160;&#160;&#160;&#160;&#160;&#160;&#160;&#160;current() &#160;&#160;&#160;&#160;&#160;&#160;&#160;&#160;&#160;&#160;&#160;</text>
<polygon fill="#00688b" stroke="#00688b" points="0,-276.83 0,-276.83 115,-276.83 115,-276.83 0,-276.83"/>
<path fill="none" stroke="#00688b" d="M12,-240.33C12,-240.33 103,-240.33 103,-240.33 109,-240.33 115,-246.33 115,-252.33 115,-252.33 115,-295.33 115,-295.33 115,-301.33 109,-307.33 103,-307.33 103,-307.33 12,-307.33 12,-307.33 6,-307.33 0,-301.33 0,-295.33 0,-295.33 0,-252.33 0,-252.33 0,-246.33 6,-240.33 12,-240.33"/>
</g>
<!-- Entry&#45;&gt;Main -->
<g id="edge1" class="edge">
<title>Entry&#45;&gt;Main</title>
<path fill="none" stroke="red" d="M57.5,-344.08C57.5,-338.11 57.5,-328.65 57.5,-318.63"/>
<polygon fill="red" stroke="red" points="61,-318.74 57.5,-308.74 54,-318.74 61,-318.74"/>
</g>
<!-- Dialog -->
<g id="node3" class="node">
<title>Dialog</title>
<path fill="azure" stroke="none" d="M103,-187.83C103,-187.83 12,-187.83 12,-187.83 6,-187.83 0,-181.83 0,-175.83 0,-175.83 0,-87.83 0,-87.83 0,-81.83 6,-75.83 12,-75.83 12,-75.83 103,-75.83 103,-75.83 109,-75.83 115,-81.83 115,-87.83 115,-87.83 115,-175.83 115,-175.83 115,-181.83 109,-187.83 103,-187.83"/>
<text xml:space="preserve" text-anchor="start" x="38.75" y="-167.53" font-family="Times,serif" font-weight="bold" font-size="14.00">Dialog</text>
<text xml:space="preserve" text-anchor="start" x="16.62" y="-142.33" font-family="Times,serif" font-size="10.00"> &#160;&#160;&#160;&#160;&#160;&#160;&#160;&#160;&#160;&#160;&#160;&#160;&#160;&#160;&#160;$&gt;() [enter]</text>
<text xml:space="preserve" text-anchor="start" x="8" y="-131.08" font-family="Times,serif" font-size="10.00"> &#160;&#160;&#160;&#160;&#160;&#160;&#160;&#160;&#160;&#160;&#160;&#160;&#160;&#160;&#160;open(name: str)</text>
<text xml:space="preserve" text-anchor="start" x="26" y="-119.83" font-family="Times,serif" font-size="10.00"> &#160;&#160;&#160;&#160;&#160;&#160;&#160;&#160;&#160;&#160;&#160;&#160;&#160;&#160;&#160;close()</text>
<text xml:space="preserve" text-anchor="start" x="8.75" y="-108.58" font-family="Times,serif" font-size="10.00"> &#160;&#160;&#160;&#160;&#160;&#160;&#160;&#160;&#160;&#160;&#160;&#160;&#160;&#160;&#160;current() &#160;&#160;&#160;&#160;&#160;&#160;&#160;&#160;&#160;&#160;&#160;</text>
<text xml:space="preserve" text-anchor="start" x="8" y="-86.08" font-family="Times,serif" font-size="9.00" fill="#666666"> &#160;&#160;&#160;&#160;&#160;&#160;&#160;&#160;&#160;&#160;&#160;&#160;&#160;&#160;&#160;name: str &#160;&#160;&#160;&#160;&#160;&#160;&#160;&#160;&#160;&#160;&#160;</text>
<polygon fill="#00688b" stroke="#00688b" points="0,-157.33 0,-157.33 115,-157.33 115,-157.33 0,-157.33"/>
<polygon fill="#00688b" stroke="#00688b" points="0,-100.33 0,-100.33 115,-100.33 115,-100.33 0,-100.33"/>
<path fill="none" stroke="#00688b" d="M12,-75.83C12,-75.83 103,-75.83 103,-75.83 109,-75.83 115,-81.83 115,-87.83 115,-87.83 115,-175.83 115,-175.83 115,-181.83 109,-187.83 103,-187.83 103,-187.83 12,-187.83 12,-187.83 6,-187.83 0,-181.83 0,-175.83 0,-175.83 0,-87.83 0,-87.83 0,-81.83 6,-75.83 12,-75.83"/>
</g>
<!-- Main&#45;&gt;Dialog -->
<g id="edge2" class="edge">
<title>Main&#45;&gt;Dialog</title>
<path fill="none" stroke="red" d="M57.5,-240.36C57.5,-228 57.5,-213.42 57.5,-199.05"/>
<polygon fill="red" stroke="red" points="61,-199.13 57.5,-189.13 54,-199.13 61,-199.13"/>
<text xml:space="preserve" text-anchor="middle" x="74.38" y="-209.03" font-family="Times,serif" font-size="14.00"> open </text>
</g>
<!-- Dialog&#45;&gt;Dialog -->
<g id="edge3" class="edge">
<title>Dialog&#45;&gt;Dialog</title>
<path fill="none" stroke="red" d="M114.78,-146.46C125.47,-144.66 133,-139.79 133,-131.83 133,-126.99 130.2,-123.29 125.6,-120.72"/>
<polygon fill="red" stroke="red" points="126.82,-117.44 116.22,-117.67 124.65,-124.09 126.82,-117.44"/>
<text xml:space="preserve" text-anchor="middle" x="149.88" y="-126.78" font-family="Times,serif" font-size="14.00"> open </text>
</g>
<!-- Stack -->
<g id="node4" class="node">
<title>Stack</title>
<ellipse fill="azure" stroke="#00688b" cx="57.5" cy="-11.67" rx="11.67" ry="11.67"/>
<text xml:space="preserve" text-anchor="middle" x="57.5" y="-6.62" font-family="Times,serif" font-size="14.00">H*</text>
</g>
<!-- Dialog&#45;&gt;Stack -->
<g id="edge4" class="edge">
<title>Dialog&#45;&gt;Stack</title>
<path fill="none" stroke="red" d="M57.5,-75.9C57.5,-61.38 57.5,-46.53 57.5,-34.87"/>
<polygon fill="red" stroke="red" points="61,-35.15 57.5,-25.15 54,-35.15 61,-35.15"/>
<text xml:space="preserve" text-anchor="middle" x="75.12" y="-44.53" font-family="Times,serif" font-size="14.00"> close </text>
</g>
</g>
</svg>
