<?xml version="1.0" encoding="UTF-8" standalone="no"?>
<!DOCTYPE svg PUBLIC "-//W3C//DTD SVG 1.1//EN"
 "http://www.w3.org/Graphics/SVG/1.1/DTD/svg11.dtd">
<!-- Generated by graphviz version 14.1.5 (20260411.2331)
 -->
<!-- Title: Editor Pages: 1 -->
<svg width="90pt" height="258pt"
 viewBox="0.00 0.00 90.00 258.00" xmlns="http://www.w3.org/2000/svg" xmlns:xlink="http://www.w3.org/1999/xlink">
<g id="graph0" class="graph" transform="scale(1 1) rotate(0) translate(4 253.73)">
<title>Editor</title>
<polygon fill="white" stroke="none" points="-4,4 -4,-253.73 86,-253.73 86,4 -4,4"/>
<!-- Entry -->
<g id="node1" class="node">
<title>Entry</title>
<ellipse fill="black" stroke="#00688b" cx="41" cy="-242.53" rx="7.2" ry="7.2"/>
</g>
<!-- Editing -->
<g id="node2" class="node">
<title>Editing</title>
<path fill="azure" stroke="none" d="M70,-198.33C70,-198.33 12,-198.33 12,-198.33 6,-198.33 0,-192.33 0,-186.33 0,-186.33 0,-87.83 0,-87.83 0,-81.83 6,-75.83 12,-75.83 12,-75.83 70,-75.83 70,-75.83 76,-75.83 82,-81.83 82,-87.83 82,-87.83 82,-186.33 82,-186.33 82,-192.33 76,-198.33 70,-198.33"/>
<text xml:space="preserve" text-anchor="start" x="19.62" y="-178.03" font-family="Times,serif" font-weight="bold" font-size="14.00">Editing</text>
<text xml:space="preserve" text-anchor="start" x="8" y="-152.83" font-family="Times,serif" font-size="10.00">type_char(c: str)</text>
<text xml:space="preserve" text-anchor="start" x="8" y="-141.58" font-family="Times,serif" font-size="10.00">undo()</text>
<text xml:space="preserve" text-anchor="start" x="8" y="-130.33" font-family="Times,serif" font-size="10.00">get_buffer()</text>
<text xml:space="preserve" text-anchor="start" x="27.5" y="-119.08" font-family="Times,serif" font-size="10.00"> &#160;&#160;&#160;&#160;&#160;&#160;&#160;&#160;&#160;&#160;&#160;</text>
<text xml:space="preserve" text-anchor="start" x="8" y="-96.58" font-family="Times,serif" font-size="9.00" fill="#666666">buffer: str</text>
<text xml:space="preserve" text-anchor="start" x="12.12" y="-86.08" font-family="Times,serif" font-size="9.00" fill="#666666"> &#160;&#160;&#160;&#160;&#160;&#160;&#160;&#160;&#160;&#160;&#160;</text>
<polygon fill="#00688b" stroke="#00688b" points="0,-167.83 0,-167.83 82,-167.83 82,-167.83 0,-167.83"/>
<polygon fill="#00688b" stroke="#00688b" points="0,-110.83 0,-110.83 82,-110.83 82,-110.83 0,-110.83"/>
<path fill="none" stroke="#00688b" d="M12,-75.83C12,-75.83 70,-75.83 70,-75.83 76,-75.83 82,-81.83 82,-87.83 82,-87.83 82,-186.33 82,-186.33 82,-192.33 76,-198.33 70,-198.33 70,-198.33 12,-198.33 12,-198.33 6,-198.33 0,-192.33 0,-186.33 0,-186.33 0,-87.83 0,-87.83 0,-81.83 6,-75.83 12,-75.83"/>
</g>
<!-- Entry&#45;&gt;Editing -->
<g id="edge1" class="edge">
<title>Entry&#45;&gt;Editing</title>
<path fill="none" stroke="red" d="M41,-235.06C41,-229.25 41,-220.04 41,-209.55"/>
<polygon fill="red" stroke="red" points="44.5,-209.76 41,-199.76 37.5,-209.76 44.5,-209.76"/>
</g>
<!-- Stack -->
<g id="node3" class="node">
<title>Stack</title>
<ellipse fill="azure" stroke="#00688b" cx="41" cy="-11.67" rx="11.67" ry="11.67"/>
<text xml:space="preserve" text-anchor="middle" x="41" y="-6.62" font-family="Times,serif" font-size="14.00">H*</text>
</g>
<!-- Editing&#45;&gt;Stack -->
<g id="edge2" class="edge">
<title>Editing&#45;&gt;Stack</title>
<path fill="none" stroke="red" d="M41,-76.18C41,-61.39 41,-46.46 41,-34.79"/>
<polygon fill="red" stroke="red" points="44.5,-35.09 41,-25.09 37.5,-35.09 44.5,-35.09"/>
<text xml:space="preserve" text-anchor="middle" x="58.25" y="-44.53" font-family="Times,serif" font-size="14.00"> undo </text>
</g>
</g>
</svg>
