<?xml version="1.0" encoding="UTF-8" standalone="no"?>
<!DOCTYPE svg PUBLIC "-//W3C//DTD SVG 1.1//EN"
 "http://www.w3.org/Graphics/SVG/1.1/DTD/svg11.dtd">
<!-- Generated by graphviz version 14.1.5 (20260411.2331)
 -->
<!-- Title: DialogManager Pages: 1 -->
<svg width="139pt" height="400pt"
 viewBox="0.00 0.00 139.00 400.00" xmlns="http://www.w3.org/2000/svg" xmlns:xlink="http://www.w3.org/1999/xlink">
<g id="graph0" class="graph" transform="scale(1 1) rotate(0) translate(4 395.73)">
<title>DialogManager</title>
<polygon fill="white" stroke="none" points="-4,4 -4,-395.73 134.75,-395.73 134.75,4 -4,4"/>
<!-- Entry -->
<g id="node1" class="node">
<title>Entry</title>
<ellipse fill="black" stroke="#00688b" cx="39.5" cy="-384.53" rx="7.2" ry="7.2"/>
</g>
<!-- Main -->
<g id="node2" class="node">
<title>Main</title>
<path fill="azure" stroke="none" d="M67,-340.33C67,-340.33 12,-340.33 12,-340.33 6,-340.33 0,-334.33 0,-328.33 0,-328.33 0,-274.08 0,-274.08 0,-268.08 6,-262.08 12,-262.08 12,-262.08 67,-262.08 67,-262.08 73,-262.08 79,-268.08 79,-274.08 79,-274.08 79,-328.33 79,-328.33 79,-334.33 73,-340.33 67,-340.33"/>
<text xml:space="preserve" text-anchor="start" x="23.75" y="-320.03" font-family="Times,serif" font-weight="bold" font-size="14.00">Main</text>
<text xml:space="preserve" text-anchor="start" x="8" y="-294.83" font-family="Times,serif" font-size="10.00">open(name: str)</text>
<text xml:space="preserve" text-anchor="start" x="8" y="-283.58" font-family="Times,serif" font-size="10.00">current()</text>
<text xml:space="preserve" text-anchor="start" x="26" y="-272.33" font-family="Times,serif" font-size="10.00"> &#160;&#160;&#160;&#160;&#160;&#160;&#160;&#160;&#160;&#160;&#160;</text>
<polygon fill="#00688b" stroke="#00688b" points="0,-309.83 0,-309.83 79,-309.83 79,-309.83 0,-309.83"/>
<path fill="none" stroke="#00688b" d="M12,-262.08C12,-262.08 67,-262.08 67,-262.08 73,-262.08 79,-268.08 79,-274.08 79,-274.08 79,-328.33 79,-328.33 79,-334.33 73,-340.33 67,-340.33 67,-340.33 12,-340.33 12,-340.33 6,-340.33 0,-334.33 0,-328.33 0,-328.33 0,-274.08 0,-274.08 0,-268.08 6,-262.08 12,-262.08"/>
</g>
<!-- Entry&#45;&gt;Main -->
<g id="edge1" class="edge">
<title>Entry&#45;&gt;Main</title>
<path fill="none" stroke="red" d="M39.5,-376.88C39.5,-370.86 39.5,-361.41 39.5,-351.22"/>
<polygon fill="red" stroke="red" points="43,-351.52 39.5,-341.52 36,-351.52 43,-351.52"/>
</g>
<!-- Dialog -->
<g id="node3" class="node">
<title>Dialog</title>
<path fill="azure" stroke="none" d="M67,-209.58C67,-209.58 12,-209.58 12,-209.58 6,-209.58 0,-203.58 0,-197.58 0,-197.58 0,-87.83 0,-87.83 0,-81.83 6,-75.83 12,-75.83 12,-75.83 67,-75.83 67,-75.83 73,-75.83 79,-81.83 79,-87.83 79,-87.83 79,-197.58 79,-197.58 79,-203.58 73,-209.58 67,-209.58"/>
<text xml:space="preserve" text-anchor="start" x="20.75" y="-189.28" font-family="Times,serif" font-weight="bold" font-size="14.00">Dialog</text>
<text xml:space="preserve" text-anchor="start" x="8" y="-164.08" font-family="Times,serif" font-size="10.00">$&gt;()</text>
<text xml:space="preserve" text-anchor="start" x="8" y="-152.83" font-family="Times,serif" font-size="10.00">open(name: str)</text>
<text xml:space="preserve" text-anchor="start" x="8" y="-141.58" font-family="Times,serif" font-size="10.00">close()</text>
<text xml:space="preserve" text-anchor="start" x="8" y="-130.33" font-family="Times,serif" font-size="10.00">current()</text>
<text xml:space="preserve" text-anchor="start" x="26" y="-119.08" font-family="Times,serif" font-size="10.00"> &#160;&#160;&#160;&#160;&#160;&#160;&#160;&#160;&#160;&#160;&#160;</text>
<text xml:space="preserve" text-anchor="start" x="8" y="-96.58" font-family="Times,serif" font-size="9.00" fill="#666666">name: str</text>
<text xml:space="preserve" text-anchor="start" x="10.62" y="-86.08" font-family="Times,serif" font-size="9.00" fill="#666666"> &#160;&#160;&#160;&#160;&#160;&#160;&#160;&#160;&#160;&#160;&#160;</text>
<polygon fill="#00688b" stroke="#00688b" points="0,-179.08 0,-179.08 79,-179.08 79,-179.08 0,-179.08"/>
<polygon fill="#00688b" stroke="#00688b" points="0,-110.83 0,-110.83 79,-110.83 79,-110.83 0,-110.83"/>
<path fill="none" stroke="#00688b" d="M12,-75.83C12,-75.83 67,-75.83 67,-75.83 73,-75.83 79,-81.83 79,-87.83 79,-87.83 79,-197.58 79,-197.58 79,-203.58 73,-209.58 67,-209.58 67,-209.58 12,-209.58 12,-209.58 6,-209.58 0,-203.58 0,-197.58 0,-197.58 0,-87.83 0,-87.83 0,-81.83 6,-75.83 12,-75.83"/>
</g>
<!-- Main&#45;&gt;Dialog -->
<g id="edge2" class="edge">
<title>Main&#45;&gt;Dialog</title>
<path fill="none" stroke="red" d="M39.5,-262.33C39.5,-249.64 39.5,-235 39.5,-220.43"/>
<polygon fill="red" stroke="red" points="43,-220.86 39.5,-210.86 36,-220.86 43,-220.86"/>
<text xml:space="preserve" text-anchor="middle" x="56.38" y="-230.78" font-family="Times,serif" font-size="14.00"> open </text>
</g>
<!-- Dialog&#45;&gt;Dialog -->
<g id="edge3" class="edge">
<title>Dialog&#45;&gt;Dialog</title>
<path fill="none" stroke="red" d="M78.74,-160.02C89.13,-159.03 97,-153.26 97,-142.71 97,-136.28 94.08,-131.63 89.44,-128.75"/>
<polygon fill="red" stroke="red" points="90.77,-125.5 80.18,-125.85 88.68,-132.18 90.77,-125.5"/>
<text xml:space="preserve" text-anchor="middle" x="113.88" y="-137.66" font-family="Times,serif" font-size="14.00"> open </text>
</g>
<!-- Stack -->
<g id="node4" class="node">
<title>Stack</title>
<ellipse fill="azure" stroke="#00688b" cx="39.5" cy="-11.67" rx="11.67" ry="11.67"/>
<text xml:space="preserve" text-anchor="middle" x="39.5" y="-6.62" font-family="Times,serif" font-size="14.00">H*</text>
</g>
<!-- Dialog&#45;&gt;Stack -->
<g id="edge4" class="edge">
<title>Dialog&#45;&gt;Stack</title>
<path fill="none" stroke="red" d="M39.5,-76.05C39.5,-61.22 39.5,-46.46 39.5,-34.92"/>
<polygon fill="red" stroke="red" points="43,-34.94 39.5,-24.94 36,-34.94 43,-34.94"/>
<text xml:space="preserve" text-anchor="middle" x="57.12" y="-44.53" font-family="Times,serif" font-size="14.00"> close </text>
</g>
</g>
</svg>
