<?xml version="1.0" encoding="UTF-8" standalone="no"?>
<!DOCTYPE svg PUBLIC "-//W3C//DTD SVG 1.1//EN"
 "http://www.w3.org/Graphics/SVG/1.1/DTD/svg11.dtd">
<!-- Generated by graphviz version 14.1.5 (20260411.2331)
 -->
<!-- Title: VideoPlayer Pages: 1 -->
<svg width="150pt" height="452pt"
 viewBox="0.00 0.00 150.00 452.00" xmlns="http://www.w3.org/2000/svg" xmlns:xlink="http://www.w3.org/1999/xlink">
<g id="graph0" class="graph" transform="scale(1 1) rotate(0) translate(4 447.65)">
<title>VideoPlayer</title>
<polygon fill="white" stroke="none" points="-4,4 -4,-447.65 146,-447.65 146,4 -4,4"/>
<g id="clust1" class="cluster">
<title>cluster_Active</title>
<path fill="none" stroke="black" d="M20,-8C20,-8 122,-8 122,-8 128,-8 134,-14 134,-20 134,-20 134,-259.5 134,-259.5 134,-265.5 128,-271.5 122,-271.5 122,-271.5 20,-271.5 20,-271.5 14,-271.5 8,-265.5 8,-259.5 8,-259.5 8,-20 8,-20 8,-14 14,-8 20,-8"/>
<text xml:space="preserve" text-anchor="start" x="53" y="-250.75" font-family="Times,serif" font-size="14.00">Active</text>
<polygon fill="black" stroke="black" points="49,-244 49,-244 93,-244 93,-244 49,-244"/>
</g>
<!-- Entry -->
<g id="node1" class="node">
<title>Entry</title>
<ellipse fill="black" stroke="#00688b" cx="86" cy="-436.45" rx="7.2" ry="7.2"/>
</g>
<!-- Stopped -->
<g id="node2" class="node">
<title>Stopped</title>
<path fill="azure" stroke="none" d="M105.62,-392.25C105.62,-392.25 66.38,-392.25 66.38,-392.25 60.38,-392.25 54.38,-386.25 54.38,-380.25 54.38,-380.25 54.38,-326 54.38,-326 54.38,-320 60.38,-314 66.38,-314 66.38,-314 105.62,-314 105.62,-314 111.62,-314 117.62,-320 117.62,-326 117.62,-326 117.62,-380.25 117.62,-380.25 117.62,-386.25 111.62,-392.25 105.62,-392.25"/>
<text xml:space="preserve" text-anchor="start" x="62.38" y="-371.95" font-family="Times,serif" font-weight="bold" font-size="14.00">Stopped</text>
<text xml:space="preserve" text-anchor="start" x="62.38" y="-346.75" font-family="Times,serif" font-size="10.00">play()</text>
<text xml:space="preserve" text-anchor="start" x="62.38" y="-335.5" font-family="Times,serif" font-size="10.00">status()</text>
<text xml:space="preserve" text-anchor="start" x="63.5" y="-324.25" font-family="Times,serif" font-size="10.00"> &#160;&#160;&#160;&#160;&#160;&#160;&#160;&#160;&#160;&#160;&#160;</text>
<polygon fill="#00688b" stroke="#00688b" points="54.38,-361.75 54.38,-361.75 117.62,-361.75 117.62,-361.75 54.38,-361.75"/>
<path fill="none" stroke="#00688b" d="M66.38,-314C66.38,-314 105.62,-314 105.62,-314 111.62,-314 117.62,-320 117.62,-326 117.62,-326 117.62,-380.25 117.62,-380.25 117.62,-386.25 111.62,-392.25 105.62,-392.25 105.62,-392.25 66.38,-392.25 66.38,-392.25 60.38,-392.25 54.38,-386.25 54.38,-380.25 54.38,-380.25 54.38,-326 54.38,-326 54.38,-320 60.38,-314 66.38,-314"/>
</g>
<!-- Entry&#45;&gt;Stopped -->
<g id="edge1" class="edge">
<title>Entry&#45;&gt;Stopped</title>
<path fill="none" stroke="red" d="M86,-428.79C86,-422.78 86,-413.32 86,-403.13"/>
<polygon fill="red" stroke="red" points="89.5,-403.44 86,-393.44 82.5,-403.44 89.5,-403.44"/>
</g>
<!-- Playing -->
<g id="node4" class="node">
<title>Playing</title>
<path fill="azure" stroke="none" d="M76.75,-225C76.75,-225 41.25,-225 41.25,-225 35.25,-225 29.25,-219 29.25,-213 29.25,-213 29.25,-158.75 29.25,-158.75 29.25,-152.75 35.25,-146.75 41.25,-146.75 41.25,-146.75 76.75,-146.75 76.75,-146.75 82.75,-146.75 88.75,-152.75 88.75,-158.75 88.75,-158.75 88.75,-213 88.75,-213 88.75,-219 82.75,-225 76.75,-225"/>
<text xml:space="preserve" text-anchor="start" x="37.25" y="-204.7" font-family="Times,serif" font-weight="bold" font-size="14.00">Playing</text>
<text xml:space="preserve" text-anchor="start" x="37.25" y="-179.5" font-family="Times,serif" font-size="10.00">pause()</text>
<text xml:space="preserve" text-anchor="start" x="37.25" y="-168.25" font-family="Times,serif" font-size="10.00">status()</text>
<text xml:space="preserve" text-anchor="start" x="37.25" y="-157" font-family="Times,serif" font-size="10.00"> &#160;&#160;&#160;&#160;&#160;&#160;&#160;&#160;&#160;&#160;&#160;&#160;&#160;&#160;&#160;</text>
<polygon fill="#00688b" stroke="#00688b" points="29.25,-194.5 29.25,-194.5 88.75,-194.5 88.75,-194.5 29.25,-194.5"/>
<path fill="none" stroke="#00688b" d="M41.25,-146.75C41.25,-146.75 76.75,-146.75 76.75,-146.75 82.75,-146.75 88.75,-152.75 88.75,-158.75 88.75,-158.75 88.75,-213 88.75,-213 88.75,-219 82.75,-225 76.75,-225 76.75,-225 41.25,-225 41.25,-225 35.25,-225 29.25,-219 29.25,-213 29.25,-213 29.25,-158.75 29.25,-158.75 29.25,-152.75 35.25,-146.75 41.25,-146.75"/>
</g>
<!-- Stopped&#45;&gt;Playing -->
<g id="edge2" class="edge">
<title>Stopped&#45;&gt;Playing</title>
<path fill="none" stroke="red" d="M66.06,-314.23C63.68,-308.27 61.61,-302.07 60.25,-296 55.94,-276.79 54.92,-255.19 55.23,-236.31"/>
<polygon fill="red" stroke="red" points="58.73,-236.56 55.54,-226.46 51.73,-236.35 58.73,-236.56"/>
<text xml:space="preserve" text-anchor="middle" x="75.62" y="-282.7" font-family="Times,serif" font-size="14.00"> play </text>
</g>
<!-- Active -->
<g id="node3" class="node">
<title>Active</title>
<ellipse fill="azure" stroke="#00688b" cx="113" cy="-185.88" rx="0.36" ry="0.36"/>
</g>
<!-- Active&#45;&gt;Stopped -->
<g id="edge5" class="edge">
<title>Active&#45;&gt;Stopped</title>
<path fill="none" stroke="red" d="M99.17,-271.5C97.41,-282.32 95.64,-293.1 94.01,-303.09"/>
<polygon fill="red" stroke="red" points="90.6,-302.29 92.44,-312.72 97.51,-303.41 90.6,-302.29"/>
<text xml:space="preserve" text-anchor="middle" x="112.08" y="-282.7" font-family="Times,serif" font-size="14.00"> stop </text>
</g>
<!-- Paused -->
<g id="node5" class="node">
<title>Paused</title>
<path fill="azure" stroke="none" d="M86.62,-94.25C86.62,-94.25 53.38,-94.25 53.38,-94.25 47.38,-94.25 41.38,-88.25 41.38,-82.25 41.38,-82.25 41.38,-28 41.38,-28 41.38,-22 47.38,-16 53.38,-16 53.38,-16 86.62,-16 86.62,-16 92.62,-16 98.62,-22 98.62,-28 98.62,-28 98.62,-82.25 98.62,-82.25 98.62,-88.25 92.62,-94.25 86.62,-94.25"/>
<text xml:space="preserve" text-anchor="start" x="49.38" y="-73.95" font-family="Times,serif" font-weight="bold" font-size="14.00">Paused</text>
<text xml:space="preserve" text-anchor="start" x="49.38" y="-48.75" font-family="Times,serif" font-size="10.00">play()</text>
<text xml:space="preserve" text-anchor="start" x="49.38" y="-37.5" font-family="Times,serif" font-size="10.00">status()</text>
<text xml:space="preserve" text-anchor="start" x="49.38" y="-26.25" font-family="Times,serif" font-size="10.00"> &#160;&#160;&#160;&#160;&#160;&#160;&#160;&#160;&#160;&#160;&#160;&#160;&#160;&#160;&#160;</text>
<polygon fill="#00688b" stroke="#00688b" points="41.38,-63.75 41.38,-63.75 98.62,-63.75 98.62,-63.75 41.38,-63.75"/>
<path fill="none" stroke="#00688b" d="M53.38,-16C53.38,-16 86.62,-16 86.62,-16 92.62,-16 98.62,-22 98.62,-28 98.62,-28 98.62,-82.25 98.62,-82.25 98.62,-88.25 92.62,-94.25 86.62,-94.25 86.62,-94.25 53.38,-94.25 53.38,-94.25 47.38,-94.25 41.38,-88.25 41.38,-82.25 41.38,-82.25 41.38,-28 41.38,-28 41.38,-22 47.38,-16 53.38,-16"/>
</g>
<!-- Playing&#45;&gt;Paused -->
<g id="edge3" class="edge">
<title>Playing&#45;&gt;Paused</title>
<path fill="none" stroke="red" d="M37.33,-146.99C33.41,-135.86 31.48,-123.62 34.75,-112.25 35.5,-109.64 36.42,-107.03 37.45,-104.45"/>
<polygon fill="red" stroke="red" points="40.62,-105.94 41.7,-95.4 34.28,-102.97 40.62,-105.94"/>
<text xml:space="preserve" text-anchor="middle" x="53.88" y="-115.45" font-family="Times,serif" font-size="14.00"> pause </text>
</g>
<!-- Paused&#45;&gt;Playing -->
<g id="edge4" class="edge">
<title>Paused&#45;&gt;Playing</title>
<path fill="none" stroke="red" d="M73.9,-93.91C74.43,-105.15 74.38,-117.48 73,-128.75 72.72,-131.05 72.37,-133.39 71.98,-135.74"/>
<polygon fill="red" stroke="red" points="68.6,-134.8 70.12,-145.28 75.47,-136.14 68.6,-134.8"/>
<text xml:space="preserve" text-anchor="middle" x="89.5" y="-115.45" font-family="Times,serif" font-size="14.00"> play </text>
</g>
</g>
</svg>
