<?xml version="1.0" encoding="UTF-8" standalone="no"?>
<!DOCTYPE svg PUBLIC "-//W3C//DTD SVG 1.1//EN"
 "http://www.w3.org/Graphics/SVG/1.1/DTD/svg11.dtd">
<!-- Generated by graphviz version 14.1.5 (20260411.2331)
 -->
<!-- Title: VideoPlayer Pages: 1 -->
<svg width="150pt" height="418pt"
 viewBox="0.00 0.00 150.00 418.00" xmlns="http://www.w3.org/2000/svg" xmlns:xlink="http://www.w3.org/1999/xlink">
<g id="graph0" class="graph" transform="scale(1 1) rotate(0) translate(4 413.9)">
<title>VideoPlayer</title>
<polygon fill="white" stroke="none" points="-4,4 -4,-413.9 146,-413.9 146,4 -4,4"/>
<g id="clust1" class="cluster">
<title>cluster_Active</title>
<path fill="none" stroke="black" d="M20,-8C20,-8 122,-8 122,-8 128,-8 134,-14 134,-20 134,-20 134,-237 134,-237 134,-243 128,-249 122,-249 122,-249 20,-249 20,-249 14,-249 8,-243 8,-237 8,-237 8,-20 8,-20 8,-14 14,-8 20,-8"/>
<text xml:space="preserve" text-anchor="start" x="53" y="-228.25" font-family="Times,serif" font-size="14.00">Active</text>
<polygon fill="black" stroke="black" points="49,-221.5 49,-221.5 93,-221.5 93,-221.5 49,-221.5"/>
</g>
<!-- Entry -->
<g id="node1" class="node">
<title>Entry</title>
<ellipse fill="black" stroke="#00688b" cx="91" cy="-402.7" rx="7.2" ry="7.2"/>
</g>
<!-- Stopped -->
<g id="node2" class="node">
<title>Stopped</title>
<path fill="azure" stroke="none" d="M115.12,-358.5C115.12,-358.5 66.88,-358.5 66.88,-358.5 60.88,-358.5 54.88,-352.5 54.88,-346.5 54.88,-346.5 54.88,-303.5 54.88,-303.5 54.88,-297.5 60.88,-291.5 66.88,-291.5 66.88,-291.5 115.12,-291.5 115.12,-291.5 121.12,-291.5 127.12,-297.5 127.12,-303.5 127.12,-303.5 127.12,-346.5 127.12,-346.5 127.12,-352.5 121.12,-358.5 115.12,-358.5"/>
<text xml:space="preserve" text-anchor="start" x="67.38" y="-338.2" font-family="Times,serif" font-weight="bold" font-size="14.00">Stopped</text>
<text xml:space="preserve" text-anchor="start" x="62.88" y="-301.84" font-family="Times,serif" font-size="10.00">play()</text>
<text xml:space="preserve" text-anchor="start" x="62.88" y="-290.59" font-family="Times,serif" font-size="10.00">status() &#160;&#160;&#160;&#160;&#160;&#160;&#160;&#160;&#160;&#160;&#160;</text>
<polygon fill="#00688b" stroke="#00688b" points="54.88,-328 54.88,-328 127.12,-328 127.12,-328 54.88,-328"/>
<path fill="none" stroke="#00688b" d="M66.88,-291.5C66.88,-291.5 115.12,-291.5 115.12,-291.5 121.12,-291.5 127.12,-297.5 127.12,-303.5 127.12,-303.5 127.12,-346.5 127.12,-346.5 127.12,-352.5 121.12,-358.5 115.12,-358.5 115.12,-358.5 66.88,-358.5 66.88,-358.5 60.88,-358.5 54.88,-352.5 54.88,-346.5 54.88,-346.5 54.88,-303.5 54.88,-303.5 54.88,-297.5 60.88,-291.5 66.88,-291.5"/>
</g>
<!-- Entry&#45;&gt;Stopped -->
<g id="edge1" class="edge">
<title>Entry&#45;&gt;Stopped</title>
<path fill="none" stroke="red" d="M91,-395.25C91,-389.27 91,-379.82 91,-369.8"/>
<polygon fill="red" stroke="red" points="94.5,-369.91 91,-359.91 87.5,-369.91 94.5,-369.91"/>
</g>
<!-- Playing -->
<g id="node4" class="node">
<title>Playing</title>
<path fill="azure" stroke="none" d="M90.62,-202.5C90.62,-202.5 33.38,-202.5 33.38,-202.5 27.38,-202.5 21.38,-196.5 21.38,-190.5 21.38,-190.5 21.38,-147.5 21.38,-147.5 21.38,-141.5 27.38,-135.5 33.38,-135.5 33.38,-135.5 90.62,-135.5 90.62,-135.5 96.62,-135.5 102.62,-141.5 102.62,-147.5 102.62,-147.5 102.62,-190.5 102.62,-190.5 102.62,-196.5 96.62,-202.5 90.62,-202.5"/>
<text xml:space="preserve" text-anchor="start" x="40.25" y="-182.2" font-family="Times,serif" font-weight="bold" font-size="14.00">Playing</text>
<text xml:space="preserve" text-anchor="start" x="29.38" y="-145.84" font-family="Times,serif" font-size="10.00">pause()</text>
<text xml:space="preserve" text-anchor="start" x="29.38" y="-134.59" font-family="Times,serif" font-size="10.00">status() &#160;&#160;&#160;&#160;&#160;&#160;&#160;&#160;&#160;&#160;&#160;&#160;&#160;&#160;&#160;</text>
<polygon fill="#00688b" stroke="#00688b" points="21.38,-172 21.38,-172 102.62,-172 102.62,-172 21.38,-172"/>
<path fill="none" stroke="#00688b" d="M33.38,-135.5C33.38,-135.5 90.62,-135.5 90.62,-135.5 96.62,-135.5 102.62,-141.5 102.62,-147.5 102.62,-147.5 102.62,-190.5 102.62,-190.5 102.62,-196.5 96.62,-202.5 90.62,-202.5 90.62,-202.5 33.38,-202.5 33.38,-202.5 27.38,-202.5 21.38,-196.5 21.38,-190.5 21.38,-190.5 21.38,-147.5 21.38,-147.5 21.38,-141.5 27.38,-135.5 33.38,-135.5"/>
</g>
<!-- Stopped&#45;&gt;Playing -->
<g id="edge2" class="edge">
<title>Stopped&#45;&gt;Playing</title>
<path fill="none" stroke="red" d="M72.71,-291.61C70.1,-285.74 67.79,-279.56 66.25,-273.5 61.37,-254.25 59.91,-232.34 59.82,-213.66"/>
<polygon fill="red" stroke="red" points="63.32,-213.75 59.92,-203.71 56.32,-213.68 63.32,-213.75"/>
<text xml:space="preserve" text-anchor="middle" x="81.62" y="-260.2" font-family="Times,serif" font-size="14.00"> play </text>
</g>
<!-- Active -->
<g id="node3" class="node">
<title>Active</title>
<ellipse fill="azure" stroke="#00688b" cx="121" cy="-169" rx="0.36" ry="0.36"/>
</g>
<!-- Active&#45;&gt;Stopped -->
<g id="edge5" class="edge">
<title>Active&#45;&gt;Stopped</title>
<path fill="none" stroke="red" d="M112,-249C109.96,-259.43 107.19,-270.52 104.34,-280.89"/>
<polygon fill="red" stroke="red" points="101.02,-279.75 101.65,-290.33 107.76,-281.67 101.02,-279.75"/>
<text xml:space="preserve" text-anchor="middle" x="125.27" y="-260.2" font-family="Times,serif" font-size="14.00"> stop </text>
</g>
<!-- Paused -->
<g id="node5" class="node">
<title>Paused</title>
<path fill="azure" stroke="none" d="M99.62,-83C99.62,-83 42.38,-83 42.38,-83 36.38,-83 30.38,-77 30.38,-71 30.38,-71 30.38,-28 30.38,-28 30.38,-22 36.38,-16 42.38,-16 42.38,-16 99.62,-16 99.62,-16 105.62,-16 111.62,-22 111.62,-28 111.62,-28 111.62,-71 111.62,-71 111.62,-77 105.62,-83 99.62,-83"/>
<text xml:space="preserve" text-anchor="start" x="50.38" y="-62.7" font-family="Times,serif" font-weight="bold" font-size="14.00">Paused</text>
<text xml:space="preserve" text-anchor="start" x="38.38" y="-26.34" font-family="Times,serif" font-size="10.00">play()</text>
<text xml:space="preserve" text-anchor="start" x="38.38" y="-15.09" font-family="Times,serif" font-size="10.00">status() &#160;&#160;&#160;&#160;&#160;&#160;&#160;&#160;&#160;&#160;&#160;&#160;&#160;&#160;&#160;</text>
<polygon fill="#00688b" stroke="#00688b" points="30.38,-52.5 30.38,-52.5 111.62,-52.5 111.62,-52.5 30.38,-52.5"/>
<path fill="none" stroke="#00688b" d="M42.38,-16C42.38,-16 99.62,-16 99.62,-16 105.62,-16 111.62,-22 111.62,-28 111.62,-28 111.62,-71 111.62,-71 111.62,-77 105.62,-83 99.62,-83 99.62,-83 42.38,-83 42.38,-83 36.38,-83 30.38,-77 30.38,-71 30.38,-71 30.38,-28 30.38,-28 30.38,-22 36.38,-16 42.38,-16"/>
</g>
<!-- Playing&#45;&gt;Paused -->
<g id="edge3" class="edge">
<title>Playing&#45;&gt;Paused</title>
<path fill="none" stroke="red" d="M39.05,-135.65C33.97,-124.77 31.06,-112.48 34.75,-101 35.63,-98.26 36.72,-95.54 37.97,-92.87"/>
<polygon fill="red" stroke="red" points="41,-94.64 42.73,-84.18 34.86,-91.28 41,-94.64"/>
<text xml:space="preserve" text-anchor="middle" x="53.88" y="-104.2" font-family="Times,serif" font-size="14.00"> pause </text>
</g>
<!-- Paused&#45;&gt;Playing -->
<g id="edge4" class="edge">
<title>Paused&#45;&gt;Playing</title>
<path fill="none" stroke="red" d="M73.75,-82.94C74.21,-93.94 74.21,-106.28 73,-117.5 72.76,-119.71 72.47,-121.96 72.13,-124.23"/>
<polygon fill="red" stroke="red" points="68.68,-123.62 70.4,-134.08 75.58,-124.84 68.68,-123.62"/>
<text xml:space="preserve" text-anchor="middle" x="89.36" y="-104.2" font-family="Times,serif" font-size="14.00"> play </text>
</g>
</g>
</svg>
