<?xml version="1.0" encoding="UTF-8" standalone="no"?>
<!DOCTYPE svg PUBLIC "-//W3C//DTD SVG 1.1//EN"
 "http://www.w3.org/Graphics/SVG/1.1/DTD/svg11.dtd">
<!-- Generated by graphviz version 14.1.5 (20260411.2331)
 -->
<!-- Title: VideoPlayer Pages: 1 -->
<svg width="187pt" height="418pt"
 viewBox="0.00 0.00 187.00 418.00" xmlns="http://www.w3.org/2000/svg" xmlns:xlink="http://www.w3.org/1999/xlink">
<g id="graph0" class="graph" transform="scale(1 1) rotate(0) translate(4 413.9)">
<title>VideoPlayer</title>
<polygon fill="white" stroke="none" points="-4,4 -4,-413.9 182.54,-413.9 182.54,4 -4,4"/>
<g id="clust1" class="cluster">
<title>cluster_Active</title>
<path fill="none" stroke="black" d="M20,-8C20,-8 156,-8 156,-8 162,-8 168,-14 168,-20 168,-20 168,-237 168,-237 168,-243 162,-249 156,-249 156,-249 20,-249 20,-249 14,-249 8,-243 8,-237 8,-237 8,-20 8,-20 8,-14 14,-8 20,-8"/>
<text xml:space="preserve" text-anchor="start" x="70" y="-228.25" font-family="Times,serif" font-size="14.00">Active</text>
<polygon fill="black" stroke="black" points="66,-221.5 66,-221.5 110,-221.5 110,-221.5 66,-221.5"/>
</g>
<!-- Entry -->
<g id="node1" class="node">
<title>Entry</title>
<ellipse fill="black" stroke="#00688b" cx="119" cy="-402.7" rx="7.2" ry="7.2"/>
</g>
<!-- Stopped -->
<g id="node2" class="node">
<title>Stopped</title>
<path fill="azure" stroke="none" d="M161.12,-358.5C161.12,-358.5 76.88,-358.5 76.88,-358.5 70.88,-358.5 64.88,-352.5 64.88,-346.5 64.88,-346.5 64.88,-303.5 64.88,-303.5 64.88,-297.5 70.88,-291.5 76.88,-291.5 76.88,-291.5 161.12,-291.5 161.12,-291.5 167.12,-291.5 173.12,-297.5 173.12,-303.5 173.12,-303.5 173.12,-346.5 173.12,-346.5 173.12,-352.5 167.12,-358.5 161.12,-358.5"/>
<text xml:space="preserve" text-anchor="start" x="95.38" y="-338.2" font-family="Times,serif" font-weight="bold" font-size="14.00">Stopped</text>
<text xml:space="preserve" text-anchor="start" x="72.88" y="-313" font-family="Times,serif" font-size="10.00"> &#160;&#160;&#160;&#160;&#160;&#160;&#160;&#160;&#160;&#160;&#160;&#160;&#160;&#160;&#160;play()</text>
<text xml:space="preserve" text-anchor="start" x="72.88" y="-301.75" font-family="Times,serif" font-size="10.00"> &#160;&#160;&#160;&#160;&#160;&#160;&#160;&#160;&#160;&#160;&#160;&#160;&#160;&#160;&#160;status() &#160;&#160;&#160;&#160;&#160;&#160;&#160;&#160;&#160;&#160;&#160;</text>
<polygon fill="#00688b" stroke="#00688b" points="64.88,-328 64.88,-328 173.12,-328 173.12,-328 64.88,-328"/>
<path fill="none" stroke="#00688b" d="M76.88,-291.5C76.88,-291.5 161.12,-291.5 161.12,-291.5 167.12,-291.5 173.12,-297.5 173.12,-303.5 173.12,-303.5 173.12,-346.5 173.12,-346.5 173.12,-352.5 167.12,-358.5 161.12,-358.5 161.12,-358.5 76.88,-358.5 76.88,-358.5 70.88,-358.5 64.88,-352.5 64.88,-346.5 64.88,-346.5 64.88,-303.5 64.88,-303.5 64.88,-297.5 70.88,-291.5 76.88,-291.5"/>
</g>
<!-- Entry&#45;&gt;Stopped -->
<g id="edge1" class="edge">
<title>Entry&#45;&gt;Stopped</title>
<path fill="none" stroke="red" d="M119,-395.25C119,-389.27 119,-379.82 119,-369.8"/>
<polygon fill="red" stroke="red" points="122.5,-369.91 119,-359.91 115.5,-369.91 122.5,-369.91"/>
</g>
<!-- Playing -->
<g id="node4" class="node">
<title>Playing</title>
<path fill="azure" stroke="none" d="M130.12,-202.5C130.12,-202.5 27.88,-202.5 27.88,-202.5 21.88,-202.5 15.88,-196.5 15.88,-190.5 15.88,-190.5 15.88,-147.5 15.88,-147.5 15.88,-141.5 21.88,-135.5 27.88,-135.5 27.88,-135.5 130.12,-135.5 130.12,-135.5 136.12,-135.5 142.12,-141.5 142.12,-147.5 142.12,-147.5 142.12,-190.5 142.12,-190.5 142.12,-196.5 136.12,-202.5 130.12,-202.5"/>
<text xml:space="preserve" text-anchor="start" x="57.25" y="-182.2" font-family="Times,serif" font-weight="bold" font-size="14.00">Playing</text>
<text xml:space="preserve" text-anchor="start" x="23.88" y="-157" font-family="Times,serif" font-size="10.00"> &#160;&#160;&#160;&#160;&#160;&#160;&#160;&#160;&#160;&#160;&#160;&#160;&#160;&#160;&#160;&#160;&#160;&#160;&#160;pause()</text>
<text xml:space="preserve" text-anchor="start" x="23.88" y="-145.75" font-family="Times,serif" font-size="10.00"> &#160;&#160;&#160;&#160;&#160;&#160;&#160;&#160;&#160;&#160;&#160;&#160;&#160;&#160;&#160;&#160;&#160;&#160;&#160;status() &#160;&#160;&#160;&#160;&#160;&#160;&#160;&#160;&#160;&#160;&#160;&#160;&#160;&#160;&#160;</text>
<polygon fill="#00688b" stroke="#00688b" points="15.88,-172 15.88,-172 142.12,-172 142.12,-172 15.88,-172"/>
<path fill="none" stroke="#00688b" d="M27.88,-135.5C27.88,-135.5 130.12,-135.5 130.12,-135.5 136.12,-135.5 142.12,-141.5 142.12,-147.5 142.12,-147.5 142.12,-190.5 142.12,-190.5 142.12,-196.5 136.12,-202.5 130.12,-202.5 130.12,-202.5 27.88,-202.5 27.88,-202.5 21.88,-202.5 15.88,-196.5 15.88,-190.5 15.88,-190.5 15.88,-147.5 15.88,-147.5 15.88,-141.5 21.88,-135.5 27.88,-135.5"/>
</g>
<!-- Stopped&#45;&gt;Playing -->
<g id="edge2" class="edge">
<title>Stopped&#45;&gt;Playing</title>
<path fill="none" stroke="red" d="M106.16,-291.64C104.02,-285.66 101.95,-279.43 100.25,-273.5 94.69,-254.08 89.98,-232.21 86.42,-213.6"/>
<polygon fill="red" stroke="red" points="89.89,-213.16 84.63,-203.96 83.01,-214.44 89.89,-213.16"/>
<text xml:space="preserve" text-anchor="middle" x="115.62" y="-260.2" font-family="Times,serif" font-size="14.00"> play </text>
</g>
<!-- Active -->
<g id="node3" class="node">
<title>Active</title>
<ellipse fill="azure" stroke="#00688b" cx="160" cy="-169" rx="0.36" ry="0.36"/>
</g>
<!-- Active&#45;&gt;Stopped -->
<g id="edge5" class="edge">
<title>Active&#45;&gt;Stopped</title>
<path fill="none" stroke="red" d="M151,-249C148.18,-259.67 144.11,-270.79 139.82,-281.1"/>
<polygon fill="red" stroke="red" points="136.68,-279.55 135.91,-290.11 143.1,-282.33 136.68,-279.55"/>
<text xml:space="preserve" text-anchor="middle" x="163.54" y="-260.2" font-family="Times,serif" font-size="14.00"> stop </text>
</g>
<!-- Paused -->
<g id="node5" class="node">
<title>Paused</title>
<path fill="azure" stroke="none" d="M139.12,-83C139.12,-83 36.88,-83 36.88,-83 30.88,-83 24.88,-77 24.88,-71 24.88,-71 24.88,-28 24.88,-28 24.88,-22 30.88,-16 36.88,-16 36.88,-16 139.12,-16 139.12,-16 145.12,-16 151.12,-22 151.12,-28 151.12,-28 151.12,-71 151.12,-71 151.12,-77 145.12,-83 139.12,-83"/>
<text xml:space="preserve" text-anchor="start" x="67.38" y="-62.7" font-family="Times,serif" font-weight="bold" font-size="14.00">Paused</text>
<text xml:space="preserve" text-anchor="start" x="32.88" y="-37.5" font-family="Times,serif" font-size="10.00"> &#160;&#160;&#160;&#160;&#160;&#160;&#160;&#160;&#160;&#160;&#160;&#160;&#160;&#160;&#160;&#160;&#160;&#160;&#160;play()</text>
<text xml:space="preserve" text-anchor="start" x="32.88" y="-26.25" font-family="Times,serif" font-size="10.00"> &#160;&#160;&#160;&#160;&#160;&#160;&#160;&#160;&#160;&#160;&#160;&#160;&#160;&#160;&#160;&#160;&#160;&#160;&#160;status() &#160;&#160;&#160;&#160;&#160;&#160;&#160;&#160;&#160;&#160;&#160;&#160;&#160;&#160;&#160;</text>
<polygon fill="#00688b" stroke="#00688b" points="24.88,-52.5 24.88,-52.5 151.12,-52.5 151.12,-52.5 24.88,-52.5"/>
<path fill="none" stroke="#00688b" d="M36.88,-16C36.88,-16 139.12,-16 139.12,-16 145.12,-16 151.12,-22 151.12,-28 151.12,-28 151.12,-71 151.12,-71 151.12,-77 145.12,-83 139.12,-83 139.12,-83 36.88,-83 36.88,-83 30.88,-83 24.88,-77 24.88,-71 24.88,-71 24.88,-28 24.88,-28 24.88,-22 30.88,-16 36.88,-16"/>
</g>
<!-- Playing&#45;&gt;Paused -->
<g id="edge3" class="edge">
<title>Playing&#45;&gt;Paused</title>
<path fill="none" stroke="red" d="M56.05,-135.65C50.97,-124.77 48.06,-112.48 51.75,-101 52.63,-98.26 53.72,-95.54 54.97,-92.87"/>
<polygon fill="red" stroke="red" points="58,-94.64 59.73,-84.18 51.86,-91.28 58,-94.64"/>
<text xml:space="preserve" text-anchor="middle" x="70.88" y="-104.2" font-family="Times,serif" font-size="14.00"> pause </text>
</g>
<!-- Paused&#45;&gt;Playing -->
<g id="edge4" class="edge">
<title>Paused&#45;&gt;Playing</title>
<path fill="none" stroke="red" d="M90.75,-82.94C91.21,-93.94 91.21,-106.28 90,-117.5 89.76,-119.71 89.47,-121.96 89.13,-124.23"/>
<polygon fill="red" stroke="red" points="85.68,-123.62 87.4,-134.08 92.58,-124.84 85.68,-123.62"/>
<text xml:space="preserve" text-anchor="middle" x="106.36" y="-104.2" font-family="Times,serif" font-size="14.00"> play </text>
</g>
</g>
</svg>
