<?xml version="1.0" encoding="UTF-8" standalone="no"?>
<!DOCTYPE svg PUBLIC "-//W3C//DTD SVG 1.1//EN"
 "http://www.w3.org/Graphics/SVG/1.1/DTD/svg11.dtd">
<!-- Generated by graphviz version 14.1.5 (20260411.2331)
 -->
<!-- Title: VideoPlayer Pages: 1 -->
<svg width="392pt" height="233pt"
 viewBox="0.00 0.00 392.00 233.00" xmlns="http://www.w3.org/2000/svg" xmlns:xlink="http://www.w3.org/1999/xlink">
<g id="graph0" class="graph" transform="scale(1 1) rotate(0) translate(4 228.5)">
<title>VideoPlayer</title>
<polygon fill="white" stroke="none" points="-4,4 -4,-228.5 388.12,-228.5 388.12,4 -4,4"/>
<g id="clust1" class="cluster">
<title>cluster_Active</title>
<path fill="none" stroke="black" d="M84.12,-95C84.12,-95 364.12,-95 364.12,-95 370.12,-95 376.12,-101 376.12,-107 376.12,-107 376.12,-204.5 376.12,-204.5 376.12,-210.5 370.12,-216.5 364.12,-216.5 364.12,-216.5 84.12,-216.5 84.12,-216.5 78.12,-216.5 72.12,-210.5 72.12,-204.5 72.12,-204.5 72.12,-107 72.12,-107 72.12,-101 78.12,-95 84.12,-95"/>
<text xml:space="preserve" text-anchor="start" x="206.12" y="-195.75" font-family="Times,serif" font-size="14.00">Active</text>
<polygon fill="black" stroke="black" points="202.12,-189 202.12,-189 246.12,-189 246.12,-189 202.12,-189"/>
</g>
<!-- Entry -->
<g id="node1" class="node">
<title>Entry</title>
<ellipse fill="black" stroke="#00688b" cx="54.12" cy="-136.5" rx="7.2" ry="7.2"/>
</g>
<!-- Stopped -->
<g id="node2" class="node">
<title>Stopped</title>
<path fill="azure" stroke="none" d="M96.25,-67C96.25,-67 12,-67 12,-67 6,-67 0,-61 0,-55 0,-55 0,-12 0,-12 0,-6 6,0 12,0 12,0 96.25,0 96.25,0 102.25,0 108.25,-6 108.25,-12 108.25,-12 108.25,-55 108.25,-55 108.25,-61 102.25,-67 96.25,-67"/>
<text xml:space="preserve" text-anchor="start" x="30.5" y="-46.7" font-family="Times,serif" font-weight="bold" font-size="14.00">Stopped</text>
<text xml:space="preserve" text-anchor="start" x="24.12" y="-21.5" font-family="Times,serif" font-size="10.00"> &#160;&#160;&#160;&#160;&#160;&#160;&#160;&#160;&#160;&#160;&#160;&#160;&#160;&#160;&#160;play()</text>
<text xml:space="preserve" text-anchor="start" x="8" y="-10.25" font-family="Times,serif" font-size="10.00"> &#160;&#160;&#160;&#160;&#160;&#160;&#160;&#160;&#160;&#160;&#160;&#160;&#160;&#160;&#160;status() &#160;&#160;&#160;&#160;&#160;&#160;&#160;&#160;&#160;&#160;&#160;</text>
<polygon fill="#00688b" stroke="#00688b" points="0,-36.5 0,-36.5 108.25,-36.5 108.25,-36.5 0,-36.5"/>
<path fill="none" stroke="#00688b" d="M12,0C12,0 96.25,0 96.25,0 102.25,0 108.25,-6 108.25,-12 108.25,-12 108.25,-55 108.25,-55 108.25,-61 102.25,-67 96.25,-67 96.25,-67 12,-67 12,-67 6,-67 0,-61 0,-55 0,-55 0,-12 0,-12 0,-6 6,0 12,0"/>
</g>
<!-- Entry&#45;&gt;Stopped -->
<g id="edge1" class="edge">
<title>Entry&#45;&gt;Stopped</title>
<path fill="none" stroke="red" d="M54.12,-128.87C54.12,-118.45 54.12,-97.41 54.12,-77.83"/>
<polygon fill="red" stroke="red" points="57.63,-78.07 54.13,-68.07 50.63,-78.07 57.63,-78.07"/>
</g>
<!-- Active -->
<g id="node3" class="node">
<title>Active</title>
<ellipse fill="azure" stroke="#00688b" cx="80.12" cy="-136.5" rx="0.36" ry="0.36"/>
</g>
<!-- Playing -->
<g id="node4" class="node">
<title>Playing</title>
<path fill="azure" stroke="none" d="M212.25,-170C212.25,-170 110,-170 110,-170 104,-170 98,-164 98,-158 98,-158 98,-115 98,-115 98,-109 104,-103 110,-103 110,-103 212.25,-103 212.25,-103 218.25,-103 224.25,-109 224.25,-115 224.25,-115 224.25,-158 224.25,-158 224.25,-164 218.25,-170 212.25,-170"/>
<text xml:space="preserve" text-anchor="start" x="139.38" y="-149.7" font-family="Times,serif" font-weight="bold" font-size="14.00">Playing</text>
<text xml:space="preserve" text-anchor="start" x="124" y="-124.5" font-family="Times,serif" font-size="10.00"> &#160;&#160;&#160;&#160;&#160;&#160;&#160;&#160;&#160;&#160;&#160;&#160;&#160;&#160;&#160;&#160;&#160;&#160;&#160;pause()</text>
<text xml:space="preserve" text-anchor="start" x="106" y="-113.25" font-family="Times,serif" font-size="10.00"> &#160;&#160;&#160;&#160;&#160;&#160;&#160;&#160;&#160;&#160;&#160;&#160;&#160;&#160;&#160;&#160;&#160;&#160;&#160;status() &#160;&#160;&#160;&#160;&#160;&#160;&#160;&#160;&#160;&#160;&#160;&#160;&#160;&#160;&#160;</text>
<polygon fill="#00688b" stroke="#00688b" points="98,-139.5 98,-139.5 224.25,-139.5 224.25,-139.5 98,-139.5"/>
<path fill="none" stroke="#00688b" d="M110,-103C110,-103 212.25,-103 212.25,-103 218.25,-103 224.25,-109 224.25,-115 224.25,-115 224.25,-158 224.25,-158 224.25,-164 218.25,-170 212.25,-170 212.25,-170 110,-170 110,-170 104,-170 98,-164 98,-158 98,-158 98,-115 98,-115 98,-109 104,-103 110,-103"/>
</g>
<!-- Paused -->
<g id="node5" class="node">
<title>Paused</title>
<path fill="azure" stroke="none" d="M356.25,-170C356.25,-170 254,-170 254,-170 248,-170 242,-164 242,-158 242,-158 242,-115 242,-115 242,-109 248,-103 254,-103 254,-103 356.25,-103 356.25,-103 362.25,-103 368.25,-109 368.25,-115 368.25,-115 368.25,-158 368.25,-158 368.25,-164 362.25,-170 356.25,-170"/>
<text xml:space="preserve" text-anchor="start" x="284.5" y="-149.7" font-family="Times,serif" font-weight="bold" font-size="14.00">Paused</text>
<text xml:space="preserve" text-anchor="start" x="270.62" y="-124.5" font-family="Times,serif" font-size="10.00"> &#160;&#160;&#160;&#160;&#160;&#160;&#160;&#160;&#160;&#160;&#160;&#160;&#160;&#160;&#160;&#160;&#160;&#160;&#160;play()</text>
<text xml:space="preserve" text-anchor="start" x="250" y="-113.25" font-family="Times,serif" font-size="10.00"> &#160;&#160;&#160;&#160;&#160;&#160;&#160;&#160;&#160;&#160;&#160;&#160;&#160;&#160;&#160;&#160;&#160;&#160;&#160;status() &#160;&#160;&#160;&#160;&#160;&#160;&#160;&#160;&#160;&#160;&#160;&#160;&#160;&#160;&#160;</text>
<polygon fill="#00688b" stroke="#00688b" points="242,-139.5 242,-139.5 368.25,-139.5 368.25,-139.5 242,-139.5"/>
<path fill="none" stroke="#00688b" d="M254,-103C254,-103 356.25,-103 356.25,-103 362.25,-103 368.25,-109 368.25,-115 368.25,-115 368.25,-158 368.25,-158 368.25,-164 362.25,-170 356.25,-170 356.25,-170 254,-170 254,-170 248,-170 242,-164 242,-158 242,-158 242,-115 242,-115 242,-109 248,-103 254,-103"/>
</g>
</g>
</svg>
