<?xml version="1.0" encoding="UTF-8" standalone="no"?>
<!DOCTYPE svg PUBLIC "-//W3C//DTD SVG 1.1//EN"
 "http://www.w3.org/Graphics/SVG/1.1/DTD/svg11.dtd">
<!-- Generated by graphviz version 14.1.5 (20260411.2331)
 -->
<!-- Title: OrderProcessor Pages: 1 -->
<svg width="203pt" height="399pt"
 viewBox="0.00 0.00 203.00 399.00" xmlns="http://www.w3.org/2000/svg" xmlns:xlink="http://www.w3.org/1999/xlink">
<g id="graph0" class="graph" transform="scale(1 1) rotate(0) translate(4 395.15)">
<title>OrderProcessor</title>
<polygon fill="white" stroke="none" points="-4,4 -4,-395.15 198.64,-395.15 198.64,4 -4,4"/>
<!-- Entry -->
<g id="node1" class="node">
<title>Entry</title>
<ellipse fill="black" stroke="#00688b" cx="122.12" cy="-383.95" rx="7.2" ry="7.2"/>
</g>
<!-- Idle -->
<g id="node2" class="node">
<title>Idle</title>
<path fill="azure" stroke="none" d="M151.5,-339.75C151.5,-339.75 92.75,-339.75 92.75,-339.75 86.75,-339.75 80.75,-333.75 80.75,-327.75 80.75,-327.75 80.75,-273.5 80.75,-273.5 80.75,-267.5 86.75,-261.5 92.75,-261.5 92.75,-261.5 151.5,-261.5 151.5,-261.5 157.5,-261.5 163.5,-267.5 163.5,-273.5 163.5,-273.5 163.5,-327.75 163.5,-327.75 163.5,-333.75 157.5,-339.75 151.5,-339.75"/>
<text xml:space="preserve" text-anchor="start" x="110.88" y="-319.45" font-family="Times,serif" font-weight="bold" font-size="14.00">Idle</text>
<text xml:space="preserve" text-anchor="start" x="88.75" y="-294.25" font-family="Times,serif" font-size="10.00">submit(item: str)</text>
<text xml:space="preserve" text-anchor="start" x="88.75" y="-283" font-family="Times,serif" font-size="10.00">status()</text>
<text xml:space="preserve" text-anchor="start" x="108.62" y="-271.75" font-family="Times,serif" font-size="10.00"> &#160;&#160;&#160;&#160;&#160;&#160;&#160;&#160;&#160;&#160;&#160;</text>
<polygon fill="#00688b" stroke="#00688b" points="80.75,-309.25 80.75,-309.25 163.5,-309.25 163.5,-309.25 80.75,-309.25"/>
<path fill="none" stroke="#00688b" d="M92.75,-261.5C92.75,-261.5 151.5,-261.5 151.5,-261.5 157.5,-261.5 163.5,-267.5 163.5,-273.5 163.5,-273.5 163.5,-327.75 163.5,-327.75 163.5,-333.75 157.5,-339.75 151.5,-339.75 151.5,-339.75 92.75,-339.75 92.75,-339.75 86.75,-339.75 80.75,-333.75 80.75,-327.75 80.75,-327.75 80.75,-273.5 80.75,-273.5 80.75,-267.5 86.75,-261.5 92.75,-261.5"/>
</g>
<!-- Entry&#45;&gt;Idle -->
<g id="edge1" class="edge">
<title>Entry&#45;&gt;Idle</title>
<path fill="none" stroke="red" d="M122.12,-376.29C122.12,-370.28 122.12,-360.82 122.12,-350.63"/>
<polygon fill="red" stroke="red" points="125.63,-350.94 122.13,-340.94 118.63,-350.94 125.63,-350.94"/>
</g>
<!-- Validating -->
<g id="node3" class="node">
<title>Validating</title>
<path fill="azure" stroke="none" d="M111.12,-209C111.12,-209 59.12,-209 59.12,-209 53.12,-209 47.12,-203 47.12,-197 47.12,-197 47.12,-142.75 47.12,-142.75 47.12,-136.75 53.12,-130.75 59.12,-130.75 59.12,-130.75 111.12,-130.75 111.12,-130.75 117.12,-130.75 123.12,-136.75 123.12,-142.75 123.12,-142.75 123.12,-197 123.12,-197 123.12,-203 117.12,-209 111.12,-209"/>
<text xml:space="preserve" text-anchor="start" x="55.12" y="-188.7" font-family="Times,serif" font-weight="bold" font-size="14.00">Validating</text>
<text xml:space="preserve" text-anchor="start" x="55.12" y="-163.5" font-family="Times,serif" font-size="10.00">$&gt;() [enter]</text>
<text xml:space="preserve" text-anchor="start" x="55.12" y="-152.25" font-family="Times,serif" font-size="10.00">status()</text>
<text xml:space="preserve" text-anchor="start" x="64.5" y="-141" font-family="Times,serif" font-size="10.00"> &#160;&#160;&#160;&#160;&#160;&#160;&#160;&#160;&#160;&#160;&#160;</text>
<polygon fill="#00688b" stroke="#00688b" points="47.12,-178.5 47.12,-178.5 123.12,-178.5 123.12,-178.5 47.12,-178.5"/>
<path fill="none" stroke="#00688b" d="M59.12,-130.75C59.12,-130.75 111.12,-130.75 111.12,-130.75 117.12,-130.75 123.12,-136.75 123.12,-142.75 123.12,-142.75 123.12,-197 123.12,-197 123.12,-203 117.12,-209 111.12,-209 111.12,-209 59.12,-209 59.12,-209 53.12,-209 47.12,-203 47.12,-197 47.12,-197 47.12,-142.75 47.12,-142.75 47.12,-136.75 53.12,-130.75 59.12,-130.75"/>
</g>
<!-- Idle&#45;&gt;Validating -->
<g id="edge2" class="edge">
<title>Idle&#45;&gt;Validating</title>
<path fill="none" stroke="red" d="M106.21,-261.59C104,-255.59 101.88,-249.42 100.12,-243.5 97.88,-235.95 95.86,-227.86 94.07,-219.92"/>
<polygon fill="red" stroke="red" points="97.54,-219.4 92.02,-210.35 90.69,-220.86 97.54,-219.4"/>
<text xml:space="preserve" text-anchor="middle" x="122.62" y="-230.2" font-family="Times,serif" font-size="14.00"> submit </text>
</g>
<!-- Processing -->
<g id="node4" class="node">
<title>Processing</title>
<path fill="azure" stroke="none" d="M176.88,-78.25C176.88,-78.25 111.38,-78.25 111.38,-78.25 105.38,-78.25 99.38,-72.25 99.38,-66.25 99.38,-66.25 99.38,-12 99.38,-12 99.38,-6 105.38,0 111.38,0 111.38,0 176.88,0 176.88,0 182.88,0 188.88,-6 188.88,-12 188.88,-12 188.88,-66.25 188.88,-66.25 188.88,-72.25 182.88,-78.25 176.88,-78.25"/>
<text xml:space="preserve" text-anchor="start" x="113.38" y="-57.95" font-family="Times,serif" font-weight="bold" font-size="14.00">Processing</text>
<text xml:space="preserve" text-anchor="start" x="107.38" y="-32.75" font-family="Times,serif" font-size="10.00">cancel(reason: str)</text>
<text xml:space="preserve" text-anchor="start" x="107.38" y="-21.5" font-family="Times,serif" font-size="10.00">status()</text>
<text xml:space="preserve" text-anchor="start" x="130.62" y="-10.25" font-family="Times,serif" font-size="10.00"> &#160;&#160;&#160;&#160;&#160;&#160;&#160;&#160;&#160;&#160;&#160;</text>
<polygon fill="#00688b" stroke="#00688b" points="99.38,-47.75 99.38,-47.75 188.88,-47.75 188.88,-47.75 99.38,-47.75"/>
<path fill="none" stroke="#00688b" d="M111.38,0C111.38,0 176.88,0 176.88,0 182.88,0 188.88,-6 188.88,-12 188.88,-12 188.88,-66.25 188.88,-66.25 188.88,-72.25 182.88,-78.25 176.88,-78.25 176.88,-78.25 111.38,-78.25 111.38,-78.25 105.38,-78.25 99.38,-72.25 99.38,-66.25 99.38,-66.25 99.38,-12 99.38,-12 99.38,-6 105.38,0 111.38,0"/>
</g>
<!-- Validating&#45;&gt;Processing -->
<g id="edge3" class="edge">
<title>Validating&#45;&gt;Processing</title>
<path fill="none" stroke="red" d="M90.58,-130.92C93.06,-119.45 96.6,-107.03 101.62,-96.25 102.98,-93.34 104.5,-90.44 106.15,-87.57"/>
<polygon fill="red" stroke="red" points="108.99,-89.62 111.32,-79.29 103.06,-85.91 108.99,-89.62"/>
<text xml:space="preserve" text-anchor="middle" x="123.38" y="-99.45" font-family="Times,serif" font-size="14.00"> [enter] </text>
</g>
<!-- Rejected -->
<g id="node5" class="node">
<title>Rejected</title>
<path fill="azure" stroke="none" d="M54.25,-72.62C54.25,-72.62 12,-72.62 12,-72.62 6,-72.62 0,-66.62 0,-60.62 0,-60.62 0,-17.62 0,-17.62 0,-11.62 6,-5.62 12,-5.62 12,-5.62 54.25,-5.62 54.25,-5.62 60.25,-5.62 66.25,-11.62 66.25,-17.62 66.25,-17.62 66.25,-60.62 66.25,-60.62 66.25,-66.62 60.25,-72.62 54.25,-72.62"/>
<text xml:space="preserve" text-anchor="start" x="8" y="-52.33" font-family="Times,serif" font-weight="bold" font-size="14.00">Rejected</text>
<text xml:space="preserve" text-anchor="start" x="8" y="-27.12" font-family="Times,serif" font-size="10.00">status()</text>
<text xml:space="preserve" text-anchor="start" x="9.12" y="-15.88" font-family="Times,serif" font-size="10.00"> &#160;&#160;&#160;&#160;&#160;&#160;&#160;&#160;&#160;&#160;&#160;</text>
<polygon fill="#00688b" stroke="#00688b" points="0,-42.12 0,-42.12 66.25,-42.12 66.25,-42.12 0,-42.12"/>
<path fill="none" stroke="#00688b" d="M12,-5.62C12,-5.62 54.25,-5.62 54.25,-5.62 60.25,-5.62 66.25,-11.62 66.25,-17.62 66.25,-17.62 66.25,-60.62 66.25,-60.62 66.25,-66.62 60.25,-72.62 54.25,-72.62 54.25,-72.62 12,-72.62 12,-72.62 6,-72.62 0,-66.62 0,-60.62 0,-60.62 0,-17.62 0,-17.62 0,-11.62 6,-5.62 12,-5.62"/>
</g>
<!-- Validating&#45;&gt;Rejected -->
<g id="edge4" class="edge">
<title>Validating&#45;&gt;Rejected</title>
<path fill="none" stroke="red" d="M47.23,-134.05C42.12,-127.5 37.61,-120.31 34.62,-112.75 31.06,-103.73 29.5,-93.58 29.06,-83.78"/>
<polygon fill="red" stroke="red" points="32.56,-84.04 29.02,-74.05 25.56,-84.07 32.56,-84.04"/>
<text xml:space="preserve" text-anchor="middle" x="56.38" y="-99.45" font-family="Times,serif" font-size="14.00"> [enter] </text>
</g>
<!-- Processing&#45;&gt;Idle -->
<g id="edge5" class="edge">
<title>Processing&#45;&gt;Idle</title>
<path fill="none" stroke="red" d="M148.76,-78.03C152.76,-119.2 156.31,-186.69 145.12,-243.5 144.65,-245.93 144.06,-248.4 143.39,-250.86"/>
<polygon fill="red" stroke="red" points="140.13,-249.56 140.46,-260.15 146.81,-251.67 140.13,-249.56"/>
<text xml:space="preserve" text-anchor="middle" x="173.64" y="-164.82" font-family="Times,serif" font-size="14.00"> cancel </text>
</g>
</g>
</svg>
