<?xml version="1.0" encoding="UTF-8" standalone="no"?>
<!DOCTYPE svg PUBLIC "-//W3C//DTD SVG 1.1//EN"
 "http://www.w3.org/Graphics/SVG/1.1/DTD/svg11.dtd">
<!-- Generated by graphviz version 14.1.5 (20260411.2331)
 -->
<!-- Title: OrderProcessor Pages: 1 -->
<svg width="196pt" height="399pt"
 viewBox="0.00 0.00 196.00 399.00" xmlns="http://www.w3.org/2000/svg" xmlns:xlink="http://www.w3.org/1999/xlink">
<g id="graph0" class="graph" transform="scale(1 1) rotate(0) translate(4 395.15)">
<title>OrderProcessor</title>
<polygon fill="white" stroke="none" points="-4,4 -4,-395.15 192.04,-395.15 192.04,4 -4,4"/>
<!-- Entry -->
<g id="node1" class="node">
<title>Entry</title>
<ellipse fill="black" stroke="#00688b" cx="114.12" cy="-383.95" rx="7.2" ry="7.2"/>
</g>
<!-- Idle -->
<g id="node2" class="node">
<title>Idle</title>
<path fill="azure" stroke="none" d="M143.5,-339.75C143.5,-339.75 84.75,-339.75 84.75,-339.75 78.75,-339.75 72.75,-333.75 72.75,-327.75 72.75,-327.75 72.75,-273.5 72.75,-273.5 72.75,-267.5 78.75,-261.5 84.75,-261.5 84.75,-261.5 143.5,-261.5 143.5,-261.5 149.5,-261.5 155.5,-267.5 155.5,-273.5 155.5,-273.5 155.5,-327.75 155.5,-327.75 155.5,-333.75 149.5,-339.75 143.5,-339.75"/>
<text xml:space="preserve" text-anchor="start" x="102.88" y="-319.45" font-family="Times,serif" font-weight="bold" font-size="14.00">Idle</text>
<text xml:space="preserve" text-anchor="start" x="80.75" y="-294.25" font-family="Times,serif" font-size="10.00">submit(item: str)</text>
<text xml:space="preserve" text-anchor="start" x="80.75" y="-283" font-family="Times,serif" font-size="10.00">status()</text>
<text xml:space="preserve" text-anchor="start" x="100.62" y="-271.75" font-family="Times,serif" font-size="10.00"> &#160;&#160;&#160;&#160;&#160;&#160;&#160;&#160;&#160;&#160;&#160;</text>
<polygon fill="#00688b" stroke="#00688b" points="72.75,-309.25 72.75,-309.25 155.5,-309.25 155.5,-309.25 72.75,-309.25"/>
<path fill="none" stroke="#00688b" d="M84.75,-261.5C84.75,-261.5 143.5,-261.5 143.5,-261.5 149.5,-261.5 155.5,-267.5 155.5,-273.5 155.5,-273.5 155.5,-327.75 155.5,-327.75 155.5,-333.75 149.5,-339.75 143.5,-339.75 143.5,-339.75 84.75,-339.75 84.75,-339.75 78.75,-339.75 72.75,-333.75 72.75,-327.75 72.75,-327.75 72.75,-273.5 72.75,-273.5 72.75,-267.5 78.75,-261.5 84.75,-261.5"/>
</g>
<!-- Entry&#45;&gt;Idle -->
<g id="edge1" class="edge">
<title>Entry&#45;&gt;Idle</title>
<path fill="none" stroke="red" d="M114.12,-376.29C114.12,-370.28 114.12,-360.82 114.12,-350.63"/>
<polygon fill="red" stroke="red" points="117.63,-350.94 114.13,-340.94 110.63,-350.94 117.63,-350.94"/>
</g>
<!-- Validating -->
<g id="node3" class="node">
<title>Validating</title>
<path fill="azure" stroke="none" d="M103.12,-209C103.12,-209 51.12,-209 51.12,-209 45.12,-209 39.12,-203 39.12,-197 39.12,-197 39.12,-142.75 39.12,-142.75 39.12,-136.75 45.12,-130.75 51.12,-130.75 51.12,-130.75 103.12,-130.75 103.12,-130.75 109.12,-130.75 115.12,-136.75 115.12,-142.75 115.12,-142.75 115.12,-197 115.12,-197 115.12,-203 109.12,-209 103.12,-209"/>
<text xml:space="preserve" text-anchor="start" x="47.12" y="-188.7" font-family="Times,serif" font-weight="bold" font-size="14.00">Validating</text>
<text xml:space="preserve" text-anchor="start" x="47.12" y="-163.5" font-family="Times,serif" font-size="10.00">$&gt;()</text>
<text xml:space="preserve" text-anchor="start" x="47.12" y="-152.25" font-family="Times,serif" font-size="10.00">status()</text>
<text xml:space="preserve" text-anchor="start" x="48.25" y="-141" font-family="Times,serif" font-size="10.00"> &#160;&#160;&#160;&#160;&#160;&#160;&#160;&#160;&#160;&#160;&#160;</text>
<polygon fill="#00688b" stroke="#00688b" points="39.12,-178.5 39.12,-178.5 115.12,-178.5 115.12,-178.5 39.12,-178.5"/>
<path fill="none" stroke="#00688b" d="M51.12,-130.75C51.12,-130.75 103.12,-130.75 103.12,-130.75 109.12,-130.75 115.12,-136.75 115.12,-142.75 115.12,-142.75 115.12,-197 115.12,-197 115.12,-203 109.12,-209 103.12,-209 103.12,-209 51.12,-209 51.12,-209 45.12,-209 39.12,-203 39.12,-197 39.12,-197 39.12,-142.75 39.12,-142.75 39.12,-136.75 45.12,-130.75 51.12,-130.75"/>
</g>
<!-- Idle&#45;&gt;Validating -->
<g id="edge2" class="edge">
<title>Idle&#45;&gt;Validating</title>
<path fill="none" stroke="red" d="M98.21,-261.59C96,-255.59 93.88,-249.42 92.12,-243.5 89.88,-235.95 87.86,-227.86 86.07,-219.92"/>
<polygon fill="red" stroke="red" points="89.54,-219.4 84.02,-210.35 82.69,-220.86 89.54,-219.4"/>
<text xml:space="preserve" text-anchor="middle" x="114.62" y="-230.2" font-family="Times,serif" font-size="14.00"> submit </text>
</g>
<!-- Processing -->
<g id="node4" class="node">
<title>Processing</title>
<path fill="azure" stroke="none" d="M172.88,-78.25C172.88,-78.25 107.38,-78.25 107.38,-78.25 101.38,-78.25 95.38,-72.25 95.38,-66.25 95.38,-66.25 95.38,-12 95.38,-12 95.38,-6 101.38,0 107.38,0 107.38,0 172.88,0 172.88,0 178.88,0 184.88,-6 184.88,-12 184.88,-12 184.88,-66.25 184.88,-66.25 184.88,-72.25 178.88,-78.25 172.88,-78.25"/>
<text xml:space="preserve" text-anchor="start" x="109.38" y="-57.95" font-family="Times,serif" font-weight="bold" font-size="14.00">Processing</text>
<text xml:space="preserve" text-anchor="start" x="103.38" y="-32.75" font-family="Times,serif" font-size="10.00">cancel(reason: str)</text>
<text xml:space="preserve" text-anchor="start" x="103.38" y="-21.5" font-family="Times,serif" font-size="10.00">status()</text>
<text xml:space="preserve" text-anchor="start" x="126.62" y="-10.25" font-family="Times,serif" font-size="10.00"> &#160;&#160;&#160;&#160;&#160;&#160;&#160;&#160;&#160;&#160;&#160;</text>
<polygon fill="#00688b" stroke="#00688b" points="95.38,-47.75 95.38,-47.75 184.88,-47.75 184.88,-47.75 95.38,-47.75"/>
<path fill="none" stroke="#00688b" d="M107.38,0C107.38,0 172.88,0 172.88,0 178.88,0 184.88,-6 184.88,-12 184.88,-12 184.88,-66.25 184.88,-66.25 184.88,-72.25 178.88,-78.25 172.88,-78.25 172.88,-78.25 107.38,-78.25 107.38,-78.25 101.38,-78.25 95.38,-72.25 95.38,-66.25 95.38,-66.25 95.38,-12 95.38,-12 95.38,-6 101.38,0 107.38,0"/>
</g>
<!-- Validating&#45;&gt;Processing -->
<g id="edge3" class="edge">
<title>Validating&#45;&gt;Processing</title>
<path fill="none" stroke="red" d="M88.48,-130.81C92.4,-119.45 97.19,-107.13 102.62,-96.25 104.05,-93.4 105.59,-90.52 107.22,-87.65"/>
<polygon fill="red" stroke="red" points="110.08,-89.68 112.2,-79.3 104.07,-86.09 110.08,-89.68"/>
<text xml:space="preserve" text-anchor="middle" x="119.88" y="-99.45" font-family="Times,serif" font-size="14.00"> valid </text>
</g>
<!-- Rejected -->
<g id="node5" class="node">
<title>Rejected</title>
<path fill="azure" stroke="none" d="M54.25,-72.62C54.25,-72.62 12,-72.62 12,-72.62 6,-72.62 0,-66.62 0,-60.62 0,-60.62 0,-17.62 0,-17.62 0,-11.62 6,-5.62 12,-5.62 12,-5.62 54.25,-5.62 54.25,-5.62 60.25,-5.62 66.25,-11.62 66.25,-17.62 66.25,-17.62 66.25,-60.62 66.25,-60.62 66.25,-66.62 60.25,-72.62 54.25,-72.62"/>
<text xml:space="preserve" text-anchor="start" x="8" y="-52.33" font-family="Times,serif" font-weight="bold" font-size="14.00">Rejected</text>
<text xml:space="preserve" text-anchor="start" x="8" y="-27.12" font-family="Times,serif" font-size="10.00">status()</text>
<text xml:space="preserve" text-anchor="start" x="9.12" y="-15.88" font-family="Times,serif" font-size="10.00"> &#160;&#160;&#160;&#160;&#160;&#160;&#160;&#160;&#160;&#160;&#160;</text>
<polygon fill="#00688b" stroke="#00688b" points="0,-42.12 0,-42.12 66.25,-42.12 66.25,-42.12 0,-42.12"/>
<path fill="none" stroke="#00688b" d="M12,-5.62C12,-5.62 54.25,-5.62 54.25,-5.62 60.25,-5.62 66.25,-11.62 66.25,-17.62 66.25,-17.62 66.25,-60.62 66.25,-60.62 66.25,-66.62 60.25,-72.62 54.25,-72.62 54.25,-72.62 12,-72.62 12,-72.62 6,-72.62 0,-66.62 0,-60.62 0,-60.62 0,-17.62 0,-17.62 0,-11.62 6,-5.62 12,-5.62"/>
</g>
<!-- Validating&#45;&gt;Rejected -->
<g id="edge4" class="edge">
<title>Validating&#45;&gt;Rejected</title>
<path fill="none" stroke="red" d="M43.11,-130.89C39.47,-125.13 36.3,-119.01 34.12,-112.75 30.95,-103.59 29.59,-93.38 29.24,-83.57"/>
<polygon fill="red" stroke="red" points="32.74,-83.86 29.25,-73.85 25.74,-83.85 32.74,-83.86"/>
<text xml:space="preserve" text-anchor="middle" x="56.62" y="-99.45" font-family="Times,serif" font-size="14.00"> invalid </text>
</g>
<!-- Processing&#45;&gt;Idle -->
<g id="edge5" class="edge">
<title>Processing&#45;&gt;Idle</title>
<path fill="none" stroke="red" d="M143.74,-78.06C146.7,-119.26 148.73,-186.76 137.12,-243.5 136.63,-245.93 136.03,-248.39 135.35,-250.85"/>
<polygon fill="red" stroke="red" points="132.09,-249.54 132.38,-260.13 138.76,-251.67 132.09,-249.54"/>
<text xml:space="preserve" text-anchor="middle" x="167.04" y="-164.82" font-family="Times,serif" font-size="14.00"> cancel </text>
</g>
</g>
</svg>
