<?xml version="1.0" encoding="UTF-8" standalone="no"?>
<!DOCTYPE svg PUBLIC "-//W3C//DTD SVG 1.1//EN"
 "http://www.w3.org/Graphics/SVG/1.1/DTD/svg11.dtd">
<!-- Generated by graphviz version 14.1.5 (20260411.2331)
 -->
<!-- Title: OrderProcessor Pages: 1 -->
<svg width="188pt" height="365pt"
 viewBox="0.00 0.00 188.00 365.00" xmlns="http://www.w3.org/2000/svg" xmlns:xlink="http://www.w3.org/1999/xlink">
<g id="graph0" class="graph" transform="scale(1 1) rotate(0) translate(4 361.4)">
<title>OrderProcessor</title>
<polygon fill="white" stroke="none" points="-4,4 -4,-361.4 183.88,-361.4 183.88,4 -4,4"/>
<!-- Entry -->
<g id="node1" class="node">
<title>Entry</title>
<ellipse fill="black" stroke="#00688b" cx="98.12" cy="-350.2" rx="7.2" ry="7.2"/>
</g>
<!-- Idle -->
<g id="node2" class="node">
<title>Idle</title>
<path fill="azure" stroke="none" d="M127.5,-306C127.5,-306 68.75,-306 68.75,-306 62.75,-306 56.75,-300 56.75,-294 56.75,-294 56.75,-251 56.75,-251 56.75,-245 62.75,-239 68.75,-239 68.75,-239 127.5,-239 127.5,-239 133.5,-239 139.5,-245 139.5,-251 139.5,-251 139.5,-294 139.5,-294 139.5,-300 133.5,-306 127.5,-306"/>
<text xml:space="preserve" text-anchor="start" x="86.88" y="-285.7" font-family="Times,serif" font-weight="bold" font-size="14.00">Idle</text>
<text xml:space="preserve" text-anchor="start" x="64.75" y="-249.34" font-family="Times,serif" font-size="10.00">submit(item: str)</text>
<text xml:space="preserve" text-anchor="start" x="70" y="-238.09" font-family="Times,serif" font-size="10.00">status() &#160;&#160;&#160;&#160;&#160;&#160;&#160;&#160;&#160;&#160;&#160;</text>
<polygon fill="#00688b" stroke="#00688b" points="56.75,-275.5 56.75,-275.5 139.5,-275.5 139.5,-275.5 56.75,-275.5"/>
<path fill="none" stroke="#00688b" d="M68.75,-239C68.75,-239 127.5,-239 127.5,-239 133.5,-239 139.5,-245 139.5,-251 139.5,-251 139.5,-294 139.5,-294 139.5,-300 133.5,-306 127.5,-306 127.5,-306 68.75,-306 68.75,-306 62.75,-306 56.75,-300 56.75,-294 56.75,-294 56.75,-251 56.75,-251 56.75,-245 62.75,-239 68.75,-239"/>
</g>
<!-- Entry&#45;&gt;Idle -->
<g id="edge1" class="edge">
<title>Entry&#45;&gt;Idle</title>
<path fill="none" stroke="red" d="M98.12,-342.75C98.12,-336.77 98.12,-327.32 98.12,-317.3"/>
<polygon fill="red" stroke="red" points="101.63,-317.41 98.13,-307.41 94.63,-317.41 101.63,-317.41"/>
</g>
<!-- Validating -->
<g id="node3" class="node">
<title>Validating</title>
<path fill="azure" stroke="none" d="M87.12,-186.5C87.12,-186.5 35.12,-186.5 35.12,-186.5 29.12,-186.5 23.12,-180.5 23.12,-174.5 23.12,-174.5 23.12,-131.5 23.12,-131.5 23.12,-125.5 29.12,-119.5 35.12,-119.5 35.12,-119.5 87.12,-119.5 87.12,-119.5 93.12,-119.5 99.12,-125.5 99.12,-131.5 99.12,-131.5 99.12,-174.5 99.12,-174.5 99.12,-180.5 93.12,-186.5 87.12,-186.5"/>
<text xml:space="preserve" text-anchor="start" x="31.12" y="-166.2" font-family="Times,serif" font-weight="bold" font-size="14.00">Validating</text>
<text xml:space="preserve" text-anchor="start" x="31.12" y="-129.84" font-family="Times,serif" font-size="10.00">$&gt;() [enter]</text>
<text xml:space="preserve" text-anchor="start" x="31.12" y="-118.59" font-family="Times,serif" font-size="10.00">status() &#160;&#160;&#160;&#160;&#160;&#160;&#160;&#160;&#160;&#160;&#160;</text>
<polygon fill="#00688b" stroke="#00688b" points="23.12,-156 23.12,-156 99.12,-156 99.12,-156 23.12,-156"/>
<path fill="none" stroke="#00688b" d="M35.12,-119.5C35.12,-119.5 87.12,-119.5 87.12,-119.5 93.12,-119.5 99.12,-125.5 99.12,-131.5 99.12,-131.5 99.12,-174.5 99.12,-174.5 99.12,-180.5 93.12,-186.5 87.12,-186.5 87.12,-186.5 35.12,-186.5 35.12,-186.5 29.12,-186.5 23.12,-180.5 23.12,-174.5 23.12,-174.5 23.12,-131.5 23.12,-131.5 23.12,-125.5 29.12,-119.5 35.12,-119.5"/>
</g>
<!-- Idle&#45;&gt;Validating -->
<g id="edge2" class="edge">
<title>Idle&#45;&gt;Validating</title>
<path fill="none" stroke="red" d="M82.99,-239.25C80.49,-233.26 78.08,-227 76.12,-221 73.66,-213.45 71.46,-205.3 69.56,-197.36"/>
<polygon fill="red" stroke="red" points="73.03,-196.83 67.41,-187.85 66.2,-198.37 73.03,-196.83"/>
<text xml:space="preserve" text-anchor="middle" x="98.62" y="-207.7" font-family="Times,serif" font-size="14.00"> submit </text>
</g>
<!-- Processing -->
<g id="node4" class="node">
<title>Processing</title>
<path fill="azure" stroke="none" d="M167.88,-67C167.88,-67 102.38,-67 102.38,-67 96.38,-67 90.38,-61 90.38,-55 90.38,-55 90.38,-12 90.38,-12 90.38,-6 96.38,0 102.38,0 102.38,0 167.88,0 167.88,0 173.88,0 179.88,-6 179.88,-12 179.88,-12 179.88,-55 179.88,-55 179.88,-61 173.88,-67 167.88,-67"/>
<text xml:space="preserve" text-anchor="start" x="104.38" y="-46.7" font-family="Times,serif" font-weight="bold" font-size="14.00">Processing</text>
<text xml:space="preserve" text-anchor="start" x="98.38" y="-10.34" font-family="Times,serif" font-size="10.00">cancel(reason: str)</text>
<text xml:space="preserve" text-anchor="start" x="107" y="0.91" font-family="Times,serif" font-size="10.00">status() &#160;&#160;&#160;&#160;&#160;&#160;&#160;&#160;&#160;&#160;&#160;</text>
<polygon fill="#00688b" stroke="#00688b" points="90.38,-36.5 90.38,-36.5 179.88,-36.5 179.88,-36.5 90.38,-36.5"/>
<path fill="none" stroke="#00688b" d="M102.38,0C102.38,0 167.88,0 167.88,0 173.88,0 179.88,-6 179.88,-12 179.88,-12 179.88,-55 179.88,-55 179.88,-61 173.88,-67 167.88,-67 167.88,-67 102.38,-67 102.38,-67 96.38,-67 90.38,-61 90.38,-55 90.38,-55 90.38,-12 90.38,-12 90.38,-6 96.38,0 102.38,0"/>
</g>
<!-- Validating&#45;&gt;Processing -->
<g id="edge3" class="edge">
<title>Validating&#45;&gt;Processing</title>
<path fill="none" stroke="red" d="M78.31,-119.52C84.45,-108.41 91.6,-96.01 98.62,-85 100.46,-82.13 102.39,-79.2 104.37,-76.27"/>
<polygon fill="red" stroke="red" points="107.13,-78.45 109.94,-68.23 101.37,-74.46 107.13,-78.45"/>
<text xml:space="preserve" text-anchor="middle" x="109.88" y="-88.2" font-family="Times,serif" font-size="14.00"> $&gt; </text>
</g>
<!-- Rejected -->
<g id="node5" class="node">
<title>Rejected</title>
<path fill="azure" stroke="none" d="M60.25,-61.38C60.25,-61.38 12,-61.38 12,-61.38 6,-61.38 0,-55.38 0,-49.38 0,-49.38 0,-17.62 0,-17.62 0,-11.62 6,-5.62 12,-5.62 12,-5.62 60.25,-5.62 60.25,-5.62 66.25,-5.62 72.25,-11.62 72.25,-17.62 72.25,-17.62 72.25,-49.38 72.25,-49.38 72.25,-55.38 66.25,-61.38 60.25,-61.38"/>
<text xml:space="preserve" text-anchor="start" x="11" y="-41.08" font-family="Times,serif" font-weight="bold" font-size="14.00">Rejected</text>
<text xml:space="preserve" text-anchor="start" x="8" y="-4.71" font-family="Times,serif" font-size="10.00">status() &#160;&#160;&#160;&#160;&#160;&#160;&#160;&#160;&#160;&#160;&#160;</text>
<polygon fill="#00688b" stroke="#00688b" points="0,-30.88 0,-30.88 72.25,-30.88 72.25,-30.88 0,-30.88"/>
<path fill="none" stroke="#00688b" d="M12,-5.62C12,-5.62 60.25,-5.62 60.25,-5.62 66.25,-5.62 72.25,-11.62 72.25,-17.62 72.25,-17.62 72.25,-49.38 72.25,-49.38 72.25,-55.38 66.25,-61.38 60.25,-61.38 60.25,-61.38 12,-61.38 12,-61.38 6,-61.38 0,-55.38 0,-49.38 0,-49.38 0,-17.62 0,-17.62 0,-11.62 6,-5.62 12,-5.62"/>
</g>
<!-- Validating&#45;&gt;Rejected -->
<g id="edge4" class="edge">
<title>Validating&#45;&gt;Rejected</title>
<path fill="none" stroke="red" d="M50.36,-119.6C48.61,-113.63 46.94,-107.41 45.62,-101.5 43.54,-92.12 41.81,-81.9 40.43,-72.33"/>
<polygon fill="red" stroke="red" points="43.92,-72.03 39.12,-62.58 36.99,-72.96 43.92,-72.03"/>
<text xml:space="preserve" text-anchor="middle" x="56.88" y="-88.2" font-family="Times,serif" font-size="14.00"> $&gt; </text>
</g>
<!-- Processing&#45;&gt;Idle -->
<g id="edge5" class="edge">
<title>Processing&#45;&gt;Idle</title>
<path fill="none" stroke="red" d="M136.11,-66.73C136.47,-104.36 134.68,-168.16 121.12,-221 120.47,-223.56 119.69,-226.15 118.82,-228.73"/>
<polygon fill="red" stroke="red" points="115.64,-227.24 115.37,-237.83 122.19,-229.72 115.64,-227.24"/>
<text xml:space="preserve" text-anchor="middle" x="155.98" y="-147.95" font-family="Times,serif" font-size="14.00"> cancel </text>
</g>
</g>
</svg>
