<?xml version="1.0" encoding="UTF-8" standalone="no"?>
<!DOCTYPE svg PUBLIC "-//W3C//DTD SVG 1.1//EN"
 "http://www.w3.org/Graphics/SVG/1.1/DTD/svg11.dtd">
<!-- Generated by graphviz version 14.1.5 (20260411.2331)
 -->
<!-- Title: OrderProcessor Pages: 1 -->
<svg width="182pt" height="399pt"
 viewBox="0.00 0.00 182.00 399.00" xmlns="http://www.w3.org/2000/svg" xmlns:xlink="http://www.w3.org/1999/xlink">
<g id="graph0" class="graph" transform="scale(1 1) rotate(0) translate(4 395.15)">
<title>OrderProcessor</title>
<polygon fill="white" stroke="none" points="-4,4 -4,-395.15 177.88,-395.15 177.88,4 -4,4"/>
<!-- Entry -->
<g id="node1" class="node">
<title>Entry</title>
<ellipse fill="black" stroke="#00688b" cx="92.12" cy="-383.95" rx="7.2" ry="7.2"/>
</g>
<!-- Idle -->
<g id="node2" class="node">
<title>Idle</title>
<path fill="azure" stroke="none" d="M121.5,-339.75C121.5,-339.75 62.75,-339.75 62.75,-339.75 56.75,-339.75 50.75,-333.75 50.75,-327.75 50.75,-327.75 50.75,-273.5 50.75,-273.5 50.75,-267.5 56.75,-261.5 62.75,-261.5 62.75,-261.5 121.5,-261.5 121.5,-261.5 127.5,-261.5 133.5,-267.5 133.5,-273.5 133.5,-273.5 133.5,-327.75 133.5,-327.75 133.5,-333.75 127.5,-339.75 121.5,-339.75"/>
<text xml:space="preserve" text-anchor="start" x="80.88" y="-319.45" font-family="Times,serif" font-weight="bold" font-size="14.00">Idle</text>
<text xml:space="preserve" text-anchor="start" x="58.75" y="-294.25" font-family="Times,serif" font-size="10.00">submit(item: str)</text>
<text xml:space="preserve" text-anchor="start" x="58.75" y="-283" font-family="Times,serif" font-size="10.00">status()</text>
<text xml:space="preserve" text-anchor="start" x="78.62" y="-271.75" font-family="Times,serif" font-size="10.00"> &#160;&#160;&#160;&#160;&#160;&#160;&#160;&#160;&#160;&#160;&#160;</text>
<polygon fill="#00688b" stroke="#00688b" points="50.75,-309.25 50.75,-309.25 133.5,-309.25 133.5,-309.25 50.75,-309.25"/>
<path fill="none" stroke="#00688b" d="M62.75,-261.5C62.75,-261.5 121.5,-261.5 121.5,-261.5 127.5,-261.5 133.5,-267.5 133.5,-273.5 133.5,-273.5 133.5,-327.75 133.5,-327.75 133.5,-333.75 127.5,-339.75 121.5,-339.75 121.5,-339.75 62.75,-339.75 62.75,-339.75 56.75,-339.75 50.75,-333.75 50.75,-327.75 50.75,-327.75 50.75,-273.5 50.75,-273.5 50.75,-267.5 56.75,-261.5 62.75,-261.5"/>
</g>
<!-- Entry&#45;&gt;Idle -->
<g id="edge1" class="edge">
<title>Entry&#45;&gt;Idle</title>
<path fill="none" stroke="red" d="M92.12,-376.29C92.12,-370.28 92.12,-360.82 92.12,-350.63"/>
<polygon fill="red" stroke="red" points="95.63,-350.94 92.13,-340.94 88.63,-350.94 95.63,-350.94"/>
</g>
<!-- Validating -->
<g id="node3" class="node">
<title>Validating</title>
<path fill="azure" stroke="none" d="M81.12,-209C81.12,-209 29.12,-209 29.12,-209 23.12,-209 17.12,-203 17.12,-197 17.12,-197 17.12,-142.75 17.12,-142.75 17.12,-136.75 23.12,-130.75 29.12,-130.75 29.12,-130.75 81.12,-130.75 81.12,-130.75 87.12,-130.75 93.12,-136.75 93.12,-142.75 93.12,-142.75 93.12,-197 93.12,-197 93.12,-203 87.12,-209 81.12,-209"/>
<text xml:space="preserve" text-anchor="start" x="25.12" y="-188.7" font-family="Times,serif" font-weight="bold" font-size="14.00">Validating</text>
<text xml:space="preserve" text-anchor="start" x="25.12" y="-163.5" font-family="Times,serif" font-size="10.00">$&gt;()</text>
<text xml:space="preserve" text-anchor="start" x="25.12" y="-152.25" font-family="Times,serif" font-size="10.00">status()</text>
<text xml:space="preserve" text-anchor="start" x="26.25" y="-141" font-family="Times,serif" font-size="10.00"> &#160;&#160;&#160;&#160;&#160;&#160;&#160;&#160;&#160;&#160;&#160;</text>
<polygon fill="#00688b" stroke="#00688b" points="17.12,-178.5 17.12,-178.5 93.12,-178.5 93.12,-178.5 17.12,-178.5"/>
<path fill="none" stroke="#00688b" d="M29.12,-130.75C29.12,-130.75 81.12,-130.75 81.12,-130.75 87.12,-130.75 93.12,-136.75 93.12,-142.75 93.12,-142.75 93.12,-197 93.12,-197 93.12,-203 87.12,-209 81.12,-209 81.12,-209 29.12,-209 29.12,-209 23.12,-209 17.12,-203 17.12,-197 17.12,-197 17.12,-142.75 17.12,-142.75 17.12,-136.75 23.12,-130.75 29.12,-130.75"/>
</g>
<!-- Idle&#45;&gt;Validating -->
<g id="edge2" class="edge">
<title>Idle&#45;&gt;Validating</title>
<path fill="none" stroke="red" d="M76.21,-261.59C74,-255.59 71.88,-249.42 70.12,-243.5 67.88,-235.95 65.86,-227.86 64.07,-219.92"/>
<polygon fill="red" stroke="red" points="67.54,-219.4 62.02,-210.35 60.69,-220.86 67.54,-219.4"/>
<text xml:space="preserve" text-anchor="middle" x="92.62" y="-230.2" font-family="Times,serif" font-size="14.00"> submit </text>
</g>
<!-- Processing -->
<g id="node4" class="node">
<title>Processing</title>
<path fill="azure" stroke="none" d="M161.88,-78.25C161.88,-78.25 96.38,-78.25 96.38,-78.25 90.38,-78.25 84.38,-72.25 84.38,-66.25 84.38,-66.25 84.38,-12 84.38,-12 84.38,-6 90.38,0 96.38,0 96.38,0 161.88,0 161.88,0 167.88,0 173.88,-6 173.88,-12 173.88,-12 173.88,-66.25 173.88,-66.25 173.88,-72.25 167.88,-78.25 161.88,-78.25"/>
<text xml:space="preserve" text-anchor="start" x="98.38" y="-57.95" font-family="Times,serif" font-weight="bold" font-size="14.00">Processing</text>
<text xml:space="preserve" text-anchor="start" x="92.38" y="-32.75" font-family="Times,serif" font-size="10.00">cancel(reason: str)</text>
<text xml:space="preserve" text-anchor="start" x="92.38" y="-21.5" font-family="Times,serif" font-size="10.00">status()</text>
<text xml:space="preserve" text-anchor="start" x="115.62" y="-10.25" font-family="Times,serif" font-size="10.00"> &#160;&#160;&#160;&#160;&#160;&#160;&#160;&#160;&#160;&#160;&#160;</text>
<polygon fill="#00688b" stroke="#00688b" points="84.38,-47.75 84.38,-47.75 173.88,-47.75 173.88,-47.75 84.38,-47.75"/>
<path fill="none" stroke="#00688b" d="M96.38,0C96.38,0 161.88,0 161.88,0 167.88,0 173.88,-6 173.88,-12 173.88,-12 173.88,-66.25 173.88,-66.25 173.88,-72.25 167.88,-78.25 161.88,-78.25 161.88,-78.25 96.38,-78.25 96.38,-78.25 90.38,-78.25 84.38,-72.25 84.38,-66.25 84.38,-66.25 84.38,-12 84.38,-12 84.38,-6 90.38,0 96.38,0"/>
</g>
<!-- Validating&#45;&gt;Processing -->
<g id="edge3" class="edge">
<title>Validating&#45;&gt;Processing</title>
<path fill="none" stroke="red" d="M73.88,-130.79C79.67,-119.54 86.21,-107.29 92.62,-96.25 94.24,-93.47 95.93,-90.64 97.67,-87.79"/>
<polygon fill="red" stroke="red" points="100.56,-89.77 102.87,-79.43 94.62,-86.07 100.56,-89.77"/>
<text xml:space="preserve" text-anchor="middle" x="103.88" y="-99.45" font-family="Times,serif" font-size="14.00"> $&gt; </text>
</g>
<!-- Rejected -->
<g id="node5" class="node">
<title>Rejected</title>
<path fill="azure" stroke="none" d="M54.25,-72.62C54.25,-72.62 12,-72.62 12,-72.62 6,-72.62 0,-66.62 0,-60.62 0,-60.62 0,-17.62 0,-17.62 0,-11.62 6,-5.62 12,-5.62 12,-5.62 54.25,-5.62 54.25,-5.62 60.25,-5.62 66.25,-11.62 66.25,-17.62 66.25,-17.62 66.25,-60.62 66.25,-60.62 66.25,-66.62 60.25,-72.62 54.25,-72.62"/>
<text xml:space="preserve" text-anchor="start" x="8" y="-52.33" font-family="Times,serif" font-weight="bold" font-size="14.00">Rejected</text>
<text xml:space="preserve" text-anchor="start" x="8" y="-27.12" font-family="Times,serif" font-size="10.00">status()</text>
<text xml:space="preserve" text-anchor="start" x="9.12" y="-15.88" font-family="Times,serif" font-size="10.00"> &#160;&#160;&#160;&#160;&#160;&#160;&#160;&#160;&#160;&#160;&#160;</text>
<polygon fill="#00688b" stroke="#00688b" points="0,-42.12 0,-42.12 66.25,-42.12 66.25,-42.12 0,-42.12"/>
<path fill="none" stroke="#00688b" d="M12,-5.62C12,-5.62 54.25,-5.62 54.25,-5.62 60.25,-5.62 66.25,-11.62 66.25,-17.62 66.25,-17.62 66.25,-60.62 66.25,-60.62 66.25,-66.62 60.25,-72.62 54.25,-72.62 54.25,-72.62 12,-72.62 12,-72.62 6,-72.62 0,-66.62 0,-60.62 0,-60.62 0,-17.62 0,-17.62 0,-11.62 6,-5.62 12,-5.62"/>
</g>
<!-- Validating&#45;&gt;Rejected -->
<g id="edge4" class="edge">
<title>Validating&#45;&gt;Rejected</title>
<path fill="none" stroke="red" d="M44.52,-131.01C43.06,-124.93 41.69,-118.69 40.62,-112.75 38.95,-103.44 37.62,-93.38 36.56,-83.81"/>
<polygon fill="red" stroke="red" points="40.06,-83.55 35.57,-73.95 33.09,-84.25 40.06,-83.55"/>
<text xml:space="preserve" text-anchor="middle" x="51.88" y="-99.45" font-family="Times,serif" font-size="14.00"> $&gt; </text>
</g>
<!-- Processing&#45;&gt;Idle -->
<g id="edge5" class="edge">
<title>Processing&#45;&gt;Idle</title>
<path fill="none" stroke="red" d="M130.1,-78.14C130.33,-119.4 128.29,-186.97 115.12,-243.5 114.56,-245.92 113.91,-248.36 113.18,-250.82"/>
<polygon fill="red" stroke="red" points="109.94,-249.48 110.11,-260.08 116.58,-251.69 109.94,-249.48"/>
<text xml:space="preserve" text-anchor="middle" x="150.07" y="-164.82" font-family="Times,serif" font-size="14.00"> cancel </text>
</g>
</g>
</svg>
