<?xml version="1.0" encoding="UTF-8" standalone="no"?>
<!DOCTYPE svg PUBLIC "-//W3C//DTD SVG 1.1//EN"
 "http://www.w3.org/Graphics/SVG/1.1/DTD/svg11.dtd">
<!-- Generated by graphviz version 14.1.5 (20260411.2331)
 -->
<!-- Title: OrderProcessor Pages: 1 -->
<svg width="260pt" height="365pt"
 viewBox="0.00 0.00 260.00 365.00" xmlns="http://www.w3.org/2000/svg" xmlns:xlink="http://www.w3.org/1999/xlink">
<g id="graph0" class="graph" transform="scale(1 1) rotate(0) translate(4 361.4)">
<title>OrderProcessor</title>
<polygon fill="white" stroke="none" points="-4,4 -4,-361.4 255.88,-361.4 255.88,4 -4,4"/>
<!-- Entry -->
<g id="node1" class="node">
<title>Entry</title>
<ellipse fill="black" stroke="#00688b" cx="144.12" cy="-350.2" rx="7.2" ry="7.2"/>
</g>
<!-- Idle -->
<g id="node2" class="node">
<title>Idle</title>
<path fill="azure" stroke="none" d="M191.5,-306C191.5,-306 96.75,-306 96.75,-306 90.75,-306 84.75,-300 84.75,-294 84.75,-294 84.75,-251 84.75,-251 84.75,-245 90.75,-239 96.75,-239 96.75,-239 191.5,-239 191.5,-239 197.5,-239 203.5,-245 203.5,-251 203.5,-251 203.5,-294 203.5,-294 203.5,-300 197.5,-306 191.5,-306"/>
<text xml:space="preserve" text-anchor="start" x="132.88" y="-285.7" font-family="Times,serif" font-weight="bold" font-size="14.00">Idle</text>
<text xml:space="preserve" text-anchor="start" x="92.75" y="-260.5" font-family="Times,serif" font-size="10.00"> &#160;&#160;&#160;&#160;&#160;&#160;&#160;&#160;&#160;&#160;&#160;&#160;&#160;&#160;&#160;submit(item: str)</text>
<text xml:space="preserve" text-anchor="start" x="98" y="-249.25" font-family="Times,serif" font-size="10.00"> &#160;&#160;&#160;&#160;&#160;&#160;&#160;&#160;&#160;&#160;&#160;&#160;&#160;&#160;&#160;status() &#160;&#160;&#160;&#160;&#160;&#160;&#160;&#160;&#160;&#160;&#160;</text>
<polygon fill="#00688b" stroke="#00688b" points="84.75,-275.5 84.75,-275.5 203.5,-275.5 203.5,-275.5 84.75,-275.5"/>
<path fill="none" stroke="#00688b" d="M96.75,-239C96.75,-239 191.5,-239 191.5,-239 197.5,-239 203.5,-245 203.5,-251 203.5,-251 203.5,-294 203.5,-294 203.5,-300 197.5,-306 191.5,-306 191.5,-306 96.75,-306 96.75,-306 90.75,-306 84.75,-300 84.75,-294 84.75,-294 84.75,-251 84.75,-251 84.75,-245 90.75,-239 96.75,-239"/>
</g>
<!-- Entry&#45;&gt;Idle -->
<g id="edge1" class="edge">
<title>Entry&#45;&gt;Idle</title>
<path fill="none" stroke="red" d="M144.12,-342.75C144.12,-336.77 144.12,-327.32 144.12,-317.3"/>
<polygon fill="red" stroke="red" points="147.63,-317.41 144.13,-307.41 140.63,-317.41 147.63,-317.41"/>
</g>
<!-- Validating -->
<g id="node3" class="node">
<title>Validating</title>
<path fill="azure" stroke="none" d="M141.25,-186.5C141.25,-186.5 57,-186.5 57,-186.5 51,-186.5 45,-180.5 45,-174.5 45,-174.5 45,-131.5 45,-131.5 45,-125.5 51,-119.5 57,-119.5 57,-119.5 141.25,-119.5 141.25,-119.5 147.25,-119.5 153.25,-125.5 153.25,-131.5 153.25,-131.5 153.25,-174.5 153.25,-174.5 153.25,-180.5 147.25,-186.5 141.25,-186.5"/>
<text xml:space="preserve" text-anchor="start" x="69.12" y="-166.2" font-family="Times,serif" font-weight="bold" font-size="14.00">Validating</text>
<text xml:space="preserve" text-anchor="start" x="53" y="-141" font-family="Times,serif" font-size="10.00"> &#160;&#160;&#160;&#160;&#160;&#160;&#160;&#160;&#160;&#160;&#160;&#160;&#160;&#160;&#160;$&gt;() [enter]</text>
<text xml:space="preserve" text-anchor="start" x="53" y="-129.75" font-family="Times,serif" font-size="10.00"> &#160;&#160;&#160;&#160;&#160;&#160;&#160;&#160;&#160;&#160;&#160;&#160;&#160;&#160;&#160;status() &#160;&#160;&#160;&#160;&#160;&#160;&#160;&#160;&#160;&#160;&#160;</text>
<polygon fill="#00688b" stroke="#00688b" points="45,-156 45,-156 153.25,-156 153.25,-156 45,-156"/>
<path fill="none" stroke="#00688b" d="M57,-119.5C57,-119.5 141.25,-119.5 141.25,-119.5 147.25,-119.5 153.25,-125.5 153.25,-131.5 153.25,-131.5 153.25,-174.5 153.25,-174.5 153.25,-180.5 147.25,-186.5 141.25,-186.5 141.25,-186.5 57,-186.5 57,-186.5 51,-186.5 45,-180.5 45,-174.5 45,-174.5 45,-131.5 45,-131.5 45,-125.5 51,-119.5 57,-119.5"/>
</g>
<!-- Idle&#45;&gt;Validating -->
<g id="edge2" class="edge">
<title>Idle&#45;&gt;Validating</title>
<path fill="none" stroke="red" d="M131.71,-239.08C126.69,-225.98 120.83,-210.68 115.48,-196.69"/>
<polygon fill="red" stroke="red" points="118.89,-195.81 112.04,-187.73 112.35,-198.32 118.89,-195.81"/>
<text xml:space="preserve" text-anchor="middle" x="146.82" y="-207.7" font-family="Times,serif" font-size="14.00"> submit </text>
</g>
<!-- Processing -->
<g id="node4" class="node">
<title>Processing</title>
<path fill="azure" stroke="none" d="M239.88,-67C239.88,-67 138.38,-67 138.38,-67 132.38,-67 126.38,-61 126.38,-55 126.38,-55 126.38,-12 126.38,-12 126.38,-6 132.38,0 138.38,0 138.38,0 239.88,0 239.88,0 245.88,0 251.88,-6 251.88,-12 251.88,-12 251.88,-55 251.88,-55 251.88,-61 245.88,-67 239.88,-67"/>
<text xml:space="preserve" text-anchor="start" x="158.38" y="-46.7" font-family="Times,serif" font-weight="bold" font-size="14.00">Processing</text>
<text xml:space="preserve" text-anchor="start" x="134.38" y="-21.5" font-family="Times,serif" font-size="10.00"> &#160;&#160;&#160;&#160;&#160;&#160;&#160;&#160;&#160;&#160;&#160;&#160;&#160;&#160;&#160;cancel(reason: str)</text>
<text xml:space="preserve" text-anchor="start" x="143" y="-10.25" font-family="Times,serif" font-size="10.00"> &#160;&#160;&#160;&#160;&#160;&#160;&#160;&#160;&#160;&#160;&#160;&#160;&#160;&#160;&#160;status() &#160;&#160;&#160;&#160;&#160;&#160;&#160;&#160;&#160;&#160;&#160;</text>
<polygon fill="#00688b" stroke="#00688b" points="126.38,-36.5 126.38,-36.5 251.88,-36.5 251.88,-36.5 126.38,-36.5"/>
<path fill="none" stroke="#00688b" d="M138.38,0C138.38,0 239.88,0 239.88,0 245.88,0 251.88,-6 251.88,-12 251.88,-12 251.88,-55 251.88,-55 251.88,-61 245.88,-67 239.88,-67 239.88,-67 138.38,-67 138.38,-67 132.38,-67 126.38,-61 126.38,-55 126.38,-55 126.38,-12 126.38,-12 126.38,-6 132.38,0 138.38,0"/>
</g>
<!-- Validating&#45;&gt;Processing -->
<g id="edge3" class="edge">
<title>Validating&#45;&gt;Processing</title>
<path fill="none" stroke="red" d="M123.96,-119.58C134.38,-105.97 146.63,-89.98 157.68,-75.55"/>
<polygon fill="red" stroke="red" points="160.15,-78.08 163.45,-68.01 154.6,-73.82 160.15,-78.08"/>
<text xml:space="preserve" text-anchor="middle" x="160.76" y="-88.2" font-family="Times,serif" font-size="14.00"> $&gt; </text>
</g>
<!-- Rejected -->
<g id="node5" class="node">
<title>Rejected</title>
<path fill="azure" stroke="none" d="M96.25,-61.38C96.25,-61.38 12,-61.38 12,-61.38 6,-61.38 0,-55.38 0,-49.38 0,-49.38 0,-17.62 0,-17.62 0,-11.62 6,-5.62 12,-5.62 12,-5.62 96.25,-5.62 96.25,-5.62 102.25,-5.62 108.25,-11.62 108.25,-17.62 108.25,-17.62 108.25,-49.38 108.25,-49.38 108.25,-55.38 102.25,-61.38 96.25,-61.38"/>
<text xml:space="preserve" text-anchor="start" x="29" y="-41.08" font-family="Times,serif" font-weight="bold" font-size="14.00">Rejected</text>
<text xml:space="preserve" text-anchor="start" x="8" y="-15.88" font-family="Times,serif" font-size="10.00"> &#160;&#160;&#160;&#160;&#160;&#160;&#160;&#160;&#160;&#160;&#160;&#160;&#160;&#160;&#160;status() &#160;&#160;&#160;&#160;&#160;&#160;&#160;&#160;&#160;&#160;&#160;</text>
<polygon fill="#00688b" stroke="#00688b" points="0,-30.88 0,-30.88 108.25,-30.88 108.25,-30.88 0,-30.88"/>
<path fill="none" stroke="#00688b" d="M12,-5.62C12,-5.62 96.25,-5.62 96.25,-5.62 102.25,-5.62 108.25,-11.62 108.25,-17.62 108.25,-17.62 108.25,-49.38 108.25,-49.38 108.25,-55.38 102.25,-61.38 96.25,-61.38 96.25,-61.38 12,-61.38 12,-61.38 6,-61.38 0,-55.38 0,-49.38 0,-49.38 0,-17.62 0,-17.62 0,-11.62 6,-5.62 12,-5.62"/>
</g>
<!-- Validating&#45;&gt;Rejected -->
<g id="edge4" class="edge">
<title>Validating&#45;&gt;Rejected</title>
<path fill="none" stroke="red" d="M86.71,-119.58C81.06,-104.82 74.33,-87.27 68.47,-71.95"/>
<polygon fill="red" stroke="red" points="71.76,-70.76 64.92,-62.68 65.22,-73.27 71.76,-70.76"/>
<text xml:space="preserve" text-anchor="middle" x="90.57" y="-88.2" font-family="Times,serif" font-size="14.00"> $&gt; </text>
</g>
<!-- Processing&#45;&gt;Idle -->
<g id="edge5" class="edge">
<title>Processing&#45;&gt;Idle</title>
<path fill="none" stroke="red" d="M190.54,-66.99C191.23,-104.86 189.44,-168.9 173.12,-221 172.32,-223.56 171.37,-226.14 170.32,-228.7"/>
<polygon fill="red" stroke="red" points="167.19,-227.12 166.12,-237.66 173.53,-230.09 167.19,-227.12"/>
<text xml:space="preserve" text-anchor="middle" x="210.5" y="-147.95" font-family="Times,serif" font-size="14.00"> cancel </text>
</g>
</g>
</svg>
