<?xml version="1.0" encoding="UTF-8" standalone="no"?>
<!DOCTYPE svg PUBLIC "-//W3C//DTD SVG 1.1//EN"
 "http://www.w3.org/Graphics/SVG/1.1/DTD/svg11.dtd">
<!-- Generated by graphviz version 14.1.5 (20260411.2331)
 -->
<!-- Title: MobileBase Pages: 1 -->
<svg width="886pt" height="740pt"
 viewBox="0.00 0.00 886.00 740.00" xmlns="http://www.w3.org/2000/svg" xmlns:xlink="http://www.w3.org/1999/xlink">
<g id="graph0" class="graph" transform="scale(1 1) rotate(0) translate(4 736.28)">
<title>MobileBase</title>
<polygon fill="white" stroke="none" points="-4,4 -4,-736.28 881.75,-736.28 881.75,4 -4,4"/>
<g id="clust1" class="cluster">
<title>cluster_Safety</title>
<path fill="none" stroke="black" d="M179.88,-8C179.88,-8 781.88,-8 781.88,-8 787.88,-8 793.88,-14 793.88,-20 793.88,-20 793.88,-663.38 793.88,-663.38 793.88,-669.38 787.88,-675.38 781.88,-675.38 781.88,-675.38 179.88,-675.38 179.88,-675.38 173.88,-675.38 167.88,-669.38 167.88,-663.38 167.88,-663.38 167.88,-20 167.88,-20 167.88,-14 173.88,-8 179.88,-8"/>
<text xml:space="preserve" text-anchor="start" x="463.63" y="-654.62" font-family="Times,serif" font-size="14.00">Safety</text>
<polygon fill="black" stroke="black" points="459.63,-647.88 459.63,-647.88 502.13,-647.88 502.13,-647.88 459.63,-647.88"/>
</g>
<g id="clust2" class="cluster">
<title>cluster_Operational</title>
<path fill="none" stroke="black" d="M187.88,-16C187.88,-16 765.88,-16 765.88,-16 771.88,-16 777.88,-22 777.88,-28 777.88,-28 777.88,-616.88 777.88,-616.88 777.88,-622.88 771.88,-628.88 765.88,-628.88 765.88,-628.88 187.88,-628.88 187.88,-628.88 181.88,-628.88 175.88,-622.88 175.88,-616.88 175.88,-616.88 175.88,-28 175.88,-28 175.88,-22 181.88,-16 187.88,-16"/>
<text xml:space="preserve" text-anchor="start" x="445" y="-608.12" font-family="Times,serif" font-size="14.00">Operational</text>
<polygon fill="black" stroke="black" points="441,-601.38 441,-601.38 512.75,-601.38 512.75,-601.38 441,-601.38"/>
</g>
<g id="clust3" class="cluster">
<title>cluster_Teleop</title>
<path fill="none" stroke="black" d="M508.88,-24C508.88,-24 668.88,-24 668.88,-24 674.88,-24 680.88,-30 680.88,-36 680.88,-36 680.88,-353.38 680.88,-353.38 680.88,-359.38 674.88,-365.38 668.88,-365.38 668.88,-365.38 508.88,-365.38 508.88,-365.38 502.88,-365.38 496.88,-359.38 496.88,-353.38 496.88,-353.38 496.88,-36 496.88,-36 496.88,-30 502.88,-24 508.88,-24"/>
<text xml:space="preserve" text-anchor="start" x="570.13" y="-344.62" font-family="Times,serif" font-size="14.00">Teleop</text>
<polygon fill="black" stroke="black" points="566.13,-337.88 566.13,-337.88 611.63,-337.88 611.63,-337.88 566.13,-337.88"/>
</g>
<g id="clust4" class="cluster">
<title>cluster_Auto</title>
<path fill="none" stroke="black" d="M203.88,-177.25C203.88,-177.25 476.88,-177.25 476.88,-177.25 482.88,-177.25 488.88,-183.25 488.88,-189.25 488.88,-189.25 488.88,-570.38 488.88,-570.38 488.88,-576.38 482.88,-582.38 476.88,-582.38 476.88,-582.38 203.88,-582.38 203.88,-582.38 197.88,-582.38 191.88,-576.38 191.88,-570.38 191.88,-570.38 191.88,-189.25 191.88,-189.25 191.88,-183.25 197.88,-177.25 203.88,-177.25"/>
<text xml:space="preserve" text-anchor="start" x="326.88" y="-561.62" font-family="Times,serif" font-size="14.00">Auto</text>
<polygon fill="black" stroke="black" points="322.88,-554.88 322.88,-554.88 357.88,-554.88 357.88,-554.88 322.88,-554.88"/>
</g>
<!-- Entry -->
<g id="node1" class="node">
<title>Entry</title>
<ellipse fill="black" stroke="#00688b" cx="183.88" cy="-725.08" rx="7.2" ry="7.2"/>
</g>
<!-- Operational -->
<g id="node2" class="node">
<title>Operational</title>
<ellipse fill="azure" stroke="#00688b" cx="183.88" cy="-452.62" rx="0.36" ry="0.36"/>
</g>
<!-- Entry&#45;&gt;Operational -->
<g id="edge1" class="edge">
<title>Entry&#45;&gt;Operational</title>
<path fill="none" stroke="red" d="M183.88,-717.39C183.88,-681.44 183.88,-511 183.88,-465.06"/>
<polygon fill="red" stroke="red" points="187.38,-465.3 183.88,-455.3 180.38,-465.3 187.38,-465.3"/>
</g>
<!-- EStopped -->
<g id="node3" class="node">
<title>EStopped</title>
<path fill="azure" stroke="none" d="M865.75,-497.38C865.75,-497.38 816,-497.38 816,-497.38 810,-497.38 804,-491.38 804,-485.38 804,-485.38 804,-419.88 804,-419.88 804,-413.88 810,-407.88 816,-407.88 816,-407.88 865.75,-407.88 865.75,-407.88 871.75,-407.88 877.75,-413.88 877.75,-419.88 877.75,-419.88 877.75,-485.38 877.75,-485.38 877.75,-491.38 871.75,-497.38 865.75,-497.38"/>
<text xml:space="preserve" text-anchor="start" x="812.75" y="-477.07" font-family="Times,serif" font-weight="bold" font-size="14.00">EStopped</text>
<text xml:space="preserve" text-anchor="start" x="812" y="-451.88" font-family="Times,serif" font-size="10.00">$&gt;()</text>
<text xml:space="preserve" text-anchor="start" x="812" y="-440.62" font-family="Times,serif" font-size="10.00">clear_e_stop()</text>
<text xml:space="preserve" text-anchor="start" x="812" y="-429.38" font-family="Times,serif" font-size="10.00">status()</text>
<text xml:space="preserve" text-anchor="start" x="827.38" y="-418.12" font-family="Times,serif" font-size="10.00"> &#160;&#160;&#160;&#160;&#160;&#160;&#160;&#160;&#160;&#160;&#160;</text>
<polygon fill="#00688b" stroke="#00688b" points="804,-466.88 804,-466.88 877.75,-466.88 877.75,-466.88 804,-466.88"/>
<path fill="none" stroke="#00688b" d="M816,-407.88C816,-407.88 865.75,-407.88 865.75,-407.88 871.75,-407.88 877.75,-413.88 877.75,-419.88 877.75,-419.88 877.75,-485.38 877.75,-485.38 877.75,-491.38 871.75,-497.38 865.75,-497.38 865.75,-497.38 816,-497.38 816,-497.38 810,-497.38 804,-491.38 804,-485.38 804,-485.38 804,-419.88 804,-419.88 804,-413.88 810,-407.88 816,-407.88"/>
</g>
<!-- Operational&#45;&gt;EStopped -->
<g id="edge2" class="edge">
<title>Operational&#45;&gt;EStopped</title>
<path fill="none" stroke="red" d="M186.38,-628.87C186.87,-629.38 187.37,-629.88 187.88,-630.38 284.8,-725.14 691.35,-714.2 797.88,-630.38 833.83,-602.08 842.93,-549.31 844.02,-508.59"/>
<polygon fill="red" stroke="red" points="847.52,-508.73 844.11,-498.7 840.52,-508.67 847.52,-508.73"/>
<text xml:space="preserve" text-anchor="middle" x="493.88" y="-686.58" font-family="Times,serif" font-size="14.00"> e_stop </text>
</g>
<!-- ProtectiveStop -->
<g id="node4" class="node">
<title>ProtectiveStop</title>
<path fill="azure" stroke="none" d="M144.25,-280.38C144.25,-280.38 67.5,-280.38 67.5,-280.38 61.5,-280.38 55.5,-274.38 55.5,-268.38 55.5,-268.38 55.5,-202.88 55.5,-202.88 55.5,-196.88 61.5,-190.88 67.5,-190.88 67.5,-190.88 144.25,-190.88 144.25,-190.88 150.25,-190.88 156.25,-196.88 156.25,-202.88 156.25,-202.88 156.25,-268.38 156.25,-268.38 156.25,-274.38 150.25,-280.38 144.25,-280.38"/>
<text xml:space="preserve" text-anchor="start" x="63.5" y="-260.07" font-family="Times,serif" font-weight="bold" font-size="14.00">ProtectiveStop</text>
<text xml:space="preserve" text-anchor="start" x="63.5" y="-234.88" font-family="Times,serif" font-size="10.00">$&gt;()</text>
<text xml:space="preserve" text-anchor="start" x="63.5" y="-223.62" font-family="Times,serif" font-size="10.00">clear_safety()</text>
<text xml:space="preserve" text-anchor="start" x="63.5" y="-212.38" font-family="Times,serif" font-size="10.00">status()</text>
<text xml:space="preserve" text-anchor="start" x="77.38" y="-201.12" font-family="Times,serif" font-size="10.00"> &#160;&#160;&#160;&#160;&#160;&#160;&#160;&#160;&#160;&#160;&#160;</text>
<polygon fill="#00688b" stroke="#00688b" points="55.5,-249.88 55.5,-249.88 156.25,-249.88 156.25,-249.88 55.5,-249.88"/>
<path fill="none" stroke="#00688b" d="M67.5,-190.88C67.5,-190.88 144.25,-190.88 144.25,-190.88 150.25,-190.88 156.25,-196.88 156.25,-202.88 156.25,-202.88 156.25,-268.38 156.25,-268.38 156.25,-274.38 150.25,-280.38 144.25,-280.38 144.25,-280.38 67.5,-280.38 67.5,-280.38 61.5,-280.38 55.5,-274.38 55.5,-268.38 55.5,-268.38 55.5,-202.88 55.5,-202.88 55.5,-196.88 61.5,-190.88 67.5,-190.88"/>
</g>
<!-- Operational&#45;&gt;ProtectiveStop -->
<g id="edge3" class="edge">
<title>Operational&#45;&gt;ProtectiveStop</title>
<path fill="none" stroke="red" d="M175.88,-451.73C147.29,-451.61 49.68,-446.9 9.38,-389.88 -15.64,-354.49 14.25,-312.79 47.18,-281.83"/>
<polygon fill="red" stroke="red" points="49.41,-284.53 54.46,-275.21 44.7,-279.34 49.41,-284.53"/>
<text xml:space="preserve" text-anchor="middle" x="44.63" y="-376.57" font-family="Times,serif" font-size="14.00"> bumper_hit </text>
</g>
<!-- Operational&#45;&gt;ProtectiveStop -->
<g id="edge4" class="edge">
<title>Operational&#45;&gt;ProtectiveStop</title>
<path fill="none" stroke="red" d="M175.88,-448.23C159.19,-440.64 120.95,-420.52 106.13,-389.88 91.49,-359.61 91.24,-321.89 94.74,-291.44"/>
<polygon fill="red" stroke="red" points="98.19,-292.03 96.04,-281.66 91.25,-291.11 98.19,-292.03"/>
<text xml:space="preserve" text-anchor="middle" x="147" y="-376.57" font-family="Times,serif" font-size="14.00"> cliff_detected </text>
</g>
<!-- TeleopIdle -->
<g id="node7" class="node">
<title>TeleopIdle</title>
<path fill="azure" stroke="none" d="M660.63,-280.38C660.63,-280.38 535.13,-280.38 535.13,-280.38 529.13,-280.38 523.13,-274.38 523.13,-268.38 523.13,-268.38 523.13,-202.88 523.13,-202.88 523.13,-196.88 529.13,-190.88 535.13,-190.88 535.13,-190.88 660.63,-190.88 660.63,-190.88 666.63,-190.88 672.63,-196.88 672.63,-202.88 672.63,-202.88 672.63,-268.38 672.63,-268.38 672.63,-274.38 666.63,-280.38 660.63,-280.38"/>
<text xml:space="preserve" text-anchor="start" x="567.5" y="-260.07" font-family="Times,serif" font-weight="bold" font-size="14.00">TeleopIdle</text>
<text xml:space="preserve" text-anchor="start" x="531.13" y="-234.88" font-family="Times,serif" font-size="10.00">drive(linear: float, angular: float)</text>
<text xml:space="preserve" text-anchor="start" x="531.13" y="-223.62" font-family="Times,serif" font-size="10.00">set_autonomous()</text>
<text xml:space="preserve" text-anchor="start" x="531.13" y="-212.38" font-family="Times,serif" font-size="10.00">status()</text>
<text xml:space="preserve" text-anchor="start" x="570.88" y="-201.12" font-family="Times,serif" font-size="10.00"> &#160;&#160;&#160;&#160;&#160;&#160;&#160;&#160;&#160;&#160;&#160;&#160;&#160;&#160;&#160;&#160;&#160;&#160;&#160;&#160;&#160;&#160;&#160;</text>
<polygon fill="#00688b" stroke="#00688b" points="523.13,-249.88 523.13,-249.88 672.63,-249.88 672.63,-249.88 523.13,-249.88"/>
<path fill="none" stroke="#00688b" d="M535.13,-190.88C535.13,-190.88 660.63,-190.88 660.63,-190.88 666.63,-190.88 672.63,-196.88 672.63,-202.88 672.63,-202.88 672.63,-268.38 672.63,-268.38 672.63,-274.38 666.63,-280.38 660.63,-280.38 660.63,-280.38 535.13,-280.38 535.13,-280.38 529.13,-280.38 523.13,-274.38 523.13,-268.38 523.13,-268.38 523.13,-202.88 523.13,-202.88 523.13,-196.88 529.13,-190.88 535.13,-190.88"/>
</g>
<!-- EStopped&#45;&gt;TeleopIdle -->
<g id="edge5" class="edge">
<title>EStopped&#45;&gt;TeleopIdle</title>
<path fill="none" stroke="red" d="M804.39,-414.28C802.2,-412.1 800.01,-409.96 797.88,-407.88 754.1,-365.23 701.5,-320.43 661.23,-287.34"/>
<polygon fill="red" stroke="red" points="663.7,-284.84 653.75,-281.21 659.27,-290.26 663.7,-284.84"/>
<text xml:space="preserve" text-anchor="middle" x="815.09" y="-376.57" font-family="Times,serif" font-size="14.00"> clear_e_stop </text>
</g>
<!-- ProtectiveStop&#45;&gt;TeleopIdle -->
<g id="edge6" class="edge">
<title>ProtectiveStop&#45;&gt;TeleopIdle</title>
<path fill="none" stroke="red" d="M123.96,-280.23C137.33,-306.78 158.36,-338.21 187.88,-353.65 252.07,-387.21 449.49,-386.85 513.88,-353.65 540.1,-340.12 559.94,-314.2 573.72,-290.09"/>
<polygon fill="red" stroke="red" points="576.64,-292.05 578.36,-281.59 570.5,-288.7 576.64,-292.05"/>
<text xml:space="preserve" text-anchor="middle" x="363.88" y="-376.57" font-family="Times,serif" font-size="14.00"> clear_safety </text>
</g>
<!-- Safety -->
<g id="node5" class="node">
<title>Safety</title>
<ellipse fill="azure" stroke="#00688b" cx="785.88" cy="-452.62" rx="0.36" ry="0.36"/>
</g>
<!-- Teleop -->
<g id="node6" class="node">
<title>Teleop</title>
<ellipse fill="azure" stroke="#00688b" cx="504.88" cy="-235.62" rx="0.36" ry="0.36"/>
</g>
<!-- TeleopDriving -->
<g id="node8" class="node">
<title>TeleopDriving</title>
<path fill="azure" stroke="none" d="M651.63,-132.75C651.63,-132.75 526.13,-132.75 526.13,-132.75 520.13,-132.75 514.13,-126.75 514.13,-120.75 514.13,-120.75 514.13,-44 514.13,-44 514.13,-38 520.13,-32 526.13,-32 526.13,-32 651.63,-32 651.63,-32 657.63,-32 663.63,-38 663.63,-44 663.63,-44 663.63,-120.75 663.63,-120.75 663.63,-126.75 657.63,-132.75 651.63,-132.75"/>
<text xml:space="preserve" text-anchor="start" x="547.63" y="-112.45" font-family="Times,serif" font-weight="bold" font-size="14.00">TeleopDriving</text>
<text xml:space="preserve" text-anchor="start" x="522.13" y="-87.25" font-family="Times,serif" font-size="10.00">$&gt;()</text>
<text xml:space="preserve" text-anchor="start" x="522.13" y="-76" font-family="Times,serif" font-size="10.00">drive(linear: float, angular: float)</text>
<text xml:space="preserve" text-anchor="start" x="522.13" y="-64.75" font-family="Times,serif" font-size="10.00">tick()</text>
<text xml:space="preserve" text-anchor="start" x="522.13" y="-53.5" font-family="Times,serif" font-size="10.00">status()</text>
<text xml:space="preserve" text-anchor="start" x="561.88" y="-42.25" font-family="Times,serif" font-size="10.00"> &#160;&#160;&#160;&#160;&#160;&#160;&#160;&#160;&#160;&#160;&#160;&#160;&#160;&#160;&#160;&#160;&#160;&#160;&#160;&#160;&#160;&#160;&#160;</text>
<polygon fill="#00688b" stroke="#00688b" points="514.13,-102.25 514.13,-102.25 663.63,-102.25 663.63,-102.25 514.13,-102.25"/>
<path fill="none" stroke="#00688b" d="M526.13,-32C526.13,-32 651.63,-32 651.63,-32 657.63,-32 663.63,-38 663.63,-44 663.63,-44 663.63,-120.75 663.63,-120.75 663.63,-126.75 657.63,-132.75 651.63,-132.75 651.63,-132.75 526.13,-132.75 526.13,-132.75 520.13,-132.75 514.13,-126.75 514.13,-120.75 514.13,-120.75 514.13,-44 514.13,-44 514.13,-38 520.13,-32 526.13,-32"/>
</g>
<!-- TeleopIdle&#45;&gt;TeleopDriving -->
<g id="edge7" class="edge">
<title>TeleopIdle&#45;&gt;TeleopDriving</title>
<path fill="none" stroke="red" d="M569.69,-191.02C565.95,-183.36 562.7,-175.27 560.63,-167.25 558.64,-159.56 558.61,-151.57 559.82,-143.69"/>
<polygon fill="red" stroke="red" points="563.19,-144.69 561.96,-134.17 556.36,-143.16 563.19,-144.69"/>
<text xml:space="preserve" text-anchor="middle" x="578.25" y="-153.95" font-family="Times,serif" font-size="14.00"> drive </text>
</g>
<!-- AutoIdle -->
<g id="node10" class="node">
<title>AutoIdle</title>
<path fill="azure" stroke="none" d="M450.75,-497.38C450.75,-497.38 317,-497.38 317,-497.38 311,-497.38 305,-491.38 305,-485.38 305,-485.38 305,-419.88 305,-419.88 305,-413.88 311,-407.88 317,-407.88 317,-407.88 450.75,-407.88 450.75,-407.88 456.75,-407.88 462.75,-413.88 462.75,-419.88 462.75,-419.88 462.75,-485.38 462.75,-485.38 462.75,-491.38 456.75,-497.38 450.75,-497.38"/>
<text xml:space="preserve" text-anchor="start" x="358.38" y="-477.07" font-family="Times,serif" font-weight="bold" font-size="14.00">AutoIdle</text>
<text xml:space="preserve" text-anchor="start" x="313" y="-451.88" font-family="Times,serif" font-size="10.00">follow_waypoints(waypoints: list)</text>
<text xml:space="preserve" text-anchor="start" x="313" y="-440.62" font-family="Times,serif" font-size="10.00">set_teleop()</text>
<text xml:space="preserve" text-anchor="start" x="313" y="-429.38" font-family="Times,serif" font-size="10.00">status()</text>
<text xml:space="preserve" text-anchor="start" x="356.88" y="-418.12" font-family="Times,serif" font-size="10.00"> &#160;&#160;&#160;&#160;&#160;&#160;&#160;&#160;&#160;&#160;&#160;&#160;&#160;&#160;&#160;&#160;&#160;&#160;&#160;&#160;&#160;&#160;&#160;</text>
<polygon fill="#00688b" stroke="#00688b" points="305,-466.88 305,-466.88 462.75,-466.88 462.75,-466.88 305,-466.88"/>
<path fill="none" stroke="#00688b" d="M317,-407.88C317,-407.88 450.75,-407.88 450.75,-407.88 456.75,-407.88 462.75,-413.88 462.75,-419.88 462.75,-419.88 462.75,-485.38 462.75,-485.38 462.75,-491.38 456.75,-497.38 450.75,-497.38 450.75,-497.38 317,-497.38 317,-497.38 311,-497.38 305,-491.38 305,-485.38 305,-485.38 305,-419.88 305,-419.88 305,-413.88 311,-407.88 317,-407.88"/>
</g>
<!-- TeleopIdle&#45;&gt;AutoIdle -->
<g id="edge8" class="edge">
<title>TeleopIdle&#45;&gt;AutoIdle</title>
<path fill="none" stroke="red" d="M601.24,-280.36C601.35,-314.83 595.46,-361.64 566.88,-389.88 538.63,-417.77 516.26,-397.8 473.58,-408.03"/>
<polygon fill="red" stroke="red" points="472.67,-404.65 464.05,-410.8 474.63,-411.37 472.67,-404.65"/>
<text xml:space="preserve" text-anchor="middle" x="627.76" y="-376.57" font-family="Times,serif" font-size="14.00"> set_autonomous </text>
</g>
<!-- TeleopDriving&#45;&gt;TeleopIdle -->
<g id="edge9" class="edge">
<title>TeleopDriving&#45;&gt;TeleopIdle</title>
<path fill="none" stroke="red" d="M594.45,-132.64C595.01,-138.74 595.5,-144.88 595.88,-150.75 596.48,-160.15 596.9,-170.16 597.2,-179.86"/>
<polygon fill="red" stroke="red" points="593.69,-179.65 597.46,-189.55 600.69,-179.46 593.69,-179.65"/>
<text xml:space="preserve" text-anchor="middle" x="614.35" y="-153.95" font-family="Times,serif" font-size="14.00"> drive </text>
</g>
<!-- Auto -->
<g id="node9" class="node">
<title>Auto</title>
<ellipse fill="azure" stroke="#00688b" cx="480.88" cy="-452.62" rx="0.36" ry="0.36"/>
</g>
<!-- Auto&#45;&gt;TeleopIdle -->
<g id="edge14" class="edge">
<title>Auto&#45;&gt;TeleopIdle</title>
<path fill="none" stroke="red" d="M488.87,-404.64C526.86,-379.58 656.74,-421.73 685.88,-389.88 713.36,-359.82 688.68,-319.73 658.54,-288.09"/>
<polygon fill="red" stroke="red" points="661.37,-285.97 651.85,-281.31 656.39,-290.89 661.37,-285.97"/>
<text xml:space="preserve" text-anchor="middle" x="726.17" y="-376.57" font-family="Times,serif" font-size="14.00"> set_teleop </text>
</g>
<!-- AutoIdle&#45;&gt;TeleopIdle -->
<g id="edge11" class="edge">
<title>AutoIdle&#45;&gt;TeleopIdle</title>
<path fill="none" stroke="red" d="M447.75,-408.03C464.82,-396.59 483.34,-384.38 500.63,-373.38 506.43,-369.68 508.93,-370.15 513.88,-365.38 536.42,-343.61 555.95,-314.72 570.5,-289.83"/>
<polygon fill="red" stroke="red" points="573.35,-291.89 575.27,-281.47 567.27,-288.42 573.35,-291.89"/>
<text xml:space="preserve" text-anchor="middle" x="531.75" y="-376.57" font-family="Times,serif" font-size="14.00"> set_teleop </text>
</g>
<!-- AutoDriving -->
<g id="node11" class="node">
<title>AutoDriving</title>
<path fill="azure" stroke="none" d="M314.75,-286C314.75,-286 241,-286 241,-286 235,-286 229,-280 229,-274 229,-274 229,-197.25 229,-197.25 229,-191.25 235,-185.25 241,-185.25 241,-185.25 314.75,-185.25 314.75,-185.25 320.75,-185.25 326.75,-191.25 326.75,-197.25 326.75,-197.25 326.75,-274 326.75,-274 326.75,-280 320.75,-286 314.75,-286"/>
<text xml:space="preserve" text-anchor="start" x="241.5" y="-265.7" font-family="Times,serif" font-weight="bold" font-size="14.00">AutoDriving</text>
<text xml:space="preserve" text-anchor="start" x="237" y="-240.5" font-family="Times,serif" font-size="10.00">$&gt;()</text>
<text xml:space="preserve" text-anchor="start" x="237" y="-229.25" font-family="Times,serif" font-size="10.00">tick()</text>
<text xml:space="preserve" text-anchor="start" x="237" y="-218" font-family="Times,serif" font-size="10.00">waypoint_reached()</text>
<text xml:space="preserve" text-anchor="start" x="237" y="-206.75" font-family="Times,serif" font-size="10.00">status()</text>
<text xml:space="preserve" text-anchor="start" x="250.88" y="-195.5" font-family="Times,serif" font-size="10.00"> &#160;&#160;&#160;&#160;&#160;&#160;&#160;&#160;&#160;&#160;&#160;&#160;&#160;&#160;&#160;&#160;&#160;&#160;&#160;&#160;&#160;&#160;&#160;</text>
<polygon fill="#00688b" stroke="#00688b" points="229,-255.5 229,-255.5 326.75,-255.5 326.75,-255.5 229,-255.5"/>
<path fill="none" stroke="#00688b" d="M241,-185.25C241,-185.25 314.75,-185.25 314.75,-185.25 320.75,-185.25 326.75,-191.25 326.75,-197.25 326.75,-197.25 326.75,-274 326.75,-274 326.75,-280 320.75,-286 314.75,-286 314.75,-286 241,-286 241,-286 235,-286 229,-280 229,-274 229,-274 229,-197.25 229,-197.25 229,-191.25 235,-185.25 241,-185.25"/>
</g>
<!-- AutoIdle&#45;&gt;AutoDriving -->
<g id="edge10" class="edge">
<title>AutoIdle&#45;&gt;AutoDriving</title>
<path fill="none" stroke="red" d="M305.02,-409.44C303.64,-408.9 302.25,-408.38 300.88,-407.88 265.83,-395.06 242.26,-418.95 218.88,-389.88 196.77,-362.39 209.81,-325.69 229.18,-295.09"/>
<polygon fill="red" stroke="red" points="231.9,-297.33 234.53,-287.07 226.07,-293.45 231.9,-297.33"/>
<text xml:space="preserve" text-anchor="middle" x="271.38" y="-376.57" font-family="Times,serif" font-size="14.00"> follow_waypoints </text>
</g>
<!-- AutoDriving&#45;&gt;AutoIdle -->
<g id="edge13" class="edge">
<title>AutoDriving&#45;&gt;AutoIdle</title>
<path fill="none" stroke="red" d="M326.5,-274.66C354.04,-299.43 385.9,-334.32 400.88,-373.38 403.72,-380.79 404.45,-388.78 403.87,-396.74"/>
<polygon fill="red" stroke="red" points="400.44,-395.99 402.47,-406.39 407.36,-396.99 400.44,-395.99"/>
<text xml:space="preserve" text-anchor="middle" x="432.8" y="-376.57" font-family="Times,serif" font-size="14.00"> complete </text>
</g>
<!-- AutoDriving&#45;&gt;AutoDriving -->
<g id="edge12" class="edge">
<title>AutoDriving&#45;&gt;AutoDriving</title>
<path fill="none" stroke="red" d="M326.57,-249.57C337.11,-248.2 344.75,-243.56 344.75,-235.62 344.75,-230.79 341.91,-227.18 337.31,-224.78"/>
<polygon fill="red" stroke="red" points="338.6,-221.51 328.02,-222.1 336.66,-228.24 338.6,-221.51"/>
<text xml:space="preserve" text-anchor="middle" x="398" y="-230.57" font-family="Times,serif" font-size="14.00"> waypoint_reached </text>
</g>
</g>
</svg>
