<?xml version="1.0" encoding="UTF-8" standalone="no"?>
<!DOCTYPE svg PUBLIC "-//W3C//DTD SVG 1.1//EN"
 "http://www.w3.org/Graphics/SVG/1.1/DTD/svg11.dtd">
<!-- Generated by graphviz version 14.1.5 (20260411.2331)
 -->
<!-- Title: Navigator Pages: 1 -->
<svg width="682pt" height="682pt"
 viewBox="0.00 0.00 682.00 682.00" xmlns="http://www.w3.org/2000/svg" xmlns:xlink="http://www.w3.org/1999/xlink">
<g id="graph0" class="graph" transform="scale(1 1) rotate(0) translate(4 677.9)">
<title>Navigator</title>
<polygon fill="white" stroke="none" points="-4,4 -4,-677.9 678.25,-677.9 678.25,4 -4,4"/>
<g id="clust1" class="cluster">
<title>cluster_Active</title>
<path fill="none" stroke="black" d="M200.12,-8C200.12,-8 474.12,-8 474.12,-8 480.12,-8 486.12,-14 486.12,-20 486.12,-20 486.12,-489.75 486.12,-489.75 486.12,-495.75 480.12,-501.75 474.12,-501.75 474.12,-501.75 200.12,-501.75 200.12,-501.75 194.12,-501.75 188.12,-495.75 188.12,-489.75 188.12,-489.75 188.12,-20 188.12,-20 188.12,-14 194.12,-8 200.12,-8"/>
<text xml:space="preserve" text-anchor="start" x="319.12" y="-481" font-family="Times,serif" font-size="14.00">Active</text>
<polygon fill="black" stroke="black" points="315.12,-474.25 315.12,-474.25 359.12,-474.25 359.12,-474.25 315.12,-474.25"/>
</g>
<g id="clust2" class="cluster">
<title>cluster_Mission</title>
<path fill="none" stroke="black" d="M208.12,-16C208.12,-16 458.12,-16 458.12,-16 464.12,-16 470.12,-22 470.12,-28 470.12,-28 470.12,-443.25 470.12,-443.25 470.12,-449.25 464.12,-455.25 458.12,-455.25 458.12,-455.25 208.12,-455.25 208.12,-455.25 202.12,-455.25 196.12,-449.25 196.12,-443.25 196.12,-443.25 196.12,-28 196.12,-28 196.12,-22 202.12,-16 208.12,-16"/>
<text xml:space="preserve" text-anchor="start" x="311" y="-434.5" font-family="Times,serif" font-size="14.00">Mission</text>
<polygon fill="black" stroke="black" points="307,-427.75 307,-427.75 359.25,-427.75 359.25,-427.75 307,-427.75"/>
</g>
<!-- Entry -->
<g id="node1" class="node">
<title>Entry</title>
<ellipse fill="black" stroke="#00688b" cx="338.12" cy="-666.7" rx="7.2" ry="7.2"/>
</g>
<!-- Idle -->
<g id="node2" class="node">
<title>Idle</title>
<path fill="azure" stroke="none" d="M416.25,-622.5C416.25,-622.5 260,-622.5 260,-622.5 254,-622.5 248,-616.5 248,-610.5 248,-610.5 248,-556.25 248,-556.25 248,-550.25 254,-544.25 260,-544.25 260,-544.25 416.25,-544.25 416.25,-544.25 422.25,-544.25 428.25,-550.25 428.25,-556.25 428.25,-556.25 428.25,-610.5 428.25,-610.5 428.25,-616.5 422.25,-622.5 416.25,-622.5"/>
<text xml:space="preserve" text-anchor="start" x="326.88" y="-602.2" font-family="Times,serif" font-weight="bold" font-size="14.00">Idle</text>
<text xml:space="preserve" text-anchor="start" x="256" y="-577" font-family="Times,serif" font-size="10.00">navigate_to(goal_x: float, goal_y: float)</text>
<text xml:space="preserve" text-anchor="start" x="256" y="-565.75" font-family="Times,serif" font-size="10.00">status()</text>
<text xml:space="preserve" text-anchor="start" x="324.62" y="-554.5" font-family="Times,serif" font-size="10.00"> &#160;&#160;&#160;&#160;&#160;&#160;&#160;&#160;&#160;&#160;&#160;</text>
<polygon fill="#00688b" stroke="#00688b" points="248,-592 248,-592 428.25,-592 428.25,-592 248,-592"/>
<path fill="none" stroke="#00688b" d="M260,-544.25C260,-544.25 416.25,-544.25 416.25,-544.25 422.25,-544.25 428.25,-550.25 428.25,-556.25 428.25,-556.25 428.25,-610.5 428.25,-610.5 428.25,-616.5 422.25,-622.5 416.25,-622.5 416.25,-622.5 260,-622.5 260,-622.5 254,-622.5 248,-616.5 248,-610.5 248,-610.5 248,-556.25 248,-556.25 248,-550.25 254,-544.25 260,-544.25"/>
</g>
<!-- Entry&#45;&gt;Idle -->
<g id="edge1" class="edge">
<title>Entry&#45;&gt;Idle</title>
<path fill="none" stroke="red" d="M338.12,-659.04C338.12,-653.03 338.12,-643.57 338.12,-633.38"/>
<polygon fill="red" stroke="red" points="341.63,-633.69 338.13,-623.69 334.63,-633.69 341.63,-633.69"/>
</g>
<!-- Planning -->
<g id="node7" class="node">
<title>Planning</title>
<path fill="azure" stroke="none" d="M300,-408.75C300,-408.75 220.25,-408.75 220.25,-408.75 214.25,-408.75 208.25,-402.75 208.25,-396.75 208.25,-396.75 208.25,-320 208.25,-320 208.25,-314 214.25,-308 220.25,-308 220.25,-308 300,-308 300,-308 306,-308 312,-314 312,-320 312,-320 312,-396.75 312,-396.75 312,-402.75 306,-408.75 300,-408.75"/>
<text xml:space="preserve" text-anchor="start" x="234.25" y="-388.45" font-family="Times,serif" font-weight="bold" font-size="14.00">Planning</text>
<text xml:space="preserve" text-anchor="start" x="216.25" y="-363.25" font-family="Times,serif" font-size="10.00">$&gt;()</text>
<text xml:space="preserve" text-anchor="start" x="216.25" y="-352" font-family="Times,serif" font-size="10.00">plan_ready(path: list)</text>
<text xml:space="preserve" text-anchor="start" x="216.25" y="-340.75" font-family="Times,serif" font-size="10.00">plan_failed()</text>
<text xml:space="preserve" text-anchor="start" x="216.25" y="-329.5" font-family="Times,serif" font-size="10.00">status()</text>
<text xml:space="preserve" text-anchor="start" x="237.62" y="-318.25" font-family="Times,serif" font-size="10.00"> &#160;&#160;&#160;&#160;&#160;&#160;&#160;&#160;&#160;&#160;&#160;&#160;&#160;&#160;&#160;&#160;&#160;&#160;&#160;</text>
<polygon fill="#00688b" stroke="#00688b" points="208.25,-378.25 208.25,-378.25 312,-378.25 312,-378.25 208.25,-378.25"/>
<path fill="none" stroke="#00688b" d="M220.25,-308C220.25,-308 300,-308 300,-308 306,-308 312,-314 312,-320 312,-320 312,-396.75 312,-396.75 312,-402.75 306,-408.75 300,-408.75 300,-408.75 220.25,-408.75 220.25,-408.75 214.25,-408.75 208.25,-402.75 208.25,-396.75 208.25,-396.75 208.25,-320 208.25,-320 208.25,-314 214.25,-308 220.25,-308"/>
</g>
<!-- Idle&#45;&gt;Planning -->
<g id="edge2" class="edge">
<title>Idle&#45;&gt;Planning</title>
<path fill="none" stroke="red" d="M315.97,-544.27C312.95,-538.34 310.06,-532.21 307.62,-526.25 293.57,-491.82 282.03,-451.8 273.84,-419.57"/>
<polygon fill="red" stroke="red" points="277.27,-418.85 271.45,-409.99 270.47,-420.54 277.27,-418.85"/>
<text xml:space="preserve" text-anchor="middle" x="342.88" y="-512.95" font-family="Times,serif" font-size="14.00"> navigate_to </text>
</g>
<!-- Arrived -->
<g id="node3" class="node">
<title>Arrived</title>
<path fill="azure" stroke="none" d="M662.25,-113.5C662.25,-113.5 506,-113.5 506,-113.5 500,-113.5 494,-107.5 494,-101.5 494,-101.5 494,-36 494,-36 494,-30 500,-24 506,-24 506,-24 662.25,-24 662.25,-24 668.25,-24 674.25,-30 674.25,-36 674.25,-36 674.25,-101.5 674.25,-101.5 674.25,-107.5 668.25,-113.5 662.25,-113.5"/>
<text xml:space="preserve" text-anchor="start" x="561.25" y="-93.2" font-family="Times,serif" font-weight="bold" font-size="14.00">Arrived</text>
<text xml:space="preserve" text-anchor="start" x="502" y="-68" font-family="Times,serif" font-size="10.00">$&gt;()</text>
<text xml:space="preserve" text-anchor="start" x="502" y="-56.75" font-family="Times,serif" font-size="10.00">navigate_to(goal_x: float, goal_y: float)</text>
<text xml:space="preserve" text-anchor="start" x="502" y="-45.5" font-family="Times,serif" font-size="10.00">status()</text>
<text xml:space="preserve" text-anchor="start" x="570.62" y="-34.25" font-family="Times,serif" font-size="10.00"> &#160;&#160;&#160;&#160;&#160;&#160;&#160;&#160;&#160;&#160;&#160;</text>
<polygon fill="#00688b" stroke="#00688b" points="494,-83 494,-83 674.25,-83 674.25,-83 494,-83"/>
<path fill="none" stroke="#00688b" d="M506,-24C506,-24 662.25,-24 662.25,-24 668.25,-24 674.25,-30 674.25,-36 674.25,-36 674.25,-101.5 674.25,-101.5 674.25,-107.5 668.25,-113.5 662.25,-113.5 662.25,-113.5 506,-113.5 506,-113.5 500,-113.5 494,-107.5 494,-101.5 494,-101.5 494,-36 494,-36 494,-30 500,-24 506,-24"/>
</g>
<!-- Arrived&#45;&gt;Planning -->
<g id="edge12" class="edge">
<title>Arrived&#45;&gt;Planning</title>
<path fill="none" stroke="red" d="M566.36,-113.34C547.77,-154.44 515.15,-215.54 471.12,-255.5 428.27,-294.4 367.88,-321.52 322.68,-337.95"/>
<polygon fill="red" stroke="red" points="321.51,-334.65 313.26,-341.29 323.85,-341.25 321.51,-334.65"/>
<text xml:space="preserve" text-anchor="middle" x="573.97" y="-205.7" font-family="Times,serif" font-size="14.00"> navigate_to </text>
</g>
<!-- Failed -->
<g id="node4" class="node">
<title>Failed</title>
<path fill="azure" stroke="none" d="M168.25,-255.5C168.25,-255.5 12,-255.5 12,-255.5 6,-255.5 0,-249.5 0,-243.5 0,-243.5 0,-178 0,-178 0,-172 6,-166 12,-166 12,-166 168.25,-166 168.25,-166 174.25,-166 180.25,-172 180.25,-178 180.25,-178 180.25,-243.5 180.25,-243.5 180.25,-249.5 174.25,-255.5 168.25,-255.5"/>
<text xml:space="preserve" text-anchor="start" x="72.12" y="-235.2" font-family="Times,serif" font-weight="bold" font-size="14.00">Failed</text>
<text xml:space="preserve" text-anchor="start" x="8" y="-210" font-family="Times,serif" font-size="10.00">$&gt;()</text>
<text xml:space="preserve" text-anchor="start" x="8" y="-198.75" font-family="Times,serif" font-size="10.00">navigate_to(goal_x: float, goal_y: float)</text>
<text xml:space="preserve" text-anchor="start" x="8" y="-187.5" font-family="Times,serif" font-size="10.00">status()</text>
<text xml:space="preserve" text-anchor="start" x="76.62" y="-176.25" font-family="Times,serif" font-size="10.00"> &#160;&#160;&#160;&#160;&#160;&#160;&#160;&#160;&#160;&#160;&#160;</text>
<polygon fill="#00688b" stroke="#00688b" points="0,-225 0,-225 180.25,-225 180.25,-225 0,-225"/>
<path fill="none" stroke="#00688b" d="M12,-166C12,-166 168.25,-166 168.25,-166 174.25,-166 180.25,-172 180.25,-178 180.25,-178 180.25,-243.5 180.25,-243.5 180.25,-249.5 174.25,-255.5 168.25,-255.5 168.25,-255.5 12,-255.5 12,-255.5 6,-255.5 0,-249.5 0,-243.5 0,-243.5 0,-178 0,-178 0,-172 6,-166 12,-166"/>
</g>
<!-- Failed&#45;&gt;Planning -->
<g id="edge13" class="edge">
<title>Failed&#45;&gt;Planning</title>
<path fill="none" stroke="red" d="M116.83,-255.36C125.44,-267.41 135.62,-279.94 146.62,-290 162.04,-304.09 180.86,-316.68 198.71,-327.06"/>
<polygon fill="red" stroke="red" points="196.75,-329.98 207.18,-331.85 200.2,-323.89 196.75,-329.98"/>
<text xml:space="preserve" text-anchor="middle" x="181.88" y="-276.7" font-family="Times,serif" font-size="14.00"> navigate_to </text>
</g>
<!-- Active -->
<g id="node5" class="node">
<title>Active</title>
<ellipse fill="azure" stroke="#00688b" cx="478.12" cy="-358.38" rx="0.36" ry="0.36"/>
</g>
<!-- Mission -->
<g id="node6" class="node">
<title>Mission</title>
<ellipse fill="azure" stroke="#00688b" cx="416.12" cy="-358.38" rx="0.36" ry="0.36"/>
</g>
<!-- Mission&#45;&gt;Idle -->
<g id="edge3" class="edge">
<title>Mission&#45;&gt;Idle</title>
<path fill="none" stroke="red" d="M414.53,-455.25C413.16,-474.95 410.88,-492.5 407.12,-501.75 402.25,-513.77 394.84,-525.27 386.66,-535.63"/>
<polygon fill="red" stroke="red" points="384,-533.35 380.28,-543.27 389.38,-537.84 384,-533.35"/>
<text xml:space="preserve" text-anchor="middle" x="419.89" y="-512.95" font-family="Times,serif" font-size="14.00"> abort </text>
</g>
<!-- Planning&#45;&gt;Failed -->
<g id="edge5" class="edge">
<title>Planning&#45;&gt;Failed</title>
<path fill="none" stroke="red" d="M208.66,-356.45C160.11,-352.5 89.74,-338.14 54.88,-290 49.53,-282.62 48.75,-274.3 50.66,-265.9"/>
<polygon fill="red" stroke="red" points="53.87,-267.33 53.88,-256.73 47.27,-265.01 53.87,-267.33"/>
<text xml:space="preserve" text-anchor="middle" x="89" y="-276.7" font-family="Times,serif" font-size="14.00"> plan_failed </text>
</g>
<!-- Planning&#45;&gt;Planning -->
<g id="edge6" class="edge">
<title>Planning&#45;&gt;Planning</title>
<path fill="none" stroke="red" d="M311.93,-372.19C322.46,-370.69 330,-366.08 330,-358.38 330,-353.68 327.2,-350.13 322.63,-347.74"/>
<polygon fill="red" stroke="red" points="323.96,-344.48 313.38,-344.99 321.97,-351.19 323.96,-344.48"/>
<text xml:space="preserve" text-anchor="middle" x="364.12" y="-353.32" font-family="Times,serif" font-size="14.00"> plan_failed </text>
</g>
<!-- Driving -->
<g id="node8" class="node">
<title>Driving</title>
<path fill="azure" stroke="none" d="M450,-255.5C450,-255.5 280.25,-255.5 280.25,-255.5 274.25,-255.5 268.25,-249.5 268.25,-243.5 268.25,-243.5 268.25,-178 268.25,-178 268.25,-172 274.25,-166 280.25,-166 280.25,-166 450,-166 450,-166 456,-166 462,-172 462,-178 462,-178 462,-243.5 462,-243.5 462,-249.5 456,-255.5 450,-255.5"/>
<text xml:space="preserve" text-anchor="start" x="343" y="-235.2" font-family="Times,serif" font-weight="bold" font-size="14.00">Driving</text>
<text xml:space="preserve" text-anchor="start" x="276.25" y="-210" font-family="Times,serif" font-size="10.00">$&gt;()</text>
<text xml:space="preserve" text-anchor="start" x="276.25" y="-198.75" font-family="Times,serif" font-size="10.00">tick(obstacle_distance: float, at_goal: bool)</text>
<text xml:space="preserve" text-anchor="start" x="276.25" y="-187.5" font-family="Times,serif" font-size="10.00">status()</text>
<text xml:space="preserve" text-anchor="start" x="342.62" y="-176.25" font-family="Times,serif" font-size="10.00"> &#160;&#160;&#160;&#160;&#160;&#160;&#160;&#160;&#160;&#160;&#160;&#160;&#160;&#160;&#160;&#160;&#160;&#160;&#160;</text>
<polygon fill="#00688b" stroke="#00688b" points="268.25,-225 268.25,-225 462,-225 462,-225 268.25,-225"/>
<path fill="none" stroke="#00688b" d="M280.25,-166C280.25,-166 450,-166 450,-166 456,-166 462,-172 462,-178 462,-178 462,-243.5 462,-243.5 462,-249.5 456,-255.5 450,-255.5 450,-255.5 280.25,-255.5 280.25,-255.5 274.25,-255.5 268.25,-249.5 268.25,-243.5 268.25,-243.5 268.25,-178 268.25,-178 268.25,-172 274.25,-166 280.25,-166"/>
</g>
<!-- Planning&#45;&gt;Driving -->
<g id="edge4" class="edge">
<title>Planning&#45;&gt;Driving</title>
<path fill="none" stroke="red" d="M261.26,-308.37C263.3,-296.26 267.04,-283.82 273.62,-273.5 275.87,-269.98 278.4,-266.62 281.14,-263.4"/>
<polygon fill="red" stroke="red" points="283.49,-266.01 287.82,-256.34 278.41,-261.2 283.49,-266.01"/>
<text xml:space="preserve" text-anchor="middle" x="307.38" y="-276.7" font-family="Times,serif" font-size="14.00"> plan_ready </text>
</g>
<!-- Driving&#45;&gt;Arrived -->
<g id="edge7" class="edge">
<title>Driving&#45;&gt;Arrived</title>
<path fill="none" stroke="red" d="M433.52,-166.03C456.57,-151.29 482.47,-134.74 506.2,-119.56"/>
<polygon fill="red" stroke="red" points="508.06,-122.53 514.6,-114.2 504.29,-116.63 508.06,-122.53"/>
<text xml:space="preserve" text-anchor="middle" x="495.07" y="-134.7" font-family="Times,serif" font-size="14.00"> tick </text>
</g>
<!-- Driving&#45;&gt;Planning -->
<g id="edge9" class="edge">
<title>Driving&#45;&gt;Planning</title>
<path fill="none" stroke="red" d="M356.64,-255.17C353.05,-267.09 348.05,-279.59 341.12,-290 335.2,-298.91 327.75,-307.26 319.78,-314.85"/>
<polygon fill="red" stroke="red" points="317.87,-311.86 312.8,-321.16 322.57,-317.05 317.87,-311.86"/>
<text xml:space="preserve" text-anchor="middle" x="363.47" y="-276.7" font-family="Times,serif" font-size="14.00"> tick </text>
</g>
<!-- Avoiding -->
<g id="node9" class="node">
<title>Avoiding</title>
<path fill="azure" stroke="none" d="M386,-113.5C386,-113.5 216.25,-113.5 216.25,-113.5 210.25,-113.5 204.25,-107.5 204.25,-101.5 204.25,-101.5 204.25,-36 204.25,-36 204.25,-30 210.25,-24 216.25,-24 216.25,-24 386,-24 386,-24 392,-24 398,-30 398,-36 398,-36 398,-101.5 398,-101.5 398,-107.5 392,-113.5 386,-113.5"/>
<text xml:space="preserve" text-anchor="start" x="274.88" y="-93.2" font-family="Times,serif" font-weight="bold" font-size="14.00">Avoiding</text>
<text xml:space="preserve" text-anchor="start" x="212.25" y="-68" font-family="Times,serif" font-size="10.00">$&gt;()</text>
<text xml:space="preserve" text-anchor="start" x="212.25" y="-56.75" font-family="Times,serif" font-size="10.00">tick(obstacle_distance: float, at_goal: bool)</text>
<text xml:space="preserve" text-anchor="start" x="212.25" y="-45.5" font-family="Times,serif" font-size="10.00">status()</text>
<text xml:space="preserve" text-anchor="start" x="278.62" y="-34.25" font-family="Times,serif" font-size="10.00"> &#160;&#160;&#160;&#160;&#160;&#160;&#160;&#160;&#160;&#160;&#160;&#160;&#160;&#160;&#160;&#160;&#160;&#160;&#160;</text>
<polygon fill="#00688b" stroke="#00688b" points="204.25,-83 204.25,-83 398,-83 398,-83 204.25,-83"/>
<path fill="none" stroke="#00688b" d="M216.25,-24C216.25,-24 386,-24 386,-24 392,-24 398,-30 398,-36 398,-36 398,-101.5 398,-101.5 398,-107.5 392,-113.5 386,-113.5 386,-113.5 216.25,-113.5 216.25,-113.5 210.25,-113.5 204.25,-107.5 204.25,-101.5 204.25,-101.5 204.25,-36 204.25,-36 204.25,-30 210.25,-24 216.25,-24"/>
</g>
<!-- Driving&#45;&gt;Avoiding -->
<g id="edge8" class="edge">
<title>Driving&#45;&gt;Avoiding</title>
<path fill="none" stroke="red" d="M345.23,-166.22C339.03,-152.66 332.11,-137.54 325.64,-123.37"/>
<polygon fill="red" stroke="red" points="328.98,-122.27 321.64,-114.63 322.62,-125.18 328.98,-122.27"/>
<text xml:space="preserve" text-anchor="middle" x="348.92" y="-134.7" font-family="Times,serif" font-size="14.00"> tick </text>
</g>
<!-- Avoiding&#45;&gt;Failed -->
<g id="edge11" class="edge">
<title>Avoiding&#45;&gt;Failed</title>
<path fill="none" stroke="red" d="M218.43,-113.44C208.5,-119.28 198.61,-125.37 189.38,-131.5 176.65,-139.95 163.51,-149.59 151.12,-159.15"/>
<polygon fill="red" stroke="red" points="149.17,-156.23 143.44,-165.14 153.47,-161.75 149.17,-156.23"/>
<text xml:space="preserve" text-anchor="middle" x="203.25" y="-134.7" font-family="Times,serif" font-size="14.00"> tick </text>
</g>
<!-- Avoiding&#45;&gt;Planning -->
<g id="edge10" class="edge">
<title>Avoiding&#45;&gt;Planning</title>
<path fill="none" stroke="red" d="M260.6,-113.46C248.82,-128.91 237.49,-147.15 231.38,-166 217.51,-208.76 225.99,-259.1 237.25,-297.41"/>
<polygon fill="red" stroke="red" points="233.9,-298.42 240.19,-306.94 240.58,-296.35 233.9,-298.42"/>
<text xml:space="preserve" text-anchor="middle" x="245.25" y="-205.7" font-family="Times,serif" font-size="14.00"> tick </text>
</g>
</g>
</svg>
