<?xml version="1.0" encoding="UTF-8" standalone="no"?>
<!DOCTYPE svg PUBLIC "-//W3C//DTD SVG 1.1//EN"
 "http://www.w3.org/Graphics/SVG/1.1/DTD/svg11.dtd">
<!-- Generated by graphviz version 14.1.5 (20260411.2331)
 -->
<!-- Title: DockController Pages: 1 -->
<svg width="796pt" height="716pt"
 viewBox="0.00 0.00 796.00 716.00" xmlns="http://www.w3.org/2000/svg" xmlns:xlink="http://www.w3.org/1999/xlink">
<g id="graph0" class="graph" transform="scale(1 1) rotate(0) translate(4 712)">
<title>DockController</title>
<polygon fill="white" stroke="none" points="-4,4 -4,-712 792.2,-712 792.2,4 -4,4"/>
<g id="clust1" class="cluster">
<title>cluster_Active</title>
<path fill="none" stroke="black" d="M525.2,-8C525.2,-8 768.2,-8 768.2,-8 774.2,-8 780.2,-14 780.2,-20 780.2,-20 780.2,-688 780.2,-688 780.2,-694 774.2,-700 768.2,-700 768.2,-700 525.2,-700 525.2,-700 519.2,-700 513.2,-694 513.2,-688 513.2,-688 513.2,-20 513.2,-20 513.2,-14 519.2,-8 525.2,-8"/>
<text xml:space="preserve" text-anchor="start" x="628.7" y="-679.25" font-family="Times,serif" font-size="14.00">Active</text>
<polygon fill="black" stroke="black" points="624.7,-672.5 624.7,-672.5 668.7,-672.5 668.7,-672.5 624.7,-672.5"/>
</g>
<g id="clust2" class="cluster">
<title>cluster_DockingFlow</title>
<path fill="none" stroke="black" d="M533.2,-16C533.2,-16 752.2,-16 752.2,-16 758.2,-16 764.2,-22 764.2,-28 764.2,-28 764.2,-641.5 764.2,-641.5 764.2,-647.5 758.2,-653.5 752.2,-653.5 752.2,-653.5 533.2,-653.5 533.2,-653.5 527.2,-653.5 521.2,-647.5 521.2,-641.5 521.2,-641.5 521.2,-28 521.2,-28 521.2,-22 527.2,-16 533.2,-16"/>
<text xml:space="preserve" text-anchor="start" x="605.58" y="-632.75" font-family="Times,serif" font-size="14.00">DockingFlow</text>
<polygon fill="black" stroke="black" points="601.58,-626 601.58,-626 683.83,-626 683.83,-626 601.58,-626"/>
</g>
<!-- Entry -->
<g id="node1" class="node">
<title>Entry</title>
<ellipse fill="black" stroke="#00688b" cx="7.2" cy="-238.88" rx="7.2" ry="7.2"/>
</g>
<!-- Discharging -->
<g id="node2" class="node">
<title>Discharging</title>
<path fill="azure" stroke="none" d="M114.08,-119.12C114.08,-119.12 52.33,-119.12 52.33,-119.12 46.33,-119.12 40.33,-113.12 40.33,-107.12 40.33,-107.12 40.33,-52.88 40.33,-52.88 40.33,-46.88 46.33,-40.88 52.33,-40.88 52.33,-40.88 114.08,-40.88 114.08,-40.88 120.08,-40.88 126.08,-46.88 126.08,-52.88 126.08,-52.88 126.08,-107.12 126.08,-107.12 126.08,-113.12 120.08,-119.12 114.08,-119.12"/>
<text xml:space="preserve" text-anchor="start" x="48.33" y="-98.83" font-family="Times,serif" font-weight="bold" font-size="14.00">Discharging</text>
<text xml:space="preserve" text-anchor="start" x="48.33" y="-73.62" font-family="Times,serif" font-size="10.00">battery_low()</text>
<text xml:space="preserve" text-anchor="start" x="48.33" y="-62.38" font-family="Times,serif" font-size="10.00">status()</text>
<text xml:space="preserve" text-anchor="start" x="62.58" y="-51.12" font-family="Times,serif" font-size="10.00"> &#160;&#160;&#160;&#160;&#160;&#160;&#160;&#160;&#160;&#160;&#160;</text>
<polygon fill="#00688b" stroke="#00688b" points="40.33,-88.62 40.33,-88.62 126.08,-88.62 126.08,-88.62 40.33,-88.62"/>
<path fill="none" stroke="#00688b" d="M52.33,-40.88C52.33,-40.88 114.08,-40.88 114.08,-40.88 120.08,-40.88 126.08,-46.88 126.08,-52.88 126.08,-52.88 126.08,-107.12 126.08,-107.12 126.08,-113.12 120.08,-119.12 114.08,-119.12 114.08,-119.12 52.33,-119.12 52.33,-119.12 46.33,-119.12 40.33,-113.12 40.33,-107.12 40.33,-107.12 40.33,-52.88 40.33,-52.88 40.33,-46.88 46.33,-40.88 52.33,-40.88"/>
</g>
<!-- Entry&#45;&gt;Discharging -->
<g id="edge1" class="edge">
<title>Entry&#45;&gt;Discharging</title>
<path fill="none" stroke="red" d="M7.92,-231.48C9.72,-217.05 15.26,-181.09 28.2,-154 32.42,-145.16 37.81,-136.33 43.55,-128.03"/>
<polygon fill="red" stroke="red" points="46.24,-130.29 49.26,-120.14 40.56,-126.19 46.24,-130.29"/>
</g>
<!-- SeekingDock -->
<g id="node8" class="node">
<title>SeekingDock</title>
<path fill="azure" stroke="none" d="M716.7,-607C716.7,-607 559.7,-607 559.7,-607 553.7,-607 547.7,-601 547.7,-595 547.7,-595 547.7,-518.25 547.7,-518.25 547.7,-512.25 553.7,-506.25 559.7,-506.25 559.7,-506.25 716.7,-506.25 716.7,-506.25 722.7,-506.25 728.7,-512.25 728.7,-518.25 728.7,-518.25 728.7,-595 728.7,-595 728.7,-601 722.7,-607 716.7,-607"/>
<text xml:space="preserve" text-anchor="start" x="600.7" y="-586.7" font-family="Times,serif" font-weight="bold" font-size="14.00">SeekingDock</text>
<text xml:space="preserve" text-anchor="start" x="555.7" y="-561.5" font-family="Times,serif" font-size="10.00">$&gt;()</text>
<text xml:space="preserve" text-anchor="start" x="555.7" y="-550.25" font-family="Times,serif" font-size="10.00">dock_visible(bearing: float, range: float)</text>
<text xml:space="preserve" text-anchor="start" x="555.7" y="-539" font-family="Times,serif" font-size="10.00">tick()</text>
<text xml:space="preserve" text-anchor="start" x="555.7" y="-527.75" font-family="Times,serif" font-size="10.00">status()</text>
<text xml:space="preserve" text-anchor="start" x="615.7" y="-516.5" font-family="Times,serif" font-size="10.00"> &#160;&#160;&#160;&#160;&#160;&#160;&#160;&#160;&#160;&#160;&#160;&#160;&#160;&#160;&#160;&#160;&#160;&#160;&#160;</text>
<polygon fill="#00688b" stroke="#00688b" points="547.7,-576.5 547.7,-576.5 728.7,-576.5 728.7,-576.5 547.7,-576.5"/>
<path fill="none" stroke="#00688b" d="M559.7,-506.25C559.7,-506.25 716.7,-506.25 716.7,-506.25 722.7,-506.25 728.7,-512.25 728.7,-518.25 728.7,-518.25 728.7,-595 728.7,-595 728.7,-601 722.7,-607 716.7,-607 716.7,-607 559.7,-607 559.7,-607 553.7,-607 547.7,-601 547.7,-595 547.7,-595 547.7,-518.25 547.7,-518.25 547.7,-512.25 553.7,-506.25 559.7,-506.25"/>
</g>
<!-- Discharging&#45;&gt;SeekingDock -->
<g id="edge2" class="edge">
<title>Discharging&#45;&gt;SeekingDock</title>
<path fill="none" stroke="red" d="M86.02,-118.87C94.3,-198.81 126.28,-383.22 247.2,-453.75 357.62,-518.15 410.47,-468 537.06,-506.24"/>
<polygon fill="red" stroke="red" points="535.88,-509.53 546.47,-509.22 538,-502.86 535.88,-509.53"/>
<text xml:space="preserve" text-anchor="middle" x="173.47" y="-310.45" font-family="Times,serif" font-size="14.00"> battery_low </text>
</g>
<!-- Charging -->
<g id="node3" class="node">
<title>Charging</title>
<path fill="azure" stroke="none" d="M367.82,-453.75C367.82,-453.75 268.57,-453.75 268.57,-453.75 262.57,-453.75 256.57,-447.75 256.57,-441.75 256.57,-441.75 256.57,-353.75 256.57,-353.75 256.57,-347.75 262.57,-341.75 268.57,-341.75 268.57,-341.75 367.82,-341.75 367.82,-341.75 373.82,-341.75 379.82,-347.75 379.82,-353.75 379.82,-353.75 379.82,-441.75 379.82,-441.75 379.82,-447.75 373.82,-453.75 367.82,-453.75"/>
<text xml:space="preserve" text-anchor="start" x="290.82" y="-433.45" font-family="Times,serif" font-weight="bold" font-size="14.00">Charging</text>
<text xml:space="preserve" text-anchor="start" x="264.57" y="-408.25" font-family="Times,serif" font-size="10.00">$&gt;()</text>
<text xml:space="preserve" text-anchor="start" x="264.57" y="-397" font-family="Times,serif" font-size="10.00">tick()</text>
<text xml:space="preserve" text-anchor="start" x="264.57" y="-385.75" font-family="Times,serif" font-size="10.00">charging_fault(reason: str)</text>
<text xml:space="preserve" text-anchor="start" x="264.57" y="-374.5" font-family="Times,serif" font-size="10.00">fully_charged()</text>
<text xml:space="preserve" text-anchor="start" x="264.57" y="-363.25" font-family="Times,serif" font-size="10.00">status()</text>
<text xml:space="preserve" text-anchor="start" x="304.7" y="-352" font-family="Times,serif" font-size="10.00"> &#160;&#160;&#160;&#160;&#160;&#160;&#160;&#160;&#160;&#160;&#160;</text>
<polygon fill="#00688b" stroke="#00688b" points="256.57,-423.25 256.57,-423.25 379.82,-423.25 379.82,-423.25 256.57,-423.25"/>
<path fill="none" stroke="#00688b" d="M268.57,-341.75C268.57,-341.75 367.82,-341.75 367.82,-341.75 373.82,-341.75 379.82,-347.75 379.82,-353.75 379.82,-353.75 379.82,-441.75 379.82,-441.75 379.82,-447.75 373.82,-453.75 367.82,-453.75 367.82,-453.75 268.57,-453.75 268.57,-453.75 262.57,-453.75 256.57,-447.75 256.57,-441.75 256.57,-441.75 256.57,-353.75 256.57,-353.75 256.57,-347.75 262.57,-341.75 268.57,-341.75"/>
</g>
<!-- Undocking -->
<g id="node4" class="node">
<title>Undocking</title>
<path fill="azure" stroke="none" d="M245.95,-289.25C245.95,-289.25 174.45,-289.25 174.45,-289.25 168.45,-289.25 162.45,-283.25 162.45,-277.25 162.45,-277.25 162.45,-200.5 162.45,-200.5 162.45,-194.5 168.45,-188.5 174.45,-188.5 174.45,-188.5 245.95,-188.5 245.95,-188.5 251.95,-188.5 257.95,-194.5 257.95,-200.5 257.95,-200.5 257.95,-277.25 257.95,-277.25 257.95,-283.25 251.95,-289.25 245.95,-289.25"/>
<text xml:space="preserve" text-anchor="start" x="178.7" y="-268.95" font-family="Times,serif" font-weight="bold" font-size="14.00">Undocking</text>
<text xml:space="preserve" text-anchor="start" x="170.45" y="-243.75" font-family="Times,serif" font-size="10.00">$&gt;()</text>
<text xml:space="preserve" text-anchor="start" x="170.45" y="-232.5" font-family="Times,serif" font-size="10.00">undock_complete()</text>
<text xml:space="preserve" text-anchor="start" x="170.45" y="-221.25" font-family="Times,serif" font-size="10.00">tick()</text>
<text xml:space="preserve" text-anchor="start" x="170.45" y="-210" font-family="Times,serif" font-size="10.00">status()</text>
<text xml:space="preserve" text-anchor="start" x="196.7" y="-198.75" font-family="Times,serif" font-size="10.00"> &#160;&#160;&#160;&#160;&#160;&#160;&#160;&#160;&#160;&#160;&#160;</text>
<polygon fill="#00688b" stroke="#00688b" points="162.45,-258.75 162.45,-258.75 257.95,-258.75 257.95,-258.75 162.45,-258.75"/>
<path fill="none" stroke="#00688b" d="M174.45,-188.5C174.45,-188.5 245.95,-188.5 245.95,-188.5 251.95,-188.5 257.95,-194.5 257.95,-200.5 257.95,-200.5 257.95,-277.25 257.95,-277.25 257.95,-283.25 251.95,-289.25 245.95,-289.25 245.95,-289.25 174.45,-289.25 174.45,-289.25 168.45,-289.25 162.45,-283.25 162.45,-277.25 162.45,-277.25 162.45,-200.5 162.45,-200.5 162.45,-194.5 168.45,-188.5 174.45,-188.5"/>
</g>
<!-- Charging&#45;&gt;Undocking -->
<g id="edge15" class="edge">
<title>Charging&#45;&gt;Undocking</title>
<path fill="none" stroke="red" d="M256.62,-361.64C243.12,-351.13 230.3,-338.43 221.7,-323.75 217.51,-316.6 214.61,-308.53 212.64,-300.3"/>
<polygon fill="red" stroke="red" points="216.08,-299.68 210.76,-290.52 209.21,-301 216.08,-299.68"/>
<text xml:space="preserve" text-anchor="middle" x="262.95" y="-310.45" font-family="Times,serif" font-size="14.00"> fully_charged </text>
</g>
<!-- Failed -->
<g id="node5" class="node">
<title>Failed</title>
<path fill="azure" stroke="none" d="M492.95,-283.62C492.95,-283.62 445.45,-283.62 445.45,-283.62 439.45,-283.62 433.45,-277.62 433.45,-271.62 433.45,-271.62 433.45,-206.12 433.45,-206.12 433.45,-200.12 439.45,-194.12 445.45,-194.12 445.45,-194.12 492.95,-194.12 492.95,-194.12 498.95,-194.12 504.95,-200.12 504.95,-206.12 504.95,-206.12 504.95,-271.62 504.95,-271.62 504.95,-277.62 498.95,-283.62 492.95,-283.62"/>
<text xml:space="preserve" text-anchor="start" x="451.2" y="-263.32" font-family="Times,serif" font-weight="bold" font-size="14.00">Failed</text>
<text xml:space="preserve" text-anchor="start" x="441.45" y="-238.12" font-family="Times,serif" font-size="10.00">$&gt;()</text>
<text xml:space="preserve" text-anchor="start" x="441.45" y="-226.88" font-family="Times,serif" font-size="10.00">battery_low()</text>
<text xml:space="preserve" text-anchor="start" x="441.45" y="-215.62" font-family="Times,serif" font-size="10.00">status()</text>
<text xml:space="preserve" text-anchor="start" x="455.7" y="-204.38" font-family="Times,serif" font-size="10.00"> &#160;&#160;&#160;&#160;&#160;&#160;&#160;&#160;&#160;&#160;&#160;</text>
<polygon fill="#00688b" stroke="#00688b" points="433.45,-253.12 433.45,-253.12 504.95,-253.12 504.95,-253.12 433.45,-253.12"/>
<path fill="none" stroke="#00688b" d="M445.45,-194.12C445.45,-194.12 492.95,-194.12 492.95,-194.12 498.95,-194.12 504.95,-200.12 504.95,-206.12 504.95,-206.12 504.95,-271.62 504.95,-271.62 504.95,-277.62 498.95,-283.62 492.95,-283.62 492.95,-283.62 445.45,-283.62 445.45,-283.62 439.45,-283.62 433.45,-277.62 433.45,-271.62 433.45,-271.62 433.45,-206.12 433.45,-206.12 433.45,-200.12 439.45,-194.12 445.45,-194.12"/>
</g>
<!-- Charging&#45;&gt;Failed -->
<g id="edge14" class="edge">
<title>Charging&#45;&gt;Failed</title>
<path fill="none" stroke="red" d="M329.59,-342.02C334.57,-329.14 341.72,-316.48 351.95,-307.25 375.24,-286.24 393.03,-304.93 420.2,-289.25 421.64,-288.42 423.06,-287.54 424.47,-286.61"/>
<polygon fill="red" stroke="red" points="426.35,-289.58 432.3,-280.81 422.18,-283.95 426.35,-289.58"/>
<text xml:space="preserve" text-anchor="middle" x="395.07" y="-310.45" font-family="Times,serif" font-size="14.00"> charging_fault </text>
</g>
<!-- Undocking&#45;&gt;Discharging -->
<g id="edge16" class="edge">
<title>Undocking&#45;&gt;Discharging</title>
<path fill="none" stroke="red" d="M170.36,-188.67C154.67,-169.28 136.71,-147.1 121.2,-127.94"/>
<polygon fill="red" stroke="red" points="123.99,-125.83 114.98,-120.26 118.55,-130.23 123.99,-125.83"/>
<text xml:space="preserve" text-anchor="middle" x="206.43" y="-157.2" font-family="Times,serif" font-size="14.00"> undock_complete </text>
</g>
<!-- Failed&#45;&gt;SeekingDock -->
<g id="edge17" class="edge">
<title>Failed&#45;&gt;SeekingDock</title>
<path fill="none" stroke="red" d="M450.86,-283.38C434.67,-329.12 418.04,-401.56 449.2,-453.75 452.08,-458.58 494.21,-481.47 537.96,-504.34"/>
<polygon fill="red" stroke="red" points="536.07,-507.3 546.56,-508.82 539.31,-501.09 536.07,-507.3"/>
<text xml:space="preserve" text-anchor="middle" x="485.2" y="-392.7" font-family="Times,serif" font-size="14.00"> battery_low </text>
</g>
<!-- Active -->
<g id="node6" class="node">
<title>Active</title>
<ellipse fill="azure" stroke="#00688b" cx="772.2" cy="-556.62" rx="0.36" ry="0.36"/>
</g>
<!-- DockingFlow -->
<g id="node7" class="node">
<title>DockingFlow</title>
<ellipse fill="azure" stroke="#00688b" cx="529.2" cy="-556.62" rx="0.36" ry="0.36"/>
</g>
<!-- DockingFlow&#45;&gt;Discharging -->
<g id="edge3" class="edge">
<title>DockingFlow&#45;&gt;Discharging</title>
<path fill="none" stroke="red" d="M521.2,-555.37C469.13,-553.59 178.31,-541.34 111.2,-488.25 4.87,-404.13 41.83,-218.29 67.29,-129.75"/>
<polygon fill="red" stroke="red" points="70.58,-130.97 70.06,-120.39 63.87,-128.99 70.58,-130.97"/>
<text xml:space="preserve" text-anchor="middle" x="70.1" y="-310.45" font-family="Times,serif" font-size="14.00"> dock_lost </text>
</g>
<!-- Aligning -->
<g id="node9" class="node">
<title>Aligning</title>
<path fill="azure" stroke="none" d="M698.7,-448.12C698.7,-448.12 541.7,-448.12 541.7,-448.12 535.7,-448.12 529.7,-442.12 529.7,-436.12 529.7,-436.12 529.7,-359.38 529.7,-359.38 529.7,-353.38 535.7,-347.38 541.7,-347.38 541.7,-347.38 698.7,-347.38 698.7,-347.38 704.7,-347.38 710.7,-353.38 710.7,-359.38 710.7,-359.38 710.7,-436.12 710.7,-436.12 710.7,-442.12 704.7,-448.12 698.7,-448.12"/>
<text xml:space="preserve" text-anchor="start" x="595.45" y="-427.82" font-family="Times,serif" font-weight="bold" font-size="14.00">Aligning</text>
<text xml:space="preserve" text-anchor="start" x="537.7" y="-402.62" font-family="Times,serif" font-size="10.00">$&gt;()</text>
<text xml:space="preserve" text-anchor="start" x="537.7" y="-391.38" font-family="Times,serif" font-size="10.00">dock_visible(bearing: float, range: float)</text>
<text xml:space="preserve" text-anchor="start" x="537.7" y="-380.12" font-family="Times,serif" font-size="10.00">tick()</text>
<text xml:space="preserve" text-anchor="start" x="537.7" y="-368.88" font-family="Times,serif" font-size="10.00">status()</text>
<text xml:space="preserve" text-anchor="start" x="597.7" y="-357.62" font-family="Times,serif" font-size="10.00"> &#160;&#160;&#160;&#160;&#160;&#160;&#160;&#160;&#160;&#160;&#160;&#160;&#160;&#160;&#160;&#160;&#160;&#160;&#160;</text>
<polygon fill="#00688b" stroke="#00688b" points="529.7,-417.62 529.7,-417.62 710.7,-417.62 710.7,-417.62 529.7,-417.62"/>
<path fill="none" stroke="#00688b" d="M541.7,-347.38C541.7,-347.38 698.7,-347.38 698.7,-347.38 704.7,-347.38 710.7,-353.38 710.7,-359.38 710.7,-359.38 710.7,-436.12 710.7,-436.12 710.7,-442.12 704.7,-448.12 698.7,-448.12 698.7,-448.12 541.7,-448.12 541.7,-448.12 535.7,-448.12 529.7,-442.12 529.7,-436.12 529.7,-436.12 529.7,-359.38 529.7,-359.38 529.7,-353.38 535.7,-347.38 541.7,-347.38"/>
</g>
<!-- SeekingDock&#45;&gt;Aligning -->
<g id="edge4" class="edge">
<title>SeekingDock&#45;&gt;Aligning</title>
<path fill="none" stroke="red" d="M632.55,-506.42C630.84,-491.45 628.93,-474.83 627.14,-459.21"/>
<polygon fill="red" stroke="red" points="630.65,-459.09 626.03,-449.55 623.69,-459.89 630.65,-459.09"/>
<text xml:space="preserve" text-anchor="middle" x="668.53" y="-474.95" font-family="Times,serif" font-size="14.00"> dock_visible </text>
</g>
<!-- Aligning&#45;&gt;Failed -->
<g id="edge5" class="edge">
<title>Aligning&#45;&gt;Failed</title>
<path fill="none" stroke="red" d="M529.86,-348.83C507.49,-336.62 489.29,-326.21 487.45,-323.75 481.03,-315.15 476.78,-304.76 473.99,-294.25"/>
<polygon fill="red" stroke="red" points="477.48,-293.83 471.9,-284.82 470.64,-295.34 477.48,-293.83"/>
<text xml:space="preserve" text-anchor="middle" x="501.32" y="-310.45" font-family="Times,serif" font-size="14.00"> tick </text>
</g>
<!-- Aligning&#45;&gt;Failed -->
<g id="edge7" class="edge">
<title>Aligning&#45;&gt;Failed</title>
<path fill="none" stroke="red" d="M562.87,-347.57C554.48,-339.8 546.1,-331.7 538.45,-323.75 529.04,-313.97 519.46,-303.07 510.54,-292.45"/>
<polygon fill="red" stroke="red" points="513.26,-290.25 504.18,-284.79 507.87,-294.72 513.26,-290.25"/>
<text xml:space="preserve" text-anchor="middle" x="552.33" y="-310.45" font-family="Times,serif" font-size="14.00"> tick </text>
</g>
<!-- Aligning&#45;&gt;Aligning -->
<g id="edge6" class="edge">
<title>Aligning&#45;&gt;Aligning</title>
<path fill="none" stroke="red" d="M710.41,-411.09C721.46,-408.7 728.7,-404.26 728.7,-397.75 728.7,-393.68 725.87,-390.42 721.05,-387.96"/>
<polygon fill="red" stroke="red" points="722.44,-384.74 711.85,-384.89 720.22,-391.38 722.44,-384.74"/>
<text xml:space="preserve" text-anchor="middle" x="742.58" y="-392.7" font-family="Times,serif" font-size="14.00"> tick </text>
</g>
<!-- MakingContact -->
<g id="node10" class="node">
<title>MakingContact</title>
<path fill="azure" stroke="none" d="M712.95,-289.25C712.95,-289.25 629.45,-289.25 629.45,-289.25 623.45,-289.25 617.45,-283.25 617.45,-277.25 617.45,-277.25 617.45,-200.5 617.45,-200.5 617.45,-194.5 623.45,-188.5 629.45,-188.5 629.45,-188.5 712.95,-188.5 712.95,-188.5 718.95,-188.5 724.95,-194.5 724.95,-200.5 724.95,-200.5 724.95,-277.25 724.95,-277.25 724.95,-283.25 718.95,-289.25 712.95,-289.25"/>
<text xml:space="preserve" text-anchor="start" x="625.45" y="-268.95" font-family="Times,serif" font-weight="bold" font-size="14.00">MakingContact</text>
<text xml:space="preserve" text-anchor="start" x="625.45" y="-243.75" font-family="Times,serif" font-size="10.00">$&gt;()</text>
<text xml:space="preserve" text-anchor="start" x="625.45" y="-232.5" font-family="Times,serif" font-size="10.00">tick()</text>
<text xml:space="preserve" text-anchor="start" x="625.45" y="-221.25" font-family="Times,serif" font-size="10.00">contact_made()</text>
<text xml:space="preserve" text-anchor="start" x="625.45" y="-210" font-family="Times,serif" font-size="10.00">status()</text>
<text xml:space="preserve" text-anchor="start" x="634.45" y="-198.75" font-family="Times,serif" font-size="10.00"> &#160;&#160;&#160;&#160;&#160;&#160;&#160;&#160;&#160;&#160;&#160;&#160;&#160;&#160;&#160;&#160;&#160;&#160;&#160;</text>
<polygon fill="#00688b" stroke="#00688b" points="617.45,-258.75 617.45,-258.75 724.95,-258.75 724.95,-258.75 617.45,-258.75"/>
<path fill="none" stroke="#00688b" d="M629.45,-188.5C629.45,-188.5 712.95,-188.5 712.95,-188.5 718.95,-188.5 724.95,-194.5 724.95,-200.5 724.95,-200.5 724.95,-277.25 724.95,-277.25 724.95,-283.25 718.95,-289.25 712.95,-289.25 712.95,-289.25 629.45,-289.25 629.45,-289.25 623.45,-289.25 617.45,-283.25 617.45,-277.25 617.45,-277.25 617.45,-200.5 617.45,-200.5 617.45,-194.5 623.45,-188.5 629.45,-188.5"/>
</g>
<!-- Aligning&#45;&gt;MakingContact -->
<g id="edge8" class="edge">
<title>Aligning&#45;&gt;MakingContact</title>
<path fill="none" stroke="red" d="M615.48,-347.52C615.64,-334.17 617.18,-319.91 621.45,-307.25 622.36,-304.54 623.43,-301.84 624.62,-299.18"/>
<polygon fill="red" stroke="red" points="627.65,-300.94 629.09,-290.45 621.42,-297.76 627.65,-300.94"/>
<text xml:space="preserve" text-anchor="middle" x="635.33" y="-310.45" font-family="Times,serif" font-size="14.00"> tick </text>
</g>
<!-- MakingContact&#45;&gt;Aligning -->
<g id="edge9" class="edge">
<title>MakingContact&#45;&gt;Aligning</title>
<path fill="none" stroke="red" d="M659.4,-288.95C656.34,-300.45 652.86,-312.59 649.2,-323.75 647.76,-328.12 646.2,-332.61 644.57,-337.11"/>
<polygon fill="red" stroke="red" points="641.42,-335.56 641.21,-346.15 647.98,-338 641.42,-335.56"/>
<text xml:space="preserve" text-anchor="middle" x="667.98" y="-310.45" font-family="Times,serif" font-size="14.00"> tick </text>
</g>
<!-- VerifyingCharge -->
<g id="node11" class="node">
<title>VerifyingCharge</title>
<path fill="azure" stroke="none" d="M686.7,-136C686.7,-136 541.7,-136 541.7,-136 535.7,-136 529.7,-130 529.7,-124 529.7,-124 529.7,-36 529.7,-36 529.7,-30 535.7,-24 541.7,-24 541.7,-24 686.7,-24 686.7,-24 692.7,-24 698.7,-30 698.7,-36 698.7,-36 698.7,-124 698.7,-124 698.7,-130 692.7,-136 686.7,-136"/>
<text xml:space="preserve" text-anchor="start" x="565.83" y="-115.7" font-family="Times,serif" font-weight="bold" font-size="14.00">VerifyingCharge</text>
<text xml:space="preserve" text-anchor="start" x="537.7" y="-90.5" font-family="Times,serif" font-size="10.00">$&gt;()</text>
<text xml:space="preserve" text-anchor="start" x="537.7" y="-79.25" font-family="Times,serif" font-size="10.00">tick()</text>
<text xml:space="preserve" text-anchor="start" x="537.7" y="-68" font-family="Times,serif" font-size="10.00">charging_started(current_amps: float)</text>
<text xml:space="preserve" text-anchor="start" x="537.7" y="-56.75" font-family="Times,serif" font-size="10.00">charging_fault(reason: str)</text>
<text xml:space="preserve" text-anchor="start" x="537.7" y="-45.5" font-family="Times,serif" font-size="10.00">status()</text>
<text xml:space="preserve" text-anchor="start" x="591.7" y="-34.25" font-family="Times,serif" font-size="10.00"> &#160;&#160;&#160;&#160;&#160;&#160;&#160;&#160;&#160;&#160;&#160;&#160;&#160;&#160;&#160;&#160;&#160;&#160;&#160;</text>
<polygon fill="#00688b" stroke="#00688b" points="529.7,-105.5 529.7,-105.5 698.7,-105.5 698.7,-105.5 529.7,-105.5"/>
<path fill="none" stroke="#00688b" d="M541.7,-24C541.7,-24 686.7,-24 686.7,-24 692.7,-24 698.7,-30 698.7,-36 698.7,-36 698.7,-124 698.7,-124 698.7,-130 692.7,-136 686.7,-136 686.7,-136 541.7,-136 541.7,-136 535.7,-136 529.7,-130 529.7,-124 529.7,-124 529.7,-36 529.7,-36 529.7,-30 535.7,-24 541.7,-24"/>
</g>
<!-- MakingContact&#45;&gt;VerifyingCharge -->
<g id="edge10" class="edge">
<title>MakingContact&#45;&gt;VerifyingCharge</title>
<path fill="none" stroke="red" d="M653.32,-188.67C648.46,-175.28 643.11,-160.56 637.97,-146.43"/>
<polygon fill="red" stroke="red" points="641.32,-145.39 634.61,-137.18 634.74,-147.78 641.32,-145.39"/>
<text xml:space="preserve" text-anchor="middle" x="687.74" y="-157.2" font-family="Times,serif" font-size="14.00"> contact_made </text>
</g>
<!-- VerifyingCharge&#45;&gt;Charging -->
<g id="edge12" class="edge">
<title>VerifyingCharge&#45;&gt;Charging</title>
<path fill="none" stroke="red" d="M529.92,-87.94C463.03,-98.33 373.28,-124.2 326.7,-188.5 310.73,-210.55 310.6,-278.61 313.2,-330.99"/>
<polygon fill="red" stroke="red" points="309.69,-330.94 313.73,-340.73 316.68,-330.56 309.69,-330.94"/>
<text xml:space="preserve" text-anchor="middle" x="375.45" y="-233.82" font-family="Times,serif" font-size="14.00"> charging_started </text>
</g>
<!-- VerifyingCharge&#45;&gt;Failed -->
<g id="edge13" class="edge">
<title>VerifyingCharge&#45;&gt;Failed</title>
<path fill="none" stroke="red" d="M529.82,-111.25C510.65,-121.93 492.31,-135.94 479.95,-154 474.11,-162.54 470.66,-172.74 468.75,-183.03"/>
<polygon fill="red" stroke="red" points="465.32,-182.29 467.43,-192.67 472.25,-183.24 465.32,-182.29"/>
<text xml:space="preserve" text-anchor="middle" x="523.08" y="-157.2" font-family="Times,serif" font-size="14.00"> charging_fault </text>
</g>
<!-- VerifyingCharge&#45;&gt;Aligning -->
<g id="edge11" class="edge">
<title>VerifyingCharge&#45;&gt;Aligning</title>
<path fill="none" stroke="red" d="M593.48,-135.75C588.14,-152.44 583.13,-171 580.45,-188.5 573.67,-232.76 572.56,-245.17 580.45,-289.25 583.3,-305.16 588.34,-321.81 593.9,-337.11"/>
<polygon fill="red" stroke="red" points="590.47,-337.93 597.28,-346.05 597.02,-335.46 590.47,-337.93"/>
<text xml:space="preserve" text-anchor="middle" x="594.33" y="-233.82" font-family="Times,serif" font-size="14.00"> tick </text>
</g>
</g>
</svg>
