<?xml version="1.0" encoding="UTF-8" standalone="no"?>
<!DOCTYPE svg PUBLIC "-//W3C//DTD SVG 1.1//EN"
 "http://www.w3.org/Graphics/SVG/1.1/DTD/svg11.dtd">
<!-- Generated by graphviz version 14.1.5 (20260411.2331)
 -->
<!-- Title: Elevator Pages: 1 -->
<svg width="143pt" height="597pt"
 viewBox="0.00 0.00 143.00 597.00" xmlns="http://www.w3.org/2000/svg" xmlns:xlink="http://www.w3.org/1999/xlink">
<g id="graph0" class="graph" transform="scale(1 1) rotate(0) translate(4 593.4)">
<title>Elevator</title>
<polygon fill="white" stroke="none" points="-4,4 -4,-593.4 138.5,-593.4 138.5,4 -4,4"/>
<!-- Entry -->
<g id="node1" class="node">
<title>Entry</title>
<ellipse fill="black" stroke="#00688b" cx="67.25" cy="-582.2" rx="7.2" ry="7.2"/>
</g>
<!-- Idle -->
<g id="node2" class="node">
<title>Idle</title>
<path fill="azure" stroke="none" d="M110.88,-538C110.88,-538 23.62,-538 23.62,-538 17.62,-538 11.62,-532 11.62,-526 11.62,-526 11.62,-460.5 11.62,-460.5 11.62,-454.5 17.62,-448.5 23.62,-448.5 23.62,-448.5 110.88,-448.5 110.88,-448.5 116.88,-448.5 122.88,-454.5 122.88,-460.5 122.88,-460.5 122.88,-526 122.88,-526 122.88,-532 116.88,-538 110.88,-538"/>
<text xml:space="preserve" text-anchor="start" x="56" y="-517.7" font-family="Times,serif" font-weight="bold" font-size="14.00">Idle</text>
<text xml:space="preserve" text-anchor="start" x="19.62" y="-492.5" font-family="Times,serif" font-size="10.00">request(from_floor: int)</text>
<text xml:space="preserve" text-anchor="start" x="19.62" y="-481.25" font-family="Times,serif" font-size="10.00">car_state()</text>
<text xml:space="preserve" text-anchor="start" x="19.62" y="-470" font-family="Times,serif" font-size="10.00">current_floor()</text>
<text xml:space="preserve" text-anchor="start" x="53.75" y="-458.75" font-family="Times,serif" font-size="10.00"> &#160;&#160;&#160;&#160;&#160;&#160;&#160;&#160;&#160;&#160;&#160;</text>
<polygon fill="#00688b" stroke="#00688b" points="11.62,-507.5 11.62,-507.5 122.88,-507.5 122.88,-507.5 11.62,-507.5"/>
<path fill="none" stroke="#00688b" d="M23.62,-448.5C23.62,-448.5 110.88,-448.5 110.88,-448.5 116.88,-448.5 122.88,-454.5 122.88,-460.5 122.88,-460.5 122.88,-526 122.88,-526 122.88,-532 116.88,-538 110.88,-538 110.88,-538 23.62,-538 23.62,-538 17.62,-538 11.62,-532 11.62,-526 11.62,-526 11.62,-460.5 11.62,-460.5 11.62,-454.5 17.62,-448.5 23.62,-448.5"/>
</g>
<!-- Entry&#45;&gt;Idle -->
<g id="edge1" class="edge">
<title>Entry&#45;&gt;Idle</title>
<path fill="none" stroke="red" d="M67.25,-574.66C67.25,-568.75 67.25,-559.41 67.25,-549.16"/>
<polygon fill="red" stroke="red" points="70.75,-549.31 67.25,-539.31 63.75,-549.31 70.75,-549.31"/>
</g>
<!-- MovingToRequester -->
<g id="node3" class="node">
<title>MovingToRequester</title>
<path fill="azure" stroke="none" d="M122.5,-396C122.5,-396 12,-396 12,-396 6,-396 0,-390 0,-384 0,-384 0,-318.5 0,-318.5 0,-312.5 6,-306.5 12,-306.5 12,-306.5 122.5,-306.5 122.5,-306.5 128.5,-306.5 134.5,-312.5 134.5,-318.5 134.5,-318.5 134.5,-384 134.5,-384 134.5,-390 128.5,-396 122.5,-396"/>
<text xml:space="preserve" text-anchor="start" x="8" y="-375.7" font-family="Times,serif" font-weight="bold" font-size="14.00">MovingToRequester</text>
<text xml:space="preserve" text-anchor="start" x="8" y="-350.5" font-family="Times,serif" font-size="10.00">tick()</text>
<text xml:space="preserve" text-anchor="start" x="8" y="-339.25" font-family="Times,serif" font-size="10.00">car_state()</text>
<text xml:space="preserve" text-anchor="start" x="8" y="-328" font-family="Times,serif" font-size="10.00">current_floor()</text>
<text xml:space="preserve" text-anchor="start" x="24.12" y="-316.75" font-family="Times,serif" font-size="10.00"> &#160;&#160;&#160;&#160;&#160;&#160;&#160;&#160;&#160;&#160;&#160;</text>
<polygon fill="#00688b" stroke="#00688b" points="0,-365.5 0,-365.5 134.5,-365.5 134.5,-365.5 0,-365.5"/>
<path fill="none" stroke="#00688b" d="M12,-306.5C12,-306.5 122.5,-306.5 122.5,-306.5 128.5,-306.5 134.5,-312.5 134.5,-318.5 134.5,-318.5 134.5,-384 134.5,-384 134.5,-390 128.5,-396 122.5,-396 122.5,-396 12,-396 12,-396 6,-396 0,-390 0,-384 0,-384 0,-318.5 0,-318.5 0,-312.5 6,-306.5 12,-306.5"/>
</g>
<!-- Idle&#45;&gt;MovingToRequester -->
<g id="edge2" class="edge">
<title>Idle&#45;&gt;MovingToRequester</title>
<path fill="none" stroke="red" d="M67.25,-448.72C67.25,-435.55 67.25,-420.92 67.25,-407.11"/>
<polygon fill="red" stroke="red" points="70.75,-407.27 67.25,-397.27 63.75,-407.27 70.75,-407.27"/>
<text xml:space="preserve" text-anchor="middle" x="90.5" y="-417.2" font-family="Times,serif" font-size="14.00"> request </text>
</g>
<!-- DoorsOpen -->
<g id="node4" class="node">
<title>DoorsOpen</title>
<path fill="azure" stroke="none" d="M106.75,-254C106.75,-254 27.75,-254 27.75,-254 21.75,-254 15.75,-248 15.75,-242 15.75,-242 15.75,-154 15.75,-154 15.75,-148 21.75,-142 27.75,-142 27.75,-142 106.75,-142 106.75,-142 112.75,-142 118.75,-148 118.75,-154 118.75,-154 118.75,-242 118.75,-242 118.75,-248 112.75,-254 106.75,-254"/>
<text xml:space="preserve" text-anchor="start" x="33.88" y="-233.7" font-family="Times,serif" font-weight="bold" font-size="14.00">DoorsOpen</text>
<text xml:space="preserve" text-anchor="start" x="23.75" y="-208.5" font-family="Times,serif" font-size="10.00">$&gt;()</text>
<text xml:space="preserve" text-anchor="start" x="23.75" y="-197.25" font-family="Times,serif" font-size="10.00">board(dest_floor: int)</text>
<text xml:space="preserve" text-anchor="start" x="23.75" y="-186" font-family="Times,serif" font-size="10.00">tick()</text>
<text xml:space="preserve" text-anchor="start" x="23.75" y="-174.75" font-family="Times,serif" font-size="10.00">car_state()</text>
<text xml:space="preserve" text-anchor="start" x="23.75" y="-163.5" font-family="Times,serif" font-size="10.00">current_floor()</text>
<text xml:space="preserve" text-anchor="start" x="53.75" y="-152.25" font-family="Times,serif" font-size="10.00"> &#160;&#160;&#160;&#160;&#160;&#160;&#160;&#160;&#160;&#160;&#160;</text>
<polygon fill="#00688b" stroke="#00688b" points="15.75,-223.5 15.75,-223.5 118.75,-223.5 118.75,-223.5 15.75,-223.5"/>
<path fill="none" stroke="#00688b" d="M27.75,-142C27.75,-142 106.75,-142 106.75,-142 112.75,-142 118.75,-148 118.75,-154 118.75,-154 118.75,-242 118.75,-242 118.75,-248 112.75,-254 106.75,-254 106.75,-254 27.75,-254 27.75,-254 21.75,-254 15.75,-248 15.75,-242 15.75,-242 15.75,-154 15.75,-154 15.75,-148 21.75,-142 27.75,-142"/>
</g>
<!-- MovingToRequester&#45;&gt;DoorsOpen -->
<g id="edge3" class="edge">
<title>MovingToRequester&#45;&gt;DoorsOpen</title>
<path fill="none" stroke="red" d="M67.25,-306.5C67.25,-293.56 67.25,-279.09 67.25,-265.07"/>
<polygon fill="red" stroke="red" points="70.75,-265.47 67.25,-255.47 63.75,-265.47 70.75,-265.47"/>
<text xml:space="preserve" text-anchor="middle" x="81.12" y="-275.2" font-family="Times,serif" font-size="14.00"> tick </text>
</g>
<!-- Riding -->
<g id="node5" class="node">
<title>Riding</title>
<path fill="azure" stroke="none" d="M92.88,-89.5C92.88,-89.5 41.62,-89.5 41.62,-89.5 35.62,-89.5 29.62,-83.5 29.62,-77.5 29.62,-77.5 29.62,-12 29.62,-12 29.62,-6 35.62,0 41.62,0 41.62,0 92.88,0 92.88,0 98.88,0 104.88,-6 104.88,-12 104.88,-12 104.88,-77.5 104.88,-77.5 104.88,-83.5 98.88,-89.5 92.88,-89.5"/>
<text xml:space="preserve" text-anchor="start" x="47.75" y="-69.2" font-family="Times,serif" font-weight="bold" font-size="14.00">Riding</text>
<text xml:space="preserve" text-anchor="start" x="37.62" y="-44" font-family="Times,serif" font-size="10.00">tick()</text>
<text xml:space="preserve" text-anchor="start" x="37.62" y="-32.75" font-family="Times,serif" font-size="10.00">car_state()</text>
<text xml:space="preserve" text-anchor="start" x="37.62" y="-21.5" font-family="Times,serif" font-size="10.00">current_floor()</text>
<text xml:space="preserve" text-anchor="start" x="53.75" y="-10.25" font-family="Times,serif" font-size="10.00"> &#160;&#160;&#160;&#160;&#160;&#160;&#160;&#160;&#160;&#160;&#160;</text>
<polygon fill="#00688b" stroke="#00688b" points="29.62,-59 29.62,-59 104.88,-59 104.88,-59 29.62,-59"/>
<path fill="none" stroke="#00688b" d="M41.62,0C41.62,0 92.88,0 92.88,0 98.88,0 104.88,-6 104.88,-12 104.88,-12 104.88,-77.5 104.88,-77.5 104.88,-83.5 98.88,-89.5 92.88,-89.5 92.88,-89.5 41.62,-89.5 41.62,-89.5 35.62,-89.5 29.62,-83.5 29.62,-77.5 29.62,-77.5 29.62,-12 29.62,-12 29.62,-6 35.62,0 41.62,0"/>
</g>
<!-- DoorsOpen&#45;&gt;Riding -->
<g id="edge4" class="edge">
<title>DoorsOpen&#45;&gt;Riding</title>
<path fill="none" stroke="red" d="M39.51,-142.07C36.57,-130.75 35.45,-118.82 38,-107.5 38.55,-105.06 39.21,-102.59 39.95,-100.13"/>
<polygon fill="red" stroke="red" points="43.2,-101.45 43.21,-90.86 36.59,-99.13 43.2,-101.45"/>
<text xml:space="preserve" text-anchor="middle" x="57.12" y="-110.7" font-family="Times,serif" font-size="14.00"> board </text>
</g>
<!-- Riding&#45;&gt;DoorsOpen -->
<g id="edge5" class="edge">
<title>Riding&#45;&gt;DoorsOpen</title>
<path fill="none" stroke="red" d="M74.39,-89.18C75.16,-95.32 75.82,-101.56 76.25,-107.5 76.8,-115.03 76.81,-122.92 76.49,-130.75"/>
<polygon fill="red" stroke="red" points="73,-130.43 75.87,-140.63 79.98,-130.86 73,-130.43"/>
<text xml:space="preserve" text-anchor="middle" x="90.58" y="-110.7" font-family="Times,serif" font-size="14.00"> tick </text>
</g>
</g>
</svg>
