<?xml version="1.0" encoding="UTF-8" standalone="no"?>
<!DOCTYPE svg PUBLIC "-//W3C//DTD SVG 1.1//EN"
 "http://www.w3.org/Graphics/SVG/1.1/DTD/svg11.dtd">
<!-- Generated by graphviz version 14.1.5 (20260411.2331)
 -->
<!-- Title: PickPlace Pages: 1 -->
<svg width="654pt" height="1521pt"
 viewBox="0.00 0.00 654.00 1521.00" xmlns="http://www.w3.org/2000/svg" xmlns:xlink="http://www.w3.org/1999/xlink">
<g id="graph0" class="graph" transform="scale(1 1) rotate(0) translate(4 1516.75)">
<title>PickPlace</title>
<polygon fill="white" stroke="none" points="-4,4 -4,-1516.75 649.6,-1516.75 649.6,4 -4,4"/>
<g id="clust1" class="cluster">
<title>cluster_Active</title>
<path fill="none" stroke="black" d="M20,-132C20,-132 332,-132 332,-132 338,-132 344,-138 344,-144 344,-144 344,-1368.75 344,-1368.75 344,-1374.75 338,-1380.75 332,-1380.75 332,-1380.75 20,-1380.75 20,-1380.75 14,-1380.75 8,-1374.75 8,-1368.75 8,-1368.75 8,-144 8,-144 8,-138 14,-132 20,-132"/>
<text xml:space="preserve" text-anchor="start" x="158" y="-1360" font-family="Times,serif" font-size="14.00">Active</text>
<polygon fill="black" stroke="black" points="154,-1353.25 154,-1353.25 198,-1353.25 198,-1353.25 154,-1353.25"/>
</g>
<g id="clust2" class="cluster">
<title>cluster_Task</title>
<path fill="none" stroke="black" d="M28,-140C28,-140 316,-140 316,-140 322,-140 328,-146 328,-152 328,-152 328,-1322.25 328,-1322.25 328,-1328.25 322,-1334.25 316,-1334.25 316,-1334.25 28,-1334.25 28,-1334.25 22,-1334.25 16,-1328.25 16,-1322.25 16,-1322.25 16,-152 16,-152 16,-146 22,-140 28,-140"/>
<text xml:space="preserve" text-anchor="start" x="158.88" y="-1313.5" font-family="Times,serif" font-size="14.00">Task</text>
<polygon fill="black" stroke="black" points="154.88,-1306.75 154.88,-1306.75 189.12,-1306.75 189.12,-1306.75 154.88,-1306.75"/>
</g>
<!-- Entry -->
<g id="node1" class="node">
<title>Entry</title>
<ellipse fill="black" stroke="#00688b" cx="359" cy="-1095.38" rx="7.2" ry="7.2"/>
</g>
<!-- Idle -->
<g id="node2" class="node">
<title>Idle</title>
<path fill="azure" stroke="none" d="M588,-981.25C588,-981.25 434,-981.25 434,-981.25 428,-981.25 422,-975.25 422,-969.25 422,-969.25 422,-915 422,-915 422,-909 428,-903 434,-903 434,-903 588,-903 588,-903 594,-903 600,-909 600,-915 600,-915 600,-969.25 600,-969.25 600,-975.25 594,-981.25 588,-981.25"/>
<text xml:space="preserve" text-anchor="start" x="499.75" y="-960.95" font-family="Times,serif" font-weight="bold" font-size="14.00">Idle</text>
<text xml:space="preserve" text-anchor="start" x="430" y="-935.75" font-family="Times,serif" font-size="10.00">start_task(place_x: float, place_y: float)</text>
<text xml:space="preserve" text-anchor="start" x="430" y="-924.5" font-family="Times,serif" font-size="10.00">status()</text>
<text xml:space="preserve" text-anchor="start" x="497.5" y="-913.25" font-family="Times,serif" font-size="10.00"> &#160;&#160;&#160;&#160;&#160;&#160;&#160;&#160;&#160;&#160;&#160;</text>
<polygon fill="#00688b" stroke="#00688b" points="422,-950.75 422,-950.75 600,-950.75 600,-950.75 422,-950.75"/>
<path fill="none" stroke="#00688b" d="M434,-903C434,-903 588,-903 588,-903 594,-903 600,-909 600,-915 600,-915 600,-969.25 600,-969.25 600,-975.25 594,-981.25 588,-981.25 588,-981.25 434,-981.25 434,-981.25 428,-981.25 422,-975.25 422,-969.25 422,-969.25 422,-915 422,-915 422,-909 428,-903 434,-903"/>
</g>
<!-- Entry&#45;&gt;Idle -->
<g id="edge1" class="edge">
<title>Entry&#45;&gt;Idle</title>
<path fill="none" stroke="red" d="M362.84,-1088.72C372.51,-1074.66 399.07,-1037.33 426,-1010.5 433.52,-1003 441.86,-995.54 450.28,-988.46"/>
<polygon fill="red" stroke="red" points="452.4,-991.25 457.89,-982.19 447.95,-985.85 452.4,-991.25"/>
</g>
<!-- Scanning -->
<g id="node8" class="node">
<title>Scanning</title>
<path fill="azure" stroke="none" d="M191.62,-1287.75C191.62,-1287.75 80.38,-1287.75 80.38,-1287.75 74.38,-1287.75 68.38,-1281.75 68.38,-1275.75 68.38,-1275.75 68.38,-1210.25 68.38,-1210.25 68.38,-1204.25 74.38,-1198.25 80.38,-1198.25 80.38,-1198.25 191.62,-1198.25 191.62,-1198.25 197.62,-1198.25 203.62,-1204.25 203.62,-1210.25 203.62,-1210.25 203.62,-1275.75 203.62,-1275.75 203.62,-1281.75 197.62,-1287.75 191.62,-1287.75"/>
<text xml:space="preserve" text-anchor="start" x="109.38" y="-1267.45" font-family="Times,serif" font-weight="bold" font-size="14.00">Scanning</text>
<text xml:space="preserve" text-anchor="start" x="76.38" y="-1242.25" font-family="Times,serif" font-size="10.00">$&gt;()</text>
<text xml:space="preserve" text-anchor="start" x="76.38" y="-1231" font-family="Times,serif" font-size="10.00">vision_result(detections: list)</text>
<text xml:space="preserve" text-anchor="start" x="76.38" y="-1219.75" font-family="Times,serif" font-size="10.00">status()</text>
<text xml:space="preserve" text-anchor="start" x="113.5" y="-1208.5" font-family="Times,serif" font-size="10.00"> &#160;&#160;&#160;&#160;&#160;&#160;&#160;&#160;&#160;&#160;&#160;&#160;&#160;&#160;&#160;&#160;&#160;&#160;&#160;</text>
<polygon fill="#00688b" stroke="#00688b" points="68.38,-1257.25 68.38,-1257.25 203.62,-1257.25 203.62,-1257.25 68.38,-1257.25"/>
<path fill="none" stroke="#00688b" d="M80.38,-1198.25C80.38,-1198.25 191.62,-1198.25 191.62,-1198.25 197.62,-1198.25 203.62,-1204.25 203.62,-1210.25 203.62,-1210.25 203.62,-1275.75 203.62,-1275.75 203.62,-1281.75 197.62,-1287.75 191.62,-1287.75 191.62,-1287.75 80.38,-1287.75 80.38,-1287.75 74.38,-1287.75 68.38,-1281.75 68.38,-1275.75 68.38,-1275.75 68.38,-1210.25 68.38,-1210.25 68.38,-1204.25 74.38,-1198.25 80.38,-1198.25"/>
</g>
<!-- Idle&#45;&gt;Scanning -->
<g id="edge2" class="edge">
<title>Idle&#45;&gt;Scanning</title>
<path fill="none" stroke="red" d="M485.15,-981.12C473.24,-999.78 459.6,-1022.96 449.75,-1045 424.08,-1102.43 455.1,-1138.54 408,-1180.25 374.19,-1210.19 352.13,-1188.68 308,-1198.25 277.29,-1204.91 243.76,-1213.21 214.52,-1220.78"/>
<polygon fill="red" stroke="red" points="213.8,-1217.35 205.01,-1223.26 215.57,-1224.12 213.8,-1217.35"/>
<text xml:space="preserve" text-anchor="middle" x="479.38" y="-1090.33" font-family="Times,serif" font-size="14.00"> start_task </text>
</g>
<!-- ReleasingForAbort -->
<g id="node3" class="node">
<title>ReleasingForAbort</title>
<path fill="azure" stroke="none" d="M632.5,-1140.12C632.5,-1140.12 529.5,-1140.12 529.5,-1140.12 523.5,-1140.12 517.5,-1134.12 517.5,-1128.12 517.5,-1128.12 517.5,-1062.62 517.5,-1062.62 517.5,-1056.62 523.5,-1050.62 529.5,-1050.62 529.5,-1050.62 632.5,-1050.62 632.5,-1050.62 638.5,-1050.62 644.5,-1056.62 644.5,-1062.62 644.5,-1062.62 644.5,-1128.12 644.5,-1128.12 644.5,-1134.12 638.5,-1140.12 632.5,-1140.12"/>
<text xml:space="preserve" text-anchor="start" x="525.5" y="-1119.83" font-family="Times,serif" font-weight="bold" font-size="14.00">ReleasingForAbort</text>
<text xml:space="preserve" text-anchor="start" x="525.5" y="-1094.62" font-family="Times,serif" font-size="10.00">$&gt;()</text>
<text xml:space="preserve" text-anchor="start" x="525.5" y="-1083.38" font-family="Times,serif" font-size="10.00">gripper_released()</text>
<text xml:space="preserve" text-anchor="start" x="525.5" y="-1072.12" font-family="Times,serif" font-size="10.00">status()</text>
<text xml:space="preserve" text-anchor="start" x="548.75" y="-1060.88" font-family="Times,serif" font-size="10.00"> &#160;&#160;&#160;&#160;&#160;&#160;&#160;&#160;&#160;&#160;&#160;</text>
<polygon fill="#00688b" stroke="#00688b" points="517.5,-1109.62 517.5,-1109.62 644.5,-1109.62 644.5,-1109.62 517.5,-1109.62"/>
<path fill="none" stroke="#00688b" d="M529.5,-1050.62C529.5,-1050.62 632.5,-1050.62 632.5,-1050.62 638.5,-1050.62 644.5,-1056.62 644.5,-1062.62 644.5,-1062.62 644.5,-1128.12 644.5,-1128.12 644.5,-1134.12 638.5,-1140.12 632.5,-1140.12 632.5,-1140.12 529.5,-1140.12 529.5,-1140.12 523.5,-1140.12 517.5,-1134.12 517.5,-1128.12 517.5,-1128.12 517.5,-1062.62 517.5,-1062.62 517.5,-1056.62 523.5,-1050.62 529.5,-1050.62"/>
</g>
<!-- ReleasingForAbort&#45;&gt;Idle -->
<g id="edge19" class="edge">
<title>ReleasingForAbort&#45;&gt;Idle</title>
<path fill="none" stroke="red" d="M560.75,-1050.63C552.17,-1032.08 542.13,-1010.39 533.33,-991.38"/>
<polygon fill="red" stroke="red" points="536.6,-990.11 529.22,-982.5 530.25,-993.05 536.6,-990.11"/>
<text xml:space="preserve" text-anchor="middle" x="596.85" y="-1013.7" font-family="Times,serif" font-size="14.00"> gripper_released </text>
</g>
<!-- Complete -->
<g id="node4" class="node">
<title>Complete</title>
<path fill="azure" stroke="none" d="M404,-89.5C404,-89.5 250,-89.5 250,-89.5 244,-89.5 238,-83.5 238,-77.5 238,-77.5 238,-12 238,-12 238,-6 244,0 250,0 250,0 404,0 404,0 410,0 416,-6 416,-12 416,-12 416,-77.5 416,-77.5 416,-83.5 410,-89.5 404,-89.5"/>
<text xml:space="preserve" text-anchor="start" x="298.88" y="-69.2" font-family="Times,serif" font-weight="bold" font-size="14.00">Complete</text>
<text xml:space="preserve" text-anchor="start" x="246" y="-44" font-family="Times,serif" font-size="10.00">$&gt;()</text>
<text xml:space="preserve" text-anchor="start" x="246" y="-32.75" font-family="Times,serif" font-size="10.00">start_task(place_x: float, place_y: float)</text>
<text xml:space="preserve" text-anchor="start" x="246" y="-21.5" font-family="Times,serif" font-size="10.00">status()</text>
<text xml:space="preserve" text-anchor="start" x="313.5" y="-10.25" font-family="Times,serif" font-size="10.00"> &#160;&#160;&#160;&#160;&#160;&#160;&#160;&#160;&#160;&#160;&#160;</text>
<polygon fill="#00688b" stroke="#00688b" points="238,-59 238,-59 416,-59 416,-59 238,-59"/>
<path fill="none" stroke="#00688b" d="M250,0C250,0 404,0 404,0 410,0 416,-6 416,-12 416,-12 416,-77.5 416,-77.5 416,-83.5 410,-89.5 404,-89.5 404,-89.5 250,-89.5 250,-89.5 244,-89.5 238,-83.5 238,-77.5 238,-77.5 238,-12 238,-12 238,-6 244,0 250,0"/>
</g>
<!-- Complete&#45;&gt;Scanning -->
<g id="edge20" class="edge">
<title>Complete&#45;&gt;Scanning</title>
<path fill="none" stroke="red" d="M369.17,-89.28C373.32,-95.09 377.07,-101.23 380,-107.5 396.06,-141.89 394,-153.79 394,-191.75 394,-1096.38 394,-1096.38 394,-1096.38 394,-1119.89 391.25,-1128.76 375,-1145.75 332.44,-1190.24 266.55,-1214.72 214.72,-1227.84"/>
<polygon fill="red" stroke="red" points="213.92,-1224.43 205.03,-1230.19 215.57,-1231.23 213.92,-1224.43"/>
<text xml:space="preserve" text-anchor="middle" x="423.62" y="-647.45" font-family="Times,serif" font-size="14.00"> start_task </text>
</g>
<!-- Failed -->
<g id="node5" class="node">
<title>Failed</title>
<path fill="azure" stroke="none" d="M213,-1512.75C213,-1512.75 59,-1512.75 59,-1512.75 53,-1512.75 47,-1506.75 47,-1500.75 47,-1500.75 47,-1435.25 47,-1435.25 47,-1429.25 53,-1423.25 59,-1423.25 59,-1423.25 213,-1423.25 213,-1423.25 219,-1423.25 225,-1429.25 225,-1435.25 225,-1435.25 225,-1500.75 225,-1500.75 225,-1506.75 219,-1512.75 213,-1512.75"/>
<text xml:space="preserve" text-anchor="start" x="118" y="-1492.45" font-family="Times,serif" font-weight="bold" font-size="14.00">Failed</text>
<text xml:space="preserve" text-anchor="start" x="55" y="-1467.25" font-family="Times,serif" font-size="10.00">$&gt;()</text>
<text xml:space="preserve" text-anchor="start" x="55" y="-1456" font-family="Times,serif" font-size="10.00">start_task(place_x: float, place_y: float)</text>
<text xml:space="preserve" text-anchor="start" x="55" y="-1444.75" font-family="Times,serif" font-size="10.00">status()</text>
<text xml:space="preserve" text-anchor="start" x="122.5" y="-1433.5" font-family="Times,serif" font-size="10.00"> &#160;&#160;&#160;&#160;&#160;&#160;&#160;&#160;&#160;&#160;&#160;</text>
<polygon fill="#00688b" stroke="#00688b" points="47,-1482.25 47,-1482.25 225,-1482.25 225,-1482.25 47,-1482.25"/>
<path fill="none" stroke="#00688b" d="M59,-1423.25C59,-1423.25 213,-1423.25 213,-1423.25 219,-1423.25 225,-1429.25 225,-1435.25 225,-1435.25 225,-1500.75 225,-1500.75 225,-1506.75 219,-1512.75 213,-1512.75 213,-1512.75 59,-1512.75 59,-1512.75 53,-1512.75 47,-1506.75 47,-1500.75 47,-1500.75 47,-1435.25 47,-1435.25 47,-1429.25 53,-1423.25 59,-1423.25"/>
</g>
<!-- Failed&#45;&gt;Scanning -->
<g id="edge21" class="edge">
<title>Failed&#45;&gt;Scanning</title>
<path fill="none" stroke="red" d="M100.07,-1423.59C96.68,-1417.71 93.77,-1411.53 91.75,-1405.25 80.34,-1369.74 91.53,-1329.26 105.51,-1297.74"/>
<polygon fill="red" stroke="red" points="108.63,-1299.33 109.68,-1288.79 102.28,-1296.37 108.63,-1299.33"/>
<text xml:space="preserve" text-anchor="middle" x="121.38" y="-1391.95" font-family="Times,serif" font-size="14.00"> start_task </text>
</g>
<!-- Active -->
<g id="node6" class="node">
<title>Active</title>
<ellipse fill="azure" stroke="#00688b" cx="336" cy="-1243" rx="0.36" ry="0.36"/>
</g>
<!-- Task -->
<g id="node7" class="node">
<title>Task</title>
<ellipse fill="azure" stroke="#00688b" cx="317" cy="-1243" rx="0.36" ry="0.36"/>
</g>
<!-- Task&#45;&gt;ReleasingForAbort -->
<g id="edge3" class="edge">
<title>Task&#45;&gt;ReleasingForAbort</title>
<path fill="none" stroke="red" d="M328,-1193.27C356.31,-1179.02 428.58,-1189.79 454,-1180.25 476,-1171.99 498.05,-1159.35 517.45,-1146.36"/>
<polygon fill="red" stroke="red" points="519.24,-1149.38 525.5,-1140.83 515.28,-1143.61 519.24,-1149.38"/>
<text xml:space="preserve" text-anchor="middle" x="505.48" y="-1166.95" font-family="Times,serif" font-size="14.00"> abort </text>
</g>
<!-- Scanning&#45;&gt;Failed -->
<g id="edge4" class="edge">
<title>Scanning&#45;&gt;Failed</title>
<path fill="none" stroke="red" d="M147.41,-1287.56C154.41,-1320.06 160.97,-1365.53 155,-1405.25 154.65,-1407.59 154.23,-1409.96 153.75,-1412.35"/>
<polygon fill="red" stroke="red" points="150.35,-1411.51 151.48,-1422.05 157.16,-1413.1 150.35,-1411.51"/>
<text xml:space="preserve" text-anchor="middle" x="195.13" y="-1391.95" font-family="Times,serif" font-size="14.00"> vision_result </text>
</g>
<!-- Scanning&#45;&gt;Scanning -->
<g id="edge5" class="edge">
<title>Scanning&#45;&gt;Scanning</title>
<path fill="none" stroke="red" d="M203.48,-1255.26C214.25,-1253.47 221.62,-1249.38 221.62,-1243 221.62,-1239.11 218.89,-1236.08 214.31,-1233.89"/>
<polygon fill="red" stroke="red" points="215.52,-1230.6 204.94,-1231.16 213.56,-1237.32 215.52,-1230.6"/>
<text xml:space="preserve" text-anchor="middle" x="260.25" y="-1237.95" font-family="Times,serif" font-size="14.00"> vision_result </text>
</g>
<!-- PlanningGrasp -->
<g id="node9" class="node">
<title>PlanningGrasp</title>
<path fill="azure" stroke="none" d="M165.88,-1145.75C165.88,-1145.75 56.12,-1145.75 56.12,-1145.75 50.12,-1145.75 44.12,-1139.75 44.12,-1133.75 44.12,-1133.75 44.12,-1057 44.12,-1057 44.12,-1051 50.12,-1045 56.12,-1045 56.12,-1045 165.88,-1045 165.88,-1045 171.88,-1045 177.88,-1051 177.88,-1057 177.88,-1057 177.88,-1133.75 177.88,-1133.75 177.88,-1139.75 171.88,-1145.75 165.88,-1145.75"/>
<text xml:space="preserve" text-anchor="start" x="66.75" y="-1125.45" font-family="Times,serif" font-weight="bold" font-size="14.00">PlanningGrasp</text>
<text xml:space="preserve" text-anchor="start" x="52.12" y="-1100.25" font-family="Times,serif" font-size="10.00">$&gt;()</text>
<text xml:space="preserve" text-anchor="start" x="52.12" y="-1089" font-family="Times,serif" font-size="10.00">grasp_plan_ready(plan: dict)</text>
<text xml:space="preserve" text-anchor="start" x="52.12" y="-1077.75" font-family="Times,serif" font-size="10.00">grasp_plan_failed()</text>
<text xml:space="preserve" text-anchor="start" x="52.12" y="-1066.5" font-family="Times,serif" font-size="10.00">status()</text>
<text xml:space="preserve" text-anchor="start" x="88.5" y="-1055.25" font-family="Times,serif" font-size="10.00"> &#160;&#160;&#160;&#160;&#160;&#160;&#160;&#160;&#160;&#160;&#160;&#160;&#160;&#160;&#160;&#160;&#160;&#160;&#160;</text>
<polygon fill="#00688b" stroke="#00688b" points="44.12,-1115.25 44.12,-1115.25 177.88,-1115.25 177.88,-1115.25 44.12,-1115.25"/>
<path fill="none" stroke="#00688b" d="M56.12,-1045C56.12,-1045 165.88,-1045 165.88,-1045 171.88,-1045 177.88,-1051 177.88,-1057 177.88,-1057 177.88,-1133.75 177.88,-1133.75 177.88,-1139.75 171.88,-1145.75 165.88,-1145.75 165.88,-1145.75 56.12,-1145.75 56.12,-1145.75 50.12,-1145.75 44.12,-1139.75 44.12,-1133.75 44.12,-1133.75 44.12,-1057 44.12,-1057 44.12,-1051 50.12,-1045 56.12,-1045"/>
</g>
<!-- Scanning&#45;&gt;PlanningGrasp -->
<g id="edge6" class="edge">
<title>Scanning&#45;&gt;PlanningGrasp</title>
<path fill="none" stroke="red" d="M180.12,-1198.46C186.34,-1187.45 189.11,-1175.43 184,-1163.75 182.67,-1160.71 181.13,-1157.75 179.42,-1154.88"/>
<polygon fill="red" stroke="red" points="182.35,-1152.97 173.83,-1146.66 176.56,-1156.9 182.35,-1152.97"/>
<text xml:space="preserve" text-anchor="middle" x="225.28" y="-1166.95" font-family="Times,serif" font-size="14.00"> vision_result </text>
</g>
<!-- PlanningGrasp&#45;&gt;Scanning -->
<g id="edge8" class="edge">
<title>PlanningGrasp&#45;&gt;Scanning</title>
<path fill="none" stroke="red" d="M76.67,-1145.53C72.53,-1156.91 71.16,-1168.98 75.75,-1180.25 76.97,-1183.24 78.41,-1186.17 80.02,-1189.02"/>
<polygon fill="red" stroke="red" points="76.92,-1190.66 85.3,-1197.13 82.78,-1186.84 76.92,-1190.66"/>
<text xml:space="preserve" text-anchor="middle" x="127.88" y="-1166.95" font-family="Times,serif" font-size="14.00"> grasp_plan_failed </text>
</g>
<!-- PlanningGrasp&#45;&gt;PlanningGrasp -->
<g id="edge9" class="edge">
<title>PlanningGrasp&#45;&gt;PlanningGrasp</title>
<path fill="none" stroke="red" d="M177.54,-1108.67C188.41,-1106.77 195.88,-1102.33 195.88,-1095.38 195.88,-1091.13 193.1,-1087.83 188.48,-1085.47"/>
<polygon fill="red" stroke="red" points="189.58,-1082.15 178.99,-1082.53 187.5,-1088.83 189.58,-1082.15"/>
<text xml:space="preserve" text-anchor="middle" x="248" y="-1090.33" font-family="Times,serif" font-size="14.00"> grasp_plan_failed </text>
</g>
<!-- Approaching -->
<g id="node10" class="node">
<title>Approaching</title>
<path fill="azure" stroke="none" d="M159.88,-992.5C159.88,-992.5 92.12,-992.5 92.12,-992.5 86.12,-992.5 80.12,-986.5 80.12,-980.5 80.12,-980.5 80.12,-903.75 80.12,-903.75 80.12,-897.75 86.12,-891.75 92.12,-891.75 92.12,-891.75 159.88,-891.75 159.88,-891.75 165.88,-891.75 171.88,-897.75 171.88,-903.75 171.88,-903.75 171.88,-980.5 171.88,-980.5 171.88,-986.5 165.88,-992.5 159.88,-992.5"/>
<text xml:space="preserve" text-anchor="start" x="88.12" y="-972.2" font-family="Times,serif" font-weight="bold" font-size="14.00">Approaching</text>
<text xml:space="preserve" text-anchor="start" x="88.12" y="-947" font-family="Times,serif" font-size="10.00">$&gt;()</text>
<text xml:space="preserve" text-anchor="start" x="88.12" y="-935.75" font-family="Times,serif" font-size="10.00">at_waypoint()</text>
<text xml:space="preserve" text-anchor="start" x="88.12" y="-924.5" font-family="Times,serif" font-size="10.00">tick()</text>
<text xml:space="preserve" text-anchor="start" x="88.12" y="-913.25" font-family="Times,serif" font-size="10.00">status()</text>
<text xml:space="preserve" text-anchor="start" x="94.5" y="-902" font-family="Times,serif" font-size="10.00"> &#160;&#160;&#160;&#160;&#160;&#160;&#160;&#160;&#160;&#160;&#160;&#160;&#160;&#160;&#160;&#160;&#160;&#160;&#160;</text>
<polygon fill="#00688b" stroke="#00688b" points="80.12,-962 80.12,-962 171.88,-962 171.88,-962 80.12,-962"/>
<path fill="none" stroke="#00688b" d="M92.12,-891.75C92.12,-891.75 159.88,-891.75 159.88,-891.75 165.88,-891.75 171.88,-897.75 171.88,-903.75 171.88,-903.75 171.88,-980.5 171.88,-980.5 171.88,-986.5 165.88,-992.5 159.88,-992.5 159.88,-992.5 92.12,-992.5 92.12,-992.5 86.12,-992.5 80.12,-986.5 80.12,-980.5 80.12,-980.5 80.12,-903.75 80.12,-903.75 80.12,-897.75 86.12,-891.75 92.12,-891.75"/>
</g>
<!-- PlanningGrasp&#45;&gt;Approaching -->
<g id="edge7" class="edge">
<title>PlanningGrasp&#45;&gt;Approaching</title>
<path fill="none" stroke="red" d="M115.87,-1045.27C117.19,-1031.99 118.63,-1017.47 120,-1003.65"/>
<polygon fill="red" stroke="red" points="123.48,-1004.05 120.98,-993.75 116.51,-1003.36 123.48,-1004.05"/>
<text xml:space="preserve" text-anchor="middle" x="170.7" y="-1013.7" font-family="Times,serif" font-size="14.00"> grasp_plan_ready </text>
</g>
<!-- Grasping -->
<g id="node11" class="node">
<title>Grasping</title>
<path fill="azure" stroke="none" d="M272.5,-839.25C272.5,-839.25 169.5,-839.25 169.5,-839.25 163.5,-839.25 157.5,-833.25 157.5,-827.25 157.5,-827.25 157.5,-761.75 157.5,-761.75 157.5,-755.75 163.5,-749.75 169.5,-749.75 169.5,-749.75 272.5,-749.75 272.5,-749.75 278.5,-749.75 284.5,-755.75 284.5,-761.75 284.5,-761.75 284.5,-827.25 284.5,-827.25 284.5,-833.25 278.5,-839.25 272.5,-839.25"/>
<text xml:space="preserve" text-anchor="start" x="193.62" y="-818.95" font-family="Times,serif" font-weight="bold" font-size="14.00">Grasping</text>
<text xml:space="preserve" text-anchor="start" x="165.5" y="-793.75" font-family="Times,serif" font-size="10.00">$&gt;()</text>
<text xml:space="preserve" text-anchor="start" x="165.5" y="-782.5" font-family="Times,serif" font-size="10.00">gripper_closed(force: float)</text>
<text xml:space="preserve" text-anchor="start" x="165.5" y="-771.25" font-family="Times,serif" font-size="10.00">status()</text>
<text xml:space="preserve" text-anchor="start" x="198.5" y="-760" font-family="Times,serif" font-size="10.00"> &#160;&#160;&#160;&#160;&#160;&#160;&#160;&#160;&#160;&#160;&#160;&#160;&#160;&#160;&#160;&#160;&#160;&#160;&#160;</text>
<polygon fill="#00688b" stroke="#00688b" points="157.5,-808.75 157.5,-808.75 284.5,-808.75 284.5,-808.75 157.5,-808.75"/>
<path fill="none" stroke="#00688b" d="M169.5,-749.75C169.5,-749.75 272.5,-749.75 272.5,-749.75 278.5,-749.75 284.5,-755.75 284.5,-761.75 284.5,-761.75 284.5,-827.25 284.5,-827.25 284.5,-833.25 278.5,-839.25 272.5,-839.25 272.5,-839.25 169.5,-839.25 169.5,-839.25 163.5,-839.25 157.5,-833.25 157.5,-827.25 157.5,-827.25 157.5,-761.75 157.5,-761.75 157.5,-755.75 163.5,-749.75 169.5,-749.75"/>
</g>
<!-- Approaching&#45;&gt;Grasping -->
<g id="edge10" class="edge">
<title>Approaching&#45;&gt;Grasping</title>
<path fill="none" stroke="red" d="M158.16,-891.82C167.26,-877.88 177.2,-862.64 186.43,-848.49"/>
<polygon fill="red" stroke="red" points="189.33,-850.45 191.86,-840.16 183.47,-846.63 189.33,-850.45"/>
<text xml:space="preserve" text-anchor="middle" x="216.31" y="-860.45" font-family="Times,serif" font-size="14.00"> at_waypoint </text>
</g>
<!-- VerifyingGrasp -->
<g id="node12" class="node">
<title>VerifyingGrasp</title>
<path fill="azure" stroke="none" d="M254.38,-697.25C254.38,-697.25 171.62,-697.25 171.62,-697.25 165.62,-697.25 159.62,-691.25 159.62,-685.25 159.62,-685.25 159.62,-619.75 159.62,-619.75 159.62,-613.75 165.62,-607.75 171.62,-607.75 171.62,-607.75 254.38,-607.75 254.38,-607.75 260.38,-607.75 266.38,-613.75 266.38,-619.75 266.38,-619.75 266.38,-685.25 266.38,-685.25 266.38,-691.25 260.38,-697.25 254.38,-697.25"/>
<text xml:space="preserve" text-anchor="start" x="167.62" y="-676.95" font-family="Times,serif" font-weight="bold" font-size="14.00">VerifyingGrasp</text>
<text xml:space="preserve" text-anchor="start" x="167.62" y="-651.75" font-family="Times,serif" font-size="10.00">$&gt;()</text>
<text xml:space="preserve" text-anchor="start" x="167.62" y="-640.5" font-family="Times,serif" font-size="10.00">gripper_released()</text>
<text xml:space="preserve" text-anchor="start" x="167.62" y="-629.25" font-family="Times,serif" font-size="10.00">status()</text>
<text xml:space="preserve" text-anchor="start" x="181.88" y="-618" font-family="Times,serif" font-size="10.00"> &#160;&#160;&#160;&#160;&#160;&#160;&#160;&#160;&#160;&#160;&#160;&#160;&#160;&#160;&#160;&#160;&#160;&#160;&#160;</text>
<polygon fill="#00688b" stroke="#00688b" points="159.62,-666.75 159.62,-666.75 266.38,-666.75 266.38,-666.75 159.62,-666.75"/>
<path fill="none" stroke="#00688b" d="M171.62,-607.75C171.62,-607.75 254.38,-607.75 254.38,-607.75 260.38,-607.75 266.38,-613.75 266.38,-619.75 266.38,-619.75 266.38,-685.25 266.38,-685.25 266.38,-691.25 260.38,-697.25 254.38,-697.25 254.38,-697.25 171.62,-697.25 171.62,-697.25 165.62,-697.25 159.62,-691.25 159.62,-685.25 159.62,-685.25 159.62,-619.75 159.62,-619.75 159.62,-613.75 165.62,-607.75 171.62,-607.75"/>
</g>
<!-- Grasping&#45;&gt;VerifyingGrasp -->
<g id="edge11" class="edge">
<title>Grasping&#45;&gt;VerifyingGrasp</title>
<path fill="none" stroke="red" d="M213.27,-750.08C212.43,-743.95 211.72,-737.7 211.25,-731.75 210.66,-724.2 210.41,-716.22 210.38,-708.36"/>
<polygon fill="red" stroke="red" points="213.87,-708.55 210.46,-698.52 206.87,-708.49 213.87,-708.55"/>
<text xml:space="preserve" text-anchor="middle" x="255.12" y="-718.45" font-family="Times,serif" font-size="14.00"> gripper_closed </text>
</g>
<!-- VerifyingGrasp&#45;&gt;Scanning -->
<g id="edge12" class="edge">
<title>VerifyingGrasp&#45;&gt;Scanning</title>
<path fill="none" stroke="red" d="M265.96,-679.78C279.15,-689.06 291.62,-700.86 299,-715.25 334.96,-785.35 290.98,-813.42 282.5,-891.75 277.68,-936.27 272.13,-948.94 282.5,-992.5 288.55,-1017.93 302.95,-1019.57 309,-1045 319.37,-1088.56 327.9,-1105.15 309,-1145.75 291.23,-1183.92 250.87,-1207.59 213.59,-1221.91"/>
<polygon fill="red" stroke="red" points="212.8,-1218.47 204.6,-1225.19 215.2,-1225.05 212.8,-1218.47"/>
<text xml:space="preserve" text-anchor="middle" x="331.25" y="-937.08" font-family="Times,serif" font-size="14.00"> gripper_released </text>
</g>
<!-- Transporting -->
<g id="node13" class="node">
<title>Transporting</title>
<path fill="azure" stroke="none" d="M247.62,-555.25C247.62,-555.25 178.38,-555.25 178.38,-555.25 172.38,-555.25 166.38,-549.25 166.38,-543.25 166.38,-543.25 166.38,-455.25 166.38,-455.25 166.38,-449.25 172.38,-443.25 178.38,-443.25 178.38,-443.25 247.62,-443.25 247.62,-443.25 253.62,-443.25 259.62,-449.25 259.62,-455.25 259.62,-455.25 259.62,-543.25 259.62,-543.25 259.62,-549.25 253.62,-555.25 247.62,-555.25"/>
<text xml:space="preserve" text-anchor="start" x="174.38" y="-534.95" font-family="Times,serif" font-weight="bold" font-size="14.00">Transporting</text>
<text xml:space="preserve" text-anchor="start" x="174.38" y="-509.75" font-family="Times,serif" font-size="10.00">$&gt;()</text>
<text xml:space="preserve" text-anchor="start" x="174.38" y="-498.5" font-family="Times,serif" font-size="10.00">at_waypoint()</text>
<text xml:space="preserve" text-anchor="start" x="174.38" y="-487.25" font-family="Times,serif" font-size="10.00">slip_detected()</text>
<text xml:space="preserve" text-anchor="start" x="174.38" y="-476" font-family="Times,serif" font-size="10.00">tick()</text>
<text xml:space="preserve" text-anchor="start" x="174.38" y="-464.75" font-family="Times,serif" font-size="10.00">status()</text>
<text xml:space="preserve" text-anchor="start" x="182.25" y="-453.5" font-family="Times,serif" font-size="10.00"> &#160;&#160;&#160;&#160;&#160;&#160;&#160;&#160;&#160;&#160;&#160;&#160;&#160;&#160;&#160;&#160;&#160;&#160;&#160;</text>
<polygon fill="#00688b" stroke="#00688b" points="166.38,-524.75 166.38,-524.75 259.62,-524.75 259.62,-524.75 166.38,-524.75"/>
<path fill="none" stroke="#00688b" d="M178.38,-443.25C178.38,-443.25 247.62,-443.25 247.62,-443.25 253.62,-443.25 259.62,-449.25 259.62,-455.25 259.62,-455.25 259.62,-543.25 259.62,-543.25 259.62,-549.25 253.62,-555.25 247.62,-555.25 247.62,-555.25 178.38,-555.25 178.38,-555.25 172.38,-555.25 166.38,-549.25 166.38,-543.25 166.38,-543.25 166.38,-455.25 166.38,-455.25 166.38,-449.25 172.38,-443.25 178.38,-443.25"/>
</g>
<!-- VerifyingGrasp&#45;&gt;Transporting -->
<g id="edge13" class="edge">
<title>VerifyingGrasp&#45;&gt;Transporting</title>
<path fill="none" stroke="red" d="M213,-607.75C213,-594.81 213,-580.34 213,-566.32"/>
<polygon fill="red" stroke="red" points="216.5,-566.72 213,-556.72 209.5,-566.72 216.5,-566.72"/>
<text xml:space="preserve" text-anchor="middle" x="224.25" y="-576.45" font-family="Times,serif" font-size="14.00"> $&gt; </text>
</g>
<!-- Placing -->
<g id="node14" class="node">
<title>Placing</title>
<path fill="azure" stroke="none" d="M264.88,-390.75C264.88,-390.75 215.12,-390.75 215.12,-390.75 209.12,-390.75 203.12,-384.75 203.12,-378.75 203.12,-378.75 203.12,-302 203.12,-302 203.12,-296 209.12,-290 215.12,-290 215.12,-290 264.88,-290 264.88,-290 270.88,-290 276.88,-296 276.88,-302 276.88,-302 276.88,-378.75 276.88,-378.75 276.88,-384.75 270.88,-390.75 264.88,-390.75"/>
<text xml:space="preserve" text-anchor="start" x="218.62" y="-370.45" font-family="Times,serif" font-weight="bold" font-size="14.00">Placing</text>
<text xml:space="preserve" text-anchor="start" x="211.12" y="-345.25" font-family="Times,serif" font-size="10.00">$&gt;()</text>
<text xml:space="preserve" text-anchor="start" x="211.12" y="-334" font-family="Times,serif" font-size="10.00">at_waypoint()</text>
<text xml:space="preserve" text-anchor="start" x="211.12" y="-322.75" font-family="Times,serif" font-size="10.00">tick()</text>
<text xml:space="preserve" text-anchor="start" x="211.12" y="-311.5" font-family="Times,serif" font-size="10.00">status()</text>
<text xml:space="preserve" text-anchor="start" x="217.5" y="-300.25" font-family="Times,serif" font-size="10.00"> &#160;&#160;&#160;&#160;&#160;&#160;&#160;&#160;&#160;&#160;&#160;&#160;&#160;&#160;&#160;&#160;&#160;&#160;&#160;</text>
<polygon fill="#00688b" stroke="#00688b" points="203.12,-360.25 203.12,-360.25 276.88,-360.25 276.88,-360.25 203.12,-360.25"/>
<path fill="none" stroke="#00688b" d="M215.12,-290C215.12,-290 264.88,-290 264.88,-290 270.88,-290 276.88,-296 276.88,-302 276.88,-302 276.88,-378.75 276.88,-378.75 276.88,-384.75 270.88,-390.75 264.88,-390.75 264.88,-390.75 215.12,-390.75 215.12,-390.75 209.12,-390.75 203.12,-384.75 203.12,-378.75 203.12,-378.75 203.12,-302 203.12,-302 203.12,-296 209.12,-290 215.12,-290"/>
</g>
<!-- Transporting&#45;&gt;Placing -->
<g id="edge14" class="edge">
<title>Transporting&#45;&gt;Placing</title>
<path fill="none" stroke="red" d="M222.44,-443.38C224.75,-429.99 227.23,-415.59 229.57,-401.95"/>
<polygon fill="red" stroke="red" points="233.01,-402.65 231.25,-392.2 226.11,-401.46 233.01,-402.65"/>
<text xml:space="preserve" text-anchor="middle" x="265.24" y="-411.95" font-family="Times,serif" font-size="14.00"> at_waypoint </text>
</g>
<!-- RecoverFromSlip -->
<g id="node16" class="node">
<title>RecoverFromSlip</title>
<path fill="azure" stroke="none" d="M154.38,-385.12C154.38,-385.12 59.62,-385.12 59.62,-385.12 53.62,-385.12 47.62,-379.12 47.62,-373.12 47.62,-373.12 47.62,-307.62 47.62,-307.62 47.62,-301.62 53.62,-295.62 59.62,-295.62 59.62,-295.62 154.38,-295.62 154.38,-295.62 160.38,-295.62 166.38,-301.62 166.38,-307.62 166.38,-307.62 166.38,-373.12 166.38,-373.12 166.38,-379.12 160.38,-385.12 154.38,-385.12"/>
<text xml:space="preserve" text-anchor="start" x="55.62" y="-364.82" font-family="Times,serif" font-weight="bold" font-size="14.00">RecoverFromSlip</text>
<text xml:space="preserve" text-anchor="start" x="55.62" y="-339.62" font-family="Times,serif" font-size="10.00">$&gt;()</text>
<text xml:space="preserve" text-anchor="start" x="55.62" y="-328.38" font-family="Times,serif" font-size="10.00">gripper_released()</text>
<text xml:space="preserve" text-anchor="start" x="55.62" y="-317.12" font-family="Times,serif" font-size="10.00">status()</text>
<text xml:space="preserve" text-anchor="start" x="69.88" y="-305.88" font-family="Times,serif" font-size="10.00"> &#160;&#160;&#160;&#160;&#160;&#160;&#160;&#160;&#160;&#160;&#160;&#160;&#160;&#160;&#160;&#160;&#160;&#160;&#160;</text>
<polygon fill="#00688b" stroke="#00688b" points="47.62,-354.62 47.62,-354.62 166.38,-354.62 166.38,-354.62 47.62,-354.62"/>
<path fill="none" stroke="#00688b" d="M59.62,-295.62C59.62,-295.62 154.38,-295.62 154.38,-295.62 160.38,-295.62 166.38,-301.62 166.38,-307.62 166.38,-307.62 166.38,-373.12 166.38,-373.12 166.38,-379.12 160.38,-385.12 154.38,-385.12 154.38,-385.12 59.62,-385.12 59.62,-385.12 53.62,-385.12 47.62,-379.12 47.62,-373.12 47.62,-373.12 47.62,-307.62 47.62,-307.62 47.62,-301.62 53.62,-295.62 59.62,-295.62"/>
</g>
<!-- Transporting&#45;&gt;RecoverFromSlip -->
<g id="edge15" class="edge">
<title>Transporting&#45;&gt;RecoverFromSlip</title>
<path fill="none" stroke="red" d="M166.42,-454.44C158.08,-445.28 149.93,-435.33 143.25,-425.25 137.07,-415.93 131.55,-405.38 126.78,-394.99"/>
<polygon fill="red" stroke="red" points="130.1,-393.84 122.89,-386.08 123.69,-396.65 130.1,-393.84"/>
<text xml:space="preserve" text-anchor="middle" x="182.62" y="-411.95" font-family="Times,serif" font-size="14.00"> slip_detected </text>
</g>
<!-- Releasing -->
<g id="node15" class="node">
<title>Releasing</title>
<path fill="azure" stroke="none" d="M293.75,-237.5C293.75,-237.5 228.25,-237.5 228.25,-237.5 222.25,-237.5 216.25,-231.5 216.25,-225.5 216.25,-225.5 216.25,-160 216.25,-160 216.25,-154 222.25,-148 228.25,-148 228.25,-148 293.75,-148 293.75,-148 299.75,-148 305.75,-154 305.75,-160 305.75,-160 305.75,-225.5 305.75,-225.5 305.75,-231.5 299.75,-237.5 293.75,-237.5"/>
<text xml:space="preserve" text-anchor="start" x="233.25" y="-217.2" font-family="Times,serif" font-weight="bold" font-size="14.00">Releasing</text>
<text xml:space="preserve" text-anchor="start" x="224.25" y="-192" font-family="Times,serif" font-size="10.00">$&gt;()</text>
<text xml:space="preserve" text-anchor="start" x="224.25" y="-180.75" font-family="Times,serif" font-size="10.00">gripper_released()</text>
<text xml:space="preserve" text-anchor="start" x="224.25" y="-169.5" font-family="Times,serif" font-size="10.00">status()</text>
<text xml:space="preserve" text-anchor="start" x="238.5" y="-158.25" font-family="Times,serif" font-size="10.00"> &#160;&#160;&#160;&#160;&#160;&#160;&#160;&#160;&#160;&#160;&#160;&#160;&#160;&#160;&#160;&#160;&#160;&#160;&#160;</text>
<polygon fill="#00688b" stroke="#00688b" points="216.25,-207 216.25,-207 305.75,-207 305.75,-207 216.25,-207"/>
<path fill="none" stroke="#00688b" d="M228.25,-148C228.25,-148 293.75,-148 293.75,-148 299.75,-148 305.75,-154 305.75,-160 305.75,-160 305.75,-225.5 305.75,-225.5 305.75,-231.5 299.75,-237.5 293.75,-237.5 293.75,-237.5 228.25,-237.5 228.25,-237.5 222.25,-237.5 216.25,-231.5 216.25,-225.5 216.25,-225.5 216.25,-160 216.25,-160 216.25,-154 222.25,-148 228.25,-148"/>
</g>
<!-- Placing&#45;&gt;Releasing -->
<g id="edge16" class="edge">
<title>Placing&#45;&gt;Releasing</title>
<path fill="none" stroke="red" d="M247.11,-290.07C249.04,-276.66 251.15,-262.06 253.12,-248.38"/>
<polygon fill="red" stroke="red" points="256.56,-249.04 254.53,-238.64 249.63,-248.04 256.56,-249.04"/>
<text xml:space="preserve" text-anchor="middle" x="288.88" y="-258.7" font-family="Times,serif" font-size="14.00"> at_waypoint </text>
</g>
<!-- Releasing&#45;&gt;Complete -->
<g id="edge17" class="edge">
<title>Releasing&#45;&gt;Complete</title>
<path fill="none" stroke="red" d="M268.82,-148.25C272.09,-134.82 276.56,-120.22 282.5,-107.5 283.79,-104.73 285.21,-101.96 286.73,-99.21"/>
<polygon fill="red" stroke="red" points="289.7,-101.06 291.81,-90.68 283.69,-97.48 289.7,-101.06"/>
<text xml:space="preserve" text-anchor="middle" x="331.25" y="-110.7" font-family="Times,serif" font-size="14.00"> gripper_released </text>
</g>
<!-- RecoverFromSlip&#45;&gt;Scanning -->
<g id="edge18" class="edge">
<title>RecoverFromSlip&#45;&gt;Scanning</title>
<path fill="none" stroke="red" d="M78.11,-385.04C60.75,-415.47 42,-457.71 42,-498.25 42,-724.5 42,-724.5 42,-724.5 42,-866.98 36.56,-902.53 35,-1045 34.51,-1089.78 18.02,-1104.32 35,-1145.75 41.81,-1162.36 53.14,-1177.42 65.81,-1190.44"/>
<polygon fill="red" stroke="red" points="63.15,-1192.74 72.75,-1197.21 68.04,-1187.73 63.15,-1192.74"/>
<text xml:space="preserve" text-anchor="middle" x="90.68" y="-789.45" font-family="Times,serif" font-size="14.00"> gripper_released </text>
</g>
</g>
</svg>
