<?xml version="1.0" encoding="UTF-8" standalone="no"?>
<!DOCTYPE svg PUBLIC "-//W3C//DTD SVG 1.1//EN"
 "http://www.w3.org/Graphics/SVG/1.1/DTD/svg11.dtd">
<!-- Generated by graphviz version 14.1.5 (20260411.2331)
 -->
<!-- Title: ToolChanger Pages: 1 -->
<svg width="510pt" height="658pt"
 viewBox="0.00 0.00 510.00 658.00" xmlns="http://www.w3.org/2000/svg" xmlns:xlink="http://www.w3.org/1999/xlink">
<g id="graph0" class="graph" transform="scale(1 1) rotate(0) translate(4 653.5)">
<title>ToolChanger</title>
<polygon fill="white" stroke="none" points="-4,4 -4,-653.5 506.17,-653.5 506.17,4 -4,4"/>
<g id="clust1" class="cluster">
<title>cluster_Transitioning</title>
<path fill="none" stroke="black" d="M199.65,-132C199.65,-132 428.65,-132 428.65,-132 434.65,-132 440.65,-138 440.65,-144 440.65,-144 440.65,-329.75 440.65,-329.75 440.65,-335.75 434.65,-341.75 428.65,-341.75 428.65,-341.75 199.65,-341.75 199.65,-341.75 193.65,-341.75 187.65,-335.75 187.65,-329.75 187.65,-329.75 187.65,-144 187.65,-144 187.65,-138 193.65,-132 199.65,-132"/>
<text xml:space="preserve" text-anchor="start" x="277.77" y="-321" font-family="Times,serif" font-size="14.00">Transitioning</text>
<polygon fill="black" stroke="black" points="273.77,-314.25 273.77,-314.25 354.52,-314.25 354.52,-314.25 273.77,-314.25"/>
</g>
<g id="clust2" class="cluster">
<title>cluster_Coupling</title>
<path fill="none" stroke="black" d="M318.65,-140C318.65,-140 420.65,-140 420.65,-140 426.65,-140 432.65,-146 432.65,-152 432.65,-152 432.65,-283.25 432.65,-283.25 432.65,-289.25 426.65,-295.25 420.65,-295.25 420.65,-295.25 318.65,-295.25 318.65,-295.25 312.65,-295.25 306.65,-289.25 306.65,-283.25 306.65,-283.25 306.65,-152 306.65,-152 306.65,-146 312.65,-140 318.65,-140"/>
<text xml:space="preserve" text-anchor="start" x="344.52" y="-274.5" font-family="Times,serif" font-size="14.00">Coupling</text>
<polygon fill="black" stroke="black" points="340.52,-267.75 340.52,-267.75 398.77,-267.75 398.77,-267.75 340.52,-267.75"/>
</g>
<!-- Entry -->
<g id="node1" class="node">
<title>Entry</title>
<ellipse fill="black" stroke="#00688b" cx="88.65" cy="-198.38" rx="7.2" ry="7.2"/>
</g>
<!-- NoTool -->
<g id="node2" class="node">
<title>NoTool</title>
<path fill="azure" stroke="none" d="M314.27,-89.5C314.27,-89.5 209.02,-89.5 209.02,-89.5 203.02,-89.5 197.02,-83.5 197.02,-77.5 197.02,-77.5 197.02,-12 197.02,-12 197.02,-6 203.02,0 209.02,0 209.02,0 314.27,0 314.27,0 320.27,0 326.27,-6 326.27,-12 326.27,-12 326.27,-77.5 326.27,-77.5 326.27,-83.5 320.27,-89.5 314.27,-89.5"/>
<text xml:space="preserve" text-anchor="start" x="240.65" y="-69.2" font-family="Times,serif" font-weight="bold" font-size="14.00">NoTool</text>
<text xml:space="preserve" text-anchor="start" x="205.02" y="-44" font-family="Times,serif" font-size="10.00">request_couple(tool_id: str)</text>
<text xml:space="preserve" text-anchor="start" x="205.02" y="-32.75" font-family="Times,serif" font-size="10.00">request_uncouple()</text>
<text xml:space="preserve" text-anchor="start" x="205.02" y="-21.5" font-family="Times,serif" font-size="10.00">status()</text>
<text xml:space="preserve" text-anchor="start" x="248.15" y="-10.25" font-family="Times,serif" font-size="10.00"> &#160;&#160;&#160;&#160;&#160;&#160;&#160;&#160;&#160;&#160;&#160;</text>
<polygon fill="#00688b" stroke="#00688b" points="197.02,-59 197.02,-59 326.27,-59 326.27,-59 197.02,-59"/>
<path fill="none" stroke="#00688b" d="M209.02,0C209.02,0 314.27,0 314.27,0 320.27,0 326.27,-6 326.27,-12 326.27,-12 326.27,-77.5 326.27,-77.5 326.27,-83.5 320.27,-89.5 314.27,-89.5 314.27,-89.5 209.02,-89.5 209.02,-89.5 203.02,-89.5 197.02,-83.5 197.02,-77.5 197.02,-77.5 197.02,-12 197.02,-12 197.02,-6 203.02,0 209.02,0"/>
</g>
<!-- Entry&#45;&gt;NoTool -->
<g id="edge1" class="edge">
<title>Entry&#45;&gt;NoTool</title>
<path fill="none" stroke="red" d="M88.58,-190.89C88.78,-178.26 90.85,-149.99 104.65,-132 125.47,-104.85 157.39,-85.1 187.03,-71.41"/>
<polygon fill="red" stroke="red" points="188.29,-74.69 196.01,-67.44 185.45,-68.29 188.29,-74.69"/>
</g>
<!-- Approaching -->
<g id="node7" class="node">
<title>Approaching</title>
<path fill="azure" stroke="none" d="M394.52,-248.75C394.52,-248.75 326.77,-248.75 326.77,-248.75 320.77,-248.75 314.77,-242.75 314.77,-236.75 314.77,-236.75 314.77,-160 314.77,-160 314.77,-154 320.77,-148 326.77,-148 326.77,-148 394.52,-148 394.52,-148 400.52,-148 406.52,-154 406.52,-160 406.52,-160 406.52,-236.75 406.52,-236.75 406.52,-242.75 400.52,-248.75 394.52,-248.75"/>
<text xml:space="preserve" text-anchor="start" x="322.77" y="-228.45" font-family="Times,serif" font-weight="bold" font-size="14.00">Approaching</text>
<text xml:space="preserve" text-anchor="start" x="322.77" y="-203.25" font-family="Times,serif" font-size="10.00">$&gt;()</text>
<text xml:space="preserve" text-anchor="start" x="322.77" y="-192" font-family="Times,serif" font-size="10.00">lock_confirmed()</text>
<text xml:space="preserve" text-anchor="start" x="322.77" y="-180.75" font-family="Times,serif" font-size="10.00">abort()</text>
<text xml:space="preserve" text-anchor="start" x="322.77" y="-169.5" font-family="Times,serif" font-size="10.00">status()</text>
<text xml:space="preserve" text-anchor="start" x="335.52" y="-158.25" font-family="Times,serif" font-size="10.00"> &#160;&#160;&#160;&#160;&#160;&#160;&#160;&#160;&#160;&#160;&#160;&#160;&#160;&#160;&#160;&#160;&#160;&#160;&#160;</text>
<polygon fill="#00688b" stroke="#00688b" points="314.77,-218.25 314.77,-218.25 406.52,-218.25 406.52,-218.25 314.77,-218.25"/>
<path fill="none" stroke="#00688b" d="M326.77,-148C326.77,-148 394.52,-148 394.52,-148 400.52,-148 406.52,-154 406.52,-160 406.52,-160 406.52,-236.75 406.52,-236.75 406.52,-242.75 400.52,-248.75 394.52,-248.75 394.52,-248.75 326.77,-248.75 326.77,-248.75 320.77,-248.75 314.77,-242.75 314.77,-236.75 314.77,-236.75 314.77,-160 314.77,-160 314.77,-154 320.77,-148 326.77,-148"/>
</g>
<!-- NoTool&#45;&gt;Approaching -->
<g id="edge2" class="edge">
<title>NoTool&#45;&gt;Approaching</title>
<path fill="none" stroke="red" d="M323.02,-89.32C328.5,-94.97 333.52,-101.06 337.65,-107.5 343.45,-116.56 347.79,-127.01 351.03,-137.51"/>
<polygon fill="red" stroke="red" points="347.6,-138.24 353.63,-146.95 354.35,-136.38 347.6,-138.24"/>
<text xml:space="preserve" text-anchor="middle" x="390.4" y="-110.7" font-family="Times,serif" font-size="14.00"> request_couple </text>
</g>
<!-- Coupled -->
<g id="node3" class="node">
<title>Coupled</title>
<path fill="azure" stroke="none" d="M171.02,-649.5C171.02,-649.5 100.27,-649.5 100.27,-649.5 94.27,-649.5 88.27,-643.5 88.27,-637.5 88.27,-637.5 88.27,-549.5 88.27,-549.5 88.27,-543.5 94.27,-537.5 100.27,-537.5 100.27,-537.5 171.02,-537.5 171.02,-537.5 177.02,-537.5 183.02,-543.5 183.02,-549.5 183.02,-549.5 183.02,-637.5 183.02,-637.5 183.02,-643.5 177.02,-649.5 171.02,-649.5"/>
<text xml:space="preserve" text-anchor="start" x="111.27" y="-629.2" font-family="Times,serif" font-weight="bold" font-size="14.00">Coupled</text>
<text xml:space="preserve" text-anchor="start" x="96.27" y="-604" font-family="Times,serif" font-size="10.00">$&gt;()</text>
<text xml:space="preserve" text-anchor="start" x="96.27" y="-592.75" font-family="Times,serif" font-size="10.00">tool_energized()</text>
<text xml:space="preserve" text-anchor="start" x="96.27" y="-581.5" font-family="Times,serif" font-size="10.00">request_uncouple()</text>
<text xml:space="preserve" text-anchor="start" x="96.27" y="-570.25" font-family="Times,serif" font-size="10.00">lock_lost()</text>
<text xml:space="preserve" text-anchor="start" x="96.27" y="-559" font-family="Times,serif" font-size="10.00">status()</text>
<text xml:space="preserve" text-anchor="start" x="122.15" y="-547.75" font-family="Times,serif" font-size="10.00"> &#160;&#160;&#160;&#160;&#160;&#160;&#160;&#160;&#160;&#160;&#160;</text>
<polygon fill="#00688b" stroke="#00688b" points="88.27,-619 88.27,-619 183.02,-619 183.02,-619 88.27,-619"/>
<path fill="none" stroke="#00688b" d="M100.27,-537.5C100.27,-537.5 171.02,-537.5 171.02,-537.5 177.02,-537.5 183.02,-543.5 183.02,-549.5 183.02,-549.5 183.02,-637.5 183.02,-637.5 183.02,-643.5 177.02,-649.5 171.02,-649.5 171.02,-649.5 100.27,-649.5 100.27,-649.5 94.27,-649.5 88.27,-643.5 88.27,-637.5 88.27,-637.5 88.27,-549.5 88.27,-549.5 88.27,-543.5 94.27,-537.5 100.27,-537.5"/>
</g>
<!-- Working -->
<g id="node4" class="node">
<title>Working</title>
<path fill="azure" stroke="none" d="M170.27,-485C170.27,-485 101.02,-485 101.02,-485 95.02,-485 89.02,-479 89.02,-473 89.02,-473 89.02,-396.25 89.02,-396.25 89.02,-390.25 95.02,-384.25 101.02,-384.25 101.02,-384.25 170.27,-384.25 170.27,-384.25 176.27,-384.25 182.27,-390.25 182.27,-396.25 182.27,-396.25 182.27,-473 182.27,-473 182.27,-479 176.27,-485 170.27,-485"/>
<text xml:space="preserve" text-anchor="start" x="109.77" y="-464.7" font-family="Times,serif" font-weight="bold" font-size="14.00">Working</text>
<text xml:space="preserve" text-anchor="start" x="97.02" y="-439.5" font-family="Times,serif" font-size="10.00">$&gt;()</text>
<text xml:space="preserve" text-anchor="start" x="97.02" y="-428.25" font-family="Times,serif" font-size="10.00">tool_deenergized()</text>
<text xml:space="preserve" text-anchor="start" x="97.02" y="-417" font-family="Times,serif" font-size="10.00">lock_lost()</text>
<text xml:space="preserve" text-anchor="start" x="97.02" y="-405.75" font-family="Times,serif" font-size="10.00">status()</text>
<text xml:space="preserve" text-anchor="start" x="122.15" y="-394.5" font-family="Times,serif" font-size="10.00"> &#160;&#160;&#160;&#160;&#160;&#160;&#160;&#160;&#160;&#160;&#160;</text>
<polygon fill="#00688b" stroke="#00688b" points="89.02,-454.5 89.02,-454.5 182.27,-454.5 182.27,-454.5 89.02,-454.5"/>
<path fill="none" stroke="#00688b" d="M101.02,-384.25C101.02,-384.25 170.27,-384.25 170.27,-384.25 176.27,-384.25 182.27,-390.25 182.27,-396.25 182.27,-396.25 182.27,-473 182.27,-473 182.27,-479 176.27,-485 170.27,-485 170.27,-485 101.02,-485 101.02,-485 95.02,-485 89.02,-479 89.02,-473 89.02,-473 89.02,-396.25 89.02,-396.25 89.02,-390.25 95.02,-384.25 101.02,-384.25"/>
</g>
<!-- Coupled&#45;&gt;Working -->
<g id="edge6" class="edge">
<title>Coupled&#45;&gt;Working</title>
<path fill="none" stroke="red" d="M135.65,-537.63C135.65,-524.24 135.65,-509.84 135.65,-496.2"/>
<polygon fill="red" stroke="red" points="139.15,-496.47 135.65,-486.47 132.15,-496.47 139.15,-496.47"/>
<text xml:space="preserve" text-anchor="middle" x="179.52" y="-506.2" font-family="Times,serif" font-size="14.00"> tool_energized </text>
</g>
<!-- Uncoupling -->
<g id="node8" class="node">
<title>Uncoupling</title>
<path fill="azure" stroke="none" d="M266.02,-243.12C266.02,-243.12 207.27,-243.12 207.27,-243.12 201.27,-243.12 195.27,-237.12 195.27,-231.12 195.27,-231.12 195.27,-165.62 195.27,-165.62 195.27,-159.62 201.27,-153.62 207.27,-153.62 207.27,-153.62 266.02,-153.62 266.02,-153.62 272.02,-153.62 278.02,-159.62 278.02,-165.62 278.02,-165.62 278.02,-231.12 278.02,-231.12 278.02,-237.12 272.02,-243.12 266.02,-243.12"/>
<text xml:space="preserve" text-anchor="start" x="203.27" y="-222.82" font-family="Times,serif" font-weight="bold" font-size="14.00">Uncoupling</text>
<text xml:space="preserve" text-anchor="start" x="203.27" y="-197.62" font-family="Times,serif" font-size="10.00">$&gt;()</text>
<text xml:space="preserve" text-anchor="start" x="203.27" y="-186.38" font-family="Times,serif" font-size="10.00">lock_lost()</text>
<text xml:space="preserve" text-anchor="start" x="203.27" y="-175.12" font-family="Times,serif" font-size="10.00">status()</text>
<text xml:space="preserve" text-anchor="start" x="207.4" y="-163.88" font-family="Times,serif" font-size="10.00"> &#160;&#160;&#160;&#160;&#160;&#160;&#160;&#160;&#160;&#160;&#160;&#160;&#160;&#160;&#160;</text>
<polygon fill="#00688b" stroke="#00688b" points="195.27,-212.62 195.27,-212.62 278.02,-212.62 278.02,-212.62 195.27,-212.62"/>
<path fill="none" stroke="#00688b" d="M207.27,-153.62C207.27,-153.62 266.02,-153.62 266.02,-153.62 272.02,-153.62 278.02,-159.62 278.02,-165.62 278.02,-165.62 278.02,-231.12 278.02,-231.12 278.02,-237.12 272.02,-243.12 266.02,-243.12 266.02,-243.12 207.27,-243.12 207.27,-243.12 201.27,-243.12 195.27,-237.12 195.27,-231.12 195.27,-231.12 195.27,-165.62 195.27,-165.62 195.27,-159.62 201.27,-153.62 207.27,-153.62"/>
</g>
<!-- Coupled&#45;&gt;Uncoupling -->
<g id="edge7" class="edge">
<title>Coupled&#45;&gt;Uncoupling</title>
<path fill="none" stroke="red" d="M182.74,-565.54C198.99,-553.66 215.41,-538.12 224.65,-519.5 247,-474.45 243.76,-333.28 239.93,-254.29"/>
<polygon fill="red" stroke="red" points="243.44,-254.42 239.44,-244.61 236.45,-254.78 243.44,-254.42"/>
<text xml:space="preserve" text-anchor="middle" x="293.75" y="-429.57" font-family="Times,serif" font-size="14.00"> request_uncouple </text>
</g>
<!-- Fault -->
<g id="node9" class="node">
<title>Fault</title>
<path fill="azure" stroke="none" d="M155.65,-243.12C155.65,-243.12 125.65,-243.12 125.65,-243.12 119.65,-243.12 113.65,-237.12 113.65,-231.12 113.65,-231.12 113.65,-165.62 113.65,-165.62 113.65,-159.62 119.65,-153.62 125.65,-153.62 125.65,-153.62 155.65,-153.62 155.65,-153.62 161.65,-153.62 167.65,-159.62 167.65,-165.62 167.65,-165.62 167.65,-231.12 167.65,-231.12 167.65,-237.12 161.65,-243.12 155.65,-243.12"/>
<text xml:space="preserve" text-anchor="start" x="125.27" y="-222.82" font-family="Times,serif" font-weight="bold" font-size="14.00">Fault</text>
<text xml:space="preserve" text-anchor="start" x="125.27" y="-197.62" font-family="Times,serif" font-size="10.00">$&gt;()</text>
<text xml:space="preserve" text-anchor="start" x="125.27" y="-186.38" font-family="Times,serif" font-size="10.00">abort()</text>
<text xml:space="preserve" text-anchor="start" x="125.27" y="-175.12" font-family="Times,serif" font-size="10.00">status()</text>
<text xml:space="preserve" text-anchor="start" x="126.4" y="-163.88" font-family="Times,serif" font-size="10.00"> &#160;&#160;&#160;&#160;&#160;&#160;&#160;&#160;&#160;&#160;&#160;</text>
<polygon fill="#00688b" stroke="#00688b" points="117.27,-212.62 117.27,-212.62 164.02,-212.62 164.02,-212.62 117.27,-212.62"/>
<path fill="none" stroke="#00688b" d="M129.27,-153.62C129.27,-153.62 152.02,-153.62 152.02,-153.62 158.02,-153.62 164.02,-159.62 164.02,-165.62 164.02,-165.62 164.02,-231.12 164.02,-231.12 164.02,-237.12 158.02,-243.12 152.02,-243.12 152.02,-243.12 129.27,-243.12 129.27,-243.12 123.27,-243.12 117.27,-237.12 117.27,-231.12 117.27,-231.12 117.27,-165.62 117.27,-165.62 117.27,-159.62 123.27,-153.62 129.27,-153.62"/>
</g>
<!-- Coupled&#45;&gt;Fault -->
<g id="edge8" class="edge">
<title>Coupled&#45;&gt;Fault</title>
<path fill="none" stroke="red" d="M88.42,-575C64.09,-563.29 36.66,-545.24 22.65,-519.5 -6.1,-466.71 -8.58,-435.61 22.65,-384.25 43.97,-349.18 79.15,-373.92 104.65,-341.75 124.29,-316.97 133.35,-282.77 137.47,-254.11"/>
<polygon fill="red" stroke="red" points="140.9,-254.88 138.67,-244.53 133.95,-254.01 140.9,-254.88"/>
<text xml:space="preserve" text-anchor="middle" x="51.15" y="-429.57" font-family="Times,serif" font-size="14.00"> lock_lost </text>
</g>
<!-- Working&#45;&gt;Coupled -->
<g id="edge9" class="edge">
<title>Working&#45;&gt;Coupled</title>
<path fill="none" stroke="red" d="M89.27,-453.07C67.48,-463.9 43.6,-480.16 31.15,-503 15.57,-531.58 46.18,-555.09 78.22,-570.83"/>
<polygon fill="red" stroke="red" points="76.7,-573.98 87.24,-575.03 79.65,-567.64 76.7,-573.98"/>
<text xml:space="preserve" text-anchor="middle" x="81.4" y="-506.2" font-family="Times,serif" font-size="14.00"> tool_deenergized </text>
</g>
<!-- Working&#45;&gt;Fault -->
<g id="edge10" class="edge">
<title>Working&#45;&gt;Fault</title>
<path fill="none" stroke="red" d="M136.69,-384.52C137.51,-346.42 138.63,-293.63 139.48,-254.17"/>
<polygon fill="red" stroke="red" points="142.97,-254.48 139.68,-244.41 135.97,-254.33 142.97,-254.48"/>
<text xml:space="preserve" text-anchor="middle" x="165.91" y="-352.95" font-family="Times,serif" font-size="14.00"> lock_lost </text>
</g>
<!-- Transitioning -->
<g id="node5" class="node">
<title>Transitioning</title>
<ellipse fill="azure" stroke="#00688b" cx="296.65" cy="-198.38" rx="0.36" ry="0.36"/>
</g>
<!-- Coupling -->
<g id="node6" class="node">
<title>Coupling</title>
<ellipse fill="azure" stroke="#00688b" cx="424.65" cy="-198.38" rx="0.36" ry="0.36"/>
</g>
<!-- Coupling&#45;&gt;NoTool -->
<g id="edge3" class="edge">
<title>Coupling&#45;&gt;NoTool</title>
<path fill="none" stroke="red" d="M432.65,-183.09C442.12,-164.05 454.72,-130.13 438.65,-107.5 415.59,-75.04 374.15,-59.5 337.15,-52.12"/>
<polygon fill="red" stroke="red" points="337.79,-48.68 327.33,-50.36 336.55,-55.57 337.79,-48.68"/>
<text xml:space="preserve" text-anchor="middle" x="473.67" y="-110.7" font-family="Times,serif" font-size="14.00"> lock_lost </text>
</g>
<!-- Approaching&#45;&gt;NoTool -->
<g id="edge5" class="edge">
<title>Approaching&#45;&gt;NoTool</title>
<path fill="none" stroke="red" d="M326.08,-148.29C321.18,-142.53 315.99,-136.96 310.65,-132 305.88,-127.58 302.66,-128.91 298.4,-124 292.1,-116.75 286.65,-108.24 282.03,-99.55"/>
<polygon fill="red" stroke="red" points="285.21,-98.1 277.64,-90.69 278.94,-101.21 285.21,-98.1"/>
<text xml:space="preserve" text-anchor="middle" x="316.02" y="-110.7" font-family="Times,serif" font-size="14.00"> abort </text>
</g>
<!-- Approaching&#45;&gt;Coupled -->
<g id="edge4" class="edge">
<title>Approaching&#45;&gt;Coupled</title>
<path fill="none" stroke="red" d="M372.61,-248.54C384.45,-309.28 394.84,-413.36 348.65,-485 314.11,-538.56 244.14,-566.57 193.81,-580.4"/>
<polygon fill="red" stroke="red" points="193.01,-576.99 184.22,-582.91 194.78,-583.76 193.01,-576.99"/>
<text xml:space="preserve" text-anchor="middle" x="427.71" y="-429.57" font-family="Times,serif" font-size="14.00"> lock_confirmed </text>
</g>
<!-- Uncoupling&#45;&gt;NoTool -->
<g id="edge11" class="edge">
<title>Uncoupling&#45;&gt;NoTool</title>
<path fill="none" stroke="red" d="M222.31,-153.92C219.39,-139.02 218.34,-122.37 222.65,-107.5 223.43,-104.78 224.38,-102.07 225.45,-99.38"/>
<polygon fill="red" stroke="red" points="228.51,-101.1 229.5,-90.55 222.15,-98.18 228.51,-101.1"/>
<text xml:space="preserve" text-anchor="middle" x="251.15" y="-110.7" font-family="Times,serif" font-size="14.00"> lock_lost </text>
</g>
<!-- Fault&#45;&gt;NoTool -->
<g id="edge12" class="edge">
<title>Fault&#45;&gt;NoTool</title>
<path fill="none" stroke="red" d="M154.78,-153.76C161.11,-138.2 169.61,-121.15 180.4,-107.5 183.16,-104 186.16,-100.6 189.34,-97.3"/>
<polygon fill="red" stroke="red" points="191.72,-99.87 196.44,-90.38 186.83,-94.85 191.72,-99.87"/>
<text xml:space="preserve" text-anchor="middle" x="198.02" y="-110.7" font-family="Times,serif" font-size="14.00"> abort </text>
</g>
</g>
</svg>
