<?xml version="1.0" encoding="UTF-8" standalone="no"?>
<!DOCTYPE svg PUBLIC "-//W3C//DTD SVG 1.1//EN"
 "http://www.w3.org/Graphics/SVG/1.1/DTD/svg11.dtd">
<!-- Generated by graphviz version 14.1.5 (20260411.2331)
 -->
<!-- Title: PegInsertion Pages: 1 -->
<svg width="676pt" height="824pt"
 viewBox="0.00 0.00 676.00 824.00" xmlns="http://www.w3.org/2000/svg" xmlns:xlink="http://www.w3.org/1999/xlink">
<g id="graph0" class="graph" transform="scale(1 1) rotate(0) translate(4 820.25)">
<title>PegInsertion</title>
<polygon fill="white" stroke="none" points="-4,4 -4,-820.25 672.25,-820.25 672.25,4 -4,4"/>
<g id="clust1" class="cluster">
<title>cluster_Active</title>
<path fill="none" stroke="black" d="M248.75,-8C248.75,-8 532.75,-8 532.75,-8 538.75,-8 544.75,-14 544.75,-20 544.75,-20 544.75,-796.25 544.75,-796.25 544.75,-802.25 538.75,-808.25 532.75,-808.25 532.75,-808.25 248.75,-808.25 248.75,-808.25 242.75,-808.25 236.75,-802.25 236.75,-796.25 236.75,-796.25 236.75,-20 236.75,-20 236.75,-14 242.75,-8 248.75,-8"/>
<text xml:space="preserve" text-anchor="start" x="372.75" y="-787.5" font-family="Times,serif" font-size="14.00">Active</text>
<polygon fill="black" stroke="black" points="368.75,-780.75 368.75,-780.75 412.75,-780.75 412.75,-780.75 368.75,-780.75"/>
</g>
<g id="clust2" class="cluster">
<title>cluster_Operation</title>
<path fill="none" stroke="black" d="M256.75,-16C256.75,-16 516.75,-16 516.75,-16 522.75,-16 528.75,-22 528.75,-28 528.75,-28 528.75,-749.75 528.75,-749.75 528.75,-755.75 522.75,-761.75 516.75,-761.75 516.75,-761.75 256.75,-761.75 256.75,-761.75 250.75,-761.75 244.75,-755.75 244.75,-749.75 244.75,-749.75 244.75,-28 244.75,-28 244.75,-22 250.75,-16 256.75,-16"/>
<text xml:space="preserve" text-anchor="start" x="359.75" y="-741" font-family="Times,serif" font-size="14.00">Operation</text>
<polygon fill="black" stroke="black" points="355.75,-734.25 355.75,-734.25 417.75,-734.25 417.75,-734.25 355.75,-734.25"/>
</g>
<!-- Entry -->
<g id="node1" class="node">
<title>Entry</title>
<ellipse fill="black" stroke="#00688b" cx="169.75" cy="-511.62" rx="7.2" ry="7.2"/>
</g>
<!-- Idle -->
<g id="node2" class="node">
<title>Idle</title>
<path fill="azure" stroke="none" d="M156.25,-397.5C156.25,-397.5 65.25,-397.5 65.25,-397.5 59.25,-397.5 53.25,-391.5 53.25,-385.5 53.25,-385.5 53.25,-331.25 53.25,-331.25 53.25,-325.25 59.25,-319.25 65.25,-319.25 65.25,-319.25 156.25,-319.25 156.25,-319.25 162.25,-319.25 168.25,-325.25 168.25,-331.25 168.25,-331.25 168.25,-385.5 168.25,-385.5 168.25,-391.5 162.25,-397.5 156.25,-397.5"/>
<text xml:space="preserve" text-anchor="start" x="99.5" y="-377.2" font-family="Times,serif" font-weight="bold" font-size="14.00">Idle</text>
<text xml:space="preserve" text-anchor="start" x="61.25" y="-352" font-family="Times,serif" font-size="10.00">start(target_depth: float)</text>
<text xml:space="preserve" text-anchor="start" x="61.25" y="-340.75" font-family="Times,serif" font-size="10.00">status()</text>
<text xml:space="preserve" text-anchor="start" x="97.25" y="-329.5" font-family="Times,serif" font-size="10.00"> &#160;&#160;&#160;&#160;&#160;&#160;&#160;&#160;&#160;&#160;&#160;</text>
<polygon fill="#00688b" stroke="#00688b" points="53.25,-367 53.25,-367 168.25,-367 168.25,-367 53.25,-367"/>
<path fill="none" stroke="#00688b" d="M65.25,-319.25C65.25,-319.25 156.25,-319.25 156.25,-319.25 162.25,-319.25 168.25,-325.25 168.25,-331.25 168.25,-331.25 168.25,-385.5 168.25,-385.5 168.25,-391.5 162.25,-397.5 156.25,-397.5 156.25,-397.5 65.25,-397.5 65.25,-397.5 59.25,-397.5 53.25,-391.5 53.25,-385.5 53.25,-385.5 53.25,-331.25 53.25,-331.25 53.25,-325.25 59.25,-319.25 65.25,-319.25"/>
</g>
<!-- Entry&#45;&gt;Idle -->
<g id="edge1" class="edge">
<title>Entry&#45;&gt;Idle</title>
<path fill="none" stroke="red" d="M167.36,-504.51C161.09,-488.43 143.67,-443.77 129.79,-408.2"/>
<polygon fill="red" stroke="red" points="133.06,-406.95 126.17,-398.9 126.54,-409.49 133.06,-406.95"/>
</g>
<!-- Approaching -->
<g id="node8" class="node">
<title>Approaching</title>
<path fill="azure" stroke="none" d="M452.38,-715.25C452.38,-715.25 293.12,-715.25 293.12,-715.25 287.12,-715.25 281.12,-709.25 281.12,-703.25 281.12,-703.25 281.12,-626.5 281.12,-626.5 281.12,-620.5 287.12,-614.5 293.12,-614.5 293.12,-614.5 452.38,-614.5 452.38,-614.5 458.38,-614.5 464.38,-620.5 464.38,-626.5 464.38,-626.5 464.38,-703.25 464.38,-703.25 464.38,-709.25 458.38,-715.25 452.38,-715.25"/>
<text xml:space="preserve" text-anchor="start" x="334.88" y="-694.95" font-family="Times,serif" font-weight="bold" font-size="14.00">Approaching</text>
<text xml:space="preserve" text-anchor="start" x="289.12" y="-669.75" font-family="Times,serif" font-size="10.00">$&gt;()</text>
<text xml:space="preserve" text-anchor="start" x="289.12" y="-658.5" font-family="Times,serif" font-size="10.00">force_reading(fx: float, fy: float, fz: float)</text>
<text xml:space="preserve" text-anchor="start" x="289.12" y="-647.25" font-family="Times,serif" font-size="10.00">tick()</text>
<text xml:space="preserve" text-anchor="start" x="289.12" y="-636" font-family="Times,serif" font-size="10.00">status()</text>
<text xml:space="preserve" text-anchor="start" x="350.25" y="-624.75" font-family="Times,serif" font-size="10.00"> &#160;&#160;&#160;&#160;&#160;&#160;&#160;&#160;&#160;&#160;&#160;&#160;&#160;&#160;&#160;&#160;&#160;&#160;&#160;</text>
<polygon fill="#00688b" stroke="#00688b" points="281.12,-684.75 281.12,-684.75 464.38,-684.75 464.38,-684.75 281.12,-684.75"/>
<path fill="none" stroke="#00688b" d="M293.12,-614.5C293.12,-614.5 452.38,-614.5 452.38,-614.5 458.38,-614.5 464.38,-620.5 464.38,-626.5 464.38,-626.5 464.38,-703.25 464.38,-703.25 464.38,-709.25 458.38,-715.25 452.38,-715.25 452.38,-715.25 293.12,-715.25 293.12,-715.25 287.12,-715.25 281.12,-709.25 281.12,-703.25 281.12,-703.25 281.12,-626.5 281.12,-626.5 281.12,-620.5 287.12,-614.5 293.12,-614.5"/>
</g>
<!-- Idle&#45;&gt;Approaching -->
<g id="edge2" class="edge">
<title>Idle&#45;&gt;Approaching</title>
<path fill="none" stroke="red" d="M108.66,-397.47C106.6,-448.54 105.86,-535.84 123,-562 159.14,-617.15 199.45,-592.92 261.75,-614.5 264.64,-615.5 267.56,-616.55 270.49,-617.63"/>
<polygon fill="red" stroke="red" points="269.16,-620.87 279.75,-621.16 271.65,-614.33 269.16,-620.87"/>
<text xml:space="preserve" text-anchor="middle" x="138.38" y="-506.57" font-family="Times,serif" font-size="14.00"> start </text>
</g>
<!-- Retracting -->
<g id="node3" class="node">
<title>Retracting</title>
<path fill="azure" stroke="none" d="M65.5,-556.38C65.5,-556.38 12,-556.38 12,-556.38 6,-556.38 0,-550.38 0,-544.38 0,-544.38 0,-478.88 0,-478.88 0,-472.88 6,-466.88 12,-466.88 12,-466.88 65.5,-466.88 65.5,-466.88 71.5,-466.88 77.5,-472.88 77.5,-478.88 77.5,-478.88 77.5,-544.38 77.5,-544.38 77.5,-550.38 71.5,-556.38 65.5,-556.38"/>
<text xml:space="preserve" text-anchor="start" x="8" y="-536.08" font-family="Times,serif" font-weight="bold" font-size="14.00">Retracting</text>
<text xml:space="preserve" text-anchor="start" x="8" y="-510.88" font-family="Times,serif" font-size="10.00">$&gt;()</text>
<text xml:space="preserve" text-anchor="start" x="8" y="-499.62" font-family="Times,serif" font-size="10.00">tick()</text>
<text xml:space="preserve" text-anchor="start" x="8" y="-488.38" font-family="Times,serif" font-size="10.00">status()</text>
<text xml:space="preserve" text-anchor="start" x="9.12" y="-477.12" font-family="Times,serif" font-size="10.00"> &#160;&#160;&#160;&#160;&#160;&#160;&#160;&#160;&#160;&#160;&#160;</text>
<polygon fill="#00688b" stroke="#00688b" points="0,-525.88 0,-525.88 77.5,-525.88 77.5,-525.88 0,-525.88"/>
<path fill="none" stroke="#00688b" d="M12,-466.88C12,-466.88 65.5,-466.88 65.5,-466.88 71.5,-466.88 77.5,-472.88 77.5,-478.88 77.5,-478.88 77.5,-544.38 77.5,-544.38 77.5,-550.38 71.5,-556.38 65.5,-556.38 65.5,-556.38 12,-556.38 12,-556.38 6,-556.38 0,-550.38 0,-544.38 0,-544.38 0,-478.88 0,-478.88 0,-472.88 6,-466.88 12,-466.88"/>
</g>
<!-- Retracting&#45;&gt;Idle -->
<g id="edge13" class="edge">
<title>Retracting&#45;&gt;Idle</title>
<path fill="none" stroke="red" d="M54.66,-467.01C59.81,-453.9 65.8,-439.59 72,-426.75 75.08,-420.37 78.53,-413.77 82.06,-407.32"/>
<polygon fill="red" stroke="red" points="85.07,-409.1 86.9,-398.66 78.96,-405.68 85.07,-409.1"/>
<text xml:space="preserve" text-anchor="middle" x="85.88" y="-429.95" font-family="Times,serif" font-size="14.00"> tick </text>
</g>
<!-- Seated -->
<g id="node4" class="node">
<title>Seated</title>
<path fill="azure" stroke="none" d="M656.25,-255.5C656.25,-255.5 565.25,-255.5 565.25,-255.5 559.25,-255.5 553.25,-249.5 553.25,-243.5 553.25,-243.5 553.25,-178 553.25,-178 553.25,-172 559.25,-166 565.25,-166 565.25,-166 656.25,-166 656.25,-166 662.25,-166 668.25,-172 668.25,-178 668.25,-178 668.25,-243.5 668.25,-243.5 668.25,-249.5 662.25,-255.5 656.25,-255.5"/>
<text xml:space="preserve" text-anchor="start" x="591.62" y="-235.2" font-family="Times,serif" font-weight="bold" font-size="14.00">Seated</text>
<text xml:space="preserve" text-anchor="start" x="561.25" y="-210" font-family="Times,serif" font-size="10.00">$&gt;()</text>
<text xml:space="preserve" text-anchor="start" x="561.25" y="-198.75" font-family="Times,serif" font-size="10.00">start(target_depth: float)</text>
<text xml:space="preserve" text-anchor="start" x="561.25" y="-187.5" font-family="Times,serif" font-size="10.00">status()</text>
<text xml:space="preserve" text-anchor="start" x="597.25" y="-176.25" font-family="Times,serif" font-size="10.00"> &#160;&#160;&#160;&#160;&#160;&#160;&#160;&#160;&#160;&#160;&#160;</text>
<polygon fill="#00688b" stroke="#00688b" points="553.25,-225 553.25,-225 668.25,-225 668.25,-225 553.25,-225"/>
<path fill="none" stroke="#00688b" d="M565.25,-166C565.25,-166 656.25,-166 656.25,-166 662.25,-166 668.25,-172 668.25,-178 668.25,-178 668.25,-243.5 668.25,-243.5 668.25,-249.5 662.25,-255.5 656.25,-255.5 656.25,-255.5 565.25,-255.5 565.25,-255.5 559.25,-255.5 553.25,-249.5 553.25,-243.5 553.25,-243.5 553.25,-178 553.25,-178 553.25,-172 559.25,-166 565.25,-166"/>
</g>
<!-- Seated&#45;&gt;Approaching -->
<g id="edge14" class="edge">
<title>Seated&#45;&gt;Approaching</title>
<path fill="none" stroke="red" d="M608.65,-255.4C602.82,-332.43 580.81,-494 497.75,-596.5 496.45,-598.11 487.22,-603.51 474.31,-610.61"/>
<polygon fill="red" stroke="red" points="472.76,-607.47 465.65,-615.33 476.11,-613.62 472.76,-607.47"/>
<text xml:space="preserve" text-anchor="middle" x="594.19" y="-429.95" font-family="Times,serif" font-size="14.00"> start </text>
</g>
<!-- Failed -->
<g id="node5" class="node">
<title>Failed</title>
<path fill="azure" stroke="none" d="M216.25,-113.5C216.25,-113.5 125.25,-113.5 125.25,-113.5 119.25,-113.5 113.25,-107.5 113.25,-101.5 113.25,-101.5 113.25,-36 113.25,-36 113.25,-30 119.25,-24 125.25,-24 125.25,-24 216.25,-24 216.25,-24 222.25,-24 228.25,-30 228.25,-36 228.25,-36 228.25,-101.5 228.25,-101.5 228.25,-107.5 222.25,-113.5 216.25,-113.5"/>
<text xml:space="preserve" text-anchor="start" x="152.75" y="-93.2" font-family="Times,serif" font-weight="bold" font-size="14.00">Failed</text>
<text xml:space="preserve" text-anchor="start" x="121.25" y="-68" font-family="Times,serif" font-size="10.00">$&gt;()</text>
<text xml:space="preserve" text-anchor="start" x="121.25" y="-56.75" font-family="Times,serif" font-size="10.00">start(target_depth: float)</text>
<text xml:space="preserve" text-anchor="start" x="121.25" y="-45.5" font-family="Times,serif" font-size="10.00">status()</text>
<text xml:space="preserve" text-anchor="start" x="157.25" y="-34.25" font-family="Times,serif" font-size="10.00"> &#160;&#160;&#160;&#160;&#160;&#160;&#160;&#160;&#160;&#160;&#160;</text>
<polygon fill="#00688b" stroke="#00688b" points="113.25,-83 113.25,-83 228.25,-83 228.25,-83 113.25,-83"/>
<path fill="none" stroke="#00688b" d="M125.25,-24C125.25,-24 216.25,-24 216.25,-24 222.25,-24 228.25,-30 228.25,-36 228.25,-36 228.25,-101.5 228.25,-101.5 228.25,-107.5 222.25,-113.5 216.25,-113.5 216.25,-113.5 125.25,-113.5 125.25,-113.5 119.25,-113.5 113.25,-107.5 113.25,-101.5 113.25,-101.5 113.25,-36 113.25,-36 113.25,-30 119.25,-24 125.25,-24"/>
</g>
<!-- Failed&#45;&gt;Approaching -->
<g id="edge15" class="edge">
<title>Failed&#45;&gt;Approaching</title>
<path fill="none" stroke="red" d="M186.95,-113.23C195.71,-140.54 204.75,-176.73 204.75,-209.75 204.75,-512.62 204.75,-512.62 204.75,-512.62 204.75,-556.22 236.38,-590.46 272.2,-615.26"/>
<polygon fill="red" stroke="red" points="269.85,-617.9 280.12,-620.52 273.72,-612.07 269.85,-617.9"/>
<text xml:space="preserve" text-anchor="middle" x="220.12" y="-353.32" font-family="Times,serif" font-size="14.00"> start </text>
</g>
<!-- Active -->
<g id="node6" class="node">
<title>Active</title>
<ellipse fill="azure" stroke="#00688b" cx="536.75" cy="-664.88" rx="0.36" ry="0.36"/>
</g>
<!-- Operation -->
<g id="node7" class="node">
<title>Operation</title>
<ellipse fill="azure" stroke="#00688b" cx="252.75" cy="-664.88" rx="0.36" ry="0.36"/>
</g>
<!-- Operation&#45;&gt;Retracting -->
<g id="edge3" class="edge">
<title>Operation&#45;&gt;Retracting</title>
<path fill="none" stroke="red" d="M244.75,-663.46C215.97,-661.54 116.62,-651.07 64.5,-596.5 56.69,-588.32 51.24,-577.83 47.45,-567.06"/>
<polygon fill="red" stroke="red" points="50.86,-566.27 44.61,-557.71 44.16,-568.3 50.86,-566.27"/>
<text xml:space="preserve" text-anchor="middle" x="82.12" y="-583.2" font-family="Times,serif" font-size="14.00"> abort </text>
</g>
<!-- Searching -->
<g id="node9" class="node">
<title>Searching</title>
<path fill="azure" stroke="none" d="M452.38,-562C452.38,-562 293.12,-562 293.12,-562 287.12,-562 281.12,-556 281.12,-550 281.12,-550 281.12,-473.25 281.12,-473.25 281.12,-467.25 287.12,-461.25 293.12,-461.25 293.12,-461.25 452.38,-461.25 452.38,-461.25 458.38,-461.25 464.38,-467.25 464.38,-473.25 464.38,-473.25 464.38,-550 464.38,-550 464.38,-556 458.38,-562 452.38,-562"/>
<text xml:space="preserve" text-anchor="start" x="343.88" y="-541.7" font-family="Times,serif" font-weight="bold" font-size="14.00">Searching</text>
<text xml:space="preserve" text-anchor="start" x="289.12" y="-516.5" font-family="Times,serif" font-size="10.00">$&gt;()</text>
<text xml:space="preserve" text-anchor="start" x="289.12" y="-505.25" font-family="Times,serif" font-size="10.00">force_reading(fx: float, fy: float, fz: float)</text>
<text xml:space="preserve" text-anchor="start" x="289.12" y="-494" font-family="Times,serif" font-size="10.00">tick()</text>
<text xml:space="preserve" text-anchor="start" x="289.12" y="-482.75" font-family="Times,serif" font-size="10.00">status()</text>
<text xml:space="preserve" text-anchor="start" x="350.25" y="-471.5" font-family="Times,serif" font-size="10.00"> &#160;&#160;&#160;&#160;&#160;&#160;&#160;&#160;&#160;&#160;&#160;&#160;&#160;&#160;&#160;&#160;&#160;&#160;&#160;</text>
<polygon fill="#00688b" stroke="#00688b" points="281.12,-531.5 281.12,-531.5 464.38,-531.5 464.38,-531.5 281.12,-531.5"/>
<path fill="none" stroke="#00688b" d="M293.12,-461.25C293.12,-461.25 452.38,-461.25 452.38,-461.25 458.38,-461.25 464.38,-467.25 464.38,-473.25 464.38,-473.25 464.38,-550 464.38,-550 464.38,-556 458.38,-562 452.38,-562 452.38,-562 293.12,-562 293.12,-562 287.12,-562 281.12,-556 281.12,-550 281.12,-550 281.12,-473.25 281.12,-473.25 281.12,-467.25 287.12,-461.25 293.12,-461.25"/>
</g>
<!-- Approaching&#45;&gt;Searching -->
<g id="edge4" class="edge">
<title>Approaching&#45;&gt;Searching</title>
<path fill="none" stroke="red" d="M372.75,-614.77C372.75,-601.49 372.75,-586.97 372.75,-573.15"/>
<polygon fill="red" stroke="red" points="376.25,-573.26 372.75,-563.26 369.25,-573.26 376.25,-573.26"/>
<text xml:space="preserve" text-anchor="middle" x="414" y="-583.2" font-family="Times,serif" font-size="14.00"> force_reading </text>
</g>
<!-- Inserting -->
<g id="node10" class="node">
<title>Inserting</title>
<path fill="azure" stroke="none" d="M424.38,-408.75C424.38,-408.75 265.12,-408.75 265.12,-408.75 259.12,-408.75 253.12,-402.75 253.12,-396.75 253.12,-396.75 253.12,-320 253.12,-320 253.12,-314 259.12,-308 265.12,-308 265.12,-308 424.38,-308 424.38,-308 430.38,-308 436.38,-314 436.38,-320 436.38,-320 436.38,-396.75 436.38,-396.75 436.38,-402.75 430.38,-408.75 424.38,-408.75"/>
<text xml:space="preserve" text-anchor="start" x="318.5" y="-388.45" font-family="Times,serif" font-weight="bold" font-size="14.00">Inserting</text>
<text xml:space="preserve" text-anchor="start" x="261.12" y="-363.25" font-family="Times,serif" font-size="10.00">$&gt;()</text>
<text xml:space="preserve" text-anchor="start" x="261.12" y="-352" font-family="Times,serif" font-size="10.00">force_reading(fx: float, fy: float, fz: float)</text>
<text xml:space="preserve" text-anchor="start" x="261.12" y="-340.75" font-family="Times,serif" font-size="10.00">tick()</text>
<text xml:space="preserve" text-anchor="start" x="261.12" y="-329.5" font-family="Times,serif" font-size="10.00">status()</text>
<text xml:space="preserve" text-anchor="start" x="322.25" y="-318.25" font-family="Times,serif" font-size="10.00"> &#160;&#160;&#160;&#160;&#160;&#160;&#160;&#160;&#160;&#160;&#160;&#160;&#160;&#160;&#160;&#160;&#160;&#160;&#160;</text>
<polygon fill="#00688b" stroke="#00688b" points="253.12,-378.25 253.12,-378.25 436.38,-378.25 436.38,-378.25 253.12,-378.25"/>
<path fill="none" stroke="#00688b" d="M265.12,-308C265.12,-308 424.38,-308 424.38,-308 430.38,-308 436.38,-314 436.38,-320 436.38,-320 436.38,-396.75 436.38,-396.75 436.38,-402.75 430.38,-408.75 424.38,-408.75 424.38,-408.75 265.12,-408.75 265.12,-408.75 259.12,-408.75 253.12,-402.75 253.12,-396.75 253.12,-396.75 253.12,-320 253.12,-320 253.12,-314 259.12,-308 265.12,-308"/>
</g>
<!-- Searching&#45;&gt;Inserting -->
<g id="edge5" class="edge">
<title>Searching&#45;&gt;Inserting</title>
<path fill="none" stroke="red" d="M363.66,-461.52C361.18,-448.11 358.46,-433.43 355.88,-419.48"/>
<polygon fill="red" stroke="red" points="359.38,-419.18 354.12,-409.98 352.5,-420.45 359.38,-419.18"/>
<text xml:space="preserve" text-anchor="middle" x="400.84" y="-429.95" font-family="Times,serif" font-size="14.00"> force_reading </text>
</g>
<!-- Retreating -->
<g id="node12" class="node">
<title>Retreating</title>
<path fill="azure" stroke="none" d="M482.5,-113.5C482.5,-113.5 429,-113.5 429,-113.5 423,-113.5 417,-107.5 417,-101.5 417,-101.5 417,-36 417,-36 417,-30 423,-24 429,-24 429,-24 482.5,-24 482.5,-24 488.5,-24 494.5,-30 494.5,-36 494.5,-36 494.5,-101.5 494.5,-101.5 494.5,-107.5 488.5,-113.5 482.5,-113.5"/>
<text xml:space="preserve" text-anchor="start" x="425" y="-93.2" font-family="Times,serif" font-weight="bold" font-size="14.00">Retreating</text>
<text xml:space="preserve" text-anchor="start" x="425" y="-68" font-family="Times,serif" font-size="10.00">$&gt;()</text>
<text xml:space="preserve" text-anchor="start" x="425" y="-56.75" font-family="Times,serif" font-size="10.00">tick()</text>
<text xml:space="preserve" text-anchor="start" x="425" y="-45.5" font-family="Times,serif" font-size="10.00">status()</text>
<text xml:space="preserve" text-anchor="start" x="425" y="-34.25" font-family="Times,serif" font-size="10.00"> &#160;&#160;&#160;&#160;&#160;&#160;&#160;&#160;&#160;&#160;&#160;&#160;&#160;&#160;&#160;&#160;&#160;&#160;&#160;</text>
<polygon fill="#00688b" stroke="#00688b" points="417,-83 417,-83 494.5,-83 494.5,-83 417,-83"/>
<path fill="none" stroke="#00688b" d="M429,-24C429,-24 482.5,-24 482.5,-24 488.5,-24 494.5,-30 494.5,-36 494.5,-36 494.5,-101.5 494.5,-101.5 494.5,-107.5 488.5,-113.5 482.5,-113.5 482.5,-113.5 429,-113.5 429,-113.5 423,-113.5 417,-107.5 417,-101.5 417,-101.5 417,-36 417,-36 417,-30 423,-24 429,-24"/>
</g>
<!-- Searching&#45;&gt;Retreating -->
<g id="edge6" class="edge">
<title>Searching&#45;&gt;Retreating</title>
<path fill="none" stroke="red" d="M434.55,-461.51C438.97,-455.79 442.83,-449.69 445.75,-443.25 458.54,-415.08 457.82,-221.53 456.62,-124.69"/>
<polygon fill="red" stroke="red" points="460.13,-124.84 456.5,-114.89 453.13,-124.94 460.13,-124.84"/>
<text xml:space="preserve" text-anchor="middle" x="470.82" y="-276.7" font-family="Times,serif" font-size="14.00"> tick </text>
</g>
<!-- Inserting&#45;&gt;Seated -->
<g id="edge8" class="edge">
<title>Inserting&#45;&gt;Seated</title>
<path fill="none" stroke="red" d="M436.01,-316.49C453.39,-308.11 471.28,-299.07 487.75,-290 506.44,-279.71 526.16,-267.71 544.2,-256.24"/>
<polygon fill="red" stroke="red" points="545.66,-259.46 552.2,-251.12 541.89,-253.57 545.66,-259.46"/>
<text xml:space="preserve" text-anchor="middle" x="529.29" y="-276.7" font-family="Times,serif" font-size="14.00"> tick </text>
</g>
<!-- Jammed -->
<g id="node11" class="node">
<title>Jammed</title>
<path fill="azure" stroke="none" d="M372.25,-249.88C372.25,-249.88 329.25,-249.88 329.25,-249.88 323.25,-249.88 317.25,-243.88 317.25,-237.88 317.25,-237.88 317.25,-183.62 317.25,-183.62 317.25,-177.62 323.25,-171.62 329.25,-171.62 329.25,-171.62 372.25,-171.62 372.25,-171.62 378.25,-171.62 384.25,-177.62 384.25,-183.62 384.25,-183.62 384.25,-237.88 384.25,-237.88 384.25,-243.88 378.25,-249.88 372.25,-249.88"/>
<text xml:space="preserve" text-anchor="start" x="325.25" y="-229.57" font-family="Times,serif" font-weight="bold" font-size="14.00">Jammed</text>
<text xml:space="preserve" text-anchor="start" x="325.25" y="-204.38" font-family="Times,serif" font-size="10.00">$&gt;()</text>
<text xml:space="preserve" text-anchor="start" x="325.25" y="-193.12" font-family="Times,serif" font-size="10.00">status()</text>
<text xml:space="preserve" text-anchor="start" x="325.25" y="-181.88" font-family="Times,serif" font-size="10.00"> &#160;&#160;&#160;&#160;&#160;&#160;&#160;&#160;&#160;&#160;&#160;&#160;&#160;&#160;&#160;&#160;&#160;&#160;&#160;</text>
<polygon fill="#00688b" stroke="#00688b" points="317.25,-219.38 317.25,-219.38 384.25,-219.38 384.25,-219.38 317.25,-219.38"/>
<path fill="none" stroke="#00688b" d="M329.25,-171.62C329.25,-171.62 372.25,-171.62 372.25,-171.62 378.25,-171.62 384.25,-177.62 384.25,-183.62 384.25,-183.62 384.25,-237.88 384.25,-237.88 384.25,-243.88 378.25,-249.88 372.25,-249.88 372.25,-249.88 329.25,-249.88 329.25,-249.88 323.25,-249.88 317.25,-243.88 317.25,-237.88 317.25,-237.88 317.25,-183.62 317.25,-183.62 317.25,-177.62 323.25,-171.62 329.25,-171.62"/>
</g>
<!-- Inserting&#45;&gt;Jammed -->
<g id="edge7" class="edge">
<title>Inserting&#45;&gt;Jammed</title>
<path fill="none" stroke="red" d="M302.33,-308.4C297.17,-297.22 295.02,-285.18 299.25,-273.5 301.96,-266.01 306.03,-258.79 310.7,-252.1"/>
<polygon fill="red" stroke="red" points="313.2,-254.59 316.47,-244.52 307.63,-250.35 313.2,-254.59"/>
<text xml:space="preserve" text-anchor="middle" x="340.5" y="-276.7" font-family="Times,serif" font-size="14.00"> force_reading </text>
</g>
<!-- Inserting&#45;&gt;Jammed -->
<g id="edge9" class="edge">
<title>Inserting&#45;&gt;Jammed</title>
<path fill="none" stroke="red" d="M375.35,-308.13C377.96,-302.19 380.19,-296.08 381.75,-290 384.26,-280.23 383.16,-270.04 380.22,-260.37"/>
<polygon fill="red" stroke="red" points="383.54,-259.26 376.74,-251.13 376.99,-261.72 383.54,-259.26"/>
<text xml:space="preserve" text-anchor="middle" x="397.02" y="-276.7" font-family="Times,serif" font-size="14.00"> tick </text>
</g>
<!-- Jammed&#45;&gt;Failed -->
<g id="edge10" class="edge">
<title>Jammed&#45;&gt;Failed</title>
<path fill="none" stroke="red" d="M317.32,-183.75C294.47,-165.98 263.45,-141.85 235.83,-120.37"/>
<polygon fill="red" stroke="red" points="238.24,-117.8 228.19,-114.43 233.94,-123.33 238.24,-117.8"/>
<text xml:space="preserve" text-anchor="middle" x="277.4" y="-134.7" font-family="Times,serif" font-size="14.00"> $&gt; </text>
</g>
<!-- Jammed&#45;&gt;Retreating -->
<g id="edge11" class="edge">
<title>Jammed&#45;&gt;Retreating</title>
<path fill="none" stroke="red" d="M379.16,-171.86C390.59,-156.63 403.96,-138.8 416.31,-122.34"/>
<polygon fill="red" stroke="red" points="418.93,-124.67 422.13,-114.57 413.33,-120.47 418.93,-124.67"/>
<text xml:space="preserve" text-anchor="middle" x="417.65" y="-134.7" font-family="Times,serif" font-size="14.00"> $&gt; </text>
</g>
<!-- Retreating&#45;&gt;Approaching -->
<g id="edge12" class="edge">
<title>Retreating&#45;&gt;Approaching</title>
<path fill="none" stroke="red" d="M473.49,-113.42C482.99,-140.65 492.75,-176.69 492.75,-209.75 492.75,-512.62 492.75,-512.62 492.75,-512.62 492.75,-517.37 465.25,-589.25 459.75,-596.5 457.1,-600 454.22,-603.41 451.19,-606.72"/>
<polygon fill="red" stroke="red" points="448.88,-604.07 444.39,-613.67 453.88,-608.97 448.88,-604.07"/>
<text xml:space="preserve" text-anchor="middle" x="506.62" y="-353.32" font-family="Times,serif" font-size="14.00"> tick </text>
</g>
</g>
</svg>
