<?xml version="1.0" encoding="UTF-8" standalone="no"?>
<!DOCTYPE svg PUBLIC "-//W3C//DTD SVG 1.1//EN"
 "http://www.w3.org/Graphics/SVG/1.1/DTD/svg11.dtd">
<!-- Generated by graphviz version 14.1.5 (20260411.2331)
 -->
<!-- Title: MissionController Pages: 1 -->
<svg width="642pt" height="806pt"
 viewBox="0.00 0.00 642.00 806.00" xmlns="http://www.w3.org/2000/svg" xmlns:xlink="http://www.w3.org/1999/xlink">
<g id="graph0" class="graph" transform="scale(1 1) rotate(0) translate(4 801.9)">
<title>MissionController</title>
<polygon fill="white" stroke="none" points="-4,4 -4,-801.9 637.85,-801.9 637.85,4 -4,4"/>
<g id="clust1" class="cluster">
<title>cluster_Active</title>
<path fill="none" stroke="black" d="M20,-120.75C20,-120.75 552,-120.75 552,-120.75 558,-120.75 564,-126.75 564,-132.75 564,-132.75 564,-613.75 564,-613.75 564,-619.75 558,-625.75 552,-625.75 552,-625.75 20,-625.75 20,-625.75 14,-625.75 8,-619.75 8,-613.75 8,-613.75 8,-132.75 8,-132.75 8,-126.75 14,-120.75 20,-120.75"/>
<text xml:space="preserve" text-anchor="start" x="268" y="-605" font-family="Times,serif" font-size="14.00">Active</text>
<polygon fill="black" stroke="black" points="264,-598.25 264,-598.25 308,-598.25 308,-598.25 264,-598.25"/>
</g>
<g id="clust2" class="cluster">
<title>cluster_Mission</title>
<path fill="none" stroke="black" d="M28,-128.75C28,-128.75 536,-128.75 536,-128.75 542,-128.75 548,-134.75 548,-140.75 548,-140.75 548,-567.25 548,-567.25 548,-573.25 542,-579.25 536,-579.25 536,-579.25 28,-579.25 28,-579.25 22,-579.25 16,-573.25 16,-567.25 16,-567.25 16,-140.75 16,-140.75 16,-134.75 22,-128.75 28,-128.75"/>
<text xml:space="preserve" text-anchor="start" x="259.88" y="-558.5" font-family="Times,serif" font-size="14.00">Mission</text>
<polygon fill="black" stroke="black" points="255.88,-551.75 255.88,-551.75 308.12,-551.75 308.12,-551.75 255.88,-551.75"/>
</g>
<!-- Entry -->
<g id="node1" class="node">
<title>Entry</title>
<ellipse fill="black" stroke="#00688b" cx="328" cy="-790.7" rx="7.2" ry="7.2"/>
</g>
<!-- Idle -->
<g id="node2" class="node">
<title>Idle</title>
<path fill="azure" stroke="none" d="M404.25,-746.5C404.25,-746.5 251.75,-746.5 251.75,-746.5 245.75,-746.5 239.75,-740.5 239.75,-734.5 239.75,-734.5 239.75,-680.25 239.75,-680.25 239.75,-674.25 245.75,-668.25 251.75,-668.25 251.75,-668.25 404.25,-668.25 404.25,-668.25 410.25,-668.25 416.25,-674.25 416.25,-680.25 416.25,-680.25 416.25,-734.5 416.25,-734.5 416.25,-740.5 410.25,-746.5 404.25,-746.5"/>
<text xml:space="preserve" text-anchor="start" x="316.75" y="-726.2" font-family="Times,serif" font-weight="bold" font-size="14.00">Idle</text>
<text xml:space="preserve" text-anchor="start" x="247.75" y="-701" font-family="Times,serif" font-size="10.00">start_mission(mission_id: str, sites: list)</text>
<text xml:space="preserve" text-anchor="start" x="247.75" y="-689.75" font-family="Times,serif" font-size="10.00">status()</text>
<text xml:space="preserve" text-anchor="start" x="314.5" y="-678.5" font-family="Times,serif" font-size="10.00"> &#160;&#160;&#160;&#160;&#160;&#160;&#160;&#160;&#160;&#160;&#160;</text>
<polygon fill="#00688b" stroke="#00688b" points="239.75,-716 239.75,-716 416.25,-716 416.25,-716 239.75,-716"/>
<path fill="none" stroke="#00688b" d="M251.75,-668.25C251.75,-668.25 404.25,-668.25 404.25,-668.25 410.25,-668.25 416.25,-674.25 416.25,-680.25 416.25,-680.25 416.25,-734.5 416.25,-734.5 416.25,-740.5 410.25,-746.5 404.25,-746.5 404.25,-746.5 251.75,-746.5 251.75,-746.5 245.75,-746.5 239.75,-740.5 239.75,-734.5 239.75,-734.5 239.75,-680.25 239.75,-680.25 239.75,-674.25 245.75,-668.25 251.75,-668.25"/>
</g>
<!-- Entry&#45;&gt;Idle -->
<g id="edge1" class="edge">
<title>Entry&#45;&gt;Idle</title>
<path fill="none" stroke="red" d="M328,-783.04C328,-777.03 328,-767.57 328,-757.38"/>
<polygon fill="red" stroke="red" points="331.5,-757.69 328,-747.69 324.5,-757.69 331.5,-757.69"/>
</g>
<!-- TravelingToSite -->
<g id="node6" class="node">
<title>TravelingToSite</title>
<path fill="azure" stroke="none" d="M370.5,-532.75C370.5,-532.75 285.5,-532.75 285.5,-532.75 279.5,-532.75 273.5,-526.75 273.5,-520.75 273.5,-520.75 273.5,-444 273.5,-444 273.5,-438 279.5,-432 285.5,-432 285.5,-432 370.5,-432 370.5,-432 376.5,-432 382.5,-438 382.5,-444 382.5,-444 382.5,-520.75 382.5,-520.75 382.5,-526.75 376.5,-532.75 370.5,-532.75"/>
<text xml:space="preserve" text-anchor="start" x="281.5" y="-512.45" font-family="Times,serif" font-weight="bold" font-size="14.00">TravelingToSite</text>
<text xml:space="preserve" text-anchor="start" x="281.5" y="-487.25" font-family="Times,serif" font-size="10.00">$&gt;()</text>
<text xml:space="preserve" text-anchor="start" x="281.5" y="-476" font-family="Times,serif" font-size="10.00">arrived_at_site()</text>
<text xml:space="preserve" text-anchor="start" x="281.5" y="-464.75" font-family="Times,serif" font-size="10.00">tick()</text>
<text xml:space="preserve" text-anchor="start" x="281.5" y="-453.5" font-family="Times,serif" font-size="10.00">status()</text>
<text xml:space="preserve" text-anchor="start" x="292.38" y="-442.25" font-family="Times,serif" font-size="10.00"> &#160;&#160;&#160;&#160;&#160;&#160;&#160;&#160;&#160;&#160;&#160;&#160;&#160;&#160;&#160;&#160;&#160;&#160;&#160;</text>
<polygon fill="#00688b" stroke="#00688b" points="273.5,-502.25 273.5,-502.25 382.5,-502.25 382.5,-502.25 273.5,-502.25"/>
<path fill="none" stroke="#00688b" d="M285.5,-432C285.5,-432 370.5,-432 370.5,-432 376.5,-432 382.5,-438 382.5,-444 382.5,-444 382.5,-520.75 382.5,-520.75 382.5,-526.75 376.5,-532.75 370.5,-532.75 370.5,-532.75 285.5,-532.75 285.5,-532.75 279.5,-532.75 273.5,-526.75 273.5,-520.75 273.5,-520.75 273.5,-444 273.5,-444 273.5,-438 279.5,-432 285.5,-432"/>
</g>
<!-- Idle&#45;&gt;TravelingToSite -->
<g id="edge2" class="edge">
<title>Idle&#45;&gt;TravelingToSite</title>
<path fill="none" stroke="red" d="M328,-668.29C328,-634.21 328,-583.66 328,-544.02"/>
<polygon fill="red" stroke="red" points="331.5,-544.14 328,-534.14 324.5,-544.14 331.5,-544.14"/>
<text xml:space="preserve" text-anchor="middle" x="368.12" y="-636.95" font-family="Times,serif" font-size="14.00"> start_mission </text>
</g>
<!-- Complete -->
<g id="node3" class="node">
<title>Complete</title>
<path fill="azure" stroke="none" d="M496.25,-78.25C496.25,-78.25 343.75,-78.25 343.75,-78.25 337.75,-78.25 331.75,-72.25 331.75,-66.25 331.75,-66.25 331.75,-12 331.75,-12 331.75,-6 337.75,0 343.75,0 343.75,0 496.25,0 496.25,0 502.25,0 508.25,-6 508.25,-12 508.25,-12 508.25,-66.25 508.25,-66.25 508.25,-72.25 502.25,-78.25 496.25,-78.25"/>
<text xml:space="preserve" text-anchor="start" x="391.88" y="-57.95" font-family="Times,serif" font-weight="bold" font-size="14.00">Complete</text>
<text xml:space="preserve" text-anchor="start" x="339.75" y="-32.75" font-family="Times,serif" font-size="10.00">start_mission(mission_id: str, sites: list)</text>
<text xml:space="preserve" text-anchor="start" x="339.75" y="-21.5" font-family="Times,serif" font-size="10.00">status()</text>
<text xml:space="preserve" text-anchor="start" x="406.5" y="-10.25" font-family="Times,serif" font-size="10.00"> &#160;&#160;&#160;&#160;&#160;&#160;&#160;&#160;&#160;&#160;&#160;</text>
<polygon fill="#00688b" stroke="#00688b" points="331.75,-47.75 331.75,-47.75 508.25,-47.75 508.25,-47.75 331.75,-47.75"/>
<path fill="none" stroke="#00688b" d="M343.75,0C343.75,0 496.25,0 496.25,0 502.25,0 508.25,-6 508.25,-12 508.25,-12 508.25,-66.25 508.25,-66.25 508.25,-72.25 502.25,-78.25 496.25,-78.25 496.25,-78.25 343.75,-78.25 343.75,-78.25 337.75,-78.25 331.75,-72.25 331.75,-66.25 331.75,-66.25 331.75,-12 331.75,-12 331.75,-6 337.75,0 343.75,0"/>
</g>
<!-- Complete&#45;&gt;TravelingToSite -->
<g id="edge11" class="edge">
<title>Complete&#45;&gt;TravelingToSite</title>
<path fill="none" stroke="red" d="M451.52,-78.13C510.57,-153.9 623.52,-324.22 527,-414 506.19,-433.36 431.72,-422.09 393.02,-430.84"/>
<polygon fill="red" stroke="red" points="392.18,-427.43 383.7,-433.79 394.29,-434.11 392.18,-427.43"/>
<text xml:space="preserve" text-anchor="middle" x="593.72" y="-247.45" font-family="Times,serif" font-size="14.00"> start_mission </text>
</g>
<!-- Active -->
<g id="node4" class="node">
<title>Active</title>
<ellipse fill="azure" stroke="#00688b" cx="556" cy="-482.38" rx="0.36" ry="0.36"/>
</g>
<!-- Mission -->
<g id="node5" class="node">
<title>Mission</title>
<ellipse fill="azure" stroke="#00688b" cx="42" cy="-482.38" rx="0.36" ry="0.36"/>
</g>
<!-- ReturningToDock -->
<g id="node8" class="node">
<title>ReturningToDock</title>
<path fill="azure" stroke="none" d="M148.12,-379.5C148.12,-379.5 51.88,-379.5 51.88,-379.5 45.88,-379.5 39.88,-373.5 39.88,-367.5 39.88,-367.5 39.88,-290.75 39.88,-290.75 39.88,-284.75 45.88,-278.75 51.88,-278.75 51.88,-278.75 148.12,-278.75 148.12,-278.75 154.12,-278.75 160.12,-284.75 160.12,-290.75 160.12,-290.75 160.12,-367.5 160.12,-367.5 160.12,-373.5 154.12,-379.5 148.12,-379.5"/>
<text xml:space="preserve" text-anchor="start" x="47.88" y="-359.2" font-family="Times,serif" font-weight="bold" font-size="14.00">ReturningToDock</text>
<text xml:space="preserve" text-anchor="start" x="47.88" y="-334" font-family="Times,serif" font-size="10.00">$&gt;()</text>
<text xml:space="preserve" text-anchor="start" x="47.88" y="-322.75" font-family="Times,serif" font-size="10.00">docked()</text>
<text xml:space="preserve" text-anchor="start" x="47.88" y="-311.5" font-family="Times,serif" font-size="10.00">tick()</text>
<text xml:space="preserve" text-anchor="start" x="47.88" y="-300.25" font-family="Times,serif" font-size="10.00">status()</text>
<text xml:space="preserve" text-anchor="start" x="47.88" y="-289" font-family="Times,serif" font-size="10.00"> &#160;&#160;&#160;&#160;&#160;&#160;&#160;&#160;&#160;&#160;&#160;&#160;&#160;&#160;&#160;&#160;&#160;&#160;&#160;</text>
<polygon fill="#00688b" stroke="#00688b" points="39.88,-349 39.88,-349 160.12,-349 160.12,-349 39.88,-349"/>
<path fill="none" stroke="#00688b" d="M51.88,-278.75C51.88,-278.75 148.12,-278.75 148.12,-278.75 154.12,-278.75 160.12,-284.75 160.12,-290.75 160.12,-290.75 160.12,-367.5 160.12,-367.5 160.12,-373.5 154.12,-379.5 148.12,-379.5 148.12,-379.5 51.88,-379.5 51.88,-379.5 45.88,-379.5 39.88,-373.5 39.88,-367.5 39.88,-367.5 39.88,-290.75 39.88,-290.75 39.88,-284.75 45.88,-278.75 51.88,-278.75"/>
</g>
<!-- Mission&#45;&gt;ReturningToDock -->
<g id="edge3" class="edge">
<title>Mission&#45;&gt;ReturningToDock</title>
<path fill="none" stroke="red" d="M41.97,-481.23C41.26,-478.33 30.14,-431.34 42.75,-397.5 43.82,-394.63 45.07,-391.8 46.46,-389.02"/>
<polygon fill="red" stroke="red" points="49.41,-390.92 51.34,-380.51 43.33,-387.44 49.41,-390.92"/>
<text xml:space="preserve" text-anchor="middle" x="60.38" y="-400.7" font-family="Times,serif" font-size="14.00"> abort </text>
</g>
<!-- Inspecting -->
<g id="node7" class="node">
<title>Inspecting</title>
<path fill="azure" stroke="none" d="M394.12,-379.5C394.12,-379.5 261.88,-379.5 261.88,-379.5 255.88,-379.5 249.88,-373.5 249.88,-367.5 249.88,-367.5 249.88,-290.75 249.88,-290.75 249.88,-284.75 255.88,-278.75 261.88,-278.75 261.88,-278.75 394.12,-278.75 394.12,-278.75 400.12,-278.75 406.12,-284.75 406.12,-290.75 406.12,-290.75 406.12,-367.5 406.12,-367.5 406.12,-373.5 400.12,-379.5 394.12,-379.5"/>
<text xml:space="preserve" text-anchor="start" x="298" y="-359.2" font-family="Times,serif" font-weight="bold" font-size="14.00">Inspecting</text>
<text xml:space="preserve" text-anchor="start" x="257.88" y="-334" font-family="Times,serif" font-size="10.00">$&gt;()</text>
<text xml:space="preserve" text-anchor="start" x="257.88" y="-322.75" font-family="Times,serif" font-size="10.00">inspection_complete(findings: str)</text>
<text xml:space="preserve" text-anchor="start" x="257.88" y="-311.5" font-family="Times,serif" font-size="10.00">inspection_failed(reason: str)</text>
<text xml:space="preserve" text-anchor="start" x="257.88" y="-300.25" font-family="Times,serif" font-size="10.00">status()</text>
<text xml:space="preserve" text-anchor="start" x="305.5" y="-289" font-family="Times,serif" font-size="10.00"> &#160;&#160;&#160;&#160;&#160;&#160;&#160;&#160;&#160;&#160;&#160;&#160;&#160;&#160;&#160;&#160;&#160;&#160;&#160;</text>
<polygon fill="#00688b" stroke="#00688b" points="249.88,-349 249.88,-349 406.12,-349 406.12,-349 249.88,-349"/>
<path fill="none" stroke="#00688b" d="M261.88,-278.75C261.88,-278.75 394.12,-278.75 394.12,-278.75 400.12,-278.75 406.12,-284.75 406.12,-290.75 406.12,-290.75 406.12,-367.5 406.12,-367.5 406.12,-373.5 400.12,-379.5 394.12,-379.5 394.12,-379.5 261.88,-379.5 261.88,-379.5 255.88,-379.5 249.88,-373.5 249.88,-367.5 249.88,-367.5 249.88,-290.75 249.88,-290.75 249.88,-284.75 255.88,-278.75 261.88,-278.75"/>
</g>
<!-- TravelingToSite&#45;&gt;Inspecting -->
<g id="edge4" class="edge">
<title>TravelingToSite&#45;&gt;Inspecting</title>
<path fill="none" stroke="red" d="M382.21,-435.03C383.8,-433.99 385.4,-432.97 387,-432 404.7,-421.23 418.52,-431.25 430,-414 441.47,-396.77 432.16,-381.26 415.31,-368.41"/>
<polygon fill="red" stroke="red" points="417.36,-365.56 407.13,-362.79 413.39,-371.33 417.36,-365.56"/>
<text xml:space="preserve" text-anchor="middle" x="478.92" y="-400.7" font-family="Times,serif" font-size="14.00"> arrived_at_site </text>
</g>
<!-- TravelingToSite&#45;&gt;ReturningToDock -->
<g id="edge5" class="edge">
<title>TravelingToSite&#45;&gt;ReturningToDock</title>
<path fill="none" stroke="red" d="M273.88,-479.24C225.18,-474.28 155.33,-459.12 115.5,-414 109.57,-407.29 105.58,-399.07 102.94,-390.42"/>
<polygon fill="red" stroke="red" points="106.37,-389.71 100.63,-380.8 99.56,-391.35 106.37,-389.71"/>
<text xml:space="preserve" text-anchor="middle" x="146.25" y="-400.7" font-family="Times,serif" font-size="14.00"> sites done </text>
</g>
<!-- Inspecting&#45;&gt;TravelingToSite -->
<g id="edge6" class="edge">
<title>Inspecting&#45;&gt;TravelingToSite</title>
<path fill="none" stroke="red" d="M249.95,-349.15C225.19,-359.27 200.51,-374.55 186,-397.5 163.14,-433.65 215.3,-456.17 262.71,-468.65"/>
<polygon fill="red" stroke="red" points="261.65,-472 272.2,-471.03 263.35,-465.21 261.65,-472"/>
<text xml:space="preserve" text-anchor="middle" x="246" y="-400.7" font-family="Times,serif" font-size="14.00"> inspection_complete </text>
</g>
<!-- Inspecting&#45;&gt;TravelingToSite -->
<g id="edge7" class="edge">
<title>Inspecting&#45;&gt;TravelingToSite</title>
<path fill="none" stroke="red" d="M325.96,-379.43C325.77,-385.51 325.61,-391.65 325.5,-397.5 325.36,-405.04 325.38,-412.95 325.5,-420.78"/>
<polygon fill="red" stroke="red" points="322,-420.71 325.71,-430.64 328.99,-420.56 322,-420.71"/>
<text xml:space="preserve" text-anchor="middle" x="375.75" y="-400.7" font-family="Times,serif" font-size="14.00"> inspection_failed </text>
</g>
<!-- Inspecting&#45;&gt;Inspecting -->
<g id="edge8" class="edge">
<title>Inspecting&#45;&gt;Inspecting</title>
<path fill="none" stroke="red" d="M406.07,-341.95C416.89,-339.83 424.12,-335.56 424.12,-329.12 424.12,-325.2 421.44,-322.08 416.89,-319.77"/>
<polygon fill="red" stroke="red" points="418.11,-316.48 407.51,-316.77 415.97,-323.15 418.11,-316.48"/>
<text xml:space="preserve" text-anchor="middle" x="474.38" y="-324.07" font-family="Times,serif" font-size="14.00"> inspection_failed </text>
</g>
<!-- Reporting -->
<g id="node9" class="node">
<title>Reporting</title>
<path fill="azure" stroke="none" d="M218.25,-226.25C218.25,-226.25 167.75,-226.25 167.75,-226.25 161.75,-226.25 155.75,-220.25 155.75,-214.25 155.75,-214.25 155.75,-148.75 155.75,-148.75 155.75,-142.75 161.75,-136.75 167.75,-136.75 167.75,-136.75 218.25,-136.75 218.25,-136.75 224.25,-136.75 230.25,-142.75 230.25,-148.75 230.25,-148.75 230.25,-214.25 230.25,-214.25 230.25,-220.25 224.25,-226.25 218.25,-226.25"/>
<text xml:space="preserve" text-anchor="start" x="163.75" y="-205.95" font-family="Times,serif" font-weight="bold" font-size="14.00">Reporting</text>
<text xml:space="preserve" text-anchor="start" x="163.75" y="-180.75" font-family="Times,serif" font-size="10.00">$&gt;()</text>
<text xml:space="preserve" text-anchor="start" x="163.75" y="-169.5" font-family="Times,serif" font-size="10.00">report_sent()</text>
<text xml:space="preserve" text-anchor="start" x="163.75" y="-158.25" font-family="Times,serif" font-size="10.00">status()</text>
<text xml:space="preserve" text-anchor="start" x="167.12" y="-147" font-family="Times,serif" font-size="10.00"> &#160;&#160;&#160;&#160;&#160;&#160;&#160;&#160;&#160;&#160;&#160;&#160;&#160;&#160;&#160;&#160;&#160;&#160;&#160;</text>
<polygon fill="#00688b" stroke="#00688b" points="155.75,-195.75 155.75,-195.75 230.25,-195.75 230.25,-195.75 155.75,-195.75"/>
<path fill="none" stroke="#00688b" d="M167.75,-136.75C167.75,-136.75 218.25,-136.75 218.25,-136.75 224.25,-136.75 230.25,-142.75 230.25,-148.75 230.25,-148.75 230.25,-214.25 230.25,-214.25 230.25,-220.25 224.25,-226.25 218.25,-226.25 218.25,-226.25 167.75,-226.25 167.75,-226.25 161.75,-226.25 155.75,-220.25 155.75,-214.25 155.75,-214.25 155.75,-148.75 155.75,-148.75 155.75,-142.75 161.75,-136.75 167.75,-136.75"/>
</g>
<!-- ReturningToDock&#45;&gt;Reporting -->
<g id="edge9" class="edge">
<title>ReturningToDock&#45;&gt;Reporting</title>
<path fill="none" stroke="red" d="M131.49,-278.82C140.39,-264.88 150.12,-249.64 159.16,-235.49"/>
<polygon fill="red" stroke="red" points="162.04,-237.48 164.47,-227.17 156.14,-233.72 162.04,-237.48"/>
<text xml:space="preserve" text-anchor="middle" x="175.32" y="-247.45" font-family="Times,serif" font-size="14.00"> docked </text>
</g>
<!-- Reporting&#45;&gt;Complete -->
<g id="edge10" class="edge">
<title>Reporting&#45;&gt;Complete</title>
<path fill="none" stroke="red" d="M230.23,-157.48C262.49,-137.53 310.04,-108.13 349.47,-83.74"/>
<polygon fill="red" stroke="red" points="350.83,-87.01 357.5,-78.78 347.15,-81.06 350.83,-87.01"/>
<text xml:space="preserve" text-anchor="middle" x="360.96" y="-99.45" font-family="Times,serif" font-size="14.00"> report_sent </text>
</g>
</g>
</svg>
