<?xml version="1.0" encoding="UTF-8" standalone="no"?>
<!DOCTYPE svg PUBLIC "-//W3C//DTD SVG 1.1//EN"
 "http://www.w3.org/Graphics/SVG/1.1/DTD/svg11.dtd">
<!-- Generated by graphviz version 14.1.5 (20260411.2331)
 -->
<!-- Title: DroneFlightMode Pages: 1 -->
<svg width="865pt" height="993pt"
 viewBox="0.00 0.00 865.00 993.00" xmlns="http://www.w3.org/2000/svg" xmlns:xlink="http://www.w3.org/1999/xlink">
<g id="graph0" class="graph" transform="scale(1 1) rotate(0) translate(4 989.25)">
<title>DroneFlightMode</title>
<polygon fill="white" stroke="none" points="-4,4 -4,-989.25 861.2,-989.25 861.2,4 -4,4"/>
<g id="clust1" class="cluster">
<title>cluster_Flying</title>
<path fill="none" stroke="black" d="M34.2,-120.75C34.2,-120.75 731.2,-120.75 731.2,-120.75 737.2,-120.75 743.2,-126.75 743.2,-132.75 743.2,-132.75 743.2,-965.25 743.2,-965.25 743.2,-971.25 737.2,-977.25 731.2,-977.25 731.2,-977.25 34.2,-977.25 34.2,-977.25 28.2,-977.25 22.2,-971.25 22.2,-965.25 22.2,-965.25 22.2,-132.75 22.2,-132.75 22.2,-126.75 28.2,-120.75 34.2,-120.75"/>
<text xml:space="preserve" text-anchor="start" x="365.07" y="-956.5" font-family="Times,serif" font-size="14.00">Flying</text>
<polygon fill="black" stroke="black" points="361.07,-949.75 361.07,-949.75 404.32,-949.75 404.32,-949.75 361.07,-949.75"/>
</g>
<g id="clust2" class="cluster">
<title>cluster_InFlight</title>
<path fill="none" stroke="black" d="M42.2,-128.75C42.2,-128.75 715.2,-128.75 715.2,-128.75 721.2,-128.75 727.2,-134.75 727.2,-140.75 727.2,-140.75 727.2,-918.75 727.2,-918.75 727.2,-924.75 721.2,-930.75 715.2,-930.75 715.2,-930.75 42.2,-930.75 42.2,-930.75 36.2,-930.75 30.2,-924.75 30.2,-918.75 30.2,-918.75 30.2,-140.75 30.2,-140.75 30.2,-134.75 36.2,-128.75 42.2,-128.75"/>
<text xml:space="preserve" text-anchor="start" x="356.95" y="-910" font-family="Times,serif" font-size="14.00">InFlight</text>
<polygon fill="black" stroke="black" points="352.95,-903.25 352.95,-903.25 404.45,-903.25 404.45,-903.25 352.95,-903.25"/>
</g>
<!-- Entry -->
<g id="node1" class="node">
<title>Entry</title>
<ellipse fill="black" stroke="#00688b" cx="7.2" cy="-669.38" rx="7.2" ry="7.2"/>
</g>
<!-- InFlight -->
<g id="node2" class="node">
<title>InFlight</title>
<ellipse fill="azure" stroke="#00688b" cx="132.2" cy="-499.25" rx="0.36" ry="0.36"/>
</g>
<!-- Entry&#45;&gt;InFlight -->
<g id="edge1" class="edge">
<title>Entry&#45;&gt;InFlight</title>
<path fill="none" stroke="red" d="M8.19,-661.95C10.17,-650.41 15.41,-625.71 26.2,-607.75 53.17,-562.86 102.62,-522.55 123.03,-507.02"/>
<polygon fill="red" stroke="red" points="124.96,-509.94 130.93,-501.19 120.81,-504.31 124.96,-509.94"/>
</g>
<!-- ReturningHome -->
<g id="node7" class="node">
<title>ReturningHome</title>
<path fill="azure" stroke="none" d="M501.83,-390.75C501.83,-390.75 414.57,-390.75 414.57,-390.75 408.57,-390.75 402.57,-384.75 402.57,-378.75 402.57,-378.75 402.57,-302 402.57,-302 402.57,-296 408.57,-290 414.57,-290 414.57,-290 501.83,-290 501.83,-290 507.83,-290 513.83,-296 513.83,-302 513.83,-302 513.83,-378.75 513.83,-378.75 513.83,-384.75 507.83,-390.75 501.83,-390.75"/>
<text xml:space="preserve" text-anchor="start" x="410.57" y="-370.45" font-family="Times,serif" font-weight="bold" font-size="14.00">ReturningHome</text>
<text xml:space="preserve" text-anchor="start" x="410.57" y="-345.25" font-family="Times,serif" font-size="10.00">$&gt;()</text>
<text xml:space="preserve" text-anchor="start" x="410.57" y="-334" font-family="Times,serif" font-size="10.00">tick()</text>
<text xml:space="preserve" text-anchor="start" x="410.57" y="-322.75" font-family="Times,serif" font-size="10.00">home_reached()</text>
<text xml:space="preserve" text-anchor="start" x="410.57" y="-311.5" font-family="Times,serif" font-size="10.00">status()</text>
<text xml:space="preserve" text-anchor="start" x="420.7" y="-300.25" font-family="Times,serif" font-size="10.00"> &#160;&#160;&#160;&#160;&#160;&#160;&#160;&#160;&#160;&#160;&#160;&#160;&#160;&#160;&#160;&#160;&#160;&#160;&#160;</text>
<polygon fill="#00688b" stroke="#00688b" points="402.57,-360.25 402.57,-360.25 513.83,-360.25 513.83,-360.25 402.57,-360.25"/>
<path fill="none" stroke="#00688b" d="M414.57,-290C414.57,-290 501.83,-290 501.83,-290 507.83,-290 513.83,-296 513.83,-302 513.83,-302 513.83,-378.75 513.83,-378.75 513.83,-384.75 507.83,-390.75 501.83,-390.75 501.83,-390.75 414.57,-390.75 414.57,-390.75 408.57,-390.75 402.57,-384.75 402.57,-378.75 402.57,-378.75 402.57,-302 402.57,-302 402.57,-296 408.57,-290 414.57,-290"/>
</g>
<!-- InFlight&#45;&gt;ReturningHome -->
<g id="edge3" class="edge">
<title>InFlight&#45;&gt;ReturningHome</title>
<path fill="none" stroke="red" d="M132.29,-498.23C136.06,-497.41 257.33,-470.81 344.2,-425.25 361.03,-416.43 378.09,-405.28 393.71,-394.02"/>
<polygon fill="red" stroke="red" points="395.52,-397.03 401.51,-388.29 391.38,-391.39 395.52,-397.03"/>
<text xml:space="preserve" text-anchor="middle" x="393.01" y="-411.95" font-family="Times,serif" font-size="14.00"> rc_lost </text>
</g>
<!-- InFlight&#45;&gt;ReturningHome -->
<g id="edge5" class="edge">
<title>InFlight&#45;&gt;ReturningHome</title>
<path fill="none" stroke="red" d="M132.35,-498.13C135.35,-495.76 183.98,-457.33 222.2,-425.25 230.77,-418.06 231.02,-413.39 241.2,-408.75 293.48,-384.94 314.72,-408.99 369.2,-390.75 376.92,-388.17 384.74,-384.91 392.38,-381.32"/>
<polygon fill="red" stroke="red" points="393.89,-384.47 401.3,-376.9 390.78,-378.2 393.89,-384.47"/>
<text xml:space="preserve" text-anchor="middle" x="290.7" y="-411.95" font-family="Times,serif" font-size="14.00"> geofence_breach </text>
</g>
<!-- AltitudeHold -->
<g id="node8" class="node">
<title>AltitudeHold</title>
<path fill="azure" stroke="none" d="M168.45,-390.75C168.45,-390.75 99.95,-390.75 99.95,-390.75 93.95,-390.75 87.95,-384.75 87.95,-378.75 87.95,-378.75 87.95,-302 87.95,-302 87.95,-296 93.95,-290 99.95,-290 99.95,-290 168.45,-290 168.45,-290 174.45,-290 180.45,-296 180.45,-302 180.45,-302 180.45,-378.75 180.45,-378.75 180.45,-384.75 174.45,-390.75 168.45,-390.75"/>
<text xml:space="preserve" text-anchor="start" x="95.95" y="-370.45" font-family="Times,serif" font-weight="bold" font-size="14.00">AltitudeHold</text>
<text xml:space="preserve" text-anchor="start" x="95.95" y="-345.25" font-family="Times,serif" font-size="10.00">$&gt;()</text>
<text xml:space="preserve" text-anchor="start" x="95.95" y="-334" font-family="Times,serif" font-size="10.00">land()</text>
<text xml:space="preserve" text-anchor="start" x="95.95" y="-322.75" font-family="Times,serif" font-size="10.00">tick()</text>
<text xml:space="preserve" text-anchor="start" x="95.95" y="-311.5" font-family="Times,serif" font-size="10.00">status()</text>
<text xml:space="preserve" text-anchor="start" x="95.95" y="-300.25" font-family="Times,serif" font-size="10.00"> &#160;&#160;&#160;&#160;&#160;&#160;&#160;&#160;&#160;&#160;&#160;&#160;&#160;&#160;&#160;&#160;&#160;&#160;&#160;</text>
<polygon fill="#00688b" stroke="#00688b" points="87.95,-360.25 87.95,-360.25 180.45,-360.25 180.45,-360.25 87.95,-360.25"/>
<path fill="none" stroke="#00688b" d="M99.95,-290C99.95,-290 168.45,-290 168.45,-290 174.45,-290 180.45,-296 180.45,-302 180.45,-302 180.45,-378.75 180.45,-378.75 180.45,-384.75 174.45,-390.75 168.45,-390.75 168.45,-390.75 99.95,-390.75 99.95,-390.75 93.95,-390.75 87.95,-384.75 87.95,-378.75 87.95,-378.75 87.95,-302 87.95,-302 87.95,-296 93.95,-290 99.95,-290"/>
</g>
<!-- InFlight&#45;&gt;AltitudeHold -->
<g id="edge4" class="edge">
<title>InFlight&#45;&gt;AltitudeHold</title>
<path fill="none" stroke="red" d="M132.13,-498.22C129.23,-496.93 36.72,-455.18 57.7,-408.75 62.78,-397.51 70.76,-387.4 79.68,-378.64"/>
<polygon fill="red" stroke="red" points="81.94,-381.32 86.97,-371.99 77.22,-376.14 81.94,-381.32"/>
<text xml:space="preserve" text-anchor="middle" x="83.95" y="-411.95" font-family="Times,serif" font-size="14.00"> gps_lost </text>
</g>
<!-- EmergencyLand -->
<g id="node10" class="node">
<title>EmergencyLand</title>
<path fill="azure" stroke="none" d="M348.57,-390.75C348.57,-390.75 259.82,-390.75 259.82,-390.75 253.82,-390.75 247.82,-384.75 247.82,-378.75 247.82,-378.75 247.82,-302 247.82,-302 247.82,-296 253.82,-290 259.82,-290 259.82,-290 348.57,-290 348.57,-290 354.57,-290 360.57,-296 360.57,-302 360.57,-302 360.57,-378.75 360.57,-378.75 360.57,-384.75 354.57,-390.75 348.57,-390.75"/>
<text xml:space="preserve" text-anchor="start" x="255.82" y="-370.45" font-family="Times,serif" font-weight="bold" font-size="14.00">EmergencyLand</text>
<text xml:space="preserve" text-anchor="start" x="255.82" y="-345.25" font-family="Times,serif" font-size="10.00">$&gt;()</text>
<text xml:space="preserve" text-anchor="start" x="255.82" y="-334" font-family="Times,serif" font-size="10.00">tick()</text>
<text xml:space="preserve" text-anchor="start" x="255.82" y="-322.75" font-family="Times,serif" font-size="10.00">touchdown()</text>
<text xml:space="preserve" text-anchor="start" x="255.82" y="-311.5" font-family="Times,serif" font-size="10.00">status()</text>
<text xml:space="preserve" text-anchor="start" x="259.57" y="-300.25" font-family="Times,serif" font-size="10.00"> &#160;&#160;&#160;&#160;&#160;&#160;&#160;&#160;&#160;&#160;&#160;&#160;&#160;&#160;&#160;&#160;&#160;&#160;&#160;</text>
<polygon fill="#00688b" stroke="#00688b" points="247.82,-360.25 247.82,-360.25 360.57,-360.25 360.57,-360.25 247.82,-360.25"/>
<path fill="none" stroke="#00688b" d="M259.82,-290C259.82,-290 348.57,-290 348.57,-290 354.57,-290 360.57,-296 360.57,-302 360.57,-302 360.57,-378.75 360.57,-378.75 360.57,-384.75 354.57,-390.75 348.57,-390.75 348.57,-390.75 259.82,-390.75 259.82,-390.75 253.82,-390.75 247.82,-384.75 247.82,-378.75 247.82,-378.75 247.82,-302 247.82,-302 247.82,-296 253.82,-290 259.82,-290"/>
</g>
<!-- InFlight&#45;&gt;EmergencyLand -->
<g id="edge2" class="edge">
<title>InFlight&#45;&gt;EmergencyLand</title>
<path fill="none" stroke="red" d="M132.14,-498.08C130.82,-494.68 110.1,-439.78 132.95,-408.75 148.51,-387.61 164.61,-399.94 189.2,-390.75 205.06,-384.82 221.92,-377.93 237.7,-371.21"/>
<polygon fill="red" stroke="red" points="238.7,-374.59 246.51,-367.42 235.94,-368.16 238.7,-374.59"/>
<text xml:space="preserve" text-anchor="middle" x="177.57" y="-411.95" font-family="Times,serif" font-size="14.00"> battery_critical </text>
</g>
<!-- Flying -->
<g id="node3" class="node">
<title>Flying</title>
<ellipse fill="azure" stroke="#00688b" cx="735.2" cy="-833.88" rx="0.36" ry="0.36"/>
</g>
<!-- TakingOff -->
<g id="node4" class="node">
<title>TakingOff</title>
<path fill="azure" stroke="none" d="M680.83,-884.25C680.83,-884.25 611.58,-884.25 611.58,-884.25 605.58,-884.25 599.58,-878.25 599.58,-872.25 599.58,-872.25 599.58,-795.5 599.58,-795.5 599.58,-789.5 605.58,-783.5 611.58,-783.5 611.58,-783.5 680.83,-783.5 680.83,-783.5 686.83,-783.5 692.83,-789.5 692.83,-795.5 692.83,-795.5 692.83,-872.25 692.83,-872.25 692.83,-878.25 686.83,-884.25 680.83,-884.25"/>
<text xml:space="preserve" text-anchor="start" x="615.83" y="-863.95" font-family="Times,serif" font-weight="bold" font-size="14.00">TakingOff</text>
<text xml:space="preserve" text-anchor="start" x="607.58" y="-838.75" font-family="Times,serif" font-size="10.00">$&gt;()</text>
<text xml:space="preserve" text-anchor="start" x="607.58" y="-827.5" font-family="Times,serif" font-size="10.00">tick()</text>
<text xml:space="preserve" text-anchor="start" x="607.58" y="-816.25" font-family="Times,serif" font-size="10.00">takeoff_complete()</text>
<text xml:space="preserve" text-anchor="start" x="607.58" y="-805" font-family="Times,serif" font-size="10.00">status()</text>
<text xml:space="preserve" text-anchor="start" x="623.7" y="-793.75" font-family="Times,serif" font-size="10.00"> &#160;&#160;&#160;&#160;&#160;&#160;&#160;&#160;&#160;&#160;&#160;&#160;&#160;&#160;&#160;&#160;&#160;&#160;&#160;</text>
<polygon fill="#00688b" stroke="#00688b" points="599.58,-853.75 599.58,-853.75 692.83,-853.75 692.83,-853.75 599.58,-853.75"/>
<path fill="none" stroke="#00688b" d="M611.58,-783.5C611.58,-783.5 680.83,-783.5 680.83,-783.5 686.83,-783.5 692.83,-789.5 692.83,-795.5 692.83,-795.5 692.83,-872.25 692.83,-872.25 692.83,-878.25 686.83,-884.25 680.83,-884.25 680.83,-884.25 611.58,-884.25 611.58,-884.25 605.58,-884.25 599.58,-878.25 599.58,-872.25 599.58,-872.25 599.58,-795.5 599.58,-795.5 599.58,-789.5 605.58,-783.5 611.58,-783.5"/>
</g>
<!-- Hovering -->
<g id="node5" class="node">
<title>Hovering</title>
<path fill="azure" stroke="none" d="M660.58,-731C660.58,-731 553.83,-731 553.83,-731 547.83,-731 541.83,-725 541.83,-719 541.83,-719 541.83,-619.75 541.83,-619.75 541.83,-613.75 547.83,-607.75 553.83,-607.75 553.83,-607.75 660.58,-607.75 660.58,-607.75 666.58,-607.75 672.58,-613.75 672.58,-619.75 672.58,-619.75 672.58,-719 672.58,-719 672.58,-725 666.58,-731 660.58,-731"/>
<text xml:space="preserve" text-anchor="start" x="579.83" y="-710.7" font-family="Times,serif" font-weight="bold" font-size="14.00">Hovering</text>
<text xml:space="preserve" text-anchor="start" x="549.83" y="-685.5" font-family="Times,serif" font-size="10.00">$&gt;()</text>
<text xml:space="preserve" text-anchor="start" x="549.83" y="-674.25" font-family="Times,serif" font-size="10.00">set_mission(waypoints: list)</text>
<text xml:space="preserve" text-anchor="start" x="549.83" y="-663" font-family="Times,serif" font-size="10.00">return_to_home()</text>
<text xml:space="preserve" text-anchor="start" x="549.83" y="-651.75" font-family="Times,serif" font-size="10.00">land()</text>
<text xml:space="preserve" text-anchor="start" x="549.83" y="-640.5" font-family="Times,serif" font-size="10.00">tick()</text>
<text xml:space="preserve" text-anchor="start" x="549.83" y="-629.25" font-family="Times,serif" font-size="10.00">status()</text>
<text xml:space="preserve" text-anchor="start" x="584.7" y="-618" font-family="Times,serif" font-size="10.00"> &#160;&#160;&#160;&#160;&#160;&#160;&#160;&#160;&#160;&#160;&#160;&#160;&#160;&#160;&#160;&#160;&#160;&#160;&#160;</text>
<polygon fill="#00688b" stroke="#00688b" points="541.83,-700.5 541.83,-700.5 672.58,-700.5 672.58,-700.5 541.83,-700.5"/>
<path fill="none" stroke="#00688b" d="M553.83,-607.75C553.83,-607.75 660.58,-607.75 660.58,-607.75 666.58,-607.75 672.58,-613.75 672.58,-619.75 672.58,-619.75 672.58,-719 672.58,-719 672.58,-725 666.58,-731 660.58,-731 660.58,-731 553.83,-731 553.83,-731 547.83,-731 541.83,-725 541.83,-719 541.83,-719 541.83,-619.75 541.83,-619.75 541.83,-613.75 547.83,-607.75 553.83,-607.75"/>
</g>
<!-- TakingOff&#45;&gt;Hovering -->
<g id="edge9" class="edge">
<title>TakingOff&#45;&gt;Hovering</title>
<path fill="none" stroke="red" d="M634.39,-783.68C631.24,-770.56 627.78,-756.11 624.4,-742.05"/>
<polygon fill="red" stroke="red" points="627.81,-741.27 622.08,-732.36 621.01,-742.9 627.81,-741.27"/>
<text xml:space="preserve" text-anchor="middle" x="680.41" y="-752.2" font-family="Times,serif" font-size="14.00"> takeoff_complete </text>
</g>
<!-- OnMission -->
<g id="node6" class="node">
<title>OnMission</title>
<path fill="azure" stroke="none" d="M556.33,-555.25C556.33,-555.25 484.08,-555.25 484.08,-555.25 478.08,-555.25 472.08,-549.25 472.08,-543.25 472.08,-543.25 472.08,-455.25 472.08,-455.25 472.08,-449.25 478.08,-443.25 484.08,-443.25 484.08,-443.25 556.33,-443.25 556.33,-443.25 562.33,-443.25 568.33,-449.25 568.33,-455.25 568.33,-455.25 568.33,-543.25 568.33,-543.25 568.33,-549.25 562.33,-555.25 556.33,-555.25"/>
<text xml:space="preserve" text-anchor="start" x="487.95" y="-534.95" font-family="Times,serif" font-weight="bold" font-size="14.00">OnMission</text>
<text xml:space="preserve" text-anchor="start" x="480.08" y="-509.75" font-family="Times,serif" font-size="10.00">$&gt;()</text>
<text xml:space="preserve" text-anchor="start" x="480.08" y="-498.5" font-family="Times,serif" font-size="10.00">tick()</text>
<text xml:space="preserve" text-anchor="start" x="480.08" y="-487.25" font-family="Times,serif" font-size="10.00">mission_complete()</text>
<text xml:space="preserve" text-anchor="start" x="480.08" y="-476" font-family="Times,serif" font-size="10.00">return_to_home()</text>
<text xml:space="preserve" text-anchor="start" x="480.08" y="-464.75" font-family="Times,serif" font-size="10.00">status()</text>
<text xml:space="preserve" text-anchor="start" x="497.7" y="-453.5" font-family="Times,serif" font-size="10.00"> &#160;&#160;&#160;&#160;&#160;&#160;&#160;&#160;&#160;&#160;&#160;&#160;&#160;&#160;&#160;&#160;&#160;&#160;&#160;</text>
<polygon fill="#00688b" stroke="#00688b" points="472.08,-524.75 472.08,-524.75 568.33,-524.75 568.33,-524.75 472.08,-524.75"/>
<path fill="none" stroke="#00688b" d="M484.08,-443.25C484.08,-443.25 556.33,-443.25 556.33,-443.25 562.33,-443.25 568.33,-449.25 568.33,-455.25 568.33,-455.25 568.33,-543.25 568.33,-543.25 568.33,-549.25 562.33,-555.25 556.33,-555.25 556.33,-555.25 484.08,-555.25 484.08,-555.25 478.08,-555.25 472.08,-549.25 472.08,-543.25 472.08,-543.25 472.08,-455.25 472.08,-455.25 472.08,-449.25 478.08,-443.25 484.08,-443.25"/>
</g>
<!-- Hovering&#45;&gt;OnMission -->
<g id="edge10" class="edge">
<title>Hovering&#45;&gt;OnMission</title>
<path fill="none" stroke="red" d="M542.03,-613.32C536.21,-605.95 531.07,-598.05 527.2,-589.75 523.76,-582.37 521.43,-574.27 519.91,-566.06"/>
<polygon fill="red" stroke="red" points="523.4,-565.74 518.51,-556.34 516.47,-566.74 523.4,-565.74"/>
<text xml:space="preserve" text-anchor="middle" x="563.2" y="-576.45" font-family="Times,serif" font-size="14.00"> set_mission </text>
</g>
<!-- Hovering&#45;&gt;ReturningHome -->
<g id="edge11" class="edge">
<title>Hovering&#45;&gt;ReturningHome</title>
<path fill="none" stroke="red" d="M604.44,-607.91C602.88,-551 603.66,-470.54 618.7,-443.25 625.39,-431.1 637.82,-437.57 644.2,-425.25 647.57,-418.74 648.41,-414.75 644.2,-408.75 617.37,-370.5 566.54,-353.88 524.79,-346.7"/>
<polygon fill="red" stroke="red" points="525.47,-343.26 515.05,-345.18 524.4,-350.18 525.47,-343.26"/>
<text xml:space="preserve" text-anchor="middle" x="665.95" y="-494.2" font-family="Times,serif" font-size="14.00"> return_to_home </text>
</g>
<!-- Landing -->
<g id="node9" class="node">
<title>Landing</title>
<path fill="azure" stroke="none" d="M628.45,-237.5C628.45,-237.5 583.95,-237.5 583.95,-237.5 577.95,-237.5 571.95,-231.5 571.95,-225.5 571.95,-225.5 571.95,-148.75 571.95,-148.75 571.95,-142.75 577.95,-136.75 583.95,-136.75 583.95,-136.75 628.45,-136.75 628.45,-136.75 634.45,-136.75 640.45,-142.75 640.45,-148.75 640.45,-148.75 640.45,-225.5 640.45,-225.5 640.45,-231.5 634.45,-237.5 628.45,-237.5"/>
<text xml:space="preserve" text-anchor="start" x="581.83" y="-217.2" font-family="Times,serif" font-weight="bold" font-size="14.00">Landing</text>
<text xml:space="preserve" text-anchor="start" x="579.95" y="-192" font-family="Times,serif" font-size="10.00">$&gt;()</text>
<text xml:space="preserve" text-anchor="start" x="579.95" y="-180.75" font-family="Times,serif" font-size="10.00">tick()</text>
<text xml:space="preserve" text-anchor="start" x="579.95" y="-169.5" font-family="Times,serif" font-size="10.00">touchdown()</text>
<text xml:space="preserve" text-anchor="start" x="579.95" y="-158.25" font-family="Times,serif" font-size="10.00">status()</text>
<text xml:space="preserve" text-anchor="start" x="583.7" y="-147" font-family="Times,serif" font-size="10.00"> &#160;&#160;&#160;&#160;&#160;&#160;&#160;&#160;&#160;&#160;&#160;&#160;&#160;&#160;&#160;&#160;&#160;&#160;&#160;</text>
<polygon fill="#00688b" stroke="#00688b" points="571.95,-207 571.95,-207 640.45,-207 640.45,-207 571.95,-207"/>
<path fill="none" stroke="#00688b" d="M583.95,-136.75C583.95,-136.75 628.45,-136.75 628.45,-136.75 634.45,-136.75 640.45,-142.75 640.45,-148.75 640.45,-148.75 640.45,-225.5 640.45,-225.5 640.45,-231.5 634.45,-237.5 628.45,-237.5 628.45,-237.5 583.95,-237.5 583.95,-237.5 577.95,-237.5 571.95,-231.5 571.95,-225.5 571.95,-225.5 571.95,-148.75 571.95,-148.75 571.95,-142.75 577.95,-136.75 583.95,-136.75"/>
</g>
<!-- Hovering&#45;&gt;Landing -->
<g id="edge12" class="edge">
<title>Hovering&#45;&gt;Landing</title>
<path fill="none" stroke="red" d="M672.43,-615.2C688.9,-597.99 704.39,-577.53 713.2,-555.25 755.3,-448.75 692.08,-319.08 646.36,-245.82"/>
<polygon fill="red" stroke="red" points="649.44,-244.15 641.13,-237.58 643.53,-247.9 649.44,-244.15"/>
<text xml:space="preserve" text-anchor="middle" x="736.43" y="-411.95" font-family="Times,serif" font-size="14.00"> land </text>
</g>
<!-- OnMission&#45;&gt;ReturningHome -->
<g id="edge13" class="edge">
<title>OnMission&#45;&gt;ReturningHome</title>
<path fill="none" stroke="red" d="M472.34,-469.79C457.17,-458.08 442.2,-443.05 433.95,-425.25 430.53,-417.87 429.61,-409.89 430.29,-401.89"/>
<polygon fill="red" stroke="red" points="433.72,-402.58 431.97,-392.13 426.82,-401.39 433.72,-402.58"/>
<text xml:space="preserve" text-anchor="middle" x="487.57" y="-411.95" font-family="Times,serif" font-size="14.00"> mission_complete </text>
</g>
<!-- OnMission&#45;&gt;ReturningHome -->
<g id="edge14" class="edge">
<title>OnMission&#45;&gt;ReturningHome</title>
<path fill="none" stroke="red" d="M544.57,-443.5C546.68,-431.71 546.35,-419.56 541.2,-408.75 536.53,-398.95 529.66,-390.11 521.84,-382.3"/>
<polygon fill="red" stroke="red" points="524.59,-380.07 514.86,-375.87 519.84,-385.22 524.59,-380.07"/>
<text xml:space="preserve" text-anchor="middle" x="592.79" y="-411.95" font-family="Times,serif" font-size="14.00"> return_to_home </text>
</g>
<!-- ReturningHome&#45;&gt;Landing -->
<g id="edge15" class="edge">
<title>ReturningHome&#45;&gt;Landing</title>
<path fill="none" stroke="red" d="M506.25,-290.27C524.84,-271.27 545.94,-249.71 563.94,-231.32"/>
<polygon fill="red" stroke="red" points="566.42,-233.78 570.91,-224.19 561.42,-228.89 566.42,-233.78"/>
<text xml:space="preserve" text-anchor="middle" x="580.14" y="-258.7" font-family="Times,serif" font-size="14.00"> home_reached </text>
</g>
<!-- AltitudeHold&#45;&gt;Landing -->
<g id="edge16" class="edge">
<title>AltitudeHold&#45;&gt;Landing</title>
<path fill="none" stroke="red" d="M180.26,-315.66C198.34,-306.89 219.46,-297.32 239.2,-290 352.55,-247.96 491.17,-214.01 561.17,-198.03"/>
<polygon fill="red" stroke="red" points="561.74,-201.49 570.72,-195.87 560.2,-194.66 561.74,-201.49"/>
<text xml:space="preserve" text-anchor="middle" x="353.69" y="-258.7" font-family="Times,serif" font-size="14.00"> land </text>
</g>
<!-- Armed -->
<g id="node12" class="node">
<title>Armed</title>
<path fill="azure" stroke="none" d="M845.2,-231.88C845.2,-231.88 763.2,-231.88 763.2,-231.88 757.2,-231.88 751.2,-225.88 751.2,-219.88 751.2,-219.88 751.2,-154.38 751.2,-154.38 751.2,-148.38 757.2,-142.38 763.2,-142.38 763.2,-142.38 845.2,-142.38 845.2,-142.38 851.2,-142.38 857.2,-148.38 857.2,-154.38 857.2,-154.38 857.2,-219.88 857.2,-219.88 857.2,-225.88 851.2,-231.88 845.2,-231.88"/>
<text xml:space="preserve" text-anchor="start" x="783.58" y="-211.57" font-family="Times,serif" font-weight="bold" font-size="14.00">Armed</text>
<text xml:space="preserve" text-anchor="start" x="759.2" y="-186.38" font-family="Times,serif" font-size="10.00">takeoff(altitude: float)</text>
<text xml:space="preserve" text-anchor="start" x="759.2" y="-175.12" font-family="Times,serif" font-size="10.00">disarm()</text>
<text xml:space="preserve" text-anchor="start" x="759.2" y="-163.88" font-family="Times,serif" font-size="10.00">status()</text>
<text xml:space="preserve" text-anchor="start" x="790.7" y="-152.62" font-family="Times,serif" font-size="10.00"> &#160;&#160;&#160;&#160;&#160;&#160;&#160;&#160;&#160;&#160;&#160;</text>
<polygon fill="#00688b" stroke="#00688b" points="751.2,-201.38 751.2,-201.38 857.2,-201.38 857.2,-201.38 751.2,-201.38"/>
<path fill="none" stroke="#00688b" d="M763.2,-142.38C763.2,-142.38 845.2,-142.38 845.2,-142.38 851.2,-142.38 857.2,-148.38 857.2,-154.38 857.2,-154.38 857.2,-219.88 857.2,-219.88 857.2,-225.88 851.2,-231.88 845.2,-231.88 845.2,-231.88 763.2,-231.88 763.2,-231.88 757.2,-231.88 751.2,-225.88 751.2,-219.88 751.2,-219.88 751.2,-154.38 751.2,-154.38 751.2,-148.38 757.2,-142.38 763.2,-142.38"/>
</g>
<!-- Landing&#45;&gt;Armed -->
<g id="edge17" class="edge">
<title>Landing&#45;&gt;Armed</title>
<path fill="none" stroke="red" d="M640.24,-187.12C667.54,-187.12 706.63,-187.12 739.8,-187.12"/>
<polygon fill="red" stroke="red" points="739.74,-190.63 749.74,-187.13 739.74,-183.63 739.74,-190.63"/>
<text xml:space="preserve" text-anchor="middle" x="695.83" y="-193.32" font-family="Times,serif" font-size="14.00"> touchdown </text>
</g>
<!-- EmergencyLand&#45;&gt;Armed -->
<g id="edge18" class="edge">
<title>EmergencyLand&#45;&gt;Armed</title>
<path fill="none" stroke="red" d="M360.53,-303.45C371.05,-298.11 382.2,-293.3 393.2,-290 493.1,-260.01 524.94,-292.57 627.2,-272 674.94,-262.39 687.51,-259.01 731.2,-237.5 734.67,-235.79 738.16,-233.94 741.64,-231.99"/>
<polygon fill="red" stroke="red" points="743.23,-235.12 750.09,-227.04 739.69,-229.08 743.23,-235.12"/>
<text xml:space="preserve" text-anchor="middle" x="724.99" y="-258.7" font-family="Times,serif" font-size="14.00"> touchdown </text>
</g>
<!-- Disarmed -->
<g id="node11" class="node">
<title>Disarmed</title>
<path fill="azure" stroke="none" d="M828.7,-78.25C828.7,-78.25 779.7,-78.25 779.7,-78.25 773.7,-78.25 767.7,-72.25 767.7,-66.25 767.7,-66.25 767.7,-12 767.7,-12 767.7,-6 773.7,0 779.7,0 779.7,0 828.7,0 828.7,0 834.7,0 840.7,-6 840.7,-12 840.7,-12 840.7,-66.25 840.7,-66.25 840.7,-72.25 834.7,-78.25 828.7,-78.25"/>
<text xml:space="preserve" text-anchor="start" x="775.7" y="-57.95" font-family="Times,serif" font-weight="bold" font-size="14.00">Disarmed</text>
<text xml:space="preserve" text-anchor="start" x="775.7" y="-32.75" font-family="Times,serif" font-size="10.00">arm()</text>
<text xml:space="preserve" text-anchor="start" x="775.7" y="-21.5" font-family="Times,serif" font-size="10.00">status()</text>
<text xml:space="preserve" text-anchor="start" x="776.83" y="-10.25" font-family="Times,serif" font-size="10.00"> &#160;&#160;&#160;&#160;&#160;&#160;&#160;&#160;&#160;&#160;&#160;</text>
<polygon fill="#00688b" stroke="#00688b" points="767.7,-47.75 767.7,-47.75 840.7,-47.75 840.7,-47.75 767.7,-47.75"/>
<path fill="none" stroke="#00688b" d="M779.7,0C779.7,0 828.7,0 828.7,0 834.7,0 840.7,-6 840.7,-12 840.7,-12 840.7,-66.25 840.7,-66.25 840.7,-72.25 834.7,-78.25 828.7,-78.25 828.7,-78.25 779.7,-78.25 779.7,-78.25 773.7,-78.25 767.7,-72.25 767.7,-66.25 767.7,-66.25 767.7,-12 767.7,-12 767.7,-6 773.7,0 779.7,0"/>
</g>
<!-- Disarmed&#45;&gt;Armed -->
<g id="edge6" class="edge">
<title>Disarmed&#45;&gt;Armed</title>
<path fill="none" stroke="red" d="M813.43,-77.99C814.58,-84.06 815.57,-90.3 816.2,-96.25 817.4,-107.64 816.95,-119.81 815.69,-131.41"/>
<polygon fill="red" stroke="red" points="812.23,-130.88 814.39,-141.25 819.17,-131.8 812.23,-130.88"/>
<text xml:space="preserve" text-anchor="middle" x="831.53" y="-99.45" font-family="Times,serif" font-size="14.00"> arm </text>
</g>
<!-- Armed&#45;&gt;TakingOff -->
<g id="edge7" class="edge">
<title>Armed&#45;&gt;TakingOff</title>
<path fill="none" stroke="red" d="M802.88,-231.8C802.07,-262.01 801.2,-303.13 801.2,-339.38 801.2,-670.38 801.2,-670.38 801.2,-670.38 801.2,-721.58 775.3,-732.44 736.2,-765.5 724.13,-775.71 716.1,-773.95 702.17,-781.03"/>
<polygon fill="red" stroke="red" points="700.7,-777.83 693.94,-785.99 704.31,-783.83 700.7,-777.83"/>
<text xml:space="preserve" text-anchor="middle" x="824.08" y="-494.2" font-family="Times,serif" font-size="14.00"> takeoff </text>
</g>
<!-- Armed&#45;&gt;Disarmed -->
<g id="edge8" class="edge">
<title>Armed&#45;&gt;Disarmed</title>
<path fill="none" stroke="red" d="M773.24,-142.41C766.5,-127.94 762.59,-111.6 767.2,-96.25 767.98,-93.66 768.92,-91.07 769.99,-88.52"/>
<polygon fill="red" stroke="red" points="773.11,-90.1 774.34,-79.58 766.81,-87.04 773.11,-90.1"/>
<text xml:space="preserve" text-anchor="middle" x="789.7" y="-99.45" font-family="Times,serif" font-size="14.00"> disarm </text>
</g>
</g>
</svg>
