<?xml version="1.0" encoding="UTF-8" standalone="no"?>
<!DOCTYPE svg PUBLIC "-//W3C//DTD SVG 1.1//EN"
 "http://www.w3.org/Graphics/SVG/1.1/DTD/svg11.dtd">
<!-- Generated by graphviz version 14.1.5 (20260411.2331)
 -->
<!-- Title: FleetRobot Pages: 1 -->
<svg width="262pt" height="291pt"
 viewBox="0.00 0.00 262.00 291.00" xmlns="http://www.w3.org/2000/svg" xmlns:xlink="http://www.w3.org/1999/xlink">
<g id="graph0" class="graph" transform="scale(1 1) rotate(0) translate(4 286.9)">
<title>FleetRobot</title>
<polygon fill="white" stroke="none" points="-4,4 -4,-286.9 257.55,-286.9 257.55,4 -4,4"/>
<!-- Entry -->
<g id="node1" class="node">
<title>Entry</title>
<ellipse fill="black" stroke="#00688b" cx="95.99" cy="-275.7" rx="7.2" ry="7.2"/>
</g>
<!-- Available -->
<g id="node2" class="node">
<title>Available</title>
<path fill="azure" stroke="none" d="M173.37,-231.5C173.37,-231.5 18.62,-231.5 18.62,-231.5 12.62,-231.5 6.62,-225.5 6.62,-219.5 6.62,-219.5 6.62,-165.25 6.62,-165.25 6.62,-159.25 12.62,-153.25 18.62,-153.25 18.62,-153.25 173.37,-153.25 173.37,-153.25 179.37,-153.25 185.37,-159.25 185.37,-165.25 185.37,-165.25 185.37,-219.5 185.37,-219.5 185.37,-225.5 179.37,-231.5 173.37,-231.5"/>
<text xml:space="preserve" text-anchor="start" x="27.37" y="-211.2" font-family="Times,serif" font-weight="bold" font-size="14.00">Available(robot_id: str)</text>
<text xml:space="preserve" text-anchor="start" x="14.62" y="-186" font-family="Times,serif" font-size="10.00">$&gt;()</text>
<text xml:space="preserve" text-anchor="start" x="14.62" y="-174.75" font-family="Times,serif" font-size="10.00">assign_task(task_id: str, task_data: dict)</text>
<text xml:space="preserve" text-anchor="start" x="82.49" y="-163.5" font-family="Times,serif" font-size="10.00"> &#160;&#160;&#160;&#160;&#160;&#160;&#160;&#160;&#160;&#160;&#160;</text>
<polygon fill="#00688b" stroke="#00688b" points="6.62,-201 6.62,-201 185.37,-201 185.37,-201 6.62,-201"/>
<path fill="none" stroke="#00688b" d="M18.62,-153.25C18.62,-153.25 173.37,-153.25 173.37,-153.25 179.37,-153.25 185.37,-159.25 185.37,-165.25 185.37,-165.25 185.37,-219.5 185.37,-219.5 185.37,-225.5 179.37,-231.5 173.37,-231.5 173.37,-231.5 18.62,-231.5 18.62,-231.5 12.62,-231.5 6.62,-225.5 6.62,-219.5 6.62,-219.5 6.62,-165.25 6.62,-165.25 6.62,-159.25 12.62,-153.25 18.62,-153.25"/>
</g>
<!-- Entry&#45;&gt;Available -->
<g id="edge1" class="edge">
<title>Entry&#45;&gt;Available</title>
<path fill="none" stroke="red" d="M95.99,-268.04C95.99,-262.03 95.99,-252.57 95.99,-242.38"/>
<polygon fill="red" stroke="red" points="99.49,-242.69 95.99,-232.69 92.49,-242.69 99.49,-242.69"/>
</g>
<!-- Busy -->
<g id="node3" class="node">
<title>Busy</title>
<path fill="azure" stroke="none" d="M138.12,-100.75C138.12,-100.75 53.87,-100.75 53.87,-100.75 47.87,-100.75 41.87,-94.75 41.87,-88.75 41.87,-88.75 41.87,-12 41.87,-12 41.87,-6 47.87,0 53.87,0 53.87,0 138.12,0 138.12,0 144.12,0 150.12,-6 150.12,-12 150.12,-12 150.12,-88.75 150.12,-88.75 150.12,-94.75 144.12,-100.75 138.12,-100.75"/>
<text xml:space="preserve" text-anchor="start" x="81.74" y="-80.45" font-family="Times,serif" font-weight="bold" font-size="14.00">Busy</text>
<text xml:space="preserve" text-anchor="start" x="49.87" y="-55.25" font-family="Times,serif" font-size="10.00">$&gt;()</text>
<text xml:space="preserve" text-anchor="start" x="49.87" y="-44" font-family="Times,serif" font-size="10.00">tick()</text>
<text xml:space="preserve" text-anchor="start" x="49.87" y="-32.75" font-family="Times,serif" font-size="10.00">task_complete()</text>
<text xml:space="preserve" text-anchor="start" x="49.87" y="-21.5" font-family="Times,serif" font-size="10.00">task_failed(reason: str)</text>
<text xml:space="preserve" text-anchor="start" x="82.49" y="-10.25" font-family="Times,serif" font-size="10.00"> &#160;&#160;&#160;&#160;&#160;&#160;&#160;&#160;&#160;&#160;&#160;</text>
<polygon fill="#00688b" stroke="#00688b" points="41.87,-70.25 41.87,-70.25 150.12,-70.25 150.12,-70.25 41.87,-70.25"/>
<path fill="none" stroke="#00688b" d="M53.87,0C53.87,0 138.12,0 138.12,0 144.12,0 150.12,-6 150.12,-12 150.12,-12 150.12,-88.75 150.12,-88.75 150.12,-94.75 144.12,-100.75 138.12,-100.75 138.12,-100.75 53.87,-100.75 53.87,-100.75 47.87,-100.75 41.87,-94.75 41.87,-88.75 41.87,-88.75 41.87,-12 41.87,-12 41.87,-6 47.87,0 53.87,0"/>
</g>
<!-- Available&#45;&gt;Busy -->
<g id="edge2" class="edge">
<title>Available&#45;&gt;Busy</title>
<path fill="none" stroke="red" d="M18.88,-153.63C13.12,-148.2 8.08,-142.09 4.24,-135.25 -7.96,-113.49 9.56,-94.28 32.45,-79.76"/>
<polygon fill="red" stroke="red" points="34.02,-82.9 40.85,-74.8 30.46,-76.87 34.02,-82.9"/>
<text xml:space="preserve" text-anchor="middle" x="39.12" y="-121.95" font-family="Times,serif" font-size="14.00"> assign_task </text>
</g>
<!-- Busy&#45;&gt;Available -->
<g id="edge3" class="edge">
<title>Busy&#45;&gt;Available</title>
<path fill="none" stroke="red" d="M95.99,-100.62C95.99,-114.04 95.99,-128.59 95.99,-142.03"/>
<polygon fill="red" stroke="red" points="92.49,-141.98 95.99,-151.98 99.49,-141.98 92.49,-141.98"/>
<text xml:space="preserve" text-anchor="middle" x="139.12" y="-121.95" font-family="Times,serif" font-size="14.00"> task_complete </text>
</g>
<!-- Busy&#45;&gt;Available -->
<g id="edge4" class="edge">
<title>Busy&#45;&gt;Available</title>
<path fill="none" stroke="red" d="M150,-76.16C174.6,-91.19 195.69,-111.95 182.99,-135.25 181.08,-138.75 178.86,-142.06 176.37,-145.2"/>
<polygon fill="red" stroke="red" points="173.92,-142.69 169.79,-152.44 179.11,-147.4 173.92,-142.69"/>
<text xml:space="preserve" text-anchor="middle" x="220.18" y="-121.95" font-family="Times,serif" font-size="14.00"> task_failed </text>
</g>
</g>
</svg>
