<?xml version="1.0" encoding="UTF-8" standalone="no"?>
<!DOCTYPE svg PUBLIC "-//W3C//DTD SVG 1.1//EN"
 "http://www.w3.org/Graphics/SVG/1.1/DTD/svg11.dtd">
<!-- Generated by graphviz version 14.1.5 (20260411.2331)
 -->
<!-- Title: ApprovalChain Pages: 1 -->
<svg width="211pt" height="496pt"
 viewBox="0.00 0.00 211.00 496.00" xmlns="http://www.w3.org/2000/svg" xmlns:xlink="http://www.w3.org/1999/xlink">
<g id="graph0" class="graph" transform="scale(1 1) rotate(0) translate(4 492.15)">
<title>ApprovalChain</title>
<polygon fill="white" stroke="none" points="-4,4 -4,-492.15 207.26,-492.15 207.26,4 -4,4"/>
<!-- Entry -->
<g id="node1" class="node">
<title>Entry</title>
<ellipse fill="black" stroke="#00688b" cx="124.62" cy="-480.95" rx="7.2" ry="7.2"/>
</g>
<!-- Draft -->
<g id="node2" class="node">
<title>Draft</title>
<path fill="azure" stroke="none" d="M166.75,-436.75C166.75,-436.75 82.5,-436.75 82.5,-436.75 76.5,-436.75 70.5,-430.75 70.5,-424.75 70.5,-424.75 70.5,-381.75 70.5,-381.75 70.5,-375.75 76.5,-369.75 82.5,-369.75 82.5,-369.75 166.75,-369.75 166.75,-369.75 172.75,-369.75 178.75,-375.75 178.75,-381.75 178.75,-381.75 178.75,-424.75 178.75,-424.75 178.75,-430.75 172.75,-436.75 166.75,-436.75"/>
<text xml:space="preserve" text-anchor="start" x="108.88" y="-416.45" font-family="Times,serif" font-weight="bold" font-size="14.00">Draft</text>
<text xml:space="preserve" text-anchor="start" x="78.5" y="-391.25" font-family="Times,serif" font-size="10.00"> &#160;&#160;&#160;&#160;&#160;&#160;&#160;&#160;&#160;&#160;&#160;&#160;&#160;&#160;&#160;submit()</text>
<text xml:space="preserve" text-anchor="start" x="78.5" y="-380" font-family="Times,serif" font-size="10.00"> &#160;&#160;&#160;&#160;&#160;&#160;&#160;&#160;&#160;&#160;&#160;&#160;&#160;&#160;&#160;status() &#160;&#160;&#160;&#160;&#160;&#160;&#160;&#160;&#160;&#160;&#160;</text>
<polygon fill="#00688b" stroke="#00688b" points="70.5,-406.25 70.5,-406.25 178.75,-406.25 178.75,-406.25 70.5,-406.25"/>
<path fill="none" stroke="#00688b" d="M82.5,-369.75C82.5,-369.75 166.75,-369.75 166.75,-369.75 172.75,-369.75 178.75,-375.75 178.75,-381.75 178.75,-381.75 178.75,-424.75 178.75,-424.75 178.75,-430.75 172.75,-436.75 166.75,-436.75 166.75,-436.75 82.5,-436.75 82.5,-436.75 76.5,-436.75 70.5,-430.75 70.5,-424.75 70.5,-424.75 70.5,-381.75 70.5,-381.75 70.5,-375.75 76.5,-369.75 82.5,-369.75"/>
</g>
<!-- Entry&#45;&gt;Draft -->
<g id="edge1" class="edge">
<title>Entry&#45;&gt;Draft</title>
<path fill="none" stroke="red" d="M124.62,-473.5C124.62,-467.52 124.62,-458.07 124.62,-448.05"/>
<polygon fill="red" stroke="red" points="128.13,-448.16 124.63,-438.16 121.13,-448.16 128.13,-448.16"/>
</g>
<!-- Review1 -->
<g id="node3" class="node">
<title>Review1</title>
<path fill="azure" stroke="none" d="M129.25,-317.25C129.25,-317.25 12,-317.25 12,-317.25 6,-317.25 0,-311.25 0,-305.25 0,-305.25 0,-251 0,-251 0,-245 6,-239 12,-239 12,-239 129.25,-239 129.25,-239 135.25,-239 141.25,-245 141.25,-251 141.25,-251 141.25,-305.25 141.25,-305.25 141.25,-311.25 135.25,-317.25 129.25,-317.25"/>
<text xml:space="preserve" text-anchor="start" x="46.25" y="-296.95" font-family="Times,serif" font-weight="bold" font-size="14.00">Review1</text>
<text xml:space="preserve" text-anchor="start" x="8" y="-271.75" font-family="Times,serif" font-size="10.00"> &#160;&#160;&#160;&#160;&#160;&#160;&#160;&#160;&#160;&#160;&#160;&#160;&#160;&#160;&#160;approve(reviewer: str)</text>
<text xml:space="preserve" text-anchor="start" x="8" y="-260.5" font-family="Times,serif" font-size="10.00"> &#160;&#160;&#160;&#160;&#160;&#160;&#160;&#160;&#160;&#160;&#160;&#160;&#160;&#160;&#160;reject(reviewer: str)</text>
<text xml:space="preserve" text-anchor="start" x="24.5" y="-249.25" font-family="Times,serif" font-size="10.00"> &#160;&#160;&#160;&#160;&#160;&#160;&#160;&#160;&#160;&#160;&#160;&#160;&#160;&#160;&#160;status() &#160;&#160;&#160;&#160;&#160;&#160;&#160;&#160;&#160;&#160;&#160;</text>
<polygon fill="#00688b" stroke="#00688b" points="0,-286.75 0,-286.75 141.25,-286.75 141.25,-286.75 0,-286.75"/>
<path fill="none" stroke="#00688b" d="M12,-239C12,-239 129.25,-239 129.25,-239 135.25,-239 141.25,-245 141.25,-251 141.25,-251 141.25,-305.25 141.25,-305.25 141.25,-311.25 135.25,-317.25 129.25,-317.25 129.25,-317.25 12,-317.25 12,-317.25 6,-317.25 0,-311.25 0,-305.25 0,-305.25 0,-251 0,-251 0,-245 6,-239 12,-239"/>
</g>
<!-- Draft&#45;&gt;Review1 -->
<g id="edge2" class="edge">
<title>Draft&#45;&gt;Review1</title>
<path fill="none" stroke="red" d="M70.92,-369.75C65.59,-364.4 60.94,-358.4 57.62,-351.75 54.01,-344.5 52.98,-336.41 53.47,-328.32"/>
<polygon fill="red" stroke="red" points="56.92,-328.88 54.85,-318.49 49.99,-327.91 56.92,-328.88"/>
<text xml:space="preserve" text-anchor="middle" x="80.12" y="-338.45" font-family="Times,serif" font-size="14.00"> submit </text>
</g>
<!-- Review1&#45;&gt;Draft -->
<g id="edge4" class="edge">
<title>Review1&#45;&gt;Draft</title>
<path fill="none" stroke="red" d="M93.71,-317.24C96.9,-323.17 99.99,-329.3 102.62,-335.25 106.01,-342.87 109.14,-351.17 111.93,-359.25"/>
<polygon fill="red" stroke="red" points="108.56,-360.23 115.02,-368.62 115.21,-358.03 108.56,-360.23"/>
<text xml:space="preserve" text-anchor="middle" x="127.87" y="-338.45" font-family="Times,serif" font-size="14.00"> reject </text>
</g>
<!-- Review2 -->
<g id="node4" class="node">
<title>Review2</title>
<path fill="azure" stroke="none" d="M183.25,-186.5C183.25,-186.5 66,-186.5 66,-186.5 60,-186.5 54,-180.5 54,-174.5 54,-174.5 54,-120.25 54,-120.25 54,-114.25 60,-108.25 66,-108.25 66,-108.25 183.25,-108.25 183.25,-108.25 189.25,-108.25 195.25,-114.25 195.25,-120.25 195.25,-120.25 195.25,-174.5 195.25,-174.5 195.25,-180.5 189.25,-186.5 183.25,-186.5"/>
<text xml:space="preserve" text-anchor="start" x="100.25" y="-166.2" font-family="Times,serif" font-weight="bold" font-size="14.00">Review2</text>
<text xml:space="preserve" text-anchor="start" x="62" y="-141" font-family="Times,serif" font-size="10.00"> &#160;&#160;&#160;&#160;&#160;&#160;&#160;&#160;&#160;&#160;&#160;&#160;&#160;&#160;&#160;approve(reviewer: str)</text>
<text xml:space="preserve" text-anchor="start" x="62" y="-129.75" font-family="Times,serif" font-size="10.00"> &#160;&#160;&#160;&#160;&#160;&#160;&#160;&#160;&#160;&#160;&#160;&#160;&#160;&#160;&#160;reject(reviewer: str)</text>
<text xml:space="preserve" text-anchor="start" x="78.5" y="-118.5" font-family="Times,serif" font-size="10.00"> &#160;&#160;&#160;&#160;&#160;&#160;&#160;&#160;&#160;&#160;&#160;&#160;&#160;&#160;&#160;status() &#160;&#160;&#160;&#160;&#160;&#160;&#160;&#160;&#160;&#160;&#160;</text>
<polygon fill="#00688b" stroke="#00688b" points="54,-156 54,-156 195.25,-156 195.25,-156 54,-156"/>
<path fill="none" stroke="#00688b" d="M66,-108.25C66,-108.25 183.25,-108.25 183.25,-108.25 189.25,-108.25 195.25,-114.25 195.25,-120.25 195.25,-120.25 195.25,-174.5 195.25,-174.5 195.25,-180.5 189.25,-186.5 183.25,-186.5 183.25,-186.5 66,-186.5 66,-186.5 60,-186.5 54,-180.5 54,-174.5 54,-174.5 54,-120.25 54,-120.25 54,-114.25 60,-108.25 66,-108.25"/>
</g>
<!-- Review1&#45;&gt;Review2 -->
<g id="edge3" class="edge">
<title>Review1&#45;&gt;Review2</title>
<path fill="none" stroke="red" d="M86.53,-239.19C92.09,-225.95 98.4,-210.91 104.26,-196.92"/>
<polygon fill="red" stroke="red" points="107.42,-198.45 108.06,-187.88 100.96,-195.75 107.42,-198.45"/>
<text xml:space="preserve" text-anchor="middle" x="126.36" y="-207.7" font-family="Times,serif" font-size="14.00"> approve </text>
</g>
<!-- Review2&#45;&gt;Draft -->
<g id="edge6" class="edge">
<title>Review2&#45;&gt;Draft</title>
<path fill="none" stroke="red" d="M148.83,-186.25C151.63,-192.17 154.04,-198.36 155.62,-204.5 171.97,-267.91 167.26,-288.42 150.62,-351.75 149.95,-354.33 149.13,-356.92 148.19,-359.5"/>
<polygon fill="red" stroke="red" points="145.04,-357.97 144.44,-368.54 151.51,-360.65 145.04,-357.97"/>
<text xml:space="preserve" text-anchor="middle" x="184.51" y="-273.07" font-family="Times,serif" font-size="14.00"> reject </text>
</g>
<!-- Published -->
<g id="node5" class="node">
<title>Published</title>
<path fill="azure" stroke="none" d="M166.75,-55.75C166.75,-55.75 82.5,-55.75 82.5,-55.75 76.5,-55.75 70.5,-49.75 70.5,-43.75 70.5,-43.75 70.5,-12 70.5,-12 70.5,-6 76.5,0 82.5,0 82.5,0 166.75,0 166.75,0 172.75,0 178.75,-6 178.75,-12 178.75,-12 178.75,-43.75 178.75,-43.75 178.75,-49.75 172.75,-55.75 166.75,-55.75"/>
<text xml:space="preserve" text-anchor="start" x="96.12" y="-35.45" font-family="Times,serif" font-weight="bold" font-size="14.00">Published</text>
<text xml:space="preserve" text-anchor="start" x="78.5" y="-10.25" font-family="Times,serif" font-size="10.00"> &#160;&#160;&#160;&#160;&#160;&#160;&#160;&#160;&#160;&#160;&#160;&#160;&#160;&#160;&#160;status() &#160;&#160;&#160;&#160;&#160;&#160;&#160;&#160;&#160;&#160;&#160;</text>
<polygon fill="#00688b" stroke="#00688b" points="70.5,-25.25 70.5,-25.25 178.75,-25.25 178.75,-25.25 70.5,-25.25"/>
<path fill="none" stroke="#00688b" d="M82.5,0C82.5,0 166.75,0 166.75,0 172.75,0 178.75,-6 178.75,-12 178.75,-12 178.75,-43.75 178.75,-43.75 178.75,-49.75 172.75,-55.75 166.75,-55.75 166.75,-55.75 82.5,-55.75 82.5,-55.75 76.5,-55.75 70.5,-49.75 70.5,-43.75 70.5,-43.75 70.5,-12 70.5,-12 70.5,-6 76.5,0 82.5,0"/>
</g>
<!-- Review2&#45;&gt;Published -->
<g id="edge5" class="edge">
<title>Review2&#45;&gt;Published</title>
<path fill="none" stroke="red" d="M124.62,-108.55C124.62,-95.16 124.62,-80.11 124.62,-66.72"/>
<polygon fill="red" stroke="red" points="128.13,-66.98 124.63,-56.98 121.13,-66.98 128.13,-66.98"/>
<text xml:space="preserve" text-anchor="middle" x="150.12" y="-76.95" font-family="Times,serif" font-size="14.00"> approve </text>
</g>
</g>
</svg>
