<?xml version="1.0" encoding="UTF-8" standalone="no"?>
<!DOCTYPE svg PUBLIC "-//W3C//DTD SVG 1.1//EN"
 "http://www.w3.org/Graphics/SVG/1.1/DTD/svg11.dtd">
<!-- Generated by graphviz version 14.1.5 (20260411.2331)
 -->
<!-- Title: ApprovalChain Pages: 1 -->
<svg width="181pt" height="541pt"
 viewBox="0.00 0.00 181.00 541.00" xmlns="http://www.w3.org/2000/svg" xmlns:xlink="http://www.w3.org/1999/xlink">
<g id="graph0" class="graph" transform="scale(1 1) rotate(0) translate(4 537.15)">
<title>ApprovalChain</title>
<polygon fill="white" stroke="none" points="-4,4 -4,-537.15 176.88,-537.15 176.88,4 -4,4"/>
<!-- Entry -->
<g id="node1" class="node">
<title>Entry</title>
<ellipse fill="black" stroke="#00688b" cx="88.62" cy="-525.95" rx="7.2" ry="7.2"/>
</g>
<!-- Draft -->
<g id="node2" class="node">
<title>Draft</title>
<path fill="azure" stroke="none" d="M103.62,-481.75C103.62,-481.75 73.62,-481.75 73.62,-481.75 67.62,-481.75 61.62,-475.75 61.62,-469.75 61.62,-469.75 61.62,-415.5 61.62,-415.5 61.62,-409.5 67.62,-403.5 73.62,-403.5 73.62,-403.5 103.62,-403.5 103.62,-403.5 109.62,-403.5 115.62,-409.5 115.62,-415.5 115.62,-415.5 115.62,-469.75 115.62,-469.75 115.62,-475.75 109.62,-481.75 103.62,-481.75"/>
<text xml:space="preserve" text-anchor="start" x="72.88" y="-461.45" font-family="Times,serif" font-weight="bold" font-size="14.00">Draft</text>
<text xml:space="preserve" text-anchor="start" x="71.75" y="-436.25" font-family="Times,serif" font-size="10.00">submit()</text>
<text xml:space="preserve" text-anchor="start" x="71.75" y="-425" font-family="Times,serif" font-size="10.00">status()</text>
<text xml:space="preserve" text-anchor="start" x="75.12" y="-413.75" font-family="Times,serif" font-size="10.00"> &#160;&#160;&#160;&#160;&#160;&#160;&#160;&#160;&#160;&#160;&#160;</text>
<polygon fill="#00688b" stroke="#00688b" points="63.75,-451.25 63.75,-451.25 113.5,-451.25 113.5,-451.25 63.75,-451.25"/>
<path fill="none" stroke="#00688b" d="M75.75,-403.5C75.75,-403.5 101.5,-403.5 101.5,-403.5 107.5,-403.5 113.5,-409.5 113.5,-415.5 113.5,-415.5 113.5,-469.75 113.5,-469.75 113.5,-475.75 107.5,-481.75 101.5,-481.75 101.5,-481.75 75.75,-481.75 75.75,-481.75 69.75,-481.75 63.75,-475.75 63.75,-469.75 63.75,-469.75 63.75,-415.5 63.75,-415.5 63.75,-409.5 69.75,-403.5 75.75,-403.5"/>
</g>
<!-- Entry&#45;&gt;Draft -->
<g id="edge1" class="edge">
<title>Entry&#45;&gt;Draft</title>
<path fill="none" stroke="red" d="M88.62,-518.29C88.62,-512.28 88.62,-502.82 88.62,-492.63"/>
<polygon fill="red" stroke="red" points="92.13,-492.94 88.63,-482.94 85.13,-492.94 92.13,-492.94"/>
</g>
<!-- Review1 -->
<g id="node3" class="node">
<title>Review1</title>
<path fill="azure" stroke="none" d="M93.25,-351C93.25,-351 12,-351 12,-351 6,-351 0,-345 0,-339 0,-339 0,-273.5 0,-273.5 0,-267.5 6,-261.5 12,-261.5 12,-261.5 93.25,-261.5 93.25,-261.5 99.25,-261.5 105.25,-267.5 105.25,-273.5 105.25,-273.5 105.25,-339 105.25,-339 105.25,-345 99.25,-351 93.25,-351"/>
<text xml:space="preserve" text-anchor="start" x="28.25" y="-330.7" font-family="Times,serif" font-weight="bold" font-size="14.00">Review1</text>
<text xml:space="preserve" text-anchor="start" x="8" y="-305.5" font-family="Times,serif" font-size="10.00">approve(reviewer: str)</text>
<text xml:space="preserve" text-anchor="start" x="8" y="-294.25" font-family="Times,serif" font-size="10.00">reject(reviewer: str)</text>
<text xml:space="preserve" text-anchor="start" x="8" y="-283" font-family="Times,serif" font-size="10.00">status()</text>
<text xml:space="preserve" text-anchor="start" x="39.12" y="-271.75" font-family="Times,serif" font-size="10.00"> &#160;&#160;&#160;&#160;&#160;&#160;&#160;&#160;&#160;&#160;&#160;</text>
<polygon fill="#00688b" stroke="#00688b" points="0,-320.5 0,-320.5 105.25,-320.5 105.25,-320.5 0,-320.5"/>
<path fill="none" stroke="#00688b" d="M12,-261.5C12,-261.5 93.25,-261.5 93.25,-261.5 99.25,-261.5 105.25,-267.5 105.25,-273.5 105.25,-273.5 105.25,-339 105.25,-339 105.25,-345 99.25,-351 93.25,-351 93.25,-351 12,-351 12,-351 6,-351 0,-345 0,-339 0,-339 0,-273.5 0,-273.5 0,-267.5 6,-261.5 12,-261.5"/>
</g>
<!-- Draft&#45;&gt;Review1 -->
<g id="edge2" class="edge">
<title>Draft&#45;&gt;Review1</title>
<path fill="none" stroke="red" d="M61.63,-426.99C46.85,-417.35 29.9,-403.24 21.62,-385.5 18.06,-377.85 17.67,-369.67 19.22,-361.59"/>
<polygon fill="red" stroke="red" points="22.54,-362.73 21.99,-352.14 15.82,-360.76 22.54,-362.73"/>
<text xml:space="preserve" text-anchor="middle" x="44.12" y="-372.2" font-family="Times,serif" font-size="14.00"> submit </text>
</g>
<!-- Review1&#45;&gt;Draft -->
<g id="edge4" class="edge">
<title>Review1&#45;&gt;Draft</title>
<path fill="none" stroke="red" d="M64.32,-350.92C67.93,-364.39 71.93,-379.3 75.62,-393.08"/>
<polygon fill="red" stroke="red" points="72.14,-393.62 78.11,-402.37 78.9,-391.81 72.14,-393.62"/>
<text xml:space="preserve" text-anchor="middle" x="91.53" y="-372.2" font-family="Times,serif" font-size="14.00"> reject </text>
</g>
<!-- Review2 -->
<g id="node4" class="node">
<title>Review2</title>
<path fill="azure" stroke="none" d="M138.25,-209C138.25,-209 57,-209 57,-209 51,-209 45,-203 45,-197 45,-197 45,-131.5 45,-131.5 45,-125.5 51,-119.5 57,-119.5 57,-119.5 138.25,-119.5 138.25,-119.5 144.25,-119.5 150.25,-125.5 150.25,-131.5 150.25,-131.5 150.25,-197 150.25,-197 150.25,-203 144.25,-209 138.25,-209"/>
<text xml:space="preserve" text-anchor="start" x="73.25" y="-188.7" font-family="Times,serif" font-weight="bold" font-size="14.00">Review2</text>
<text xml:space="preserve" text-anchor="start" x="53" y="-163.5" font-family="Times,serif" font-size="10.00">approve(reviewer: str)</text>
<text xml:space="preserve" text-anchor="start" x="53" y="-152.25" font-family="Times,serif" font-size="10.00">reject(reviewer: str)</text>
<text xml:space="preserve" text-anchor="start" x="53" y="-141" font-family="Times,serif" font-size="10.00">status()</text>
<text xml:space="preserve" text-anchor="start" x="84.12" y="-129.75" font-family="Times,serif" font-size="10.00"> &#160;&#160;&#160;&#160;&#160;&#160;&#160;&#160;&#160;&#160;&#160;</text>
<polygon fill="#00688b" stroke="#00688b" points="45,-178.5 45,-178.5 150.25,-178.5 150.25,-178.5 45,-178.5"/>
<path fill="none" stroke="#00688b" d="M57,-119.5C57,-119.5 138.25,-119.5 138.25,-119.5 144.25,-119.5 150.25,-125.5 150.25,-131.5 150.25,-131.5 150.25,-197 150.25,-197 150.25,-203 144.25,-209 138.25,-209 138.25,-209 57,-209 57,-209 51,-209 45,-203 45,-197 45,-197 45,-131.5 45,-131.5 45,-125.5 51,-119.5 57,-119.5"/>
</g>
<!-- Review1&#45;&gt;Review2 -->
<g id="edge3" class="edge">
<title>Review1&#45;&gt;Review2</title>
<path fill="none" stroke="red" d="M65.72,-261.72C69.2,-250.39 73,-238.22 76.62,-227 77.43,-224.5 78.27,-221.95 79.12,-219.37"/>
<polygon fill="red" stroke="red" points="82.35,-220.74 82.18,-210.15 75.7,-218.54 82.35,-220.74"/>
<text xml:space="preserve" text-anchor="middle" x="102.12" y="-230.2" font-family="Times,serif" font-size="14.00"> approve </text>
</g>
<!-- Review2&#45;&gt;Draft -->
<g id="edge6" class="edge">
<title>Review2&#45;&gt;Draft</title>
<path fill="none" stroke="red" d="M121.77,-208.89C124.17,-214.83 126.24,-220.96 127.62,-227 143.47,-295.88 132.97,-317.24 114.62,-385.5 113.97,-387.94 113.21,-390.41 112.38,-392.88"/>
<polygon fill="red" stroke="red" points="109.11,-391.62 108.86,-402.22 115.66,-394.1 109.11,-391.62"/>
<text xml:space="preserve" text-anchor="middle" x="154.13" y="-301.2" font-family="Times,serif" font-size="14.00"> reject </text>
</g>
<!-- Published -->
<g id="node5" class="node">
<title>Published</title>
<path fill="azure" stroke="none" d="M122.12,-67C122.12,-67 73.12,-67 73.12,-67 67.12,-67 61.12,-61 61.12,-55 61.12,-55 61.12,-12 61.12,-12 61.12,-6 67.12,0 73.12,0 73.12,0 122.12,0 122.12,0 128.12,0 134.12,-6 134.12,-12 134.12,-12 134.12,-55 134.12,-55 134.12,-61 128.12,-67 122.12,-67"/>
<text xml:space="preserve" text-anchor="start" x="69.12" y="-46.7" font-family="Times,serif" font-weight="bold" font-size="14.00">Published</text>
<text xml:space="preserve" text-anchor="start" x="69.12" y="-21.5" font-family="Times,serif" font-size="10.00">status()</text>
<text xml:space="preserve" text-anchor="start" x="70.25" y="-10.25" font-family="Times,serif" font-size="10.00"> &#160;&#160;&#160;&#160;&#160;&#160;&#160;&#160;&#160;&#160;&#160;</text>
<polygon fill="#00688b" stroke="#00688b" points="61.12,-36.5 61.12,-36.5 134.12,-36.5 134.12,-36.5 61.12,-36.5"/>
<path fill="none" stroke="#00688b" d="M73.12,0C73.12,0 122.12,0 122.12,0 128.12,0 134.12,-6 134.12,-12 134.12,-12 134.12,-55 134.12,-55 134.12,-61 128.12,-67 122.12,-67 122.12,-67 73.12,-67 73.12,-67 67.12,-67 61.12,-61 61.12,-55 61.12,-55 61.12,-12 61.12,-12 61.12,-6 67.12,0 73.12,0"/>
</g>
<!-- Review2&#45;&gt;Published -->
<g id="edge5" class="edge">
<title>Review2&#45;&gt;Published</title>
<path fill="none" stroke="red" d="M97.62,-119.66C97.62,-106.23 97.62,-91.45 97.62,-78.03"/>
<polygon fill="red" stroke="red" points="101.13,-78.16 97.63,-68.16 94.13,-78.16 101.13,-78.16"/>
<text xml:space="preserve" text-anchor="middle" x="123.12" y="-88.2" font-family="Times,serif" font-size="14.00"> approve </text>
</g>
</g>
</svg>
