<?xml version="1.0" encoding="UTF-8" standalone="no"?>
<!DOCTYPE svg PUBLIC "-//W3C//DTD SVG 1.1//EN"
 "http://www.w3.org/Graphics/SVG/1.1/DTD/svg11.dtd">
<!-- Generated by graphviz version 14.1.5 (20260411.2331)
 -->
<!-- Title: ApprovalChain Pages: 1 -->
<svg width="259pt" height="337pt"
 viewBox="0.00 0.00 259.00 337.00" xmlns="http://www.w3.org/2000/svg" xmlns:xlink="http://www.w3.org/1999/xlink">
<g id="graph0" class="graph" transform="scale(1 1) rotate(0) translate(4 332.5)">
<title>ApprovalChain</title>
<polygon fill="white" stroke="none" points="-4,4 -4,-332.5 255.25,-332.5 255.25,4 -4,4"/>
<!-- Entry -->
<g id="node1" class="node">
<title>Entry</title>
<ellipse fill="black" stroke="#00688b" cx="11.62" cy="-158.62" rx="7.2" ry="7.2"/>
</g>
<!-- Draft -->
<g id="node2" class="node">
<title>Draft</title>
<path fill="azure" stroke="none" d="M96.75,-67C96.75,-67 12.5,-67 12.5,-67 6.5,-67 0.5,-61 0.5,-55 0.5,-55 0.5,-12 0.5,-12 0.5,-6 6.5,0 12.5,0 12.5,0 96.75,0 96.75,0 102.75,0 108.75,-6 108.75,-12 108.75,-12 108.75,-55 108.75,-55 108.75,-61 102.75,-67 96.75,-67"/>
<text xml:space="preserve" text-anchor="start" x="38.88" y="-46.7" font-family="Times,serif" font-weight="bold" font-size="14.00">Draft</text>
<text xml:space="preserve" text-anchor="start" x="19.75" y="-21.5" font-family="Times,serif" font-size="10.00"> &#160;&#160;&#160;&#160;&#160;&#160;&#160;&#160;&#160;&#160;&#160;&#160;&#160;&#160;&#160;submit()</text>
<text xml:space="preserve" text-anchor="start" x="8.5" y="-10.25" font-family="Times,serif" font-size="10.00"> &#160;&#160;&#160;&#160;&#160;&#160;&#160;&#160;&#160;&#160;&#160;&#160;&#160;&#160;&#160;status() &#160;&#160;&#160;&#160;&#160;&#160;&#160;&#160;&#160;&#160;&#160;</text>
<polygon fill="#00688b" stroke="#00688b" points="0.5,-36.5 0.5,-36.5 108.75,-36.5 108.75,-36.5 0.5,-36.5"/>
<path fill="none" stroke="#00688b" d="M12.5,0C12.5,0 96.75,0 96.75,0 102.75,0 108.75,-6 108.75,-12 108.75,-12 108.75,-55 108.75,-55 108.75,-61 102.75,-67 96.75,-67 96.75,-67 12.5,-67 12.5,-67 6.5,-67 0.5,-61 0.5,-55 0.5,-55 0.5,-12 0.5,-12 0.5,-6 6.5,0 12.5,0"/>
</g>
<!-- Entry&#45;&gt;Draft -->
<g id="edge1" class="edge">
<title>Entry&#45;&gt;Draft</title>
<path fill="none" stroke="red" d="M13.82,-151.35C18.55,-137.81 30.06,-104.85 39.65,-77.38"/>
<polygon fill="red" stroke="red" points="42.86,-78.81 42.85,-68.21 36.25,-76.5 42.86,-78.81"/>
</g>
<!-- Review1 -->
<g id="node3" class="node">
<title>Review1</title>
<path fill="azure" stroke="none" d="M129.25,-328.5C129.25,-328.5 12,-328.5 12,-328.5 6,-328.5 0,-322.5 0,-316.5 0,-316.5 0,-262.25 0,-262.25 0,-256.25 6,-250.25 12,-250.25 12,-250.25 129.25,-250.25 129.25,-250.25 135.25,-250.25 141.25,-256.25 141.25,-262.25 141.25,-262.25 141.25,-316.5 141.25,-316.5 141.25,-322.5 135.25,-328.5 129.25,-328.5"/>
<text xml:space="preserve" text-anchor="start" x="46.25" y="-308.2" font-family="Times,serif" font-weight="bold" font-size="14.00">Review1</text>
<text xml:space="preserve" text-anchor="start" x="8" y="-283" font-family="Times,serif" font-size="10.00"> &#160;&#160;&#160;&#160;&#160;&#160;&#160;&#160;&#160;&#160;&#160;&#160;&#160;&#160;&#160;approve(reviewer: str)</text>
<text xml:space="preserve" text-anchor="start" x="13.25" y="-271.75" font-family="Times,serif" font-size="10.00"> &#160;&#160;&#160;&#160;&#160;&#160;&#160;&#160;&#160;&#160;&#160;&#160;&#160;&#160;&#160;reject(reviewer: str)</text>
<text xml:space="preserve" text-anchor="start" x="24.5" y="-260.5" font-family="Times,serif" font-size="10.00"> &#160;&#160;&#160;&#160;&#160;&#160;&#160;&#160;&#160;&#160;&#160;&#160;&#160;&#160;&#160;status() &#160;&#160;&#160;&#160;&#160;&#160;&#160;&#160;&#160;&#160;&#160;</text>
<polygon fill="#00688b" stroke="#00688b" points="0,-298 0,-298 141.25,-298 141.25,-298 0,-298"/>
<path fill="none" stroke="#00688b" d="M12,-250.25C12,-250.25 129.25,-250.25 129.25,-250.25 135.25,-250.25 141.25,-256.25 141.25,-262.25 141.25,-262.25 141.25,-316.5 141.25,-316.5 141.25,-322.5 135.25,-328.5 129.25,-328.5 129.25,-328.5 12,-328.5 12,-328.5 6,-328.5 0,-322.5 0,-316.5 0,-316.5 0,-262.25 0,-262.25 0,-256.25 6,-250.25 12,-250.25"/>
</g>
<!-- Review1&#45;&gt;Draft -->
<g id="edge3" class="edge">
<title>Review1&#45;&gt;Draft</title>
<path fill="none" stroke="red" d="M67.23,-250.47C65.84,-234.25 64.29,-215.08 63.12,-197.75 60.4,-157.27 58.07,-111.1 56.54,-78.21"/>
<polygon fill="red" stroke="red" points="60.04,-78.07 56.08,-68.24 53.04,-78.39 60.04,-78.07"/>
<text xml:space="preserve" text-anchor="middle" x="81.88" y="-153.57" font-family="Times,serif" font-size="14.00"> reject </text>
</g>
<!-- Review2 -->
<g id="node4" class="node">
<title>Review2</title>
<path fill="azure" stroke="none" d="M239.25,-197.75C239.25,-197.75 122,-197.75 122,-197.75 116,-197.75 110,-191.75 110,-185.75 110,-185.75 110,-131.5 110,-131.5 110,-125.5 116,-119.5 122,-119.5 122,-119.5 239.25,-119.5 239.25,-119.5 245.25,-119.5 251.25,-125.5 251.25,-131.5 251.25,-131.5 251.25,-185.75 251.25,-185.75 251.25,-191.75 245.25,-197.75 239.25,-197.75"/>
<text xml:space="preserve" text-anchor="start" x="156.25" y="-177.45" font-family="Times,serif" font-weight="bold" font-size="14.00">Review2</text>
<text xml:space="preserve" text-anchor="start" x="118" y="-152.25" font-family="Times,serif" font-size="10.00"> &#160;&#160;&#160;&#160;&#160;&#160;&#160;&#160;&#160;&#160;&#160;&#160;&#160;&#160;&#160;approve(reviewer: str)</text>
<text xml:space="preserve" text-anchor="start" x="123.25" y="-141" font-family="Times,serif" font-size="10.00"> &#160;&#160;&#160;&#160;&#160;&#160;&#160;&#160;&#160;&#160;&#160;&#160;&#160;&#160;&#160;reject(reviewer: str)</text>
<text xml:space="preserve" text-anchor="start" x="134.5" y="-129.75" font-family="Times,serif" font-size="10.00"> &#160;&#160;&#160;&#160;&#160;&#160;&#160;&#160;&#160;&#160;&#160;&#160;&#160;&#160;&#160;status() &#160;&#160;&#160;&#160;&#160;&#160;&#160;&#160;&#160;&#160;&#160;</text>
<polygon fill="#00688b" stroke="#00688b" points="110,-167.25 110,-167.25 251.25,-167.25 251.25,-167.25 110,-167.25"/>
<path fill="none" stroke="#00688b" d="M122,-119.5C122,-119.5 239.25,-119.5 239.25,-119.5 245.25,-119.5 251.25,-125.5 251.25,-131.5 251.25,-131.5 251.25,-185.75 251.25,-185.75 251.25,-191.75 245.25,-197.75 239.25,-197.75 239.25,-197.75 122,-197.75 122,-197.75 116,-197.75 110,-191.75 110,-185.75 110,-185.75 110,-131.5 110,-131.5 110,-125.5 116,-119.5 122,-119.5"/>
</g>
<!-- Review1&#45;&gt;Review2 -->
<g id="edge2" class="edge">
<title>Review1&#45;&gt;Review2</title>
<path fill="none" stroke="red" d="M103.03,-250.44C114.9,-236.55 128.47,-220.68 140.9,-206.12"/>
<polygon fill="red" stroke="red" points="143.25,-208.76 147.08,-198.88 137.93,-204.21 143.25,-208.76"/>
<text xml:space="preserve" text-anchor="middle" x="157.71" y="-218.95" font-family="Times,serif" font-size="14.00"> approve </text>
</g>
<!-- Review2&#45;&gt;Draft -->
<g id="edge5" class="edge">
<title>Review2&#45;&gt;Draft</title>
<path fill="none" stroke="red" d="M141.79,-119.68C127.15,-105.37 110.45,-89.06 95.62,-74.56"/>
<polygon fill="red" stroke="red" points="98.28,-72.26 88.68,-67.78 93.38,-77.27 98.28,-72.26"/>
<text xml:space="preserve" text-anchor="middle" x="140.15" y="-88.2" font-family="Times,serif" font-size="14.00"> reject </text>
</g>
<!-- Published -->
<g id="node5" class="node">
<title>Published</title>
<path fill="azure" stroke="none" d="M222.75,-61.38C222.75,-61.38 138.5,-61.38 138.5,-61.38 132.5,-61.38 126.5,-55.38 126.5,-49.38 126.5,-49.38 126.5,-17.62 126.5,-17.62 126.5,-11.62 132.5,-5.62 138.5,-5.62 138.5,-5.62 222.75,-5.62 222.75,-5.62 228.75,-5.62 234.75,-11.62 234.75,-17.62 234.75,-17.62 234.75,-49.38 234.75,-49.38 234.75,-55.38 228.75,-61.38 222.75,-61.38"/>
<text xml:space="preserve" text-anchor="start" x="152.12" y="-41.08" font-family="Times,serif" font-weight="bold" font-size="14.00">Published</text>
<text xml:space="preserve" text-anchor="start" x="134.5" y="-15.88" font-family="Times,serif" font-size="10.00"> &#160;&#160;&#160;&#160;&#160;&#160;&#160;&#160;&#160;&#160;&#160;&#160;&#160;&#160;&#160;status() &#160;&#160;&#160;&#160;&#160;&#160;&#160;&#160;&#160;&#160;&#160;</text>
<polygon fill="#00688b" stroke="#00688b" points="126.5,-30.88 126.5,-30.88 234.75,-30.88 234.75,-30.88 126.5,-30.88"/>
<path fill="none" stroke="#00688b" d="M138.5,-5.62C138.5,-5.62 222.75,-5.62 222.75,-5.62 228.75,-5.62 234.75,-11.62 234.75,-17.62 234.75,-17.62 234.75,-49.38 234.75,-49.38 234.75,-55.38 228.75,-61.38 222.75,-61.38 222.75,-61.38 138.5,-61.38 138.5,-61.38 132.5,-61.38 126.5,-55.38 126.5,-49.38 126.5,-49.38 126.5,-17.62 126.5,-17.62 126.5,-11.62 132.5,-5.62 138.5,-5.62"/>
</g>
<!-- Review2&#45;&gt;Published -->
<g id="edge4" class="edge">
<title>Review2&#45;&gt;Published</title>
<path fill="none" stroke="red" d="M180.62,-119.68C180.62,-104.74 180.62,-87.61 180.62,-72.65"/>
<polygon fill="red" stroke="red" points="184.13,-72.71 180.63,-62.71 177.13,-72.71 184.13,-72.71"/>
<text xml:space="preserve" text-anchor="middle" x="206.12" y="-88.2" font-family="Times,serif" font-size="14.00"> approve </text>
</g>
</g>
</svg>
