<?xml version="1.0" encoding="UTF-8" standalone="no"?>
<!DOCTYPE svg PUBLIC "-//W3C//DTD SVG 1.1//EN"
 "http://www.w3.org/Graphics/SVG/1.1/DTD/svg11.dtd">
<!-- Generated by graphviz version 14.1.5 (20260411.2331)
 -->
<!-- Title: ApprovalChain Pages: 1 -->
<svg width="181pt" height="496pt"
 viewBox="0.00 0.00 181.00 496.00" xmlns="http://www.w3.org/2000/svg" xmlns:xlink="http://www.w3.org/1999/xlink">
<g id="graph0" class="graph" transform="scale(1 1) rotate(0) translate(4 492.15)">
<title>ApprovalChain</title>
<polygon fill="white" stroke="none" points="-4,4 -4,-492.15 177.33,-492.15 177.33,4 -4,4"/>
<!-- Entry -->
<g id="node1" class="node">
<title>Entry</title>
<ellipse fill="black" stroke="#00688b" cx="88.62" cy="-480.95" rx="7.2" ry="7.2"/>
</g>
<!-- Draft -->
<g id="node2" class="node">
<title>Draft</title>
<path fill="azure" stroke="none" d="M112.75,-436.75C112.75,-436.75 64.5,-436.75 64.5,-436.75 58.5,-436.75 52.5,-430.75 52.5,-424.75 52.5,-424.75 52.5,-381.75 52.5,-381.75 52.5,-375.75 58.5,-369.75 64.5,-369.75 64.5,-369.75 112.75,-369.75 112.75,-369.75 118.75,-369.75 124.75,-375.75 124.75,-381.75 124.75,-381.75 124.75,-424.75 124.75,-424.75 124.75,-430.75 118.75,-436.75 112.75,-436.75"/>
<text xml:space="preserve" text-anchor="start" x="72.88" y="-416.45" font-family="Times,serif" font-weight="bold" font-size="14.00">Draft</text>
<text xml:space="preserve" text-anchor="start" x="60.5" y="-380.09" font-family="Times,serif" font-size="10.00">submit()</text>
<text xml:space="preserve" text-anchor="start" x="60.5" y="-368.84" font-family="Times,serif" font-size="10.00">status() &#160;&#160;&#160;&#160;&#160;&#160;&#160;&#160;&#160;&#160;&#160;</text>
<polygon fill="#00688b" stroke="#00688b" points="52.5,-406.25 52.5,-406.25 124.75,-406.25 124.75,-406.25 52.5,-406.25"/>
<path fill="none" stroke="#00688b" d="M64.5,-369.75C64.5,-369.75 112.75,-369.75 112.75,-369.75 118.75,-369.75 124.75,-375.75 124.75,-381.75 124.75,-381.75 124.75,-424.75 124.75,-424.75 124.75,-430.75 118.75,-436.75 112.75,-436.75 112.75,-436.75 64.5,-436.75 64.5,-436.75 58.5,-436.75 52.5,-430.75 52.5,-424.75 52.5,-424.75 52.5,-381.75 52.5,-381.75 52.5,-375.75 58.5,-369.75 64.5,-369.75"/>
</g>
<!-- Entry&#45;&gt;Draft -->
<g id="edge1" class="edge">
<title>Entry&#45;&gt;Draft</title>
<path fill="none" stroke="red" d="M88.62,-473.5C88.62,-467.52 88.62,-458.07 88.62,-448.05"/>
<polygon fill="red" stroke="red" points="92.13,-448.16 88.63,-438.16 85.13,-448.16 92.13,-448.16"/>
</g>
<!-- Review1 -->
<g id="node3" class="node">
<title>Review1</title>
<path fill="azure" stroke="none" d="M93.25,-317.25C93.25,-317.25 12,-317.25 12,-317.25 6,-317.25 0,-311.25 0,-305.25 0,-305.25 0,-251 0,-251 0,-245 6,-239 12,-239 12,-239 93.25,-239 93.25,-239 99.25,-239 105.25,-245 105.25,-251 105.25,-251 105.25,-305.25 105.25,-305.25 105.25,-311.25 99.25,-317.25 93.25,-317.25"/>
<text xml:space="preserve" text-anchor="start" x="28.25" y="-296.95" font-family="Times,serif" font-weight="bold" font-size="14.00">Review1</text>
<text xml:space="preserve" text-anchor="start" x="8" y="-260.59" font-family="Times,serif" font-size="10.00">approve(reviewer: str)</text>
<text xml:space="preserve" text-anchor="start" x="8" y="-249.34" font-family="Times,serif" font-size="10.00">reject(reviewer: str)</text>
<text xml:space="preserve" text-anchor="start" x="24.5" y="-238.09" font-family="Times,serif" font-size="10.00">status() &#160;&#160;&#160;&#160;&#160;&#160;&#160;&#160;&#160;&#160;&#160;</text>
<polygon fill="#00688b" stroke="#00688b" points="0,-286.75 0,-286.75 105.25,-286.75 105.25,-286.75 0,-286.75"/>
<path fill="none" stroke="#00688b" d="M12,-239C12,-239 93.25,-239 93.25,-239 99.25,-239 105.25,-245 105.25,-251 105.25,-251 105.25,-305.25 105.25,-305.25 105.25,-311.25 99.25,-317.25 93.25,-317.25 93.25,-317.25 12,-317.25 12,-317.25 6,-317.25 0,-311.25 0,-305.25 0,-305.25 0,-251 0,-251 0,-245 6,-239 12,-239"/>
</g>
<!-- Draft&#45;&gt;Review1 -->
<g id="edge2" class="edge">
<title>Draft&#45;&gt;Review1</title>
<path fill="none" stroke="red" d="M52.61,-384.08C40.47,-375.97 28.32,-365.18 21.62,-351.75 17.84,-344.16 17.7,-335.99 19.65,-327.98"/>
<polygon fill="red" stroke="red" points="22.93,-329.22 22.98,-318.63 16.33,-326.88 22.93,-329.22"/>
<text xml:space="preserve" text-anchor="middle" x="44.12" y="-338.45" font-family="Times,serif" font-size="14.00"> submit </text>
</g>
<!-- Review1&#45;&gt;Draft -->
<g id="edge4" class="edge">
<title>Review1&#45;&gt;Draft</title>
<path fill="none" stroke="red" d="M63.68,-316.93C67.59,-330.3 72.01,-345.44 76.04,-359.21"/>
<polygon fill="red" stroke="red" points="72.58,-359.83 78.74,-368.45 79.29,-357.87 72.58,-359.83"/>
<text xml:space="preserve" text-anchor="middle" x="92.6" y="-338.45" font-family="Times,serif" font-size="14.00"> reject </text>
</g>
<!-- Review2 -->
<g id="node4" class="node">
<title>Review2</title>
<path fill="azure" stroke="none" d="M138.25,-186.5C138.25,-186.5 57,-186.5 57,-186.5 51,-186.5 45,-180.5 45,-174.5 45,-174.5 45,-120.25 45,-120.25 45,-114.25 51,-108.25 57,-108.25 57,-108.25 138.25,-108.25 138.25,-108.25 144.25,-108.25 150.25,-114.25 150.25,-120.25 150.25,-120.25 150.25,-174.5 150.25,-174.5 150.25,-180.5 144.25,-186.5 138.25,-186.5"/>
<text xml:space="preserve" text-anchor="start" x="73.25" y="-166.2" font-family="Times,serif" font-weight="bold" font-size="14.00">Review2</text>
<text xml:space="preserve" text-anchor="start" x="53" y="-129.84" font-family="Times,serif" font-size="10.00">approve(reviewer: str)</text>
<text xml:space="preserve" text-anchor="start" x="53" y="-118.59" font-family="Times,serif" font-size="10.00">reject(reviewer: str)</text>
<text xml:space="preserve" text-anchor="start" x="69.5" y="-107.34" font-family="Times,serif" font-size="10.00">status() &#160;&#160;&#160;&#160;&#160;&#160;&#160;&#160;&#160;&#160;&#160;</text>
<polygon fill="#00688b" stroke="#00688b" points="45,-156 45,-156 150.25,-156 150.25,-156 45,-156"/>
<path fill="none" stroke="#00688b" d="M57,-108.25C57,-108.25 138.25,-108.25 138.25,-108.25 144.25,-108.25 150.25,-114.25 150.25,-120.25 150.25,-120.25 150.25,-174.5 150.25,-174.5 150.25,-180.5 144.25,-186.5 138.25,-186.5 138.25,-186.5 57,-186.5 57,-186.5 51,-186.5 45,-180.5 45,-174.5 45,-174.5 45,-120.25 45,-120.25 45,-114.25 51,-108.25 57,-108.25"/>
</g>
<!-- Review1&#45;&gt;Review2 -->
<g id="edge3" class="edge">
<title>Review1&#45;&gt;Review2</title>
<path fill="none" stroke="red" d="M64.8,-239.34C68.51,-228.1 72.66,-215.77 76.62,-204.5 77.5,-202.02 78.41,-199.47 79.33,-196.91"/>
<polygon fill="red" stroke="red" points="82.53,-198.36 82.67,-187.76 75.95,-195.96 82.53,-198.36"/>
<text xml:space="preserve" text-anchor="middle" x="102.12" y="-207.7" font-family="Times,serif" font-size="14.00"> approve </text>
</g>
<!-- Review2&#45;&gt;Draft -->
<g id="edge6" class="edge">
<title>Review2&#45;&gt;Draft</title>
<path fill="none" stroke="red" d="M121.05,-186.32C123.76,-192.22 126.09,-198.39 127.62,-204.5 143.58,-268.19 134.48,-288.85 115.62,-351.75 114.85,-354.32 113.95,-356.91 112.94,-359.49"/>
<polygon fill="red" stroke="red" points="109.78,-357.98 108.94,-368.54 116.18,-360.81 109.78,-357.98"/>
<text xml:space="preserve" text-anchor="middle" x="154.58" y="-273.07" font-family="Times,serif" font-size="14.00"> reject </text>
</g>
<!-- Published -->
<g id="node5" class="node">
<title>Published</title>
<path fill="azure" stroke="none" d="M122.12,-55.75C122.12,-55.75 73.12,-55.75 73.12,-55.75 67.12,-55.75 61.12,-49.75 61.12,-43.75 61.12,-43.75 61.12,-12 61.12,-12 61.12,-6 67.12,0 73.12,0 73.12,0 122.12,0 122.12,0 128.12,0 134.12,-6 134.12,-12 134.12,-12 134.12,-43.75 134.12,-43.75 134.12,-49.75 128.12,-55.75 122.12,-55.75"/>
<text xml:space="preserve" text-anchor="start" x="69.12" y="-35.45" font-family="Times,serif" font-weight="bold" font-size="14.00">Published</text>
<text xml:space="preserve" text-anchor="start" x="69.12" y="0.91" font-family="Times,serif" font-size="10.00">status() &#160;&#160;&#160;&#160;&#160;&#160;&#160;&#160;&#160;&#160;&#160;</text>
<polygon fill="#00688b" stroke="#00688b" points="61.12,-25.25 61.12,-25.25 134.12,-25.25 134.12,-25.25 61.12,-25.25"/>
<path fill="none" stroke="#00688b" d="M73.12,0C73.12,0 122.12,0 122.12,0 128.12,0 134.12,-6 134.12,-12 134.12,-12 134.12,-43.75 134.12,-43.75 134.12,-49.75 128.12,-55.75 122.12,-55.75 122.12,-55.75 73.12,-55.75 73.12,-55.75 67.12,-55.75 61.12,-49.75 61.12,-43.75 61.12,-43.75 61.12,-12 61.12,-12 61.12,-6 67.12,0 73.12,0"/>
</g>
<!-- Review2&#45;&gt;Published -->
<g id="edge5" class="edge">
<title>Review2&#45;&gt;Published</title>
<path fill="none" stroke="red" d="M97.62,-108.55C97.62,-95.16 97.62,-80.11 97.62,-66.72"/>
<polygon fill="red" stroke="red" points="101.13,-66.98 97.63,-56.98 94.13,-66.98 101.13,-66.98"/>
<text xml:space="preserve" text-anchor="middle" x="123.12" y="-76.95" font-family="Times,serif" font-size="14.00"> approve </text>
</g>
</g>
</svg>
