<?xml version="1.0" encoding="UTF-8" standalone="no"?>
<!DOCTYPE svg PUBLIC "-//W3C//DTD SVG 1.1//EN"
 "http://www.w3.org/Graphics/SVG/1.1/DTD/svg11.dtd">
<!-- Generated by graphviz version 14.1.5 (20260411.2331)
 -->
<!-- Title: ApprovalChain Pages: 1 -->
<svg width="198pt" height="541pt"
 viewBox="0.00 0.00 198.00 541.00" xmlns="http://www.w3.org/2000/svg" xmlns:xlink="http://www.w3.org/1999/xlink">
<g id="graph0" class="graph" transform="scale(1 1) rotate(0) translate(4 537.15)">
<title>ApprovalChain</title>
<polygon fill="white" stroke="none" points="-4,4 -4,-537.15 193.79,-537.15 193.79,4 -4,4"/>
<!-- Entry -->
<g id="node1" class="node">
<title>Entry</title>
<ellipse fill="black" stroke="#00688b" cx="76.62" cy="-525.95" rx="7.2" ry="7.2"/>
</g>
<!-- Draft -->
<g id="node2" class="node">
<title>Draft</title>
<path fill="azure" stroke="none" d="M91.62,-481.75C91.62,-481.75 61.62,-481.75 61.62,-481.75 55.62,-481.75 49.62,-475.75 49.62,-469.75 49.62,-469.75 49.62,-415.5 49.62,-415.5 49.62,-409.5 55.62,-403.5 61.62,-403.5 61.62,-403.5 91.62,-403.5 91.62,-403.5 97.62,-403.5 103.62,-409.5 103.62,-415.5 103.62,-415.5 103.62,-469.75 103.62,-469.75 103.62,-475.75 97.62,-481.75 91.62,-481.75"/>
<text xml:space="preserve" text-anchor="start" x="60.88" y="-461.45" font-family="Times,serif" font-weight="bold" font-size="14.00">Draft</text>
<text xml:space="preserve" text-anchor="start" x="59.75" y="-436.25" font-family="Times,serif" font-size="10.00">submit()</text>
<text xml:space="preserve" text-anchor="start" x="59.75" y="-425" font-family="Times,serif" font-size="10.00">status()</text>
<text xml:space="preserve" text-anchor="start" x="63.12" y="-413.75" font-family="Times,serif" font-size="10.00"> &#160;&#160;&#160;&#160;&#160;&#160;&#160;&#160;&#160;&#160;&#160;</text>
<polygon fill="#00688b" stroke="#00688b" points="51.75,-451.25 51.75,-451.25 101.5,-451.25 101.5,-451.25 51.75,-451.25"/>
<path fill="none" stroke="#00688b" d="M63.75,-403.5C63.75,-403.5 89.5,-403.5 89.5,-403.5 95.5,-403.5 101.5,-409.5 101.5,-415.5 101.5,-415.5 101.5,-469.75 101.5,-469.75 101.5,-475.75 95.5,-481.75 89.5,-481.75 89.5,-481.75 63.75,-481.75 63.75,-481.75 57.75,-481.75 51.75,-475.75 51.75,-469.75 51.75,-469.75 51.75,-415.5 51.75,-415.5 51.75,-409.5 57.75,-403.5 63.75,-403.5"/>
</g>
<!-- Entry&#45;&gt;Draft -->
<g id="edge1" class="edge">
<title>Entry&#45;&gt;Draft</title>
<path fill="none" stroke="red" d="M76.62,-518.29C76.62,-512.28 76.62,-502.82 76.62,-492.63"/>
<polygon fill="red" stroke="red" points="80.13,-492.94 76.63,-482.94 73.13,-492.94 80.13,-492.94"/>
</g>
<!-- Review1 -->
<g id="node3" class="node">
<title>Review1</title>
<path fill="azure" stroke="none" d="M93.25,-351C93.25,-351 12,-351 12,-351 6,-351 0,-345 0,-339 0,-339 0,-273.5 0,-273.5 0,-267.5 6,-261.5 12,-261.5 12,-261.5 93.25,-261.5 93.25,-261.5 99.25,-261.5 105.25,-267.5 105.25,-273.5 105.25,-273.5 105.25,-339 105.25,-339 105.25,-345 99.25,-351 93.25,-351"/>
<text xml:space="preserve" text-anchor="start" x="28.25" y="-330.7" font-family="Times,serif" font-weight="bold" font-size="14.00">Review1</text>
<text xml:space="preserve" text-anchor="start" x="8" y="-305.5" font-family="Times,serif" font-size="10.00">approve(reviewer: str)</text>
<text xml:space="preserve" text-anchor="start" x="8" y="-294.25" font-family="Times,serif" font-size="10.00">reject(reviewer: str)</text>
<text xml:space="preserve" text-anchor="start" x="8" y="-283" font-family="Times,serif" font-size="10.00">status()</text>
<text xml:space="preserve" text-anchor="start" x="39.12" y="-271.75" font-family="Times,serif" font-size="10.00"> &#160;&#160;&#160;&#160;&#160;&#160;&#160;&#160;&#160;&#160;&#160;</text>
<polygon fill="#00688b" stroke="#00688b" points="0,-320.5 0,-320.5 105.25,-320.5 105.25,-320.5 0,-320.5"/>
<path fill="none" stroke="#00688b" d="M12,-261.5C12,-261.5 93.25,-261.5 93.25,-261.5 99.25,-261.5 105.25,-267.5 105.25,-273.5 105.25,-273.5 105.25,-339 105.25,-339 105.25,-345 99.25,-351 93.25,-351 93.25,-351 12,-351 12,-351 6,-351 0,-345 0,-339 0,-339 0,-273.5 0,-273.5 0,-267.5 6,-261.5 12,-261.5"/>
</g>
<!-- Draft&#45;&gt;Review1 -->
<g id="edge2" class="edge">
<title>Draft&#45;&gt;Review1</title>
<path fill="none" stroke="red" d="M49.63,-426.99C34.85,-417.35 17.9,-403.24 9.62,-385.5 5.89,-377.49 5.95,-369.17 8.3,-361.07"/>
<polygon fill="red" stroke="red" points="11.46,-362.58 12.01,-352 4.98,-359.93 11.46,-362.58"/>
<text xml:space="preserve" text-anchor="middle" x="32.12" y="-372.2" font-family="Times,serif" font-size="14.00"> submit </text>
</g>
<!-- Review1&#45;&gt;Draft -->
<g id="edge4" class="edge">
<title>Review1&#45;&gt;Draft</title>
<path fill="none" stroke="red" d="M60.42,-350.92C62.81,-364.26 65.44,-379.01 67.88,-392.67"/>
<polygon fill="red" stroke="red" points="64.41,-393.12 69.61,-402.35 71.3,-391.89 64.41,-393.12"/>
<text xml:space="preserve" text-anchor="middle" x="91.19" y="-372.2" font-family="Times,serif" font-size="14.00"> rejected </text>
</g>
<!-- Review2 -->
<g id="node4" class="node">
<title>Review2</title>
<path fill="azure" stroke="none" d="M137.25,-209C137.25,-209 56,-209 56,-209 50,-209 44,-203 44,-197 44,-197 44,-131.5 44,-131.5 44,-125.5 50,-119.5 56,-119.5 56,-119.5 137.25,-119.5 137.25,-119.5 143.25,-119.5 149.25,-125.5 149.25,-131.5 149.25,-131.5 149.25,-197 149.25,-197 149.25,-203 143.25,-209 137.25,-209"/>
<text xml:space="preserve" text-anchor="start" x="72.25" y="-188.7" font-family="Times,serif" font-weight="bold" font-size="14.00">Review2</text>
<text xml:space="preserve" text-anchor="start" x="52" y="-163.5" font-family="Times,serif" font-size="10.00">approve(reviewer: str)</text>
<text xml:space="preserve" text-anchor="start" x="52" y="-152.25" font-family="Times,serif" font-size="10.00">reject(reviewer: str)</text>
<text xml:space="preserve" text-anchor="start" x="52" y="-141" font-family="Times,serif" font-size="10.00">status()</text>
<text xml:space="preserve" text-anchor="start" x="83.12" y="-129.75" font-family="Times,serif" font-size="10.00"> &#160;&#160;&#160;&#160;&#160;&#160;&#160;&#160;&#160;&#160;&#160;</text>
<polygon fill="#00688b" stroke="#00688b" points="44,-178.5 44,-178.5 149.25,-178.5 149.25,-178.5 44,-178.5"/>
<path fill="none" stroke="#00688b" d="M56,-119.5C56,-119.5 137.25,-119.5 137.25,-119.5 143.25,-119.5 149.25,-125.5 149.25,-131.5 149.25,-131.5 149.25,-197 149.25,-197 149.25,-203 143.25,-209 137.25,-209 137.25,-209 56,-209 56,-209 50,-209 44,-203 44,-197 44,-197 44,-131.5 44,-131.5 44,-125.5 50,-119.5 56,-119.5"/>
</g>
<!-- Review1&#45;&gt;Review2 -->
<g id="edge3" class="edge">
<title>Review1&#45;&gt;Review2</title>
<path fill="none" stroke="red" d="M60.65,-261.8C63.18,-250.36 66.28,-238.12 69.88,-227 70.69,-224.47 71.58,-221.9 72.51,-219.31"/>
<polygon fill="red" stroke="red" points="75.73,-220.71 76.03,-210.12 69.19,-218.21 75.73,-220.71"/>
<text xml:space="preserve" text-anchor="middle" x="98.75" y="-230.2" font-family="Times,serif" font-size="14.00"> approved </text>
</g>
<!-- Review2&#45;&gt;Draft -->
<g id="edge6" class="edge">
<title>Review2&#45;&gt;Draft</title>
<path fill="none" stroke="red" d="M121.57,-208.83C124.05,-214.78 126.19,-220.93 127.62,-227 143.88,-295.61 145.27,-319.43 120.62,-385.5 118.04,-392.44 114.26,-399.19 109.98,-405.48"/>
<polygon fill="red" stroke="red" points="107.48,-402.98 104.35,-413.1 113.11,-407.14 107.48,-402.98"/>
<text xml:space="preserve" text-anchor="middle" x="164.66" y="-301.2" font-family="Times,serif" font-size="14.00"> rejected </text>
</g>
<!-- Published -->
<g id="node5" class="node">
<title>Published</title>
<path fill="azure" stroke="none" d="M121.12,-67C121.12,-67 72.12,-67 72.12,-67 66.12,-67 60.12,-61 60.12,-55 60.12,-55 60.12,-12 60.12,-12 60.12,-6 66.12,0 72.12,0 72.12,0 121.12,0 121.12,0 127.12,0 133.12,-6 133.12,-12 133.12,-12 133.12,-55 133.12,-55 133.12,-61 127.12,-67 121.12,-67"/>
<text xml:space="preserve" text-anchor="start" x="68.12" y="-46.7" font-family="Times,serif" font-weight="bold" font-size="14.00">Published</text>
<text xml:space="preserve" text-anchor="start" x="68.12" y="-21.5" font-family="Times,serif" font-size="10.00">status()</text>
<text xml:space="preserve" text-anchor="start" x="69.25" y="-10.25" font-family="Times,serif" font-size="10.00"> &#160;&#160;&#160;&#160;&#160;&#160;&#160;&#160;&#160;&#160;&#160;</text>
<polygon fill="#00688b" stroke="#00688b" points="60.12,-36.5 60.12,-36.5 133.12,-36.5 133.12,-36.5 60.12,-36.5"/>
<path fill="none" stroke="#00688b" d="M72.12,0C72.12,0 121.12,0 121.12,0 127.12,0 133.12,-6 133.12,-12 133.12,-12 133.12,-55 133.12,-55 133.12,-61 127.12,-67 121.12,-67 121.12,-67 72.12,-67 72.12,-67 66.12,-67 60.12,-61 60.12,-55 60.12,-55 60.12,-12 60.12,-12 60.12,-6 66.12,0 72.12,0"/>
</g>
<!-- Review2&#45;&gt;Published -->
<g id="edge5" class="edge">
<title>Review2&#45;&gt;Published</title>
<path fill="none" stroke="red" d="M96.62,-119.66C96.62,-106.23 96.62,-91.45 96.62,-78.03"/>
<polygon fill="red" stroke="red" points="100.13,-78.16 96.63,-68.16 93.13,-78.16 100.13,-78.16"/>
<text xml:space="preserve" text-anchor="middle" x="125.5" y="-88.2" font-family="Times,serif" font-size="14.00"> approved </text>
</g>
</g>
</svg>
