<?xml version="1.0" encoding="UTF-8" standalone="no"?>
<!DOCTYPE svg PUBLIC "-//W3C//DTD SVG 1.1//EN"
 "http://www.w3.org/Graphics/SVG/1.1/DTD/svg11.dtd">
<!-- Generated by graphviz version 14.1.5 (20260411.2331)
 -->
<!-- Title: StatementDisambiguator Pages: 1 -->
<svg width="451pt" height="649pt"
 viewBox="0.00 0.00 451.00 649.00" xmlns="http://www.w3.org/2000/svg" xmlns:xlink="http://www.w3.org/1999/xlink">
<g id="graph0" class="graph" transform="scale(1 1) rotate(0) translate(4 644.65)">
<title>StatementDisambiguator</title>
<polygon fill="white" stroke="none" points="-4,4 -4,-644.65 446.5,-644.65 446.5,4 -4,4"/>
<!-- Entry -->
<g id="node1" class="node">
<title>Entry</title>
<ellipse fill="black" stroke="#00688b" cx="374.5" cy="-633.45" rx="7.2" ry="7.2"/>
</g>
<!-- Ready -->
<g id="node2" class="node">
<title>Ready</title>
<path fill="azure" stroke="none" d="M430.5,-589.25C430.5,-589.25 318.5,-589.25 318.5,-589.25 312.5,-589.25 306.5,-583.25 306.5,-577.25 306.5,-577.25 306.5,-523 306.5,-523 306.5,-517 312.5,-511 318.5,-511 318.5,-511 430.5,-511 430.5,-511 436.5,-511 442.5,-517 442.5,-523 442.5,-523 442.5,-577.25 442.5,-577.25 442.5,-583.25 436.5,-589.25 430.5,-589.25"/>
<text xml:space="preserve" text-anchor="start" x="356.12" y="-568.95" font-family="Times,serif" font-weight="bold" font-size="14.00">Ready</text>
<text xml:space="preserve" text-anchor="start" x="314.5" y="-543.75" font-family="Times,serif" font-size="10.00">classify(tokens: list, start: int)</text>
<text xml:space="preserve" text-anchor="start" x="314.5" y="-532.5" font-family="Times,serif" font-size="10.00">tokens_consumed()</text>
<text xml:space="preserve" text-anchor="start" x="361" y="-521.25" font-family="Times,serif" font-size="10.00"> &#160;&#160;&#160;&#160;&#160;&#160;&#160;&#160;&#160;&#160;&#160;</text>
<polygon fill="#00688b" stroke="#00688b" points="306.5,-558.75 306.5,-558.75 442.5,-558.75 442.5,-558.75 306.5,-558.75"/>
<path fill="none" stroke="#00688b" d="M318.5,-511C318.5,-511 430.5,-511 430.5,-511 436.5,-511 442.5,-517 442.5,-523 442.5,-523 442.5,-577.25 442.5,-577.25 442.5,-583.25 436.5,-589.25 430.5,-589.25 430.5,-589.25 318.5,-589.25 318.5,-589.25 312.5,-589.25 306.5,-583.25 306.5,-577.25 306.5,-577.25 306.5,-523 306.5,-523 306.5,-517 312.5,-511 318.5,-511"/>
</g>
<!-- Entry&#45;&gt;Ready -->
<g id="edge1" class="edge">
<title>Entry&#45;&gt;Ready</title>
<path fill="none" stroke="red" d="M374.5,-625.79C374.5,-619.78 374.5,-610.32 374.5,-600.13"/>
<polygon fill="red" stroke="red" points="378,-600.44 374.5,-590.44 371,-600.44 378,-600.44"/>
</g>
<!-- SeenNothing -->
<g id="node3" class="node">
<title>SeenNothing</title>
<path fill="azure" stroke="none" d="M358.25,-458.5C358.25,-458.5 292.75,-458.5 292.75,-458.5 286.75,-458.5 280.75,-452.5 280.75,-446.5 280.75,-446.5 280.75,-403.5 280.75,-403.5 280.75,-397.5 286.75,-391.5 292.75,-391.5 292.75,-391.5 358.25,-391.5 358.25,-391.5 364.25,-391.5 370.25,-397.5 370.25,-403.5 370.25,-403.5 370.25,-446.5 370.25,-446.5 370.25,-452.5 364.25,-458.5 358.25,-458.5"/>
<text xml:space="preserve" text-anchor="start" x="288.75" y="-438.2" font-family="Times,serif" font-weight="bold" font-size="14.00">SeenNothing</text>
<text xml:space="preserve" text-anchor="start" x="288.75" y="-413" font-family="Times,serif" font-size="10.00">$&gt;()</text>
<text xml:space="preserve" text-anchor="start" x="288.75" y="-401.75" font-family="Times,serif" font-size="10.00"> &#160;&#160;&#160;&#160;&#160;&#160;&#160;&#160;&#160;&#160;&#160;</text>
<polygon fill="#00688b" stroke="#00688b" points="280.75,-428 280.75,-428 370.25,-428 370.25,-428 280.75,-428"/>
<path fill="none" stroke="#00688b" d="M292.75,-391.5C292.75,-391.5 358.25,-391.5 358.25,-391.5 364.25,-391.5 370.25,-397.5 370.25,-403.5 370.25,-403.5 370.25,-446.5 370.25,-446.5 370.25,-452.5 364.25,-458.5 358.25,-458.5 358.25,-458.5 292.75,-458.5 292.75,-458.5 286.75,-458.5 280.75,-452.5 280.75,-446.5 280.75,-446.5 280.75,-403.5 280.75,-403.5 280.75,-397.5 286.75,-391.5 292.75,-391.5"/>
</g>
<!-- Ready&#45;&gt;SeenNothing -->
<g id="edge2" class="edge">
<title>Ready&#45;&gt;SeenNothing</title>
<path fill="none" stroke="red" d="M355.58,-511.06C352.83,-505.07 350.13,-498.91 347.75,-493 344.67,-485.34 341.66,-477.07 338.92,-469.04"/>
<polygon fill="red" stroke="red" points="342.3,-468.14 335.82,-459.76 335.66,-470.36 342.3,-468.14"/>
<text xml:space="preserve" text-anchor="middle" x="372.12" y="-479.7" font-family="Times,serif" font-size="14.00"> classify </text>
</g>
<!-- SeenTypeIdent -->
<g id="node4" class="node">
<title>SeenTypeIdent</title>
<path fill="azure" stroke="none" d="M203,-339C203,-339 124,-339 124,-339 118,-339 112,-333 112,-327 112,-327 112,-284 112,-284 112,-278 118,-272 124,-272 124,-272 203,-272 203,-272 209,-272 215,-278 215,-284 215,-284 215,-327 215,-327 215,-333 209,-339 203,-339"/>
<text xml:space="preserve" text-anchor="start" x="120" y="-318.7" font-family="Times,serif" font-weight="bold" font-size="14.00">SeenTypeIdent</text>
<text xml:space="preserve" text-anchor="start" x="120" y="-293.5" font-family="Times,serif" font-size="10.00">$&gt;()</text>
<text xml:space="preserve" text-anchor="start" x="120" y="-282.25" font-family="Times,serif" font-size="10.00"> &#160;&#160;&#160;&#160;&#160;&#160;&#160;&#160;&#160;&#160;&#160;</text>
<polygon fill="#00688b" stroke="#00688b" points="112,-308.5 112,-308.5 215,-308.5 215,-308.5 112,-308.5"/>
<path fill="none" stroke="#00688b" d="M124,-272C124,-272 203,-272 203,-272 209,-272 215,-278 215,-284 215,-284 215,-327 215,-327 215,-333 209,-339 203,-339 203,-339 124,-339 124,-339 118,-339 112,-333 112,-327 112,-327 112,-284 112,-284 112,-278 118,-272 124,-272"/>
</g>
<!-- SeenNothing&#45;&gt;SeenTypeIdent -->
<g id="edge3" class="edge">
<title>SeenNothing&#45;&gt;SeenTypeIdent</title>
<path fill="none" stroke="red" d="M280.8,-391.58C261.15,-377.33 237.9,-360.46 217.3,-345.52"/>
<polygon fill="red" stroke="red" points="219.43,-342.74 209.28,-339.7 215.32,-348.41 219.43,-342.74"/>
<text xml:space="preserve" text-anchor="middle" x="265.45" y="-360.2" font-family="Times,serif" font-size="14.00"> $&gt; </text>
</g>
<!-- SeenPlainIdent -->
<g id="node6" class="node">
<title>SeenPlainIdent</title>
<path fill="azure" stroke="none" d="M324.38,-219.5C324.38,-219.5 244.62,-219.5 244.62,-219.5 238.62,-219.5 232.62,-213.5 232.62,-207.5 232.62,-207.5 232.62,-164.5 232.62,-164.5 232.62,-158.5 238.62,-152.5 244.62,-152.5 244.62,-152.5 324.38,-152.5 324.38,-152.5 330.38,-152.5 336.38,-158.5 336.38,-164.5 336.38,-164.5 336.38,-207.5 336.38,-207.5 336.38,-213.5 330.38,-219.5 324.38,-219.5"/>
<text xml:space="preserve" text-anchor="start" x="240.62" y="-199.2" font-family="Times,serif" font-weight="bold" font-size="14.00">SeenPlainIdent</text>
<text xml:space="preserve" text-anchor="start" x="240.62" y="-174" font-family="Times,serif" font-size="10.00">$&gt;()</text>
<text xml:space="preserve" text-anchor="start" x="240.62" y="-162.75" font-family="Times,serif" font-size="10.00"> &#160;&#160;&#160;&#160;&#160;&#160;&#160;&#160;&#160;&#160;&#160;</text>
<polygon fill="#00688b" stroke="#00688b" points="232.62,-189 232.62,-189 336.38,-189 336.38,-189 232.62,-189"/>
<path fill="none" stroke="#00688b" d="M244.62,-152.5C244.62,-152.5 324.38,-152.5 324.38,-152.5 330.38,-152.5 336.38,-158.5 336.38,-164.5 336.38,-164.5 336.38,-207.5 336.38,-207.5 336.38,-213.5 330.38,-219.5 324.38,-219.5 324.38,-219.5 244.62,-219.5 244.62,-219.5 238.62,-219.5 232.62,-213.5 232.62,-207.5 232.62,-207.5 232.62,-164.5 232.62,-164.5 232.62,-158.5 238.62,-152.5 244.62,-152.5"/>
</g>
<!-- SeenNothing&#45;&gt;SeenPlainIdent -->
<g id="edge4" class="edge">
<title>SeenNothing&#45;&gt;SeenPlainIdent</title>
<path fill="none" stroke="red" d="M319.89,-391.54C312.67,-349.82 300.11,-277.22 292.06,-230.68"/>
<polygon fill="red" stroke="red" points="295.52,-230.19 290.37,-220.94 288.63,-231.39 295.52,-230.19"/>
<text xml:space="preserve" text-anchor="middle" x="321.66" y="-300.45" font-family="Times,serif" font-size="14.00"> $&gt; </text>
</g>
<!-- Verdict -->
<g id="node7" class="node">
<title>Verdict</title>
<path fill="azure" stroke="none" d="M227.88,-100C227.88,-100 193.12,-100 193.12,-100 187.12,-100 181.12,-94 181.12,-88 181.12,-88 181.12,-12 181.12,-12 181.12,-6 187.12,0 193.12,0 193.12,0 227.88,0 227.88,0 233.88,0 239.88,-6 239.88,-12 239.88,-12 239.88,-88 239.88,-88 239.88,-94 233.88,-100 227.88,-100"/>
<text xml:space="preserve" text-anchor="start" x="189.12" y="-79.7" font-family="Times,serif" font-weight="bold" font-size="14.00">Verdict</text>
<text xml:space="preserve" text-anchor="start" x="189.12" y="-54.5" font-family="Times,serif" font-size="10.00">$&gt;()</text>
<text xml:space="preserve" text-anchor="start" x="189.12" y="-43.25" font-family="Times,serif" font-size="10.00"> &#160;&#160;&#160;&#160;&#160;&#160;&#160;&#160;&#160;&#160;&#160;</text>
<text xml:space="preserve" text-anchor="start" x="189.12" y="-20.75" font-family="Times,serif" font-size="9.00" fill="#666666">result: str</text>
<text xml:space="preserve" text-anchor="start" x="192.12" y="-10.25" font-family="Times,serif" font-size="9.00" fill="#666666"> &#160;&#160;&#160;&#160;&#160;&#160;&#160;&#160;&#160;&#160;&#160;</text>
<polygon fill="#00688b" stroke="#00688b" points="181.12,-69.5 181.12,-69.5 239.88,-69.5 239.88,-69.5 181.12,-69.5"/>
<polygon fill="#00688b" stroke="#00688b" points="181.12,-35 181.12,-35 239.88,-35 239.88,-35 181.12,-35"/>
<path fill="none" stroke="#00688b" d="M193.12,0C193.12,0 227.88,0 227.88,0 233.88,0 239.88,-6 239.88,-12 239.88,-12 239.88,-88 239.88,-88 239.88,-94 233.88,-100 227.88,-100 227.88,-100 193.12,-100 193.12,-100 187.12,-100 181.12,-94 181.12,-88 181.12,-88 181.12,-12 181.12,-12 181.12,-6 187.12,0 193.12,0"/>
</g>
<!-- SeenNothing&#45;&gt;Verdict -->
<g id="edge5" class="edge">
<title>SeenNothing&#45;&gt;Verdict</title>
<path fill="none" stroke="red" d="M337.98,-391.84C356.42,-338.84 384.77,-231.15 345.5,-152.5 325.64,-112.73 281.97,-84.47 249.64,-68.03"/>
<polygon fill="red" stroke="red" points="251.47,-65.03 240.95,-63.78 248.39,-71.32 251.47,-65.03"/>
<text xml:space="preserve" text-anchor="middle" x="376.49" y="-240.7" font-family="Times,serif" font-size="14.00"> $&gt; </text>
</g>
<!-- SeenTypeStar -->
<g id="node5" class="node">
<title>SeenTypeStar</title>
<path fill="azure" stroke="none" d="M85,-219.5C85,-219.5 12,-219.5 12,-219.5 6,-219.5 0,-213.5 0,-207.5 0,-207.5 0,-164.5 0,-164.5 0,-158.5 6,-152.5 12,-152.5 12,-152.5 85,-152.5 85,-152.5 91,-152.5 97,-158.5 97,-164.5 97,-164.5 97,-207.5 97,-207.5 97,-213.5 91,-219.5 85,-219.5"/>
<text xml:space="preserve" text-anchor="start" x="8" y="-199.2" font-family="Times,serif" font-weight="bold" font-size="14.00">SeenTypeStar</text>
<text xml:space="preserve" text-anchor="start" x="8" y="-174" font-family="Times,serif" font-size="10.00">$&gt;()</text>
<text xml:space="preserve" text-anchor="start" x="8" y="-162.75" font-family="Times,serif" font-size="10.00"> &#160;&#160;&#160;&#160;&#160;&#160;&#160;&#160;&#160;&#160;&#160;</text>
<polygon fill="#00688b" stroke="#00688b" points="0,-189 0,-189 97,-189 97,-189 0,-189"/>
<path fill="none" stroke="#00688b" d="M12,-152.5C12,-152.5 85,-152.5 85,-152.5 91,-152.5 97,-158.5 97,-164.5 97,-164.5 97,-207.5 97,-207.5 97,-213.5 91,-219.5 85,-219.5 85,-219.5 12,-219.5 12,-219.5 6,-219.5 0,-213.5 0,-207.5 0,-207.5 0,-164.5 0,-164.5 0,-158.5 6,-152.5 12,-152.5"/>
</g>
<!-- SeenTypeIdent&#45;&gt;SeenTypeStar -->
<g id="edge6" class="edge">
<title>SeenTypeIdent&#45;&gt;SeenTypeStar</title>
<path fill="none" stroke="red" d="M117.29,-272.24C110.19,-266.5 103.18,-260.32 97,-254 89.4,-246.23 82.06,-237.19 75.48,-228.32"/>
<polygon fill="red" stroke="red" points="78.48,-226.5 69.81,-220.42 72.8,-230.59 78.48,-226.5"/>
<text xml:space="preserve" text-anchor="middle" x="108.25" y="-240.7" font-family="Times,serif" font-size="14.00"> $&gt; </text>
</g>
<!-- SeenTypeIdent&#45;&gt;Verdict -->
<g id="edge7" class="edge">
<title>SeenTypeIdent&#45;&gt;Verdict</title>
<path fill="none" stroke="red" d="M153.33,-272.16C145.11,-240.97 136.62,-192.7 148,-152.5 153.56,-132.86 164.12,-113.28 174.99,-96.64"/>
<polygon fill="red" stroke="red" points="177.83,-98.7 180.55,-88.46 172.04,-94.77 177.83,-98.7"/>
<text xml:space="preserve" text-anchor="middle" x="159.25" y="-180.95" font-family="Times,serif" font-size="14.00"> $&gt; </text>
</g>
<!-- SeenTypeIdent&#45;&gt;Verdict -->
<g id="edge8" class="edge">
<title>SeenTypeIdent&#45;&gt;Verdict</title>
<path fill="none" stroke="red" d="M169.5,-272.14C177.02,-231.56 190.07,-161.2 199.42,-110.74"/>
<polygon fill="red" stroke="red" points="202.82,-111.61 201.2,-101.14 195.94,-110.34 202.82,-111.61"/>
<text xml:space="preserve" text-anchor="middle" x="202.92" y="-180.95" font-family="Times,serif" font-size="14.00"> $&gt; </text>
</g>
<!-- SeenTypeStar&#45;&gt;Verdict -->
<g id="edge9" class="edge">
<title>SeenTypeStar&#45;&gt;Verdict</title>
<path fill="none" stroke="red" d="M42.81,-152.72C42.41,-140.88 44.11,-127.96 51,-118 78.02,-78.94 132.52,-62.57 170.24,-55.76"/>
<polygon fill="red" stroke="red" points="170.57,-59.26 179.87,-54.19 169.43,-52.35 170.57,-59.26"/>
<text xml:space="preserve" text-anchor="middle" x="62.25" y="-121.2" font-family="Times,serif" font-size="14.00"> $&gt; </text>
</g>
<!-- SeenTypeStar&#45;&gt;Verdict -->
<g id="edge10" class="edge">
<title>SeenTypeStar&#45;&gt;Verdict</title>
<path fill="none" stroke="red" d="M67.81,-152.82C75.88,-141 85.96,-128.06 97,-118 119.01,-97.96 147.95,-80.98 171.1,-69.14"/>
<polygon fill="red" stroke="red" points="172.55,-72.33 179.93,-64.74 169.42,-66.06 172.55,-72.33"/>
<text xml:space="preserve" text-anchor="middle" x="108.25" y="-121.2" font-family="Times,serif" font-size="14.00"> $&gt; </text>
</g>
<!-- SeenPlainIdent&#45;&gt;Verdict -->
<g id="edge11" class="edge">
<title>SeenPlainIdent&#45;&gt;Verdict</title>
<path fill="none" stroke="red" d="M247.38,-152.52C242.37,-146.9 237.7,-140.81 234,-134.5 229.71,-127.18 226.18,-119.04 223.26,-110.8"/>
<polygon fill="red" stroke="red" points="226.64,-109.85 220.25,-101.4 219.97,-111.99 226.64,-109.85"/>
<text xml:space="preserve" text-anchor="middle" x="245.25" y="-121.2" font-family="Times,serif" font-size="14.00"> $&gt; </text>
</g>
<!-- SeenPlainIdent&#45;&gt;Verdict -->
<g id="edge12" class="edge">
<title>SeenPlainIdent&#45;&gt;Verdict</title>
<path fill="none" stroke="red" d="M272.56,-152.68C268.01,-141.46 262.47,-128.96 256.5,-118 253.34,-112.21 249.81,-106.29 246.13,-100.5"/>
<polygon fill="red" stroke="red" points="249.09,-98.62 240.69,-92.16 243.23,-102.45 249.09,-98.62"/>
<text xml:space="preserve" text-anchor="middle" x="275.75" y="-121.2" font-family="Times,serif" font-size="14.00"> $&gt; </text>
</g>
<!-- Verdict&#45;&gt;Ready -->
<g id="edge13" class="edge">
<title>Verdict&#45;&gt;Ready</title>
<path fill="none" stroke="red" d="M239.58,-56.41C295.05,-68.59 410.5,-103.71 410.5,-185 410.5,-426 410.5,-426 410.5,-426 410.5,-451.26 403.43,-478.31 395.56,-500.61"/>
<polygon fill="red" stroke="red" points="392.37,-499.13 392.18,-509.72 398.94,-501.56 392.37,-499.13"/>
<text xml:space="preserve" text-anchor="middle" x="421.75" y="-300.45" font-family="Times,serif" font-size="14.00"> $&gt; </text>
</g>
</g>
</svg>
