<?xml version="1.0" encoding="UTF-8" standalone="no"?>
<!DOCTYPE svg PUBLIC "-//W3C//DTD SVG 1.1//EN"
 "http://www.w3.org/Graphics/SVG/1.1/DTD/svg11.dtd">
<!-- Generated by graphviz version 14.1.5 (20260411.2331)
 -->
<!-- Title: StatementDisambiguator Pages: 1 -->
<svg width="506pt" height="649pt"
 viewBox="0.00 0.00 506.00 649.00" xmlns="http://www.w3.org/2000/svg" xmlns:xlink="http://www.w3.org/1999/xlink">
<g id="graph0" class="graph" transform="scale(1 1) rotate(0) translate(4 644.65)">
<title>StatementDisambiguator</title>
<polygon fill="white" stroke="none" points="-4,4 -4,-644.65 501.94,-644.65 501.94,4 -4,4"/>
<!-- Entry -->
<g id="node1" class="node">
<title>Entry</title>
<ellipse fill="black" stroke="#00688b" cx="427.94" cy="-633.45" rx="7.2" ry="7.2"/>
</g>
<!-- Ready -->
<g id="node2" class="node">
<title>Ready</title>
<path fill="azure" stroke="none" d="M483.94,-589.25C483.94,-589.25 371.94,-589.25 371.94,-589.25 365.94,-589.25 359.94,-583.25 359.94,-577.25 359.94,-577.25 359.94,-523 359.94,-523 359.94,-517 365.94,-511 371.94,-511 371.94,-511 483.94,-511 483.94,-511 489.94,-511 495.94,-517 495.94,-523 495.94,-523 495.94,-577.25 495.94,-577.25 495.94,-583.25 489.94,-589.25 483.94,-589.25"/>
<text xml:space="preserve" text-anchor="start" x="409.57" y="-568.95" font-family="Times,serif" font-weight="bold" font-size="14.00">Ready</text>
<text xml:space="preserve" text-anchor="start" x="367.94" y="-543.75" font-family="Times,serif" font-size="10.00">classify(tokens: list, start: int)</text>
<text xml:space="preserve" text-anchor="start" x="367.94" y="-532.5" font-family="Times,serif" font-size="10.00">tokens_consumed()</text>
<text xml:space="preserve" text-anchor="start" x="414.44" y="-521.25" font-family="Times,serif" font-size="10.00"> &#160;&#160;&#160;&#160;&#160;&#160;&#160;&#160;&#160;&#160;&#160;</text>
<polygon fill="#00688b" stroke="#00688b" points="359.94,-558.75 359.94,-558.75 495.94,-558.75 495.94,-558.75 359.94,-558.75"/>
<path fill="none" stroke="#00688b" d="M371.94,-511C371.94,-511 483.94,-511 483.94,-511 489.94,-511 495.94,-517 495.94,-523 495.94,-523 495.94,-577.25 495.94,-577.25 495.94,-583.25 489.94,-589.25 483.94,-589.25 483.94,-589.25 371.94,-589.25 371.94,-589.25 365.94,-589.25 359.94,-583.25 359.94,-577.25 359.94,-577.25 359.94,-523 359.94,-523 359.94,-517 365.94,-511 371.94,-511"/>
</g>
<!-- Entry&#45;&gt;Ready -->
<g id="edge1" class="edge">
<title>Entry&#45;&gt;Ready</title>
<path fill="none" stroke="red" d="M427.94,-625.79C427.94,-619.78 427.94,-610.32 427.94,-600.13"/>
<polygon fill="red" stroke="red" points="431.44,-600.44 427.94,-590.44 424.44,-600.44 431.44,-600.44"/>
</g>
<!-- SeenNothing -->
<g id="node3" class="node">
<title>SeenNothing</title>
<path fill="azure" stroke="none" d="M383.69,-458.5C383.69,-458.5 318.19,-458.5 318.19,-458.5 312.19,-458.5 306.19,-452.5 306.19,-446.5 306.19,-446.5 306.19,-403.5 306.19,-403.5 306.19,-397.5 312.19,-391.5 318.19,-391.5 318.19,-391.5 383.69,-391.5 383.69,-391.5 389.69,-391.5 395.69,-397.5 395.69,-403.5 395.69,-403.5 395.69,-446.5 395.69,-446.5 395.69,-452.5 389.69,-458.5 383.69,-458.5"/>
<text xml:space="preserve" text-anchor="start" x="314.19" y="-438.2" font-family="Times,serif" font-weight="bold" font-size="14.00">SeenNothing</text>
<text xml:space="preserve" text-anchor="start" x="314.19" y="-413" font-family="Times,serif" font-size="10.00">$&gt;()</text>
<text xml:space="preserve" text-anchor="start" x="314.19" y="-401.75" font-family="Times,serif" font-size="10.00"> &#160;&#160;&#160;&#160;&#160;&#160;&#160;&#160;&#160;&#160;&#160;</text>
<polygon fill="#00688b" stroke="#00688b" points="306.19,-428 306.19,-428 395.69,-428 395.69,-428 306.19,-428"/>
<path fill="none" stroke="#00688b" d="M318.19,-391.5C318.19,-391.5 383.69,-391.5 383.69,-391.5 389.69,-391.5 395.69,-397.5 395.69,-403.5 395.69,-403.5 395.69,-446.5 395.69,-446.5 395.69,-452.5 389.69,-458.5 383.69,-458.5 383.69,-458.5 318.19,-458.5 318.19,-458.5 312.19,-458.5 306.19,-452.5 306.19,-446.5 306.19,-446.5 306.19,-403.5 306.19,-403.5 306.19,-397.5 312.19,-391.5 318.19,-391.5"/>
</g>
<!-- Ready&#45;&gt;SeenNothing -->
<g id="edge2" class="edge">
<title>Ready&#45;&gt;SeenNothing</title>
<path fill="none" stroke="red" d="M404.21,-511.18C395.59,-497.4 385.81,-481.76 377.01,-467.68"/>
<polygon fill="red" stroke="red" points="380.16,-466.12 371.89,-459.5 374.23,-469.84 380.16,-466.12"/>
<text xml:space="preserve" text-anchor="middle" x="410.5" y="-479.7" font-family="Times,serif" font-size="14.00"> begin </text>
</g>
<!-- SeenTypeIdent -->
<g id="node4" class="node">
<title>SeenTypeIdent</title>
<path fill="azure" stroke="none" d="M210.44,-339C210.44,-339 131.44,-339 131.44,-339 125.44,-339 119.44,-333 119.44,-327 119.44,-327 119.44,-284 119.44,-284 119.44,-278 125.44,-272 131.44,-272 131.44,-272 210.44,-272 210.44,-272 216.44,-272 222.44,-278 222.44,-284 222.44,-284 222.44,-327 222.44,-327 222.44,-333 216.44,-339 210.44,-339"/>
<text xml:space="preserve" text-anchor="start" x="127.44" y="-318.7" font-family="Times,serif" font-weight="bold" font-size="14.00">SeenTypeIdent</text>
<text xml:space="preserve" text-anchor="start" x="127.44" y="-293.5" font-family="Times,serif" font-size="10.00">$&gt;()</text>
<text xml:space="preserve" text-anchor="start" x="127.44" y="-282.25" font-family="Times,serif" font-size="10.00"> &#160;&#160;&#160;&#160;&#160;&#160;&#160;&#160;&#160;&#160;&#160;</text>
<polygon fill="#00688b" stroke="#00688b" points="119.44,-308.5 119.44,-308.5 222.44,-308.5 222.44,-308.5 119.44,-308.5"/>
<path fill="none" stroke="#00688b" d="M131.44,-272C131.44,-272 210.44,-272 210.44,-272 216.44,-272 222.44,-278 222.44,-284 222.44,-284 222.44,-327 222.44,-327 222.44,-333 216.44,-339 210.44,-339 210.44,-339 131.44,-339 131.44,-339 125.44,-339 119.44,-333 119.44,-327 119.44,-327 119.44,-284 119.44,-284 119.44,-278 125.44,-272 131.44,-272"/>
</g>
<!-- SeenNothing&#45;&gt;SeenTypeIdent -->
<g id="edge3" class="edge">
<title>SeenNothing&#45;&gt;SeenTypeIdent</title>
<path fill="none" stroke="red" d="M306.29,-407.88C285.18,-399.25 260.18,-387.5 239.69,-373.5 228.51,-365.86 217.5,-356.32 207.68,-346.86"/>
<polygon fill="red" stroke="red" points="210.37,-344.6 200.81,-340.04 205.44,-349.57 210.37,-344.6"/>
<text xml:space="preserve" text-anchor="middle" x="272.32" y="-360.2" font-family="Times,serif" font-size="14.00"> type&#45;name </text>
</g>
<!-- SeenPlainIdent -->
<g id="node6" class="node">
<title>SeenPlainIdent</title>
<path fill="azure" stroke="none" d="M350.82,-219.5C350.82,-219.5 271.07,-219.5 271.07,-219.5 265.07,-219.5 259.07,-213.5 259.07,-207.5 259.07,-207.5 259.07,-164.5 259.07,-164.5 259.07,-158.5 265.07,-152.5 271.07,-152.5 271.07,-152.5 350.82,-152.5 350.82,-152.5 356.82,-152.5 362.82,-158.5 362.82,-164.5 362.82,-164.5 362.82,-207.5 362.82,-207.5 362.82,-213.5 356.82,-219.5 350.82,-219.5"/>
<text xml:space="preserve" text-anchor="start" x="267.07" y="-199.2" font-family="Times,serif" font-weight="bold" font-size="14.00">SeenPlainIdent</text>
<text xml:space="preserve" text-anchor="start" x="267.07" y="-174" font-family="Times,serif" font-size="10.00">$&gt;()</text>
<text xml:space="preserve" text-anchor="start" x="267.07" y="-162.75" font-family="Times,serif" font-size="10.00"> &#160;&#160;&#160;&#160;&#160;&#160;&#160;&#160;&#160;&#160;&#160;</text>
<polygon fill="#00688b" stroke="#00688b" points="259.07,-189 259.07,-189 362.82,-189 362.82,-189 259.07,-189"/>
<path fill="none" stroke="#00688b" d="M271.07,-152.5C271.07,-152.5 350.82,-152.5 350.82,-152.5 356.82,-152.5 362.82,-158.5 362.82,-164.5 362.82,-164.5 362.82,-207.5 362.82,-207.5 362.82,-213.5 356.82,-219.5 350.82,-219.5 350.82,-219.5 271.07,-219.5 271.07,-219.5 265.07,-219.5 259.07,-213.5 259.07,-207.5 259.07,-207.5 259.07,-164.5 259.07,-164.5 259.07,-158.5 265.07,-152.5 271.07,-152.5"/>
</g>
<!-- SeenNothing&#45;&gt;SeenPlainIdent -->
<g id="edge4" class="edge">
<title>SeenNothing&#45;&gt;SeenPlainIdent</title>
<path fill="none" stroke="red" d="M345.46,-391.54C338.42,-349.82 326.17,-277.22 318.31,-230.68"/>
<polygon fill="red" stroke="red" points="321.79,-230.21 316.67,-220.94 314.88,-231.38 321.79,-230.21"/>
<text xml:space="preserve" text-anchor="middle" x="353.47" y="-300.45" font-family="Times,serif" font-size="14.00"> ident </text>
</g>
<!-- Verdict -->
<g id="node7" class="node">
<title>Verdict</title>
<path fill="azure" stroke="none" d="M244.32,-100C244.32,-100 209.57,-100 209.57,-100 203.57,-100 197.57,-94 197.57,-88 197.57,-88 197.57,-12 197.57,-12 197.57,-6 203.57,0 209.57,0 209.57,0 244.32,0 244.32,0 250.32,0 256.32,-6 256.32,-12 256.32,-12 256.32,-88 256.32,-88 256.32,-94 250.32,-100 244.32,-100"/>
<text xml:space="preserve" text-anchor="start" x="205.57" y="-79.7" font-family="Times,serif" font-weight="bold" font-size="14.00">Verdict</text>
<text xml:space="preserve" text-anchor="start" x="205.57" y="-54.5" font-family="Times,serif" font-size="10.00">$&gt;()</text>
<text xml:space="preserve" text-anchor="start" x="205.57" y="-43.25" font-family="Times,serif" font-size="10.00"> &#160;&#160;&#160;&#160;&#160;&#160;&#160;&#160;&#160;&#160;&#160;</text>
<text xml:space="preserve" text-anchor="start" x="205.57" y="-20.75" font-family="Times,serif" font-size="9.00" fill="#666666">result: str</text>
<text xml:space="preserve" text-anchor="start" x="208.57" y="-10.25" font-family="Times,serif" font-size="9.00" fill="#666666"> &#160;&#160;&#160;&#160;&#160;&#160;&#160;&#160;&#160;&#160;&#160;</text>
<polygon fill="#00688b" stroke="#00688b" points="197.57,-69.5 197.57,-69.5 256.32,-69.5 256.32,-69.5 197.57,-69.5"/>
<polygon fill="#00688b" stroke="#00688b" points="197.57,-35 197.57,-35 256.32,-35 256.32,-35 197.57,-35"/>
<path fill="none" stroke="#00688b" d="M209.57,0C209.57,0 244.32,0 244.32,0 250.32,0 256.32,-6 256.32,-12 256.32,-12 256.32,-88 256.32,-88 256.32,-94 250.32,-100 244.32,-100 244.32,-100 209.57,-100 209.57,-100 203.57,-100 197.57,-94 197.57,-88 197.57,-88 197.57,-12 197.57,-12 197.57,-6 203.57,0 209.57,0"/>
</g>
<!-- SeenNothing&#45;&gt;Verdict -->
<g id="edge5" class="edge">
<title>SeenNothing&#45;&gt;Verdict</title>
<path fill="none" stroke="red" d="M362.31,-391.75C367.26,-376.05 372.48,-356.77 374.94,-339 379.3,-307.54 374.97,-161.44 371.94,-152.5 356.26,-106.14 303.96,-78.17 266.68,-63.66"/>
<polygon fill="red" stroke="red" points="268.14,-60.47 257.55,-60.28 265.71,-67.04 268.14,-60.47"/>
<text xml:space="preserve" text-anchor="middle" x="406.13" y="-240.7" font-family="Times,serif" font-size="14.00"> non&#45;ident </text>
</g>
<!-- SeenTypeStar -->
<g id="node5" class="node">
<title>SeenTypeStar</title>
<path fill="azure" stroke="none" d="M86.44,-219.5C86.44,-219.5 13.44,-219.5 13.44,-219.5 7.44,-219.5 1.44,-213.5 1.44,-207.5 1.44,-207.5 1.44,-164.5 1.44,-164.5 1.44,-158.5 7.44,-152.5 13.44,-152.5 13.44,-152.5 86.44,-152.5 86.44,-152.5 92.44,-152.5 98.44,-158.5 98.44,-164.5 98.44,-164.5 98.44,-207.5 98.44,-207.5 98.44,-213.5 92.44,-219.5 86.44,-219.5"/>
<text xml:space="preserve" text-anchor="start" x="9.44" y="-199.2" font-family="Times,serif" font-weight="bold" font-size="14.00">SeenTypeStar</text>
<text xml:space="preserve" text-anchor="start" x="9.44" y="-174" font-family="Times,serif" font-size="10.00">$&gt;()</text>
<text xml:space="preserve" text-anchor="start" x="9.44" y="-162.75" font-family="Times,serif" font-size="10.00"> &#160;&#160;&#160;&#160;&#160;&#160;&#160;&#160;&#160;&#160;&#160;</text>
<polygon fill="#00688b" stroke="#00688b" points="1.44,-189 1.44,-189 98.44,-189 98.44,-189 1.44,-189"/>
<path fill="none" stroke="#00688b" d="M13.44,-152.5C13.44,-152.5 86.44,-152.5 86.44,-152.5 92.44,-152.5 98.44,-158.5 98.44,-164.5 98.44,-164.5 98.44,-207.5 98.44,-207.5 98.44,-213.5 92.44,-219.5 86.44,-219.5 86.44,-219.5 13.44,-219.5 13.44,-219.5 7.44,-219.5 1.44,-213.5 1.44,-207.5 1.44,-207.5 1.44,-164.5 1.44,-164.5 1.44,-158.5 7.44,-152.5 13.44,-152.5"/>
</g>
<!-- SeenTypeIdent&#45;&gt;SeenTypeStar -->
<g id="edge6" class="edge">
<title>SeenTypeIdent&#45;&gt;SeenTypeStar</title>
<path fill="none" stroke="red" d="M127.42,-272.25C120.29,-266.41 113.13,-260.2 106.69,-254 98.38,-245.99 90.02,-236.85 82.36,-227.95"/>
<polygon fill="red" stroke="red" points="85.07,-225.74 75.95,-220.35 79.72,-230.25 85.07,-225.74"/>
<text xml:space="preserve" text-anchor="middle" x="113.82" y="-240.7" font-family="Times,serif" font-size="14.00"> * </text>
</g>
<!-- SeenTypeIdent&#45;&gt;Verdict -->
<g id="edge7" class="edge">
<title>SeenTypeIdent&#45;&gt;Verdict</title>
<path fill="none" stroke="red" d="M157.97,-272.27C147.3,-240.94 135.95,-192.39 149.44,-152.5 157.68,-128.13 174.37,-105.01 190.16,-87"/>
<polygon fill="red" stroke="red" points="192.64,-89.47 196.78,-79.71 187.46,-84.76 192.64,-89.47"/>
<text xml:space="preserve" text-anchor="middle" x="166.69" y="-180.95" font-family="Times,serif" font-size="14.00"> ident </text>
</g>
<!-- SeenTypeIdent&#45;&gt;Verdict -->
<g id="edge8" class="edge">
<title>SeenTypeIdent&#45;&gt;Verdict</title>
<path fill="none" stroke="red" d="M178.09,-272.14C187.06,-231.56 202.6,-161.2 213.74,-110.74"/>
<polygon fill="red" stroke="red" points="217.13,-111.65 215.87,-101.13 210.29,-110.14 217.13,-111.65"/>
<text xml:space="preserve" text-anchor="middle" x="222.13" y="-180.95" font-family="Times,serif" font-size="14.00"> other </text>
</g>
<!-- SeenTypeStar&#45;&gt;Verdict -->
<g id="edge9" class="edge">
<title>SeenTypeStar&#45;&gt;Verdict</title>
<path fill="none" stroke="red" d="M9.95,-152.58C0.96,-141.47 -3.78,-129.06 4.44,-118 26.22,-88.69 128.46,-67.33 186.47,-57.33"/>
<polygon fill="red" stroke="red" points="187.02,-60.79 196.3,-55.68 185.86,-53.89 187.02,-60.79"/>
<text xml:space="preserve" text-anchor="middle" x="21.69" y="-121.2" font-family="Times,serif" font-size="14.00"> ident </text>
</g>
<!-- SeenTypeStar&#45;&gt;Verdict -->
<g id="edge10" class="edge">
<title>SeenTypeStar&#45;&gt;Verdict</title>
<path fill="none" stroke="red" d="M49.25,-152.63C50.52,-140.65 53.9,-127.64 61.69,-118 92.46,-79.92 148.27,-63.32 186.45,-56.19"/>
<polygon fill="red" stroke="red" points="186.92,-59.66 196.19,-54.53 185.74,-52.76 186.92,-59.66"/>
<text xml:space="preserve" text-anchor="middle" x="91.32" y="-121.2" font-family="Times,serif" font-size="14.00"> non&#45;ident </text>
</g>
<!-- SeenPlainIdent&#45;&gt;Verdict -->
<g id="edge11" class="edge">
<title>SeenPlainIdent&#45;&gt;Verdict</title>
<path fill="none" stroke="red" d="M273.48,-152.61C268.16,-146.93 263.1,-140.8 258.94,-134.5 254.07,-127.12 249.79,-118.89 246.07,-110.55"/>
<polygon fill="red" stroke="red" points="249.32,-109.27 242.24,-101.39 242.86,-111.97 249.32,-109.27"/>
<text xml:space="preserve" text-anchor="middle" x="264.94" y="-121.2" font-family="Times,serif" font-size="14.00"> ( </text>
</g>
<!-- SeenPlainIdent&#45;&gt;Verdict -->
<g id="edge12" class="edge">
<title>SeenPlainIdent&#45;&gt;Verdict</title>
<path fill="none" stroke="red" d="M292.09,-152.8C285.5,-141.71 277.99,-129.25 270.94,-118 268.13,-113.52 265.19,-108.89 262.21,-104.26"/>
<polygon fill="red" stroke="red" points="265.28,-102.56 256.91,-96.07 259.41,-106.36 265.28,-102.56"/>
<text xml:space="preserve" text-anchor="middle" x="312.17" y="-121.2" font-family="Times,serif" font-size="14.00"> non&#45;paren </text>
</g>
<!-- Verdict&#45;&gt;Ready -->
<g id="edge13" class="edge">
<title>Verdict&#45;&gt;Ready</title>
<path fill="none" stroke="red" d="M256.13,-53.82C319.68,-61.72 464.94,-90.16 464.94,-185 464.94,-426 464.94,-426 464.94,-426 464.94,-451.32 457.68,-478.38 449.59,-500.66"/>
<polygon fill="red" stroke="red" points="446.4,-499.18 446.11,-509.77 452.94,-501.67 446.4,-499.18"/>
<text xml:space="preserve" text-anchor="middle" x="481.44" y="-300.45" font-family="Times,serif" font-size="14.00"> reset </text>
</g>
</g>
</svg>
