<?xml version="1.0" encoding="UTF-8" standalone="no"?>
<!DOCTYPE svg PUBLIC "-//W3C//DTD SVG 1.1//EN"
 "http://www.w3.org/Graphics/SVG/1.1/DTD/svg11.dtd">
<!-- Generated by graphviz version 14.1.5 (20260411.2331)
 -->
<!-- Title: Character Pages: 1 -->
<svg width="243pt" height="530pt"
 viewBox="0.00 0.00 243.00 530.00" xmlns="http://www.w3.org/2000/svg" xmlns:xlink="http://www.w3.org/1999/xlink">
<g id="graph0" class="graph" transform="scale(1 1) rotate(0) translate(4 525.9)">
<title>Character</title>
<polygon fill="white" stroke="none" points="-4,4 -4,-525.9 238.95,-525.9 238.95,4 -4,4"/>
<!-- Entry -->
<g id="node1" class="node">
<title>Entry</title>
<ellipse fill="black" stroke="#00688b" cx="148.8" cy="-514.7" rx="7.2" ry="7.2"/>
</g>
<!-- Idle -->
<g id="node2" class="node">
<title>Idle</title>
<path fill="azure" stroke="none" d="M170.67,-470.5C170.67,-470.5 126.92,-470.5 126.92,-470.5 120.92,-470.5 114.92,-464.5 114.92,-458.5 114.92,-458.5 114.92,-404.25 114.92,-404.25 114.92,-398.25 120.92,-392.25 126.92,-392.25 126.92,-392.25 170.67,-392.25 170.67,-392.25 176.67,-392.25 182.67,-398.25 182.67,-404.25 182.67,-404.25 182.67,-458.5 182.67,-458.5 182.67,-464.5 176.67,-470.5 170.67,-470.5"/>
<text xml:space="preserve" text-anchor="start" x="137.55" y="-450.2" font-family="Times,serif" font-weight="bold" font-size="14.00">Idle</text>
<text xml:space="preserve" text-anchor="start" x="122.92" y="-413.84" font-family="Times,serif" font-size="10.00">move()</text>
<text xml:space="preserve" text-anchor="start" x="122.92" y="-402.59" font-family="Times,serif" font-size="10.00">jump()</text>
<text xml:space="preserve" text-anchor="start" x="122.92" y="-391.34" font-family="Times,serif" font-size="10.00">state() &#160;&#160;&#160;&#160;&#160;&#160;&#160;&#160;&#160;&#160;&#160;</text>
<polygon fill="#00688b" stroke="#00688b" points="114.92,-440 114.92,-440 182.67,-440 182.67,-440 114.92,-440"/>
<path fill="none" stroke="#00688b" d="M126.92,-392.25C126.92,-392.25 170.67,-392.25 170.67,-392.25 176.67,-392.25 182.67,-398.25 182.67,-404.25 182.67,-404.25 182.67,-458.5 182.67,-458.5 182.67,-464.5 176.67,-470.5 170.67,-470.5 170.67,-470.5 126.92,-470.5 126.92,-470.5 120.92,-470.5 114.92,-464.5 114.92,-458.5 114.92,-458.5 114.92,-404.25 114.92,-404.25 114.92,-398.25 120.92,-392.25 126.92,-392.25"/>
</g>
<!-- Entry&#45;&gt;Idle -->
<g id="edge1" class="edge">
<title>Entry&#45;&gt;Idle</title>
<path fill="none" stroke="red" d="M148.8,-507.04C148.8,-501.03 148.8,-491.57 148.8,-481.38"/>
<polygon fill="red" stroke="red" points="152.3,-481.69 148.8,-471.69 145.3,-481.69 152.3,-481.69"/>
</g>
<!-- Walking -->
<g id="node3" class="node">
<title>Walking</title>
<path fill="azure" stroke="none" d="M87.67,-339.75C87.67,-339.75 43.92,-339.75 43.92,-339.75 37.92,-339.75 31.92,-333.75 31.92,-327.75 31.92,-327.75 31.92,-262.25 31.92,-262.25 31.92,-256.25 37.92,-250.25 43.92,-250.25 43.92,-250.25 87.67,-250.25 87.67,-250.25 93.67,-250.25 99.67,-256.25 99.67,-262.25 99.67,-262.25 99.67,-327.75 99.67,-327.75 99.67,-333.75 93.67,-339.75 87.67,-339.75"/>
<text xml:space="preserve" text-anchor="start" x="41.05" y="-319.45" font-family="Times,serif" font-weight="bold" font-size="14.00">Walking</text>
<text xml:space="preserve" text-anchor="start" x="39.92" y="-283.09" font-family="Times,serif" font-size="10.00">sprint()</text>
<text xml:space="preserve" text-anchor="start" x="39.92" y="-271.84" font-family="Times,serif" font-size="10.00">jump()</text>
<text xml:space="preserve" text-anchor="start" x="39.92" y="-260.59" font-family="Times,serif" font-size="10.00">stop()</text>
<text xml:space="preserve" text-anchor="start" x="39.92" y="-249.34" font-family="Times,serif" font-size="10.00">state() &#160;&#160;&#160;&#160;&#160;&#160;&#160;&#160;&#160;&#160;&#160;</text>
<polygon fill="#00688b" stroke="#00688b" points="31.92,-309.25 31.92,-309.25 99.67,-309.25 99.67,-309.25 31.92,-309.25"/>
<path fill="none" stroke="#00688b" d="M43.92,-250.25C43.92,-250.25 87.67,-250.25 87.67,-250.25 93.67,-250.25 99.67,-256.25 99.67,-262.25 99.67,-262.25 99.67,-327.75 99.67,-327.75 99.67,-333.75 93.67,-339.75 87.67,-339.75 87.67,-339.75 43.92,-339.75 43.92,-339.75 37.92,-339.75 31.92,-333.75 31.92,-327.75 31.92,-327.75 31.92,-262.25 31.92,-262.25 31.92,-256.25 37.92,-250.25 43.92,-250.25"/>
</g>
<!-- Idle&#45;&gt;Walking -->
<g id="edge2" class="edge">
<title>Idle&#45;&gt;Walking</title>
<path fill="none" stroke="red" d="M115.07,-416.73C97.22,-407.58 76.9,-393.61 66.55,-374.25 62.76,-367.16 60.68,-359.18 59.73,-351.08"/>
<polygon fill="red" stroke="red" points="63.23,-350.94 59.15,-341.16 56.24,-351.35 63.23,-350.94"/>
<text xml:space="preserve" text-anchor="middle" x="85.67" y="-360.95" font-family="Times,serif" font-size="14.00"> move </text>
</g>
<!-- Jumping -->
<g id="node5" class="node">
<title>Jumping</title>
<path fill="azure" stroke="none" d="M161.67,-67C161.67,-67 117.92,-67 117.92,-67 111.92,-67 105.92,-61 105.92,-55 105.92,-55 105.92,-12 105.92,-12 105.92,-6 111.92,0 117.92,0 117.92,0 161.67,0 161.67,0 167.67,0 173.67,-6 173.67,-12 173.67,-12 173.67,-55 173.67,-55 173.67,-61 167.67,-67 161.67,-67"/>
<text xml:space="preserve" text-anchor="start" x="113.92" y="-46.7" font-family="Times,serif" font-weight="bold" font-size="14.00">Jumping</text>
<text xml:space="preserve" text-anchor="start" x="113.92" y="-10.34" font-family="Times,serif" font-size="10.00">land()</text>
<text xml:space="preserve" text-anchor="start" x="113.92" y="0.91" font-family="Times,serif" font-size="10.00">state() &#160;&#160;&#160;&#160;&#160;&#160;&#160;&#160;&#160;&#160;&#160;</text>
<polygon fill="#00688b" stroke="#00688b" points="105.92,-36.5 105.92,-36.5 173.67,-36.5 173.67,-36.5 105.92,-36.5"/>
<path fill="none" stroke="#00688b" d="M117.92,0C117.92,0 161.67,0 161.67,0 167.67,0 173.67,-6 173.67,-12 173.67,-12 173.67,-55 173.67,-55 173.67,-61 167.67,-67 161.67,-67 161.67,-67 117.92,-67 117.92,-67 111.92,-67 105.92,-61 105.92,-55 105.92,-55 105.92,-12 105.92,-12 105.92,-6 111.92,0 117.92,0"/>
</g>
<!-- Idle&#45;&gt;Jumping -->
<g id="edge3" class="edge">
<title>Idle&#45;&gt;Jumping</title>
<path fill="none" stroke="red" d="M153.14,-392.45C159.12,-333.77 168.06,-217.5 157.8,-119.5 156.38,-105.92 153.71,-91.33 150.86,-78.12"/>
<polygon fill="red" stroke="red" points="154.28,-77.4 148.66,-68.42 147.46,-78.94 154.28,-77.4"/>
<text xml:space="preserve" text-anchor="middle" x="180.48" y="-218.95" font-family="Times,serif" font-size="14.00"> jump </text>
</g>
<!-- Walking&#45;&gt;Idle -->
<g id="edge6" class="edge">
<title>Walking&#45;&gt;Idle</title>
<path fill="none" stroke="red" d="M93.39,-339.46C97.24,-345.59 101.13,-351.82 104.8,-357.75 109.82,-365.86 115.11,-374.51 120.21,-382.91"/>
<polygon fill="red" stroke="red" points="117.13,-384.57 125.31,-391.31 123.11,-380.94 117.13,-384.57"/>
<text xml:space="preserve" text-anchor="middle" x="129.54" y="-360.95" font-family="Times,serif" font-size="14.00"> stop </text>
</g>
<!-- Running -->
<g id="node4" class="node">
<title>Running</title>
<path fill="azure" stroke="none" d="M59.67,-197.75C59.67,-197.75 15.92,-197.75 15.92,-197.75 9.92,-197.75 3.92,-191.75 3.92,-185.75 3.92,-185.75 3.92,-131.5 3.92,-131.5 3.92,-125.5 9.92,-119.5 15.92,-119.5 15.92,-119.5 59.67,-119.5 59.67,-119.5 65.67,-119.5 71.67,-125.5 71.67,-131.5 71.67,-131.5 71.67,-185.75 71.67,-185.75 71.67,-191.75 65.67,-197.75 59.67,-197.75"/>
<text xml:space="preserve" text-anchor="start" x="12.67" y="-177.45" font-family="Times,serif" font-weight="bold" font-size="14.00">Running</text>
<text xml:space="preserve" text-anchor="start" x="11.92" y="-141.09" font-family="Times,serif" font-size="10.00">stop()</text>
<text xml:space="preserve" text-anchor="start" x="11.92" y="-129.84" font-family="Times,serif" font-size="10.00">jump()</text>
<text xml:space="preserve" text-anchor="start" x="11.92" y="-118.59" font-family="Times,serif" font-size="10.00">state() &#160;&#160;&#160;&#160;&#160;&#160;&#160;&#160;&#160;&#160;&#160;</text>
<polygon fill="#00688b" stroke="#00688b" points="3.92,-167.25 3.92,-167.25 71.67,-167.25 71.67,-167.25 3.92,-167.25"/>
<path fill="none" stroke="#00688b" d="M15.92,-119.5C15.92,-119.5 59.67,-119.5 59.67,-119.5 65.67,-119.5 71.67,-125.5 71.67,-131.5 71.67,-131.5 71.67,-185.75 71.67,-185.75 71.67,-191.75 65.67,-197.75 59.67,-197.75 59.67,-197.75 15.92,-197.75 15.92,-197.75 9.92,-197.75 3.92,-191.75 3.92,-185.75 3.92,-185.75 3.92,-131.5 3.92,-131.5 3.92,-125.5 9.92,-119.5 15.92,-119.5"/>
</g>
<!-- Walking&#45;&gt;Running -->
<g id="edge4" class="edge">
<title>Walking&#45;&gt;Running</title>
<path fill="none" stroke="red" d="M31.94,-270.1C20.34,-259.91 8.74,-246.96 2.55,-232.25 -0.74,-224.44 -0.51,-216.26 1.76,-208.33"/>
<polygon fill="red" stroke="red" points="4.98,-209.71 5.43,-199.13 -1.52,-207.12 4.98,-209.71"/>
<text xml:space="preserve" text-anchor="middle" x="21.67" y="-218.95" font-family="Times,serif" font-size="14.00"> sprint </text>
</g>
<!-- Walking&#45;&gt;Jumping -->
<g id="edge5" class="edge">
<title>Walking&#45;&gt;Jumping</title>
<path fill="none" stroke="red" d="M81.07,-250.26C83.06,-244.23 85.02,-238.1 86.8,-232.25 102.81,-179.52 118.87,-118.11 129.05,-77.89"/>
<polygon fill="red" stroke="red" points="132.4,-78.9 131.45,-68.35 125.61,-77.19 132.4,-78.9"/>
<text xml:space="preserve" text-anchor="middle" x="135.61" y="-153.57" font-family="Times,serif" font-size="14.00"> jump </text>
</g>
<!-- Running&#45;&gt;Walking -->
<g id="edge7" class="edge">
<title>Running&#45;&gt;Walking</title>
<path fill="none" stroke="red" d="M45.71,-197.61C48.41,-210.57 51.49,-225.34 54.41,-239.35"/>
<polygon fill="red" stroke="red" points="50.93,-239.81 56.4,-248.89 57.79,-238.39 50.93,-239.81"/>
<text xml:space="preserve" text-anchor="middle" x="67.64" y="-218.95" font-family="Times,serif" font-size="14.00"> stop </text>
</g>
<!-- Running&#45;&gt;Jumping -->
<g id="edge8" class="edge">
<title>Running&#45;&gt;Jumping</title>
<path fill="none" stroke="red" d="M42.64,-119.75C45.57,-107.77 50.26,-95.04 57.8,-85 67.65,-71.87 82,-61.39 95.96,-53.45"/>
<polygon fill="red" stroke="red" points="97.46,-56.61 104.64,-48.83 94.17,-50.43 97.46,-56.61"/>
<text xml:space="preserve" text-anchor="middle" x="75.8" y="-88.2" font-family="Times,serif" font-size="14.00"> jump </text>
</g>
<!-- Jumping&#45;&gt;Idle -->
<g id="edge9" class="edge">
<title>Jumping&#45;&gt;Idle</title>
<path fill="none" stroke="red" d="M159.22,-66.8C162.35,-72.73 165.36,-78.96 167.8,-85 190.33,-140.78 194.95,-156.11 202.8,-215.75 210.44,-273.87 189.8,-338.95 171.86,-382.04"/>
<polygon fill="red" stroke="red" points="168.7,-380.55 167.98,-391.12 175.13,-383.3 168.7,-380.55"/>
<text xml:space="preserve" text-anchor="middle" x="219.58" y="-218.95" font-family="Times,serif" font-size="14.00"> land </text>
</g>
</g>
</svg>
