<?xml version="1.0" encoding="UTF-8" standalone="no"?>
<!DOCTYPE svg PUBLIC "-//W3C//DTD SVG 1.1//EN"
 "http://www.w3.org/Graphics/SVG/1.1/DTD/svg11.dtd">
<!-- Generated by graphviz version 14.1.5 (20260411.2331)
 -->
<!-- Title: Character Pages: 1 -->
<svg width="243pt" height="575pt"
 viewBox="0.00 0.00 243.00 575.00" xmlns="http://www.w3.org/2000/svg" xmlns:xlink="http://www.w3.org/1999/xlink">
<g id="graph0" class="graph" transform="scale(1 1) rotate(0) translate(4 570.9)">
<title>Character</title>
<polygon fill="white" stroke="none" points="-4,4 -4,-570.9 238.82,-570.9 238.82,4 -4,4"/>
<!-- Entry -->
<g id="node1" class="node">
<title>Entry</title>
<ellipse fill="black" stroke="#00688b" cx="148.8" cy="-559.7" rx="7.2" ry="7.2"/>
</g>
<!-- Idle -->
<g id="node2" class="node">
<title>Idle</title>
<path fill="azure" stroke="none" d="M163.8,-515.5C163.8,-515.5 133.8,-515.5 133.8,-515.5 127.8,-515.5 121.8,-509.5 121.8,-503.5 121.8,-503.5 121.8,-438 121.8,-438 121.8,-432 127.8,-426 133.8,-426 133.8,-426 163.8,-426 163.8,-426 169.8,-426 175.8,-432 175.8,-438 175.8,-438 175.8,-503.5 175.8,-503.5 175.8,-509.5 169.8,-515.5 163.8,-515.5"/>
<text xml:space="preserve" text-anchor="start" x="137.55" y="-495.2" font-family="Times,serif" font-weight="bold" font-size="14.00">Idle</text>
<text xml:space="preserve" text-anchor="start" x="134.55" y="-470" font-family="Times,serif" font-size="10.00">move()</text>
<text xml:space="preserve" text-anchor="start" x="134.55" y="-458.75" font-family="Times,serif" font-size="10.00">jump()</text>
<text xml:space="preserve" text-anchor="start" x="134.55" y="-447.5" font-family="Times,serif" font-size="10.00">state()</text>
<text xml:space="preserve" text-anchor="start" x="135.3" y="-436.25" font-family="Times,serif" font-size="10.00"> &#160;&#160;&#160;&#160;&#160;&#160;&#160;&#160;&#160;&#160;&#160;</text>
<polygon fill="#00688b" stroke="#00688b" points="126.55,-485 126.55,-485 171.05,-485 171.05,-485 126.55,-485"/>
<path fill="none" stroke="#00688b" d="M138.55,-426C138.55,-426 159.05,-426 159.05,-426 165.05,-426 171.05,-432 171.05,-438 171.05,-438 171.05,-503.5 171.05,-503.5 171.05,-509.5 165.05,-515.5 159.05,-515.5 159.05,-515.5 138.55,-515.5 138.55,-515.5 132.55,-515.5 126.55,-509.5 126.55,-503.5 126.55,-503.5 126.55,-438 126.55,-438 126.55,-432 132.55,-426 138.55,-426"/>
</g>
<!-- Entry&#45;&gt;Idle -->
<g id="edge1" class="edge">
<title>Entry&#45;&gt;Idle</title>
<path fill="none" stroke="red" d="M148.8,-552.16C148.8,-546.25 148.8,-536.91 148.8,-526.66"/>
<polygon fill="red" stroke="red" points="152.3,-526.81 148.8,-516.81 145.3,-526.81 152.3,-526.81"/>
</g>
<!-- Walking -->
<g id="node3" class="node">
<title>Walking</title>
<path fill="azure" stroke="none" d="M86.55,-373.5C86.55,-373.5 45.05,-373.5 45.05,-373.5 39.05,-373.5 33.05,-367.5 33.05,-361.5 33.05,-361.5 33.05,-284.75 33.05,-284.75 33.05,-278.75 39.05,-272.75 45.05,-272.75 45.05,-272.75 86.55,-272.75 86.55,-272.75 92.55,-272.75 98.55,-278.75 98.55,-284.75 98.55,-284.75 98.55,-361.5 98.55,-361.5 98.55,-367.5 92.55,-373.5 86.55,-373.5"/>
<text xml:space="preserve" text-anchor="start" x="41.05" y="-353.2" font-family="Times,serif" font-weight="bold" font-size="14.00">Walking</text>
<text xml:space="preserve" text-anchor="start" x="41.05" y="-328" font-family="Times,serif" font-size="10.00">sprint()</text>
<text xml:space="preserve" text-anchor="start" x="41.05" y="-316.75" font-family="Times,serif" font-size="10.00">jump()</text>
<text xml:space="preserve" text-anchor="start" x="41.05" y="-305.5" font-family="Times,serif" font-size="10.00">stop()</text>
<text xml:space="preserve" text-anchor="start" x="41.05" y="-294.25" font-family="Times,serif" font-size="10.00">state()</text>
<text xml:space="preserve" text-anchor="start" x="42.17" y="-283" font-family="Times,serif" font-size="10.00"> &#160;&#160;&#160;&#160;&#160;&#160;&#160;&#160;&#160;&#160;&#160;</text>
<polygon fill="#00688b" stroke="#00688b" points="33.05,-343 33.05,-343 98.55,-343 98.55,-343 33.05,-343"/>
<path fill="none" stroke="#00688b" d="M45.05,-272.75C45.05,-272.75 86.55,-272.75 86.55,-272.75 92.55,-272.75 98.55,-278.75 98.55,-284.75 98.55,-284.75 98.55,-361.5 98.55,-361.5 98.55,-367.5 92.55,-373.5 86.55,-373.5 86.55,-373.5 45.05,-373.5 45.05,-373.5 39.05,-373.5 33.05,-367.5 33.05,-361.5 33.05,-361.5 33.05,-284.75 33.05,-284.75 33.05,-278.75 39.05,-272.75 45.05,-272.75"/>
</g>
<!-- Idle&#45;&gt;Walking -->
<g id="edge2" class="edge">
<title>Idle&#45;&gt;Walking</title>
<path fill="none" stroke="red" d="M122,-457.81C102.72,-447.62 78.14,-430.95 66.55,-408 62.93,-400.84 60.84,-392.89 59.77,-384.8"/>
<polygon fill="red" stroke="red" points="63.27,-384.58 59.03,-374.87 56.29,-385.11 63.27,-384.58"/>
<text xml:space="preserve" text-anchor="middle" x="85.67" y="-394.7" font-family="Times,serif" font-size="14.00"> move </text>
</g>
<!-- Jumping -->
<g id="node5" class="node">
<title>Jumping</title>
<path fill="azure" stroke="none" d="M161.67,-78.25C161.67,-78.25 117.92,-78.25 117.92,-78.25 111.92,-78.25 105.92,-72.25 105.92,-66.25 105.92,-66.25 105.92,-12 105.92,-12 105.92,-6 111.92,0 117.92,0 117.92,0 161.67,0 161.67,0 167.67,0 173.67,-6 173.67,-12 173.67,-12 173.67,-66.25 173.67,-66.25 173.67,-72.25 167.67,-78.25 161.67,-78.25"/>
<text xml:space="preserve" text-anchor="start" x="113.92" y="-57.95" font-family="Times,serif" font-weight="bold" font-size="14.00">Jumping</text>
<text xml:space="preserve" text-anchor="start" x="113.92" y="-32.75" font-family="Times,serif" font-size="10.00">land()</text>
<text xml:space="preserve" text-anchor="start" x="113.92" y="-21.5" font-family="Times,serif" font-size="10.00">state()</text>
<text xml:space="preserve" text-anchor="start" x="113.92" y="-10.25" font-family="Times,serif" font-size="10.00"> &#160;&#160;&#160;&#160;&#160;&#160;&#160;&#160;&#160;&#160;&#160;</text>
<polygon fill="#00688b" stroke="#00688b" points="105.92,-47.75 105.92,-47.75 173.67,-47.75 173.67,-47.75 105.92,-47.75"/>
<path fill="none" stroke="#00688b" d="M117.92,0C117.92,0 161.67,0 161.67,0 167.67,0 173.67,-6 173.67,-12 173.67,-12 173.67,-66.25 173.67,-66.25 173.67,-72.25 167.67,-78.25 161.67,-78.25 161.67,-78.25 117.92,-78.25 117.92,-78.25 111.92,-78.25 105.92,-72.25 105.92,-66.25 105.92,-66.25 105.92,-12 105.92,-12 105.92,-6 111.92,0 117.92,0"/>
</g>
<!-- Idle&#45;&gt;Jumping -->
<g id="edge3" class="edge">
<title>Idle&#45;&gt;Jumping</title>
<path fill="none" stroke="red" d="M153.42,-426.01C159.48,-361.31 168.18,-236.36 157.8,-130.75 156.46,-117.16 154.02,-102.58 151.36,-89.17"/>
<polygon fill="red" stroke="red" points="154.86,-88.8 149.4,-79.72 148,-90.22 154.86,-88.8"/>
<text xml:space="preserve" text-anchor="middle" x="180.63" y="-241.45" font-family="Times,serif" font-size="14.00"> jump </text>
</g>
<!-- Walking&#45;&gt;Idle -->
<g id="edge6" class="edge">
<title>Walking&#45;&gt;Idle</title>
<path fill="none" stroke="red" d="M94.41,-373.39C97.92,-379.48 101.45,-385.63 104.8,-391.5 109.35,-399.49 114.15,-407.95 118.83,-416.25"/>
<polygon fill="red" stroke="red" points="115.76,-417.92 123.71,-424.92 121.85,-414.49 115.76,-417.92"/>
<text xml:space="preserve" text-anchor="middle" x="128.28" y="-394.7" font-family="Times,serif" font-size="14.00"> stop </text>
</g>
<!-- Running -->
<g id="node4" class="node">
<title>Running</title>
<path fill="azure" stroke="none" d="M59.92,-220.25C59.92,-220.25 17.67,-220.25 17.67,-220.25 11.67,-220.25 5.67,-214.25 5.67,-208.25 5.67,-208.25 5.67,-142.75 5.67,-142.75 5.67,-136.75 11.67,-130.75 17.67,-130.75 17.67,-130.75 59.92,-130.75 59.92,-130.75 65.92,-130.75 71.92,-136.75 71.92,-142.75 71.92,-142.75 71.92,-208.25 71.92,-208.25 71.92,-214.25 65.92,-220.25 59.92,-220.25"/>
<text xml:space="preserve" text-anchor="start" x="13.67" y="-199.95" font-family="Times,serif" font-weight="bold" font-size="14.00">Running</text>
<text xml:space="preserve" text-anchor="start" x="13.67" y="-174.75" font-family="Times,serif" font-size="10.00">stop()</text>
<text xml:space="preserve" text-anchor="start" x="13.67" y="-163.5" font-family="Times,serif" font-size="10.00">jump()</text>
<text xml:space="preserve" text-anchor="start" x="13.67" y="-152.25" font-family="Times,serif" font-size="10.00">state()</text>
<text xml:space="preserve" text-anchor="start" x="13.67" y="-141" font-family="Times,serif" font-size="10.00"> &#160;&#160;&#160;&#160;&#160;&#160;&#160;&#160;&#160;&#160;&#160;</text>
<polygon fill="#00688b" stroke="#00688b" points="5.67,-189.75 5.67,-189.75 71.92,-189.75 71.92,-189.75 5.67,-189.75"/>
<path fill="none" stroke="#00688b" d="M17.67,-130.75C17.67,-130.75 59.92,-130.75 59.92,-130.75 65.92,-130.75 71.92,-136.75 71.92,-142.75 71.92,-142.75 71.92,-208.25 71.92,-208.25 71.92,-214.25 65.92,-220.25 59.92,-220.25 59.92,-220.25 17.67,-220.25 17.67,-220.25 11.67,-220.25 5.67,-214.25 5.67,-208.25 5.67,-208.25 5.67,-142.75 5.67,-142.75 5.67,-136.75 11.67,-130.75 17.67,-130.75"/>
</g>
<!-- Walking&#45;&gt;Running -->
<g id="edge4" class="edge">
<title>Walking&#45;&gt;Running</title>
<path fill="none" stroke="red" d="M33.21,-296.76C21.18,-285.37 8.92,-270.86 2.55,-254.75 -0.79,-246.33 -0.52,-237.53 1.83,-228.98"/>
<polygon fill="red" stroke="red" points="5.05,-230.36 5.27,-219.77 -1.51,-227.91 5.05,-230.36"/>
<text xml:space="preserve" text-anchor="middle" x="21.67" y="-241.45" font-family="Times,serif" font-size="14.00"> sprint </text>
</g>
<!-- Walking&#45;&gt;Jumping -->
<g id="edge5" class="edge">
<title>Walking&#45;&gt;Jumping</title>
<path fill="none" stroke="red" d="M81.51,-272.92C83.35,-266.82 85.15,-260.65 86.8,-254.75 102.56,-198.25 118.4,-132.71 128.59,-89.06"/>
<polygon fill="red" stroke="red" points="131.99,-89.92 130.85,-79.39 125.17,-88.33 131.99,-89.92"/>
<text xml:space="preserve" text-anchor="middle" x="136.33" y="-170.45" font-family="Times,serif" font-size="14.00"> jump </text>
</g>
<!-- Running&#45;&gt;Walking -->
<g id="edge7" class="edge">
<title>Running&#45;&gt;Walking</title>
<path fill="none" stroke="red" d="M46.84,-219.9C49.28,-233.03 52,-247.71 54.6,-261.74"/>
<polygon fill="red" stroke="red" points="51.12,-262.14 56.38,-271.33 58,-260.86 51.12,-262.14"/>
<text xml:space="preserve" text-anchor="middle" x="68.11" y="-241.45" font-family="Times,serif" font-size="14.00"> stop </text>
</g>
<!-- Running&#45;&gt;Jumping -->
<g id="edge8" class="edge">
<title>Running&#45;&gt;Jumping</title>
<path fill="none" stroke="red" d="M43.48,-131.12C46.28,-119.06 50.73,-106.49 57.8,-96.25 67.59,-82.06 82.24,-70.4 96.45,-61.45"/>
<polygon fill="red" stroke="red" points="98.04,-64.58 104.86,-56.47 94.47,-58.56 98.04,-64.58"/>
<text xml:space="preserve" text-anchor="middle" x="75.8" y="-99.45" font-family="Times,serif" font-size="14.00"> jump </text>
</g>
<!-- Jumping&#45;&gt;Idle -->
<g id="edge9" class="edge">
<title>Jumping&#45;&gt;Idle</title>
<path fill="none" stroke="red" d="M160.08,-77.97C162.9,-83.99 165.58,-90.22 167.8,-96.25 190.22,-157.26 194.96,-173.72 202.8,-238.25 210.3,-300.01 190.24,-369.32 172.47,-415.86"/>
<polygon fill="red" stroke="red" points="169.32,-414.31 168.93,-424.9 175.84,-416.86 169.32,-414.31"/>
<text xml:space="preserve" text-anchor="middle" x="219.44" y="-241.45" font-family="Times,serif" font-size="14.00"> land </text>
</g>
</g>
</svg>
