<?xml version="1.0" encoding="UTF-8" standalone="no"?>
<!DOCTYPE svg PUBLIC "-//W3C//DTD SVG 1.1//EN"
 "http://www.w3.org/Graphics/SVG/1.1/DTD/svg11.dtd">
<!-- Generated by graphviz version 14.1.5 (20260411.2331)
 -->
<!-- Title: Character Pages: 1 -->
<svg width="271pt" height="530pt"
 viewBox="0.00 0.00 271.00 530.00" xmlns="http://www.w3.org/2000/svg" xmlns:xlink="http://www.w3.org/1999/xlink">
<g id="graph0" class="graph" transform="scale(1 1) rotate(0) translate(4 525.9)">
<title>Character</title>
<polygon fill="white" stroke="none" points="-4,4 -4,-525.9 266.95,-525.9 266.95,4 -4,4"/>
<!-- Entry -->
<g id="node1" class="node">
<title>Entry</title>
<ellipse fill="black" stroke="#00688b" cx="180.88" cy="-514.7" rx="7.2" ry="7.2"/>
</g>
<!-- Idle -->
<g id="node2" class="node">
<title>Idle</title>
<path fill="azure" stroke="none" d="M220.75,-470.5C220.75,-470.5 141,-470.5 141,-470.5 135,-470.5 129,-464.5 129,-458.5 129,-458.5 129,-404.25 129,-404.25 129,-398.25 135,-392.25 141,-392.25 141,-392.25 220.75,-392.25 220.75,-392.25 226.75,-392.25 232.75,-398.25 232.75,-404.25 232.75,-404.25 232.75,-458.5 232.75,-458.5 232.75,-464.5 226.75,-470.5 220.75,-470.5"/>
<text xml:space="preserve" text-anchor="start" x="169.62" y="-450.2" font-family="Times,serif" font-weight="bold" font-size="14.00">Idle</text>
<text xml:space="preserve" text-anchor="start" x="137" y="-425" font-family="Times,serif" font-size="10.00"> &#160;&#160;&#160;&#160;&#160;&#160;&#160;&#160;&#160;&#160;&#160;&#160;&#160;&#160;&#160;move()</text>
<text xml:space="preserve" text-anchor="start" x="137" y="-413.75" font-family="Times,serif" font-size="10.00"> &#160;&#160;&#160;&#160;&#160;&#160;&#160;&#160;&#160;&#160;&#160;&#160;&#160;&#160;&#160;jump()</text>
<text xml:space="preserve" text-anchor="start" x="137" y="-402.5" font-family="Times,serif" font-size="10.00"> &#160;&#160;&#160;&#160;&#160;&#160;&#160;&#160;&#160;&#160;&#160;&#160;&#160;&#160;&#160;state() &#160;&#160;&#160;&#160;&#160;&#160;&#160;&#160;&#160;&#160;&#160;</text>
<polygon fill="#00688b" stroke="#00688b" points="129,-440 129,-440 232.75,-440 232.75,-440 129,-440"/>
<path fill="none" stroke="#00688b" d="M141,-392.25C141,-392.25 220.75,-392.25 220.75,-392.25 226.75,-392.25 232.75,-398.25 232.75,-404.25 232.75,-404.25 232.75,-458.5 232.75,-458.5 232.75,-464.5 226.75,-470.5 220.75,-470.5 220.75,-470.5 141,-470.5 141,-470.5 135,-470.5 129,-464.5 129,-458.5 129,-458.5 129,-404.25 129,-404.25 129,-398.25 135,-392.25 141,-392.25"/>
</g>
<!-- Entry&#45;&gt;Idle -->
<g id="edge1" class="edge">
<title>Entry&#45;&gt;Idle</title>
<path fill="none" stroke="red" d="M180.88,-507.04C180.88,-501.03 180.88,-491.57 180.88,-481.38"/>
<polygon fill="red" stroke="red" points="184.38,-481.69 180.88,-471.69 177.38,-481.69 184.38,-481.69"/>
</g>
<!-- Walking -->
<g id="node3" class="node">
<title>Walking</title>
<path fill="azure" stroke="none" d="M137.75,-339.75C137.75,-339.75 58,-339.75 58,-339.75 52,-339.75 46,-333.75 46,-327.75 46,-327.75 46,-262.25 46,-262.25 46,-256.25 52,-250.25 58,-250.25 58,-250.25 137.75,-250.25 137.75,-250.25 143.75,-250.25 149.75,-256.25 149.75,-262.25 149.75,-262.25 149.75,-327.75 149.75,-327.75 149.75,-333.75 143.75,-339.75 137.75,-339.75"/>
<text xml:space="preserve" text-anchor="start" x="73.12" y="-319.45" font-family="Times,serif" font-weight="bold" font-size="14.00">Walking</text>
<text xml:space="preserve" text-anchor="start" x="54" y="-294.25" font-family="Times,serif" font-size="10.00"> &#160;&#160;&#160;&#160;&#160;&#160;&#160;&#160;&#160;&#160;&#160;&#160;&#160;&#160;&#160;sprint()</text>
<text xml:space="preserve" text-anchor="start" x="54" y="-283" font-family="Times,serif" font-size="10.00"> &#160;&#160;&#160;&#160;&#160;&#160;&#160;&#160;&#160;&#160;&#160;&#160;&#160;&#160;&#160;jump()</text>
<text xml:space="preserve" text-anchor="start" x="54" y="-271.75" font-family="Times,serif" font-size="10.00"> &#160;&#160;&#160;&#160;&#160;&#160;&#160;&#160;&#160;&#160;&#160;&#160;&#160;&#160;&#160;stop()</text>
<text xml:space="preserve" text-anchor="start" x="54" y="-260.5" font-family="Times,serif" font-size="10.00"> &#160;&#160;&#160;&#160;&#160;&#160;&#160;&#160;&#160;&#160;&#160;&#160;&#160;&#160;&#160;state() &#160;&#160;&#160;&#160;&#160;&#160;&#160;&#160;&#160;&#160;&#160;</text>
<polygon fill="#00688b" stroke="#00688b" points="46,-309.25 46,-309.25 149.75,-309.25 149.75,-309.25 46,-309.25"/>
<path fill="none" stroke="#00688b" d="M58,-250.25C58,-250.25 137.75,-250.25 137.75,-250.25 143.75,-250.25 149.75,-256.25 149.75,-262.25 149.75,-262.25 149.75,-327.75 149.75,-327.75 149.75,-333.75 143.75,-339.75 137.75,-339.75 137.75,-339.75 58,-339.75 58,-339.75 52,-339.75 46,-333.75 46,-327.75 46,-327.75 46,-262.25 46,-262.25 46,-256.25 52,-250.25 58,-250.25"/>
</g>
<!-- Idle&#45;&gt;Walking -->
<g id="edge2" class="edge">
<title>Idle&#45;&gt;Walking</title>
<path fill="none" stroke="red" d="M129.08,-406.05C116.94,-397.75 105.55,-387.21 98.62,-374.25 94.84,-367.16 92.76,-359.18 91.81,-351.08"/>
<polygon fill="red" stroke="red" points="95.3,-350.94 91.23,-341.16 88.32,-351.35 95.3,-350.94"/>
<text xml:space="preserve" text-anchor="middle" x="117.75" y="-360.95" font-family="Times,serif" font-size="14.00"> move </text>
</g>
<!-- Jumping -->
<g id="node5" class="node">
<title>Jumping</title>
<path fill="azure" stroke="none" d="M211.75,-67C211.75,-67 132,-67 132,-67 126,-67 120,-61 120,-55 120,-55 120,-12 120,-12 120,-6 126,0 132,0 132,0 211.75,0 211.75,0 217.75,0 223.75,-6 223.75,-12 223.75,-12 223.75,-55 223.75,-55 223.75,-61 217.75,-67 211.75,-67"/>
<text xml:space="preserve" text-anchor="start" x="146" y="-46.7" font-family="Times,serif" font-weight="bold" font-size="14.00">Jumping</text>
<text xml:space="preserve" text-anchor="start" x="128" y="-21.5" font-family="Times,serif" font-size="10.00"> &#160;&#160;&#160;&#160;&#160;&#160;&#160;&#160;&#160;&#160;&#160;&#160;&#160;&#160;&#160;land()</text>
<text xml:space="preserve" text-anchor="start" x="128" y="-10.25" font-family="Times,serif" font-size="10.00"> &#160;&#160;&#160;&#160;&#160;&#160;&#160;&#160;&#160;&#160;&#160;&#160;&#160;&#160;&#160;state() &#160;&#160;&#160;&#160;&#160;&#160;&#160;&#160;&#160;&#160;&#160;</text>
<polygon fill="#00688b" stroke="#00688b" points="120,-36.5 120,-36.5 223.75,-36.5 223.75,-36.5 120,-36.5"/>
<path fill="none" stroke="#00688b" d="M132,0C132,0 211.75,0 211.75,0 217.75,0 223.75,-6 223.75,-12 223.75,-12 223.75,-55 223.75,-55 223.75,-61 217.75,-67 211.75,-67 211.75,-67 132,-67 132,-67 126,-67 120,-61 120,-55 120,-55 120,-12 120,-12 120,-6 126,0 132,0"/>
</g>
<!-- Idle&#45;&gt;Jumping -->
<g id="edge3" class="edge">
<title>Idle&#45;&gt;Jumping</title>
<path fill="none" stroke="red" d="M184.2,-392.48C188.76,-333.84 195.47,-217.64 186.88,-119.5 185.68,-105.88 183.43,-91.16 181.03,-77.87"/>
<polygon fill="red" stroke="red" points="184.48,-77.28 179.19,-68.1 177.61,-78.58 184.48,-77.28"/>
<text xml:space="preserve" text-anchor="middle" x="209.02" y="-218.95" font-family="Times,serif" font-size="14.00"> jump </text>
</g>
<!-- Walking&#45;&gt;Idle -->
<g id="edge6" class="edge">
<title>Walking&#45;&gt;Idle</title>
<path fill="none" stroke="red" d="M125.46,-339.46C129.31,-345.59 133.21,-351.82 136.88,-357.75 141.89,-365.86 147.18,-374.51 152.29,-382.91"/>
<polygon fill="red" stroke="red" points="149.21,-384.57 157.39,-391.31 155.19,-380.94 149.21,-384.57"/>
<text xml:space="preserve" text-anchor="middle" x="161.62" y="-360.95" font-family="Times,serif" font-size="14.00"> stop </text>
</g>
<!-- Running -->
<g id="node4" class="node">
<title>Running</title>
<path fill="azure" stroke="none" d="M91.75,-197.75C91.75,-197.75 12,-197.75 12,-197.75 6,-197.75 0,-191.75 0,-185.75 0,-185.75 0,-131.5 0,-131.5 0,-125.5 6,-119.5 12,-119.5 12,-119.5 91.75,-119.5 91.75,-119.5 97.75,-119.5 103.75,-125.5 103.75,-131.5 103.75,-131.5 103.75,-185.75 103.75,-185.75 103.75,-191.75 97.75,-197.75 91.75,-197.75"/>
<text xml:space="preserve" text-anchor="start" x="26.75" y="-177.45" font-family="Times,serif" font-weight="bold" font-size="14.00">Running</text>
<text xml:space="preserve" text-anchor="start" x="8" y="-152.25" font-family="Times,serif" font-size="10.00"> &#160;&#160;&#160;&#160;&#160;&#160;&#160;&#160;&#160;&#160;&#160;&#160;&#160;&#160;&#160;stop()</text>
<text xml:space="preserve" text-anchor="start" x="8" y="-141" font-family="Times,serif" font-size="10.00"> &#160;&#160;&#160;&#160;&#160;&#160;&#160;&#160;&#160;&#160;&#160;&#160;&#160;&#160;&#160;jump()</text>
<text xml:space="preserve" text-anchor="start" x="8" y="-129.75" font-family="Times,serif" font-size="10.00"> &#160;&#160;&#160;&#160;&#160;&#160;&#160;&#160;&#160;&#160;&#160;&#160;&#160;&#160;&#160;state() &#160;&#160;&#160;&#160;&#160;&#160;&#160;&#160;&#160;&#160;&#160;</text>
<polygon fill="#00688b" stroke="#00688b" points="0,-167.25 0,-167.25 103.75,-167.25 103.75,-167.25 0,-167.25"/>
<path fill="none" stroke="#00688b" d="M12,-119.5C12,-119.5 91.75,-119.5 91.75,-119.5 97.75,-119.5 103.75,-125.5 103.75,-131.5 103.75,-131.5 103.75,-185.75 103.75,-185.75 103.75,-191.75 97.75,-197.75 91.75,-197.75 91.75,-197.75 12,-197.75 12,-197.75 6,-197.75 0,-191.75 0,-185.75 0,-185.75 0,-131.5 0,-131.5 0,-125.5 6,-119.5 12,-119.5"/>
</g>
<!-- Walking&#45;&gt;Running -->
<g id="edge4" class="edge">
<title>Walking&#45;&gt;Running</title>
<path fill="none" stroke="red" d="M46.13,-251.39C41.5,-245.45 37.48,-239.04 34.62,-232.25 31.51,-224.86 30.91,-216.81 31.79,-208.83"/>
<polygon fill="red" stroke="red" points="35.19,-209.66 33.63,-199.19 28.32,-208.36 35.19,-209.66"/>
<text xml:space="preserve" text-anchor="middle" x="53.75" y="-218.95" font-family="Times,serif" font-size="14.00"> sprint </text>
</g>
<!-- Walking&#45;&gt;Jumping -->
<g id="edge5" class="edge">
<title>Walking&#45;&gt;Jumping</title>
<path fill="none" stroke="red" d="M110.34,-250.27C124.03,-202.27 145.88,-125.66 159.52,-77.82"/>
<polygon fill="red" stroke="red" points="162.84,-78.93 162.22,-68.35 156.11,-77.01 162.84,-78.93"/>
<text xml:space="preserve" text-anchor="middle" x="165.01" y="-153.57" font-family="Times,serif" font-size="14.00"> jump </text>
</g>
<!-- Running&#45;&gt;Walking -->
<g id="edge7" class="edge">
<title>Running&#45;&gt;Walking</title>
<path fill="none" stroke="red" d="M66.36,-197.57C68.59,-203.64 70.83,-209.85 72.88,-215.75 75.54,-223.44 78.26,-231.59 80.88,-239.61"/>
<polygon fill="red" stroke="red" points="77.5,-240.54 83.9,-248.98 84.16,-238.38 77.5,-240.54"/>
<text xml:space="preserve" text-anchor="middle" x="92.92" y="-218.95" font-family="Times,serif" font-size="14.00"> stop </text>
</g>
<!-- Running&#45;&gt;Jumping -->
<g id="edge8" class="edge">
<title>Running&#45;&gt;Jumping</title>
<path fill="none" stroke="red" d="M66.93,-119.69C72.89,-107.7 80.56,-94.99 89.88,-85 96.1,-78.32 103.41,-72.19 111.04,-66.68"/>
<polygon fill="red" stroke="red" points="112.57,-69.88 118.87,-61.36 108.63,-64.09 112.57,-69.88"/>
<text xml:space="preserve" text-anchor="middle" x="107.88" y="-88.2" font-family="Times,serif" font-size="14.00"> jump </text>
</g>
<!-- Jumping&#45;&gt;Idle -->
<g id="edge9" class="edge">
<title>Jumping&#45;&gt;Idle</title>
<path fill="none" stroke="red" d="M189.91,-66.87C192.82,-72.8 195.61,-79 197.88,-85 219.06,-141.06 223.49,-156.27 230.88,-215.75 238.07,-273.68 218.93,-338.79 202.29,-381.95"/>
<polygon fill="red" stroke="red" points="199.12,-380.44 198.69,-391.02 205.63,-383.02 199.12,-380.44"/>
<text xml:space="preserve" text-anchor="middle" x="247.58" y="-218.95" font-family="Times,serif" font-size="14.00"> land </text>
</g>
</g>
</svg>
