<?xml version="1.0" encoding="UTF-8" standalone="no"?>
<!DOCTYPE svg PUBLIC "-//W3C//DTD SVG 1.1//EN"
 "http://www.w3.org/Graphics/SVG/1.1/DTD/svg11.dtd">
<!-- Generated by graphviz version 14.1.5 (20260411.2331)
 -->
<!-- Title: Character Pages: 1 -->
<svg width="433pt" height="212pt"
 viewBox="0.00 0.00 433.00 212.00" xmlns="http://www.w3.org/2000/svg" xmlns:xlink="http://www.w3.org/1999/xlink">
<g id="graph0" class="graph" transform="scale(1 1) rotate(0) translate(4 207.75)">
<title>Character</title>
<polygon fill="white" stroke="none" points="-4,4 -4,-207.75 428.75,-207.75 428.75,4 -4,4"/>
<!-- Entry -->
<g id="node1" class="node">
<title>Entry</title>
<ellipse fill="black" stroke="#00688b" cx="51.88" cy="-159" rx="7.2" ry="7.2"/>
</g>
<!-- Idle -->
<g id="node2" class="node">
<title>Idle</title>
<path fill="azure" stroke="none" d="M91.75,-78.25C91.75,-78.25 12,-78.25 12,-78.25 6,-78.25 0,-72.25 0,-66.25 0,-66.25 0,-12 0,-12 0,-6 6,0 12,0 12,0 91.75,0 91.75,0 97.75,0 103.75,-6 103.75,-12 103.75,-12 103.75,-66.25 103.75,-66.25 103.75,-72.25 97.75,-78.25 91.75,-78.25"/>
<text xml:space="preserve" text-anchor="start" x="40.62" y="-57.95" font-family="Times,serif" font-weight="bold" font-size="14.00">Idle</text>
<text xml:space="preserve" text-anchor="start" x="19.62" y="-32.75" font-family="Times,serif" font-size="10.00"> &#160;&#160;&#160;&#160;&#160;&#160;&#160;&#160;&#160;&#160;&#160;&#160;&#160;&#160;&#160;move()</text>
<text xml:space="preserve" text-anchor="start" x="20.38" y="-21.5" font-family="Times,serif" font-size="10.00"> &#160;&#160;&#160;&#160;&#160;&#160;&#160;&#160;&#160;&#160;&#160;&#160;&#160;&#160;&#160;jump()</text>
<text xml:space="preserve" text-anchor="start" x="8" y="-10.25" font-family="Times,serif" font-size="10.00"> &#160;&#160;&#160;&#160;&#160;&#160;&#160;&#160;&#160;&#160;&#160;&#160;&#160;&#160;&#160;state() &#160;&#160;&#160;&#160;&#160;&#160;&#160;&#160;&#160;&#160;&#160;</text>
<polygon fill="#00688b" stroke="#00688b" points="0,-47.75 0,-47.75 103.75,-47.75 103.75,-47.75 0,-47.75"/>
<path fill="none" stroke="#00688b" d="M12,0C12,0 91.75,0 91.75,0 97.75,0 103.75,-6 103.75,-12 103.75,-12 103.75,-66.25 103.75,-66.25 103.75,-72.25 97.75,-78.25 91.75,-78.25 91.75,-78.25 12,-78.25 12,-78.25 6,-78.25 0,-72.25 0,-66.25 0,-66.25 0,-12 0,-12 0,-6 6,0 12,0"/>
</g>
<!-- Entry&#45;&gt;Idle -->
<g id="edge1" class="edge">
<title>Entry&#45;&gt;Idle</title>
<path fill="none" stroke="red" d="M51.88,-151.32C51.88,-139.4 51.88,-113.43 51.88,-89.59"/>
<polygon fill="red" stroke="red" points="55.38,-89.65 51.88,-79.65 48.38,-89.65 55.38,-89.65"/>
</g>
<!-- Walking -->
<g id="node3" class="node">
<title>Walking</title>
<path fill="azure" stroke="none" d="M168.75,-203.75C168.75,-203.75 89,-203.75 89,-203.75 83,-203.75 77,-197.75 77,-191.75 77,-191.75 77,-126.25 77,-126.25 77,-120.25 83,-114.25 89,-114.25 89,-114.25 168.75,-114.25 168.75,-114.25 174.75,-114.25 180.75,-120.25 180.75,-126.25 180.75,-126.25 180.75,-191.75 180.75,-191.75 180.75,-197.75 174.75,-203.75 168.75,-203.75"/>
<text xml:space="preserve" text-anchor="start" x="104.12" y="-183.45" font-family="Times,serif" font-weight="bold" font-size="14.00">Walking</text>
<text xml:space="preserve" text-anchor="start" x="96.25" y="-158.25" font-family="Times,serif" font-size="10.00"> &#160;&#160;&#160;&#160;&#160;&#160;&#160;&#160;&#160;&#160;&#160;&#160;&#160;&#160;&#160;sprint()</text>
<text xml:space="preserve" text-anchor="start" x="97.38" y="-147" font-family="Times,serif" font-size="10.00"> &#160;&#160;&#160;&#160;&#160;&#160;&#160;&#160;&#160;&#160;&#160;&#160;&#160;&#160;&#160;jump()</text>
<text xml:space="preserve" text-anchor="start" x="99.25" y="-135.75" font-family="Times,serif" font-size="10.00"> &#160;&#160;&#160;&#160;&#160;&#160;&#160;&#160;&#160;&#160;&#160;&#160;&#160;&#160;&#160;stop()</text>
<text xml:space="preserve" text-anchor="start" x="85" y="-124.5" font-family="Times,serif" font-size="10.00"> &#160;&#160;&#160;&#160;&#160;&#160;&#160;&#160;&#160;&#160;&#160;&#160;&#160;&#160;&#160;state() &#160;&#160;&#160;&#160;&#160;&#160;&#160;&#160;&#160;&#160;&#160;</text>
<polygon fill="#00688b" stroke="#00688b" points="77,-173.25 77,-173.25 180.75,-173.25 180.75,-173.25 77,-173.25"/>
<path fill="none" stroke="#00688b" d="M89,-114.25C89,-114.25 168.75,-114.25 168.75,-114.25 174.75,-114.25 180.75,-120.25 180.75,-126.25 180.75,-126.25 180.75,-191.75 180.75,-191.75 180.75,-197.75 174.75,-203.75 168.75,-203.75 168.75,-203.75 89,-203.75 89,-203.75 83,-203.75 77,-197.75 77,-191.75 77,-191.75 77,-126.25 77,-126.25 77,-120.25 83,-114.25 89,-114.25"/>
</g>
<!-- Running -->
<g id="node4" class="node">
<title>Running</title>
<path fill="azure" stroke="none" d="M290.75,-198.12C290.75,-198.12 211,-198.12 211,-198.12 205,-198.12 199,-192.12 199,-186.12 199,-186.12 199,-131.88 199,-131.88 199,-125.88 205,-119.88 211,-119.88 211,-119.88 290.75,-119.88 290.75,-119.88 296.75,-119.88 302.75,-125.88 302.75,-131.88 302.75,-131.88 302.75,-186.12 302.75,-186.12 302.75,-192.12 296.75,-198.12 290.75,-198.12"/>
<text xml:space="preserve" text-anchor="start" x="225.75" y="-177.82" font-family="Times,serif" font-weight="bold" font-size="14.00">Running</text>
<text xml:space="preserve" text-anchor="start" x="221.25" y="-152.62" font-family="Times,serif" font-size="10.00"> &#160;&#160;&#160;&#160;&#160;&#160;&#160;&#160;&#160;&#160;&#160;&#160;&#160;&#160;&#160;stop()</text>
<text xml:space="preserve" text-anchor="start" x="219.38" y="-141.38" font-family="Times,serif" font-size="10.00"> &#160;&#160;&#160;&#160;&#160;&#160;&#160;&#160;&#160;&#160;&#160;&#160;&#160;&#160;&#160;jump()</text>
<text xml:space="preserve" text-anchor="start" x="207" y="-130.12" font-family="Times,serif" font-size="10.00"> &#160;&#160;&#160;&#160;&#160;&#160;&#160;&#160;&#160;&#160;&#160;&#160;&#160;&#160;&#160;state() &#160;&#160;&#160;&#160;&#160;&#160;&#160;&#160;&#160;&#160;&#160;</text>
<polygon fill="#00688b" stroke="#00688b" points="199,-167.62 199,-167.62 302.75,-167.62 302.75,-167.62 199,-167.62"/>
<path fill="none" stroke="#00688b" d="M211,-119.88C211,-119.88 290.75,-119.88 290.75,-119.88 296.75,-119.88 302.75,-125.88 302.75,-131.88 302.75,-131.88 302.75,-186.12 302.75,-186.12 302.75,-192.12 296.75,-198.12 290.75,-198.12 290.75,-198.12 211,-198.12 211,-198.12 205,-198.12 199,-192.12 199,-186.12 199,-186.12 199,-131.88 199,-131.88 199,-125.88 205,-119.88 211,-119.88"/>
</g>
<!-- Jumping -->
<g id="node5" class="node">
<title>Jumping</title>
<path fill="azure" stroke="none" d="M412.75,-192.5C412.75,-192.5 333,-192.5 333,-192.5 327,-192.5 321,-186.5 321,-180.5 321,-180.5 321,-137.5 321,-137.5 321,-131.5 327,-125.5 333,-125.5 333,-125.5 412.75,-125.5 412.75,-125.5 418.75,-125.5 424.75,-131.5 424.75,-137.5 424.75,-137.5 424.75,-180.5 424.75,-180.5 424.75,-186.5 418.75,-192.5 412.75,-192.5"/>
<text xml:space="preserve" text-anchor="start" x="347" y="-172.2" font-family="Times,serif" font-weight="bold" font-size="14.00">Jumping</text>
<text xml:space="preserve" text-anchor="start" x="342.88" y="-147" font-family="Times,serif" font-size="10.00"> &#160;&#160;&#160;&#160;&#160;&#160;&#160;&#160;&#160;&#160;&#160;&#160;&#160;&#160;&#160;land()</text>
<text xml:space="preserve" text-anchor="start" x="329" y="-135.75" font-family="Times,serif" font-size="10.00"> &#160;&#160;&#160;&#160;&#160;&#160;&#160;&#160;&#160;&#160;&#160;&#160;&#160;&#160;&#160;state() &#160;&#160;&#160;&#160;&#160;&#160;&#160;&#160;&#160;&#160;&#160;</text>
<polygon fill="#00688b" stroke="#00688b" points="321,-162 321,-162 424.75,-162 424.75,-162 321,-162"/>
<path fill="none" stroke="#00688b" d="M333,-125.5C333,-125.5 412.75,-125.5 412.75,-125.5 418.75,-125.5 424.75,-131.5 424.75,-137.5 424.75,-137.5 424.75,-180.5 424.75,-180.5 424.75,-186.5 418.75,-192.5 412.75,-192.5 412.75,-192.5 333,-192.5 333,-192.5 327,-192.5 321,-186.5 321,-180.5 321,-180.5 321,-137.5 321,-137.5 321,-131.5 327,-125.5 333,-125.5"/>
</g>
</g>
</svg>
