<?xml version="1.0" encoding="UTF-8" standalone="no"?>
<!DOCTYPE svg PUBLIC "-//W3C//DTD SVG 1.1//EN"
 "http://www.w3.org/Graphics/SVG/1.1/DTD/svg11.dtd">
<!-- Generated by graphviz version 14.1.5 (20260411.2331)
 -->
<!-- Title: Agent Pages: 1 -->
<svg width="83pt" height="291pt"
 viewBox="0.00 0.00 83.00 291.00" xmlns="http://www.w3.org/2000/svg" xmlns:xlink="http://www.w3.org/1999/xlink">
<g id="graph0" class="graph" transform="scale(1 1) rotate(0) translate(4 286.9)">
<title>Agent</title>
<polygon fill="white" stroke="none" points="-4,4 -4,-286.9 79.49,-286.9 79.49,4 -4,4"/>
<!-- Entry -->
<g id="node1" class="node">
<title>Entry</title>
<ellipse fill="black" stroke="#00688b" cx="36.88" cy="-275.7" rx="7.2" ry="7.2"/>
</g>
<!-- Exploring -->
<g id="node2" class="node">
<title>Exploring</title>
<path fill="azure" stroke="none" d="M61.75,-231.5C61.75,-231.5 12,-231.5 12,-231.5 6,-231.5 0,-225.5 0,-219.5 0,-219.5 0,-154 0,-154 0,-148 6,-142 12,-142 12,-142 61.75,-142 61.75,-142 67.75,-142 73.75,-148 73.75,-154 73.75,-154 73.75,-219.5 73.75,-219.5 73.75,-225.5 67.75,-231.5 61.75,-231.5"/>
<text xml:space="preserve" text-anchor="start" x="8" y="-211.2" font-family="Times,serif" font-weight="bold" font-size="14.00">Exploring</text>
<text xml:space="preserve" text-anchor="start" x="8" y="-186" font-family="Times,serif" font-size="10.00">tick()</text>
<text xml:space="preserve" text-anchor="start" x="8" y="-174.75" font-family="Times,serif" font-size="10.00">threat()</text>
<text xml:space="preserve" text-anchor="start" x="8" y="-163.5" font-family="Times,serif" font-size="10.00">get_log()</text>
<text xml:space="preserve" text-anchor="start" x="13.25" y="-152.25" font-family="Times,serif" font-size="10.00"> &#160;&#160;&#160;&#160;&#160;&#160;&#160;&#160;&#160;&#160;&#160;</text>
<polygon fill="#00688b" stroke="#00688b" points="0,-201 0,-201 73.75,-201 73.75,-201 0,-201"/>
<path fill="none" stroke="#00688b" d="M12,-142C12,-142 61.75,-142 61.75,-142 67.75,-142 73.75,-148 73.75,-154 73.75,-154 73.75,-219.5 73.75,-219.5 73.75,-225.5 67.75,-231.5 61.75,-231.5 61.75,-231.5 12,-231.5 12,-231.5 6,-231.5 0,-225.5 0,-219.5 0,-219.5 0,-154 0,-154 0,-148 6,-142 12,-142"/>
</g>
<!-- Entry&#45;&gt;Exploring -->
<g id="edge1" class="edge">
<title>Entry&#45;&gt;Exploring</title>
<path fill="none" stroke="red" d="M36.88,-268.16C36.88,-262.25 36.88,-252.91 36.88,-242.66"/>
<polygon fill="red" stroke="red" points="40.38,-242.81 36.88,-232.81 33.38,-242.81 40.38,-242.81"/>
</g>
<!-- Fleeing -->
<g id="node3" class="node">
<title>Fleeing</title>
<path fill="azure" stroke="none" d="M53.88,-89.5C53.88,-89.5 19.88,-89.5 19.88,-89.5 13.88,-89.5 7.88,-83.5 7.88,-77.5 7.88,-77.5 7.88,-12 7.88,-12 7.88,-6 13.88,0 19.88,0 19.88,0 53.88,0 53.88,0 59.88,0 65.88,-6 65.88,-12 65.88,-12 65.88,-77.5 65.88,-77.5 65.88,-83.5 59.88,-89.5 53.88,-89.5"/>
<text xml:space="preserve" text-anchor="start" x="15.88" y="-69.2" font-family="Times,serif" font-weight="bold" font-size="14.00">Fleeing</text>
<text xml:space="preserve" text-anchor="start" x="15.88" y="-44" font-family="Times,serif" font-size="10.00">tick()</text>
<text xml:space="preserve" text-anchor="start" x="15.88" y="-32.75" font-family="Times,serif" font-size="10.00">safe()</text>
<text xml:space="preserve" text-anchor="start" x="15.88" y="-21.5" font-family="Times,serif" font-size="10.00">get_log()</text>
<text xml:space="preserve" text-anchor="start" x="21.12" y="-10.25" font-family="Times,serif" font-size="10.00"> &#160;&#160;&#160;&#160;&#160;&#160;&#160;&#160;&#160;&#160;&#160;</text>
<polygon fill="#00688b" stroke="#00688b" points="7.88,-59 7.88,-59 65.88,-59 65.88,-59 7.88,-59"/>
<path fill="none" stroke="#00688b" d="M19.88,0C19.88,0 53.88,0 53.88,0 59.88,0 65.88,-6 65.88,-12 65.88,-12 65.88,-77.5 65.88,-77.5 65.88,-83.5 59.88,-89.5 53.88,-89.5 53.88,-89.5 19.88,-89.5 19.88,-89.5 13.88,-89.5 7.88,-83.5 7.88,-77.5 7.88,-77.5 7.88,-12 7.88,-12 7.88,-6 13.88,0 19.88,0"/>
</g>
<!-- Exploring&#45;&gt;Fleeing -->
<g id="edge2" class="edge">
<title>Exploring&#45;&gt;Fleeing</title>
<path fill="none" stroke="red" d="M13.33,-142.07C10.99,-136.14 8.98,-130.02 7.62,-124 5.87,-116.21 6.23,-108.15 7.86,-100.3"/>
<polygon fill="red" stroke="red" points="11.18,-101.42 10.53,-90.84 4.45,-99.52 11.18,-101.42"/>
<text xml:space="preserve" text-anchor="middle" x="26.75" y="-110.7" font-family="Times,serif" font-size="14.00"> threat </text>
</g>
<!-- Fleeing&#45;&gt;Exploring -->
<g id="edge3" class="edge">
<title>Fleeing&#45;&gt;Exploring</title>
<path fill="none" stroke="red" d="M44.01,-89.18C44.78,-95.32 45.44,-101.56 45.88,-107.5 46.43,-115.11 46.31,-123.11 45.79,-130.98"/>
<polygon fill="red" stroke="red" points="42.31,-130.57 44.91,-140.84 49.29,-131.2 42.31,-130.57"/>
<text xml:space="preserve" text-anchor="middle" x="60.86" y="-110.7" font-family="Times,serif" font-size="14.00"> safe </text>
</g>
</g>
</svg>
