<?xml version="1.0" encoding="UTF-8" standalone="no"?>
<!DOCTYPE svg PUBLIC "-//W3C//DTD SVG 1.1//EN"
 "http://www.w3.org/Graphics/SVG/1.1/DTD/svg11.dtd">
<!-- Generated by graphviz version 14.1.5 (20260411.2331)
 -->
<!-- Title: Debouncer Pages: 1 -->
<svg width="140pt" height="379pt"
 viewBox="0.00 0.00 140.00 379.00" xmlns="http://www.w3.org/2000/svg" xmlns:xlink="http://www.w3.org/1999/xlink">
<g id="graph0" class="graph" transform="scale(1 1) rotate(0) translate(4 375.4)">
<title>Debouncer</title>
<polygon fill="white" stroke="none" points="-4,4 -4,-375.4 136.49,-375.4 136.49,4 -4,4"/>
<!-- Entry -->
<g id="node1" class="node">
<title>Entry</title>
<ellipse fill="black" stroke="#00688b" cx="45.65" cy="-364.2" rx="7.2" ry="7.2"/>
</g>
<!-- Released -->
<g id="node2" class="node">
<title>Released</title>
<path fill="azure" stroke="none" d="M70.53,-320C70.53,-320 20.78,-320 20.78,-320 14.78,-320 8.78,-314 8.78,-308 8.78,-308 8.78,-198.25 8.78,-198.25 8.78,-192.25 14.78,-186.25 20.78,-186.25 20.78,-186.25 70.53,-186.25 70.53,-186.25 76.53,-186.25 82.53,-192.25 82.53,-198.25 82.53,-198.25 82.53,-308 82.53,-308 82.53,-314 76.53,-320 70.53,-320"/>
<text xml:space="preserve" text-anchor="start" x="20.15" y="-299.7" font-family="Times,serif" font-weight="bold" font-size="14.00">Released</text>
<text xml:space="preserve" text-anchor="start" x="16.78" y="-274.5" font-family="Times,serif" font-size="10.00">raw_high()</text>
<text xml:space="preserve" text-anchor="start" x="16.78" y="-263.25" font-family="Times,serif" font-size="10.00">raw_low()</text>
<text xml:space="preserve" text-anchor="start" x="16.78" y="-252" font-family="Times,serif" font-size="10.00">tick()</text>
<text xml:space="preserve" text-anchor="start" x="16.78" y="-240.75" font-family="Times,serif" font-size="10.00">is_pressed()</text>
<text xml:space="preserve" text-anchor="start" x="27.28" y="-229.5" font-family="Times,serif" font-size="10.00"> &#160;&#160;&#160;&#160;&#160;&#160;&#160;&#160;&#160;&#160;&#160;</text>
<text xml:space="preserve" text-anchor="start" x="16.78" y="-207" font-family="Times,serif" font-size="9.00" fill="#666666">stable_count: int</text>
<text xml:space="preserve" text-anchor="start" x="32.15" y="-196.5" font-family="Times,serif" font-size="9.00" fill="#666666"> &#160;&#160;&#160;&#160;&#160;&#160;&#160;&#160;&#160;&#160;&#160;</text>
<polygon fill="#00688b" stroke="#00688b" points="8.78,-289.5 8.78,-289.5 82.53,-289.5 82.53,-289.5 8.78,-289.5"/>
<polygon fill="#00688b" stroke="#00688b" points="8.78,-221.25 8.78,-221.25 82.53,-221.25 82.53,-221.25 8.78,-221.25"/>
<path fill="none" stroke="#00688b" d="M20.78,-186.25C20.78,-186.25 70.53,-186.25 70.53,-186.25 76.53,-186.25 82.53,-192.25 82.53,-198.25 82.53,-198.25 82.53,-308 82.53,-308 82.53,-314 76.53,-320 70.53,-320 70.53,-320 20.78,-320 20.78,-320 14.78,-320 8.78,-314 8.78,-308 8.78,-308 8.78,-198.25 8.78,-198.25 8.78,-192.25 14.78,-186.25 20.78,-186.25"/>
</g>
<!-- Entry&#45;&gt;Released -->
<g id="edge1" class="edge">
<title>Entry&#45;&gt;Released</title>
<path fill="none" stroke="red" d="M45.65,-356.7C45.65,-350.92 45.65,-341.75 45.65,-331.23"/>
<polygon fill="red" stroke="red" points="49.15,-331.36 45.65,-321.36 42.15,-331.36 49.15,-331.36"/>
</g>
<!-- Pressed -->
<g id="node3" class="node">
<title>Pressed</title>
<path fill="azure" stroke="none" d="M70.53,-133.75C70.53,-133.75 20.78,-133.75 20.78,-133.75 14.78,-133.75 8.78,-127.75 8.78,-121.75 8.78,-121.75 8.78,-12 8.78,-12 8.78,-6 14.78,0 20.78,0 20.78,0 70.53,0 70.53,0 76.53,0 82.53,-6 82.53,-12 82.53,-12 82.53,-121.75 82.53,-121.75 82.53,-127.75 76.53,-133.75 70.53,-133.75"/>
<text xml:space="preserve" text-anchor="start" x="23.53" y="-113.45" font-family="Times,serif" font-weight="bold" font-size="14.00">Pressed</text>
<text xml:space="preserve" text-anchor="start" x="16.78" y="-88.25" font-family="Times,serif" font-size="10.00">raw_low()</text>
<text xml:space="preserve" text-anchor="start" x="16.78" y="-77" font-family="Times,serif" font-size="10.00">raw_high()</text>
<text xml:space="preserve" text-anchor="start" x="16.78" y="-65.75" font-family="Times,serif" font-size="10.00">tick()</text>
<text xml:space="preserve" text-anchor="start" x="16.78" y="-54.5" font-family="Times,serif" font-size="10.00">is_pressed()</text>
<text xml:space="preserve" text-anchor="start" x="27.28" y="-43.25" font-family="Times,serif" font-size="10.00"> &#160;&#160;&#160;&#160;&#160;&#160;&#160;&#160;&#160;&#160;&#160;</text>
<text xml:space="preserve" text-anchor="start" x="16.78" y="-20.75" font-family="Times,serif" font-size="9.00" fill="#666666">stable_count: int</text>
<text xml:space="preserve" text-anchor="start" x="32.15" y="-10.25" font-family="Times,serif" font-size="9.00" fill="#666666"> &#160;&#160;&#160;&#160;&#160;&#160;&#160;&#160;&#160;&#160;&#160;</text>
<polygon fill="#00688b" stroke="#00688b" points="8.78,-103.25 8.78,-103.25 82.53,-103.25 82.53,-103.25 8.78,-103.25"/>
<polygon fill="#00688b" stroke="#00688b" points="8.78,-35 8.78,-35 82.53,-35 82.53,-35 8.78,-35"/>
<path fill="none" stroke="#00688b" d="M20.78,0C20.78,0 70.53,0 70.53,0 76.53,0 82.53,-6 82.53,-12 82.53,-12 82.53,-121.75 82.53,-121.75 82.53,-127.75 76.53,-133.75 70.53,-133.75 70.53,-133.75 20.78,-133.75 20.78,-133.75 14.78,-133.75 8.78,-127.75 8.78,-121.75 8.78,-121.75 8.78,-12 8.78,-12 8.78,-6 14.78,0 20.78,0"/>
</g>
<!-- Released&#45;&gt;Pressed -->
<g id="edge2" class="edge">
<title>Released&#45;&gt;Pressed</title>
<path fill="none" stroke="red" d="M8.87,-189.27C6.04,-182.35 3.62,-175.27 1.9,-168.25 -1.2,-155.61 0.49,-142.56 4.62,-130.21"/>
<polygon fill="red" stroke="red" points="7.85,-131.57 8.27,-120.98 1.34,-128.99 7.85,-131.57"/>
<text xml:space="preserve" text-anchor="middle" x="35.28" y="-154.95" font-family="Times,serif" font-size="14.00"> stable high </text>
</g>
<!-- Pressed&#45;&gt;Released -->
<g id="edge3" class="edge">
<title>Pressed&#45;&gt;Released</title>
<path fill="none" stroke="red" d="M67.68,-133.7C69.51,-145.15 70.17,-157 68.65,-168.25 68.34,-170.59 67.98,-172.95 67.57,-175.33"/>
<polygon fill="red" stroke="red" points="64.16,-174.57 65.71,-185.05 71.03,-175.89 64.16,-174.57"/>
<text xml:space="preserve" text-anchor="middle" x="100.99" y="-154.95" font-family="Times,serif" font-size="14.00"> stable low </text>
</g>
</g>
</svg>
