<?xml version="1.0" encoding="UTF-8" standalone="no"?>
<!DOCTYPE svg PUBLIC "-//W3C//DTD SVG 1.1//EN"
 "http://www.w3.org/Graphics/SVG/1.1/DTD/svg11.dtd">
<!-- Generated by graphviz version 14.1.5 (20260411.2331)
 -->
<!-- Title: Agent Pages: 1 -->
<svg width="125pt" height="268pt"
 viewBox="0.00 0.00 125.00 268.00" xmlns="http://www.w3.org/2000/svg" xmlns:xlink="http://www.w3.org/1999/xlink">
<g id="graph0" class="graph" transform="scale(1 1) rotate(0) translate(4 264.4)">
<title>Agent</title>
<polygon fill="white" stroke="none" points="-4,4 -4,-264.4 120.5,-264.4 120.5,4 -4,4"/>
<!-- Entry -->
<g id="node1" class="node">
<title>Entry</title>
<ellipse fill="black" stroke="#00688b" cx="58.25" cy="-253.2" rx="7.2" ry="7.2"/>
</g>
<!-- Exploring -->
<g id="node2" class="node">
<title>Exploring</title>
<path fill="azure" stroke="none" d="M104.5,-209C104.5,-209 12,-209 12,-209 6,-209 0,-203 0,-197 0,-197 0,-142.75 0,-142.75 0,-136.75 6,-130.75 12,-130.75 12,-130.75 104.5,-130.75 104.5,-130.75 110.5,-130.75 116.5,-136.75 116.5,-142.75 116.5,-142.75 116.5,-197 116.5,-197 116.5,-203 110.5,-209 104.5,-209"/>
<text xml:space="preserve" text-anchor="start" x="29.38" y="-188.7" font-family="Times,serif" font-weight="bold" font-size="14.00">Exploring</text>
<text xml:space="preserve" text-anchor="start" x="8" y="-163.5" font-family="Times,serif" font-size="10.00"> &#160;&#160;&#160;&#160;&#160;&#160;&#160;&#160;&#160;&#160;&#160;&#160;&#160;&#160;&#160;tick()</text>
<text xml:space="preserve" text-anchor="start" x="8" y="-152.25" font-family="Times,serif" font-size="10.00"> &#160;&#160;&#160;&#160;&#160;&#160;&#160;&#160;&#160;&#160;&#160;&#160;&#160;&#160;&#160;threat()</text>
<text xml:space="preserve" text-anchor="start" x="8" y="-141" font-family="Times,serif" font-size="10.00"> &#160;&#160;&#160;&#160;&#160;&#160;&#160;&#160;&#160;&#160;&#160;&#160;&#160;&#160;&#160;get_log() &#160;&#160;&#160;&#160;&#160;&#160;&#160;&#160;&#160;&#160;&#160;</text>
<polygon fill="#00688b" stroke="#00688b" points="0,-178.5 0,-178.5 116.5,-178.5 116.5,-178.5 0,-178.5"/>
<path fill="none" stroke="#00688b" d="M12,-130.75C12,-130.75 104.5,-130.75 104.5,-130.75 110.5,-130.75 116.5,-136.75 116.5,-142.75 116.5,-142.75 116.5,-197 116.5,-197 116.5,-203 110.5,-209 104.5,-209 104.5,-209 12,-209 12,-209 6,-209 0,-203 0,-197 0,-197 0,-142.75 0,-142.75 0,-136.75 6,-130.75 12,-130.75"/>
</g>
<!-- Entry&#45;&gt;Exploring -->
<g id="edge1" class="edge">
<title>Entry&#45;&gt;Exploring</title>
<path fill="none" stroke="red" d="M58.25,-245.54C58.25,-239.53 58.25,-230.07 58.25,-219.88"/>
<polygon fill="red" stroke="red" points="61.75,-220.19 58.25,-210.19 54.75,-220.19 61.75,-220.19"/>
</g>
<!-- Fleeing -->
<g id="node3" class="node">
<title>Fleeing</title>
<path fill="azure" stroke="none" d="M104.5,-78.25C104.5,-78.25 12,-78.25 12,-78.25 6,-78.25 0,-72.25 0,-66.25 0,-66.25 0,-12 0,-12 0,-6 6,0 12,0 12,0 104.5,0 104.5,0 110.5,0 116.5,-6 116.5,-12 116.5,-12 116.5,-66.25 116.5,-66.25 116.5,-72.25 110.5,-78.25 104.5,-78.25"/>
<text xml:space="preserve" text-anchor="start" x="37.25" y="-57.95" font-family="Times,serif" font-weight="bold" font-size="14.00">Fleeing</text>
<text xml:space="preserve" text-anchor="start" x="8" y="-32.75" font-family="Times,serif" font-size="10.00"> &#160;&#160;&#160;&#160;&#160;&#160;&#160;&#160;&#160;&#160;&#160;&#160;&#160;&#160;&#160;tick()</text>
<text xml:space="preserve" text-anchor="start" x="8" y="-21.5" font-family="Times,serif" font-size="10.00"> &#160;&#160;&#160;&#160;&#160;&#160;&#160;&#160;&#160;&#160;&#160;&#160;&#160;&#160;&#160;safe()</text>
<text xml:space="preserve" text-anchor="start" x="8" y="-10.25" font-family="Times,serif" font-size="10.00"> &#160;&#160;&#160;&#160;&#160;&#160;&#160;&#160;&#160;&#160;&#160;&#160;&#160;&#160;&#160;get_log() &#160;&#160;&#160;&#160;&#160;&#160;&#160;&#160;&#160;&#160;&#160;</text>
<polygon fill="#00688b" stroke="#00688b" points="0,-47.75 0,-47.75 116.5,-47.75 116.5,-47.75 0,-47.75"/>
<path fill="none" stroke="#00688b" d="M12,0C12,0 104.5,0 104.5,0 110.5,0 116.5,-6 116.5,-12 116.5,-12 116.5,-66.25 116.5,-66.25 116.5,-72.25 110.5,-78.25 104.5,-78.25 104.5,-78.25 12,-78.25 12,-78.25 6,-78.25 0,-72.25 0,-66.25 0,-66.25 0,-12 0,-12 0,-6 6,0 12,0"/>
</g>
<!-- Exploring&#45;&gt;Fleeing -->
<g id="edge2" class="edge">
<title>Exploring&#45;&gt;Fleeing</title>
<path fill="none" stroke="red" d="M33.32,-131.11C28.72,-120.08 26.15,-107.87 29,-96.25 29.61,-93.78 30.34,-91.3 31.18,-88.82"/>
<polygon fill="red" stroke="red" points="34.43,-90.11 34.85,-79.52 27.92,-87.54 34.43,-90.11"/>
<text xml:space="preserve" text-anchor="middle" x="48.12" y="-99.45" font-family="Times,serif" font-size="14.00"> threat </text>
</g>
<!-- Fleeing&#45;&gt;Exploring -->
<g id="edge3" class="edge">
<title>Fleeing&#45;&gt;Exploring</title>
<path fill="none" stroke="red" d="M65.89,-78.13C67.33,-89.27 68.15,-101.48 67.25,-112.75 67.07,-115.06 66.84,-117.41 66.58,-119.78"/>
<polygon fill="red" stroke="red" points="63.14,-119.07 65.36,-129.43 70.09,-119.95 63.14,-119.07"/>
<text xml:space="preserve" text-anchor="middle" x="82.25" y="-99.45" font-family="Times,serif" font-size="14.00"> safe </text>
</g>
</g>
</svg>
