<?xml version="1.0" encoding="UTF-8" standalone="no"?>
<!DOCTYPE svg PUBLIC "-//W3C//DTD SVG 1.1//EN"
 "http://www.w3.org/Graphics/SVG/1.1/DTD/svg11.dtd">
<!-- Generated by graphviz version 14.1.5 (20260411.2331)
 -->
<!-- Title: Agent Pages: 1 -->
<svg width="89pt" height="268pt"
 viewBox="0.00 0.00 89.00 268.00" xmlns="http://www.w3.org/2000/svg" xmlns:xlink="http://www.w3.org/1999/xlink">
<g id="graph0" class="graph" transform="scale(1 1) rotate(0) translate(4 264.4)">
<title>Agent</title>
<polygon fill="white" stroke="none" points="-4,4 -4,-264.4 84.5,-264.4 84.5,4 -4,4"/>
<!-- Entry -->
<g id="node1" class="node">
<title>Entry</title>
<ellipse fill="black" stroke="#00688b" cx="40.25" cy="-253.2" rx="7.2" ry="7.2"/>
</g>
<!-- Exploring -->
<g id="node2" class="node">
<title>Exploring</title>
<path fill="azure" stroke="none" d="M68.5,-209C68.5,-209 12,-209 12,-209 6,-209 0,-203 0,-197 0,-197 0,-142.75 0,-142.75 0,-136.75 6,-130.75 12,-130.75 12,-130.75 68.5,-130.75 68.5,-130.75 74.5,-130.75 80.5,-136.75 80.5,-142.75 80.5,-142.75 80.5,-197 80.5,-197 80.5,-203 74.5,-209 68.5,-209"/>
<text xml:space="preserve" text-anchor="start" x="11.38" y="-188.7" font-family="Times,serif" font-weight="bold" font-size="14.00">Exploring</text>
<text xml:space="preserve" text-anchor="start" x="8" y="-152.34" font-family="Times,serif" font-size="10.00">tick()</text>
<text xml:space="preserve" text-anchor="start" x="8" y="-141.09" font-family="Times,serif" font-size="10.00">threat()</text>
<text xml:space="preserve" text-anchor="start" x="8" y="-129.84" font-family="Times,serif" font-size="10.00">get_log() &#160;&#160;&#160;&#160;&#160;&#160;&#160;&#160;&#160;&#160;&#160;</text>
<polygon fill="#00688b" stroke="#00688b" points="0,-178.5 0,-178.5 80.5,-178.5 80.5,-178.5 0,-178.5"/>
<path fill="none" stroke="#00688b" d="M12,-130.75C12,-130.75 68.5,-130.75 68.5,-130.75 74.5,-130.75 80.5,-136.75 80.5,-142.75 80.5,-142.75 80.5,-197 80.5,-197 80.5,-203 74.5,-209 68.5,-209 68.5,-209 12,-209 12,-209 6,-209 0,-203 0,-197 0,-197 0,-142.75 0,-142.75 0,-136.75 6,-130.75 12,-130.75"/>
</g>
<!-- Entry&#45;&gt;Exploring -->
<g id="edge1" class="edge">
<title>Entry&#45;&gt;Exploring</title>
<path fill="none" stroke="red" d="M40.25,-245.54C40.25,-239.53 40.25,-230.07 40.25,-219.88"/>
<polygon fill="red" stroke="red" points="43.75,-220.19 40.25,-210.19 36.75,-220.19 43.75,-220.19"/>
</g>
<!-- Fleeing -->
<g id="node3" class="node">
<title>Fleeing</title>
<path fill="azure" stroke="none" d="M68.5,-78.25C68.5,-78.25 12,-78.25 12,-78.25 6,-78.25 0,-72.25 0,-66.25 0,-66.25 0,-12 0,-12 0,-6 6,0 12,0 12,0 68.5,0 68.5,0 74.5,0 80.5,-6 80.5,-12 80.5,-12 80.5,-66.25 80.5,-66.25 80.5,-72.25 74.5,-78.25 68.5,-78.25"/>
<text xml:space="preserve" text-anchor="start" x="19.25" y="-57.95" font-family="Times,serif" font-weight="bold" font-size="14.00">Fleeing</text>
<text xml:space="preserve" text-anchor="start" x="8" y="-21.59" font-family="Times,serif" font-size="10.00">tick()</text>
<text xml:space="preserve" text-anchor="start" x="8" y="-10.34" font-family="Times,serif" font-size="10.00">safe()</text>
<text xml:space="preserve" text-anchor="start" x="8" y="0.91" font-family="Times,serif" font-size="10.00">get_log() &#160;&#160;&#160;&#160;&#160;&#160;&#160;&#160;&#160;&#160;&#160;</text>
<polygon fill="#00688b" stroke="#00688b" points="0,-47.75 0,-47.75 80.5,-47.75 80.5,-47.75 0,-47.75"/>
<path fill="none" stroke="#00688b" d="M12,0C12,0 68.5,0 68.5,0 74.5,0 80.5,-6 80.5,-12 80.5,-12 80.5,-66.25 80.5,-66.25 80.5,-72.25 74.5,-78.25 68.5,-78.25 68.5,-78.25 12,-78.25 12,-78.25 6,-78.25 0,-72.25 0,-66.25 0,-66.25 0,-12 0,-12 0,-6 6,0 12,0"/>
</g>
<!-- Exploring&#45;&gt;Fleeing -->
<g id="edge2" class="edge">
<title>Exploring&#45;&gt;Fleeing</title>
<path fill="none" stroke="red" d="M15.32,-131.11C10.72,-120.08 8.15,-107.87 11,-96.25 11.61,-93.78 12.34,-91.3 13.18,-88.82"/>
<polygon fill="red" stroke="red" points="16.43,-90.11 16.85,-79.52 9.92,-87.54 16.43,-90.11"/>
<text xml:space="preserve" text-anchor="middle" x="30.12" y="-99.45" font-family="Times,serif" font-size="14.00"> threat </text>
</g>
<!-- Fleeing&#45;&gt;Exploring -->
<g id="edge3" class="edge">
<title>Fleeing&#45;&gt;Exploring</title>
<path fill="none" stroke="red" d="M47.89,-78.13C49.33,-89.27 50.15,-101.48 49.25,-112.75 49.07,-115.06 48.84,-117.41 48.58,-119.78"/>
<polygon fill="red" stroke="red" points="45.14,-119.07 47.36,-129.43 52.09,-119.95 45.14,-119.07"/>
<text xml:space="preserve" text-anchor="middle" x="64.25" y="-99.45" font-family="Times,serif" font-size="14.00"> safe </text>
</g>
</g>
</svg>
