<?xml version="1.0" encoding="UTF-8" standalone="no"?>
<!DOCTYPE svg PUBLIC "-//W3C//DTD SVG 1.1//EN"
 "http://www.w3.org/Graphics/SVG/1.1/DTD/svg11.dtd">
<!-- Generated by graphviz version 14.1.5 (20260411.2331)
 -->
<!-- Title: LedBlinker Pages: 1 -->
<svg width="215pt" height="410pt"
 viewBox="0.00 0.00 215.00 410.00" xmlns="http://www.w3.org/2000/svg" xmlns:xlink="http://www.w3.org/1999/xlink">
<g id="graph0" class="graph" transform="scale(1 1) rotate(0) translate(4 406.4)">
<title>LedBlinker</title>
<polygon fill="white" stroke="none" points="-4,4 -4,-406.4 210.55,-406.4 210.55,4 -4,4"/>
<!-- Entry -->
<g id="node1" class="node">
<title>Entry</title>
<ellipse fill="black" stroke="#00688b" cx="107.41" cy="-395.2" rx="7.2" ry="7.2"/>
</g>
<!-- Disabled -->
<g id="node2" class="node">
<title>Disabled</title>
<path fill="azure" stroke="none" d="M128.54,-351C128.54,-351 86.29,-351 86.29,-351 80.29,-351 74.29,-345 74.29,-339 74.29,-339 74.29,-296 74.29,-296 74.29,-290 80.29,-284 86.29,-284 86.29,-284 128.54,-284 128.54,-284 134.54,-284 140.54,-290 140.54,-296 140.54,-296 140.54,-339 140.54,-339 140.54,-345 134.54,-351 128.54,-351"/>
<text xml:space="preserve" text-anchor="start" x="82.29" y="-330.7" font-family="Times,serif" font-weight="bold" font-size="14.00">Disabled</text>
<text xml:space="preserve" text-anchor="start" x="82.29" y="-305.5" font-family="Times,serif" font-size="10.00">enable()</text>
<text xml:space="preserve" text-anchor="start" x="85.29" y="-294.25" font-family="Times,serif" font-size="10.00"> &#160;&#160;&#160;&#160;&#160;&#160;&#160;&#160;&#160;&#160;&#160;</text>
<polygon fill="#00688b" stroke="#00688b" points="74.29,-320.5 74.29,-320.5 140.54,-320.5 140.54,-320.5 74.29,-320.5"/>
<path fill="none" stroke="#00688b" d="M86.29,-284C86.29,-284 128.54,-284 128.54,-284 134.54,-284 140.54,-290 140.54,-296 140.54,-296 140.54,-339 140.54,-339 140.54,-345 134.54,-351 128.54,-351 128.54,-351 86.29,-351 86.29,-351 80.29,-351 74.29,-345 74.29,-339 74.29,-339 74.29,-296 74.29,-296 74.29,-290 80.29,-284 86.29,-284"/>
</g>
<!-- Entry&#45;&gt;Disabled -->
<g id="edge1" class="edge">
<title>Entry&#45;&gt;Disabled</title>
<path fill="none" stroke="red" d="M107.41,-387.75C107.41,-381.77 107.41,-372.32 107.41,-362.3"/>
<polygon fill="red" stroke="red" points="110.91,-362.41 107.41,-352.41 103.91,-362.41 110.91,-362.41"/>
</g>
<!-- LedOff -->
<g id="node3" class="node">
<title>LedOff</title>
<path fill="azure" stroke="none" d="M85.41,-231.5C85.41,-231.5 45.41,-231.5 45.41,-231.5 39.41,-231.5 33.41,-225.5 33.41,-219.5 33.41,-219.5 33.41,-154 33.41,-154 33.41,-148 39.41,-142 45.41,-142 45.41,-142 85.41,-142 85.41,-142 91.41,-142 97.41,-148 97.41,-154 97.41,-154 97.41,-219.5 97.41,-219.5 97.41,-225.5 91.41,-231.5 85.41,-231.5"/>
<text xml:space="preserve" text-anchor="start" x="44.04" y="-211.2" font-family="Times,serif" font-weight="bold" font-size="14.00">LedOff</text>
<text xml:space="preserve" text-anchor="start" x="41.41" y="-186" font-family="Times,serif" font-size="10.00">timer_tick()</text>
<text xml:space="preserve" text-anchor="start" x="41.41" y="-174.75" font-family="Times,serif" font-size="10.00">disable()</text>
<text xml:space="preserve" text-anchor="start" x="41.41" y="-163.5" font-family="Times,serif" font-size="10.00">is_lit()</text>
<text xml:space="preserve" text-anchor="start" x="51.91" y="-152.25" font-family="Times,serif" font-size="10.00"> &#160;&#160;&#160;&#160;&#160;&#160;&#160;&#160;&#160;&#160;&#160;</text>
<polygon fill="#00688b" stroke="#00688b" points="33.41,-201 33.41,-201 97.41,-201 97.41,-201 33.41,-201"/>
<path fill="none" stroke="#00688b" d="M45.41,-142C45.41,-142 85.41,-142 85.41,-142 91.41,-142 97.41,-148 97.41,-154 97.41,-154 97.41,-219.5 97.41,-219.5 97.41,-225.5 91.41,-231.5 85.41,-231.5 85.41,-231.5 45.41,-231.5 45.41,-231.5 39.41,-231.5 33.41,-225.5 33.41,-219.5 33.41,-219.5 33.41,-154 33.41,-154 33.41,-148 39.41,-142 45.41,-142"/>
</g>
<!-- Disabled&#45;&gt;LedOff -->
<g id="edge2" class="edge">
<title>Disabled&#45;&gt;LedOff</title>
<path fill="none" stroke="red" d="M74.62,-299.48C62.23,-291.19 49.48,-279.96 42.66,-266 39.07,-258.66 38.27,-250.64 39.16,-242.63"/>
<polygon fill="red" stroke="red" points="42.59,-243.36 41.15,-232.87 35.73,-241.97 42.59,-243.36"/>
<text xml:space="preserve" text-anchor="middle" x="64.04" y="-252.7" font-family="Times,serif" font-size="14.00"> enable </text>
</g>
<!-- LedOff&#45;&gt;Disabled -->
<g id="edge4" class="edge">
<title>LedOff&#45;&gt;Disabled</title>
<path fill="none" stroke="red" d="M79.66,-231.42C84.04,-244.87 88.87,-259.67 93.26,-273.11"/>
<polygon fill="red" stroke="red" points="89.91,-274.15 96.34,-282.57 96.57,-271.98 89.91,-274.15"/>
<text xml:space="preserve" text-anchor="middle" x="113.05" y="-252.7" font-family="Times,serif" font-size="14.00"> disable </text>
</g>
<!-- LedOn -->
<g id="node4" class="node">
<title>LedOn</title>
<path fill="azure" stroke="none" d="M109.41,-89.5C109.41,-89.5 69.41,-89.5 69.41,-89.5 63.41,-89.5 57.41,-83.5 57.41,-77.5 57.41,-77.5 57.41,-12 57.41,-12 57.41,-6 63.41,0 69.41,0 69.41,0 109.41,0 109.41,0 115.41,0 121.41,-6 121.41,-12 121.41,-12 121.41,-77.5 121.41,-77.5 121.41,-83.5 115.41,-89.5 109.41,-89.5"/>
<text xml:space="preserve" text-anchor="start" x="68.79" y="-69.2" font-family="Times,serif" font-weight="bold" font-size="14.00">LedOn</text>
<text xml:space="preserve" text-anchor="start" x="65.41" y="-44" font-family="Times,serif" font-size="10.00">timer_tick()</text>
<text xml:space="preserve" text-anchor="start" x="65.41" y="-32.75" font-family="Times,serif" font-size="10.00">disable()</text>
<text xml:space="preserve" text-anchor="start" x="65.41" y="-21.5" font-family="Times,serif" font-size="10.00">is_lit()</text>
<text xml:space="preserve" text-anchor="start" x="75.91" y="-10.25" font-family="Times,serif" font-size="10.00"> &#160;&#160;&#160;&#160;&#160;&#160;&#160;&#160;&#160;&#160;&#160;</text>
<polygon fill="#00688b" stroke="#00688b" points="57.41,-59 57.41,-59 121.41,-59 121.41,-59 57.41,-59"/>
<path fill="none" stroke="#00688b" d="M69.41,0C69.41,0 109.41,0 109.41,0 115.41,0 121.41,-6 121.41,-12 121.41,-12 121.41,-77.5 121.41,-77.5 121.41,-83.5 115.41,-89.5 109.41,-89.5 109.41,-89.5 69.41,-89.5 69.41,-89.5 63.41,-89.5 57.41,-83.5 57.41,-77.5 57.41,-77.5 57.41,-12 57.41,-12 57.41,-6 63.41,0 69.41,0"/>
</g>
<!-- LedOff&#45;&gt;LedOn -->
<g id="edge3" class="edge">
<title>LedOff&#45;&gt;LedOn</title>
<path fill="none" stroke="red" d="M33.77,-166.66C13.26,-151.67 -7.7,-129.68 3.66,-107.5 13.1,-89.07 30.88,-74.89 47.81,-64.8"/>
<polygon fill="red" stroke="red" points="49.27,-67.99 56.29,-60.06 45.86,-61.88 49.27,-67.99"/>
<text xml:space="preserve" text-anchor="middle" x="35.54" y="-110.7" font-family="Times,serif" font-size="14.00"> timer_tick </text>
</g>
<!-- LedOn&#45;&gt;Disabled -->
<g id="edge6" class="edge">
<title>LedOn&#45;&gt;Disabled</title>
<path fill="none" stroke="red" d="M121.24,-72.16C130.9,-82.12 140.3,-94.27 145.41,-107.5 170.79,-173.25 161.71,-198.82 140.41,-266 139.55,-268.71 138.5,-271.41 137.32,-274.07"/>
<polygon fill="red" stroke="red" points="134.31,-272.28 132.85,-282.77 140.53,-275.47 134.31,-272.28"/>
<text xml:space="preserve" text-anchor="middle" x="183.68" y="-181.7" font-family="Times,serif" font-size="14.00"> disable </text>
</g>
<!-- LedOn&#45;&gt;LedOff -->
<g id="edge5" class="edge">
<title>LedOn&#45;&gt;LedOff</title>
<path fill="none" stroke="red" d="M81.95,-89.25C79.67,-102.55 77.14,-117.35 74.75,-131.28"/>
<polygon fill="red" stroke="red" points="71.37,-130.28 73.13,-140.73 78.27,-131.46 71.37,-130.28"/>
<text xml:space="preserve" text-anchor="middle" x="110" y="-110.7" font-family="Times,serif" font-size="14.00"> timer_tick </text>
</g>
</g>
</svg>
