<?xml version="1.0" encoding="UTF-8" standalone="no"?>
<!DOCTYPE svg PUBLIC "-//W3C//DTD SVG 1.1//EN"
 "http://www.w3.org/Graphics/SVG/1.1/DTD/svg11.dtd">
<!-- Generated by graphviz version 14.1.5 (20260411.2331)
 -->
<!-- Title: LedBlinker Pages: 1 -->
<svg width="215pt" height="377pt"
 viewBox="0.00 0.00 215.00 377.00" xmlns="http://www.w3.org/2000/svg" xmlns:xlink="http://www.w3.org/1999/xlink">
<g id="graph0" class="graph" transform="scale(1 1) rotate(0) translate(4 372.65)">
<title>LedBlinker</title>
<polygon fill="white" stroke="none" points="-4,4 -4,-372.65 211.21,-372.65 211.21,4 -4,4"/>
<!-- Entry -->
<g id="node1" class="node">
<title>Entry</title>
<ellipse fill="black" stroke="#00688b" cx="107.31" cy="-361.45" rx="7.2" ry="7.2"/>
</g>
<!-- Disabled -->
<g id="node2" class="node">
<title>Disabled</title>
<path fill="azure" stroke="none" d="M133.31,-317.25C133.31,-317.25 81.31,-317.25 81.31,-317.25 75.31,-317.25 69.31,-311.25 69.31,-305.25 69.31,-305.25 69.31,-273.5 69.31,-273.5 69.31,-267.5 75.31,-261.5 81.31,-261.5 81.31,-261.5 133.31,-261.5 133.31,-261.5 139.31,-261.5 145.31,-267.5 145.31,-273.5 145.31,-273.5 145.31,-305.25 145.31,-305.25 145.31,-311.25 139.31,-317.25 133.31,-317.25"/>
<text xml:space="preserve" text-anchor="start" x="82.19" y="-296.95" font-family="Times,serif" font-weight="bold" font-size="14.00">Disabled</text>
<text xml:space="preserve" text-anchor="start" x="77.31" y="-260.59" font-family="Times,serif" font-size="10.00">enable() &#160;&#160;&#160;&#160;&#160;&#160;&#160;&#160;&#160;&#160;&#160;</text>
<polygon fill="#00688b" stroke="#00688b" points="69.31,-286.75 69.31,-286.75 145.31,-286.75 145.31,-286.75 69.31,-286.75"/>
<path fill="none" stroke="#00688b" d="M81.31,-261.5C81.31,-261.5 133.31,-261.5 133.31,-261.5 139.31,-261.5 145.31,-267.5 145.31,-273.5 145.31,-273.5 145.31,-305.25 145.31,-305.25 145.31,-311.25 139.31,-317.25 133.31,-317.25 133.31,-317.25 81.31,-317.25 81.31,-317.25 75.31,-317.25 69.31,-311.25 69.31,-305.25 69.31,-305.25 69.31,-273.5 69.31,-273.5 69.31,-267.5 75.31,-261.5 81.31,-261.5"/>
</g>
<!-- Entry&#45;&gt;Disabled -->
<g id="edge1" class="edge">
<title>Entry&#45;&gt;Disabled</title>
<path fill="none" stroke="red" d="M107.31,-353.98C107.31,-347.88 107.31,-338.19 107.31,-328.2"/>
<polygon fill="red" stroke="red" points="110.82,-328.48 107.31,-318.48 103.82,-328.48 110.82,-328.48"/>
</g>
<!-- LedOff -->
<g id="node3" class="node">
<title>LedOff</title>
<path fill="azure" stroke="none" d="M88.31,-209C88.31,-209 42.31,-209 42.31,-209 36.31,-209 30.31,-203 30.31,-197 30.31,-197 30.31,-142.75 30.31,-142.75 30.31,-136.75 36.31,-130.75 42.31,-130.75 42.31,-130.75 88.31,-130.75 88.31,-130.75 94.31,-130.75 100.31,-136.75 100.31,-142.75 100.31,-142.75 100.31,-197 100.31,-197 100.31,-203 94.31,-209 88.31,-209"/>
<text xml:space="preserve" text-anchor="start" x="43.94" y="-188.7" font-family="Times,serif" font-weight="bold" font-size="14.00">LedOff</text>
<text xml:space="preserve" text-anchor="start" x="38.31" y="-152.34" font-family="Times,serif" font-size="10.00">timer_tick()</text>
<text xml:space="preserve" text-anchor="start" x="38.31" y="-141.09" font-family="Times,serif" font-size="10.00">disable()</text>
<text xml:space="preserve" text-anchor="start" x="38.31" y="-129.84" font-family="Times,serif" font-size="10.00">is_lit() &#160;&#160;&#160;&#160;&#160;&#160;&#160;&#160;&#160;&#160;&#160;</text>
<polygon fill="#00688b" stroke="#00688b" points="30.31,-178.5 30.31,-178.5 100.31,-178.5 100.31,-178.5 30.31,-178.5"/>
<path fill="none" stroke="#00688b" d="M42.31,-130.75C42.31,-130.75 88.31,-130.75 88.31,-130.75 94.31,-130.75 100.31,-136.75 100.31,-142.75 100.31,-142.75 100.31,-197 100.31,-197 100.31,-203 94.31,-209 88.31,-209 88.31,-209 42.31,-209 42.31,-209 36.31,-209 30.31,-203 30.31,-197 30.31,-197 30.31,-142.75 30.31,-142.75 30.31,-136.75 36.31,-130.75 42.31,-130.75"/>
</g>
<!-- Disabled&#45;&gt;LedOff -->
<g id="edge2" class="edge">
<title>Disabled&#45;&gt;LedOff</title>
<path fill="none" stroke="red" d="M69.51,-270.89C58.84,-263.97 48.53,-254.89 42.56,-243.5 38.69,-236.1 38.12,-227.92 39.45,-219.8"/>
<polygon fill="red" stroke="red" points="42.79,-220.87 41.94,-210.31 36.02,-219.09 42.79,-220.87"/>
<text xml:space="preserve" text-anchor="middle" x="63.94" y="-230.2" font-family="Times,serif" font-size="14.00"> enable </text>
</g>
<!-- LedOff&#45;&gt;Disabled -->
<g id="edge4" class="edge">
<title>LedOff&#45;&gt;Disabled</title>
<path fill="none" stroke="red" d="M78.79,-208.57C83.67,-222.23 89.18,-237.64 94.04,-251.25"/>
<polygon fill="red" stroke="red" points="90.61,-252.05 97.28,-260.29 97.2,-249.69 90.61,-252.05"/>
<text xml:space="preserve" text-anchor="middle" x="112.95" y="-230.2" font-family="Times,serif" font-size="14.00"> disable </text>
</g>
<!-- LedOn -->
<g id="node4" class="node">
<title>LedOn</title>
<path fill="azure" stroke="none" d="M112.31,-78.25C112.31,-78.25 66.31,-78.25 66.31,-78.25 60.31,-78.25 54.31,-72.25 54.31,-66.25 54.31,-66.25 54.31,-12 54.31,-12 54.31,-6 60.31,0 66.31,0 66.31,0 112.31,0 112.31,0 118.31,0 124.31,-6 124.31,-12 124.31,-12 124.31,-66.25 124.31,-66.25 124.31,-72.25 118.31,-78.25 112.31,-78.25"/>
<text xml:space="preserve" text-anchor="start" x="68.69" y="-57.95" font-family="Times,serif" font-weight="bold" font-size="14.00">LedOn</text>
<text xml:space="preserve" text-anchor="start" x="62.31" y="-21.59" font-family="Times,serif" font-size="10.00">timer_tick()</text>
<text xml:space="preserve" text-anchor="start" x="62.31" y="-10.34" font-family="Times,serif" font-size="10.00">disable()</text>
<text xml:space="preserve" text-anchor="start" x="62.31" y="0.91" font-family="Times,serif" font-size="10.00">is_lit() &#160;&#160;&#160;&#160;&#160;&#160;&#160;&#160;&#160;&#160;&#160;</text>
<polygon fill="#00688b" stroke="#00688b" points="54.31,-47.75 54.31,-47.75 124.31,-47.75 124.31,-47.75 54.31,-47.75"/>
<path fill="none" stroke="#00688b" d="M66.31,0C66.31,0 112.31,0 112.31,0 118.31,0 124.31,-6 124.31,-12 124.31,-12 124.31,-66.25 124.31,-66.25 124.31,-72.25 118.31,-78.25 112.31,-78.25 112.31,-78.25 66.31,-78.25 66.31,-78.25 60.31,-78.25 54.31,-72.25 54.31,-66.25 54.31,-66.25 54.31,-12 54.31,-12 54.31,-6 60.31,0 66.31,0"/>
</g>
<!-- LedOff&#45;&gt;LedOn -->
<g id="edge3" class="edge">
<title>LedOff&#45;&gt;LedOn</title>
<path fill="none" stroke="red" d="M30.7,-149.32C11.22,-135.59 -7.22,-116.2 3.56,-96.25 12.53,-79.66 28.78,-67.19 44.73,-58.26"/>
<polygon fill="red" stroke="red" points="45.96,-61.57 53.22,-53.86 42.73,-55.36 45.96,-61.57"/>
<text xml:space="preserve" text-anchor="middle" x="35.44" y="-99.45" font-family="Times,serif" font-size="14.00"> timer_tick </text>
</g>
<!-- LedOn&#45;&gt;Disabled -->
<g id="edge6" class="edge">
<title>LedOn&#45;&gt;Disabled</title>
<path fill="none" stroke="red" d="M124.04,-65.77C133.01,-74.36 141.49,-84.72 146.31,-96.25 171.61,-156.67 162.16,-181.75 140.31,-243.5 139.29,-246.39 138.02,-249.26 136.57,-252.05"/>
<polygon fill="red" stroke="red" points="133.62,-250.17 131.47,-260.54 139.62,-253.77 133.62,-250.17"/>
<text xml:space="preserve" text-anchor="middle" x="184.33" y="-164.82" font-family="Times,serif" font-size="14.00"> disable </text>
</g>
<!-- LedOn&#45;&gt;LedOff -->
<g id="edge5" class="edge">
<title>LedOn&#45;&gt;LedOff</title>
<path fill="none" stroke="red" d="M82.21,-78.23C79.79,-91.23 77.04,-105.95 74.48,-119.69"/>
<polygon fill="red" stroke="red" points="71.06,-118.98 72.66,-129.45 77.94,-120.26 71.06,-118.98"/>
<text xml:space="preserve" text-anchor="middle" x="110.63" y="-99.45" font-family="Times,serif" font-size="14.00"> timer_tick </text>
</g>
</g>
</svg>
