<?xml version="1.0" encoding="UTF-8" standalone="no"?>
<!DOCTYPE svg PUBLIC "-//W3C//DTD SVG 1.1//EN"
 "http://www.w3.org/Graphics/SVG/1.1/DTD/svg11.dtd">
<!-- Generated by graphviz version 14.1.5 (20260411.2331)
 -->
<!-- Title: Authenticator Pages: 1 -->
<svg width="92pt" height="125pt"
 viewBox="0.00 0.00 92.00 125.00" xmlns="http://www.w3.org/2000/svg" xmlns:xlink="http://www.w3.org/1999/xlink">
<g id="graph0" class="graph" transform="scale(1 1) rotate(0) translate(4 121.4)">
<title>Authenticator</title>
<polygon fill="white" stroke="none" points="-4,4 -4,-121.4 88.25,-121.4 88.25,4 -4,4"/>
<!-- Entry -->
<g id="node1" class="node">
<title>Entry</title>
<ellipse fill="black" stroke="#00688b" cx="42.12" cy="-110.2" rx="7.2" ry="7.2"/>
</g>
<!-- Active -->
<g id="node2" class="node">
<title>Active</title>
<path fill="azure" stroke="none" d="M72.25,-67C72.25,-67 12,-67 12,-67 6,-67 0,-61 0,-55 0,-55 0,-12 0,-12 0,-6 6,0 12,0 12,0 72.25,0 72.25,0 78.25,0 84.25,-6 84.25,-12 84.25,-12 84.25,-55 84.25,-55 84.25,-61 78.25,-67 72.25,-67"/>
<text xml:space="preserve" text-anchor="start" x="23.75" y="-46.7" font-family="Times,serif" font-weight="bold" font-size="14.00">Active</text>
<text xml:space="preserve" text-anchor="start" x="8" y="-21.5" font-family="Times,serif" font-size="10.00">check(token: str)</text>
<text xml:space="preserve" text-anchor="start" x="28.62" y="-10.25" font-family="Times,serif" font-size="10.00"> &#160;&#160;&#160;&#160;&#160;&#160;&#160;&#160;&#160;&#160;&#160;</text>
<polygon fill="#00688b" stroke="#00688b" points="0,-36.5 0,-36.5 84.25,-36.5 84.25,-36.5 0,-36.5"/>
<path fill="none" stroke="#00688b" d="M12,0C12,0 72.25,0 72.25,0 78.25,0 84.25,-6 84.25,-12 84.25,-12 84.25,-55 84.25,-55 84.25,-61 78.25,-67 72.25,-67 72.25,-67 12,-67 12,-67 6,-67 0,-61 0,-55 0,-55 0,-12 0,-12 0,-6 6,0 12,0"/>
</g>
<!-- Entry&#45;&gt;Active -->
<g id="edge1" class="edge">
<title>Entry&#45;&gt;Active</title>
<path fill="none" stroke="red" d="M42.12,-102.57C42.12,-96.77 42.12,-87.8 42.12,-78.25"/>
<polygon fill="red" stroke="red" points="45.63,-78.45 42.13,-68.45 38.63,-78.45 45.63,-78.45"/>
</g>
</g>
</svg>
