<?xml version="1.0" encoding="UTF-8" standalone="no"?>
<!DOCTYPE svg PUBLIC "-//W3C//DTD SVG 1.1//EN"
 "http://www.w3.org/Graphics/SVG/1.1/DTD/svg11.dtd">
<!-- Generated by graphviz version 14.1.5 (20260411.2331)
 -->
<!-- Title: LedBlinker Pages: 1 -->
<svg width="319pt" height="178pt"
 viewBox="0.00 0.00 319.00 178.00" xmlns="http://www.w3.org/2000/svg" xmlns:xlink="http://www.w3.org/1999/xlink">
<g id="graph0" class="graph" transform="scale(1 1) rotate(0) translate(4 174)">
<title>LedBlinker</title>
<polygon fill="white" stroke="none" points="-4,4 -4,-174 315,-174 315,4 -4,4"/>
<!-- Entry -->
<g id="node1" class="node">
<title>Entry</title>
<ellipse fill="black" stroke="#00688b" cx="56" cy="-130.88" rx="7.2" ry="7.2"/>
</g>
<!-- Disabled -->
<g id="node2" class="node">
<title>Disabled</title>
<path fill="azure" stroke="none" d="M100,-55.75C100,-55.75 12,-55.75 12,-55.75 6,-55.75 0,-49.75 0,-43.75 0,-43.75 0,-12 0,-12 0,-6 6,0 12,0 12,0 100,0 100,0 106,0 112,-6 112,-12 112,-12 112,-43.75 112,-43.75 112,-49.75 106,-55.75 100,-55.75"/>
<text xml:space="preserve" text-anchor="start" x="30.88" y="-35.45" font-family="Times,serif" font-weight="bold" font-size="14.00">Disabled</text>
<text xml:space="preserve" text-anchor="start" x="8" y="-10.25" font-family="Times,serif" font-size="10.00"> &#160;&#160;&#160;&#160;&#160;&#160;&#160;&#160;&#160;&#160;&#160;&#160;&#160;&#160;&#160;enable() &#160;&#160;&#160;&#160;&#160;&#160;&#160;&#160;&#160;&#160;&#160;</text>
<polygon fill="#00688b" stroke="#00688b" points="0,-25.25 0,-25.25 112,-25.25 112,-25.25 0,-25.25"/>
<path fill="none" stroke="#00688b" d="M12,0C12,0 100,0 100,0 106,0 112,-6 112,-12 112,-12 112,-43.75 112,-43.75 112,-49.75 106,-55.75 100,-55.75 100,-55.75 12,-55.75 12,-55.75 6,-55.75 0,-49.75 0,-43.75 0,-43.75 0,-12 0,-12 0,-6 6,0 12,0"/>
</g>
<!-- Entry&#45;&gt;Disabled -->
<g id="edge1" class="edge">
<title>Entry&#45;&gt;Disabled</title>
<path fill="none" stroke="red" d="M56,-123.25C56,-111.84 56,-87.7 56,-66.69"/>
<polygon fill="red" stroke="red" points="59.5,-66.96 56,-56.96 52.5,-66.96 59.5,-66.96"/>
</g>
<!-- LedOff -->
<g id="node3" class="node">
<title>LedOff</title>
<path fill="azure" stroke="none" d="M175,-170C175,-170 93,-170 93,-170 87,-170 81,-164 81,-158 81,-158 81,-103.75 81,-103.75 81,-97.75 87,-91.75 93,-91.75 93,-91.75 175,-91.75 175,-91.75 181,-91.75 187,-97.75 187,-103.75 187,-103.75 187,-158 187,-158 187,-164 181,-170 175,-170"/>
<text xml:space="preserve" text-anchor="start" x="112.62" y="-149.7" font-family="Times,serif" font-weight="bold" font-size="14.00">LedOff</text>
<text xml:space="preserve" text-anchor="start" x="92" y="-124.5" font-family="Times,serif" font-size="10.00"> &#160;&#160;&#160;&#160;&#160;&#160;&#160;&#160;&#160;&#160;&#160;&#160;&#160;&#160;&#160;timer_tick()</text>
<text xml:space="preserve" text-anchor="start" x="98.38" y="-113.25" font-family="Times,serif" font-size="10.00"> &#160;&#160;&#160;&#160;&#160;&#160;&#160;&#160;&#160;&#160;&#160;&#160;&#160;&#160;&#160;disable()</text>
<text xml:space="preserve" text-anchor="start" x="89" y="-102" font-family="Times,serif" font-size="10.00"> &#160;&#160;&#160;&#160;&#160;&#160;&#160;&#160;&#160;&#160;&#160;&#160;&#160;&#160;&#160;is_lit() &#160;&#160;&#160;&#160;&#160;&#160;&#160;&#160;&#160;&#160;&#160;</text>
<polygon fill="#00688b" stroke="#00688b" points="81,-139.5 81,-139.5 187,-139.5 187,-139.5 81,-139.5"/>
<path fill="none" stroke="#00688b" d="M93,-91.75C93,-91.75 175,-91.75 175,-91.75 181,-91.75 187,-97.75 187,-103.75 187,-103.75 187,-158 187,-158 187,-164 181,-170 175,-170 175,-170 93,-170 93,-170 87,-170 81,-164 81,-158 81,-158 81,-103.75 81,-103.75 81,-97.75 87,-91.75 93,-91.75"/>
</g>
<!-- LedOn -->
<g id="node4" class="node">
<title>LedOn</title>
<path fill="azure" stroke="none" d="M299,-170C299,-170 217,-170 217,-170 211,-170 205,-164 205,-158 205,-158 205,-103.75 205,-103.75 205,-97.75 211,-91.75 217,-91.75 217,-91.75 299,-91.75 299,-91.75 305,-91.75 311,-97.75 311,-103.75 311,-103.75 311,-158 311,-158 311,-164 305,-170 299,-170"/>
<text xml:space="preserve" text-anchor="start" x="237.38" y="-149.7" font-family="Times,serif" font-weight="bold" font-size="14.00">LedOn</text>
<text xml:space="preserve" text-anchor="start" x="216" y="-124.5" font-family="Times,serif" font-size="10.00"> &#160;&#160;&#160;&#160;&#160;&#160;&#160;&#160;&#160;&#160;&#160;&#160;&#160;&#160;&#160;timer_tick()</text>
<text xml:space="preserve" text-anchor="start" x="222.38" y="-113.25" font-family="Times,serif" font-size="10.00"> &#160;&#160;&#160;&#160;&#160;&#160;&#160;&#160;&#160;&#160;&#160;&#160;&#160;&#160;&#160;disable()</text>
<text xml:space="preserve" text-anchor="start" x="213" y="-102" font-family="Times,serif" font-size="10.00"> &#160;&#160;&#160;&#160;&#160;&#160;&#160;&#160;&#160;&#160;&#160;&#160;&#160;&#160;&#160;is_lit() &#160;&#160;&#160;&#160;&#160;&#160;&#160;&#160;&#160;&#160;&#160;</text>
<polygon fill="#00688b" stroke="#00688b" points="205,-139.5 205,-139.5 311,-139.5 311,-139.5 205,-139.5"/>
<path fill="none" stroke="#00688b" d="M217,-91.75C217,-91.75 299,-91.75 299,-91.75 305,-91.75 311,-97.75 311,-103.75 311,-103.75 311,-158 311,-158 311,-164 305,-170 299,-170 299,-170 217,-170 217,-170 211,-170 205,-164 205,-158 205,-158 205,-103.75 205,-103.75 205,-97.75 211,-91.75 217,-91.75"/>
</g>
</g>
</svg>
