<?xml version="1.0" encoding="UTF-8" standalone="no"?>
<!DOCTYPE svg PUBLIC "-//W3C//DTD SVG 1.1//EN"
 "http://www.w3.org/Graphics/SVG/1.1/DTD/svg11.dtd">
<!-- Generated by graphviz version 14.1.5 (20260411.2331)
 -->
<!-- Title: LedBlinker Pages: 1 -->
<svg width="214pt" height="377pt"
 viewBox="0.00 0.00 214.00 377.00" xmlns="http://www.w3.org/2000/svg" xmlns:xlink="http://www.w3.org/1999/xlink">
<g id="graph0" class="graph" transform="scale(1 1) rotate(0) translate(4 372.65)">
<title>LedBlinker</title>
<polygon fill="white" stroke="none" points="-4,4 -4,-372.65 209.9,-372.65 209.9,4 -4,4"/>
<!-- Entry -->
<g id="node1" class="node">
<title>Entry</title>
<ellipse fill="black" stroke="#00688b" cx="107.12" cy="-361.45" rx="7.2" ry="7.2"/>
</g>
<!-- Disabled -->
<g id="node2" class="node">
<title>Disabled</title>
<path fill="azure" stroke="none" d="M151.12,-317.25C151.12,-317.25 63.12,-317.25 63.12,-317.25 57.12,-317.25 51.12,-311.25 51.12,-305.25 51.12,-305.25 51.12,-273.5 51.12,-273.5 51.12,-267.5 57.12,-261.5 63.12,-261.5 63.12,-261.5 151.12,-261.5 151.12,-261.5 157.12,-261.5 163.12,-267.5 163.12,-273.5 163.12,-273.5 163.12,-305.25 163.12,-305.25 163.12,-311.25 157.12,-317.25 151.12,-317.25"/>
<text xml:space="preserve" text-anchor="start" x="81.99" y="-296.95" font-family="Times,serif" font-weight="bold" font-size="14.00">Disabled</text>
<text xml:space="preserve" text-anchor="start" x="59.12" y="-271.75" font-family="Times,serif" font-size="10.00"> &#160;&#160;&#160;&#160;&#160;&#160;&#160;&#160;&#160;&#160;&#160;&#160;&#160;&#160;&#160;enable() &#160;&#160;&#160;&#160;&#160;&#160;&#160;&#160;&#160;&#160;&#160;</text>
<polygon fill="#00688b" stroke="#00688b" points="51.12,-286.75 51.12,-286.75 163.12,-286.75 163.12,-286.75 51.12,-286.75"/>
<path fill="none" stroke="#00688b" d="M63.12,-261.5C63.12,-261.5 151.12,-261.5 151.12,-261.5 157.12,-261.5 163.12,-267.5 163.12,-273.5 163.12,-273.5 163.12,-305.25 163.12,-305.25 163.12,-311.25 157.12,-317.25 151.12,-317.25 151.12,-317.25 63.12,-317.25 63.12,-317.25 57.12,-317.25 51.12,-311.25 51.12,-305.25 51.12,-305.25 51.12,-273.5 51.12,-273.5 51.12,-267.5 57.12,-261.5 63.12,-261.5"/>
</g>
<!-- Entry&#45;&gt;Disabled -->
<g id="edge1" class="edge">
<title>Entry&#45;&gt;Disabled</title>
<path fill="none" stroke="red" d="M107.12,-353.98C107.12,-347.88 107.12,-338.19 107.12,-328.2"/>
<polygon fill="red" stroke="red" points="110.62,-328.48 107.12,-318.48 103.62,-328.48 110.62,-328.48"/>
</g>
<!-- LedOff -->
<g id="node3" class="node">
<title>LedOff</title>
<path fill="azure" stroke="none" d="M101.12,-209C101.12,-209 19.12,-209 19.12,-209 13.12,-209 7.12,-203 7.12,-197 7.12,-197 7.12,-142.75 7.12,-142.75 7.12,-136.75 13.12,-130.75 19.12,-130.75 19.12,-130.75 101.12,-130.75 101.12,-130.75 107.12,-130.75 113.12,-136.75 113.12,-142.75 113.12,-142.75 113.12,-197 113.12,-197 113.12,-203 107.12,-209 101.12,-209"/>
<text xml:space="preserve" text-anchor="start" x="38.74" y="-188.7" font-family="Times,serif" font-weight="bold" font-size="14.00">LedOff</text>
<text xml:space="preserve" text-anchor="start" x="15.12" y="-163.5" font-family="Times,serif" font-size="10.00"> &#160;&#160;&#160;&#160;&#160;&#160;&#160;&#160;&#160;&#160;&#160;&#160;&#160;&#160;&#160;timer_tick()</text>
<text xml:space="preserve" text-anchor="start" x="15.12" y="-152.25" font-family="Times,serif" font-size="10.00"> &#160;&#160;&#160;&#160;&#160;&#160;&#160;&#160;&#160;&#160;&#160;&#160;&#160;&#160;&#160;disable()</text>
<text xml:space="preserve" text-anchor="start" x="15.12" y="-141" font-family="Times,serif" font-size="10.00"> &#160;&#160;&#160;&#160;&#160;&#160;&#160;&#160;&#160;&#160;&#160;&#160;&#160;&#160;&#160;is_lit() &#160;&#160;&#160;&#160;&#160;&#160;&#160;&#160;&#160;&#160;&#160;</text>
<polygon fill="#00688b" stroke="#00688b" points="7.12,-178.5 7.12,-178.5 113.12,-178.5 113.12,-178.5 7.12,-178.5"/>
<path fill="none" stroke="#00688b" d="M19.12,-130.75C19.12,-130.75 101.12,-130.75 101.12,-130.75 107.12,-130.75 113.12,-136.75 113.12,-142.75 113.12,-142.75 113.12,-197 113.12,-197 113.12,-203 107.12,-209 101.12,-209 101.12,-209 19.12,-209 19.12,-209 13.12,-209 7.12,-203 7.12,-197 7.12,-197 7.12,-142.75 7.12,-142.75 7.12,-136.75 13.12,-130.75 19.12,-130.75"/>
</g>
<!-- Disabled&#45;&gt;LedOff -->
<g id="edge2" class="edge">
<title>Disabled&#45;&gt;LedOff</title>
<path fill="none" stroke="red" d="M57.12,-261.7C51.2,-256.46 45.98,-250.41 42.37,-243.5 38.52,-236.15 37.7,-227.94 38.64,-219.76"/>
<polygon fill="red" stroke="red" points="42.02,-220.68 40.58,-210.19 35.16,-219.29 42.02,-220.68"/>
<text xml:space="preserve" text-anchor="middle" x="63.74" y="-230.2" font-family="Times,serif" font-size="14.00"> enable </text>
</g>
<!-- LedOff&#45;&gt;Disabled -->
<g id="edge4" class="edge">
<title>LedOff&#45;&gt;Disabled</title>
<path fill="none" stroke="red" d="M77.45,-208.75C80.09,-214.82 82.73,-221.06 85.12,-227 88.18,-234.64 91.28,-242.89 94.15,-250.79"/>
<polygon fill="red" stroke="red" points="90.85,-251.96 97.51,-260.2 97.44,-249.61 90.85,-251.96"/>
<text xml:space="preserve" text-anchor="middle" x="113.79" y="-230.2" font-family="Times,serif" font-size="14.00"> disable </text>
</g>
<!-- LedOn -->
<g id="node4" class="node">
<title>LedOn</title>
<path fill="azure" stroke="none" d="M130.12,-78.25C130.12,-78.25 48.12,-78.25 48.12,-78.25 42.12,-78.25 36.12,-72.25 36.12,-66.25 36.12,-66.25 36.12,-12 36.12,-12 36.12,-6 42.12,0 48.12,0 48.12,0 130.12,0 130.12,0 136.12,0 142.12,-6 142.12,-12 142.12,-12 142.12,-66.25 142.12,-66.25 142.12,-72.25 136.12,-78.25 130.12,-78.25"/>
<text xml:space="preserve" text-anchor="start" x="68.49" y="-57.95" font-family="Times,serif" font-weight="bold" font-size="14.00">LedOn</text>
<text xml:space="preserve" text-anchor="start" x="44.12" y="-32.75" font-family="Times,serif" font-size="10.00"> &#160;&#160;&#160;&#160;&#160;&#160;&#160;&#160;&#160;&#160;&#160;&#160;&#160;&#160;&#160;timer_tick()</text>
<text xml:space="preserve" text-anchor="start" x="44.12" y="-21.5" font-family="Times,serif" font-size="10.00"> &#160;&#160;&#160;&#160;&#160;&#160;&#160;&#160;&#160;&#160;&#160;&#160;&#160;&#160;&#160;disable()</text>
<text xml:space="preserve" text-anchor="start" x="44.12" y="-10.25" font-family="Times,serif" font-size="10.00"> &#160;&#160;&#160;&#160;&#160;&#160;&#160;&#160;&#160;&#160;&#160;&#160;&#160;&#160;&#160;is_lit() &#160;&#160;&#160;&#160;&#160;&#160;&#160;&#160;&#160;&#160;&#160;</text>
<polygon fill="#00688b" stroke="#00688b" points="36.12,-47.75 36.12,-47.75 142.12,-47.75 142.12,-47.75 36.12,-47.75"/>
<path fill="none" stroke="#00688b" d="M48.12,0C48.12,0 130.12,0 130.12,0 136.12,0 142.12,-6 142.12,-12 142.12,-12 142.12,-66.25 142.12,-66.25 142.12,-72.25 136.12,-78.25 130.12,-78.25 130.12,-78.25 48.12,-78.25 48.12,-78.25 42.12,-78.25 36.12,-72.25 36.12,-66.25 36.12,-66.25 36.12,-12 36.12,-12 36.12,-6 42.12,0 48.12,0"/>
</g>
<!-- LedOff&#45;&gt;LedOn -->
<g id="edge3" class="edge">
<title>LedOff&#45;&gt;LedOn</title>
<path fill="none" stroke="red" d="M9.32,-130.97C0.98,-120.24 -3.1,-108.21 3.37,-96.25 9.01,-85.81 17.53,-77 27.05,-69.68"/>
<polygon fill="red" stroke="red" points="29,-72.59 35.18,-63.99 24.98,-66.86 29,-72.59"/>
<text xml:space="preserve" text-anchor="middle" x="35.24" y="-99.45" font-family="Times,serif" font-size="14.00"> timer_tick </text>
</g>
<!-- LedOn&#45;&gt;Disabled -->
<g id="edge6" class="edge">
<title>LedOn&#45;&gt;Disabled</title>
<path fill="none" stroke="red" d="M133.38,-78.06C137.72,-83.71 141.49,-89.81 144.12,-96.25 168.86,-156.85 162.68,-181.7 141.12,-243.5 140.06,-246.53 138.72,-249.52 137.18,-252.43"/>
<polygon fill="red" stroke="red" points="134.36,-250.32 132.11,-260.67 140.33,-253.99 134.36,-250.32"/>
<text xml:space="preserve" text-anchor="middle" x="183.02" y="-164.82" font-family="Times,serif" font-size="14.00"> disable </text>
</g>
<!-- LedOn&#45;&gt;LedOff -->
<g id="edge5" class="edge">
<title>LedOn&#45;&gt;LedOff</title>
<path fill="none" stroke="red" d="M80.53,-78.23C77.58,-91.36 74.23,-106.24 71.1,-120.1"/>
<polygon fill="red" stroke="red" points="67.78,-118.94 68.99,-129.47 74.61,-120.48 67.78,-118.94"/>
<text xml:space="preserve" text-anchor="middle" x="108.23" y="-99.45" font-family="Times,serif" font-size="14.00"> timer_tick </text>
</g>
</g>
</svg>
