<?xml version="1.0" encoding="UTF-8" standalone="no"?>
<!DOCTYPE svg PUBLIC "-//W3C//DTD SVG 1.1//EN"
 "http://www.w3.org/Graphics/SVG/1.1/DTD/svg11.dtd">
<!-- Generated by graphviz version 14.1.5 (20260411.2331)
 -->
<!-- Title: Debouncer Pages: 1 -->
<svg width="145pt" height="336pt"
 viewBox="0.00 0.00 145.00 336.00" xmlns="http://www.w3.org/2000/svg" xmlns:xlink="http://www.w3.org/1999/xlink">
<g id="graph0" class="graph" transform="scale(1 1) rotate(0) translate(4 331.9)">
<title>Debouncer</title>
<polygon fill="white" stroke="none" points="-4,4 -4,-331.9 140.75,-331.9 140.75,4 -4,4"/>
<!-- Entry -->
<g id="node1" class="node">
<title>Entry</title>
<ellipse fill="black" stroke="#00688b" cx="68.38" cy="-320.7" rx="7.2" ry="7.2"/>
</g>
<!-- Released -->
<g id="node2" class="node">
<title>Released</title>
<path fill="azure" stroke="none" d="M124.75,-276.5C124.75,-276.5 12,-276.5 12,-276.5 6,-276.5 0,-270.5 0,-264.5 0,-264.5 0,-176.5 0,-176.5 0,-170.5 6,-164.5 12,-164.5 12,-164.5 124.75,-164.5 124.75,-164.5 130.75,-164.5 136.75,-170.5 136.75,-176.5 136.75,-176.5 136.75,-264.5 136.75,-264.5 136.75,-270.5 130.75,-276.5 124.75,-276.5"/>
<text xml:space="preserve" text-anchor="start" x="42.88" y="-256.2" font-family="Times,serif" font-weight="bold" font-size="14.00">Released</text>
<text xml:space="preserve" text-anchor="start" x="8" y="-231" font-family="Times,serif" font-size="10.00"> &#160;&#160;&#160;&#160;&#160;&#160;&#160;&#160;&#160;&#160;&#160;&#160;&#160;&#160;&#160;raw_high()</text>
<text xml:space="preserve" text-anchor="start" x="8" y="-219.75" font-family="Times,serif" font-size="10.00"> &#160;&#160;&#160;&#160;&#160;&#160;&#160;&#160;&#160;&#160;&#160;&#160;&#160;&#160;&#160;raw_low()</text>
<text xml:space="preserve" text-anchor="start" x="8" y="-208.5" font-family="Times,serif" font-size="10.00"> &#160;&#160;&#160;&#160;&#160;&#160;&#160;&#160;&#160;&#160;&#160;&#160;&#160;&#160;&#160;tick()</text>
<text xml:space="preserve" text-anchor="start" x="8" y="-197.25" font-family="Times,serif" font-size="10.00"> &#160;&#160;&#160;&#160;&#160;&#160;&#160;&#160;&#160;&#160;&#160;&#160;&#160;&#160;&#160;is_pressed() &#160;&#160;&#160;&#160;&#160;&#160;&#160;&#160;&#160;&#160;&#160;</text>
<text xml:space="preserve" text-anchor="start" x="8" y="-174.75" font-family="Times,serif" font-size="9.00" fill="#666666"> &#160;&#160;&#160;&#160;&#160;&#160;&#160;&#160;&#160;&#160;&#160;&#160;&#160;&#160;&#160;stable_count: int &#160;&#160;&#160;&#160;&#160;&#160;&#160;&#160;&#160;&#160;&#160;</text>
<polygon fill="#00688b" stroke="#00688b" points="0,-246 0,-246 136.75,-246 136.75,-246 0,-246"/>
<polygon fill="#00688b" stroke="#00688b" points="0,-189 0,-189 136.75,-189 136.75,-189 0,-189"/>
<path fill="none" stroke="#00688b" d="M12,-164.5C12,-164.5 124.75,-164.5 124.75,-164.5 130.75,-164.5 136.75,-170.5 136.75,-176.5 136.75,-176.5 136.75,-264.5 136.75,-264.5 136.75,-270.5 130.75,-276.5 124.75,-276.5 124.75,-276.5 12,-276.5 12,-276.5 6,-276.5 0,-270.5 0,-264.5 0,-264.5 0,-176.5 0,-176.5 0,-170.5 6,-164.5 12,-164.5"/>
</g>
<!-- Entry&#45;&gt;Released -->
<g id="edge1" class="edge">
<title>Entry&#45;&gt;Released</title>
<path fill="none" stroke="red" d="M68.38,-313.26C68.38,-307.37 68.38,-297.98 68.38,-287.42"/>
<polygon fill="red" stroke="red" points="71.88,-287.59 68.38,-277.59 64.88,-287.59 71.88,-287.59"/>
</g>
<!-- Pressed -->
<g id="node3" class="node">
<title>Pressed</title>
<path fill="azure" stroke="none" d="M124.75,-112C124.75,-112 12,-112 12,-112 6,-112 0,-106 0,-100 0,-100 0,-12 0,-12 0,-6 6,0 12,0 12,0 124.75,0 124.75,0 130.75,0 136.75,-6 136.75,-12 136.75,-12 136.75,-100 136.75,-100 136.75,-106 130.75,-112 124.75,-112"/>
<text xml:space="preserve" text-anchor="start" x="46.25" y="-91.7" font-family="Times,serif" font-weight="bold" font-size="14.00">Pressed</text>
<text xml:space="preserve" text-anchor="start" x="8" y="-66.5" font-family="Times,serif" font-size="10.00"> &#160;&#160;&#160;&#160;&#160;&#160;&#160;&#160;&#160;&#160;&#160;&#160;&#160;&#160;&#160;raw_low()</text>
<text xml:space="preserve" text-anchor="start" x="8" y="-55.25" font-family="Times,serif" font-size="10.00"> &#160;&#160;&#160;&#160;&#160;&#160;&#160;&#160;&#160;&#160;&#160;&#160;&#160;&#160;&#160;raw_high()</text>
<text xml:space="preserve" text-anchor="start" x="8" y="-44" font-family="Times,serif" font-size="10.00"> &#160;&#160;&#160;&#160;&#160;&#160;&#160;&#160;&#160;&#160;&#160;&#160;&#160;&#160;&#160;tick()</text>
<text xml:space="preserve" text-anchor="start" x="8" y="-32.75" font-family="Times,serif" font-size="10.00"> &#160;&#160;&#160;&#160;&#160;&#160;&#160;&#160;&#160;&#160;&#160;&#160;&#160;&#160;&#160;is_pressed() &#160;&#160;&#160;&#160;&#160;&#160;&#160;&#160;&#160;&#160;&#160;</text>
<text xml:space="preserve" text-anchor="start" x="8" y="-10.25" font-family="Times,serif" font-size="9.00" fill="#666666"> &#160;&#160;&#160;&#160;&#160;&#160;&#160;&#160;&#160;&#160;&#160;&#160;&#160;&#160;&#160;stable_count: int &#160;&#160;&#160;&#160;&#160;&#160;&#160;&#160;&#160;&#160;&#160;</text>
<polygon fill="#00688b" stroke="#00688b" points="0,-81.5 0,-81.5 136.75,-81.5 136.75,-81.5 0,-81.5"/>
<polygon fill="#00688b" stroke="#00688b" points="0,-24.5 0,-24.5 136.75,-24.5 136.75,-24.5 0,-24.5"/>
<path fill="none" stroke="#00688b" d="M12,0C12,0 124.75,0 124.75,0 130.75,0 136.75,-6 136.75,-12 136.75,-12 136.75,-100 136.75,-100 136.75,-106 130.75,-112 124.75,-112 124.75,-112 12,-112 12,-112 6,-112 0,-106 0,-100 0,-100 0,-12 0,-12 0,-6 6,0 12,0"/>
</g>
<!-- Released&#45;&gt;Pressed -->
<g id="edge2" class="edge">
<title>Released&#45;&gt;Pressed</title>
<path fill="none" stroke="red" d="M48.48,-164.55C46.91,-158.52 45.56,-152.42 44.62,-146.5 43.39,-138.73 43.5,-130.66 44.48,-122.69"/>
<polygon fill="red" stroke="red" points="47.9,-123.47 46.14,-113.02 41,-122.28 47.9,-123.47"/>
<text xml:space="preserve" text-anchor="middle" x="58.5" y="-133.2" font-family="Times,serif" font-size="14.00"> tick </text>
</g>
<!-- Pressed&#45;&gt;Released -->
<g id="edge3" class="edge">
<title>Pressed&#45;&gt;Released</title>
<path fill="none" stroke="red" d="M72.08,-111.89C72.5,-123.33 72.68,-135.31 72.38,-146.5 72.32,-148.69 72.25,-150.91 72.17,-153.16"/>
<polygon fill="red" stroke="red" points="68.68,-152.86 71.77,-162.99 75.67,-153.14 68.68,-152.86"/>
<text xml:space="preserve" text-anchor="middle" x="86.4" y="-133.2" font-family="Times,serif" font-size="14.00"> tick </text>
</g>
</g>
</svg>
