<?xml version="1.0" encoding="UTF-8" standalone="no"?>
<!DOCTYPE svg PUBLIC "-//W3C//DTD SVG 1.1//EN"
 "http://www.w3.org/Graphics/SVG/1.1/DTD/svg11.dtd">
<!-- Generated by graphviz version 14.1.5 (20260411.2331)
 -->
<!-- Title: Debouncer Pages: 1 -->
<svg width="82pt" height="379pt"
 viewBox="0.00 0.00 82.00 379.00" xmlns="http://www.w3.org/2000/svg" xmlns:xlink="http://www.w3.org/1999/xlink">
<g id="graph0" class="graph" transform="scale(1 1) rotate(0) translate(4 375.4)">
<title>Debouncer</title>
<polygon fill="white" stroke="none" points="-4,4 -4,-375.4 77.75,-375.4 77.75,4 -4,4"/>
<!-- Entry -->
<g id="node1" class="node">
<title>Entry</title>
<ellipse fill="black" stroke="#00688b" cx="36.88" cy="-364.2" rx="7.2" ry="7.2"/>
</g>
<!-- Released -->
<g id="node2" class="node">
<title>Released</title>
<path fill="azure" stroke="none" d="M61.75,-320C61.75,-320 12,-320 12,-320 6,-320 0,-314 0,-308 0,-308 0,-198.25 0,-198.25 0,-192.25 6,-186.25 12,-186.25 12,-186.25 61.75,-186.25 61.75,-186.25 67.75,-186.25 73.75,-192.25 73.75,-198.25 73.75,-198.25 73.75,-308 73.75,-308 73.75,-314 67.75,-320 61.75,-320"/>
<text xml:space="preserve" text-anchor="start" x="11.38" y="-299.7" font-family="Times,serif" font-weight="bold" font-size="14.00">Released</text>
<text xml:space="preserve" text-anchor="start" x="8" y="-274.5" font-family="Times,serif" font-size="10.00">raw_high()</text>
<text xml:space="preserve" text-anchor="start" x="8" y="-263.25" font-family="Times,serif" font-size="10.00">raw_low()</text>
<text xml:space="preserve" text-anchor="start" x="8" y="-252" font-family="Times,serif" font-size="10.00">tick()</text>
<text xml:space="preserve" text-anchor="start" x="8" y="-240.75" font-family="Times,serif" font-size="10.00">is_pressed()</text>
<text xml:space="preserve" text-anchor="start" x="18.5" y="-229.5" font-family="Times,serif" font-size="10.00"> &#160;&#160;&#160;&#160;&#160;&#160;&#160;&#160;&#160;&#160;&#160;</text>
<text xml:space="preserve" text-anchor="start" x="8" y="-207" font-family="Times,serif" font-size="9.00" fill="#666666">stable_count: int</text>
<text xml:space="preserve" text-anchor="start" x="23.38" y="-196.5" font-family="Times,serif" font-size="9.00" fill="#666666"> &#160;&#160;&#160;&#160;&#160;&#160;&#160;&#160;&#160;&#160;&#160;</text>
<polygon fill="#00688b" stroke="#00688b" points="0,-289.5 0,-289.5 73.75,-289.5 73.75,-289.5 0,-289.5"/>
<polygon fill="#00688b" stroke="#00688b" points="0,-221.25 0,-221.25 73.75,-221.25 73.75,-221.25 0,-221.25"/>
<path fill="none" stroke="#00688b" d="M12,-186.25C12,-186.25 61.75,-186.25 61.75,-186.25 67.75,-186.25 73.75,-192.25 73.75,-198.25 73.75,-198.25 73.75,-308 73.75,-308 73.75,-314 67.75,-320 61.75,-320 61.75,-320 12,-320 12,-320 6,-320 0,-314 0,-308 0,-308 0,-198.25 0,-198.25 0,-192.25 6,-186.25 12,-186.25"/>
</g>
<!-- Entry&#45;&gt;Released -->
<g id="edge1" class="edge">
<title>Entry&#45;&gt;Released</title>
<path fill="none" stroke="red" d="M36.88,-356.7C36.88,-350.92 36.88,-341.75 36.88,-331.23"/>
<polygon fill="red" stroke="red" points="40.38,-331.36 36.88,-321.36 33.38,-331.36 40.38,-331.36"/>
</g>
<!-- Pressed -->
<g id="node3" class="node">
<title>Pressed</title>
<path fill="azure" stroke="none" d="M61.75,-133.75C61.75,-133.75 12,-133.75 12,-133.75 6,-133.75 0,-127.75 0,-121.75 0,-121.75 0,-12 0,-12 0,-6 6,0 12,0 12,0 61.75,0 61.75,0 67.75,0 73.75,-6 73.75,-12 73.75,-12 73.75,-121.75 73.75,-121.75 73.75,-127.75 67.75,-133.75 61.75,-133.75"/>
<text xml:space="preserve" text-anchor="start" x="14.75" y="-113.45" font-family="Times,serif" font-weight="bold" font-size="14.00">Pressed</text>
<text xml:space="preserve" text-anchor="start" x="8" y="-88.25" font-family="Times,serif" font-size="10.00">raw_low()</text>
<text xml:space="preserve" text-anchor="start" x="8" y="-77" font-family="Times,serif" font-size="10.00">raw_high()</text>
<text xml:space="preserve" text-anchor="start" x="8" y="-65.75" font-family="Times,serif" font-size="10.00">tick()</text>
<text xml:space="preserve" text-anchor="start" x="8" y="-54.5" font-family="Times,serif" font-size="10.00">is_pressed()</text>
<text xml:space="preserve" text-anchor="start" x="18.5" y="-43.25" font-family="Times,serif" font-size="10.00"> &#160;&#160;&#160;&#160;&#160;&#160;&#160;&#160;&#160;&#160;&#160;</text>
<text xml:space="preserve" text-anchor="start" x="8" y="-20.75" font-family="Times,serif" font-size="9.00" fill="#666666">stable_count: int</text>
<text xml:space="preserve" text-anchor="start" x="23.38" y="-10.25" font-family="Times,serif" font-size="9.00" fill="#666666"> &#160;&#160;&#160;&#160;&#160;&#160;&#160;&#160;&#160;&#160;&#160;</text>
<polygon fill="#00688b" stroke="#00688b" points="0,-103.25 0,-103.25 73.75,-103.25 73.75,-103.25 0,-103.25"/>
<polygon fill="#00688b" stroke="#00688b" points="0,-35 0,-35 73.75,-35 73.75,-35 0,-35"/>
<path fill="none" stroke="#00688b" d="M12,0C12,0 61.75,0 61.75,0 67.75,0 73.75,-6 73.75,-12 73.75,-12 73.75,-121.75 73.75,-121.75 73.75,-127.75 67.75,-133.75 61.75,-133.75 61.75,-133.75 12,-133.75 12,-133.75 6,-133.75 0,-127.75 0,-121.75 0,-121.75 0,-12 0,-12 0,-6 6,0 12,0"/>
</g>
<!-- Released&#45;&gt;Pressed -->
<g id="edge2" class="edge">
<title>Released&#45;&gt;Pressed</title>
<path fill="none" stroke="red" d="M16.46,-186.56C15.11,-180.42 13.96,-174.25 13.12,-168.25 12.07,-160.68 12.03,-152.85 12.69,-145.05"/>
<polygon fill="red" stroke="red" points="16.16,-145.54 13.94,-135.18 9.22,-144.66 16.16,-145.54"/>
<text xml:space="preserve" text-anchor="middle" x="27" y="-154.95" font-family="Times,serif" font-size="14.00"> tick </text>
</g>
<!-- Pressed&#45;&gt;Released -->
<g id="edge3" class="edge">
<title>Pressed&#45;&gt;Released</title>
<path fill="none" stroke="red" d="M40.7,-133.74C41.02,-145.24 41.14,-157.09 40.88,-168.25 40.82,-170.58 40.76,-172.95 40.68,-175.35"/>
<polygon fill="red" stroke="red" points="37.19,-175.03 40.35,-185.15 44.19,-175.27 37.19,-175.03"/>
<text xml:space="preserve" text-anchor="middle" x="54.9" y="-154.95" font-family="Times,serif" font-size="14.00"> tick </text>
</g>
</g>
</svg>
