<?xml version="1.0" encoding="UTF-8" standalone="no"?>
<!DOCTYPE svg PUBLIC "-//W3C//DTD SVG 1.1//EN"
 "http://www.w3.org/Graphics/SVG/1.1/DTD/svg11.dtd">
<!-- Generated by graphviz version 14.1.5 (20260411.2331)
 -->
<!-- Title: MealyDetector Pages: 1 -->
<svg width="107pt" height="223pt"
 viewBox="0.00 0.00 107.00 223.00" xmlns="http://www.w3.org/2000/svg" xmlns:xlink="http://www.w3.org/1999/xlink">
<g id="graph0" class="graph" transform="scale(1 1) rotate(0) translate(4 219.4)">
<title>MealyDetector</title>
<polygon fill="white" stroke="none" points="-4,4 -4,-219.4 102.5,-219.4 102.5,4 -4,4"/>
<!-- Entry -->
<g id="node1" class="node">
<title>Entry</title>
<ellipse fill="black" stroke="#00688b" cx="49.25" cy="-208.2" rx="7.2" ry="7.2"/>
</g>
<!-- S0 -->
<g id="node2" class="node">
<title>S0</title>
<path fill="azure" stroke="none" d="M86.5,-164C86.5,-164 12,-164 12,-164 6,-164 0,-158 0,-152 0,-152 0,-120.25 0,-120.25 0,-114.25 6,-108.25 12,-108.25 12,-108.25 86.5,-108.25 86.5,-108.25 92.5,-108.25 98.5,-114.25 98.5,-120.25 98.5,-120.25 98.5,-152 98.5,-152 98.5,-158 92.5,-164 86.5,-164"/>
<text xml:space="preserve" text-anchor="start" x="42.12" y="-143.7" font-family="Times,serif" font-weight="bold" font-size="14.00">S0</text>
<text xml:space="preserve" text-anchor="start" x="8" y="-107.34" font-family="Times,serif" font-size="10.00">input(bit: int) &#160;&#160;&#160;&#160;&#160;&#160;&#160;&#160;&#160;&#160;&#160;</text>
<polygon fill="#00688b" stroke="#00688b" points="0,-133.5 0,-133.5 98.5,-133.5 98.5,-133.5 0,-133.5"/>
<path fill="none" stroke="#00688b" d="M12,-108.25C12,-108.25 86.5,-108.25 86.5,-108.25 92.5,-108.25 98.5,-114.25 98.5,-120.25 98.5,-120.25 98.5,-152 98.5,-152 98.5,-158 92.5,-164 86.5,-164 86.5,-164 12,-164 12,-164 6,-164 0,-158 0,-152 0,-152 0,-120.25 0,-120.25 0,-114.25 6,-108.25 12,-108.25"/>
</g>
<!-- Entry&#45;&gt;S0 -->
<g id="edge1" class="edge">
<title>Entry&#45;&gt;S0</title>
<path fill="none" stroke="red" d="M49.25,-200.73C49.25,-194.63 49.25,-184.94 49.25,-174.95"/>
<polygon fill="red" stroke="red" points="52.75,-175.23 49.25,-165.23 45.75,-175.23 52.75,-175.23"/>
</g>
<!-- S1 -->
<g id="node3" class="node">
<title>S1</title>
<path fill="azure" stroke="none" d="M86.5,-55.75C86.5,-55.75 12,-55.75 12,-55.75 6,-55.75 0,-49.75 0,-43.75 0,-43.75 0,-12 0,-12 0,-6 6,0 12,0 12,0 86.5,0 86.5,0 92.5,0 98.5,-6 98.5,-12 98.5,-12 98.5,-43.75 98.5,-43.75 98.5,-49.75 92.5,-55.75 86.5,-55.75"/>
<text xml:space="preserve" text-anchor="start" x="42.12" y="-35.45" font-family="Times,serif" font-weight="bold" font-size="14.00">S1</text>
<text xml:space="preserve" text-anchor="start" x="8" y="0.91" font-family="Times,serif" font-size="10.00">input(bit: int) &#160;&#160;&#160;&#160;&#160;&#160;&#160;&#160;&#160;&#160;&#160;</text>
<polygon fill="#00688b" stroke="#00688b" points="0,-25.25 0,-25.25 98.5,-25.25 98.5,-25.25 0,-25.25"/>
<path fill="none" stroke="#00688b" d="M12,0C12,0 86.5,0 86.5,0 92.5,0 98.5,-6 98.5,-12 98.5,-12 98.5,-43.75 98.5,-43.75 98.5,-49.75 92.5,-55.75 86.5,-55.75 86.5,-55.75 12,-55.75 12,-55.75 6,-55.75 0,-49.75 0,-43.75 0,-43.75 0,-12 0,-12 0,-6 6,0 12,0"/>
</g>
<!-- S0&#45;&gt;S1 -->
<g id="edge2" class="edge">
<title>S0&#45;&gt;S1</title>
<path fill="none" stroke="red" d="M29.01,-108.29C25.71,-102.6 22.79,-96.44 21,-90.25 18.67,-82.19 19.85,-73.85 22.76,-66"/>
<polygon fill="red" stroke="red" points="25.87,-67.6 26.98,-57.06 19.54,-64.61 25.87,-67.6"/>
<text xml:space="preserve" text-anchor="middle" x="38.62" y="-76.95" font-family="Times,serif" font-size="14.00"> input </text>
</g>
<!-- S1&#45;&gt;S0 -->
<g id="edge3" class="edge">
<title>S1&#45;&gt;S0</title>
<path fill="none" stroke="red" d="M54.55,-55.72C56.08,-66.45 57.13,-78.92 56.25,-90.25 56.07,-92.58 55.84,-94.98 55.57,-97.39"/>
<polygon fill="red" stroke="red" points="52.12,-96.76 54.28,-107.13 59.06,-97.67 52.12,-96.76"/>
<text xml:space="preserve" text-anchor="middle" x="74.19" y="-76.95" font-family="Times,serif" font-size="14.00"> input </text>
</g>
</g>
</svg>
