<?xml version="1.0" encoding="UTF-8" standalone="no"?>
<!DOCTYPE svg PUBLIC "-//W3C//DTD SVG 1.1//EN"
 "http://www.w3.org/Graphics/SVG/1.1/DTD/svg11.dtd">
<!-- Generated by graphviz version 14.1.5 (20260411.2331)
 -->
<!-- Title: MealyDetector Pages: 1 -->
<svg width="89pt" height="246pt"
 viewBox="0.00 0.00 89.00 246.00" xmlns="http://www.w3.org/2000/svg" xmlns:xlink="http://www.w3.org/1999/xlink">
<g id="graph0" class="graph" transform="scale(1 1) rotate(0) translate(4 241.9)">
<title>MealyDetector</title>
<polygon fill="white" stroke="none" points="-4,4 -4,-241.9 84.85,-241.9 84.85,4 -4,4"/>
<!-- Entry -->
<g id="node1" class="node">
<title>Entry</title>
<ellipse fill="black" stroke="#00688b" cx="35.75" cy="-230.7" rx="7.2" ry="7.2"/>
</g>
<!-- S0 -->
<g id="node2" class="node">
<title>S0</title>
<path fill="azure" stroke="none" d="M59.5,-186.5C59.5,-186.5 12,-186.5 12,-186.5 6,-186.5 0,-180.5 0,-174.5 0,-174.5 0,-131.5 0,-131.5 0,-125.5 6,-119.5 12,-119.5 12,-119.5 59.5,-119.5 59.5,-119.5 65.5,-119.5 71.5,-125.5 71.5,-131.5 71.5,-131.5 71.5,-174.5 71.5,-174.5 71.5,-180.5 65.5,-186.5 59.5,-186.5"/>
<text xml:space="preserve" text-anchor="start" x="28.62" y="-166.2" font-family="Times,serif" font-weight="bold" font-size="14.00">S0</text>
<text xml:space="preserve" text-anchor="start" x="8" y="-141" font-family="Times,serif" font-size="10.00">input(bit: int)</text>
<text xml:space="preserve" text-anchor="start" x="22.25" y="-129.75" font-family="Times,serif" font-size="10.00"> &#160;&#160;&#160;&#160;&#160;&#160;&#160;&#160;&#160;&#160;&#160;</text>
<polygon fill="#00688b" stroke="#00688b" points="0,-156 0,-156 71.5,-156 71.5,-156 0,-156"/>
<path fill="none" stroke="#00688b" d="M12,-119.5C12,-119.5 59.5,-119.5 59.5,-119.5 65.5,-119.5 71.5,-125.5 71.5,-131.5 71.5,-131.5 71.5,-174.5 71.5,-174.5 71.5,-180.5 65.5,-186.5 59.5,-186.5 59.5,-186.5 12,-186.5 12,-186.5 6,-186.5 0,-180.5 0,-174.5 0,-174.5 0,-131.5 0,-131.5 0,-125.5 6,-119.5 12,-119.5"/>
</g>
<!-- Entry&#45;&gt;S0 -->
<g id="edge1" class="edge">
<title>Entry&#45;&gt;S0</title>
<path fill="none" stroke="red" d="M35.75,-223.25C35.75,-217.27 35.75,-207.82 35.75,-197.8"/>
<polygon fill="red" stroke="red" points="39.25,-197.91 35.75,-187.91 32.25,-197.91 39.25,-197.91"/>
</g>
<!-- S1 -->
<g id="node3" class="node">
<title>S1</title>
<path fill="azure" stroke="none" d="M59.5,-67C59.5,-67 12,-67 12,-67 6,-67 0,-61 0,-55 0,-55 0,-12 0,-12 0,-6 6,0 12,0 12,0 59.5,0 59.5,0 65.5,0 71.5,-6 71.5,-12 71.5,-12 71.5,-55 71.5,-55 71.5,-61 65.5,-67 59.5,-67"/>
<text xml:space="preserve" text-anchor="start" x="28.62" y="-46.7" font-family="Times,serif" font-weight="bold" font-size="14.00">S1</text>
<text xml:space="preserve" text-anchor="start" x="8" y="-21.5" font-family="Times,serif" font-size="10.00">input(bit: int)</text>
<text xml:space="preserve" text-anchor="start" x="22.25" y="-10.25" font-family="Times,serif" font-size="10.00"> &#160;&#160;&#160;&#160;&#160;&#160;&#160;&#160;&#160;&#160;&#160;</text>
<polygon fill="#00688b" stroke="#00688b" points="0,-36.5 0,-36.5 71.5,-36.5 71.5,-36.5 0,-36.5"/>
<path fill="none" stroke="#00688b" d="M12,0C12,0 59.5,0 59.5,0 65.5,0 71.5,-6 71.5,-12 71.5,-12 71.5,-55 71.5,-55 71.5,-61 65.5,-67 59.5,-67 59.5,-67 12,-67 12,-67 6,-67 0,-61 0,-55 0,-55 0,-12 0,-12 0,-6 6,0 12,0"/>
</g>
<!-- S0&#45;&gt;S1 -->
<g id="edge2" class="edge">
<title>S0&#45;&gt;S1</title>
<path fill="none" stroke="red" d="M14.14,-119.65C11.19,-113.82 8.63,-107.64 7,-101.5 4.88,-93.51 5.72,-85.23 8.14,-77.34"/>
<polygon fill="red" stroke="red" points="11.3,-78.87 11.73,-68.28 4.79,-76.29 11.3,-78.87"/>
<text xml:space="preserve" text-anchor="middle" x="25.38" y="-88.2" font-family="Times,serif" font-size="14.00"> bit=1 </text>
</g>
<!-- S1&#45;&gt;S0 -->
<g id="edge3" class="edge">
<title>S1&#45;&gt;S0</title>
<path fill="none" stroke="red" d="M42.21,-66.82C43.71,-77.81 44.64,-90.17 43.75,-101.5 43.57,-103.82 43.34,-106.19 43.08,-108.58"/>
<polygon fill="red" stroke="red" points="39.63,-107.89 41.82,-118.26 46.58,-108.79 39.63,-107.89"/>
<text xml:space="preserve" text-anchor="middle" x="62.47" y="-88.2" font-family="Times,serif" font-size="14.00"> bit=0 </text>
</g>
</g>
</svg>
