<?xml version="1.0" encoding="UTF-8" standalone="no"?>
<!DOCTYPE svg PUBLIC "-//W3C//DTD SVG 1.1//EN"
 "http://www.w3.org/Graphics/SVG/1.1/DTD/svg11.dtd">
<!-- Generated by graphviz version 14.1.5 (20260411.2331)
 -->
<!-- Title: MooreParity Pages: 1 -->
<svg width="89pt" height="246pt"
 viewBox="0.00 0.00 89.00 246.00" xmlns="http://www.w3.org/2000/svg" xmlns:xlink="http://www.w3.org/1999/xlink">
<g id="graph0" class="graph" transform="scale(1 1) rotate(0) translate(4 241.9)">
<title>MooreParity</title>
<polygon fill="white" stroke="none" points="-4,4 -4,-241.9 84.55,-241.9 84.55,4 -4,4"/>
<!-- Entry -->
<g id="node1" class="node">
<title>Entry</title>
<ellipse fill="black" stroke="#00688b" cx="38" cy="-230.7" rx="7.2" ry="7.2"/>
</g>
<!-- Even -->
<g id="node2" class="node">
<title>Even</title>
<path fill="azure" stroke="none" d="M64,-186.5C64,-186.5 12,-186.5 12,-186.5 6,-186.5 0,-180.5 0,-174.5 0,-174.5 0,-131.5 0,-131.5 0,-125.5 6,-119.5 12,-119.5 12,-119.5 64,-119.5 64,-119.5 70,-119.5 76,-125.5 76,-131.5 76,-131.5 76,-174.5 76,-174.5 76,-180.5 70,-186.5 64,-186.5"/>
<text xml:space="preserve" text-anchor="start" x="23.38" y="-166.2" font-family="Times,serif" font-weight="bold" font-size="14.00">Even</text>
<text xml:space="preserve" text-anchor="start" x="8" y="-129.84" font-family="Times,serif" font-size="10.00">input(bit: int)</text>
<text xml:space="preserve" text-anchor="start" x="8" y="-118.59" font-family="Times,serif" font-size="10.00">output() &#160;&#160;&#160;&#160;&#160;&#160;&#160;&#160;&#160;&#160;&#160;</text>
<polygon fill="#00688b" stroke="#00688b" points="0,-156 0,-156 76,-156 76,-156 0,-156"/>
<path fill="none" stroke="#00688b" d="M12,-119.5C12,-119.5 64,-119.5 64,-119.5 70,-119.5 76,-125.5 76,-131.5 76,-131.5 76,-174.5 76,-174.5 76,-180.5 70,-186.5 64,-186.5 64,-186.5 12,-186.5 12,-186.5 6,-186.5 0,-180.5 0,-174.5 0,-174.5 0,-131.5 0,-131.5 0,-125.5 6,-119.5 12,-119.5"/>
</g>
<!-- Entry&#45;&gt;Even -->
<g id="edge1" class="edge">
<title>Entry&#45;&gt;Even</title>
<path fill="none" stroke="red" d="M38,-223.25C38,-217.27 38,-207.82 38,-197.8"/>
<polygon fill="red" stroke="red" points="41.5,-197.91 38,-187.91 34.5,-197.91 41.5,-197.91"/>
</g>
<!-- Odd -->
<g id="node3" class="node">
<title>Odd</title>
<path fill="azure" stroke="none" d="M64,-67C64,-67 12,-67 12,-67 6,-67 0,-61 0,-55 0,-55 0,-12 0,-12 0,-6 6,0 12,0 12,0 64,0 64,0 70,0 76,-6 76,-12 76,-12 76,-55 76,-55 76,-61 70,-67 64,-67"/>
<text xml:space="preserve" text-anchor="start" x="24.88" y="-46.7" font-family="Times,serif" font-weight="bold" font-size="14.00">Odd</text>
<text xml:space="preserve" text-anchor="start" x="8" y="-10.34" font-family="Times,serif" font-size="10.00">input(bit: int)</text>
<text xml:space="preserve" text-anchor="start" x="8" y="0.91" font-family="Times,serif" font-size="10.00">output() &#160;&#160;&#160;&#160;&#160;&#160;&#160;&#160;&#160;&#160;&#160;</text>
<polygon fill="#00688b" stroke="#00688b" points="0,-36.5 0,-36.5 76,-36.5 76,-36.5 0,-36.5"/>
<path fill="none" stroke="#00688b" d="M12,0C12,0 64,0 64,0 70,0 76,-6 76,-12 76,-12 76,-55 76,-55 76,-61 70,-67 64,-67 64,-67 12,-67 12,-67 6,-67 0,-61 0,-55 0,-55 0,-12 0,-12 0,-6 6,0 12,0"/>
</g>
<!-- Even&#45;&gt;Odd -->
<g id="edge2" class="edge">
<title>Even&#45;&gt;Odd</title>
<path fill="none" stroke="red" d="M16.76,-119.61C13.87,-113.79 11.35,-107.62 9.75,-101.5 7.69,-93.61 8.47,-85.44 10.79,-77.63"/>
<polygon fill="red" stroke="red" points="14.05,-78.9 14.4,-68.31 7.52,-76.37 14.05,-78.9"/>
<text xml:space="preserve" text-anchor="middle" x="27.38" y="-88.2" font-family="Times,serif" font-size="14.00"> input </text>
</g>
<!-- Odd&#45;&gt;Even -->
<g id="edge3" class="edge">
<title>Odd&#45;&gt;Even</title>
<path fill="none" stroke="red" d="M43.15,-66.76C43.92,-72.81 44.59,-79.08 45,-85 45.52,-92.52 45.33,-100.49 44.76,-108.22"/>
<polygon fill="red" stroke="red" points="41.28,-107.87 43.8,-118.16 48.25,-108.55 41.28,-107.87"/>
<text xml:space="preserve" text-anchor="middle" x="62.93" y="-88.2" font-family="Times,serif" font-size="14.00"> input </text>
</g>
</g>
</svg>
