<?xml version="1.0" encoding="UTF-8" standalone="no"?>
<!DOCTYPE svg PUBLIC "-//W3C//DTD SVG 1.1//EN"
 "http://www.w3.org/Graphics/SVG/1.1/DTD/svg11.dtd">
<!-- Generated by graphviz version 14.1.5 (20260411.2331)
 -->
<!-- Title: MooreParity Pages: 1 -->
<svg width="120pt" height="246pt"
 viewBox="0.00 0.00 120.00 246.00" xmlns="http://www.w3.org/2000/svg" xmlns:xlink="http://www.w3.org/1999/xlink">
<g id="graph0" class="graph" transform="scale(1 1) rotate(0) translate(4 241.9)">
<title>MooreParity</title>
<polygon fill="white" stroke="none" points="-4,4 -4,-241.9 116,-241.9 116,4 -4,4"/>
<!-- Entry -->
<g id="node1" class="node">
<title>Entry</title>
<ellipse fill="black" stroke="#00688b" cx="56" cy="-230.7" rx="7.2" ry="7.2"/>
</g>
<!-- Even -->
<g id="node2" class="node">
<title>Even</title>
<path fill="azure" stroke="none" d="M100,-186.5C100,-186.5 12,-186.5 12,-186.5 6,-186.5 0,-180.5 0,-174.5 0,-174.5 0,-131.5 0,-131.5 0,-125.5 6,-119.5 12,-119.5 12,-119.5 100,-119.5 100,-119.5 106,-119.5 112,-125.5 112,-131.5 112,-131.5 112,-174.5 112,-174.5 112,-180.5 106,-186.5 100,-186.5"/>
<text xml:space="preserve" text-anchor="start" x="41.38" y="-166.2" font-family="Times,serif" font-weight="bold" font-size="14.00">Even</text>
<text xml:space="preserve" text-anchor="start" x="8" y="-141" font-family="Times,serif" font-size="10.00"> &#160;&#160;&#160;&#160;&#160;&#160;&#160;&#160;&#160;&#160;&#160;&#160;&#160;&#160;&#160;input(bit: int)</text>
<text xml:space="preserve" text-anchor="start" x="8" y="-129.75" font-family="Times,serif" font-size="10.00"> &#160;&#160;&#160;&#160;&#160;&#160;&#160;&#160;&#160;&#160;&#160;&#160;&#160;&#160;&#160;output() &#160;&#160;&#160;&#160;&#160;&#160;&#160;&#160;&#160;&#160;&#160;</text>
<polygon fill="#00688b" stroke="#00688b" points="0,-156 0,-156 112,-156 112,-156 0,-156"/>
<path fill="none" stroke="#00688b" d="M12,-119.5C12,-119.5 100,-119.5 100,-119.5 106,-119.5 112,-125.5 112,-131.5 112,-131.5 112,-174.5 112,-174.5 112,-180.5 106,-186.5 100,-186.5 100,-186.5 12,-186.5 12,-186.5 6,-186.5 0,-180.5 0,-174.5 0,-174.5 0,-131.5 0,-131.5 0,-125.5 6,-119.5 12,-119.5"/>
</g>
<!-- Entry&#45;&gt;Even -->
<g id="edge1" class="edge">
<title>Entry&#45;&gt;Even</title>
<path fill="none" stroke="red" d="M56,-223.25C56,-217.27 56,-207.82 56,-197.8"/>
<polygon fill="red" stroke="red" points="59.5,-197.91 56,-187.91 52.5,-197.91 59.5,-197.91"/>
</g>
<!-- Odd -->
<g id="node3" class="node">
<title>Odd</title>
<path fill="azure" stroke="none" d="M100,-67C100,-67 12,-67 12,-67 6,-67 0,-61 0,-55 0,-55 0,-12 0,-12 0,-6 6,0 12,0 12,0 100,0 100,0 106,0 112,-6 112,-12 112,-12 112,-55 112,-55 112,-61 106,-67 100,-67"/>
<text xml:space="preserve" text-anchor="start" x="42.88" y="-46.7" font-family="Times,serif" font-weight="bold" font-size="14.00">Odd</text>
<text xml:space="preserve" text-anchor="start" x="8" y="-21.5" font-family="Times,serif" font-size="10.00"> &#160;&#160;&#160;&#160;&#160;&#160;&#160;&#160;&#160;&#160;&#160;&#160;&#160;&#160;&#160;input(bit: int)</text>
<text xml:space="preserve" text-anchor="start" x="8" y="-10.25" font-family="Times,serif" font-size="10.00"> &#160;&#160;&#160;&#160;&#160;&#160;&#160;&#160;&#160;&#160;&#160;&#160;&#160;&#160;&#160;output() &#160;&#160;&#160;&#160;&#160;&#160;&#160;&#160;&#160;&#160;&#160;</text>
<polygon fill="#00688b" stroke="#00688b" points="0,-36.5 0,-36.5 112,-36.5 112,-36.5 0,-36.5"/>
<path fill="none" stroke="#00688b" d="M12,0C12,0 100,0 100,0 106,0 112,-6 112,-12 112,-12 112,-55 112,-55 112,-61 106,-67 100,-67 100,-67 12,-67 12,-67 6,-67 0,-61 0,-55 0,-55 0,-12 0,-12 0,-6 6,0 12,0"/>
</g>
<!-- Even&#45;&gt;Odd -->
<g id="edge2" class="edge">
<title>Even&#45;&gt;Odd</title>
<path fill="none" stroke="red" d="M34.76,-119.61C31.87,-113.79 29.35,-107.62 27.75,-101.5 25.69,-93.61 26.47,-85.44 28.79,-77.63"/>
<polygon fill="red" stroke="red" points="32.05,-78.9 32.4,-68.31 25.52,-76.37 32.05,-78.9"/>
<text xml:space="preserve" text-anchor="middle" x="45.38" y="-88.2" font-family="Times,serif" font-size="14.00"> input </text>
</g>
<!-- Odd&#45;&gt;Even -->
<g id="edge3" class="edge">
<title>Odd&#45;&gt;Even</title>
<path fill="none" stroke="red" d="M61.15,-66.76C61.92,-72.81 62.59,-79.08 63,-85 63.52,-92.52 63.33,-100.49 62.76,-108.22"/>
<polygon fill="red" stroke="red" points="59.28,-107.87 61.8,-118.16 66.25,-108.55 59.28,-107.87"/>
<text xml:space="preserve" text-anchor="middle" x="80.93" y="-88.2" font-family="Times,serif" font-size="14.00"> input </text>
</g>
</g>
</svg>
