<?xml version="1.0" encoding="UTF-8" standalone="no"?>
<!DOCTYPE svg PUBLIC "-//W3C//DTD SVG 1.1//EN"
 "http://www.w3.org/Graphics/SVG/1.1/DTD/svg11.dtd">
<!-- Generated by graphviz version 14.1.5 (20260411.2331)
 -->
<!-- Title: MooreParity Pages: 1 -->
<svg width="86pt" height="268pt"
 viewBox="0.00 0.00 86.00 268.00" xmlns="http://www.w3.org/2000/svg" xmlns:xlink="http://www.w3.org/1999/xlink">
<g id="graph0" class="graph" transform="scale(1 1) rotate(0) translate(4 264.4)">
<title>MooreParity</title>
<polygon fill="white" stroke="none" points="-4,4 -4,-264.4 82.29,-264.4 82.29,4 -4,4"/>
<!-- Entry -->
<g id="node1" class="node">
<title>Entry</title>
<ellipse fill="black" stroke="#00688b" cx="35.75" cy="-253.2" rx="7.2" ry="7.2"/>
</g>
<!-- Even -->
<g id="node2" class="node">
<title>Even</title>
<path fill="azure" stroke="none" d="M59.5,-209C59.5,-209 12,-209 12,-209 6,-209 0,-203 0,-197 0,-197 0,-142.75 0,-142.75 0,-136.75 6,-130.75 12,-130.75 12,-130.75 59.5,-130.75 59.5,-130.75 65.5,-130.75 71.5,-136.75 71.5,-142.75 71.5,-142.75 71.5,-197 71.5,-197 71.5,-203 65.5,-209 59.5,-209"/>
<text xml:space="preserve" text-anchor="start" x="21.12" y="-188.7" font-family="Times,serif" font-weight="bold" font-size="14.00">Even</text>
<text xml:space="preserve" text-anchor="start" x="8" y="-163.5" font-family="Times,serif" font-size="10.00">input(bit: int)</text>
<text xml:space="preserve" text-anchor="start" x="8" y="-152.25" font-family="Times,serif" font-size="10.00">output()</text>
<text xml:space="preserve" text-anchor="start" x="22.25" y="-141" font-family="Times,serif" font-size="10.00"> &#160;&#160;&#160;&#160;&#160;&#160;&#160;&#160;&#160;&#160;&#160;</text>
<polygon fill="#00688b" stroke="#00688b" points="0,-178.5 0,-178.5 71.5,-178.5 71.5,-178.5 0,-178.5"/>
<path fill="none" stroke="#00688b" d="M12,-130.75C12,-130.75 59.5,-130.75 59.5,-130.75 65.5,-130.75 71.5,-136.75 71.5,-142.75 71.5,-142.75 71.5,-197 71.5,-197 71.5,-203 65.5,-209 59.5,-209 59.5,-209 12,-209 12,-209 6,-209 0,-203 0,-197 0,-197 0,-142.75 0,-142.75 0,-136.75 6,-130.75 12,-130.75"/>
</g>
<!-- Entry&#45;&gt;Even -->
<g id="edge1" class="edge">
<title>Entry&#45;&gt;Even</title>
<path fill="none" stroke="red" d="M35.75,-245.54C35.75,-239.53 35.75,-230.07 35.75,-219.88"/>
<polygon fill="red" stroke="red" points="39.25,-220.19 35.75,-210.19 32.25,-220.19 39.25,-220.19"/>
</g>
<!-- Odd -->
<g id="node3" class="node">
<title>Odd</title>
<path fill="azure" stroke="none" d="M59.5,-78.25C59.5,-78.25 12,-78.25 12,-78.25 6,-78.25 0,-72.25 0,-66.25 0,-66.25 0,-12 0,-12 0,-6 6,0 12,0 12,0 59.5,0 59.5,0 65.5,0 71.5,-6 71.5,-12 71.5,-12 71.5,-66.25 71.5,-66.25 71.5,-72.25 65.5,-78.25 59.5,-78.25"/>
<text xml:space="preserve" text-anchor="start" x="22.62" y="-57.95" font-family="Times,serif" font-weight="bold" font-size="14.00">Odd</text>
<text xml:space="preserve" text-anchor="start" x="8" y="-32.75" font-family="Times,serif" font-size="10.00">input(bit: int)</text>
<text xml:space="preserve" text-anchor="start" x="8" y="-21.5" font-family="Times,serif" font-size="10.00">output()</text>
<text xml:space="preserve" text-anchor="start" x="22.25" y="-10.25" font-family="Times,serif" font-size="10.00"> &#160;&#160;&#160;&#160;&#160;&#160;&#160;&#160;&#160;&#160;&#160;</text>
<polygon fill="#00688b" stroke="#00688b" points="0,-47.75 0,-47.75 71.5,-47.75 71.5,-47.75 0,-47.75"/>
<path fill="none" stroke="#00688b" d="M12,0C12,0 59.5,0 59.5,0 65.5,0 71.5,-6 71.5,-12 71.5,-12 71.5,-66.25 71.5,-66.25 71.5,-72.25 65.5,-78.25 59.5,-78.25 59.5,-78.25 12,-78.25 12,-78.25 6,-78.25 0,-72.25 0,-66.25 0,-66.25 0,-12 0,-12 0,-6 6,0 12,0"/>
</g>
<!-- Even&#45;&gt;Odd -->
<g id="edge2" class="edge">
<title>Even&#45;&gt;Odd</title>
<path fill="none" stroke="red" d="M13.68,-130.83C11.13,-124.94 8.94,-118.8 7.5,-112.75 5.63,-104.88 6.18,-96.72 8.11,-88.84"/>
<polygon fill="red" stroke="red" points="11.42,-89.97 11.2,-79.38 4.77,-87.8 11.42,-89.97"/>
<text xml:space="preserve" text-anchor="middle" x="25.12" y="-99.45" font-family="Times,serif" font-size="14.00"> input </text>
</g>
<!-- Odd&#45;&gt;Even -->
<g id="edge3" class="edge">
<title>Odd&#45;&gt;Even</title>
<path fill="none" stroke="red" d="M41.69,-78.16C42.82,-89.29 43.45,-101.5 42.75,-112.75 42.61,-114.96 42.45,-117.21 42.26,-119.48"/>
<polygon fill="red" stroke="red" points="38.78,-119.09 41.28,-129.39 45.74,-119.78 38.78,-119.09"/>
<text xml:space="preserve" text-anchor="middle" x="60.67" y="-99.45" font-family="Times,serif" font-size="14.00"> input </text>
</g>
</g>
</svg>
