<?xml version="1.0" encoding="UTF-8" standalone="no"?>
<!DOCTYPE svg PUBLIC "-//W3C//DTD SVG 1.1//EN"
 "http://www.w3.org/Graphics/SVG/1.1/DTD/svg11.dtd">
<!-- Generated by graphviz version 14.1.5 (20260411.2331)
 -->
<!-- Title: Session Pages: 1 -->
<svg width="119pt" height="246pt"
 viewBox="0.00 0.00 119.00 246.00" xmlns="http://www.w3.org/2000/svg" xmlns:xlink="http://www.w3.org/1999/xlink">
<g id="graph0" class="graph" transform="scale(1 1) rotate(0) translate(4 241.9)">
<title>Session</title>
<polygon fill="white" stroke="none" points="-4,4 -4,-241.9 115.25,-241.9 115.25,4 -4,4"/>
<!-- Entry -->
<g id="node1" class="node">
<title>Entry</title>
<ellipse fill="black" stroke="#00688b" cx="55.62" cy="-230.7" rx="7.2" ry="7.2"/>
</g>
<!-- LoggedOut -->
<g id="node2" class="node">
<title>LoggedOut</title>
<path fill="azure" stroke="none" d="M99.25,-186.5C99.25,-186.5 12,-186.5 12,-186.5 6,-186.5 0,-180.5 0,-174.5 0,-174.5 0,-131.5 0,-131.5 0,-125.5 6,-119.5 12,-119.5 12,-119.5 99.25,-119.5 99.25,-119.5 105.25,-119.5 111.25,-125.5 111.25,-131.5 111.25,-131.5 111.25,-174.5 111.25,-174.5 111.25,-180.5 105.25,-186.5 99.25,-186.5"/>
<text xml:space="preserve" text-anchor="start" x="22.62" y="-166.2" font-family="Times,serif" font-weight="bold" font-size="14.00">LoggedOut</text>
<text xml:space="preserve" text-anchor="start" x="8" y="-141" font-family="Times,serif" font-size="10.00"> &#160;&#160;&#160;&#160;&#160;&#160;&#160;&#160;&#160;&#160;&#160;&#160;&#160;&#160;&#160;login(user: str)</text>
<text xml:space="preserve" text-anchor="start" x="12.12" y="-129.75" font-family="Times,serif" font-size="10.00"> &#160;&#160;&#160;&#160;&#160;&#160;&#160;&#160;&#160;&#160;&#160;&#160;&#160;&#160;&#160;who() &#160;&#160;&#160;&#160;&#160;&#160;&#160;&#160;&#160;&#160;&#160;</text>
<polygon fill="#00688b" stroke="#00688b" points="0,-156 0,-156 111.25,-156 111.25,-156 0,-156"/>
<path fill="none" stroke="#00688b" d="M12,-119.5C12,-119.5 99.25,-119.5 99.25,-119.5 105.25,-119.5 111.25,-125.5 111.25,-131.5 111.25,-131.5 111.25,-174.5 111.25,-174.5 111.25,-180.5 105.25,-186.5 99.25,-186.5 99.25,-186.5 12,-186.5 12,-186.5 6,-186.5 0,-180.5 0,-174.5 0,-174.5 0,-131.5 0,-131.5 0,-125.5 6,-119.5 12,-119.5"/>
</g>
<!-- Entry&#45;&gt;LoggedOut -->
<g id="edge1" class="edge">
<title>Entry&#45;&gt;LoggedOut</title>
<path fill="none" stroke="red" d="M55.62,-223.25C55.62,-217.27 55.62,-207.82 55.62,-197.8"/>
<polygon fill="red" stroke="red" points="59.13,-197.91 55.63,-187.91 52.13,-197.91 59.13,-197.91"/>
</g>
<!-- LoggedIn -->
<g id="node3" class="node">
<title>LoggedIn</title>
<path fill="azure" stroke="none" d="M95.12,-67C95.12,-67 16.12,-67 16.12,-67 10.12,-67 4.12,-61 4.12,-55 4.12,-55 4.12,-12 4.12,-12 4.12,-6 10.12,0 16.12,0 16.12,0 95.12,0 95.12,0 101.12,0 107.12,-6 107.12,-12 107.12,-12 107.12,-55 107.12,-55 107.12,-61 101.12,-67 95.12,-67"/>
<text xml:space="preserve" text-anchor="start" x="27.88" y="-46.7" font-family="Times,serif" font-weight="bold" font-size="14.00">LoggedIn</text>
<text xml:space="preserve" text-anchor="start" x="21.12" y="-21.5" font-family="Times,serif" font-size="10.00"> &#160;&#160;&#160;&#160;&#160;&#160;&#160;&#160;&#160;&#160;&#160;&#160;&#160;&#160;&#160;logout()</text>
<text xml:space="preserve" text-anchor="start" x="12.12" y="-10.25" font-family="Times,serif" font-size="10.00"> &#160;&#160;&#160;&#160;&#160;&#160;&#160;&#160;&#160;&#160;&#160;&#160;&#160;&#160;&#160;who() &#160;&#160;&#160;&#160;&#160;&#160;&#160;&#160;&#160;&#160;&#160;</text>
<polygon fill="#00688b" stroke="#00688b" points="4.12,-36.5 4.12,-36.5 107.12,-36.5 107.12,-36.5 4.12,-36.5"/>
<path fill="none" stroke="#00688b" d="M16.12,0C16.12,0 95.12,0 95.12,0 101.12,0 107.12,-6 107.12,-12 107.12,-12 107.12,-55 107.12,-55 107.12,-61 101.12,-67 95.12,-67 95.12,-67 16.12,-67 16.12,-67 10.12,-67 4.12,-61 4.12,-55 4.12,-55 4.12,-12 4.12,-12 4.12,-6 10.12,0 16.12,0"/>
</g>
<!-- LoggedOut&#45;&gt;LoggedIn -->
<g id="edge2" class="edge">
<title>LoggedOut&#45;&gt;LoggedIn</title>
<path fill="none" stroke="red" d="M34.39,-119.61C31.49,-113.79 28.97,-107.62 27.38,-101.5 25.32,-93.61 26.1,-85.44 28.41,-77.63"/>
<polygon fill="red" stroke="red" points="31.67,-78.9 32.02,-68.31 25.15,-76.37 31.67,-78.9"/>
<text xml:space="preserve" text-anchor="middle" x="45" y="-88.2" font-family="Times,serif" font-size="14.00"> login </text>
</g>
<!-- LoggedIn&#45;&gt;LoggedOut -->
<g id="edge3" class="edge">
<title>LoggedIn&#45;&gt;LoggedOut</title>
<path fill="none" stroke="red" d="M60.77,-66.76C61.54,-72.81 62.22,-79.08 62.62,-85 63.14,-92.52 62.96,-100.49 62.39,-108.22"/>
<polygon fill="red" stroke="red" points="58.91,-107.87 61.42,-118.16 65.87,-108.55 58.91,-107.87"/>
<text xml:space="preserve" text-anchor="middle" x="83.93" y="-88.2" font-family="Times,serif" font-size="14.00"> logout </text>
</g>
</g>
</svg>
