<?xml version="1.0" encoding="UTF-8" standalone="no"?>
<!DOCTYPE svg PUBLIC "-//W3C//DTD SVG 1.1//EN"
 "http://www.w3.org/Graphics/SVG/1.1/DTD/svg11.dtd">
<!-- Generated by graphviz version 14.1.5 (20260411.2331)
 -->
<!-- Title: Session Pages: 1 -->
<svg width="98pt" height="268pt"
 viewBox="0.00 0.00 98.00 268.00" xmlns="http://www.w3.org/2000/svg" xmlns:xlink="http://www.w3.org/1999/xlink">
<g id="graph0" class="graph" transform="scale(1 1) rotate(0) translate(4 264.4)">
<title>Session</title>
<polygon fill="white" stroke="none" points="-4,4 -4,-264.4 94.29,-264.4 94.29,4 -4,4"/>
<!-- Entry -->
<g id="node1" class="node">
<title>Entry</title>
<ellipse fill="black" stroke="#00688b" cx="41" cy="-253.2" rx="7.2" ry="7.2"/>
</g>
<!-- LoggedOut -->
<g id="node2" class="node">
<title>LoggedOut</title>
<path fill="azure" stroke="none" d="M70,-209C70,-209 12,-209 12,-209 6,-209 0,-203 0,-197 0,-197 0,-142.75 0,-142.75 0,-136.75 6,-130.75 12,-130.75 12,-130.75 70,-130.75 70,-130.75 76,-130.75 82,-136.75 82,-142.75 82,-142.75 82,-197 82,-197 82,-203 76,-209 70,-209"/>
<text xml:space="preserve" text-anchor="start" x="8" y="-188.7" font-family="Times,serif" font-weight="bold" font-size="14.00">LoggedOut</text>
<text xml:space="preserve" text-anchor="start" x="8" y="-163.5" font-family="Times,serif" font-size="10.00">login(user: str)</text>
<text xml:space="preserve" text-anchor="start" x="8" y="-152.25" font-family="Times,serif" font-size="10.00">who()</text>
<text xml:space="preserve" text-anchor="start" x="24.12" y="-141" font-family="Times,serif" font-size="10.00"> &#160;&#160;&#160;&#160;&#160;&#160;&#160;&#160;&#160;&#160;&#160;</text>
<polygon fill="#00688b" stroke="#00688b" points="0,-178.5 0,-178.5 82,-178.5 82,-178.5 0,-178.5"/>
<path fill="none" stroke="#00688b" d="M12,-130.75C12,-130.75 70,-130.75 70,-130.75 76,-130.75 82,-136.75 82,-142.75 82,-142.75 82,-197 82,-197 82,-203 76,-209 70,-209 70,-209 12,-209 12,-209 6,-209 0,-203 0,-197 0,-197 0,-142.75 0,-142.75 0,-136.75 6,-130.75 12,-130.75"/>
</g>
<!-- Entry&#45;&gt;LoggedOut -->
<g id="edge1" class="edge">
<title>Entry&#45;&gt;LoggedOut</title>
<path fill="none" stroke="red" d="M41,-245.54C41,-239.53 41,-230.07 41,-219.88"/>
<polygon fill="red" stroke="red" points="44.5,-220.19 41,-210.19 37.5,-220.19 44.5,-220.19"/>
</g>
<!-- LoggedIn -->
<g id="node3" class="node">
<title>LoggedIn</title>
<path fill="azure" stroke="none" d="M64.75,-78.25C64.75,-78.25 17.25,-78.25 17.25,-78.25 11.25,-78.25 5.25,-72.25 5.25,-66.25 5.25,-66.25 5.25,-12 5.25,-12 5.25,-6 11.25,0 17.25,0 17.25,0 64.75,0 64.75,0 70.75,0 76.75,-6 76.75,-12 76.75,-12 76.75,-66.25 76.75,-66.25 76.75,-72.25 70.75,-78.25 64.75,-78.25"/>
<text xml:space="preserve" text-anchor="start" x="13.25" y="-57.95" font-family="Times,serif" font-weight="bold" font-size="14.00">LoggedIn</text>
<text xml:space="preserve" text-anchor="start" x="13.25" y="-32.75" font-family="Times,serif" font-size="10.00">logout()</text>
<text xml:space="preserve" text-anchor="start" x="13.25" y="-21.5" font-family="Times,serif" font-size="10.00">who()</text>
<text xml:space="preserve" text-anchor="start" x="16.25" y="-10.25" font-family="Times,serif" font-size="10.00"> &#160;&#160;&#160;&#160;&#160;&#160;&#160;&#160;&#160;&#160;&#160;</text>
<polygon fill="#00688b" stroke="#00688b" points="5.25,-47.75 5.25,-47.75 76.75,-47.75 76.75,-47.75 5.25,-47.75"/>
<path fill="none" stroke="#00688b" d="M17.25,0C17.25,0 64.75,0 64.75,0 70.75,0 76.75,-6 76.75,-12 76.75,-12 76.75,-66.25 76.75,-66.25 76.75,-72.25 70.75,-78.25 64.75,-78.25 64.75,-78.25 17.25,-78.25 17.25,-78.25 11.25,-78.25 5.25,-72.25 5.25,-66.25 5.25,-66.25 5.25,-12 5.25,-12 5.25,-6 11.25,0 17.25,0"/>
</g>
<!-- LoggedOut&#45;&gt;LoggedIn -->
<g id="edge2" class="edge">
<title>LoggedOut&#45;&gt;LoggedIn</title>
<path fill="none" stroke="red" d="M18.93,-130.83C16.38,-124.94 14.19,-118.8 12.75,-112.75 10.88,-104.88 11.43,-96.72 13.36,-88.84"/>
<polygon fill="red" stroke="red" points="16.67,-89.97 16.45,-79.38 10.02,-87.8 16.67,-89.97"/>
<text xml:space="preserve" text-anchor="middle" x="30.38" y="-99.45" font-family="Times,serif" font-size="14.00"> login </text>
</g>
<!-- LoggedIn&#45;&gt;LoggedOut -->
<g id="edge3" class="edge">
<title>LoggedIn&#45;&gt;LoggedOut</title>
<path fill="none" stroke="red" d="M46.94,-78.16C48.07,-89.29 48.7,-101.5 48,-112.75 47.86,-114.96 47.7,-117.21 47.51,-119.48"/>
<polygon fill="red" stroke="red" points="44.03,-119.09 46.53,-129.39 50.99,-119.78 44.03,-119.09"/>
<text xml:space="preserve" text-anchor="middle" x="69.29" y="-99.45" font-family="Times,serif" font-size="14.00"> logout </text>
</g>
</g>
</svg>
