<?xml version="1.0" encoding="UTF-8" standalone="no"?>
<!DOCTYPE svg PUBLIC "-//W3C//DTD SVG 1.1//EN"
 "http://www.w3.org/Graphics/SVG/1.1/DTD/svg11.dtd">
<!-- Generated by graphviz version 14.1.5 (20260411.2331)
 -->
<!-- Title: Session Pages: 1 -->
<svg width="98pt" height="246pt"
 viewBox="0.00 0.00 98.00 246.00" xmlns="http://www.w3.org/2000/svg" xmlns:xlink="http://www.w3.org/1999/xlink">
<g id="graph0" class="graph" transform="scale(1 1) rotate(0) translate(4 241.9)">
<title>Session</title>
<polygon fill="white" stroke="none" points="-4,4 -4,-241.9 94.3,-241.9 94.3,4 -4,4"/>
<!-- Entry -->
<g id="node1" class="node">
<title>Entry</title>
<ellipse fill="black" stroke="#00688b" cx="41" cy="-230.7" rx="7.2" ry="7.2"/>
</g>
<!-- LoggedOut -->
<g id="node2" class="node">
<title>LoggedOut</title>
<path fill="azure" stroke="none" d="M70,-186.5C70,-186.5 12,-186.5 12,-186.5 6,-186.5 0,-180.5 0,-174.5 0,-174.5 0,-131.5 0,-131.5 0,-125.5 6,-119.5 12,-119.5 12,-119.5 70,-119.5 70,-119.5 76,-119.5 82,-125.5 82,-131.5 82,-131.5 82,-174.5 82,-174.5 82,-180.5 76,-186.5 70,-186.5"/>
<text xml:space="preserve" text-anchor="start" x="8" y="-166.2" font-family="Times,serif" font-weight="bold" font-size="14.00">LoggedOut</text>
<text xml:space="preserve" text-anchor="start" x="8" y="-129.84" font-family="Times,serif" font-size="10.00">login(user: str)</text>
<text xml:space="preserve" text-anchor="start" x="12.12" y="-118.59" font-family="Times,serif" font-size="10.00">who() &#160;&#160;&#160;&#160;&#160;&#160;&#160;&#160;&#160;&#160;&#160;</text>
<polygon fill="#00688b" stroke="#00688b" points="0,-156 0,-156 82,-156 82,-156 0,-156"/>
<path fill="none" stroke="#00688b" d="M12,-119.5C12,-119.5 70,-119.5 70,-119.5 76,-119.5 82,-125.5 82,-131.5 82,-131.5 82,-174.5 82,-174.5 82,-180.5 76,-186.5 70,-186.5 70,-186.5 12,-186.5 12,-186.5 6,-186.5 0,-180.5 0,-174.5 0,-174.5 0,-131.5 0,-131.5 0,-125.5 6,-119.5 12,-119.5"/>
</g>
<!-- Entry&#45;&gt;LoggedOut -->
<g id="edge1" class="edge">
<title>Entry&#45;&gt;LoggedOut</title>
<path fill="none" stroke="red" d="M41,-223.25C41,-217.27 41,-207.82 41,-197.8"/>
<polygon fill="red" stroke="red" points="44.5,-197.91 41,-187.91 37.5,-197.91 44.5,-197.91"/>
</g>
<!-- LoggedIn -->
<g id="node3" class="node">
<title>LoggedIn</title>
<path fill="azure" stroke="none" d="M64.75,-67C64.75,-67 17.25,-67 17.25,-67 11.25,-67 5.25,-61 5.25,-55 5.25,-55 5.25,-12 5.25,-12 5.25,-6 11.25,0 17.25,0 17.25,0 64.75,0 64.75,0 70.75,0 76.75,-6 76.75,-12 76.75,-12 76.75,-55 76.75,-55 76.75,-61 70.75,-67 64.75,-67"/>
<text xml:space="preserve" text-anchor="start" x="13.25" y="-46.7" font-family="Times,serif" font-weight="bold" font-size="14.00">LoggedIn</text>
<text xml:space="preserve" text-anchor="start" x="13.25" y="-10.34" font-family="Times,serif" font-size="10.00">logout()</text>
<text xml:space="preserve" text-anchor="start" x="13.25" y="0.91" font-family="Times,serif" font-size="10.00">who() &#160;&#160;&#160;&#160;&#160;&#160;&#160;&#160;&#160;&#160;&#160;</text>
<polygon fill="#00688b" stroke="#00688b" points="5.25,-36.5 5.25,-36.5 76.75,-36.5 76.75,-36.5 5.25,-36.5"/>
<path fill="none" stroke="#00688b" d="M17.25,0C17.25,0 64.75,0 64.75,0 70.75,0 76.75,-6 76.75,-12 76.75,-12 76.75,-55 76.75,-55 76.75,-61 70.75,-67 64.75,-67 64.75,-67 17.25,-67 17.25,-67 11.25,-67 5.25,-61 5.25,-55 5.25,-55 5.25,-12 5.25,-12 5.25,-6 11.25,0 17.25,0"/>
</g>
<!-- LoggedOut&#45;&gt;LoggedIn -->
<g id="edge2" class="edge">
<title>LoggedOut&#45;&gt;LoggedIn</title>
<path fill="none" stroke="red" d="M19.76,-119.61C16.87,-113.79 14.35,-107.62 12.75,-101.5 10.69,-93.61 11.47,-85.44 13.79,-77.63"/>
<polygon fill="red" stroke="red" points="17.05,-78.9 17.4,-68.31 10.52,-76.37 17.05,-78.9"/>
<text xml:space="preserve" text-anchor="middle" x="30.38" y="-88.2" font-family="Times,serif" font-size="14.00"> login </text>
</g>
<!-- LoggedIn&#45;&gt;LoggedOut -->
<g id="edge3" class="edge">
<title>LoggedIn&#45;&gt;LoggedOut</title>
<path fill="none" stroke="red" d="M46.15,-66.76C46.92,-72.81 47.59,-79.08 48,-85 48.52,-92.52 48.33,-100.49 47.76,-108.22"/>
<polygon fill="red" stroke="red" points="44.28,-107.87 46.8,-118.16 51.25,-108.55 44.28,-107.87"/>
<text xml:space="preserve" text-anchor="middle" x="69.3" y="-88.2" font-family="Times,serif" font-size="14.00"> logout </text>
</g>
</g>
</svg>
