<?xml version="1.0" encoding="UTF-8" standalone="no"?>
<!DOCTYPE svg PUBLIC "-//W3C//DTD SVG 1.1//EN"
 "http://www.w3.org/Graphics/SVG/1.1/DTD/svg11.dtd">
<!-- Generated by graphviz version 14.1.5 (20260411.2331)
 -->
<!-- Title: HttpClient Pages: 1 -->
<svg width="129pt" height="291pt"
 viewBox="0.00 0.00 129.00 291.00" xmlns="http://www.w3.org/2000/svg" xmlns:xlink="http://www.w3.org/1999/xlink">
<g id="graph0" class="graph" transform="scale(1 1) rotate(0) translate(4 286.9)">
<title>HttpClient</title>
<polygon fill="white" stroke="none" points="-4,4 -4,-286.9 125.28,-286.9 125.28,4 -4,4"/>
<!-- Entry -->
<g id="node1" class="node">
<title>Entry</title>
<ellipse fill="black" stroke="#00688b" cx="40.25" cy="-275.7" rx="7.2" ry="7.2"/>
</g>
<!-- Idle -->
<g id="node2" class="node">
<title>Idle</title>
<path fill="azure" stroke="none" d="M68.5,-231.5C68.5,-231.5 12,-231.5 12,-231.5 6,-231.5 0,-225.5 0,-219.5 0,-219.5 0,-165.25 0,-165.25 0,-159.25 6,-153.25 12,-153.25 12,-153.25 68.5,-153.25 68.5,-153.25 74.5,-153.25 80.5,-159.25 80.5,-165.25 80.5,-165.25 80.5,-219.5 80.5,-219.5 80.5,-225.5 74.5,-231.5 68.5,-231.5"/>
<text xml:space="preserve" text-anchor="start" x="29" y="-211.2" font-family="Times,serif" font-weight="bold" font-size="14.00">Idle</text>
<text xml:space="preserve" text-anchor="start" x="8" y="-186" font-family="Times,serif" font-size="10.00">$&gt;()</text>
<text xml:space="preserve" text-anchor="start" x="8" y="-174.75" font-family="Times,serif" font-size="10.00">connect(url: str)</text>
<text xml:space="preserve" text-anchor="start" x="26.75" y="-163.5" font-family="Times,serif" font-size="10.00"> &#160;&#160;&#160;&#160;&#160;&#160;&#160;&#160;&#160;&#160;&#160;</text>
<polygon fill="#00688b" stroke="#00688b" points="0,-201 0,-201 80.5,-201 80.5,-201 0,-201"/>
<path fill="none" stroke="#00688b" d="M12,-153.25C12,-153.25 68.5,-153.25 68.5,-153.25 74.5,-153.25 80.5,-159.25 80.5,-165.25 80.5,-165.25 80.5,-219.5 80.5,-219.5 80.5,-225.5 74.5,-231.5 68.5,-231.5 68.5,-231.5 12,-231.5 12,-231.5 6,-231.5 0,-225.5 0,-219.5 0,-219.5 0,-165.25 0,-165.25 0,-159.25 6,-153.25 12,-153.25"/>
</g>
<!-- Entry&#45;&gt;Idle -->
<g id="edge1" class="edge">
<title>Entry&#45;&gt;Idle</title>
<path fill="none" stroke="red" d="M40.25,-268.04C40.25,-262.03 40.25,-252.57 40.25,-242.38"/>
<polygon fill="red" stroke="red" points="43.75,-242.69 40.25,-232.69 36.75,-242.69 43.75,-242.69"/>
</g>
<!-- Connected -->
<g id="node3" class="node">
<title>Connected</title>
<path fill="azure" stroke="none" d="M67,-100.75C67,-100.75 13.5,-100.75 13.5,-100.75 7.5,-100.75 1.5,-94.75 1.5,-88.75 1.5,-88.75 1.5,-12 1.5,-12 1.5,-6 7.5,0 13.5,0 13.5,0 67,0 67,0 73,0 79,-6 79,-12 79,-12 79,-88.75 79,-88.75 79,-94.75 73,-100.75 67,-100.75"/>
<text xml:space="preserve" text-anchor="start" x="9.5" y="-80.45" font-family="Times,serif" font-weight="bold" font-size="14.00">Connected</text>
<text xml:space="preserve" text-anchor="start" x="9.5" y="-55.25" font-family="Times,serif" font-size="10.00">$&gt;()</text>
<text xml:space="preserve" text-anchor="start" x="9.5" y="-44" font-family="Times,serif" font-size="10.00">&lt;$()</text>
<text xml:space="preserve" text-anchor="start" x="9.5" y="-32.75" font-family="Times,serif" font-size="10.00">fetch(path: str)</text>
<text xml:space="preserve" text-anchor="start" x="9.5" y="-21.5" font-family="Times,serif" font-size="10.00">disconnect()</text>
<text xml:space="preserve" text-anchor="start" x="25.62" y="-10.25" font-family="Times,serif" font-size="10.00"> &#160;&#160;&#160;&#160;&#160;&#160;&#160;&#160;&#160;&#160;&#160;</text>
<polygon fill="#00688b" stroke="#00688b" points="1.5,-70.25 1.5,-70.25 79,-70.25 79,-70.25 1.5,-70.25"/>
<path fill="none" stroke="#00688b" d="M13.5,0C13.5,0 67,0 67,0 73,0 79,-6 79,-12 79,-12 79,-88.75 79,-88.75 79,-94.75 73,-100.75 67,-100.75 67,-100.75 13.5,-100.75 13.5,-100.75 7.5,-100.75 1.5,-94.75 1.5,-88.75 1.5,-88.75 1.5,-12 1.5,-12 1.5,-6 7.5,0 13.5,0"/>
</g>
<!-- Idle&#45;&gt;Connected -->
<g id="edge2" class="edge">
<title>Idle&#45;&gt;Connected</title>
<path fill="none" stroke="red" d="M13.17,-153.42C10.12,-147.57 7.49,-141.41 5.75,-135.25 3.54,-127.42 3.62,-119.34 5.17,-111.42"/>
<polygon fill="red" stroke="red" points="8.52,-112.41 7.83,-101.84 1.78,-110.54 8.52,-112.41"/>
<text xml:space="preserve" text-anchor="middle" x="30.5" y="-121.95" font-family="Times,serif" font-size="14.00"> connect </text>
</g>
<!-- Connected&#45;&gt;Idle -->
<g id="edge3" class="edge">
<title>Connected&#45;&gt;Idle</title>
<path fill="none" stroke="red" d="M54.17,-100.49C55.97,-111.87 56.73,-123.96 55.25,-135.25 54.95,-137.55 54.58,-139.9 54.16,-142.26"/>
<polygon fill="red" stroke="red" points="50.78,-141.32 52.16,-151.82 57.63,-142.75 50.78,-141.32"/>
<text xml:space="preserve" text-anchor="middle" x="88.65" y="-121.95" font-family="Times,serif" font-size="14.00"> disconnect </text>
</g>
</g>
</svg>
