<?xml version="1.0" encoding="UTF-8" standalone="no"?>
<!DOCTYPE svg PUBLIC "-//W3C//DTD SVG 1.1//EN"
 "http://www.w3.org/Graphics/SVG/1.1/DTD/svg11.dtd">
<!-- Generated by graphviz version 14.1.5 (20260411.2331)
 -->
<!-- Title: HttpClient Pages: 1 -->
<svg width="143pt" height="268pt"
 viewBox="0.00 0.00 143.00 268.00" xmlns="http://www.w3.org/2000/svg" xmlns:xlink="http://www.w3.org/1999/xlink">
<g id="graph0" class="graph" transform="scale(1 1) rotate(0) translate(4 264.4)">
<title>HttpClient</title>
<polygon fill="white" stroke="none" points="-4,4 -4,-264.4 138.82,-264.4 138.82,4 -4,4"/>
<!-- Entry -->
<g id="node1" class="node">
<title>Entry</title>
<ellipse fill="black" stroke="#00688b" cx="53.75" cy="-253.2" rx="7.2" ry="7.2"/>
</g>
<!-- Idle -->
<g id="node2" class="node">
<title>Idle</title>
<path fill="azure" stroke="none" d="M95.5,-209C95.5,-209 12,-209 12,-209 6,-209 0,-203 0,-197 0,-197 0,-154 0,-154 0,-148 6,-142 12,-142 12,-142 95.5,-142 95.5,-142 101.5,-142 107.5,-148 107.5,-154 107.5,-154 107.5,-197 107.5,-197 107.5,-203 101.5,-209 95.5,-209"/>
<text xml:space="preserve" text-anchor="start" x="42.5" y="-188.7" font-family="Times,serif" font-weight="bold" font-size="14.00">Idle</text>
<text xml:space="preserve" text-anchor="start" x="8" y="-152.34" font-family="Times,serif" font-size="10.00">$&gt;() [enter]</text>
<text xml:space="preserve" text-anchor="start" x="8" y="-141.09" font-family="Times,serif" font-size="10.00">connect(url: str) &#160;&#160;&#160;&#160;&#160;&#160;&#160;&#160;&#160;&#160;&#160;</text>
<polygon fill="#00688b" stroke="#00688b" points="0,-178.5 0,-178.5 107.5,-178.5 107.5,-178.5 0,-178.5"/>
<path fill="none" stroke="#00688b" d="M12,-142C12,-142 95.5,-142 95.5,-142 101.5,-142 107.5,-148 107.5,-154 107.5,-154 107.5,-197 107.5,-197 107.5,-203 101.5,-209 95.5,-209 95.5,-209 12,-209 12,-209 6,-209 0,-203 0,-197 0,-197 0,-154 0,-154 0,-148 6,-142 12,-142"/>
</g>
<!-- Entry&#45;&gt;Idle -->
<g id="edge1" class="edge">
<title>Entry&#45;&gt;Idle</title>
<path fill="none" stroke="red" d="M53.75,-245.75C53.75,-239.77 53.75,-230.32 53.75,-220.3"/>
<polygon fill="red" stroke="red" points="57.25,-220.41 53.75,-210.41 50.25,-220.41 57.25,-220.41"/>
</g>
<!-- Connected -->
<g id="node3" class="node">
<title>Connected</title>
<path fill="azure" stroke="none" d="M88.38,-89.5C88.38,-89.5 19.12,-89.5 19.12,-89.5 13.12,-89.5 7.12,-83.5 7.12,-77.5 7.12,-77.5 7.12,-12 7.12,-12 7.12,-6 13.12,0 19.12,0 19.12,0 88.38,0 88.38,0 94.38,0 100.38,-6 100.38,-12 100.38,-12 100.38,-77.5 100.38,-77.5 100.38,-83.5 94.38,-89.5 88.38,-89.5"/>
<text xml:space="preserve" text-anchor="start" x="23" y="-69.2" font-family="Times,serif" font-weight="bold" font-size="14.00">Connected</text>
<text xml:space="preserve" text-anchor="start" x="15.12" y="-32.84" font-family="Times,serif" font-size="10.00">$&gt;() [enter]</text>
<text xml:space="preserve" text-anchor="start" x="15.12" y="-21.59" font-family="Times,serif" font-size="10.00">&lt;$() [exit]</text>
<text xml:space="preserve" text-anchor="start" x="15.12" y="-10.34" font-family="Times,serif" font-size="10.00">fetch(path: str)</text>
<text xml:space="preserve" text-anchor="start" x="15.12" y="0.91" font-family="Times,serif" font-size="10.00">disconnect() &#160;&#160;&#160;&#160;&#160;&#160;&#160;&#160;&#160;&#160;&#160;</text>
<polygon fill="#00688b" stroke="#00688b" points="7.12,-59 7.12,-59 100.38,-59 100.38,-59 7.12,-59"/>
<path fill="none" stroke="#00688b" d="M19.12,0C19.12,0 88.38,0 88.38,0 94.38,0 100.38,-6 100.38,-12 100.38,-12 100.38,-77.5 100.38,-77.5 100.38,-83.5 94.38,-89.5 88.38,-89.5 88.38,-89.5 19.12,-89.5 19.12,-89.5 13.12,-89.5 7.12,-83.5 7.12,-77.5 7.12,-77.5 7.12,-12 7.12,-12 7.12,-6 13.12,0 19.12,0"/>
</g>
<!-- Idle&#45;&gt;Connected -->
<g id="edge2" class="edge">
<title>Idle&#45;&gt;Connected</title>
<path fill="none" stroke="red" d="M27.52,-142.01C24.12,-136.29 21.16,-130.19 19.25,-124 16.84,-116.19 17.06,-108.12 18.89,-100.26"/>
<polygon fill="red" stroke="red" points="22.21,-101.38 21.98,-90.79 15.55,-99.21 22.21,-101.38"/>
<text xml:space="preserve" text-anchor="middle" x="44" y="-110.7" font-family="Times,serif" font-size="14.00"> connect </text>
</g>
<!-- Connected&#45;&gt;Idle -->
<g id="edge3" class="edge">
<title>Connected&#45;&gt;Idle</title>
<path fill="none" stroke="red" d="M67.31,-89.09C69.41,-100.42 70.4,-112.64 68.75,-124 68.41,-126.33 67.99,-128.71 67.5,-131.09"/>
<polygon fill="red" stroke="red" points="64.12,-130.2 65.19,-140.74 70.92,-131.83 64.12,-130.2"/>
<text xml:space="preserve" text-anchor="middle" x="102.2" y="-110.7" font-family="Times,serif" font-size="14.00"> disconnect </text>
</g>
</g>
</svg>
