<?xml version="1.0" encoding="UTF-8" standalone="no"?>
<!DOCTYPE svg PUBLIC "-//W3C//DTD SVG 1.1//EN"
 "http://www.w3.org/Graphics/SVG/1.1/DTD/svg11.dtd">
<!-- Generated by graphviz version 14.1.5 (20260411.2331)
 -->
<!-- Title: HttpClient Pages: 1 -->
<svg width="152pt" height="268pt"
 viewBox="0.00 0.00 152.00 268.00" xmlns="http://www.w3.org/2000/svg" xmlns:xlink="http://www.w3.org/1999/xlink">
<g id="graph0" class="graph" transform="scale(1 1) rotate(0) translate(4 264.4)">
<title>HttpClient</title>
<polygon fill="white" stroke="none" points="-4,4 -4,-264.4 147.5,-264.4 147.5,4 -4,4"/>
<!-- Entry -->
<g id="node1" class="node">
<title>Entry</title>
<ellipse fill="black" stroke="#00688b" cx="71.75" cy="-253.2" rx="7.2" ry="7.2"/>
</g>
<!-- Idle -->
<g id="node2" class="node">
<title>Idle</title>
<path fill="azure" stroke="none" d="M131.5,-209C131.5,-209 12,-209 12,-209 6,-209 0,-203 0,-197 0,-197 0,-154 0,-154 0,-148 6,-142 12,-142 12,-142 131.5,-142 131.5,-142 137.5,-142 143.5,-148 143.5,-154 143.5,-154 143.5,-197 143.5,-197 143.5,-203 137.5,-209 131.5,-209"/>
<text xml:space="preserve" text-anchor="start" x="60.5" y="-188.7" font-family="Times,serif" font-weight="bold" font-size="14.00">Idle</text>
<text xml:space="preserve" text-anchor="start" x="30.88" y="-163.5" font-family="Times,serif" font-size="10.00"> &#160;&#160;&#160;&#160;&#160;&#160;&#160;&#160;&#160;&#160;&#160;&#160;&#160;&#160;&#160;$&gt;() [enter]</text>
<text xml:space="preserve" text-anchor="start" x="8" y="-152.25" font-family="Times,serif" font-size="10.00"> &#160;&#160;&#160;&#160;&#160;&#160;&#160;&#160;&#160;&#160;&#160;&#160;&#160;&#160;&#160;connect(url: str) &#160;&#160;&#160;&#160;&#160;&#160;&#160;&#160;&#160;&#160;&#160;</text>
<polygon fill="#00688b" stroke="#00688b" points="0,-178.5 0,-178.5 143.5,-178.5 143.5,-178.5 0,-178.5"/>
<path fill="none" stroke="#00688b" d="M12,-142C12,-142 131.5,-142 131.5,-142 137.5,-142 143.5,-148 143.5,-154 143.5,-154 143.5,-197 143.5,-197 143.5,-203 137.5,-209 131.5,-209 131.5,-209 12,-209 12,-209 6,-209 0,-203 0,-197 0,-197 0,-154 0,-154 0,-148 6,-142 12,-142"/>
</g>
<!-- Entry&#45;&gt;Idle -->
<g id="edge1" class="edge">
<title>Entry&#45;&gt;Idle</title>
<path fill="none" stroke="red" d="M71.75,-245.75C71.75,-239.77 71.75,-230.32 71.75,-220.3"/>
<polygon fill="red" stroke="red" points="75.25,-220.41 71.75,-210.41 68.25,-220.41 75.25,-220.41"/>
</g>
<!-- Connected -->
<g id="node3" class="node">
<title>Connected</title>
<path fill="azure" stroke="none" d="M124.38,-89.5C124.38,-89.5 19.12,-89.5 19.12,-89.5 13.12,-89.5 7.12,-83.5 7.12,-77.5 7.12,-77.5 7.12,-12 7.12,-12 7.12,-6 13.12,0 19.12,0 19.12,0 124.38,0 124.38,0 130.38,0 136.38,-6 136.38,-12 136.38,-12 136.38,-77.5 136.38,-77.5 136.38,-83.5 130.38,-89.5 124.38,-89.5"/>
<text xml:space="preserve" text-anchor="start" x="41" y="-69.2" font-family="Times,serif" font-weight="bold" font-size="14.00">Connected</text>
<text xml:space="preserve" text-anchor="start" x="30.88" y="-44" font-family="Times,serif" font-size="10.00"> &#160;&#160;&#160;&#160;&#160;&#160;&#160;&#160;&#160;&#160;&#160;&#160;&#160;&#160;&#160;$&gt;() [enter]</text>
<text xml:space="preserve" text-anchor="start" x="33.12" y="-32.75" font-family="Times,serif" font-size="10.00"> &#160;&#160;&#160;&#160;&#160;&#160;&#160;&#160;&#160;&#160;&#160;&#160;&#160;&#160;&#160;&lt;$() [exit]</text>
<text xml:space="preserve" text-anchor="start" x="24.12" y="-21.5" font-family="Times,serif" font-size="10.00"> &#160;&#160;&#160;&#160;&#160;&#160;&#160;&#160;&#160;&#160;&#160;&#160;&#160;&#160;&#160;fetch(path: str)</text>
<text xml:space="preserve" text-anchor="start" x="15.12" y="-10.25" font-family="Times,serif" font-size="10.00"> &#160;&#160;&#160;&#160;&#160;&#160;&#160;&#160;&#160;&#160;&#160;&#160;&#160;&#160;&#160;disconnect() &#160;&#160;&#160;&#160;&#160;&#160;&#160;&#160;&#160;&#160;&#160;</text>
<polygon fill="#00688b" stroke="#00688b" points="7.12,-59 7.12,-59 136.38,-59 136.38,-59 7.12,-59"/>
<path fill="none" stroke="#00688b" d="M19.12,0C19.12,0 124.38,0 124.38,0 130.38,0 136.38,-6 136.38,-12 136.38,-12 136.38,-77.5 136.38,-77.5 136.38,-83.5 130.38,-89.5 124.38,-89.5 124.38,-89.5 19.12,-89.5 19.12,-89.5 13.12,-89.5 7.12,-83.5 7.12,-77.5 7.12,-77.5 7.12,-12 7.12,-12 7.12,-6 13.12,0 19.12,0"/>
</g>
<!-- Idle&#45;&gt;Connected -->
<g id="edge2" class="edge">
<title>Idle&#45;&gt;Connected</title>
<path fill="none" stroke="red" d="M71.75,-142.01C71.75,-129.43 71.75,-114.68 71.75,-100.56"/>
<polygon fill="red" stroke="red" points="75.25,-100.93 71.75,-90.93 68.25,-100.93 75.25,-100.93"/>
<text xml:space="preserve" text-anchor="middle" x="96.5" y="-110.7" font-family="Times,serif" font-size="14.00"> connect </text>
</g>
</g>
</svg>
