<?xml version="1.0" encoding="UTF-8" standalone="no"?>
<!DOCTYPE svg PUBLIC "-//W3C//DTD SVG 1.1//EN"
 "http://www.w3.org/Graphics/SVG/1.1/DTD/svg11.dtd">
<!-- Generated by graphviz version 14.1.5 (20260411.2331)
 -->
<!-- Title: App Pages: 1 -->
<svg width="76pt" height="257pt"
 viewBox="0.00 0.00 76.00 257.00" xmlns="http://www.w3.org/2000/svg" xmlns:xlink="http://www.w3.org/1999/xlink">
<g id="graph0" class="graph" transform="scale(1 1) rotate(0) translate(4 253.15)">
<title>App</title>
<polygon fill="white" stroke="none" points="-4,4 -4,-253.15 72.37,-253.15 72.37,4 -4,4"/>
<!-- Entry -->
<g id="node1" class="node">
<title>Entry</title>
<ellipse fill="black" stroke="#00688b" cx="33.12" cy="-241.95" rx="7.2" ry="7.2"/>
</g>
<!-- Idle -->
<g id="node2" class="node">
<title>Idle</title>
<path fill="azure" stroke="none" d="M48.12,-197.75C48.12,-197.75 18.12,-197.75 18.12,-197.75 12.12,-197.75 6.12,-191.75 6.12,-185.75 6.12,-185.75 6.12,-142.75 6.12,-142.75 6.12,-136.75 12.12,-130.75 18.12,-130.75 18.12,-130.75 48.12,-130.75 48.12,-130.75 54.12,-130.75 60.12,-136.75 60.12,-142.75 60.12,-142.75 60.12,-185.75 60.12,-185.75 60.12,-191.75 54.12,-197.75 48.12,-197.75"/>
<text xml:space="preserve" text-anchor="start" x="21.88" y="-177.45" font-family="Times,serif" font-weight="bold" font-size="14.00">Idle</text>
<text xml:space="preserve" text-anchor="start" x="19.62" y="-152.25" font-family="Times,serif" font-size="10.00">start()</text>
<text xml:space="preserve" text-anchor="start" x="19.62" y="-141" font-family="Times,serif" font-size="10.00"> &#160;&#160;&#160;&#160;&#160;&#160;&#160;&#160;&#160;&#160;&#160;</text>
<polygon fill="#00688b" stroke="#00688b" points="11.62,-167.25 11.62,-167.25 54.62,-167.25 54.62,-167.25 11.62,-167.25"/>
<path fill="none" stroke="#00688b" d="M23.62,-130.75C23.62,-130.75 42.62,-130.75 42.62,-130.75 48.62,-130.75 54.62,-136.75 54.62,-142.75 54.62,-142.75 54.62,-185.75 54.62,-185.75 54.62,-191.75 48.62,-197.75 42.62,-197.75 42.62,-197.75 23.63,-197.75 23.63,-197.75 17.62,-197.75 11.62,-191.75 11.62,-185.75 11.62,-185.75 11.62,-142.75 11.62,-142.75 11.62,-136.75 17.62,-130.75 23.62,-130.75"/>
</g>
<!-- Entry&#45;&gt;Idle -->
<g id="edge1" class="edge">
<title>Entry&#45;&gt;Idle</title>
<path fill="none" stroke="red" d="M33.12,-234.5C33.12,-228.52 33.12,-219.07 33.12,-209.05"/>
<polygon fill="red" stroke="red" points="36.63,-209.16 33.13,-199.16 29.63,-209.16 36.63,-209.16"/>
</g>
<!-- Running -->
<g id="node3" class="node">
<title>Running</title>
<path fill="azure" stroke="none" d="M54.25,-78.25C54.25,-78.25 12,-78.25 12,-78.25 6,-78.25 0,-72.25 0,-66.25 0,-66.25 0,-12 0,-12 0,-6 6,0 12,0 12,0 54.25,0 54.25,0 60.25,0 66.25,-6 66.25,-12 66.25,-12 66.25,-66.25 66.25,-66.25 66.25,-72.25 60.25,-78.25 54.25,-78.25"/>
<text xml:space="preserve" text-anchor="start" x="8" y="-57.95" font-family="Times,serif" font-weight="bold" font-size="14.00">Running</text>
<text xml:space="preserve" text-anchor="start" x="8" y="-32.75" font-family="Times,serif" font-size="10.00">$&gt;() [enter]</text>
<text xml:space="preserve" text-anchor="start" x="8" y="-21.5" font-family="Times,serif" font-size="10.00">stop()</text>
<text xml:space="preserve" text-anchor="start" x="17.38" y="-10.25" font-family="Times,serif" font-size="10.00"> &#160;&#160;&#160;&#160;&#160;&#160;&#160;&#160;&#160;&#160;&#160;</text>
<polygon fill="#00688b" stroke="#00688b" points="0,-47.75 0,-47.75 66.25,-47.75 66.25,-47.75 0,-47.75"/>
<path fill="none" stroke="#00688b" d="M12,0C12,0 54.25,0 54.25,0 60.25,0 66.25,-6 66.25,-12 66.25,-12 66.25,-66.25 66.25,-66.25 66.25,-72.25 60.25,-78.25 54.25,-78.25 54.25,-78.25 12,-78.25 12,-78.25 6,-78.25 0,-72.25 0,-66.25 0,-66.25 0,-12 0,-12 0,-6 6,0 12,0"/>
</g>
<!-- Idle&#45;&gt;Running -->
<g id="edge2" class="edge">
<title>Idle&#45;&gt;Running</title>
<path fill="none" stroke="red" d="M13.88,-130.98C11.19,-125.09 8.85,-118.87 7.38,-112.75 5.51,-104.97 5.92,-96.86 7.64,-89"/>
<polygon fill="red" stroke="red" points="10.95,-90.15 10.43,-79.57 4.24,-88.17 10.95,-90.15"/>
<text xml:space="preserve" text-anchor="middle" x="22.75" y="-99.45" font-family="Times,serif" font-size="14.00"> start </text>
</g>
<!-- Running&#45;&gt;Idle -->
<g id="edge3" class="edge">
<title>Running&#45;&gt;Idle</title>
<path fill="none" stroke="red" d="M37.44,-78.18C38.24,-89.31 38.68,-101.52 38.12,-112.75 38.02,-114.96 37.88,-117.22 37.72,-119.51"/>
<polygon fill="red" stroke="red" points="34.24,-119.2 36.92,-129.45 41.21,-119.76 34.24,-119.2"/>
<text xml:space="preserve" text-anchor="middle" x="53.37" y="-99.45" font-family="Times,serif" font-size="14.00"> stop </text>
</g>
</g>
</svg>
