<?xml version="1.0" encoding="UTF-8" standalone="no"?>
<!DOCTYPE svg PUBLIC "-//W3C//DTD SVG 1.1//EN"
 "http://www.w3.org/Graphics/SVG/1.1/DTD/svg11.dtd">
<!-- Generated by graphviz version 14.1.5 (20260411.2331)
 -->
<!-- Title: App Pages: 1 -->
<svg width="76pt" height="235pt"
 viewBox="0.00 0.00 76.00 235.00" xmlns="http://www.w3.org/2000/svg" xmlns:xlink="http://www.w3.org/1999/xlink">
<g id="graph0" class="graph" transform="scale(1 1) rotate(0) translate(4 230.65)">
<title>App</title>
<polygon fill="white" stroke="none" points="-4,4 -4,-230.65 72.39,-230.65 72.39,4 -4,4"/>
<!-- Entry -->
<g id="node1" class="node">
<title>Entry</title>
<ellipse fill="black" stroke="#00688b" cx="33.12" cy="-219.45" rx="7.2" ry="7.2"/>
</g>
<!-- Idle -->
<g id="node2" class="node">
<title>Idle</title>
<path fill="azure" stroke="none" d="M54.25,-175.25C54.25,-175.25 12,-175.25 12,-175.25 6,-175.25 0,-169.25 0,-163.25 0,-163.25 0,-131.5 0,-131.5 0,-125.5 6,-119.5 12,-119.5 12,-119.5 54.25,-119.5 54.25,-119.5 60.25,-119.5 66.25,-125.5 66.25,-131.5 66.25,-131.5 66.25,-163.25 66.25,-163.25 66.25,-169.25 60.25,-175.25 54.25,-175.25"/>
<text xml:space="preserve" text-anchor="start" x="21.88" y="-154.95" font-family="Times,serif" font-weight="bold" font-size="14.00">Idle</text>
<text xml:space="preserve" text-anchor="start" x="8" y="-118.59" font-family="Times,serif" font-size="10.00">start() &#160;&#160;&#160;&#160;&#160;&#160;&#160;&#160;&#160;&#160;&#160;</text>
<polygon fill="#00688b" stroke="#00688b" points="0,-144.75 0,-144.75 66.25,-144.75 66.25,-144.75 0,-144.75"/>
<path fill="none" stroke="#00688b" d="M12,-119.5C12,-119.5 54.25,-119.5 54.25,-119.5 60.25,-119.5 66.25,-125.5 66.25,-131.5 66.25,-131.5 66.25,-163.25 66.25,-163.25 66.25,-169.25 60.25,-175.25 54.25,-175.25 54.25,-175.25 12,-175.25 12,-175.25 6,-175.25 0,-169.25 0,-163.25 0,-163.25 0,-131.5 0,-131.5 0,-125.5 6,-119.5 12,-119.5"/>
</g>
<!-- Entry&#45;&gt;Idle -->
<g id="edge1" class="edge">
<title>Entry&#45;&gt;Idle</title>
<path fill="none" stroke="red" d="M33.12,-211.98C33.12,-205.88 33.12,-196.19 33.12,-186.2"/>
<polygon fill="red" stroke="red" points="36.63,-186.48 33.13,-176.48 29.63,-186.48 36.63,-186.48"/>
</g>
<!-- Running -->
<g id="node3" class="node">
<title>Running</title>
<path fill="azure" stroke="none" d="M54.25,-67C54.25,-67 12,-67 12,-67 6,-67 0,-61 0,-55 0,-55 0,-12 0,-12 0,-6 6,0 12,0 12,0 54.25,0 54.25,0 60.25,0 66.25,-6 66.25,-12 66.25,-12 66.25,-55 66.25,-55 66.25,-61 60.25,-67 54.25,-67"/>
<text xml:space="preserve" text-anchor="start" x="8" y="-46.7" font-family="Times,serif" font-weight="bold" font-size="14.00">Running</text>
<text xml:space="preserve" text-anchor="start" x="8" y="-10.34" font-family="Times,serif" font-size="10.00">$&gt;() [enter]</text>
<text xml:space="preserve" text-anchor="start" x="8" y="0.91" font-family="Times,serif" font-size="10.00">stop() &#160;&#160;&#160;&#160;&#160;&#160;&#160;&#160;&#160;&#160;&#160;</text>
<polygon fill="#00688b" stroke="#00688b" points="0,-36.5 0,-36.5 66.25,-36.5 66.25,-36.5 0,-36.5"/>
<path fill="none" stroke="#00688b" d="M12,0C12,0 54.25,0 54.25,0 60.25,0 66.25,-6 66.25,-12 66.25,-12 66.25,-55 66.25,-55 66.25,-61 60.25,-67 54.25,-67 54.25,-67 12,-67 12,-67 6,-67 0,-61 0,-55 0,-55 0,-12 0,-12 0,-6 6,0 12,0"/>
</g>
<!-- Idle&#45;&gt;Running -->
<g id="edge2" class="edge">
<title>Idle&#45;&gt;Running</title>
<path fill="none" stroke="red" d="M14.92,-119.84C11.81,-114.03 9.04,-107.75 7.38,-101.5 5.28,-93.64 5.93,-85.44 8.05,-77.57"/>
<polygon fill="red" stroke="red" points="11.34,-78.77 11.4,-68.18 4.75,-76.42 11.34,-78.77"/>
<text xml:space="preserve" text-anchor="middle" x="22.75" y="-88.2" font-family="Times,serif" font-size="14.00"> start </text>
</g>
<!-- Running&#45;&gt;Idle -->
<g id="edge3" class="edge">
<title>Running&#45;&gt;Idle</title>
<path fill="none" stroke="red" d="M37.24,-66.86C38.19,-77.85 38.75,-90.2 38.12,-101.5 38,-103.82 37.83,-106.21 37.64,-108.62"/>
<polygon fill="red" stroke="red" points="34.17,-108.05 36.72,-118.33 41.14,-108.71 34.17,-108.05"/>
<text xml:space="preserve" text-anchor="middle" x="53.39" y="-88.2" font-family="Times,serif" font-size="14.00"> stop </text>
</g>
</g>
</svg>
