<?xml version="1.0" encoding="UTF-8" standalone="no"?>
<!DOCTYPE svg PUBLIC "-//W3C//DTD SVG 1.1//EN"
 "http://www.w3.org/Graphics/SVG/1.1/DTD/svg11.dtd">
<!-- Generated by graphviz version 14.1.5 (20260411.2331)
 -->
<!-- Title: Logger Pages: 1 -->
<svg width="138pt" height="114pt"
 viewBox="0.00 0.00 138.00 114.00" xmlns="http://www.w3.org/2000/svg" xmlns:xlink="http://www.w3.org/1999/xlink">
<g id="graph0" class="graph" transform="scale(1 1) rotate(0) translate(4 110.15)">
<title>Logger</title>
<polygon fill="white" stroke="none" points="-4,4 -4,-110.15 134,-110.15 134,4 -4,4"/>
<!-- Entry -->
<g id="node1" class="node">
<title>Entry</title>
<ellipse fill="black" stroke="#00688b" cx="65" cy="-98.95" rx="7.2" ry="7.2"/>
</g>
<!-- Active -->
<g id="node2" class="node">
<title>Active</title>
<path fill="azure" stroke="none" d="M118,-55.75C118,-55.75 12,-55.75 12,-55.75 6,-55.75 0,-49.75 0,-43.75 0,-43.75 0,-12 0,-12 0,-6 6,0 12,0 12,0 118,0 118,0 124,0 130,-6 130,-12 130,-12 130,-43.75 130,-43.75 130,-49.75 124,-55.75 118,-55.75"/>
<text xml:space="preserve" text-anchor="start" x="46.62" y="-35.45" font-family="Times,serif" font-weight="bold" font-size="14.00">Active</text>
<text xml:space="preserve" text-anchor="start" x="8" y="-10.25" font-family="Times,serif" font-size="10.00"> &#160;&#160;&#160;&#160;&#160;&#160;&#160;&#160;&#160;&#160;&#160;&#160;&#160;&#160;&#160;log(msg: str) &#160;&#160;&#160;&#160;&#160;&#160;&#160;&#160;&#160;&#160;&#160;</text>
<polygon fill="#00688b" stroke="#00688b" points="0,-25.25 0,-25.25 130,-25.25 130,-25.25 0,-25.25"/>
<path fill="none" stroke="#00688b" d="M12,0C12,0 118,0 118,0 124,0 130,-6 130,-12 130,-12 130,-43.75 130,-43.75 130,-49.75 124,-55.75 118,-55.75 118,-55.75 12,-55.75 12,-55.75 6,-55.75 0,-49.75 0,-43.75 0,-43.75 0,-12 0,-12 0,-6 6,0 12,0"/>
</g>
<!-- Entry&#45;&gt;Active -->
<g id="edge1" class="edge">
<title>Entry&#45;&gt;Active</title>
<path fill="none" stroke="red" d="M65,-91.33C65,-85.47 65,-76.41 65,-67"/>
<polygon fill="red" stroke="red" points="68.5,-67.04 65,-57.04 61.5,-67.04 68.5,-67.04"/>
</g>
</g>
</svg>
