<?xml version="1.0" encoding="UTF-8" standalone="no"?>
<!DOCTYPE svg PUBLIC "-//W3C//DTD SVG 1.1//EN"
 "http://www.w3.org/Graphics/SVG/1.1/DTD/svg11.dtd">
<!-- Generated by graphviz version 14.1.5 (20260411.2331)
 -->
<!-- Title: WorkerPool Pages: 1 -->
<svg width="149pt" height="268pt"
 viewBox="0.00 0.00 149.00 268.00" xmlns="http://www.w3.org/2000/svg" xmlns:xlink="http://www.w3.org/1999/xlink">
<g id="graph0" class="graph" transform="scale(1 1) rotate(0) translate(4 264.4)">
<title>WorkerPool</title>
<polygon fill="white" stroke="none" points="-4,4 -4,-264.4 145.25,-264.4 145.25,4 -4,4"/>
<!-- Entry -->
<g id="node1" class="node">
<title>Entry</title>
<ellipse fill="black" stroke="#00688b" cx="70.62" cy="-253.2" rx="7.2" ry="7.2"/>
</g>
<!-- Idle -->
<g id="node2" class="node">
<title>Idle</title>
<path fill="azure" stroke="none" d="M129.25,-209C129.25,-209 12,-209 12,-209 6,-209 0,-203 0,-197 0,-197 0,-142.75 0,-142.75 0,-136.75 6,-130.75 12,-130.75 12,-130.75 129.25,-130.75 129.25,-130.75 135.25,-130.75 141.25,-136.75 141.25,-142.75 141.25,-142.75 141.25,-197 141.25,-197 141.25,-203 135.25,-209 129.25,-209"/>
<text xml:space="preserve" text-anchor="start" x="8" y="-188.7" font-family="Times,serif" font-weight="bold" font-size="14.00">Idle(max_retries: int)</text>
<text xml:space="preserve" text-anchor="start" x="22.25" y="-163.5" font-family="Times,serif" font-size="10.00"> &#160;&#160;&#160;&#160;&#160;&#160;&#160;&#160;&#160;&#160;&#160;&#160;&#160;&#160;&#160;$&gt;() [enter]</text>
<text xml:space="preserve" text-anchor="start" x="12.5" y="-152.25" font-family="Times,serif" font-size="10.00"> &#160;&#160;&#160;&#160;&#160;&#160;&#160;&#160;&#160;&#160;&#160;&#160;&#160;&#160;&#160;submit(task: str)</text>
<text xml:space="preserve" text-anchor="start" x="8" y="-141" font-family="Times,serif" font-size="10.00"> &#160;&#160;&#160;&#160;&#160;&#160;&#160;&#160;&#160;&#160;&#160;&#160;&#160;&#160;&#160;get_status() &#160;&#160;&#160;&#160;&#160;&#160;&#160;&#160;&#160;&#160;&#160;</text>
<polygon fill="#00688b" stroke="#00688b" points="0,-178.5 0,-178.5 141.25,-178.5 141.25,-178.5 0,-178.5"/>
<path fill="none" stroke="#00688b" d="M12,-130.75C12,-130.75 129.25,-130.75 129.25,-130.75 135.25,-130.75 141.25,-136.75 141.25,-142.75 141.25,-142.75 141.25,-197 141.25,-197 141.25,-203 135.25,-209 129.25,-209 129.25,-209 12,-209 12,-209 6,-209 0,-203 0,-197 0,-197 0,-142.75 0,-142.75 0,-136.75 6,-130.75 12,-130.75"/>
</g>
<!-- Entry&#45;&gt;Idle -->
<g id="edge1" class="edge">
<title>Entry&#45;&gt;Idle</title>
<path fill="none" stroke="red" d="M70.62,-245.54C70.62,-239.53 70.62,-230.07 70.62,-219.88"/>
<polygon fill="red" stroke="red" points="74.13,-220.19 70.63,-210.19 67.13,-220.19 74.13,-220.19"/>
</g>
<!-- Processing -->
<g id="node3" class="node">
<title>Processing</title>
<path fill="azure" stroke="none" d="M121.75,-78.25C121.75,-78.25 19.5,-78.25 19.5,-78.25 13.5,-78.25 7.5,-72.25 7.5,-66.25 7.5,-66.25 7.5,-12 7.5,-12 7.5,-6 13.5,0 19.5,0 19.5,0 121.75,0 121.75,0 127.75,0 133.75,-6 133.75,-12 133.75,-12 133.75,-66.25 133.75,-66.25 133.75,-72.25 127.75,-78.25 121.75,-78.25"/>
<text xml:space="preserve" text-anchor="start" x="39.88" y="-57.95" font-family="Times,serif" font-weight="bold" font-size="14.00">Processing</text>
<text xml:space="preserve" text-anchor="start" x="29.75" y="-32.75" font-family="Times,serif" font-size="10.00"> &#160;&#160;&#160;&#160;&#160;&#160;&#160;&#160;&#160;&#160;&#160;&#160;&#160;&#160;&#160;$&gt;() [enter]</text>
<text xml:space="preserve" text-anchor="start" x="20" y="-21.5" font-family="Times,serif" font-size="10.00"> &#160;&#160;&#160;&#160;&#160;&#160;&#160;&#160;&#160;&#160;&#160;&#160;&#160;&#160;&#160;submit(task: str)</text>
<text xml:space="preserve" text-anchor="start" x="15.5" y="-10.25" font-family="Times,serif" font-size="10.00"> &#160;&#160;&#160;&#160;&#160;&#160;&#160;&#160;&#160;&#160;&#160;&#160;&#160;&#160;&#160;get_status() &#160;&#160;&#160;&#160;&#160;&#160;&#160;&#160;&#160;&#160;&#160;</text>
<polygon fill="#00688b" stroke="#00688b" points="7.5,-47.75 7.5,-47.75 133.75,-47.75 133.75,-47.75 7.5,-47.75"/>
<path fill="none" stroke="#00688b" d="M19.5,0C19.5,0 121.75,0 121.75,0 127.75,0 133.75,-6 133.75,-12 133.75,-12 133.75,-66.25 133.75,-66.25 133.75,-72.25 127.75,-78.25 121.75,-78.25 121.75,-78.25 19.5,-78.25 19.5,-78.25 13.5,-78.25 7.5,-72.25 7.5,-66.25 7.5,-66.25 7.5,-12 7.5,-12 7.5,-6 13.5,0 19.5,0"/>
</g>
<!-- Idle&#45;&gt;Processing -->
<g id="edge2" class="edge">
<title>Idle&#45;&gt;Processing</title>
<path fill="none" stroke="red" d="M70.62,-130.94C70.62,-117.96 70.62,-103.24 70.62,-89.49"/>
<polygon fill="red" stroke="red" points="74.13,-89.75 70.63,-79.75 67.13,-89.75 74.13,-89.75"/>
<text xml:space="preserve" text-anchor="middle" x="93.12" y="-99.45" font-family="Times,serif" font-size="14.00"> submit </text>
</g>
</g>
</svg>
