<?xml version="1.0" encoding="UTF-8" standalone="no"?>
<!DOCTYPE svg PUBLIC "-//W3C//DTD SVG 1.1//EN"
 "http://www.w3.org/Graphics/SVG/1.1/DTD/svg11.dtd">
<!-- Generated by graphviz version 14.1.5 (20260411.2331)
 -->
<!-- Title: WorkerPool Pages: 1 -->
<svg width="149pt" height="291pt"
 viewBox="0.00 0.00 149.00 291.00" xmlns="http://www.w3.org/2000/svg" xmlns:xlink="http://www.w3.org/1999/xlink">
<g id="graph0" class="graph" transform="scale(1 1) rotate(0) translate(4 286.9)">
<title>WorkerPool</title>
<polygon fill="white" stroke="none" points="-4,4 -4,-286.9 145.25,-286.9 145.25,4 -4,4"/>
<!-- Entry -->
<g id="node1" class="node">
<title>Entry</title>
<ellipse fill="black" stroke="#00688b" cx="70.62" cy="-275.7" rx="7.2" ry="7.2"/>
</g>
<!-- Idle -->
<g id="node2" class="node">
<title>Idle</title>
<path fill="azure" stroke="none" d="M129.25,-231.5C129.25,-231.5 12,-231.5 12,-231.5 6,-231.5 0,-225.5 0,-219.5 0,-219.5 0,-154 0,-154 0,-148 6,-142 12,-142 12,-142 129.25,-142 129.25,-142 135.25,-142 141.25,-148 141.25,-154 141.25,-154 141.25,-219.5 141.25,-219.5 141.25,-225.5 135.25,-231.5 129.25,-231.5"/>
<text xml:space="preserve" text-anchor="start" x="8" y="-211.2" font-family="Times,serif" font-weight="bold" font-size="14.00">Idle(max_retries: int)</text>
<text xml:space="preserve" text-anchor="start" x="8" y="-186" font-family="Times,serif" font-size="10.00">$&gt;() [enter]</text>
<text xml:space="preserve" text-anchor="start" x="8" y="-174.75" font-family="Times,serif" font-size="10.00">submit(task: str)</text>
<text xml:space="preserve" text-anchor="start" x="8" y="-163.5" font-family="Times,serif" font-size="10.00">get_status()</text>
<text xml:space="preserve" text-anchor="start" x="27.12" y="-152.25" font-family="Times,serif" font-size="10.00"> &#160;&#160;&#160;&#160;&#160;&#160;&#160;&#160;&#160;&#160;&#160;</text>
<polygon fill="#00688b" stroke="#00688b" points="0,-201 0,-201 141.25,-201 141.25,-201 0,-201"/>
<path fill="none" stroke="#00688b" d="M12,-142C12,-142 129.25,-142 129.25,-142 135.25,-142 141.25,-148 141.25,-154 141.25,-154 141.25,-219.5 141.25,-219.5 141.25,-225.5 135.25,-231.5 129.25,-231.5 129.25,-231.5 12,-231.5 12,-231.5 6,-231.5 0,-225.5 0,-219.5 0,-219.5 0,-154 0,-154 0,-148 6,-142 12,-142"/>
</g>
<!-- Entry&#45;&gt;Idle -->
<g id="edge1" class="edge">
<title>Entry&#45;&gt;Idle</title>
<path fill="none" stroke="red" d="M70.62,-268.16C70.62,-262.25 70.62,-252.91 70.62,-242.66"/>
<polygon fill="red" stroke="red" points="74.13,-242.81 70.63,-232.81 67.13,-242.81 74.13,-242.81"/>
</g>
<!-- Processing -->
<g id="node3" class="node">
<title>Processing</title>
<path fill="azure" stroke="none" d="M99.25,-89.5C99.25,-89.5 42,-89.5 42,-89.5 36,-89.5 30,-83.5 30,-77.5 30,-77.5 30,-12 30,-12 30,-6 36,0 42,0 42,0 99.25,0 99.25,0 105.25,0 111.25,-6 111.25,-12 111.25,-12 111.25,-77.5 111.25,-77.5 111.25,-83.5 105.25,-89.5 99.25,-89.5"/>
<text xml:space="preserve" text-anchor="start" x="39.88" y="-69.2" font-family="Times,serif" font-weight="bold" font-size="14.00">Processing</text>
<text xml:space="preserve" text-anchor="start" x="38" y="-44" font-family="Times,serif" font-size="10.00">$&gt;() [enter]</text>
<text xml:space="preserve" text-anchor="start" x="38" y="-32.75" font-family="Times,serif" font-size="10.00">submit(task: str)</text>
<text xml:space="preserve" text-anchor="start" x="38" y="-21.5" font-family="Times,serif" font-size="10.00">get_status()</text>
<text xml:space="preserve" text-anchor="start" x="57.12" y="-10.25" font-family="Times,serif" font-size="10.00"> &#160;&#160;&#160;&#160;&#160;&#160;&#160;&#160;&#160;&#160;&#160;</text>
<polygon fill="#00688b" stroke="#00688b" points="30,-59 30,-59 111.25,-59 111.25,-59 30,-59"/>
<path fill="none" stroke="#00688b" d="M42,0C42,0 99.25,0 99.25,0 105.25,0 111.25,-6 111.25,-12 111.25,-12 111.25,-77.5 111.25,-77.5 111.25,-83.5 105.25,-89.5 99.25,-89.5 99.25,-89.5 42,-89.5 42,-89.5 36,-89.5 30,-83.5 30,-77.5 30,-77.5 30,-12 30,-12 30,-6 36,0 42,0"/>
</g>
<!-- Idle&#45;&gt;Processing -->
<g id="edge2" class="edge">
<title>Idle&#45;&gt;Processing</title>
<path fill="none" stroke="red" d="M70.62,-142.22C70.62,-129.05 70.62,-114.42 70.62,-100.61"/>
<polygon fill="red" stroke="red" points="74.13,-100.77 70.63,-90.77 67.13,-100.77 74.13,-100.77"/>
<text xml:space="preserve" text-anchor="middle" x="93.12" y="-110.7" font-family="Times,serif" font-size="14.00"> submit </text>
</g>
</g>
</svg>
