<?xml version="1.0" encoding="UTF-8" standalone="no"?>
<!DOCTYPE svg PUBLIC "-//W3C//DTD SVG 1.1//EN"
 "http://www.w3.org/Graphics/SVG/1.1/DTD/svg11.dtd">
<!-- Generated by graphviz version 14.1.5 (20260411.2331)
 -->
<!-- Title: Sensor Pages: 1 -->
<svg width="171pt" height="291pt"
 viewBox="0.00 0.00 171.00 291.00" xmlns="http://www.w3.org/2000/svg" xmlns:xlink="http://www.w3.org/1999/xlink">
<g id="graph0" class="graph" transform="scale(1 1) rotate(0) translate(4 286.9)">
<title>Sensor</title>
<polygon fill="white" stroke="none" points="-4,4 -4,-286.9 167.25,-286.9 167.25,4 -4,4"/>
<!-- Entry -->
<g id="node1" class="node">
<title>Entry</title>
<ellipse fill="black" stroke="#00688b" cx="60.5" cy="-275.7" rx="7.2" ry="7.2"/>
</g>
<!-- Active -->
<g id="node2" class="node">
<title>Active</title>
<path fill="azure" stroke="none" d="M109,-231.5C109,-231.5 12,-231.5 12,-231.5 6,-231.5 0,-225.5 0,-219.5 0,-219.5 0,-131.5 0,-131.5 0,-125.5 6,-119.5 12,-119.5 12,-119.5 109,-119.5 109,-119.5 115,-119.5 121,-125.5 121,-131.5 121,-131.5 121,-219.5 121,-219.5 121,-225.5 115,-231.5 109,-231.5"/>
<text xml:space="preserve" text-anchor="start" x="42.12" y="-211.2" font-family="Times,serif" font-weight="bold" font-size="14.00">Active</text>
<text xml:space="preserve" text-anchor="start" x="8" y="-186" font-family="Times,serif" font-size="10.00">calibrate()</text>
<text xml:space="preserve" text-anchor="start" x="8" y="-174.75" font-family="Times,serif" font-size="10.00">reading()</text>
<text xml:space="preserve" text-anchor="start" x="8" y="-163.5" font-family="Times,serif" font-size="10.00">trigger_shutdown()</text>
<text xml:space="preserve" text-anchor="start" x="8" y="-152.25" font-family="Times,serif" font-size="10.00">attempt_post_shutdown()</text>
<text xml:space="preserve" text-anchor="start" x="8" y="-141" font-family="Times,serif" font-size="10.00">status()</text>
<text xml:space="preserve" text-anchor="start" x="47" y="-129.75" font-family="Times,serif" font-size="10.00"> &#160;&#160;&#160;&#160;&#160;&#160;&#160;&#160;&#160;&#160;&#160;</text>
<polygon fill="#00688b" stroke="#00688b" points="0,-201 0,-201 121,-201 121,-201 0,-201"/>
<path fill="none" stroke="#00688b" d="M12,-119.5C12,-119.5 109,-119.5 109,-119.5 115,-119.5 121,-125.5 121,-131.5 121,-131.5 121,-219.5 121,-219.5 121,-225.5 115,-231.5 109,-231.5 109,-231.5 12,-231.5 12,-231.5 6,-231.5 0,-225.5 0,-219.5 0,-219.5 0,-131.5 0,-131.5 0,-125.5 6,-119.5 12,-119.5"/>
</g>
<!-- Entry&#45;&gt;Active -->
<g id="edge1" class="edge">
<title>Entry&#45;&gt;Active</title>
<path fill="none" stroke="red" d="M60.5,-268.26C60.5,-262.37 60.5,-252.98 60.5,-242.42"/>
<polygon fill="red" stroke="red" points="64,-242.59 60.5,-232.59 57,-242.59 64,-242.59"/>
</g>
<!-- Shutdown -->
<g id="node3" class="node">
<title>Shutdown</title>
<path fill="azure" stroke="none" d="M85.75,-67C85.75,-67 35.25,-67 35.25,-67 29.25,-67 23.25,-61 23.25,-55 23.25,-55 23.25,-12 23.25,-12 23.25,-6 29.25,0 35.25,0 35.25,0 85.75,0 85.75,0 91.75,0 97.75,-6 97.75,-12 97.75,-12 97.75,-55 97.75,-55 97.75,-61 91.75,-67 85.75,-67"/>
<text xml:space="preserve" text-anchor="start" x="31.25" y="-46.7" font-family="Times,serif" font-weight="bold" font-size="14.00">Shutdown</text>
<text xml:space="preserve" text-anchor="start" x="31.25" y="-21.5" font-family="Times,serif" font-size="10.00">status()</text>
<text xml:space="preserve" text-anchor="start" x="32.38" y="-10.25" font-family="Times,serif" font-size="10.00"> &#160;&#160;&#160;&#160;&#160;&#160;&#160;&#160;&#160;&#160;&#160;</text>
<polygon fill="#00688b" stroke="#00688b" points="23.25,-36.5 23.25,-36.5 97.75,-36.5 97.75,-36.5 23.25,-36.5"/>
<path fill="none" stroke="#00688b" d="M35.25,0C35.25,0 85.75,0 85.75,0 91.75,0 97.75,-6 97.75,-12 97.75,-12 97.75,-55 97.75,-55 97.75,-61 91.75,-67 85.75,-67 85.75,-67 35.25,-67 35.25,-67 29.25,-67 23.25,-61 23.25,-55 23.25,-55 23.25,-12 23.25,-12 23.25,-6 29.25,0 35.25,0"/>
</g>
<!-- Active&#45;&gt;Shutdown -->
<g id="edge2" class="edge">
<title>Active&#45;&gt;Shutdown</title>
<path fill="none" stroke="red" d="M60.5,-119.57C60.5,-105.71 60.5,-91.01 60.5,-77.81"/>
<polygon fill="red" stroke="red" points="64,-78.16 60.5,-68.16 57,-78.16 64,-78.16"/>
<text xml:space="preserve" text-anchor="middle" x="111.88" y="-88.2" font-family="Times,serif" font-size="14.00"> trigger_shutdown </text>
</g>
</g>
</svg>
