<?xml version="1.0" encoding="UTF-8" standalone="no"?>
<!DOCTYPE svg PUBLIC "-//W3C//DTD SVG 1.1//EN"
 "http://www.w3.org/Graphics/SVG/1.1/DTD/svg11.dtd">
<!-- Generated by graphviz version 14.1.5 (20260411.2331)
 -->
<!-- Title: Sensor Pages: 1 -->
<svg width="189pt" height="268pt"
 viewBox="0.00 0.00 189.00 268.00" xmlns="http://www.w3.org/2000/svg" xmlns:xlink="http://www.w3.org/1999/xlink">
<g id="graph0" class="graph" transform="scale(1 1) rotate(0) translate(4 264.4)">
<title>Sensor</title>
<polygon fill="white" stroke="none" points="-4,4 -4,-264.4 185.25,-264.4 185.25,4 -4,4"/>
<!-- Entry -->
<g id="node1" class="node">
<title>Entry</title>
<ellipse fill="black" stroke="#00688b" cx="78.5" cy="-253.2" rx="7.2" ry="7.2"/>
</g>
<!-- Active -->
<g id="node2" class="node">
<title>Active</title>
<path fill="azure" stroke="none" d="M145,-209C145,-209 12,-209 12,-209 6,-209 0,-203 0,-197 0,-197 0,-120.25 0,-120.25 0,-114.25 6,-108.25 12,-108.25 12,-108.25 145,-108.25 145,-108.25 151,-108.25 157,-114.25 157,-120.25 157,-120.25 157,-197 157,-197 157,-203 151,-209 145,-209"/>
<text xml:space="preserve" text-anchor="start" x="60.12" y="-188.7" font-family="Times,serif" font-weight="bold" font-size="14.00">Active</text>
<text xml:space="preserve" text-anchor="start" x="8" y="-163.5" font-family="Times,serif" font-size="10.00"> &#160;&#160;&#160;&#160;&#160;&#160;&#160;&#160;&#160;&#160;&#160;&#160;&#160;&#160;&#160;calibrate()</text>
<text xml:space="preserve" text-anchor="start" x="8" y="-152.25" font-family="Times,serif" font-size="10.00"> &#160;&#160;&#160;&#160;&#160;&#160;&#160;&#160;&#160;&#160;&#160;&#160;&#160;&#160;&#160;reading()</text>
<text xml:space="preserve" text-anchor="start" x="8" y="-141" font-family="Times,serif" font-size="10.00"> &#160;&#160;&#160;&#160;&#160;&#160;&#160;&#160;&#160;&#160;&#160;&#160;&#160;&#160;&#160;trigger_shutdown()</text>
<text xml:space="preserve" text-anchor="start" x="8" y="-129.75" font-family="Times,serif" font-size="10.00"> &#160;&#160;&#160;&#160;&#160;&#160;&#160;&#160;&#160;&#160;&#160;&#160;&#160;&#160;&#160;attempt_post_shutdown()</text>
<text xml:space="preserve" text-anchor="start" x="32.38" y="-118.5" font-family="Times,serif" font-size="10.00"> &#160;&#160;&#160;&#160;&#160;&#160;&#160;&#160;&#160;&#160;&#160;&#160;&#160;&#160;&#160;status() &#160;&#160;&#160;&#160;&#160;&#160;&#160;&#160;&#160;&#160;&#160;</text>
<polygon fill="#00688b" stroke="#00688b" points="0,-178.5 0,-178.5 157,-178.5 157,-178.5 0,-178.5"/>
<path fill="none" stroke="#00688b" d="M12,-108.25C12,-108.25 145,-108.25 145,-108.25 151,-108.25 157,-114.25 157,-120.25 157,-120.25 157,-197 157,-197 157,-203 151,-209 145,-209 145,-209 12,-209 12,-209 6,-209 0,-203 0,-197 0,-197 0,-120.25 0,-120.25 0,-114.25 6,-108.25 12,-108.25"/>
</g>
<!-- Entry&#45;&gt;Active -->
<g id="edge1" class="edge">
<title>Entry&#45;&gt;Active</title>
<path fill="none" stroke="red" d="M78.5,-245.54C78.5,-239.64 78.5,-230.36 78.5,-220.06"/>
<polygon fill="red" stroke="red" points="82,-220.09 78.5,-210.09 75,-220.09 82,-220.09"/>
</g>
<!-- Shutdown -->
<g id="node3" class="node">
<title>Shutdown</title>
<path fill="azure" stroke="none" d="M120.62,-55.75C120.62,-55.75 36.38,-55.75 36.38,-55.75 30.38,-55.75 24.38,-49.75 24.38,-43.75 24.38,-43.75 24.38,-12 24.38,-12 24.38,-6 30.38,0 36.38,0 36.38,0 120.62,0 120.62,0 126.62,0 132.62,-6 132.62,-12 132.62,-12 132.62,-43.75 132.62,-43.75 132.62,-49.75 126.62,-55.75 120.62,-55.75"/>
<text xml:space="preserve" text-anchor="start" x="49.25" y="-35.45" font-family="Times,serif" font-weight="bold" font-size="14.00">Shutdown</text>
<text xml:space="preserve" text-anchor="start" x="32.38" y="-10.25" font-family="Times,serif" font-size="10.00"> &#160;&#160;&#160;&#160;&#160;&#160;&#160;&#160;&#160;&#160;&#160;&#160;&#160;&#160;&#160;status() &#160;&#160;&#160;&#160;&#160;&#160;&#160;&#160;&#160;&#160;&#160;</text>
<polygon fill="#00688b" stroke="#00688b" points="24.38,-25.25 24.38,-25.25 132.62,-25.25 132.62,-25.25 24.38,-25.25"/>
<path fill="none" stroke="#00688b" d="M36.38,0C36.38,0 120.62,0 120.62,0 126.62,0 132.62,-6 132.62,-12 132.62,-12 132.62,-43.75 132.62,-43.75 132.62,-49.75 126.62,-55.75 120.62,-55.75 120.62,-55.75 36.38,-55.75 36.38,-55.75 30.38,-55.75 24.38,-49.75 24.38,-43.75 24.38,-43.75 24.38,-12 24.38,-12 24.38,-6 30.38,0 36.38,0"/>
</g>
<!-- Active&#45;&gt;Shutdown -->
<g id="edge2" class="edge">
<title>Active&#45;&gt;Shutdown</title>
<path fill="none" stroke="red" d="M78.5,-108.58C78.5,-94.76 78.5,-79.94 78.5,-66.87"/>
<polygon fill="red" stroke="red" points="82,-66.96 78.5,-56.96 75,-66.96 82,-66.96"/>
<text xml:space="preserve" text-anchor="middle" x="129.88" y="-76.95" font-family="Times,serif" font-size="14.00"> trigger_shutdown </text>
</g>
</g>
</svg>
