<?xml version="1.0" encoding="UTF-8" standalone="no"?>
<!DOCTYPE svg PUBLIC "-//W3C//DTD SVG 1.1//EN"
 "http://www.w3.org/Graphics/SVG/1.1/DTD/svg11.dtd">
<!-- Generated by graphviz version 14.1.5 (20260411.2331)
 -->
<!-- Title: Sensor Pages: 1 -->
<svg width="171pt" height="268pt"
 viewBox="0.00 0.00 171.00 268.00" xmlns="http://www.w3.org/2000/svg" xmlns:xlink="http://www.w3.org/1999/xlink">
<g id="graph0" class="graph" transform="scale(1 1) rotate(0) translate(4 264.4)">
<title>Sensor</title>
<polygon fill="white" stroke="none" points="-4,4 -4,-264.4 167.25,-264.4 167.25,4 -4,4"/>
<!-- Entry -->
<g id="node1" class="node">
<title>Entry</title>
<ellipse fill="black" stroke="#00688b" cx="60.5" cy="-253.2" rx="7.2" ry="7.2"/>
</g>
<!-- Active -->
<g id="node2" class="node">
<title>Active</title>
<path fill="azure" stroke="none" d="M109,-209C109,-209 12,-209 12,-209 6,-209 0,-203 0,-197 0,-197 0,-120.25 0,-120.25 0,-114.25 6,-108.25 12,-108.25 12,-108.25 109,-108.25 109,-108.25 115,-108.25 121,-114.25 121,-120.25 121,-120.25 121,-197 121,-197 121,-203 115,-209 109,-209"/>
<text xml:space="preserve" text-anchor="start" x="42.12" y="-188.7" font-family="Times,serif" font-weight="bold" font-size="14.00">Active</text>
<text xml:space="preserve" text-anchor="start" x="8" y="-152.34" font-family="Times,serif" font-size="10.00">calibrate()</text>
<text xml:space="preserve" text-anchor="start" x="8" y="-141.09" font-family="Times,serif" font-size="10.00">reading()</text>
<text xml:space="preserve" text-anchor="start" x="8" y="-129.84" font-family="Times,serif" font-size="10.00">trigger_shutdown()</text>
<text xml:space="preserve" text-anchor="start" x="8" y="-118.59" font-family="Times,serif" font-size="10.00">attempt_post_shutdown()</text>
<text xml:space="preserve" text-anchor="start" x="32.38" y="-107.34" font-family="Times,serif" font-size="10.00">status() &#160;&#160;&#160;&#160;&#160;&#160;&#160;&#160;&#160;&#160;&#160;</text>
<polygon fill="#00688b" stroke="#00688b" points="0,-178.5 0,-178.5 121,-178.5 121,-178.5 0,-178.5"/>
<path fill="none" stroke="#00688b" d="M12,-108.25C12,-108.25 109,-108.25 109,-108.25 115,-108.25 121,-114.25 121,-120.25 121,-120.25 121,-197 121,-197 121,-203 115,-209 109,-209 109,-209 12,-209 12,-209 6,-209 0,-203 0,-197 0,-197 0,-120.25 0,-120.25 0,-114.25 6,-108.25 12,-108.25"/>
</g>
<!-- Entry&#45;&gt;Active -->
<g id="edge1" class="edge">
<title>Entry&#45;&gt;Active</title>
<path fill="none" stroke="red" d="M60.5,-245.54C60.5,-239.64 60.5,-230.36 60.5,-220.06"/>
<polygon fill="red" stroke="red" points="64,-220.09 60.5,-210.09 57,-220.09 64,-220.09"/>
</g>
<!-- Shutdown -->
<g id="node3" class="node">
<title>Shutdown</title>
<path fill="azure" stroke="none" d="M85.75,-55.75C85.75,-55.75 35.25,-55.75 35.25,-55.75 29.25,-55.75 23.25,-49.75 23.25,-43.75 23.25,-43.75 23.25,-12 23.25,-12 23.25,-6 29.25,0 35.25,0 35.25,0 85.75,0 85.75,0 91.75,0 97.75,-6 97.75,-12 97.75,-12 97.75,-43.75 97.75,-43.75 97.75,-49.75 91.75,-55.75 85.75,-55.75"/>
<text xml:space="preserve" text-anchor="start" x="31.25" y="-35.45" font-family="Times,serif" font-weight="bold" font-size="14.00">Shutdown</text>
<text xml:space="preserve" text-anchor="start" x="31.25" y="0.91" font-family="Times,serif" font-size="10.00">status() &#160;&#160;&#160;&#160;&#160;&#160;&#160;&#160;&#160;&#160;&#160;</text>
<polygon fill="#00688b" stroke="#00688b" points="23.25,-25.25 23.25,-25.25 97.75,-25.25 97.75,-25.25 23.25,-25.25"/>
<path fill="none" stroke="#00688b" d="M35.25,0C35.25,0 85.75,0 85.75,0 91.75,0 97.75,-6 97.75,-12 97.75,-12 97.75,-43.75 97.75,-43.75 97.75,-49.75 91.75,-55.75 85.75,-55.75 85.75,-55.75 35.25,-55.75 35.25,-55.75 29.25,-55.75 23.25,-49.75 23.25,-43.75 23.25,-43.75 23.25,-12 23.25,-12 23.25,-6 29.25,0 35.25,0"/>
</g>
<!-- Active&#45;&gt;Shutdown -->
<g id="edge2" class="edge">
<title>Active&#45;&gt;Shutdown</title>
<path fill="none" stroke="red" d="M60.5,-108.58C60.5,-94.76 60.5,-79.94 60.5,-66.87"/>
<polygon fill="red" stroke="red" points="64,-66.96 60.5,-56.96 57,-66.96 64,-66.96"/>
<text xml:space="preserve" text-anchor="middle" x="111.88" y="-76.95" font-family="Times,serif" font-size="14.00"> trigger_shutdown </text>
</g>
</g>
</svg>
