<?xml version="1.0" encoding="UTF-8" standalone="no"?>
<!DOCTYPE svg PUBLIC "-//W3C//DTD SVG 1.1//EN"
 "http://www.w3.org/Graphics/SVG/1.1/DTD/svg11.dtd">
<!-- Generated by graphviz version 14.1.5 (20260411.2331)
 -->
<!-- Title: VendingMachine Pages: 1 -->
<svg width="168pt" height="410pt"
 viewBox="0.00 0.00 168.00 410.00" xmlns="http://www.w3.org/2000/svg" xmlns:xlink="http://www.w3.org/1999/xlink">
<g id="graph0" class="graph" transform="scale(1 1) rotate(0) translate(4 406.4)">
<title>VendingMachine</title>
<polygon fill="white" stroke="none" points="-4,4 -4,-406.4 163.86,-406.4 163.86,4 -4,4"/>
<!-- Entry -->
<g id="node1" class="node">
<title>Entry</title>
<ellipse fill="black" stroke="#00688b" cx="94.5" cy="-395.2" rx="7.2" ry="7.2"/>
</g>
<!-- Idle -->
<g id="node2" class="node">
<title>Idle</title>
<path fill="azure" stroke="none" d="M140,-351C140,-351 49,-351 49,-351 43,-351 37,-345 37,-339 37,-339 37,-273.5 37,-273.5 37,-267.5 43,-261.5 49,-261.5 49,-261.5 140,-261.5 140,-261.5 146,-261.5 152,-267.5 152,-273.5 152,-273.5 152,-339 152,-339 152,-345 146,-351 140,-351"/>
<text xml:space="preserve" text-anchor="start" x="83.25" y="-330.7" font-family="Times,serif" font-weight="bold" font-size="14.00">Idle</text>
<text xml:space="preserve" text-anchor="start" x="45" y="-305.5" font-family="Times,serif" font-size="10.00">insert_coin(amount: int)</text>
<text xml:space="preserve" text-anchor="start" x="45" y="-294.25" font-family="Times,serif" font-size="10.00">select(product: str)</text>
<text xml:space="preserve" text-anchor="start" x="45" y="-283" font-family="Times,serif" font-size="10.00">cancel()</text>
<text xml:space="preserve" text-anchor="start" x="81" y="-271.75" font-family="Times,serif" font-size="10.00"> &#160;&#160;&#160;&#160;&#160;&#160;&#160;&#160;&#160;&#160;&#160;</text>
<polygon fill="#00688b" stroke="#00688b" points="37,-320.5 37,-320.5 152,-320.5 152,-320.5 37,-320.5"/>
<path fill="none" stroke="#00688b" d="M49,-261.5C49,-261.5 140,-261.5 140,-261.5 146,-261.5 152,-267.5 152,-273.5 152,-273.5 152,-339 152,-339 152,-345 146,-351 140,-351 140,-351 49,-351 49,-351 43,-351 37,-345 37,-339 37,-339 37,-273.5 37,-273.5 37,-267.5 43,-261.5 49,-261.5"/>
</g>
<!-- Entry&#45;&gt;Idle -->
<g id="edge1" class="edge">
<title>Entry&#45;&gt;Idle</title>
<path fill="none" stroke="red" d="M94.5,-387.66C94.5,-381.75 94.5,-372.41 94.5,-362.16"/>
<polygon fill="red" stroke="red" points="98,-362.31 94.5,-352.31 91,-362.31 98,-362.31"/>
</g>
<!-- HasCredit -->
<g id="node3" class="node">
<title>HasCredit</title>
<path fill="azure" stroke="none" d="M103,-209C103,-209 12,-209 12,-209 6,-209 0,-203 0,-197 0,-197 0,-131.5 0,-131.5 0,-125.5 6,-119.5 12,-119.5 12,-119.5 103,-119.5 103,-119.5 109,-119.5 115,-125.5 115,-131.5 115,-131.5 115,-197 115,-197 115,-203 109,-209 103,-209"/>
<text xml:space="preserve" text-anchor="start" x="27.12" y="-188.7" font-family="Times,serif" font-weight="bold" font-size="14.00">HasCredit</text>
<text xml:space="preserve" text-anchor="start" x="8" y="-163.5" font-family="Times,serif" font-size="10.00">insert_coin(amount: int)</text>
<text xml:space="preserve" text-anchor="start" x="8" y="-152.25" font-family="Times,serif" font-size="10.00">select(product: str)</text>
<text xml:space="preserve" text-anchor="start" x="8" y="-141" font-family="Times,serif" font-size="10.00">cancel()</text>
<text xml:space="preserve" text-anchor="start" x="44" y="-129.75" font-family="Times,serif" font-size="10.00"> &#160;&#160;&#160;&#160;&#160;&#160;&#160;&#160;&#160;&#160;&#160;</text>
<polygon fill="#00688b" stroke="#00688b" points="0,-178.5 0,-178.5 115,-178.5 115,-178.5 0,-178.5"/>
<path fill="none" stroke="#00688b" d="M12,-119.5C12,-119.5 103,-119.5 103,-119.5 109,-119.5 115,-125.5 115,-131.5 115,-131.5 115,-197 115,-197 115,-203 109,-209 103,-209 103,-209 12,-209 12,-209 6,-209 0,-203 0,-197 0,-197 0,-131.5 0,-131.5 0,-125.5 6,-119.5 12,-119.5"/>
</g>
<!-- Idle&#45;&gt;HasCredit -->
<g id="edge2" class="edge">
<title>Idle&#45;&gt;HasCredit</title>
<path fill="none" stroke="red" d="M37.1,-277.77C24.25,-268.74 12.28,-257.37 5,-243.5 0.77,-235.44 0.86,-227.19 3.58,-219.21"/>
<polygon fill="red" stroke="red" points="6.7,-220.81 7.89,-210.28 0.4,-217.77 6.7,-220.81"/>
<text xml:space="preserve" text-anchor="middle" x="38.75" y="-230.2" font-family="Times,serif" font-size="14.00"> insert_coin </text>
</g>
<!-- HasCredit&#45;&gt;Idle -->
<g id="edge4" class="edge">
<title>HasCredit&#45;&gt;Idle</title>
<path fill="none" stroke="red" d="M69,-208.75C72.51,-222.05 76.42,-236.85 80.1,-250.78"/>
<polygon fill="red" stroke="red" points="76.67,-251.48 82.61,-260.26 83.44,-249.69 76.67,-251.48"/>
<text xml:space="preserve" text-anchor="middle" x="98.11" y="-230.2" font-family="Times,serif" font-size="14.00"> cancel </text>
</g>
<!-- Dispensing -->
<g id="node4" class="node">
<title>Dispensing</title>
<path fill="azure" stroke="none" d="M132,-67C132,-67 77,-67 77,-67 71,-67 65,-61 65,-55 65,-55 65,-12 65,-12 65,-6 71,0 77,0 77,0 132,0 132,0 138,0 144,-6 144,-12 144,-12 144,-55 144,-55 144,-61 138,-67 132,-67"/>
<text xml:space="preserve" text-anchor="start" x="73" y="-46.7" font-family="Times,serif" font-weight="bold" font-size="14.00">Dispensing</text>
<text xml:space="preserve" text-anchor="start" x="73" y="-21.5" font-family="Times,serif" font-size="10.00">$&gt;()</text>
<text xml:space="preserve" text-anchor="start" x="73" y="-10.25" font-family="Times,serif" font-size="10.00"> &#160;&#160;&#160;&#160;&#160;&#160;&#160;&#160;&#160;&#160;&#160;</text>
<polygon fill="#00688b" stroke="#00688b" points="65,-36.5 65,-36.5 144,-36.5 144,-36.5 65,-36.5"/>
<path fill="none" stroke="#00688b" d="M77,0C77,0 132,0 132,0 138,0 144,-6 144,-12 144,-12 144,-55 144,-55 144,-61 138,-67 132,-67 132,-67 77,-67 77,-67 71,-67 65,-61 65,-55 65,-55 65,-12 65,-12 65,-6 71,0 77,0"/>
</g>
<!-- HasCredit&#45;&gt;Dispensing -->
<g id="edge3" class="edge">
<title>HasCredit&#45;&gt;Dispensing</title>
<path fill="none" stroke="red" d="M73.41,-119.66C78.41,-105.96 83.93,-90.85 88.91,-77.21"/>
<polygon fill="red" stroke="red" points="92.1,-78.66 92.25,-68.07 85.53,-76.26 92.1,-78.66"/>
<text xml:space="preserve" text-anchor="middle" x="104.33" y="-88.2" font-family="Times,serif" font-size="14.00"> select </text>
</g>
<!-- Dispensing&#45;&gt;Idle -->
<g id="edge5" class="edge">
<title>Dispensing&#45;&gt;Idle</title>
<path fill="none" stroke="red" d="M121.7,-66.94C124.1,-72.81 126.19,-78.97 127.5,-85 142.44,-153.86 139.84,-174.95 123.5,-243.5 122.92,-245.93 122.24,-248.39 121.48,-250.84"/>
<polygon fill="red" stroke="red" points="118.24,-249.5 118.18,-260.1 124.83,-251.85 118.24,-249.5"/>
<text xml:space="preserve" text-anchor="middle" x="148.61" y="-159.2" font-family="Times,serif" font-size="14.00"> $&gt; </text>
</g>
</g>
</svg>
