<?xml version="1.0" encoding="UTF-8" standalone="no"?>
<!DOCTYPE svg PUBLIC "-//W3C//DTD SVG 1.1//EN"
 "http://www.w3.org/Graphics/SVG/1.1/DTD/svg11.dtd">
<!-- Generated by graphviz version 14.1.5 (20260411.2331)
 -->
<!-- Title: VendingMachine Pages: 1 -->
<svg width="214pt" height="410pt"
 viewBox="0.00 0.00 214.00 410.00" xmlns="http://www.w3.org/2000/svg" xmlns:xlink="http://www.w3.org/1999/xlink">
<g id="graph0" class="graph" transform="scale(1 1) rotate(0) translate(4 406.4)">
<title>VendingMachine</title>
<polygon fill="white" stroke="none" points="-4,4 -4,-406.4 210.49,-406.4 210.49,4 -4,4"/>
<!-- Entry -->
<g id="node1" class="node">
<title>Entry</title>
<ellipse fill="black" stroke="#00688b" cx="93.5" cy="-395.2" rx="7.2" ry="7.2"/>
</g>
<!-- Idle -->
<g id="node2" class="node">
<title>Idle</title>
<path fill="azure" stroke="none" d="M139,-351C139,-351 48,-351 48,-351 42,-351 36,-345 36,-339 36,-339 36,-273.5 36,-273.5 36,-267.5 42,-261.5 48,-261.5 48,-261.5 139,-261.5 139,-261.5 145,-261.5 151,-267.5 151,-273.5 151,-273.5 151,-339 151,-339 151,-345 145,-351 139,-351"/>
<text xml:space="preserve" text-anchor="start" x="82.25" y="-330.7" font-family="Times,serif" font-weight="bold" font-size="14.00">Idle</text>
<text xml:space="preserve" text-anchor="start" x="44" y="-305.5" font-family="Times,serif" font-size="10.00">insert_coin(amount: int)</text>
<text xml:space="preserve" text-anchor="start" x="44" y="-294.25" font-family="Times,serif" font-size="10.00">select(product: str)</text>
<text xml:space="preserve" text-anchor="start" x="44" y="-283" font-family="Times,serif" font-size="10.00">cancel()</text>
<text xml:space="preserve" text-anchor="start" x="80" y="-271.75" font-family="Times,serif" font-size="10.00"> &#160;&#160;&#160;&#160;&#160;&#160;&#160;&#160;&#160;&#160;&#160;</text>
<polygon fill="#00688b" stroke="#00688b" points="36,-320.5 36,-320.5 151,-320.5 151,-320.5 36,-320.5"/>
<path fill="none" stroke="#00688b" d="M48,-261.5C48,-261.5 139,-261.5 139,-261.5 145,-261.5 151,-267.5 151,-273.5 151,-273.5 151,-339 151,-339 151,-345 145,-351 139,-351 139,-351 48,-351 48,-351 42,-351 36,-345 36,-339 36,-339 36,-273.5 36,-273.5 36,-267.5 42,-261.5 48,-261.5"/>
</g>
<!-- Entry&#45;&gt;Idle -->
<g id="edge1" class="edge">
<title>Entry&#45;&gt;Idle</title>
<path fill="none" stroke="red" d="M93.5,-387.66C93.5,-381.75 93.5,-372.41 93.5,-362.16"/>
<polygon fill="red" stroke="red" points="97,-362.31 93.5,-352.31 90,-362.31 97,-362.31"/>
</g>
<!-- HasCredit -->
<g id="node3" class="node">
<title>HasCredit</title>
<path fill="azure" stroke="none" d="M103,-209C103,-209 12,-209 12,-209 6,-209 0,-203 0,-197 0,-197 0,-131.5 0,-131.5 0,-125.5 6,-119.5 12,-119.5 12,-119.5 103,-119.5 103,-119.5 109,-119.5 115,-125.5 115,-131.5 115,-131.5 115,-197 115,-197 115,-203 109,-209 103,-209"/>
<text xml:space="preserve" text-anchor="start" x="27.12" y="-188.7" font-family="Times,serif" font-weight="bold" font-size="14.00">HasCredit</text>
<text xml:space="preserve" text-anchor="start" x="8" y="-163.5" font-family="Times,serif" font-size="10.00">insert_coin(amount: int)</text>
<text xml:space="preserve" text-anchor="start" x="8" y="-152.25" font-family="Times,serif" font-size="10.00">select(product: str)</text>
<text xml:space="preserve" text-anchor="start" x="8" y="-141" font-family="Times,serif" font-size="10.00">cancel()</text>
<text xml:space="preserve" text-anchor="start" x="44" y="-129.75" font-family="Times,serif" font-size="10.00"> &#160;&#160;&#160;&#160;&#160;&#160;&#160;&#160;&#160;&#160;&#160;</text>
<polygon fill="#00688b" stroke="#00688b" points="0,-178.5 0,-178.5 115,-178.5 115,-178.5 0,-178.5"/>
<path fill="none" stroke="#00688b" d="M12,-119.5C12,-119.5 103,-119.5 103,-119.5 109,-119.5 115,-125.5 115,-131.5 115,-131.5 115,-197 115,-197 115,-203 109,-209 103,-209 103,-209 12,-209 12,-209 6,-209 0,-203 0,-197 0,-197 0,-131.5 0,-131.5 0,-125.5 6,-119.5 12,-119.5"/>
</g>
<!-- Idle&#45;&gt;HasCredit -->
<g id="edge2" class="edge">
<title>Idle&#45;&gt;HasCredit</title>
<path fill="none" stroke="red" d="M36.1,-277.77C23.25,-268.74 11.28,-257.37 4,-243.5 -0.25,-235.39 -0.13,-227.12 2.66,-219.13"/>
<polygon fill="red" stroke="red" points="5.79,-220.7 7.06,-210.18 -0.49,-217.61 5.79,-220.7"/>
<text xml:space="preserve" text-anchor="middle" x="37.75" y="-230.2" font-family="Times,serif" font-size="14.00"> insert_coin </text>
</g>
<!-- HasCredit&#45;&gt;Idle -->
<g id="edge4" class="edge">
<title>HasCredit&#45;&gt;Idle</title>
<path fill="none" stroke="red" d="M68.69,-208.75C72.11,-222.05 75.91,-236.85 79.49,-250.78"/>
<polygon fill="red" stroke="red" points="76.05,-251.44 81.93,-260.25 82.83,-249.7 76.05,-251.44"/>
<text xml:space="preserve" text-anchor="middle" x="97.95" y="-230.2" font-family="Times,serif" font-size="14.00"> refund </text>
</g>
<!-- Dispensing -->
<g id="node4" class="node">
<title>Dispensing</title>
<path fill="azure" stroke="none" d="M132,-67C132,-67 77,-67 77,-67 71,-67 65,-61 65,-55 65,-55 65,-12 65,-12 65,-6 71,0 77,0 77,0 132,0 132,0 138,0 144,-6 144,-12 144,-12 144,-55 144,-55 144,-61 138,-67 132,-67"/>
<text xml:space="preserve" text-anchor="start" x="73" y="-46.7" font-family="Times,serif" font-weight="bold" font-size="14.00">Dispensing</text>
<text xml:space="preserve" text-anchor="start" x="73" y="-21.5" font-family="Times,serif" font-size="10.00">$&gt;()</text>
<text xml:space="preserve" text-anchor="start" x="73" y="-10.25" font-family="Times,serif" font-size="10.00"> &#160;&#160;&#160;&#160;&#160;&#160;&#160;&#160;&#160;&#160;&#160;</text>
<polygon fill="#00688b" stroke="#00688b" points="65,-36.5 65,-36.5 144,-36.5 144,-36.5 65,-36.5"/>
<path fill="none" stroke="#00688b" d="M77,0C77,0 132,0 132,0 138,0 144,-6 144,-12 144,-12 144,-55 144,-55 144,-61 138,-67 132,-67 132,-67 77,-67 77,-67 71,-67 65,-61 65,-55 65,-55 65,-12 65,-12 65,-6 71,0 77,0"/>
</g>
<!-- HasCredit&#45;&gt;Dispensing -->
<g id="edge3" class="edge">
<title>HasCredit&#45;&gt;Dispensing</title>
<path fill="none" stroke="red" d="M73.41,-119.66C78.41,-105.96 83.93,-90.85 88.91,-77.21"/>
<polygon fill="red" stroke="red" points="92.1,-78.66 92.25,-68.07 85.53,-76.26 92.1,-78.66"/>
<text xml:space="preserve" text-anchor="middle" x="100.58" y="-88.2" font-family="Times,serif" font-size="14.00"> paid </text>
</g>
<!-- Dispensing&#45;&gt;Idle -->
<g id="edge5" class="edge">
<title>Dispensing&#45;&gt;Idle</title>
<path fill="none" stroke="red" d="M114.88,-66.92C116.58,-72.89 118.2,-79.1 119.5,-85 134.63,-153.82 140.29,-175.06 123.5,-243.5 122.9,-245.95 122.19,-248.41 121.41,-250.87"/>
<polygon fill="red" stroke="red" points="118.16,-249.56 118,-260.15 124.73,-251.97 118.16,-249.56"/>
<text xml:space="preserve" text-anchor="middle" x="170.11" y="-159.2" font-family="Times,serif" font-size="14.00"> give change </text>
</g>
</g>
</svg>
