<?xml version="1.0" encoding="UTF-8" standalone="no"?>
<!DOCTYPE svg PUBLIC "-//W3C//DTD SVG 1.1//EN"
 "http://www.w3.org/Graphics/SVG/1.1/DTD/svg11.dtd">
<!-- Generated by graphviz version 14.1.5 (20260411.2331)
 -->
<!-- Title: CircuitBreaker Pages: 1 -->
<svg width="210pt" height="533pt"
 viewBox="0.00 0.00 210.00 533.00" xmlns="http://www.w3.org/2000/svg" xmlns:xlink="http://www.w3.org/1999/xlink">
<g id="graph0" class="graph" transform="scale(1 1) rotate(0) translate(4 528.65)">
<title>CircuitBreaker</title>
<polygon fill="white" stroke="none" points="-4,4 -4,-528.65 206.29,-528.65 206.29,4 -4,4"/>
<!-- Entry -->
<g id="node1" class="node">
<title>Entry</title>
<ellipse fill="black" stroke="#00688b" cx="96.25" cy="-517.45" rx="7.2" ry="7.2"/>
</g>
<!-- Closed -->
<g id="node2" class="node">
<title>Closed</title>
<path fill="azure" stroke="none" d="M112.12,-473.25C112.12,-473.25 80.38,-473.25 80.38,-473.25 74.38,-473.25 68.38,-467.25 68.38,-461.25 68.38,-461.25 68.38,-351.5 68.38,-351.5 68.38,-345.5 74.38,-339.5 80.38,-339.5 80.38,-339.5 112.12,-339.5 112.12,-339.5 118.12,-339.5 124.12,-345.5 124.12,-351.5 124.12,-351.5 124.12,-461.25 124.12,-461.25 124.12,-467.25 118.12,-473.25 112.12,-473.25"/>
<text xml:space="preserve" text-anchor="start" x="76.75" y="-452.95" font-family="Times,serif" font-weight="bold" font-size="14.00">Closed</text>
<text xml:space="preserve" text-anchor="start" x="76.38" y="-427.75" font-family="Times,serif" font-size="10.00">call()</text>
<text xml:space="preserve" text-anchor="start" x="76.38" y="-416.5" font-family="Times,serif" font-size="10.00">success()</text>
<text xml:space="preserve" text-anchor="start" x="76.38" y="-405.25" font-family="Times,serif" font-size="10.00">failure()</text>
<text xml:space="preserve" text-anchor="start" x="76.38" y="-394" font-family="Times,serif" font-size="10.00">status()</text>
<text xml:space="preserve" text-anchor="start" x="80.88" y="-382.75" font-family="Times,serif" font-size="10.00"> &#160;&#160;&#160;&#160;&#160;&#160;&#160;&#160;&#160;&#160;&#160;</text>
<text xml:space="preserve" text-anchor="start" x="76.38" y="-360.25" font-family="Times,serif" font-size="9.00" fill="#666666">failures: int</text>
<text xml:space="preserve" text-anchor="start" x="82.75" y="-349.75" font-family="Times,serif" font-size="9.00" fill="#666666"> &#160;&#160;&#160;&#160;&#160;&#160;&#160;&#160;&#160;&#160;&#160;</text>
<polygon fill="#00688b" stroke="#00688b" points="68.38,-442.75 68.38,-442.75 124.12,-442.75 124.12,-442.75 68.38,-442.75"/>
<polygon fill="#00688b" stroke="#00688b" points="68.38,-374.5 68.38,-374.5 124.12,-374.5 124.12,-374.5 68.38,-374.5"/>
<path fill="none" stroke="#00688b" d="M80.38,-339.5C80.38,-339.5 112.12,-339.5 112.12,-339.5 118.12,-339.5 124.12,-345.5 124.12,-351.5 124.12,-351.5 124.12,-461.25 124.12,-461.25 124.12,-467.25 118.12,-473.25 112.12,-473.25 112.12,-473.25 80.38,-473.25 80.38,-473.25 74.38,-473.25 68.38,-467.25 68.38,-461.25 68.38,-461.25 68.38,-351.5 68.38,-351.5 68.38,-345.5 74.38,-339.5 80.38,-339.5"/>
</g>
<!-- Entry&#45;&gt;Closed -->
<g id="edge1" class="edge">
<title>Entry&#45;&gt;Closed</title>
<path fill="none" stroke="red" d="M96.25,-509.95C96.25,-504.17 96.25,-495 96.25,-484.48"/>
<polygon fill="red" stroke="red" points="99.75,-484.61 96.25,-474.61 92.75,-484.61 99.75,-484.61"/>
</g>
<!-- Open -->
<g id="node3" class="node">
<title>Open</title>
<path fill="azure" stroke="none" d="M92.5,-287C92.5,-287 12,-287 12,-287 6,-287 0,-281 0,-275 0,-275 0,-165.25 0,-165.25 0,-159.25 6,-153.25 12,-153.25 12,-153.25 92.5,-153.25 92.5,-153.25 98.5,-153.25 104.5,-159.25 104.5,-165.25 104.5,-165.25 104.5,-275 104.5,-275 104.5,-281 98.5,-287 92.5,-287"/>
<text xml:space="preserve" text-anchor="start" x="36.12" y="-266.7" font-family="Times,serif" font-weight="bold" font-size="14.00">Open</text>
<text xml:space="preserve" text-anchor="start" x="8" y="-241.5" font-family="Times,serif" font-size="10.00">$&gt;()</text>
<text xml:space="preserve" text-anchor="start" x="8" y="-230.25" font-family="Times,serif" font-size="10.00">call()</text>
<text xml:space="preserve" text-anchor="start" x="8" y="-219" font-family="Times,serif" font-size="10.00">tick()</text>
<text xml:space="preserve" text-anchor="start" x="8" y="-207.75" font-family="Times,serif" font-size="10.00">status()</text>
<text xml:space="preserve" text-anchor="start" x="9.12" y="-196.5" font-family="Times,serif" font-size="10.00"> &#160;&#160;&#160;&#160;&#160;&#160;&#160;&#160;&#160;&#160;&#160;</text>
<text xml:space="preserve" text-anchor="start" x="8" y="-174" font-family="Times,serif" font-size="9.00" fill="#666666">cooldown_remaining: int</text>
<text xml:space="preserve" text-anchor="start" x="38.75" y="-163.5" font-family="Times,serif" font-size="9.00" fill="#666666"> &#160;&#160;&#160;&#160;&#160;&#160;&#160;&#160;&#160;&#160;&#160;</text>
<polygon fill="#00688b" stroke="#00688b" points="0,-256.5 0,-256.5 104.5,-256.5 104.5,-256.5 0,-256.5"/>
<polygon fill="#00688b" stroke="#00688b" points="0,-188.25 0,-188.25 104.5,-188.25 104.5,-188.25 0,-188.25"/>
<path fill="none" stroke="#00688b" d="M12,-153.25C12,-153.25 92.5,-153.25 92.5,-153.25 98.5,-153.25 104.5,-159.25 104.5,-165.25 104.5,-165.25 104.5,-275 104.5,-275 104.5,-281 98.5,-287 92.5,-287 92.5,-287 12,-287 12,-287 6,-287 0,-281 0,-275 0,-275 0,-165.25 0,-165.25 0,-159.25 6,-153.25 12,-153.25"/>
</g>
<!-- Closed&#45;&gt;Open -->
<g id="edge2" class="edge">
<title>Closed&#45;&gt;Open</title>
<path fill="none" stroke="red" d="M80.55,-339.64C77.32,-326.1 73.89,-311.73 70.57,-297.85"/>
<polygon fill="red" stroke="red" points="74.02,-297.22 68.29,-288.31 67.21,-298.85 74.02,-297.22"/>
<text xml:space="preserve" text-anchor="middle" x="96.94" y="-308.2" font-family="Times,serif" font-size="14.00"> failure </text>
</g>
<!-- HalfOpen -->
<g id="node4" class="node">
<title>HalfOpen</title>
<path fill="azure" stroke="none" d="M107.5,-100.75C107.5,-100.75 57,-100.75 57,-100.75 51,-100.75 45,-94.75 45,-88.75 45,-88.75 45,-12 45,-12 45,-6 51,0 57,0 57,0 107.5,0 107.5,0 113.5,0 119.5,-6 119.5,-12 119.5,-12 119.5,-88.75 119.5,-88.75 119.5,-94.75 113.5,-100.75 107.5,-100.75"/>
<text xml:space="preserve" text-anchor="start" x="53" y="-80.45" font-family="Times,serif" font-weight="bold" font-size="14.00">HalfOpen</text>
<text xml:space="preserve" text-anchor="start" x="53" y="-55.25" font-family="Times,serif" font-size="10.00">call()</text>
<text xml:space="preserve" text-anchor="start" x="53" y="-44" font-family="Times,serif" font-size="10.00">success()</text>
<text xml:space="preserve" text-anchor="start" x="53" y="-32.75" font-family="Times,serif" font-size="10.00">failure()</text>
<text xml:space="preserve" text-anchor="start" x="53" y="-21.5" font-family="Times,serif" font-size="10.00">status()</text>
<text xml:space="preserve" text-anchor="start" x="57.5" y="-10.25" font-family="Times,serif" font-size="10.00"> &#160;&#160;&#160;&#160;&#160;&#160;&#160;&#160;&#160;&#160;&#160;</text>
<polygon fill="#00688b" stroke="#00688b" points="45,-70.25 45,-70.25 119.5,-70.25 119.5,-70.25 45,-70.25"/>
<path fill="none" stroke="#00688b" d="M57,0C57,0 107.5,0 107.5,0 113.5,0 119.5,-6 119.5,-12 119.5,-12 119.5,-88.75 119.5,-88.75 119.5,-94.75 113.5,-100.75 107.5,-100.75 107.5,-100.75 57,-100.75 57,-100.75 51,-100.75 45,-94.75 45,-88.75 45,-88.75 45,-12 45,-12 45,-6 51,0 57,0"/>
</g>
<!-- Open&#45;&gt;HalfOpen -->
<g id="edge3" class="edge">
<title>Open&#45;&gt;HalfOpen</title>
<path fill="none" stroke="red" d="M29.67,-153.46C28.38,-141.77 28.86,-129.8 32.5,-118.75 34.27,-113.36 36.66,-108.05 39.43,-102.92"/>
<polygon fill="red" stroke="red" points="42.28,-104.98 44.41,-94.61 36.27,-101.39 42.28,-104.98"/>
<text xml:space="preserve" text-anchor="middle" x="46.38" y="-121.95" font-family="Times,serif" font-size="14.00"> tick </text>
</g>
<!-- HalfOpen&#45;&gt;Closed -->
<g id="edge4" class="edge">
<title>HalfOpen&#45;&gt;Closed</title>
<path fill="none" stroke="red" d="M110.03,-100.46C112.53,-106.48 114.7,-112.66 116.25,-118.75 199.28,-444.23 130.33,-268.14 122.25,-321.5 121.89,-323.86 121.48,-326.24 121.03,-328.63"/>
<polygon fill="red" stroke="red" points="117.61,-327.89 118.91,-338.4 124.45,-329.37 117.61,-327.89"/>
<text xml:space="preserve" text-anchor="middle" x="178.29" y="-215.07" font-family="Times,serif" font-size="14.00"> success </text>
</g>
<!-- HalfOpen&#45;&gt;Open -->
<g id="edge5" class="edge">
<title>HalfOpen&#45;&gt;Open</title>
<path fill="none" stroke="red" d="M73.44,-100.66C71.11,-113.66 68.54,-128.01 66.03,-142.1"/>
<polygon fill="red" stroke="red" points="62.6,-141.36 64.29,-151.82 69.49,-142.59 62.6,-141.36"/>
<text xml:space="preserve" text-anchor="middle" x="91.31" y="-121.95" font-family="Times,serif" font-size="14.00"> failure </text>
</g>
</g>
</svg>
