<?xml version="1.0" encoding="UTF-8" standalone="no"?>
<!DOCTYPE svg PUBLIC "-//W3C//DTD SVG 1.1//EN"
 "http://www.w3.org/Graphics/SVG/1.1/DTD/svg11.dtd">
<!-- Generated by graphviz version 14.1.5 (20260411.2331)
 -->
<!-- Title: CircuitBreaker Pages: 1 -->
<svg width="254pt" height="533pt"
 viewBox="0.00 0.00 254.00 533.00" xmlns="http://www.w3.org/2000/svg" xmlns:xlink="http://www.w3.org/1999/xlink">
<g id="graph0" class="graph" transform="scale(1 1) rotate(0) translate(4 528.65)">
<title>CircuitBreaker</title>
<polygon fill="white" stroke="none" points="-4,4 -4,-528.65 249.85,-528.65 249.85,4 -4,4"/>
<!-- Entry -->
<g id="node1" class="node">
<title>Entry</title>
<ellipse fill="black" stroke="#00688b" cx="120.64" cy="-517.45" rx="7.2" ry="7.2"/>
</g>
<!-- Closed -->
<g id="node2" class="node">
<title>Closed</title>
<path fill="azure" stroke="none" d="M136.51,-473.25C136.51,-473.25 104.76,-473.25 104.76,-473.25 98.76,-473.25 92.76,-467.25 92.76,-461.25 92.76,-461.25 92.76,-351.5 92.76,-351.5 92.76,-345.5 98.76,-339.5 104.76,-339.5 104.76,-339.5 136.51,-339.5 136.51,-339.5 142.51,-339.5 148.51,-345.5 148.51,-351.5 148.51,-351.5 148.51,-461.25 148.51,-461.25 148.51,-467.25 142.51,-473.25 136.51,-473.25"/>
<text xml:space="preserve" text-anchor="start" x="101.14" y="-452.95" font-family="Times,serif" font-weight="bold" font-size="14.00">Closed</text>
<text xml:space="preserve" text-anchor="start" x="100.76" y="-427.75" font-family="Times,serif" font-size="10.00">call()</text>
<text xml:space="preserve" text-anchor="start" x="100.76" y="-416.5" font-family="Times,serif" font-size="10.00">success()</text>
<text xml:space="preserve" text-anchor="start" x="100.76" y="-405.25" font-family="Times,serif" font-size="10.00">failure()</text>
<text xml:space="preserve" text-anchor="start" x="100.76" y="-394" font-family="Times,serif" font-size="10.00">status()</text>
<text xml:space="preserve" text-anchor="start" x="105.26" y="-382.75" font-family="Times,serif" font-size="10.00"> &#160;&#160;&#160;&#160;&#160;&#160;&#160;&#160;&#160;&#160;&#160;</text>
<text xml:space="preserve" text-anchor="start" x="100.76" y="-360.25" font-family="Times,serif" font-size="9.00" fill="#666666">failures: int</text>
<text xml:space="preserve" text-anchor="start" x="107.14" y="-349.75" font-family="Times,serif" font-size="9.00" fill="#666666"> &#160;&#160;&#160;&#160;&#160;&#160;&#160;&#160;&#160;&#160;&#160;</text>
<polygon fill="#00688b" stroke="#00688b" points="92.76,-442.75 92.76,-442.75 148.51,-442.75 148.51,-442.75 92.76,-442.75"/>
<polygon fill="#00688b" stroke="#00688b" points="92.76,-374.5 92.76,-374.5 148.51,-374.5 148.51,-374.5 92.76,-374.5"/>
<path fill="none" stroke="#00688b" d="M104.76,-339.5C104.76,-339.5 136.51,-339.5 136.51,-339.5 142.51,-339.5 148.51,-345.5 148.51,-351.5 148.51,-351.5 148.51,-461.25 148.51,-461.25 148.51,-467.25 142.51,-473.25 136.51,-473.25 136.51,-473.25 104.76,-473.25 104.76,-473.25 98.76,-473.25 92.76,-467.25 92.76,-461.25 92.76,-461.25 92.76,-351.5 92.76,-351.5 92.76,-345.5 98.76,-339.5 104.76,-339.5"/>
</g>
<!-- Entry&#45;&gt;Closed -->
<g id="edge1" class="edge">
<title>Entry&#45;&gt;Closed</title>
<path fill="none" stroke="red" d="M120.64,-509.95C120.64,-504.17 120.64,-495 120.64,-484.48"/>
<polygon fill="red" stroke="red" points="124.14,-484.61 120.64,-474.61 117.14,-484.61 124.14,-484.61"/>
</g>
<!-- Open -->
<g id="node3" class="node">
<title>Open</title>
<path fill="azure" stroke="none" d="M116.89,-287C116.89,-287 36.39,-287 36.39,-287 30.39,-287 24.39,-281 24.39,-275 24.39,-275 24.39,-165.25 24.39,-165.25 24.39,-159.25 30.39,-153.25 36.39,-153.25 36.39,-153.25 116.89,-153.25 116.89,-153.25 122.89,-153.25 128.89,-159.25 128.89,-165.25 128.89,-165.25 128.89,-275 128.89,-275 128.89,-281 122.89,-287 116.89,-287"/>
<text xml:space="preserve" text-anchor="start" x="60.51" y="-266.7" font-family="Times,serif" font-weight="bold" font-size="14.00">Open</text>
<text xml:space="preserve" text-anchor="start" x="32.39" y="-241.5" font-family="Times,serif" font-size="10.00">$&gt;()</text>
<text xml:space="preserve" text-anchor="start" x="32.39" y="-230.25" font-family="Times,serif" font-size="10.00">call()</text>
<text xml:space="preserve" text-anchor="start" x="32.39" y="-219" font-family="Times,serif" font-size="10.00">tick()</text>
<text xml:space="preserve" text-anchor="start" x="32.39" y="-207.75" font-family="Times,serif" font-size="10.00">status()</text>
<text xml:space="preserve" text-anchor="start" x="33.51" y="-196.5" font-family="Times,serif" font-size="10.00"> &#160;&#160;&#160;&#160;&#160;&#160;&#160;&#160;&#160;&#160;&#160;</text>
<text xml:space="preserve" text-anchor="start" x="32.39" y="-174" font-family="Times,serif" font-size="9.00" fill="#666666">cooldown_remaining: int</text>
<text xml:space="preserve" text-anchor="start" x="63.14" y="-163.5" font-family="Times,serif" font-size="9.00" fill="#666666"> &#160;&#160;&#160;&#160;&#160;&#160;&#160;&#160;&#160;&#160;&#160;</text>
<polygon fill="#00688b" stroke="#00688b" points="24.39,-256.5 24.39,-256.5 128.89,-256.5 128.89,-256.5 24.39,-256.5"/>
<polygon fill="#00688b" stroke="#00688b" points="24.39,-188.25 24.39,-188.25 128.89,-188.25 128.89,-188.25 24.39,-188.25"/>
<path fill="none" stroke="#00688b" d="M36.39,-153.25C36.39,-153.25 116.89,-153.25 116.89,-153.25 122.89,-153.25 128.89,-159.25 128.89,-165.25 128.89,-165.25 128.89,-275 128.89,-275 128.89,-281 122.89,-287 116.89,-287 116.89,-287 36.39,-287 36.39,-287 30.39,-287 24.39,-281 24.39,-275 24.39,-275 24.39,-165.25 24.39,-165.25 24.39,-159.25 30.39,-153.25 36.39,-153.25"/>
</g>
<!-- Closed&#45;&gt;Open -->
<g id="edge2" class="edge">
<title>Closed&#45;&gt;Open</title>
<path fill="none" stroke="red" d="M104.94,-339.64C101.7,-326.1 98.27,-311.73 94.96,-297.85"/>
<polygon fill="red" stroke="red" points="98.41,-297.22 92.68,-288.31 91.6,-298.85 98.41,-297.22"/>
<text xml:space="preserve" text-anchor="middle" x="122.83" y="-308.2" font-family="Times,serif" font-size="14.00"> tripped </text>
</g>
<!-- HalfOpen -->
<g id="node4" class="node">
<title>HalfOpen</title>
<path fill="azure" stroke="none" d="M128.89,-100.75C128.89,-100.75 78.39,-100.75 78.39,-100.75 72.39,-100.75 66.39,-94.75 66.39,-88.75 66.39,-88.75 66.39,-12 66.39,-12 66.39,-6 72.39,0 78.39,0 78.39,0 128.89,0 128.89,0 134.89,0 140.89,-6 140.89,-12 140.89,-12 140.89,-88.75 140.89,-88.75 140.89,-94.75 134.89,-100.75 128.89,-100.75"/>
<text xml:space="preserve" text-anchor="start" x="74.39" y="-80.45" font-family="Times,serif" font-weight="bold" font-size="14.00">HalfOpen</text>
<text xml:space="preserve" text-anchor="start" x="74.39" y="-55.25" font-family="Times,serif" font-size="10.00">call()</text>
<text xml:space="preserve" text-anchor="start" x="74.39" y="-44" font-family="Times,serif" font-size="10.00">success()</text>
<text xml:space="preserve" text-anchor="start" x="74.39" y="-32.75" font-family="Times,serif" font-size="10.00">failure()</text>
<text xml:space="preserve" text-anchor="start" x="74.39" y="-21.5" font-family="Times,serif" font-size="10.00">status()</text>
<text xml:space="preserve" text-anchor="start" x="78.89" y="-10.25" font-family="Times,serif" font-size="10.00"> &#160;&#160;&#160;&#160;&#160;&#160;&#160;&#160;&#160;&#160;&#160;</text>
<polygon fill="#00688b" stroke="#00688b" points="66.39,-70.25 66.39,-70.25 140.89,-70.25 140.89,-70.25 66.39,-70.25"/>
<path fill="none" stroke="#00688b" d="M78.39,0C78.39,0 128.89,0 128.89,0 134.89,0 140.89,-6 140.89,-12 140.89,-12 140.89,-88.75 140.89,-88.75 140.89,-94.75 134.89,-100.75 128.89,-100.75 128.89,-100.75 78.39,-100.75 78.39,-100.75 72.39,-100.75 66.39,-94.75 66.39,-88.75 66.39,-88.75 66.39,-12 66.39,-12 66.39,-6 72.39,0 78.39,0"/>
</g>
<!-- Open&#45;&gt;HalfOpen -->
<g id="edge3" class="edge">
<title>Open&#45;&gt;HalfOpen</title>
<path fill="none" stroke="red" d="M24.51,-181.17C6.23,-163.04 -7.17,-140.57 4.39,-118.75 15.51,-97.75 36.44,-82.09 56.22,-71.17"/>
<polygon fill="red" stroke="red" points="57.79,-74.3 65.06,-66.59 54.57,-68.09 57.79,-74.3"/>
<text xml:space="preserve" text-anchor="middle" x="43.01" y="-121.95" font-family="Times,serif" font-size="14.00"> cooled down </text>
</g>
<!-- HalfOpen&#45;&gt;Closed -->
<g id="edge4" class="edge">
<title>HalfOpen&#45;&gt;Closed</title>
<path fill="none" stroke="red" d="M135.65,-100.57C138.44,-106.51 140.87,-112.65 142.64,-118.75 235.18,-439.21 158.68,-267.67 149.64,-321.5 149.25,-323.81 148.8,-326.15 148.31,-328.5"/>
<polygon fill="red" stroke="red" points="144.95,-327.51 146.03,-338.05 151.75,-329.13 144.95,-327.51"/>
<text xml:space="preserve" text-anchor="middle" x="215.47" y="-215.07" font-family="Times,serif" font-size="14.00"> recovered </text>
</g>
<!-- HalfOpen&#45;&gt;Open -->
<g id="edge5" class="edge">
<title>HalfOpen&#45;&gt;Open</title>
<path fill="none" stroke="red" d="M95.7,-100.66C93.61,-113.66 91.3,-128.01 89.03,-142.1"/>
<polygon fill="red" stroke="red" points="85.6,-141.38 87.47,-151.81 92.51,-142.5 85.6,-141.38"/>
<text xml:space="preserve" text-anchor="middle" x="115.43" y="-121.95" font-family="Times,serif" font-size="14.00"> relapse </text>
</g>
</g>
</svg>
