<?xml version="1.0" encoding="UTF-8" standalone="no"?>
<!DOCTYPE svg PUBLIC "-//W3C//DTD SVG 1.1//EN"
 "http://www.w3.org/Graphics/SVG/1.1/DTD/svg11.dtd">
<!-- Generated by graphviz version 14.1.5 (20260411.2331)
 -->
<!-- Title: RateLimiter Pages: 1 -->
<svg width="86pt" height="268pt"
 viewBox="0.00 0.00 86.00 268.00" xmlns="http://www.w3.org/2000/svg" xmlns:xlink="http://www.w3.org/1999/xlink">
<g id="graph0" class="graph" transform="scale(1 1) rotate(0) translate(4 264.4)">
<title>RateLimiter</title>
<polygon fill="white" stroke="none" points="-4,4 -4,-264.4 82.17,-264.4 82.17,4 -4,4"/>
<!-- Entry -->
<g id="node1" class="node">
<title>Entry</title>
<ellipse fill="black" stroke="#00688b" cx="36.88" cy="-253.2" rx="7.2" ry="7.2"/>
</g>
<!-- Accepting -->
<g id="node2" class="node">
<title>Accepting</title>
<path fill="azure" stroke="none" d="M61.75,-209C61.75,-209 12,-209 12,-209 6,-209 0,-203 0,-197 0,-197 0,-142.75 0,-142.75 0,-136.75 6,-130.75 12,-130.75 12,-130.75 61.75,-130.75 61.75,-130.75 67.75,-130.75 73.75,-136.75 73.75,-142.75 73.75,-142.75 73.75,-197 73.75,-197 73.75,-203 67.75,-209 61.75,-209"/>
<text xml:space="preserve" text-anchor="start" x="8" y="-188.7" font-family="Times,serif" font-weight="bold" font-size="14.00">Accepting</text>
<text xml:space="preserve" text-anchor="start" x="8" y="-163.5" font-family="Times,serif" font-size="10.00">request()</text>
<text xml:space="preserve" text-anchor="start" x="8" y="-152.25" font-family="Times,serif" font-size="10.00">tick()</text>
<text xml:space="preserve" text-anchor="start" x="12.12" y="-141" font-family="Times,serif" font-size="10.00"> &#160;&#160;&#160;&#160;&#160;&#160;&#160;&#160;&#160;&#160;&#160;</text>
<polygon fill="#00688b" stroke="#00688b" points="0,-178.5 0,-178.5 73.75,-178.5 73.75,-178.5 0,-178.5"/>
<path fill="none" stroke="#00688b" d="M12,-130.75C12,-130.75 61.75,-130.75 61.75,-130.75 67.75,-130.75 73.75,-136.75 73.75,-142.75 73.75,-142.75 73.75,-197 73.75,-197 73.75,-203 67.75,-209 61.75,-209 61.75,-209 12,-209 12,-209 6,-209 0,-203 0,-197 0,-197 0,-142.75 0,-142.75 0,-136.75 6,-130.75 12,-130.75"/>
</g>
<!-- Entry&#45;&gt;Accepting -->
<g id="edge1" class="edge">
<title>Entry&#45;&gt;Accepting</title>
<path fill="none" stroke="red" d="M36.88,-245.54C36.88,-239.53 36.88,-230.07 36.88,-219.88"/>
<polygon fill="red" stroke="red" points="40.38,-220.19 36.88,-210.19 33.38,-220.19 40.38,-220.19"/>
</g>
<!-- Throttled -->
<g id="node3" class="node">
<title>Throttled</title>
<path fill="azure" stroke="none" d="M60.62,-78.25C60.62,-78.25 13.12,-78.25 13.12,-78.25 7.12,-78.25 1.12,-72.25 1.12,-66.25 1.12,-66.25 1.12,-12 1.12,-12 1.12,-6 7.12,0 13.12,0 13.12,0 60.62,0 60.62,0 66.62,0 72.62,-6 72.62,-12 72.62,-12 72.62,-66.25 72.62,-66.25 72.62,-72.25 66.62,-78.25 60.62,-78.25"/>
<text xml:space="preserve" text-anchor="start" x="9.12" y="-57.95" font-family="Times,serif" font-weight="bold" font-size="14.00">Throttled</text>
<text xml:space="preserve" text-anchor="start" x="9.12" y="-32.75" font-family="Times,serif" font-size="10.00">request()</text>
<text xml:space="preserve" text-anchor="start" x="9.12" y="-21.5" font-family="Times,serif" font-size="10.00">tick()</text>
<text xml:space="preserve" text-anchor="start" x="13.25" y="-10.25" font-family="Times,serif" font-size="10.00"> &#160;&#160;&#160;&#160;&#160;&#160;&#160;&#160;&#160;&#160;&#160;</text>
<polygon fill="#00688b" stroke="#00688b" points="1.12,-47.75 1.12,-47.75 72.62,-47.75 72.62,-47.75 1.12,-47.75"/>
<path fill="none" stroke="#00688b" d="M13.12,0C13.12,0 60.62,0 60.62,0 66.62,0 72.62,-6 72.62,-12 72.62,-12 72.62,-66.25 72.62,-66.25 72.62,-72.25 66.62,-78.25 60.62,-78.25 60.62,-78.25 13.12,-78.25 13.12,-78.25 7.12,-78.25 1.12,-72.25 1.12,-66.25 1.12,-66.25 1.12,-12 1.12,-12 1.12,-6 7.12,0 13.12,0"/>
</g>
<!-- Accepting&#45;&gt;Throttled -->
<g id="edge2" class="edge">
<title>Accepting&#45;&gt;Throttled</title>
<path fill="none" stroke="red" d="M10.58,-130.85C7.62,-125.01 5.06,-118.88 3.38,-112.75 1.17,-104.74 1.82,-96.51 4.12,-88.6"/>
<polygon fill="red" stroke="red" points="7.3,-90.07 7.61,-79.48 0.77,-87.56 7.3,-90.07"/>
<text xml:space="preserve" text-anchor="middle" x="26.62" y="-99.45" font-family="Times,serif" font-size="14.00"> request </text>
</g>
<!-- Throttled&#45;&gt;Accepting -->
<g id="edge3" class="edge">
<title>Throttled&#45;&gt;Accepting</title>
<path fill="none" stroke="red" d="M46.87,-77.96C48.12,-84.04 49.19,-90.29 49.88,-96.25 50.74,-103.86 50.5,-111.88 49.61,-119.7"/>
<polygon fill="red" stroke="red" points="46.17,-119.03 48.13,-129.44 53.09,-120.08 46.17,-119.03"/>
<text xml:space="preserve" text-anchor="middle" x="64.29" y="-99.45" font-family="Times,serif" font-size="14.00"> tick </text>
</g>
</g>
</svg>
