<?xml version="1.0" encoding="UTF-8" standalone="no"?>
<!DOCTYPE svg PUBLIC "-//W3C//DTD SVG 1.1//EN"
 "http://www.w3.org/Graphics/SVG/1.1/DTD/svg11.dtd">
<!-- Generated by graphviz version 14.1.5 (20260411.2331)
 -->
<!-- Title: RateLimiter Pages: 1 -->
<svg width="142pt" height="268pt"
 viewBox="0.00 0.00 142.00 268.00" xmlns="http://www.w3.org/2000/svg" xmlns:xlink="http://www.w3.org/1999/xlink">
<g id="graph0" class="graph" transform="scale(1 1) rotate(0) translate(4 264.4)">
<title>RateLimiter</title>
<polygon fill="white" stroke="none" points="-4,4 -4,-264.4 137.9,-264.4 137.9,4 -4,4"/>
<!-- Entry -->
<g id="node1" class="node">
<title>Entry</title>
<ellipse fill="black" stroke="#00688b" cx="42.28" cy="-253.2" rx="7.2" ry="7.2"/>
</g>
<!-- Accepting -->
<g id="node2" class="node">
<title>Accepting</title>
<path fill="azure" stroke="none" d="M67.16,-209C67.16,-209 17.41,-209 17.41,-209 11.41,-209 5.41,-203 5.41,-197 5.41,-197 5.41,-142.75 5.41,-142.75 5.41,-136.75 11.41,-130.75 17.41,-130.75 17.41,-130.75 67.16,-130.75 67.16,-130.75 73.16,-130.75 79.16,-136.75 79.16,-142.75 79.16,-142.75 79.16,-197 79.16,-197 79.16,-203 73.16,-209 67.16,-209"/>
<text xml:space="preserve" text-anchor="start" x="13.41" y="-188.7" font-family="Times,serif" font-weight="bold" font-size="14.00">Accepting</text>
<text xml:space="preserve" text-anchor="start" x="13.41" y="-163.5" font-family="Times,serif" font-size="10.00">request()</text>
<text xml:space="preserve" text-anchor="start" x="13.41" y="-152.25" font-family="Times,serif" font-size="10.00">tick()</text>
<text xml:space="preserve" text-anchor="start" x="17.53" y="-141" font-family="Times,serif" font-size="10.00"> &#160;&#160;&#160;&#160;&#160;&#160;&#160;&#160;&#160;&#160;&#160;</text>
<polygon fill="#00688b" stroke="#00688b" points="5.41,-178.5 5.41,-178.5 79.16,-178.5 79.16,-178.5 5.41,-178.5"/>
<path fill="none" stroke="#00688b" d="M17.41,-130.75C17.41,-130.75 67.16,-130.75 67.16,-130.75 73.16,-130.75 79.16,-136.75 79.16,-142.75 79.16,-142.75 79.16,-197 79.16,-197 79.16,-203 73.16,-209 67.16,-209 67.16,-209 17.41,-209 17.41,-209 11.41,-209 5.41,-203 5.41,-197 5.41,-197 5.41,-142.75 5.41,-142.75 5.41,-136.75 11.41,-130.75 17.41,-130.75"/>
</g>
<!-- Entry&#45;&gt;Accepting -->
<g id="edge1" class="edge">
<title>Entry&#45;&gt;Accepting</title>
<path fill="none" stroke="red" d="M42.28,-245.54C42.28,-239.53 42.28,-230.07 42.28,-219.88"/>
<polygon fill="red" stroke="red" points="45.78,-220.19 42.28,-210.19 38.78,-220.19 45.78,-220.19"/>
</g>
<!-- Throttled -->
<g id="node3" class="node">
<title>Throttled</title>
<path fill="azure" stroke="none" d="M66.03,-78.25C66.03,-78.25 18.53,-78.25 18.53,-78.25 12.53,-78.25 6.53,-72.25 6.53,-66.25 6.53,-66.25 6.53,-12 6.53,-12 6.53,-6 12.53,0 18.53,0 18.53,0 66.03,0 66.03,0 72.03,0 78.03,-6 78.03,-12 78.03,-12 78.03,-66.25 78.03,-66.25 78.03,-72.25 72.03,-78.25 66.03,-78.25"/>
<text xml:space="preserve" text-anchor="start" x="14.53" y="-57.95" font-family="Times,serif" font-weight="bold" font-size="14.00">Throttled</text>
<text xml:space="preserve" text-anchor="start" x="14.53" y="-32.75" font-family="Times,serif" font-size="10.00">request()</text>
<text xml:space="preserve" text-anchor="start" x="14.53" y="-21.5" font-family="Times,serif" font-size="10.00">tick()</text>
<text xml:space="preserve" text-anchor="start" x="18.66" y="-10.25" font-family="Times,serif" font-size="10.00"> &#160;&#160;&#160;&#160;&#160;&#160;&#160;&#160;&#160;&#160;&#160;</text>
<polygon fill="#00688b" stroke="#00688b" points="6.53,-47.75 6.53,-47.75 78.03,-47.75 78.03,-47.75 6.53,-47.75"/>
<path fill="none" stroke="#00688b" d="M18.53,0C18.53,0 66.03,0 66.03,0 72.03,0 78.03,-6 78.03,-12 78.03,-12 78.03,-66.25 78.03,-66.25 78.03,-72.25 72.03,-78.25 66.03,-78.25 66.03,-78.25 18.53,-78.25 18.53,-78.25 12.53,-78.25 6.53,-72.25 6.53,-66.25 6.53,-66.25 6.53,-12 6.53,-12 6.53,-6 12.53,0 18.53,0"/>
</g>
<!-- Accepting&#45;&gt;Throttled -->
<g id="edge2" class="edge">
<title>Accepting&#45;&gt;Throttled</title>
<path fill="none" stroke="red" d="M10.34,-131.04C6.84,-125.22 3.81,-119.04 1.78,-112.75 -0.84,-104.63 -0.1,-96.38 2.61,-88.51"/>
<polygon fill="red" stroke="red" points="5.79,-89.97 6.75,-79.42 -0.58,-87.07 5.79,-89.97"/>
<text xml:space="preserve" text-anchor="middle" x="32.53" y="-99.45" font-family="Times,serif" font-size="14.00"> exhausted </text>
</g>
<!-- Throttled&#45;&gt;Accepting -->
<g id="edge3" class="edge">
<title>Throttled&#45;&gt;Accepting</title>
<path fill="none" stroke="red" d="M58.51,-77.95C60.48,-83.97 62.19,-90.21 63.28,-96.25 64.66,-103.89 64.29,-111.87 62.89,-119.63"/>
<polygon fill="red" stroke="red" points="59.5,-118.77 60.56,-129.31 66.3,-120.41 59.5,-118.77"/>
<text xml:space="preserve" text-anchor="middle" x="99.02" y="-99.45" font-family="Times,serif" font-size="14.00"> replenished </text>
</g>
</g>
</svg>
