<?xml version="1.0" encoding="UTF-8" standalone="no"?>
<!DOCTYPE svg PUBLIC "-//W3C//DTD SVG 1.1//EN"
 "http://www.w3.org/Graphics/SVG/1.1/DTD/svg11.dtd">
<!-- Generated by graphviz version 14.1.5 (20260411.2331)
 -->
<!-- Title: Thermostat Pages: 1 -->
<svg width="367pt" height="477pt"
 viewBox="0.00 0.00 367.00 477.00" xmlns="http://www.w3.org/2000/svg" xmlns:xlink="http://www.w3.org/1999/xlink">
<g id="graph0" class="graph" transform="scale(1 1) rotate(0) translate(4 473.25)">
<title>Thermostat</title>
<polygon fill="white" stroke="none" points="-4,4 -4,-473.25 362.62,-473.25 362.62,4 -4,4"/>
<g id="clust1" class="cluster">
<title>cluster_On</title>
<path fill="none" stroke="black" d="M34.2,-120.75C34.2,-120.75 280.2,-120.75 280.2,-120.75 286.2,-120.75 292.2,-126.75 292.2,-132.75 292.2,-132.75 292.2,-449.25 292.2,-449.25 292.2,-455.25 286.2,-461.25 280.2,-461.25 280.2,-461.25 34.2,-461.25 34.2,-461.25 28.2,-461.25 22.2,-455.25 22.2,-449.25 22.2,-449.25 22.2,-132.75 22.2,-132.75 22.2,-126.75 28.2,-120.75 34.2,-120.75"/>
<text xml:space="preserve" text-anchor="start" x="148.95" y="-440.5" font-family="Times,serif" font-size="14.00">On</text>
<polygon fill="black" stroke="black" points="144.95,-433.75 144.95,-433.75 169.45,-433.75 169.45,-433.75 144.95,-433.75"/>
</g>
<g id="clust2" class="cluster">
<title>cluster_Heating</title>
<path fill="none" stroke="black" d="M42.2,-128.75C42.2,-128.75 194.2,-128.75 194.2,-128.75 200.2,-128.75 206.2,-134.75 206.2,-140.75 206.2,-140.75 206.2,-402.75 206.2,-402.75 206.2,-408.75 200.2,-414.75 194.2,-414.75 194.2,-414.75 42.2,-414.75 42.2,-414.75 36.2,-414.75 30.2,-408.75 30.2,-402.75 30.2,-402.75 30.2,-140.75 30.2,-140.75 30.2,-134.75 36.2,-128.75 42.2,-128.75"/>
<text xml:space="preserve" text-anchor="start" x="96.83" y="-394" font-family="Times,serif" font-size="14.00">Heating</text>
<polygon fill="black" stroke="black" points="92.83,-387.25 92.83,-387.25 143.57,-387.25 143.57,-387.25 92.83,-387.25"/>
</g>
<!-- Entry -->
<g id="node1" class="node">
<title>Entry</title>
<ellipse fill="black" stroke="#00688b" cx="7.2" cy="-181.5" rx="7.2" ry="7.2"/>
</g>
<!-- Off -->
<g id="node2" class="node">
<title>Off</title>
<path fill="azure" stroke="none" d="M257.45,-78.25C257.45,-78.25 182.95,-78.25 182.95,-78.25 176.95,-78.25 170.95,-72.25 170.95,-66.25 170.95,-66.25 170.95,-12 170.95,-12 170.95,-6 176.95,0 182.95,0 182.95,0 257.45,0 257.45,0 263.45,0 269.45,-6 269.45,-12 269.45,-12 269.45,-66.25 269.45,-66.25 269.45,-72.25 263.45,-78.25 257.45,-78.25"/>
<text xml:space="preserve" text-anchor="start" x="210.07" y="-57.95" font-family="Times,serif" font-weight="bold" font-size="14.00">Off</text>
<text xml:space="preserve" text-anchor="start" x="178.95" y="-32.75" font-family="Times,serif" font-size="10.00">set_temp(target: int)</text>
<text xml:space="preserve" text-anchor="start" x="178.95" y="-21.5" font-family="Times,serif" font-size="10.00">status()</text>
<text xml:space="preserve" text-anchor="start" x="206.7" y="-10.25" font-family="Times,serif" font-size="10.00"> &#160;&#160;&#160;&#160;&#160;&#160;&#160;&#160;&#160;&#160;&#160;</text>
<polygon fill="#00688b" stroke="#00688b" points="170.95,-47.75 170.95,-47.75 269.45,-47.75 269.45,-47.75 170.95,-47.75"/>
<path fill="none" stroke="#00688b" d="M182.95,0C182.95,0 257.45,0 257.45,0 263.45,0 269.45,-6 269.45,-12 269.45,-12 269.45,-66.25 269.45,-66.25 269.45,-72.25 263.45,-78.25 257.45,-78.25 257.45,-78.25 182.95,-78.25 182.95,-78.25 176.95,-78.25 170.95,-72.25 170.95,-66.25 170.95,-66.25 170.95,-12 170.95,-12 170.95,-6 176.95,0 182.95,0"/>
</g>
<!-- Entry&#45;&gt;Off -->
<g id="edge1" class="edge">
<title>Entry&#45;&gt;Off</title>
<path fill="none" stroke="red" d="M7.52,-174.05C8.45,-162.06 12.07,-136.15 26.2,-120.75 61.28,-82.51 117.3,-61.87 160.14,-51.08"/>
<polygon fill="red" stroke="red" points="160.9,-54.5 169.81,-48.77 159.27,-47.69 160.9,-54.5"/>
</g>
<!-- LowHeat -->
<g id="node5" class="node">
<title>LowHeat</title>
<path fill="azure" stroke="none" d="M160.2,-368.25C160.2,-368.25 114.2,-368.25 114.2,-368.25 108.2,-368.25 102.2,-362.25 102.2,-356.25 102.2,-356.25 102.2,-290.75 102.2,-290.75 102.2,-284.75 108.2,-278.75 114.2,-278.75 114.2,-278.75 160.2,-278.75 160.2,-278.75 166.2,-278.75 172.2,-284.75 172.2,-290.75 172.2,-290.75 172.2,-356.25 172.2,-356.25 172.2,-362.25 166.2,-368.25 160.2,-368.25"/>
<text xml:space="preserve" text-anchor="start" x="110.2" y="-347.95" font-family="Times,serif" font-weight="bold" font-size="14.00">LowHeat</text>
<text xml:space="preserve" text-anchor="start" x="110.2" y="-322.75" font-family="Times,serif" font-size="10.00">$&gt;()</text>
<text xml:space="preserve" text-anchor="start" x="110.2" y="-311.5" font-family="Times,serif" font-size="10.00">tick()</text>
<text xml:space="preserve" text-anchor="start" x="110.2" y="-300.25" font-family="Times,serif" font-size="10.00">status()</text>
<text xml:space="preserve" text-anchor="start" x="110.2" y="-289" font-family="Times,serif" font-size="10.00"> &#160;&#160;&#160;&#160;&#160;&#160;&#160;&#160;&#160;&#160;&#160;&#160;&#160;&#160;&#160;&#160;&#160;&#160;&#160;</text>
<polygon fill="#00688b" stroke="#00688b" points="102.2,-337.75 102.2,-337.75 172.2,-337.75 172.2,-337.75 102.2,-337.75"/>
<path fill="none" stroke="#00688b" d="M114.2,-278.75C114.2,-278.75 160.2,-278.75 160.2,-278.75 166.2,-278.75 172.2,-284.75 172.2,-290.75 172.2,-290.75 172.2,-356.25 172.2,-356.25 172.2,-362.25 166.2,-368.25 160.2,-368.25 160.2,-368.25 114.2,-368.25 114.2,-368.25 108.2,-368.25 102.2,-362.25 102.2,-356.25 102.2,-356.25 102.2,-290.75 102.2,-290.75 102.2,-284.75 108.2,-278.75 114.2,-278.75"/>
</g>
<!-- Off&#45;&gt;LowHeat -->
<g id="edge2" class="edge">
<title>Off&#45;&gt;LowHeat</title>
<path fill="none" stroke="red" d="M269.05,-64.61C280.71,-72.96 291.66,-83.48 298.2,-96.25 331.54,-161.32 344.29,-205.67 296.2,-260.75 263.16,-298.6 228.7,-259.28 182.38,-276.52"/>
<polygon fill="red" stroke="red" points="181,-273.31 173.36,-280.65 183.91,-279.67 181,-273.31"/>
<text xml:space="preserve" text-anchor="middle" x="343.24" y="-176.45" font-family="Times,serif" font-size="14.00"> start </text>
</g>
<!-- On -->
<g id="node3" class="node">
<title>On</title>
<ellipse fill="azure" stroke="#00688b" cx="232.2" cy="-323.5" rx="0.36" ry="0.36"/>
</g>
<!-- Cooling -->
<g id="node7" class="node">
<title>Cooling</title>
<path fill="azure" stroke="none" d="M263.7,-226.25C263.7,-226.25 226.7,-226.25 226.7,-226.25 220.7,-226.25 214.7,-220.25 214.7,-214.25 214.7,-214.25 214.7,-148.75 214.7,-148.75 214.7,-142.75 220.7,-136.75 226.7,-136.75 226.7,-136.75 263.7,-136.75 263.7,-136.75 269.7,-136.75 275.7,-142.75 275.7,-148.75 275.7,-148.75 275.7,-214.25 275.7,-214.25 275.7,-220.25 269.7,-226.25 263.7,-226.25"/>
<text xml:space="preserve" text-anchor="start" x="222.7" y="-205.95" font-family="Times,serif" font-weight="bold" font-size="14.00">Cooling</text>
<text xml:space="preserve" text-anchor="start" x="222.7" y="-180.75" font-family="Times,serif" font-size="10.00">$&gt;()</text>
<text xml:space="preserve" text-anchor="start" x="222.7" y="-169.5" font-family="Times,serif" font-size="10.00">tick()</text>
<text xml:space="preserve" text-anchor="start" x="222.7" y="-158.25" font-family="Times,serif" font-size="10.00">status()</text>
<text xml:space="preserve" text-anchor="start" x="222.7" y="-147" font-family="Times,serif" font-size="10.00"> &#160;&#160;&#160;&#160;&#160;&#160;&#160;&#160;&#160;&#160;&#160;&#160;&#160;&#160;&#160;</text>
<polygon fill="#00688b" stroke="#00688b" points="214.7,-195.75 214.7,-195.75 275.7,-195.75 275.7,-195.75 214.7,-195.75"/>
<path fill="none" stroke="#00688b" d="M226.7,-136.75C226.7,-136.75 263.7,-136.75 263.7,-136.75 269.7,-136.75 275.7,-142.75 275.7,-148.75 275.7,-148.75 275.7,-214.25 275.7,-214.25 275.7,-220.25 269.7,-226.25 263.7,-226.25 263.7,-226.25 226.7,-226.25 226.7,-226.25 220.7,-226.25 214.7,-220.25 214.7,-214.25 214.7,-214.25 214.7,-148.75 214.7,-148.75 214.7,-142.75 220.7,-136.75 226.7,-136.75"/>
</g>
<!-- On&#45;&gt;Cooling -->
<g id="edge5" class="edge">
<title>On&#45;&gt;Cooling</title>
<path fill="none" stroke="red" d="M232.21,-322.4C232.43,-319.99 236.58,-275.33 240.13,-237.11"/>
<polygon fill="red" stroke="red" points="243.58,-237.81 241.02,-227.53 236.61,-237.16 243.58,-237.81"/>
<text xml:space="preserve" text-anchor="middle" x="264.96" y="-247.45" font-family="Times,serif" font-size="14.00"> at target </text>
</g>
<!-- Heating -->
<g id="node4" class="node">
<title>Heating</title>
<ellipse fill="azure" stroke="#00688b" cx="61.2" cy="-323.5" rx="0.36" ry="0.36"/>
</g>
<!-- HighHeat -->
<g id="node6" class="node">
<title>HighHeat</title>
<path fill="azure" stroke="none" d="M131.07,-226.25C131.07,-226.25 81.33,-226.25 81.33,-226.25 75.33,-226.25 69.33,-220.25 69.33,-214.25 69.33,-214.25 69.33,-148.75 69.33,-148.75 69.33,-142.75 75.33,-136.75 81.33,-136.75 81.33,-136.75 131.07,-136.75 131.07,-136.75 137.07,-136.75 143.07,-142.75 143.07,-148.75 143.07,-148.75 143.07,-214.25 143.07,-214.25 143.07,-220.25 137.07,-226.25 131.07,-226.25"/>
<text xml:space="preserve" text-anchor="start" x="77.33" y="-205.95" font-family="Times,serif" font-weight="bold" font-size="14.00">HighHeat</text>
<text xml:space="preserve" text-anchor="start" x="77.33" y="-180.75" font-family="Times,serif" font-size="10.00">$&gt;()</text>
<text xml:space="preserve" text-anchor="start" x="77.33" y="-169.5" font-family="Times,serif" font-size="10.00">tick()</text>
<text xml:space="preserve" text-anchor="start" x="77.33" y="-158.25" font-family="Times,serif" font-size="10.00">status()</text>
<text xml:space="preserve" text-anchor="start" x="77.33" y="-147" font-family="Times,serif" font-size="10.00"> &#160;&#160;&#160;&#160;&#160;&#160;&#160;&#160;&#160;&#160;&#160;&#160;&#160;&#160;&#160;&#160;&#160;&#160;&#160;</text>
<polygon fill="#00688b" stroke="#00688b" points="69.33,-195.75 69.33,-195.75 143.07,-195.75 143.07,-195.75 69.33,-195.75"/>
<path fill="none" stroke="#00688b" d="M81.33,-136.75C81.33,-136.75 131.07,-136.75 131.07,-136.75 137.07,-136.75 143.07,-142.75 143.07,-148.75 143.07,-148.75 143.07,-214.25 143.07,-214.25 143.07,-220.25 137.07,-226.25 131.07,-226.25 131.07,-226.25 81.33,-226.25 81.33,-226.25 75.33,-226.25 69.33,-220.25 69.33,-214.25 69.33,-214.25 69.33,-148.75 69.33,-148.75 69.33,-142.75 75.33,-136.75 81.33,-136.75"/>
</g>
<!-- LowHeat&#45;&gt;HighHeat -->
<g id="edge3" class="edge">
<title>LowHeat&#45;&gt;HighHeat</title>
<path fill="none" stroke="red" d="M102.34,-300.08C83.27,-286.98 62.5,-271.05 57.45,-260.75 51.28,-248.16 55.03,-235.03 62.65,-223.2"/>
<polygon fill="red" stroke="red" points="65.41,-225.35 68.57,-215.24 59.79,-221.18 65.41,-225.35"/>
<text xml:space="preserve" text-anchor="middle" x="86.33" y="-247.45" font-family="Times,serif" font-size="14.00"> gap large </text>
</g>
<!-- HighHeat&#45;&gt;LowHeat -->
<g id="edge4" class="edge">
<title>HighHeat&#45;&gt;LowHeat</title>
<path fill="none" stroke="red" d="M115.83,-226C118.78,-239.3 122.05,-254.1 125.14,-268.03"/>
<polygon fill="red" stroke="red" points="121.65,-268.49 127.23,-277.49 128.49,-266.97 121.65,-268.49"/>
<text xml:space="preserve" text-anchor="middle" x="153" y="-247.45" font-family="Times,serif" font-size="14.00"> gap small </text>
</g>
<!-- Cooling&#45;&gt;Off -->
<g id="edge6" class="edge">
<title>Cooling&#45;&gt;Off</title>
<path fill="none" stroke="red" d="M227.23,-136.98C224.65,-129.05 222.38,-120.74 220.95,-112.75 219.61,-105.24 218.86,-97.23 218.49,-89.37"/>
<polygon fill="red" stroke="red" points="222,-89.47 218.25,-79.55 215,-89.64 222,-89.47"/>
<text xml:space="preserve" text-anchor="middle" x="259.57" y="-99.45" font-family="Times,serif" font-size="14.00"> cooled down </text>
</g>
</g>
</svg>
