<?xml version="1.0" encoding="UTF-8" standalone="no"?>
<!DOCTYPE svg PUBLIC "-//W3C//DTD SVG 1.1//EN"
 "http://www.w3.org/Graphics/SVG/1.1/DTD/svg11.dtd">
<!-- Generated by graphviz version 14.1.5 (20260411.2331)
 -->
<!-- Title: Thermostat Pages: 1 -->
<svg width="310pt" height="477pt"
 viewBox="0.00 0.00 310.00 477.00" xmlns="http://www.w3.org/2000/svg" xmlns:xlink="http://www.w3.org/1999/xlink">
<g id="graph0" class="graph" transform="scale(1 1) rotate(0) translate(4 473.25)">
<title>Thermostat</title>
<polygon fill="white" stroke="none" points="-4,4 -4,-473.25 306.19,-473.25 306.19,4 -4,4"/>
<g id="clust1" class="cluster">
<title>cluster_On</title>
<path fill="none" stroke="black" d="M34.2,-120.75C34.2,-120.75 209.2,-120.75 209.2,-120.75 215.2,-120.75 221.2,-126.75 221.2,-132.75 221.2,-132.75 221.2,-449.25 221.2,-449.25 221.2,-455.25 215.2,-461.25 209.2,-461.25 209.2,-461.25 34.2,-461.25 34.2,-461.25 28.2,-461.25 22.2,-455.25 22.2,-449.25 22.2,-449.25 22.2,-132.75 22.2,-132.75 22.2,-126.75 28.2,-120.75 34.2,-120.75"/>
<text xml:space="preserve" text-anchor="start" x="113.45" y="-440.5" font-family="Times,serif" font-size="14.00">On</text>
<polygon fill="black" stroke="black" points="109.45,-433.75 109.45,-433.75 133.95,-433.75 133.95,-433.75 109.45,-433.75"/>
</g>
<g id="clust2" class="cluster">
<title>cluster_Heating</title>
<path fill="none" stroke="black" d="M42.2,-128.75C42.2,-128.75 131.2,-128.75 131.2,-128.75 137.2,-128.75 143.2,-134.75 143.2,-140.75 143.2,-140.75 143.2,-402.75 143.2,-402.75 143.2,-408.75 137.2,-414.75 131.2,-414.75 131.2,-414.75 42.2,-414.75 42.2,-414.75 36.2,-414.75 30.2,-408.75 30.2,-402.75 30.2,-402.75 30.2,-140.75 30.2,-140.75 30.2,-134.75 36.2,-128.75 42.2,-128.75"/>
<text xml:space="preserve" text-anchor="start" x="65.33" y="-394" font-family="Times,serif" font-size="14.00">Heating</text>
<polygon fill="black" stroke="black" points="61.33,-387.25 61.33,-387.25 112.08,-387.25 112.08,-387.25 61.33,-387.25"/>
</g>
<!-- Entry -->
<g id="node1" class="node">
<title>Entry</title>
<ellipse fill="black" stroke="#00688b" cx="7.2" cy="-181.5" rx="7.2" ry="7.2"/>
</g>
<!-- Off -->
<g id="node2" class="node">
<title>Off</title>
<path fill="azure" stroke="none" d="M219.45,-78.25C219.45,-78.25 144.95,-78.25 144.95,-78.25 138.95,-78.25 132.95,-72.25 132.95,-66.25 132.95,-66.25 132.95,-12 132.95,-12 132.95,-6 138.95,0 144.95,0 144.95,0 219.45,0 219.45,0 225.45,0 231.45,-6 231.45,-12 231.45,-12 231.45,-66.25 231.45,-66.25 231.45,-72.25 225.45,-78.25 219.45,-78.25"/>
<text xml:space="preserve" text-anchor="start" x="172.07" y="-57.95" font-family="Times,serif" font-weight="bold" font-size="14.00">Off</text>
<text xml:space="preserve" text-anchor="start" x="140.95" y="-32.75" font-family="Times,serif" font-size="10.00">set_temp(target: int)</text>
<text xml:space="preserve" text-anchor="start" x="140.95" y="-21.5" font-family="Times,serif" font-size="10.00">status()</text>
<text xml:space="preserve" text-anchor="start" x="168.7" y="-10.25" font-family="Times,serif" font-size="10.00"> &#160;&#160;&#160;&#160;&#160;&#160;&#160;&#160;&#160;&#160;&#160;</text>
<polygon fill="#00688b" stroke="#00688b" points="132.95,-47.75 132.95,-47.75 231.45,-47.75 231.45,-47.75 132.95,-47.75"/>
<path fill="none" stroke="#00688b" d="M144.95,0C144.95,0 219.45,0 219.45,0 225.45,0 231.45,-6 231.45,-12 231.45,-12 231.45,-66.25 231.45,-66.25 231.45,-72.25 225.45,-78.25 219.45,-78.25 219.45,-78.25 144.95,-78.25 144.95,-78.25 138.95,-78.25 132.95,-72.25 132.95,-66.25 132.95,-66.25 132.95,-12 132.95,-12 132.95,-6 138.95,0 144.95,0"/>
</g>
<!-- Entry&#45;&gt;Off -->
<g id="edge1" class="edge">
<title>Entry&#45;&gt;Off</title>
<path fill="none" stroke="red" d="M7.64,-174.16C8.77,-162.35 12.72,-136.72 26.2,-120.75 51.3,-91 90.17,-70.87 122.83,-58.16"/>
<polygon fill="red" stroke="red" points="123.63,-61.6 131.77,-54.83 121.18,-55.04 123.63,-61.6"/>
</g>
<!-- LowHeat -->
<g id="node5" class="node">
<title>LowHeat</title>
<path fill="azure" stroke="none" d="M123.2,-368.25C123.2,-368.25 77.2,-368.25 77.2,-368.25 71.2,-368.25 65.2,-362.25 65.2,-356.25 65.2,-356.25 65.2,-290.75 65.2,-290.75 65.2,-284.75 71.2,-278.75 77.2,-278.75 77.2,-278.75 123.2,-278.75 123.2,-278.75 129.2,-278.75 135.2,-284.75 135.2,-290.75 135.2,-290.75 135.2,-356.25 135.2,-356.25 135.2,-362.25 129.2,-368.25 123.2,-368.25"/>
<text xml:space="preserve" text-anchor="start" x="73.2" y="-347.95" font-family="Times,serif" font-weight="bold" font-size="14.00">LowHeat</text>
<text xml:space="preserve" text-anchor="start" x="73.2" y="-322.75" font-family="Times,serif" font-size="10.00">$&gt;()</text>
<text xml:space="preserve" text-anchor="start" x="73.2" y="-311.5" font-family="Times,serif" font-size="10.00">tick()</text>
<text xml:space="preserve" text-anchor="start" x="73.2" y="-300.25" font-family="Times,serif" font-size="10.00">status()</text>
<text xml:space="preserve" text-anchor="start" x="73.2" y="-289" font-family="Times,serif" font-size="10.00"> &#160;&#160;&#160;&#160;&#160;&#160;&#160;&#160;&#160;&#160;&#160;&#160;&#160;&#160;&#160;&#160;&#160;&#160;&#160;</text>
<polygon fill="#00688b" stroke="#00688b" points="65.2,-337.75 65.2,-337.75 135.2,-337.75 135.2,-337.75 65.2,-337.75"/>
<path fill="none" stroke="#00688b" d="M77.2,-278.75C77.2,-278.75 123.2,-278.75 123.2,-278.75 129.2,-278.75 135.2,-284.75 135.2,-290.75 135.2,-290.75 135.2,-356.25 135.2,-356.25 135.2,-362.25 129.2,-368.25 123.2,-368.25 123.2,-368.25 77.2,-368.25 77.2,-368.25 71.2,-368.25 65.2,-362.25 65.2,-356.25 65.2,-356.25 65.2,-290.75 65.2,-290.75 65.2,-284.75 71.2,-278.75 77.2,-278.75"/>
</g>
<!-- Off&#45;&gt;LowHeat -->
<g id="edge2" class="edge">
<title>Off&#45;&gt;LowHeat</title>
<path fill="none" stroke="red" d="M206.25,-78.14C233.17,-126.02 267.77,-208.35 225.2,-260.75 202.89,-288.22 178.15,-264.62 145.45,-276.48"/>
<polygon fill="red" stroke="red" points="143.96,-273.31 136.42,-280.74 146.95,-279.64 143.96,-273.31"/>
<text xml:space="preserve" text-anchor="middle" x="273.69" y="-176.45" font-family="Times,serif" font-size="14.00"> set_temp </text>
</g>
<!-- On -->
<g id="node3" class="node">
<title>On</title>
<ellipse fill="azure" stroke="#00688b" cx="182.2" cy="-323.5" rx="0.36" ry="0.36"/>
</g>
<!-- Cooling -->
<g id="node7" class="node">
<title>Cooling</title>
<path fill="azure" stroke="none" d="M200.7,-226.25C200.7,-226.25 163.7,-226.25 163.7,-226.25 157.7,-226.25 151.7,-220.25 151.7,-214.25 151.7,-214.25 151.7,-148.75 151.7,-148.75 151.7,-142.75 157.7,-136.75 163.7,-136.75 163.7,-136.75 200.7,-136.75 200.7,-136.75 206.7,-136.75 212.7,-142.75 212.7,-148.75 212.7,-148.75 212.7,-214.25 212.7,-214.25 212.7,-220.25 206.7,-226.25 200.7,-226.25"/>
<text xml:space="preserve" text-anchor="start" x="159.7" y="-205.95" font-family="Times,serif" font-weight="bold" font-size="14.00">Cooling</text>
<text xml:space="preserve" text-anchor="start" x="159.7" y="-180.75" font-family="Times,serif" font-size="10.00">$&gt;()</text>
<text xml:space="preserve" text-anchor="start" x="159.7" y="-169.5" font-family="Times,serif" font-size="10.00">tick()</text>
<text xml:space="preserve" text-anchor="start" x="159.7" y="-158.25" font-family="Times,serif" font-size="10.00">status()</text>
<text xml:space="preserve" text-anchor="start" x="159.7" y="-147" font-family="Times,serif" font-size="10.00"> &#160;&#160;&#160;&#160;&#160;&#160;&#160;&#160;&#160;&#160;&#160;&#160;&#160;&#160;&#160;</text>
<polygon fill="#00688b" stroke="#00688b" points="151.7,-195.75 151.7,-195.75 212.7,-195.75 212.7,-195.75 151.7,-195.75"/>
<path fill="none" stroke="#00688b" d="M163.7,-136.75C163.7,-136.75 200.7,-136.75 200.7,-136.75 206.7,-136.75 212.7,-142.75 212.7,-148.75 212.7,-148.75 212.7,-214.25 212.7,-214.25 212.7,-220.25 206.7,-226.25 200.7,-226.25 200.7,-226.25 163.7,-226.25 163.7,-226.25 157.7,-226.25 151.7,-220.25 151.7,-214.25 151.7,-214.25 151.7,-148.75 151.7,-148.75 151.7,-142.75 157.7,-136.75 163.7,-136.75"/>
</g>
<!-- On&#45;&gt;Cooling -->
<g id="edge5" class="edge">
<title>On&#45;&gt;Cooling</title>
<path fill="none" stroke="red" d="M182.2,-322.4C182.2,-319.99 182.2,-275.33 182.2,-237.11"/>
<polygon fill="red" stroke="red" points="185.7,-237.54 182.2,-227.54 178.7,-237.54 185.7,-237.54"/>
<text xml:space="preserve" text-anchor="middle" x="196.07" y="-247.45" font-family="Times,serif" font-size="14.00"> tick </text>
</g>
<!-- Heating -->
<g id="node4" class="node">
<title>Heating</title>
<ellipse fill="azure" stroke="#00688b" cx="43.2" cy="-323.5" rx="0.36" ry="0.36"/>
</g>
<!-- HighHeat -->
<g id="node6" class="node">
<title>HighHeat</title>
<path fill="azure" stroke="none" d="M111.08,-226.25C111.08,-226.25 61.33,-226.25 61.33,-226.25 55.33,-226.25 49.33,-220.25 49.33,-214.25 49.33,-214.25 49.33,-148.75 49.33,-148.75 49.33,-142.75 55.33,-136.75 61.33,-136.75 61.33,-136.75 111.08,-136.75 111.08,-136.75 117.08,-136.75 123.08,-142.75 123.08,-148.75 123.08,-148.75 123.08,-214.25 123.08,-214.25 123.08,-220.25 117.08,-226.25 111.08,-226.25"/>
<text xml:space="preserve" text-anchor="start" x="57.33" y="-205.95" font-family="Times,serif" font-weight="bold" font-size="14.00">HighHeat</text>
<text xml:space="preserve" text-anchor="start" x="57.33" y="-180.75" font-family="Times,serif" font-size="10.00">$&gt;()</text>
<text xml:space="preserve" text-anchor="start" x="57.33" y="-169.5" font-family="Times,serif" font-size="10.00">tick()</text>
<text xml:space="preserve" text-anchor="start" x="57.33" y="-158.25" font-family="Times,serif" font-size="10.00">status()</text>
<text xml:space="preserve" text-anchor="start" x="57.33" y="-147" font-family="Times,serif" font-size="10.00"> &#160;&#160;&#160;&#160;&#160;&#160;&#160;&#160;&#160;&#160;&#160;&#160;&#160;&#160;&#160;&#160;&#160;&#160;&#160;</text>
<polygon fill="#00688b" stroke="#00688b" points="49.33,-195.75 49.33,-195.75 123.08,-195.75 123.08,-195.75 49.33,-195.75"/>
<path fill="none" stroke="#00688b" d="M61.33,-136.75C61.33,-136.75 111.08,-136.75 111.08,-136.75 117.08,-136.75 123.08,-142.75 123.08,-148.75 123.08,-148.75 123.08,-214.25 123.08,-214.25 123.08,-220.25 117.08,-226.25 111.08,-226.25 111.08,-226.25 61.33,-226.25 61.33,-226.25 55.33,-226.25 49.33,-220.25 49.33,-214.25 49.33,-214.25 49.33,-148.75 49.33,-148.75 49.33,-142.75 55.33,-136.75 61.33,-136.75"/>
</g>
<!-- LowHeat&#45;&gt;HighHeat -->
<g id="edge3" class="edge">
<title>LowHeat&#45;&gt;HighHeat</title>
<path fill="none" stroke="red" d="M65.48,-278.98C62.21,-273.12 59.39,-266.97 57.45,-260.75 55.04,-253.05 55.05,-244.99 56.53,-237.1"/>
<polygon fill="red" stroke="red" points="59.88,-238.14 59.11,-227.57 53.12,-236.31 59.88,-238.14"/>
<text xml:space="preserve" text-anchor="middle" x="71.33" y="-247.45" font-family="Times,serif" font-size="14.00"> tick </text>
</g>
<!-- HighHeat&#45;&gt;LowHeat -->
<g id="edge4" class="edge">
<title>HighHeat&#45;&gt;LowHeat</title>
<path fill="none" stroke="red" d="M87,-226.03C87.48,-237.36 88.25,-249.53 89.45,-260.75 89.7,-263.07 89.98,-265.44 90.29,-267.83"/>
<polygon fill="red" stroke="red" points="86.81,-268.18 91.69,-277.58 93.74,-267.19 86.81,-268.18"/>
<text xml:space="preserve" text-anchor="middle" x="103.33" y="-247.45" font-family="Times,serif" font-size="14.00"> tick </text>
</g>
<!-- Cooling&#45;&gt;Off -->
<g id="edge6" class="edge">
<title>Cooling&#45;&gt;Off</title>
<path fill="none" stroke="red" d="M182.2,-136.85C182.2,-121.85 182.2,-104.94 182.2,-89.51"/>
<polygon fill="red" stroke="red" points="185.7,-89.57 182.2,-79.57 178.7,-89.57 185.7,-89.57"/>
<text xml:space="preserve" text-anchor="middle" x="196.07" y="-99.45" font-family="Times,serif" font-size="14.00"> tick </text>
</g>
</g>
</svg>
