<?xml version="1.0" encoding="UTF-8" standalone="no"?>
<!DOCTYPE svg PUBLIC "-//W3C//DTD SVG 1.1//EN"
 "http://www.w3.org/Graphics/SVG/1.1/DTD/svg11.dtd">
<!-- Generated by graphviz version 14.1.5 (20260411.2331)
 -->
<!-- Title: Deployer Pages: 1 -->
<svg width="110pt" height="573pt"
 viewBox="0.00 0.00 110.00 573.00" xmlns="http://www.w3.org/2000/svg" xmlns:xlink="http://www.w3.org/1999/xlink">
<g id="graph0" class="graph" transform="scale(1 1) rotate(0) translate(4 569.08)">
<title>Deployer</title>
<polygon fill="white" stroke="none" points="-4,4 -4,-569.08 106.43,-569.08 106.43,4 -4,4"/>
<!-- Entry -->
<g id="node1" class="node">
<title>Entry</title>
<ellipse fill="black" stroke="#00688b" cx="47.75" cy="-553.42" rx="7.2" ry="7.2"/>
</g>
<!-- Ready -->
<g id="node2" class="node">
<title>Ready</title>
<path fill="azure" stroke="none" d="M83.5,-504.75C83.5,-504.75 12,-504.75 12,-504.75 6,-504.75 0,-498.75 0,-492.75 0,-492.75 0,-405.5 0,-405.5 0,-399.5 6,-393.5 12,-393.5 12,-393.5 83.5,-393.5 83.5,-393.5 89.5,-393.5 95.5,-399.5 95.5,-405.5 95.5,-405.5 95.5,-492.75 95.5,-492.75 95.5,-498.75 89.5,-504.75 83.5,-504.75"/>
<text xml:space="preserve" text-anchor="start" x="29.38" y="-484.45" font-family="Times,serif" font-weight="bold" font-size="14.00">Ready</text>
<text xml:space="preserve" text-anchor="start" x="8" y="-459.25" font-family="Times,serif" font-size="10.00">deploy(version: str)</text>
<text xml:space="preserve" text-anchor="start" x="8" y="-448" font-family="Times,serif" font-size="10.00">status()</text>
<text xml:space="preserve" text-anchor="start" x="34.25" y="-436.75" font-family="Times,serif" font-size="10.00"> &#160;&#160;&#160;&#160;&#160;&#160;&#160;&#160;&#160;&#160;&#160;</text>
<text xml:space="preserve" text-anchor="start" x="8" y="-414.25" font-family="Times,serif" font-size="9.00" fill="#666666">version: str</text>
<text xml:space="preserve" text-anchor="start" x="14.38" y="-403.75" font-family="Times,serif" font-size="9.00" fill="#666666"> &#160;&#160;&#160;&#160;&#160;&#160;&#160;&#160;&#160;&#160;&#160;</text>
<polygon fill="#00688b" stroke="#00688b" points="0,-474.25 0,-474.25 95.5,-474.25 95.5,-474.25 0,-474.25"/>
<polygon fill="#00688b" stroke="#00688b" points="0,-428.5 0,-428.5 95.5,-428.5 95.5,-428.5 0,-428.5"/>
<path fill="none" stroke="#00688b" d="M12,-393.5C12,-393.5 83.5,-393.5 83.5,-393.5 89.5,-393.5 95.5,-399.5 95.5,-405.5 95.5,-405.5 95.5,-492.75 95.5,-492.75 95.5,-498.75 89.5,-504.75 83.5,-504.75 83.5,-504.75 12,-504.75 12,-504.75 6,-504.75 0,-498.75 0,-492.75 0,-492.75 0,-405.5 0,-405.5 0,-399.5 6,-393.5 12,-393.5"/>
</g>
<!-- Entry&#45;&gt;Ready -->
<g id="edge1" class="edge">
<title>Entry&#45;&gt;Ready</title>
<path fill="none" stroke="red" d="M47.75,-546.02C47.75,-539.35 47.75,-528.16 47.75,-515.73"/>
<polygon fill="red" stroke="red" points="51.25,-516.08 47.75,-506.08 44.25,-516.08 51.25,-516.08"/>
</g>
<!-- Deploying -->
<g id="node3" class="node">
<title>Deploying</title>
<path fill="azure" stroke="none" d="M73,-341C73,-341 22.5,-341 22.5,-341 16.5,-341 10.5,-335 10.5,-329 10.5,-329 10.5,-198.25 10.5,-198.25 10.5,-192.25 16.5,-186.25 22.5,-186.25 22.5,-186.25 73,-186.25 73,-186.25 79,-186.25 85,-192.25 85,-198.25 85,-198.25 85,-329 85,-329 85,-335 79,-341 73,-341"/>
<text xml:space="preserve" text-anchor="start" x="18.5" y="-320.7" font-family="Times,serif" font-weight="bold" font-size="14.00">Deploying</text>
<text xml:space="preserve" text-anchor="start" x="18.5" y="-295.5" font-family="Times,serif" font-size="10.00">$&gt;()</text>
<text xml:space="preserve" text-anchor="start" x="18.5" y="-284.25" font-family="Times,serif" font-size="10.00">verify()</text>
<text xml:space="preserve" text-anchor="start" x="18.5" y="-273" font-family="Times,serif" font-size="10.00">rollback()</text>
<text xml:space="preserve" text-anchor="start" x="18.5" y="-261.75" font-family="Times,serif" font-size="10.00">status()</text>
<text xml:space="preserve" text-anchor="start" x="24.88" y="-250.5" font-family="Times,serif" font-size="10.00"> &#160;&#160;&#160;&#160;&#160;&#160;&#160;&#160;&#160;&#160;&#160;</text>
<text xml:space="preserve" text-anchor="start" x="18.5" y="-228" font-family="Times,serif" font-size="9.00" fill="#666666">version: str</text>
<text xml:space="preserve" text-anchor="start" x="18.5" y="-217.5" font-family="Times,serif" font-size="9.00" fill="#666666">step: int</text>
<text xml:space="preserve" text-anchor="start" x="18.5" y="-207" font-family="Times,serif" font-size="9.00" fill="#666666">steps: list</text>
<text xml:space="preserve" text-anchor="start" x="24.88" y="-196.5" font-family="Times,serif" font-size="9.00" fill="#666666"> &#160;&#160;&#160;&#160;&#160;&#160;&#160;&#160;&#160;&#160;&#160;</text>
<polygon fill="#00688b" stroke="#00688b" points="10.5,-310.5 10.5,-310.5 85,-310.5 85,-310.5 10.5,-310.5"/>
<polygon fill="#00688b" stroke="#00688b" points="10.5,-242.25 10.5,-242.25 85,-242.25 85,-242.25 10.5,-242.25"/>
<path fill="none" stroke="#00688b" d="M22.5,-186.25C22.5,-186.25 73,-186.25 73,-186.25 79,-186.25 85,-192.25 85,-198.25 85,-198.25 85,-329 85,-329 85,-335 79,-341 73,-341 73,-341 22.5,-341 22.5,-341 16.5,-341 10.5,-335 10.5,-329 10.5,-329 10.5,-198.25 10.5,-198.25 10.5,-192.25 16.5,-186.25 22.5,-186.25"/>
</g>
<!-- Ready&#45;&gt;Deploying -->
<g id="edge2" class="edge">
<title>Ready&#45;&gt;Deploying</title>
<path fill="none" stroke="red" d="M47.75,-393.57C47.75,-380.48 47.75,-366.17 47.75,-352.01"/>
<polygon fill="red" stroke="red" points="51.25,-352.22 47.75,-342.22 44.25,-352.22 51.25,-352.22"/>
<text xml:space="preserve" text-anchor="middle" x="69.88" y="-362.2" font-family="Times,serif" font-size="14.00"> deploy </text>
</g>
<!-- Live -->
<g id="node4" class="node">
<title>Live</title>
<path fill="azure" stroke="none" d="M83.5,-133.75C83.5,-133.75 12,-133.75 12,-133.75 6,-133.75 0,-127.75 0,-121.75 0,-121.75 0,-12 0,-12 0,-6 6,0 12,0 12,0 83.5,0 83.5,0 89.5,0 95.5,-6 95.5,-12 95.5,-12 95.5,-121.75 95.5,-121.75 95.5,-127.75 89.5,-133.75 83.5,-133.75"/>
<text xml:space="preserve" text-anchor="start" x="35" y="-113.45" font-family="Times,serif" font-weight="bold" font-size="14.00">Live</text>
<text xml:space="preserve" text-anchor="start" x="8" y="-88.25" font-family="Times,serif" font-size="10.00">$&gt;()</text>
<text xml:space="preserve" text-anchor="start" x="8" y="-77" font-family="Times,serif" font-size="10.00">deploy(version: str)</text>
<text xml:space="preserve" text-anchor="start" x="8" y="-65.75" font-family="Times,serif" font-size="10.00">rollback()</text>
<text xml:space="preserve" text-anchor="start" x="8" y="-54.5" font-family="Times,serif" font-size="10.00">status()</text>
<text xml:space="preserve" text-anchor="start" x="34.25" y="-43.25" font-family="Times,serif" font-size="10.00"> &#160;&#160;&#160;&#160;&#160;&#160;&#160;&#160;&#160;&#160;&#160;</text>
<text xml:space="preserve" text-anchor="start" x="8" y="-20.75" font-family="Times,serif" font-size="9.00" fill="#666666">version: str</text>
<text xml:space="preserve" text-anchor="start" x="14.38" y="-10.25" font-family="Times,serif" font-size="9.00" fill="#666666"> &#160;&#160;&#160;&#160;&#160;&#160;&#160;&#160;&#160;&#160;&#160;</text>
<polygon fill="#00688b" stroke="#00688b" points="0,-103.25 0,-103.25 95.5,-103.25 95.5,-103.25 0,-103.25"/>
<polygon fill="#00688b" stroke="#00688b" points="0,-35 0,-35 95.5,-35 95.5,-35 0,-35"/>
<path fill="none" stroke="#00688b" d="M12,0C12,0 83.5,0 83.5,0 89.5,0 95.5,-6 95.5,-12 95.5,-12 95.5,-121.75 95.5,-121.75 95.5,-127.75 89.5,-133.75 83.5,-133.75 83.5,-133.75 12,-133.75 12,-133.75 6,-133.75 0,-127.75 0,-121.75 0,-121.75 0,-12 0,-12 0,-6 6,0 12,0"/>
</g>
<!-- Deploying&#45;&gt;Live -->
<g id="edge3" class="edge">
<title>Deploying&#45;&gt;Live</title>
<path fill="none" stroke="red" d="M18.32,-186.39C16.49,-174.86 16.06,-163.04 18,-151.75 18.4,-149.43 18.86,-147.09 19.36,-144.74"/>
<polygon fill="red" stroke="red" points="22.73,-145.72 21.7,-135.17 15.93,-144.05 22.73,-145.72"/>
<text xml:space="preserve" text-anchor="middle" x="37.88" y="-154.95" font-family="Times,serif" font-size="14.00"> verify </text>
</g>
<!-- Live&#45;&gt;Deploying -->
<g id="edge4" class="edge">
<title>Live&#45;&gt;Deploying</title>
<path fill="none" stroke="red" d="M56.35,-133.74C56.92,-139.82 57.4,-145.89 57.75,-151.75 58.2,-159.27 58.28,-167.07 58.09,-174.89"/>
<polygon fill="red" stroke="red" points="54.59,-174.68 57.7,-184.81 61.59,-174.96 54.59,-174.68"/>
<text xml:space="preserve" text-anchor="middle" x="80.31" y="-154.95" font-family="Times,serif" font-size="14.00"> deploy </text>
</g>
<!-- Stack -->
<g id="node5" class="node">
<title>Stack</title>
<ellipse fill="azure" stroke="#00688b" cx="84.75" cy="-553.42" rx="11.67" ry="11.67"/>
<text xml:space="preserve" text-anchor="middle" x="84.75" y="-548.37" font-family="Times,serif" font-size="14.00">H*</text>
</g>
</g>
</svg>
