<?xml version="1.0" encoding="UTF-8" standalone="no"?>
<!DOCTYPE svg PUBLIC "-//W3C//DTD SVG 1.1//EN"
 "http://www.w3.org/Graphics/SVG/1.1/DTD/svg11.dtd">
<!-- Generated by graphviz version 14.1.5 (20260411.2331)
 -->
<!-- Title: Deployer Pages: 1 -->
<svg width="179pt" height="640pt"
 viewBox="0.00 0.00 179.00 640.00" xmlns="http://www.w3.org/2000/svg" xmlns:xlink="http://www.w3.org/1999/xlink">
<g id="graph0" class="graph" transform="scale(1 1) rotate(0) translate(4 635.98)">
<title>Deployer</title>
<polygon fill="white" stroke="none" points="-4,4 -4,-635.98 174.62,-635.98 174.62,4 -4,4"/>
<!-- Entry -->
<g id="node1" class="node">
<title>Entry</title>
<ellipse fill="black" stroke="#00688b" cx="72.75" cy="-624.78" rx="7.2" ry="7.2"/>
</g>
<!-- Ready -->
<g id="node2" class="node">
<title>Ready</title>
<path fill="azure" stroke="none" d="M108.5,-580.58C108.5,-580.58 37,-580.58 37,-580.58 31,-580.58 25,-574.58 25,-568.58 25,-568.58 25,-481.33 25,-481.33 25,-475.33 31,-469.33 37,-469.33 37,-469.33 108.5,-469.33 108.5,-469.33 114.5,-469.33 120.5,-475.33 120.5,-481.33 120.5,-481.33 120.5,-568.58 120.5,-568.58 120.5,-574.58 114.5,-580.58 108.5,-580.58"/>
<text xml:space="preserve" text-anchor="start" x="54.38" y="-560.28" font-family="Times,serif" font-weight="bold" font-size="14.00">Ready</text>
<text xml:space="preserve" text-anchor="start" x="33" y="-535.08" font-family="Times,serif" font-size="10.00">deploy(version: str)</text>
<text xml:space="preserve" text-anchor="start" x="33" y="-523.83" font-family="Times,serif" font-size="10.00">status()</text>
<text xml:space="preserve" text-anchor="start" x="59.25" y="-512.58" font-family="Times,serif" font-size="10.00"> &#160;&#160;&#160;&#160;&#160;&#160;&#160;&#160;&#160;&#160;&#160;</text>
<text xml:space="preserve" text-anchor="start" x="33" y="-490.08" font-family="Times,serif" font-size="9.00" fill="#666666">version: str</text>
<text xml:space="preserve" text-anchor="start" x="39.38" y="-479.58" font-family="Times,serif" font-size="9.00" fill="#666666"> &#160;&#160;&#160;&#160;&#160;&#160;&#160;&#160;&#160;&#160;&#160;</text>
<polygon fill="#00688b" stroke="#00688b" points="25,-550.08 25,-550.08 120.5,-550.08 120.5,-550.08 25,-550.08"/>
<polygon fill="#00688b" stroke="#00688b" points="25,-504.33 25,-504.33 120.5,-504.33 120.5,-504.33 25,-504.33"/>
<path fill="none" stroke="#00688b" d="M37,-469.33C37,-469.33 108.5,-469.33 108.5,-469.33 114.5,-469.33 120.5,-475.33 120.5,-481.33 120.5,-481.33 120.5,-568.58 120.5,-568.58 120.5,-574.58 114.5,-580.58 108.5,-580.58 108.5,-580.58 37,-580.58 37,-580.58 31,-580.58 25,-574.58 25,-568.58 25,-568.58 25,-481.33 25,-481.33 25,-475.33 31,-469.33 37,-469.33"/>
</g>
<!-- Entry&#45;&gt;Ready -->
<g id="edge1" class="edge">
<title>Entry&#45;&gt;Ready</title>
<path fill="none" stroke="red" d="M72.75,-617.37C72.75,-611.5 72.75,-602.15 72.75,-591.62"/>
<polygon fill="red" stroke="red" points="76.25,-591.84 72.75,-581.84 69.25,-591.84 76.25,-591.84"/>
</g>
<!-- Deploying -->
<g id="node3" class="node">
<title>Deploying</title>
<path fill="azure" stroke="none" d="M98,-416.83C98,-416.83 47.5,-416.83 47.5,-416.83 41.5,-416.83 35.5,-410.83 35.5,-404.83 35.5,-404.83 35.5,-274.08 35.5,-274.08 35.5,-268.08 41.5,-262.08 47.5,-262.08 47.5,-262.08 98,-262.08 98,-262.08 104,-262.08 110,-268.08 110,-274.08 110,-274.08 110,-404.83 110,-404.83 110,-410.83 104,-416.83 98,-416.83"/>
<text xml:space="preserve" text-anchor="start" x="43.5" y="-396.53" font-family="Times,serif" font-weight="bold" font-size="14.00">Deploying</text>
<text xml:space="preserve" text-anchor="start" x="43.5" y="-371.33" font-family="Times,serif" font-size="10.00">$&gt;()</text>
<text xml:space="preserve" text-anchor="start" x="43.5" y="-360.08" font-family="Times,serif" font-size="10.00">verify()</text>
<text xml:space="preserve" text-anchor="start" x="43.5" y="-348.83" font-family="Times,serif" font-size="10.00">rollback()</text>
<text xml:space="preserve" text-anchor="start" x="43.5" y="-337.58" font-family="Times,serif" font-size="10.00">status()</text>
<text xml:space="preserve" text-anchor="start" x="49.88" y="-326.33" font-family="Times,serif" font-size="10.00"> &#160;&#160;&#160;&#160;&#160;&#160;&#160;&#160;&#160;&#160;&#160;</text>
<text xml:space="preserve" text-anchor="start" x="43.5" y="-303.83" font-family="Times,serif" font-size="9.00" fill="#666666">version: str</text>
<text xml:space="preserve" text-anchor="start" x="43.5" y="-293.33" font-family="Times,serif" font-size="9.00" fill="#666666">step: int</text>
<text xml:space="preserve" text-anchor="start" x="43.5" y="-282.83" font-family="Times,serif" font-size="9.00" fill="#666666">steps: list</text>
<text xml:space="preserve" text-anchor="start" x="49.88" y="-272.33" font-family="Times,serif" font-size="9.00" fill="#666666"> &#160;&#160;&#160;&#160;&#160;&#160;&#160;&#160;&#160;&#160;&#160;</text>
<polygon fill="#00688b" stroke="#00688b" points="35.5,-386.33 35.5,-386.33 110,-386.33 110,-386.33 35.5,-386.33"/>
<polygon fill="#00688b" stroke="#00688b" points="35.5,-318.08 35.5,-318.08 110,-318.08 110,-318.08 35.5,-318.08"/>
<path fill="none" stroke="#00688b" d="M47.5,-262.08C47.5,-262.08 98,-262.08 98,-262.08 104,-262.08 110,-268.08 110,-274.08 110,-274.08 110,-404.83 110,-404.83 110,-410.83 104,-416.83 98,-416.83 98,-416.83 47.5,-416.83 47.5,-416.83 41.5,-416.83 35.5,-410.83 35.5,-404.83 35.5,-404.83 35.5,-274.08 35.5,-274.08 35.5,-268.08 41.5,-262.08 47.5,-262.08"/>
</g>
<!-- Ready&#45;&gt;Deploying -->
<g id="edge2" class="edge">
<title>Ready&#45;&gt;Deploying</title>
<path fill="none" stroke="red" d="M72.75,-469.4C72.75,-456.31 72.75,-442.01 72.75,-427.85"/>
<polygon fill="red" stroke="red" points="76.25,-428.06 72.75,-418.06 69.25,-428.06 76.25,-428.06"/>
<text xml:space="preserve" text-anchor="middle" x="94.88" y="-438.03" font-family="Times,serif" font-size="14.00"> deploy </text>
</g>
<!-- Live -->
<g id="node4" class="node">
<title>Live</title>
<path fill="azure" stroke="none" d="M83.5,-209.58C83.5,-209.58 12,-209.58 12,-209.58 6,-209.58 0,-203.58 0,-197.58 0,-197.58 0,-87.83 0,-87.83 0,-81.83 6,-75.83 12,-75.83 12,-75.83 83.5,-75.83 83.5,-75.83 89.5,-75.83 95.5,-81.83 95.5,-87.83 95.5,-87.83 95.5,-197.58 95.5,-197.58 95.5,-203.58 89.5,-209.58 83.5,-209.58"/>
<text xml:space="preserve" text-anchor="start" x="35" y="-189.28" font-family="Times,serif" font-weight="bold" font-size="14.00">Live</text>
<text xml:space="preserve" text-anchor="start" x="8" y="-164.08" font-family="Times,serif" font-size="10.00">$&gt;()</text>
<text xml:space="preserve" text-anchor="start" x="8" y="-152.83" font-family="Times,serif" font-size="10.00">deploy(version: str)</text>
<text xml:space="preserve" text-anchor="start" x="8" y="-141.58" font-family="Times,serif" font-size="10.00">rollback()</text>
<text xml:space="preserve" text-anchor="start" x="8" y="-130.33" font-family="Times,serif" font-size="10.00">status()</text>
<text xml:space="preserve" text-anchor="start" x="34.25" y="-119.08" font-family="Times,serif" font-size="10.00"> &#160;&#160;&#160;&#160;&#160;&#160;&#160;&#160;&#160;&#160;&#160;</text>
<text xml:space="preserve" text-anchor="start" x="8" y="-96.58" font-family="Times,serif" font-size="9.00" fill="#666666">version: str</text>
<text xml:space="preserve" text-anchor="start" x="14.38" y="-86.08" font-family="Times,serif" font-size="9.00" fill="#666666"> &#160;&#160;&#160;&#160;&#160;&#160;&#160;&#160;&#160;&#160;&#160;</text>
<polygon fill="#00688b" stroke="#00688b" points="0,-179.08 0,-179.08 95.5,-179.08 95.5,-179.08 0,-179.08"/>
<polygon fill="#00688b" stroke="#00688b" points="0,-110.83 0,-110.83 95.5,-110.83 95.5,-110.83 0,-110.83"/>
<path fill="none" stroke="#00688b" d="M12,-75.83C12,-75.83 83.5,-75.83 83.5,-75.83 89.5,-75.83 95.5,-81.83 95.5,-87.83 95.5,-87.83 95.5,-197.58 95.5,-197.58 95.5,-203.58 89.5,-209.58 83.5,-209.58 83.5,-209.58 12,-209.58 12,-209.58 6,-209.58 0,-203.58 0,-197.58 0,-197.58 0,-87.83 0,-87.83 0,-81.83 6,-75.83 12,-75.83"/>
</g>
<!-- Deploying&#45;&gt;Live -->
<g id="edge3" class="edge">
<title>Deploying&#45;&gt;Live</title>
<path fill="none" stroke="red" d="M35.53,-293.14C25.57,-278.39 16.15,-261.35 11,-244.08 8.71,-236.41 8.24,-228.47 9.04,-220.57"/>
<polygon fill="red" stroke="red" points="12.44,-221.41 10.69,-210.96 5.55,-220.22 12.44,-221.41"/>
<text xml:space="preserve" text-anchor="middle" x="30.88" y="-230.78" font-family="Times,serif" font-size="14.00"> verify </text>
</g>
<!-- Stack -->
<g id="node5" class="node">
<title>Stack</title>
<ellipse fill="azure" stroke="#00688b" cx="89.75" cy="-11.67" rx="11.67" ry="11.67"/>
<text xml:space="preserve" text-anchor="middle" x="89.75" y="-6.62" font-family="Times,serif" font-size="14.00">H*</text>
</g>
<!-- Deploying&#45;&gt;Stack -->
<g id="edge4" class="edge">
<title>Deploying&#45;&gt;Stack</title>
<path fill="none" stroke="red" d="M104.1,-262.33C105.91,-256.22 107.49,-250.09 108.75,-244.08 125.73,-162.97 115.75,-140.68 117.75,-57.83 117.93,-50.5 120.52,-48.13 117.75,-41.33 115.54,-35.9 111.74,-30.94 107.65,-26.72"/>
<polygon fill="red" stroke="red" points="110.16,-24.27 100.37,-20.22 105.5,-29.5 110.16,-24.27"/>
<text xml:space="preserve" text-anchor="middle" x="144.75" y="-137.66" font-family="Times,serif" font-size="14.00"> rollback </text>
</g>
<!-- Live&#45;&gt;Deploying -->
<g id="edge5" class="edge">
<title>Live&#45;&gt;Deploying</title>
<path fill="none" stroke="red" d="M56.18,-209.37C57.9,-222.79 59.74,-237.11 61.54,-251.15"/>
<polygon fill="red" stroke="red" points="58.04,-251.35 62.78,-260.83 64.98,-250.46 58.04,-251.35"/>
<text xml:space="preserve" text-anchor="middle" x="82.38" y="-230.78" font-family="Times,serif" font-size="14.00"> deploy </text>
</g>
<!-- Live&#45;&gt;Stack -->
<g id="edge6" class="edge">
<title>Live&#45;&gt;Stack</title>
<path fill="none" stroke="red" d="M54.71,-75.95C57.35,-64.09 60.99,-52.09 66,-41.33 68.03,-36.98 70.88,-32.73 73.91,-28.9"/>
<polygon fill="red" stroke="red" points="76.42,-31.35 80.43,-21.54 71.18,-26.71 76.42,-31.35"/>
<text xml:space="preserve" text-anchor="middle" x="91.88" y="-44.53" font-family="Times,serif" font-size="14.00"> rollback </text>
</g>
</g>
</svg>
