<?xml version="1.0" encoding="UTF-8" standalone="no"?>
<!DOCTYPE svg PUBLIC "-//W3C//DTD SVG 1.1//EN"
 "http://www.w3.org/Graphics/SVG/1.1/DTD/svg11.dtd">
<!-- Generated by graphviz version 14.1.5 (20260411.2331)
 -->
<!-- Title: Deployer Pages: 1 -->
<svg width="309pt" height="310pt"
 viewBox="0.00 0.00 309.00 310.00" xmlns="http://www.w3.org/2000/svg" xmlns:xlink="http://www.w3.org/1999/xlink">
<g id="graph0" class="graph" transform="scale(1 1) rotate(0) translate(4 306)">
<title>Deployer</title>
<polygon fill="white" stroke="none" points="-4,4 -4,-306 305.42,-306 305.42,4 -4,4"/>
<!-- Entry -->
<g id="node1" class="node">
<title>Entry</title>
<ellipse fill="black" stroke="#00688b" cx="47.75" cy="-224.62" rx="7.2" ry="7.2"/>
</g>
<!-- Ready -->
<g id="node2" class="node">
<title>Ready</title>
<path fill="azure" stroke="none" d="M83.5,-111.25C83.5,-111.25 12,-111.25 12,-111.25 6,-111.25 0,-105.25 0,-99.25 0,-99.25 0,-12 0,-12 0,-6 6,0 12,0 12,0 83.5,0 83.5,0 89.5,0 95.5,-6 95.5,-12 95.5,-12 95.5,-99.25 95.5,-99.25 95.5,-105.25 89.5,-111.25 83.5,-111.25"/>
<text xml:space="preserve" text-anchor="start" x="29.38" y="-90.95" font-family="Times,serif" font-weight="bold" font-size="14.00">Ready</text>
<text xml:space="preserve" text-anchor="start" x="8" y="-65.75" font-family="Times,serif" font-size="10.00">deploy(version: str)</text>
<text xml:space="preserve" text-anchor="start" x="8" y="-54.5" font-family="Times,serif" font-size="10.00">status()</text>
<text xml:space="preserve" text-anchor="start" x="34.25" y="-43.25" font-family="Times,serif" font-size="10.00"> &#160;&#160;&#160;&#160;&#160;&#160;&#160;&#160;&#160;&#160;&#160;</text>
<text xml:space="preserve" text-anchor="start" x="8" y="-20.75" font-family="Times,serif" font-size="9.00" fill="#666666">version: str</text>
<text xml:space="preserve" text-anchor="start" x="14.38" y="-10.25" font-family="Times,serif" font-size="9.00" fill="#666666"> &#160;&#160;&#160;&#160;&#160;&#160;&#160;&#160;&#160;&#160;&#160;</text>
<polygon fill="#00688b" stroke="#00688b" points="0,-80.75 0,-80.75 95.5,-80.75 95.5,-80.75 0,-80.75"/>
<polygon fill="#00688b" stroke="#00688b" points="0,-35 0,-35 95.5,-35 95.5,-35 0,-35"/>
<path fill="none" stroke="#00688b" d="M12,0C12,0 83.5,0 83.5,0 89.5,0 95.5,-6 95.5,-12 95.5,-12 95.5,-99.25 95.5,-99.25 95.5,-105.25 89.5,-111.25 83.5,-111.25 83.5,-111.25 12,-111.25 12,-111.25 6,-111.25 0,-105.25 0,-99.25 0,-99.25 0,-12 0,-12 0,-6 6,0 12,0"/>
</g>
<!-- Entry&#45;&gt;Ready -->
<g id="edge1" class="edge">
<title>Entry&#45;&gt;Ready</title>
<path fill="none" stroke="red" d="M47.75,-217.28C47.75,-201.57 47.75,-159.42 47.75,-122.24"/>
<polygon fill="red" stroke="red" points="51.25,-122.41 47.75,-112.41 44.25,-122.41 51.25,-122.41"/>
</g>
<!-- Deploying -->
<g id="node3" class="node">
<title>Deploying</title>
<path fill="azure" stroke="none" d="M135,-302C135,-302 84.5,-302 84.5,-302 78.5,-302 72.5,-296 72.5,-290 72.5,-290 72.5,-159.25 72.5,-159.25 72.5,-153.25 78.5,-147.25 84.5,-147.25 84.5,-147.25 135,-147.25 135,-147.25 141,-147.25 147,-153.25 147,-159.25 147,-159.25 147,-290 147,-290 147,-296 141,-302 135,-302"/>
<text xml:space="preserve" text-anchor="start" x="80.5" y="-281.7" font-family="Times,serif" font-weight="bold" font-size="14.00">Deploying</text>
<text xml:space="preserve" text-anchor="start" x="80.5" y="-256.5" font-family="Times,serif" font-size="10.00">$&gt;()</text>
<text xml:space="preserve" text-anchor="start" x="80.5" y="-245.25" font-family="Times,serif" font-size="10.00">verify()</text>
<text xml:space="preserve" text-anchor="start" x="80.5" y="-234" font-family="Times,serif" font-size="10.00">rollback()</text>
<text xml:space="preserve" text-anchor="start" x="80.5" y="-222.75" font-family="Times,serif" font-size="10.00">status()</text>
<text xml:space="preserve" text-anchor="start" x="86.88" y="-211.5" font-family="Times,serif" font-size="10.00"> &#160;&#160;&#160;&#160;&#160;&#160;&#160;&#160;&#160;&#160;&#160;</text>
<text xml:space="preserve" text-anchor="start" x="80.5" y="-189" font-family="Times,serif" font-size="9.00" fill="#666666">version: str</text>
<text xml:space="preserve" text-anchor="start" x="80.5" y="-178.5" font-family="Times,serif" font-size="9.00" fill="#666666">step: int</text>
<text xml:space="preserve" text-anchor="start" x="80.5" y="-168" font-family="Times,serif" font-size="9.00" fill="#666666">steps: list</text>
<text xml:space="preserve" text-anchor="start" x="86.88" y="-157.5" font-family="Times,serif" font-size="9.00" fill="#666666"> &#160;&#160;&#160;&#160;&#160;&#160;&#160;&#160;&#160;&#160;&#160;</text>
<polygon fill="#00688b" stroke="#00688b" points="72.5,-271.5 72.5,-271.5 147,-271.5 147,-271.5 72.5,-271.5"/>
<polygon fill="#00688b" stroke="#00688b" points="72.5,-203.25 72.5,-203.25 147,-203.25 147,-203.25 72.5,-203.25"/>
<path fill="none" stroke="#00688b" d="M84.5,-147.25C84.5,-147.25 135,-147.25 135,-147.25 141,-147.25 147,-153.25 147,-159.25 147,-159.25 147,-290 147,-290 147,-296 141,-302 135,-302 135,-302 84.5,-302 84.5,-302 78.5,-302 72.5,-296 72.5,-290 72.5,-290 72.5,-159.25 72.5,-159.25 72.5,-153.25 78.5,-147.25 84.5,-147.25"/>
</g>
<!-- Live -->
<g id="node4" class="node">
<title>Live</title>
<path fill="azure" stroke="none" d="M248.5,-291.5C248.5,-291.5 177,-291.5 177,-291.5 171,-291.5 165,-285.5 165,-279.5 165,-279.5 165,-169.75 165,-169.75 165,-163.75 171,-157.75 177,-157.75 177,-157.75 248.5,-157.75 248.5,-157.75 254.5,-157.75 260.5,-163.75 260.5,-169.75 260.5,-169.75 260.5,-279.5 260.5,-279.5 260.5,-285.5 254.5,-291.5 248.5,-291.5"/>
<text xml:space="preserve" text-anchor="start" x="200" y="-271.2" font-family="Times,serif" font-weight="bold" font-size="14.00">Live</text>
<text xml:space="preserve" text-anchor="start" x="173" y="-246" font-family="Times,serif" font-size="10.00">$&gt;()</text>
<text xml:space="preserve" text-anchor="start" x="173" y="-234.75" font-family="Times,serif" font-size="10.00">deploy(version: str)</text>
<text xml:space="preserve" text-anchor="start" x="173" y="-223.5" font-family="Times,serif" font-size="10.00">rollback()</text>
<text xml:space="preserve" text-anchor="start" x="173" y="-212.25" font-family="Times,serif" font-size="10.00">status()</text>
<text xml:space="preserve" text-anchor="start" x="199.25" y="-201" font-family="Times,serif" font-size="10.00"> &#160;&#160;&#160;&#160;&#160;&#160;&#160;&#160;&#160;&#160;&#160;</text>
<text xml:space="preserve" text-anchor="start" x="173" y="-178.5" font-family="Times,serif" font-size="9.00" fill="#666666">version: str</text>
<text xml:space="preserve" text-anchor="start" x="179.38" y="-168" font-family="Times,serif" font-size="9.00" fill="#666666"> &#160;&#160;&#160;&#160;&#160;&#160;&#160;&#160;&#160;&#160;&#160;</text>
<polygon fill="#00688b" stroke="#00688b" points="165,-261 165,-261 260.5,-261 260.5,-261 165,-261"/>
<polygon fill="#00688b" stroke="#00688b" points="165,-192.75 165,-192.75 260.5,-192.75 260.5,-192.75 165,-192.75"/>
<path fill="none" stroke="#00688b" d="M177,-157.75C177,-157.75 248.5,-157.75 248.5,-157.75 254.5,-157.75 260.5,-163.75 260.5,-169.75 260.5,-169.75 260.5,-279.5 260.5,-279.5 260.5,-285.5 254.5,-291.5 248.5,-291.5 248.5,-291.5 177,-291.5 177,-291.5 171,-291.5 165,-285.5 165,-279.5 165,-279.5 165,-169.75 165,-169.75 165,-163.75 171,-157.75 177,-157.75"/>
</g>
<!-- Stack -->
<g id="node5" class="node">
<title>Stack</title>
<ellipse fill="azure" stroke="#00688b" cx="289.75" cy="-224.62" rx="11.67" ry="11.67"/>
<text xml:space="preserve" text-anchor="middle" x="289.75" y="-219.57" font-family="Times,serif" font-size="14.00">H*</text>
</g>
</g>
</svg>
