<?xml version="1.0" encoding="UTF-8" standalone="no"?>
<!DOCTYPE svg PUBLIC "-//W3C//DTD SVG 1.1//EN"
 "http://www.w3.org/Graphics/SVG/1.1/DTD/svg11.dtd">
<!-- Generated by graphviz version 14.1.5 (20260411.2331)
 -->
<!-- Title: LoginManager Pages: 1 -->
<svg width="134pt" height="301pt"
 viewBox="0.00 0.00 134.00 301.00" xmlns="http://www.w3.org/2000/svg" xmlns:xlink="http://www.w3.org/1999/xlink">
<g id="graph0" class="graph" transform="scale(1 1) rotate(0) translate(4 297.4)">
<title>LoginManager</title>
<polygon fill="white" stroke="none" points="-4,4 -4,-297.4 129.5,-297.4 129.5,4 -4,4"/>
<!-- Entry -->
<g id="node1" class="node">
<title>Entry</title>
<ellipse fill="black" stroke="#00688b" cx="62.75" cy="-286.2" rx="7.2" ry="7.2"/>
</g>
<!-- EnterUsername -->
<g id="node2" class="node">
<title>EnterUsername</title>
<path fill="azure" stroke="none" d="M113.5,-242C113.5,-242 12,-242 12,-242 6,-242 0,-236 0,-230 0,-230 0,-175.75 0,-175.75 0,-169.75 6,-163.75 12,-163.75 12,-163.75 113.5,-163.75 113.5,-163.75 119.5,-163.75 125.5,-169.75 125.5,-175.75 125.5,-175.75 125.5,-230 125.5,-230 125.5,-236 119.5,-242 113.5,-242"/>
<text xml:space="preserve" text-anchor="start" x="16.62" y="-221.7" font-family="Times,serif" font-weight="bold" font-size="14.00">EnterUsername</text>
<text xml:space="preserve" text-anchor="start" x="8" y="-196.5" font-family="Times,serif" font-size="10.00">submit(field: str, value: str)</text>
<text xml:space="preserve" text-anchor="start" x="8" y="-185.25" font-family="Times,serif" font-size="10.00">cancel()</text>
<text xml:space="preserve" text-anchor="start" x="49.25" y="-174" font-family="Times,serif" font-size="10.00"> &#160;&#160;&#160;&#160;&#160;&#160;&#160;&#160;&#160;&#160;&#160;</text>
<polygon fill="#00688b" stroke="#00688b" points="0,-211.5 0,-211.5 125.5,-211.5 125.5,-211.5 0,-211.5"/>
<path fill="none" stroke="#00688b" d="M12,-163.75C12,-163.75 113.5,-163.75 113.5,-163.75 119.5,-163.75 125.5,-169.75 125.5,-175.75 125.5,-175.75 125.5,-230 125.5,-230 125.5,-236 119.5,-242 113.5,-242 113.5,-242 12,-242 12,-242 6,-242 0,-236 0,-230 0,-230 0,-175.75 0,-175.75 0,-169.75 6,-163.75 12,-163.75"/>
</g>
<!-- Entry&#45;&gt;EnterUsername -->
<g id="edge1" class="edge">
<title>Entry&#45;&gt;EnterUsername</title>
<path fill="none" stroke="red" d="M62.75,-278.54C62.75,-272.53 62.75,-263.07 62.75,-252.88"/>
<polygon fill="red" stroke="red" points="66.25,-253.19 62.75,-243.19 59.25,-253.19 66.25,-253.19"/>
</g>
<!-- EnterPassword -->
<g id="node3" class="node">
<title>EnterPassword</title>
<path fill="azure" stroke="none" d="M113.5,-111.25C113.5,-111.25 12,-111.25 12,-111.25 6,-111.25 0,-105.25 0,-99.25 0,-99.25 0,-12 0,-12 0,-6 6,0 12,0 12,0 113.5,0 113.5,0 119.5,0 125.5,-6 125.5,-12 125.5,-12 125.5,-99.25 125.5,-99.25 125.5,-105.25 119.5,-111.25 113.5,-111.25"/>
<text xml:space="preserve" text-anchor="start" x="18.5" y="-90.95" font-family="Times,serif" font-weight="bold" font-size="14.00">EnterPassword</text>
<text xml:space="preserve" text-anchor="start" x="8" y="-65.75" font-family="Times,serif" font-size="10.00">submit(field: str, value: str)</text>
<text xml:space="preserve" text-anchor="start" x="8" y="-54.5" font-family="Times,serif" font-size="10.00">cancel()</text>
<text xml:space="preserve" text-anchor="start" x="49.25" y="-43.25" font-family="Times,serif" font-size="10.00"> &#160;&#160;&#160;&#160;&#160;&#160;&#160;&#160;&#160;&#160;&#160;</text>
<text xml:space="preserve" text-anchor="start" x="8" y="-20.75" font-family="Times,serif" font-size="9.00" fill="#666666">attempts: int</text>
<text xml:space="preserve" text-anchor="start" x="15.88" y="-10.25" font-family="Times,serif" font-size="9.00" fill="#666666"> &#160;&#160;&#160;&#160;&#160;&#160;&#160;&#160;&#160;&#160;&#160;</text>
<polygon fill="#00688b" stroke="#00688b" points="0,-80.75 0,-80.75 125.5,-80.75 125.5,-80.75 0,-80.75"/>
<polygon fill="#00688b" stroke="#00688b" points="0,-35 0,-35 125.5,-35 125.5,-35 0,-35"/>
<path fill="none" stroke="#00688b" d="M12,0C12,0 113.5,0 113.5,0 119.5,0 125.5,-6 125.5,-12 125.5,-12 125.5,-99.25 125.5,-99.25 125.5,-105.25 119.5,-111.25 113.5,-111.25 113.5,-111.25 12,-111.25 12,-111.25 6,-111.25 0,-105.25 0,-99.25 0,-99.25 0,-12 0,-12 0,-6 6,0 12,0"/>
</g>
<!-- EnterUsername&#45;&gt;EnterPassword -->
<g id="edge2" class="edge">
<title>EnterUsername&#45;&gt;EnterPassword</title>
<path fill="none" stroke="red" d="M32.96,-163.83C29.7,-158.04 26.88,-151.93 25,-145.75 22.63,-137.99 22.5,-129.99 23.84,-122.12"/>
<polygon fill="red" stroke="red" points="27.2,-123.13 26.27,-112.57 20.42,-121.4 27.2,-123.13"/>
<text xml:space="preserve" text-anchor="middle" x="52.38" y="-132.45" font-family="Times,serif" font-size="14.00"> accepted </text>
</g>
<!-- EnterPassword&#45;&gt;EnterUsername -->
<g id="edge3" class="edge">
<title>EnterPassword&#45;&gt;EnterUsername</title>
<path fill="none" stroke="red" d="M79.05,-111.18C80.79,-122.57 81.41,-134.53 79.75,-145.75 79.41,-148.07 78.99,-150.43 78.51,-152.8"/>
<polygon fill="red" stroke="red" points="75.13,-151.87 76.24,-162.4 81.94,-153.47 75.13,-151.87"/>
<text xml:space="preserve" text-anchor="middle" x="101.72" y="-132.45" font-family="Times,serif" font-size="14.00"> cancel </text>
</g>
</g>
</svg>
