<?xml version="1.0" encoding="UTF-8" standalone="no"?>
<!DOCTYPE svg PUBLIC "-//W3C//DTD SVG 1.1//EN"
 "http://www.w3.org/Graphics/SVG/1.1/DTD/svg11.dtd">
<!-- Generated by graphviz version 14.1.5 (20260411.2331)
 -->
<!-- Title: SurvivalLevel Pages: 1 -->
<svg width="92pt" height="301pt"
 viewBox="0.00 0.00 92.00 301.00" xmlns="http://www.w3.org/2000/svg" xmlns:xlink="http://www.w3.org/1999/xlink">
<g id="graph0" class="graph" transform="scale(1 1) rotate(0) translate(4 296.65)">
<title>SurvivalLevel</title>
<polygon fill="white" stroke="none" points="-4,4 -4,-296.65 88.25,-296.65 88.25,4 -4,4"/>
<!-- Entry -->
<g id="node1" class="node">
<title>Entry</title>
<ellipse fill="black" stroke="#00688b" cx="42.12" cy="-285.45" rx="7.2" ry="7.2"/>
</g>
<!-- Playing -->
<g id="node2" class="node">
<title>Playing</title>
<path fill="azure" stroke="none" d="M72.25,-241.25C72.25,-241.25 12,-241.25 12,-241.25 6,-241.25 0,-235.25 0,-229.25 0,-229.25 0,-131.5 0,-131.5 0,-125.5 6,-119.5 12,-119.5 12,-119.5 72.25,-119.5 72.25,-119.5 78.25,-119.5 84.25,-125.5 84.25,-131.5 84.25,-131.5 84.25,-229.25 84.25,-229.25 84.25,-235.25 78.25,-241.25 72.25,-241.25"/>
<text xml:space="preserve" text-anchor="start" x="20.38" y="-220.95" font-family="Times,serif" font-weight="bold" font-size="14.00">Playing</text>
<text xml:space="preserve" text-anchor="start" x="8" y="-195.75" font-family="Times,serif" font-size="10.00">tick()</text>
<text xml:space="preserve" text-anchor="start" x="8" y="-184.5" font-family="Times,serif" font-size="10.00">input(action: str)</text>
<text xml:space="preserve" text-anchor="start" x="28.62" y="-173.25" font-family="Times,serif" font-size="10.00"> &#160;&#160;&#160;&#160;&#160;&#160;&#160;&#160;&#160;&#160;&#160;</text>
<text xml:space="preserve" text-anchor="start" x="8" y="-150.75" font-family="Times,serif" font-size="9.00" fill="#666666">health: int</text>
<text xml:space="preserve" text-anchor="start" x="8" y="-140.25" font-family="Times,serif" font-size="9.00" fill="#666666">score: int</text>
<text xml:space="preserve" text-anchor="start" x="11.75" y="-129.75" font-family="Times,serif" font-size="9.00" fill="#666666"> &#160;&#160;&#160;&#160;&#160;&#160;&#160;&#160;&#160;&#160;&#160;</text>
<polygon fill="#00688b" stroke="#00688b" points="0,-210.75 0,-210.75 84.25,-210.75 84.25,-210.75 0,-210.75"/>
<polygon fill="#00688b" stroke="#00688b" points="0,-165 0,-165 84.25,-165 84.25,-165 0,-165"/>
<path fill="none" stroke="#00688b" d="M12,-119.5C12,-119.5 72.25,-119.5 72.25,-119.5 78.25,-119.5 84.25,-125.5 84.25,-131.5 84.25,-131.5 84.25,-229.25 84.25,-229.25 84.25,-235.25 78.25,-241.25 72.25,-241.25 72.25,-241.25 12,-241.25 12,-241.25 6,-241.25 0,-235.25 0,-229.25 0,-229.25 0,-131.5 0,-131.5 0,-125.5 6,-119.5 12,-119.5"/>
</g>
<!-- Entry&#45;&gt;Playing -->
<g id="edge1" class="edge">
<title>Entry&#45;&gt;Playing</title>
<path fill="none" stroke="red" d="M42.12,-278C42.12,-272.18 42.12,-262.93 42.12,-252.41"/>
<polygon fill="red" stroke="red" points="45.63,-252.58 42.13,-242.58 38.63,-252.58 45.63,-252.58"/>
</g>
<!-- Lost -->
<g id="node3" class="node">
<title>Lost</title>
<path fill="azure" stroke="none" d="M57.12,-67C57.12,-67 27.12,-67 27.12,-67 21.12,-67 15.12,-61 15.12,-55 15.12,-55 15.12,-12 15.12,-12 15.12,-6 21.12,0 27.12,0 27.12,0 57.12,0 57.12,0 63.12,0 69.12,-6 69.12,-12 69.12,-12 69.12,-55 69.12,-55 69.12,-61 63.12,-67 57.12,-67"/>
<text xml:space="preserve" text-anchor="start" x="29.38" y="-46.7" font-family="Times,serif" font-weight="bold" font-size="14.00">Lost</text>
<text xml:space="preserve" text-anchor="start" x="28.62" y="-21.5" font-family="Times,serif" font-size="10.00">$&gt;()</text>
<text xml:space="preserve" text-anchor="start" x="28.62" y="-10.25" font-family="Times,serif" font-size="10.00"> &#160;&#160;&#160;&#160;&#160;&#160;&#160;&#160;&#160;&#160;&#160;</text>
<polygon fill="#00688b" stroke="#00688b" points="20.62,-36.5 20.62,-36.5 63.62,-36.5 63.62,-36.5 20.62,-36.5"/>
<path fill="none" stroke="#00688b" d="M32.62,0C32.62,0 51.62,0 51.62,0 57.62,0 63.62,-6 63.62,-12 63.62,-12 63.62,-55 63.62,-55 63.62,-61 57.62,-67 51.62,-67 51.62,-67 32.62,-67 32.62,-67 26.62,-67 20.62,-61 20.62,-55 20.62,-55 20.62,-12 20.62,-12 20.62,-6 26.62,0 32.62,0"/>
</g>
<!-- Playing&#45;&gt;Lost -->
<g id="edge2" class="edge">
<title>Playing&#45;&gt;Lost</title>
<path fill="none" stroke="red" d="M42.12,-119.61C42.12,-105.77 42.12,-91.29 42.12,-78.27"/>
<polygon fill="red" stroke="red" points="45.63,-78.31 42.13,-68.31 38.63,-78.31 45.63,-78.31"/>
<text xml:space="preserve" text-anchor="middle" x="57.5" y="-88.2" font-family="Times,serif" font-size="14.00"> died </text>
</g>
</g>
</svg>
