<?xml version="1.0" encoding="UTF-8" standalone="no"?>
<!DOCTYPE svg PUBLIC "-//W3C//DTD SVG 1.1//EN"
 "http://www.w3.org/Graphics/SVG/1.1/DTD/svg11.dtd">
<!-- Generated by graphviz version 14.1.5 (20260411.2331)
 -->
<!-- Title: Worker Pages: 1 -->
<svg width="234pt" height="418pt"
 viewBox="0.00 0.00 234.00 418.00" xmlns="http://www.w3.org/2000/svg" xmlns:xlink="http://www.w3.org/1999/xlink">
<g id="graph0" class="graph" transform="scale(1 1) rotate(0) translate(4 413.9)">
<title>Worker</title>
<polygon fill="white" stroke="none" points="-4,4 -4,-413.9 229.62,-413.9 229.62,4 -4,4"/>
<g id="clust1" class="cluster">
<title>cluster_Running</title>
<path fill="none" stroke="black" d="M20,-8C20,-8 106,-8 106,-8 112,-8 118,-14 118,-20 118,-20 118,-237 118,-237 118,-243 112,-249 106,-249 106,-249 20,-249 20,-249 14,-249 8,-243 8,-237 8,-237 8,-20 8,-20 8,-14 14,-8 20,-8"/>
<text xml:space="preserve" text-anchor="start" x="39.75" y="-228.25" font-family="Times,serif" font-size="14.00">Running</text>
<polygon fill="black" stroke="black" points="35.75,-221.5 35.75,-221.5 90.25,-221.5 90.25,-221.5 35.75,-221.5"/>
</g>
<!-- Entry -->
<g id="node1" class="node">
<title>Entry</title>
<ellipse fill="black" stroke="#00688b" cx="54" cy="-402.7" rx="7.2" ry="7.2"/>
</g>
<!-- Init -->
<g id="node2" class="node">
<title>Init</title>
<path fill="azure" stroke="none" d="M69,-358.5C69,-358.5 39,-358.5 39,-358.5 33,-358.5 27,-352.5 27,-346.5 27,-346.5 27,-303.5 27,-303.5 27,-297.5 33,-291.5 39,-291.5 39,-291.5 69,-291.5 69,-291.5 75,-291.5 81,-297.5 81,-303.5 81,-303.5 81,-346.5 81,-346.5 81,-352.5 75,-358.5 69,-358.5"/>
<text xml:space="preserve" text-anchor="start" x="43.5" y="-338.2" font-family="Times,serif" font-weight="bold" font-size="14.00">Init</text>
<text xml:space="preserve" text-anchor="start" x="40.5" y="-313" font-family="Times,serif" font-size="10.00">$&gt;()</text>
<text xml:space="preserve" text-anchor="start" x="40.5" y="-301.75" font-family="Times,serif" font-size="10.00"> &#160;&#160;&#160;&#160;&#160;&#160;&#160;&#160;&#160;&#160;&#160;</text>
<polygon fill="#00688b" stroke="#00688b" points="32.5,-328 32.5,-328 75.5,-328 75.5,-328 32.5,-328"/>
<path fill="none" stroke="#00688b" d="M44.5,-291.5C44.5,-291.5 63.5,-291.5 63.5,-291.5 69.5,-291.5 75.5,-297.5 75.5,-303.5 75.5,-303.5 75.5,-346.5 75.5,-346.5 75.5,-352.5 69.5,-358.5 63.5,-358.5 63.5,-358.5 44.5,-358.5 44.5,-358.5 38.5,-358.5 32.5,-352.5 32.5,-346.5 32.5,-346.5 32.5,-303.5 32.5,-303.5 32.5,-297.5 38.5,-291.5 44.5,-291.5"/>
</g>
<!-- Entry&#45;&gt;Init -->
<g id="edge1" class="edge">
<title>Entry&#45;&gt;Init</title>
<path fill="none" stroke="red" d="M54,-395.25C54,-389.27 54,-379.82 54,-369.8"/>
<polygon fill="red" stroke="red" points="57.5,-369.91 54,-359.91 50.5,-369.91 57.5,-369.91"/>
</g>
<!-- FetchData -->
<g id="node4" class="node">
<title>FetchData</title>
<path fill="azure" stroke="none" d="M80,-202.5C80,-202.5 28,-202.5 28,-202.5 22,-202.5 16,-196.5 16,-190.5 16,-190.5 16,-147.5 16,-147.5 16,-141.5 22,-135.5 28,-135.5 28,-135.5 80,-135.5 80,-135.5 86,-135.5 92,-141.5 92,-147.5 92,-147.5 92,-190.5 92,-190.5 92,-196.5 86,-202.5 80,-202.5"/>
<text xml:space="preserve" text-anchor="start" x="24" y="-182.2" font-family="Times,serif" font-weight="bold" font-size="14.00">FetchData</text>
<text xml:space="preserve" text-anchor="start" x="24" y="-157" font-family="Times,serif" font-size="10.00">$&gt;()</text>
<text xml:space="preserve" text-anchor="start" x="24" y="-145.75" font-family="Times,serif" font-size="10.00"> &#160;&#160;&#160;&#160;&#160;&#160;&#160;&#160;&#160;&#160;&#160;&#160;&#160;&#160;&#160;</text>
<polygon fill="#00688b" stroke="#00688b" points="16,-172 16,-172 92,-172 92,-172 16,-172"/>
<path fill="none" stroke="#00688b" d="M28,-135.5C28,-135.5 80,-135.5 80,-135.5 86,-135.5 92,-141.5 92,-147.5 92,-147.5 92,-190.5 92,-190.5 92,-196.5 86,-202.5 80,-202.5 80,-202.5 28,-202.5 28,-202.5 22,-202.5 16,-196.5 16,-190.5 16,-190.5 16,-147.5 16,-147.5 16,-141.5 22,-135.5 28,-135.5"/>
</g>
<!-- Init&#45;&gt;FetchData -->
<g id="edge2" class="edge">
<title>Init&#45;&gt;FetchData</title>
<path fill="none" stroke="red" d="M54,-291.72C54,-269.03 54,-238.41 54,-213.56"/>
<polygon fill="red" stroke="red" points="57.5,-213.75 54,-203.75 50.5,-213.75 57.5,-213.75"/>
<text xml:space="preserve" text-anchor="middle" x="65.25" y="-260.2" font-family="Times,serif" font-size="14.00"> $&gt; </text>
</g>
<!-- Running -->
<g id="node3" class="node">
<title>Running</title>
<ellipse fill="azure" stroke="#00688b" cx="110" cy="-169" rx="0.36" ry="0.36"/>
</g>
<!-- ShuttingDown -->
<g id="node6" class="node">
<title>ShuttingDown</title>
<path fill="azure" stroke="none" d="M213.62,-83C213.62,-83 138.38,-83 138.38,-83 132.38,-83 126.38,-77 126.38,-71 126.38,-71 126.38,-28 126.38,-28 126.38,-22 132.38,-16 138.38,-16 138.38,-16 213.62,-16 213.62,-16 219.62,-16 225.62,-22 225.62,-28 225.62,-28 225.62,-71 225.62,-71 225.62,-77 219.62,-83 213.62,-83"/>
<text xml:space="preserve" text-anchor="start" x="134.38" y="-62.7" font-family="Times,serif" font-weight="bold" font-size="14.00">ShuttingDown</text>
<text xml:space="preserve" text-anchor="start" x="134.38" y="-37.5" font-family="Times,serif" font-size="10.00">$&gt;()</text>
<text xml:space="preserve" text-anchor="start" x="134.38" y="-26.25" font-family="Times,serif" font-size="10.00"> &#160;&#160;&#160;&#160;&#160;&#160;&#160;&#160;&#160;&#160;&#160;</text>
<polygon fill="#00688b" stroke="#00688b" points="126.38,-52.5 126.38,-52.5 225.62,-52.5 225.62,-52.5 126.38,-52.5"/>
<path fill="none" stroke="#00688b" d="M138.38,-16C138.38,-16 213.62,-16 213.62,-16 219.62,-16 225.62,-22 225.62,-28 225.62,-28 225.62,-71 225.62,-71 225.62,-77 219.62,-83 213.62,-83 213.62,-83 138.38,-83 138.38,-83 132.38,-83 126.38,-77 126.38,-71 126.38,-71 126.38,-28 126.38,-28 126.38,-22 132.38,-16 138.38,-16"/>
</g>
<!-- Running&#45;&gt;ShuttingDown -->
<g id="edge6" class="edge">
<title>Running&#45;&gt;ShuttingDown</title>
<path fill="none" stroke="red" d="M118,-160.51C127.51,-151.22 143.3,-134.52 153,-117.5 157.23,-110.07 160.86,-101.73 163.91,-93.53"/>
<polygon fill="red" stroke="red" points="167.12,-94.94 167.08,-84.34 160.51,-92.66 167.12,-94.94"/>
<text xml:space="preserve" text-anchor="middle" x="174.88" y="-104.2" font-family="Times,serif" font-size="14.00"> quit </text>
</g>
<!-- ProcessData -->
<g id="node5" class="node">
<title>ProcessData</title>
<path fill="azure" stroke="none" d="M93.62,-83C93.62,-83 30.38,-83 30.38,-83 24.38,-83 18.38,-77 18.38,-71 18.38,-71 18.38,-28 18.38,-28 18.38,-22 24.38,-16 30.38,-16 30.38,-16 93.62,-16 93.62,-16 99.62,-16 105.62,-22 105.62,-28 105.62,-28 105.62,-71 105.62,-71 105.62,-77 99.62,-83 93.62,-83"/>
<text xml:space="preserve" text-anchor="start" x="26.38" y="-62.7" font-family="Times,serif" font-weight="bold" font-size="14.00">ProcessData</text>
<text xml:space="preserve" text-anchor="start" x="26.38" y="-37.5" font-family="Times,serif" font-size="10.00">$&gt;()</text>
<text xml:space="preserve" text-anchor="start" x="26.38" y="-26.25" font-family="Times,serif" font-size="10.00"> &#160;&#160;&#160;&#160;&#160;&#160;&#160;&#160;&#160;&#160;&#160;&#160;&#160;&#160;&#160;</text>
<polygon fill="#00688b" stroke="#00688b" points="18.38,-52.5 18.38,-52.5 105.62,-52.5 105.62,-52.5 18.38,-52.5"/>
<path fill="none" stroke="#00688b" d="M30.38,-16C30.38,-16 93.62,-16 93.62,-16 99.62,-16 105.62,-22 105.62,-28 105.62,-28 105.62,-71 105.62,-71 105.62,-77 99.62,-83 93.62,-83 93.62,-83 30.38,-83 30.38,-83 24.38,-83 18.38,-77 18.38,-71 18.38,-71 18.38,-28 18.38,-28 18.38,-22 24.38,-16 30.38,-16"/>
</g>
<!-- FetchData&#45;&gt;ProcessData -->
<g id="edge4" class="edge">
<title>FetchData&#45;&gt;ProcessData</title>
<path fill="none" stroke="red" d="M39.8,-135.67C36.64,-124.69 34.9,-112.32 37.5,-101 38.07,-98.53 38.77,-96.04 39.58,-93.56"/>
<polygon fill="red" stroke="red" points="42.83,-94.86 43.14,-84.27 36.3,-92.35 42.83,-94.86"/>
<text xml:space="preserve" text-anchor="middle" x="48.75" y="-104.2" font-family="Times,serif" font-size="14.00"> $&gt; </text>
</g>
<!-- FetchData&#45;&gt;ShuttingDown -->
<g id="edge3" class="edge">
<title>FetchData&#45;&gt;ShuttingDown</title>
<path fill="none" stroke="red" d="M87.66,-135.58C102.06,-121.71 119.03,-105.37 134.22,-90.74"/>
<polygon fill="red" stroke="red" points="136.58,-93.32 141.36,-83.86 131.73,-88.28 136.58,-93.32"/>
<text xml:space="preserve" text-anchor="middle" x="133.55" y="-104.2" font-family="Times,serif" font-size="14.00"> $&gt; </text>
</g>
<!-- ProcessData&#45;&gt;FetchData -->
<g id="edge5" class="edge">
<title>ProcessData&#45;&gt;FetchData</title>
<path fill="none" stroke="red" d="M61.61,-82.9C61.32,-93.9 60.84,-106.24 60,-117.5 59.84,-119.71 59.65,-121.98 59.44,-124.26"/>
<polygon fill="red" stroke="red" points="55.96,-123.9 58.42,-134.21 62.92,-124.62 55.96,-123.9"/>
<text xml:space="preserve" text-anchor="middle" x="72.13" y="-104.2" font-family="Times,serif" font-size="14.00"> $&gt; </text>
</g>
</g>
</svg>
