<?xml version="1.0" encoding="UTF-8" standalone="no"?>
<!DOCTYPE svg PUBLIC "-//W3C//DTD SVG 1.1//EN"
 "http://www.w3.org/Graphics/SVG/1.1/DTD/svg11.dtd">
<!-- Generated by graphviz version 14.1.5 (20260411.2331)
 -->
<!-- Title: Worker Pages: 1 -->
<svg width="298pt" height="418pt"
 viewBox="0.00 0.00 298.00 418.00" xmlns="http://www.w3.org/2000/svg" xmlns:xlink="http://www.w3.org/1999/xlink">
<g id="graph0" class="graph" transform="scale(1 1) rotate(0) translate(4 413.9)">
<title>Worker</title>
<polygon fill="white" stroke="none" points="-4,4 -4,-413.9 293.62,-413.9 293.62,4 -4,4"/>
<g id="clust1" class="cluster">
<title>cluster_Running</title>
<path fill="none" stroke="black" d="M20,-8C20,-8 163,-8 163,-8 169,-8 175,-14 175,-20 175,-20 175,-237 175,-237 175,-243 169,-249 163,-249 163,-249 20,-249 20,-249 14,-249 8,-243 8,-237 8,-237 8,-20 8,-20 8,-14 14,-8 20,-8"/>
<text xml:space="preserve" text-anchor="start" x="68.25" y="-228.25" font-family="Times,serif" font-size="14.00">Running</text>
<polygon fill="black" stroke="black" points="64.25,-221.5 64.25,-221.5 118.75,-221.5 118.75,-221.5 64.25,-221.5"/>
</g>
<!-- Entry -->
<g id="node1" class="node">
<title>Entry</title>
<ellipse fill="black" stroke="#00688b" cx="105" cy="-402.7" rx="7.2" ry="7.2"/>
</g>
<!-- Init -->
<g id="node2" class="node">
<title>Init</title>
<path fill="azure" stroke="none" d="M120,-358.5C120,-358.5 90,-358.5 90,-358.5 84,-358.5 78,-352.5 78,-346.5 78,-346.5 78,-303.5 78,-303.5 78,-297.5 84,-291.5 90,-291.5 90,-291.5 120,-291.5 120,-291.5 126,-291.5 132,-297.5 132,-303.5 132,-303.5 132,-346.5 132,-346.5 132,-352.5 126,-358.5 120,-358.5"/>
<text xml:space="preserve" text-anchor="start" x="94.5" y="-338.2" font-family="Times,serif" font-weight="bold" font-size="14.00">Init</text>
<text xml:space="preserve" text-anchor="start" x="91.5" y="-313" font-family="Times,serif" font-size="10.00">$&gt;()</text>
<text xml:space="preserve" text-anchor="start" x="91.5" y="-301.75" font-family="Times,serif" font-size="10.00"> &#160;&#160;&#160;&#160;&#160;&#160;&#160;&#160;&#160;&#160;&#160;</text>
<polygon fill="#00688b" stroke="#00688b" points="83.5,-328 83.5,-328 126.5,-328 126.5,-328 83.5,-328"/>
<path fill="none" stroke="#00688b" d="M95.5,-291.5C95.5,-291.5 114.5,-291.5 114.5,-291.5 120.5,-291.5 126.5,-297.5 126.5,-303.5 126.5,-303.5 126.5,-346.5 126.5,-346.5 126.5,-352.5 120.5,-358.5 114.5,-358.5 114.5,-358.5 95.5,-358.5 95.5,-358.5 89.5,-358.5 83.5,-352.5 83.5,-346.5 83.5,-346.5 83.5,-303.5 83.5,-303.5 83.5,-297.5 89.5,-291.5 95.5,-291.5"/>
</g>
<!-- Entry&#45;&gt;Init -->
<g id="edge1" class="edge">
<title>Entry&#45;&gt;Init</title>
<path fill="none" stroke="red" d="M105,-395.25C105,-389.27 105,-379.82 105,-369.8"/>
<polygon fill="red" stroke="red" points="108.5,-369.91 105,-359.91 101.5,-369.91 108.5,-369.91"/>
</g>
<!-- FetchData -->
<g id="node4" class="node">
<title>FetchData</title>
<path fill="azure" stroke="none" d="M131,-202.5C131,-202.5 79,-202.5 79,-202.5 73,-202.5 67,-196.5 67,-190.5 67,-190.5 67,-147.5 67,-147.5 67,-141.5 73,-135.5 79,-135.5 79,-135.5 131,-135.5 131,-135.5 137,-135.5 143,-141.5 143,-147.5 143,-147.5 143,-190.5 143,-190.5 143,-196.5 137,-202.5 131,-202.5"/>
<text xml:space="preserve" text-anchor="start" x="75" y="-182.2" font-family="Times,serif" font-weight="bold" font-size="14.00">FetchData</text>
<text xml:space="preserve" text-anchor="start" x="75" y="-157" font-family="Times,serif" font-size="10.00">$&gt;()</text>
<text xml:space="preserve" text-anchor="start" x="75" y="-145.75" font-family="Times,serif" font-size="10.00"> &#160;&#160;&#160;&#160;&#160;&#160;&#160;&#160;&#160;&#160;&#160;&#160;&#160;&#160;&#160;</text>
<polygon fill="#00688b" stroke="#00688b" points="67,-172 67,-172 143,-172 143,-172 67,-172"/>
<path fill="none" stroke="#00688b" d="M79,-135.5C79,-135.5 131,-135.5 131,-135.5 137,-135.5 143,-141.5 143,-147.5 143,-147.5 143,-190.5 143,-190.5 143,-196.5 137,-202.5 131,-202.5 131,-202.5 79,-202.5 79,-202.5 73,-202.5 67,-196.5 67,-190.5 67,-190.5 67,-147.5 67,-147.5 67,-141.5 73,-135.5 79,-135.5"/>
</g>
<!-- Init&#45;&gt;FetchData -->
<g id="edge2" class="edge">
<title>Init&#45;&gt;FetchData</title>
<path fill="none" stroke="red" d="M105,-291.72C105,-269.03 105,-238.41 105,-213.56"/>
<polygon fill="red" stroke="red" points="108.5,-213.75 105,-203.75 101.5,-213.75 108.5,-213.75"/>
<text xml:space="preserve" text-anchor="middle" x="123.75" y="-260.2" font-family="Times,serif" font-size="14.00"> begin </text>
</g>
<!-- Running -->
<g id="node3" class="node">
<title>Running</title>
<ellipse fill="azure" stroke="#00688b" cx="167" cy="-169" rx="0.36" ry="0.36"/>
</g>
<!-- ShuttingDown -->
<g id="node6" class="node">
<title>ShuttingDown</title>
<path fill="azure" stroke="none" d="M277.62,-83C277.62,-83 202.38,-83 202.38,-83 196.38,-83 190.38,-77 190.38,-71 190.38,-71 190.38,-28 190.38,-28 190.38,-22 196.38,-16 202.38,-16 202.38,-16 277.62,-16 277.62,-16 283.62,-16 289.62,-22 289.62,-28 289.62,-28 289.62,-71 289.62,-71 289.62,-77 283.62,-83 277.62,-83"/>
<text xml:space="preserve" text-anchor="start" x="198.38" y="-62.7" font-family="Times,serif" font-weight="bold" font-size="14.00">ShuttingDown</text>
<text xml:space="preserve" text-anchor="start" x="198.38" y="-37.5" font-family="Times,serif" font-size="10.00">$&gt;()</text>
<text xml:space="preserve" text-anchor="start" x="198.38" y="-26.25" font-family="Times,serif" font-size="10.00"> &#160;&#160;&#160;&#160;&#160;&#160;&#160;&#160;&#160;&#160;&#160;</text>
<polygon fill="#00688b" stroke="#00688b" points="190.38,-52.5 190.38,-52.5 289.62,-52.5 289.62,-52.5 190.38,-52.5"/>
<path fill="none" stroke="#00688b" d="M202.38,-16C202.38,-16 277.62,-16 277.62,-16 283.62,-16 289.62,-22 289.62,-28 289.62,-28 289.62,-71 289.62,-71 289.62,-77 283.62,-83 277.62,-83 277.62,-83 202.38,-83 202.38,-83 196.38,-83 190.38,-77 190.38,-71 190.38,-71 190.38,-28 190.38,-28 190.38,-22 196.38,-16 202.38,-16"/>
</g>
<!-- Running&#45;&gt;ShuttingDown -->
<g id="edge6" class="edge">
<title>Running&#45;&gt;ShuttingDown</title>
<path fill="none" stroke="red" d="M175,-163.39C187.71,-155.64 212.36,-138.72 225,-117.5 229.28,-110.32 232.34,-102.04 234.53,-93.82"/>
<polygon fill="red" stroke="red" points="237.91,-94.73 236.67,-84.2 231.08,-93.2 237.91,-94.73"/>
<text xml:space="preserve" text-anchor="middle" x="246.2" y="-104.2" font-family="Times,serif" font-size="14.00"> quit </text>
</g>
<!-- ProcessData -->
<g id="node5" class="node">
<title>ProcessData</title>
<path fill="azure" stroke="none" d="M113.62,-83C113.62,-83 50.38,-83 50.38,-83 44.38,-83 38.38,-77 38.38,-71 38.38,-71 38.38,-28 38.38,-28 38.38,-22 44.38,-16 50.38,-16 50.38,-16 113.62,-16 113.62,-16 119.62,-16 125.62,-22 125.62,-28 125.62,-28 125.62,-71 125.62,-71 125.62,-77 119.62,-83 113.62,-83"/>
<text xml:space="preserve" text-anchor="start" x="46.38" y="-62.7" font-family="Times,serif" font-weight="bold" font-size="14.00">ProcessData</text>
<text xml:space="preserve" text-anchor="start" x="46.38" y="-37.5" font-family="Times,serif" font-size="10.00">$&gt;()</text>
<text xml:space="preserve" text-anchor="start" x="46.38" y="-26.25" font-family="Times,serif" font-size="10.00"> &#160;&#160;&#160;&#160;&#160;&#160;&#160;&#160;&#160;&#160;&#160;&#160;&#160;&#160;&#160;</text>
<polygon fill="#00688b" stroke="#00688b" points="38.38,-52.5 38.38,-52.5 125.62,-52.5 125.62,-52.5 38.38,-52.5"/>
<path fill="none" stroke="#00688b" d="M50.38,-16C50.38,-16 113.62,-16 113.62,-16 119.62,-16 125.62,-22 125.62,-28 125.62,-28 125.62,-71 125.62,-71 125.62,-77 119.62,-83 113.62,-83 113.62,-83 50.38,-83 50.38,-83 44.38,-83 38.38,-77 38.38,-71 38.38,-71 38.38,-28 38.38,-28 38.38,-22 44.38,-16 50.38,-16"/>
</g>
<!-- FetchData&#45;&gt;ProcessData -->
<g id="edge4" class="edge">
<title>FetchData&#45;&gt;ProcessData</title>
<path fill="none" stroke="red" d="M67.04,-149.93C54.49,-141.89 41.96,-131.11 35,-117.5 30.68,-109.05 31.81,-100.44 35.85,-92.34"/>
<polygon fill="red" stroke="red" points="38.74,-94.32 41.23,-84.02 32.86,-90.52 38.74,-94.32"/>
<text xml:space="preserve" text-anchor="middle" x="59" y="-104.2" font-family="Times,serif" font-size="14.00"> process </text>
</g>
<!-- FetchData&#45;&gt;ShuttingDown -->
<g id="edge3" class="edge">
<title>FetchData&#45;&gt;ShuttingDown</title>
<path fill="none" stroke="red" d="M142.25,-135.58C158.33,-121.58 177.3,-105.07 194.23,-90.33"/>
<polygon fill="red" stroke="red" points="196.49,-93.01 201.73,-83.81 191.89,-87.73 196.49,-93.01"/>
<text xml:space="preserve" text-anchor="middle" x="197.46" y="-104.2" font-family="Times,serif" font-size="14.00"> done </text>
</g>
<!-- ProcessData&#45;&gt;FetchData -->
<g id="edge5" class="edge">
<title>ProcessData&#45;&gt;FetchData</title>
<path fill="none" stroke="red" d="M88.33,-82.81C90.84,-95.64 93.76,-110.6 96.46,-124.37"/>
<polygon fill="red" stroke="red" points="93.01,-124.95 98.36,-134.1 99.88,-123.61 93.01,-124.95"/>
<text xml:space="preserve" text-anchor="middle" x="125.63" y="-104.2" font-family="Times,serif" font-size="14.00"> fetch next </text>
</g>
</g>
</svg>
