<?xml version="1.0" encoding="UTF-8" standalone="no"?>
<!DOCTYPE svg PUBLIC "-//W3C//DTD SVG 1.1//EN"
 "http://www.w3.org/Graphics/SVG/1.1/DTD/svg11.dtd">
<!-- Generated by graphviz version 14.1.5 (20260411.2331)
 -->
<!-- Title: Pipeline Pages: 1 -->
<svg width="161pt" height="769pt"
 viewBox="0.00 0.00 161.00 769.00" xmlns="http://www.w3.org/2000/svg" xmlns:xlink="http://www.w3.org/1999/xlink">
<g id="graph0" class="graph" transform="scale(1 1) rotate(0) translate(4 764.9)">
<title>Pipeline</title>
<polygon fill="white" stroke="none" points="-4,4 -4,-764.9 156.5,-764.9 156.5,4 -4,4"/>
<!-- Entry -->
<g id="node1" class="node">
<title>Entry</title>
<ellipse fill="black" stroke="#00688b" cx="84.5" cy="-753.7" rx="7.2" ry="7.2"/>
</g>
<!-- Idle -->
<g id="node2" class="node">
<title>Idle</title>
<path fill="azure" stroke="none" d="M107.88,-709.5C107.88,-709.5 61.12,-709.5 61.12,-709.5 55.12,-709.5 49.12,-703.5 49.12,-697.5 49.12,-697.5 49.12,-654.5 49.12,-654.5 49.12,-648.5 55.12,-642.5 61.12,-642.5 61.12,-642.5 107.88,-642.5 107.88,-642.5 113.88,-642.5 119.88,-648.5 119.88,-654.5 119.88,-654.5 119.88,-697.5 119.88,-697.5 119.88,-703.5 113.88,-709.5 107.88,-709.5"/>
<text xml:space="preserve" text-anchor="start" x="73.25" y="-689.2" font-family="Times,serif" font-weight="bold" font-size="14.00">Idle</text>
<text xml:space="preserve" text-anchor="start" x="57.12" y="-664" font-family="Times,serif" font-size="10.00">run(data: list)</text>
<text xml:space="preserve" text-anchor="start" x="71" y="-652.75" font-family="Times,serif" font-size="10.00"> &#160;&#160;&#160;&#160;&#160;&#160;&#160;&#160;&#160;&#160;&#160;</text>
<polygon fill="#00688b" stroke="#00688b" points="49.12,-679 49.12,-679 119.88,-679 119.88,-679 49.12,-679"/>
<path fill="none" stroke="#00688b" d="M61.12,-642.5C61.12,-642.5 107.88,-642.5 107.88,-642.5 113.88,-642.5 119.88,-648.5 119.88,-654.5 119.88,-654.5 119.88,-697.5 119.88,-697.5 119.88,-703.5 113.88,-709.5 107.88,-709.5 107.88,-709.5 61.12,-709.5 61.12,-709.5 55.12,-709.5 49.12,-703.5 49.12,-697.5 49.12,-697.5 49.12,-654.5 49.12,-654.5 49.12,-648.5 55.12,-642.5 61.12,-642.5"/>
</g>
<!-- Entry&#45;&gt;Idle -->
<g id="edge1" class="edge">
<title>Entry&#45;&gt;Idle</title>
<path fill="none" stroke="red" d="M84.5,-746.25C84.5,-740.27 84.5,-730.82 84.5,-720.8"/>
<polygon fill="red" stroke="red" points="88,-720.91 84.5,-710.91 81,-720.91 88,-720.91"/>
</g>
<!-- Validate -->
<g id="node3" class="node">
<title>Validate</title>
<path fill="azure" stroke="none" d="M104.5,-590C104.5,-590 64.5,-590 64.5,-590 58.5,-590 52.5,-584 52.5,-578 52.5,-578 52.5,-535 52.5,-535 52.5,-529 58.5,-523 64.5,-523 64.5,-523 104.5,-523 104.5,-523 110.5,-523 116.5,-529 116.5,-535 116.5,-535 116.5,-578 116.5,-578 116.5,-584 110.5,-590 104.5,-590"/>
<text xml:space="preserve" text-anchor="start" x="60.5" y="-569.7" font-family="Times,serif" font-weight="bold" font-size="14.00">Validate</text>
<text xml:space="preserve" text-anchor="start" x="60.5" y="-544.5" font-family="Times,serif" font-size="10.00">$&gt;()</text>
<text xml:space="preserve" text-anchor="start" x="60.5" y="-533.25" font-family="Times,serif" font-size="10.00"> &#160;&#160;&#160;&#160;&#160;&#160;&#160;&#160;&#160;&#160;&#160;</text>
<polygon fill="#00688b" stroke="#00688b" points="52.5,-559.5 52.5,-559.5 116.5,-559.5 116.5,-559.5 52.5,-559.5"/>
<path fill="none" stroke="#00688b" d="M64.5,-523C64.5,-523 104.5,-523 104.5,-523 110.5,-523 116.5,-529 116.5,-535 116.5,-535 116.5,-578 116.5,-578 116.5,-584 110.5,-590 104.5,-590 104.5,-590 64.5,-590 64.5,-590 58.5,-590 52.5,-584 52.5,-578 52.5,-578 52.5,-535 52.5,-535 52.5,-529 58.5,-523 64.5,-523"/>
</g>
<!-- Idle&#45;&gt;Validate -->
<g id="edge2" class="edge">
<title>Idle&#45;&gt;Validate</title>
<path fill="none" stroke="red" d="M84.5,-642.58C84.5,-629.74 84.5,-614.78 84.5,-601.02"/>
<polygon fill="red" stroke="red" points="88,-601.33 84.5,-591.33 81,-601.33 88,-601.33"/>
<text xml:space="preserve" text-anchor="middle" x="97.25" y="-611.2" font-family="Times,serif" font-size="14.00"> run </text>
</g>
<!-- Normalize -->
<g id="node4" class="node">
<title>Normalize</title>
<path fill="azure" stroke="none" d="M68.88,-459.25C68.88,-459.25 16.12,-459.25 16.12,-459.25 10.12,-459.25 4.12,-453.25 4.12,-447.25 4.12,-447.25 4.12,-404.25 4.12,-404.25 4.12,-398.25 10.12,-392.25 16.12,-392.25 16.12,-392.25 68.88,-392.25 68.88,-392.25 74.88,-392.25 80.88,-398.25 80.88,-404.25 80.88,-404.25 80.88,-447.25 80.88,-447.25 80.88,-453.25 74.88,-459.25 68.88,-459.25"/>
<text xml:space="preserve" text-anchor="start" x="12.12" y="-438.95" font-family="Times,serif" font-weight="bold" font-size="14.00">Normalize</text>
<text xml:space="preserve" text-anchor="start" x="12.12" y="-413.75" font-family="Times,serif" font-size="10.00">$&gt;()</text>
<text xml:space="preserve" text-anchor="start" x="12.12" y="-402.5" font-family="Times,serif" font-size="10.00"> &#160;&#160;&#160;&#160;&#160;&#160;&#160;&#160;&#160;&#160;&#160;</text>
<polygon fill="#00688b" stroke="#00688b" points="4.12,-428.75 4.12,-428.75 80.88,-428.75 80.88,-428.75 4.12,-428.75"/>
<path fill="none" stroke="#00688b" d="M16.12,-392.25C16.12,-392.25 68.88,-392.25 68.88,-392.25 74.88,-392.25 80.88,-398.25 80.88,-404.25 80.88,-404.25 80.88,-447.25 80.88,-447.25 80.88,-453.25 74.88,-459.25 68.88,-459.25 68.88,-459.25 16.12,-459.25 16.12,-459.25 10.12,-459.25 4.12,-453.25 4.12,-447.25 4.12,-447.25 4.12,-404.25 4.12,-404.25 4.12,-398.25 10.12,-392.25 16.12,-392.25"/>
</g>
<!-- Validate&#45;&gt;Normalize -->
<g id="edge4" class="edge">
<title>Validate&#45;&gt;Normalize</title>
<path fill="none" stroke="red" d="M73.9,-523.01C68.63,-506.85 62.19,-487.1 56.51,-469.7"/>
<polygon fill="red" stroke="red" points="59.99,-469.09 53.56,-460.67 53.34,-471.26 59.99,-469.09"/>
<text xml:space="preserve" text-anchor="middle" x="78.51" y="-491.7" font-family="Times,serif" font-size="14.00"> $&gt; </text>
</g>
<!-- Error -->
<g id="node8" class="node">
<title>Error</title>
<path fill="azure" stroke="none" d="M140.5,-470.5C140.5,-470.5 110.5,-470.5 110.5,-470.5 104.5,-470.5 98.5,-464.5 98.5,-458.5 98.5,-458.5 98.5,-393 98.5,-393 98.5,-387 104.5,-381 110.5,-381 110.5,-381 140.5,-381 140.5,-381 146.5,-381 152.5,-387 152.5,-393 152.5,-393 152.5,-458.5 152.5,-458.5 152.5,-464.5 146.5,-470.5 140.5,-470.5"/>
<text xml:space="preserve" text-anchor="start" x="108.62" y="-450.2" font-family="Times,serif" font-weight="bold" font-size="14.00">Error</text>
<text xml:space="preserve" text-anchor="start" x="108.62" y="-425" font-family="Times,serif" font-size="10.00">$&gt;()</text>
<text xml:space="preserve" text-anchor="start" x="108.62" y="-413.75" font-family="Times,serif" font-size="10.00">result()</text>
<text xml:space="preserve" text-anchor="start" x="108.62" y="-402.5" font-family="Times,serif" font-size="10.00">status()</text>
<text xml:space="preserve" text-anchor="start" x="109.75" y="-391.25" font-family="Times,serif" font-size="10.00"> &#160;&#160;&#160;&#160;&#160;&#160;&#160;&#160;&#160;&#160;&#160;</text>
<polygon fill="#00688b" stroke="#00688b" points="100.62,-440 100.62,-440 150.38,-440 150.38,-440 100.62,-440"/>
<path fill="none" stroke="#00688b" d="M112.62,-381C112.62,-381 138.38,-381 138.38,-381 144.38,-381 150.38,-387 150.38,-393 150.38,-393 150.38,-458.5 150.38,-458.5 150.38,-464.5 144.38,-470.5 138.38,-470.5 138.38,-470.5 112.62,-470.5 112.62,-470.5 106.62,-470.5 100.62,-464.5 100.62,-458.5 100.62,-458.5 100.62,-393 100.62,-393 100.62,-387 106.62,-381 112.62,-381"/>
</g>
<!-- Validate&#45;&gt;Error -->
<g id="edge3" class="edge">
<title>Validate&#45;&gt;Error</title>
<path fill="none" stroke="red" d="M94.85,-523.01C98.89,-510.31 103.64,-495.39 108.18,-481.14"/>
<polygon fill="red" stroke="red" points="111.44,-482.45 111.13,-471.86 104.77,-480.33 111.44,-482.45"/>
<text xml:space="preserve" text-anchor="middle" x="116.25" y="-491.7" font-family="Times,serif" font-size="14.00"> $&gt; </text>
</g>
<!-- Deduplicate -->
<g id="node5" class="node">
<title>Deduplicate</title>
<path fill="azure" stroke="none" d="M73,-328.5C73,-328.5 12,-328.5 12,-328.5 6,-328.5 0,-322.5 0,-316.5 0,-316.5 0,-273.5 0,-273.5 0,-267.5 6,-261.5 12,-261.5 12,-261.5 73,-261.5 73,-261.5 79,-261.5 85,-267.5 85,-273.5 85,-273.5 85,-316.5 85,-316.5 85,-322.5 79,-328.5 73,-328.5"/>
<text xml:space="preserve" text-anchor="start" x="8" y="-308.2" font-family="Times,serif" font-weight="bold" font-size="14.00">Deduplicate</text>
<text xml:space="preserve" text-anchor="start" x="8" y="-283" font-family="Times,serif" font-size="10.00">$&gt;()</text>
<text xml:space="preserve" text-anchor="start" x="8" y="-271.75" font-family="Times,serif" font-size="10.00"> &#160;&#160;&#160;&#160;&#160;&#160;&#160;&#160;&#160;&#160;&#160;</text>
<polygon fill="#00688b" stroke="#00688b" points="0,-298 0,-298 85,-298 85,-298 0,-298"/>
<path fill="none" stroke="#00688b" d="M12,-261.5C12,-261.5 73,-261.5 73,-261.5 79,-261.5 85,-267.5 85,-273.5 85,-273.5 85,-316.5 85,-316.5 85,-322.5 79,-328.5 73,-328.5 73,-328.5 12,-328.5 12,-328.5 6,-328.5 0,-322.5 0,-316.5 0,-316.5 0,-273.5 0,-273.5 0,-267.5 6,-261.5 12,-261.5"/>
</g>
<!-- Normalize&#45;&gt;Deduplicate -->
<g id="edge5" class="edge">
<title>Normalize&#45;&gt;Deduplicate</title>
<path fill="none" stroke="red" d="M42.5,-392.26C42.5,-376.4 42.5,-357.09 42.5,-339.94"/>
<polygon fill="red" stroke="red" points="46,-339.99 42.5,-329.99 39,-339.99 46,-339.99"/>
<text xml:space="preserve" text-anchor="middle" x="53.75" y="-349.7" font-family="Times,serif" font-size="14.00"> $&gt; </text>
</g>
<!-- Sort -->
<g id="node6" class="node">
<title>Sort</title>
<path fill="azure" stroke="none" d="M57.5,-209C57.5,-209 27.5,-209 27.5,-209 21.5,-209 15.5,-203 15.5,-197 15.5,-197 15.5,-154 15.5,-154 15.5,-148 21.5,-142 27.5,-142 27.5,-142 57.5,-142 57.5,-142 63.5,-142 69.5,-148 69.5,-154 69.5,-154 69.5,-197 69.5,-197 69.5,-203 63.5,-209 57.5,-209"/>
<text xml:space="preserve" text-anchor="start" x="30.12" y="-188.7" font-family="Times,serif" font-weight="bold" font-size="14.00">Sort</text>
<text xml:space="preserve" text-anchor="start" x="29" y="-163.5" font-family="Times,serif" font-size="10.00">$&gt;()</text>
<text xml:space="preserve" text-anchor="start" x="29" y="-152.25" font-family="Times,serif" font-size="10.00"> &#160;&#160;&#160;&#160;&#160;&#160;&#160;&#160;&#160;&#160;&#160;</text>
<polygon fill="#00688b" stroke="#00688b" points="21,-178.5 21,-178.5 64,-178.5 64,-178.5 21,-178.5"/>
<path fill="none" stroke="#00688b" d="M33,-142C33,-142 52,-142 52,-142 58,-142 64,-148 64,-154 64,-154 64,-197 64,-197 64,-203 58,-209 52,-209 52,-209 33,-209 33,-209 27,-209 21,-203 21,-197 21,-197 21,-154 21,-154 21,-148 27,-142 33,-142"/>
</g>
<!-- Deduplicate&#45;&gt;Sort -->
<g id="edge6" class="edge">
<title>Deduplicate&#45;&gt;Sort</title>
<path fill="none" stroke="red" d="M42.5,-261.58C42.5,-248.74 42.5,-233.78 42.5,-220.02"/>
<polygon fill="red" stroke="red" points="46,-220.33 42.5,-210.33 39,-220.33 46,-220.33"/>
<text xml:space="preserve" text-anchor="middle" x="53.75" y="-230.2" font-family="Times,serif" font-size="14.00"> $&gt; </text>
</g>
<!-- Complete -->
<g id="node7" class="node">
<title>Complete</title>
<path fill="azure" stroke="none" d="M66.62,-89.5C66.62,-89.5 18.38,-89.5 18.38,-89.5 12.38,-89.5 6.38,-83.5 6.38,-77.5 6.38,-77.5 6.38,-12 6.38,-12 6.38,-6 12.38,0 18.38,0 18.38,0 66.62,0 66.62,0 72.62,0 78.62,-6 78.62,-12 78.62,-12 78.62,-77.5 78.62,-77.5 78.62,-83.5 72.62,-89.5 66.62,-89.5"/>
<text xml:space="preserve" text-anchor="start" x="14.38" y="-69.2" font-family="Times,serif" font-weight="bold" font-size="14.00">Complete</text>
<text xml:space="preserve" text-anchor="start" x="14.38" y="-44" font-family="Times,serif" font-size="10.00">$&gt;()</text>
<text xml:space="preserve" text-anchor="start" x="14.38" y="-32.75" font-family="Times,serif" font-size="10.00">result()</text>
<text xml:space="preserve" text-anchor="start" x="14.38" y="-21.5" font-family="Times,serif" font-size="10.00">status()</text>
<text xml:space="preserve" text-anchor="start" x="15.5" y="-10.25" font-family="Times,serif" font-size="10.00"> &#160;&#160;&#160;&#160;&#160;&#160;&#160;&#160;&#160;&#160;&#160;</text>
<polygon fill="#00688b" stroke="#00688b" points="6.38,-59 6.38,-59 78.62,-59 78.62,-59 6.38,-59"/>
<path fill="none" stroke="#00688b" d="M18.38,0C18.38,0 66.62,0 66.62,0 72.62,0 78.62,-6 78.62,-12 78.62,-12 78.62,-77.5 78.62,-77.5 78.62,-83.5 72.62,-89.5 66.62,-89.5 66.62,-89.5 18.38,-89.5 18.38,-89.5 12.38,-89.5 6.38,-83.5 6.38,-77.5 6.38,-77.5 6.38,-12 6.38,-12 6.38,-6 12.38,0 18.38,0"/>
</g>
<!-- Sort&#45;&gt;Complete -->
<g id="edge7" class="edge">
<title>Sort&#45;&gt;Complete</title>
<path fill="none" stroke="red" d="M42.5,-142.01C42.5,-129.43 42.5,-114.68 42.5,-100.56"/>
<polygon fill="red" stroke="red" points="46,-100.93 42.5,-90.93 39,-100.93 46,-100.93"/>
<text xml:space="preserve" text-anchor="middle" x="53.75" y="-110.7" font-family="Times,serif" font-size="14.00"> $&gt; </text>
</g>
</g>
</svg>
