<?xml version="1.0" encoding="UTF-8" standalone="no"?>
<!DOCTYPE svg PUBLIC "-//W3C//DTD SVG 1.1//EN"
 "http://www.w3.org/Graphics/SVG/1.1/DTD/svg11.dtd">
<!-- Generated by graphviz version 14.1.5 (20260411.2331)
 -->
<!-- Title: TrafficLight Pages: 1 -->
<svg width="249pt" height="618pt"
 viewBox="0.00 0.00 249.00 618.00" xmlns="http://www.w3.org/2000/svg" xmlns:xlink="http://www.w3.org/1999/xlink">
<g id="graph0" class="graph" transform="scale(1 1) rotate(0) translate(4 613.65)">
<title>TrafficLight</title>
<polygon fill="white" stroke="none" points="-4,4 -4,-613.65 245.06,-613.65 245.06,4 -4,4"/>
<!-- Entry -->
<g id="node1" class="node">
<title>Entry</title>
<ellipse fill="black" stroke="#00688b" cx="115.04" cy="-602.45" rx="7.2" ry="7.2"/>
</g>
<!-- Green -->
<g id="node2" class="node">
<title>Green</title>
<path fill="azure" stroke="none" d="M136.16,-558.25C136.16,-558.25 93.91,-558.25 93.91,-558.25 87.91,-558.25 81.91,-552.25 81.91,-546.25 81.91,-546.25 81.91,-459 81.91,-459 81.91,-453 87.91,-447 93.91,-447 93.91,-447 136.16,-447 136.16,-447 142.16,-447 148.16,-453 148.16,-459 148.16,-459 148.16,-546.25 148.16,-546.25 148.16,-552.25 142.16,-558.25 136.16,-558.25"/>
<text xml:space="preserve" text-anchor="start" x="96.66" y="-537.95" font-family="Times,serif" font-weight="bold" font-size="14.00">Green</text>
<text xml:space="preserve" text-anchor="start" x="89.91" y="-512.75" font-family="Times,serif" font-size="10.00">next()</text>
<text xml:space="preserve" text-anchor="start" x="89.91" y="-501.5" font-family="Times,serif" font-size="10.00">emergency()</text>
<text xml:space="preserve" text-anchor="start" x="101.54" y="-490.25" font-family="Times,serif" font-size="10.00"> &#160;&#160;&#160;&#160;&#160;&#160;&#160;&#160;&#160;&#160;&#160;</text>
<text xml:space="preserve" text-anchor="start" x="89.91" y="-467.75" font-family="Times,serif" font-size="9.00" fill="#666666">ticks: int</text>
<text xml:space="preserve" text-anchor="start" x="91.41" y="-457.25" font-family="Times,serif" font-size="9.00" fill="#666666"> &#160;&#160;&#160;&#160;&#160;&#160;&#160;&#160;&#160;&#160;&#160;</text>
<polygon fill="#00688b" stroke="#00688b" points="81.91,-527.75 81.91,-527.75 148.16,-527.75 148.16,-527.75 81.91,-527.75"/>
<polygon fill="#00688b" stroke="#00688b" points="81.91,-482 81.91,-482 148.16,-482 148.16,-482 81.91,-482"/>
<path fill="none" stroke="#00688b" d="M93.91,-447C93.91,-447 136.16,-447 136.16,-447 142.16,-447 148.16,-453 148.16,-459 148.16,-459 148.16,-546.25 148.16,-546.25 148.16,-552.25 142.16,-558.25 136.16,-558.25 136.16,-558.25 93.91,-558.25 93.91,-558.25 87.91,-558.25 81.91,-552.25 81.91,-546.25 81.91,-546.25 81.91,-459 81.91,-459 81.91,-453 87.91,-447 93.91,-447"/>
</g>
<!-- Entry&#45;&gt;Green -->
<g id="edge1" class="edge">
<title>Entry&#45;&gt;Green</title>
<path fill="none" stroke="red" d="M115.04,-595.03C115.04,-589.16 115.04,-579.81 115.04,-569.29"/>
<polygon fill="red" stroke="red" points="118.54,-569.5 115.04,-559.5 111.54,-569.5 118.54,-569.5"/>
</g>
<!-- Yellow -->
<g id="node3" class="node">
<title>Yellow</title>
<path fill="azure" stroke="none" d="M67.16,-394.5C67.16,-394.5 24.91,-394.5 24.91,-394.5 18.91,-394.5 12.91,-388.5 12.91,-382.5 12.91,-382.5 12.91,-295.25 12.91,-295.25 12.91,-289.25 18.91,-283.25 24.91,-283.25 24.91,-283.25 67.16,-283.25 67.16,-283.25 73.16,-283.25 79.16,-289.25 79.16,-295.25 79.16,-295.25 79.16,-382.5 79.16,-382.5 79.16,-388.5 73.16,-394.5 67.16,-394.5"/>
<text xml:space="preserve" text-anchor="start" x="26.91" y="-374.2" font-family="Times,serif" font-weight="bold" font-size="14.00">Yellow</text>
<text xml:space="preserve" text-anchor="start" x="20.91" y="-349" font-family="Times,serif" font-size="10.00">next()</text>
<text xml:space="preserve" text-anchor="start" x="20.91" y="-337.75" font-family="Times,serif" font-size="10.00">emergency()</text>
<text xml:space="preserve" text-anchor="start" x="32.54" y="-326.5" font-family="Times,serif" font-size="10.00"> &#160;&#160;&#160;&#160;&#160;&#160;&#160;&#160;&#160;&#160;&#160;</text>
<text xml:space="preserve" text-anchor="start" x="20.91" y="-304" font-family="Times,serif" font-size="9.00" fill="#666666">ticks: int</text>
<text xml:space="preserve" text-anchor="start" x="22.41" y="-293.5" font-family="Times,serif" font-size="9.00" fill="#666666"> &#160;&#160;&#160;&#160;&#160;&#160;&#160;&#160;&#160;&#160;&#160;</text>
<polygon fill="#00688b" stroke="#00688b" points="12.91,-364 12.91,-364 79.16,-364 79.16,-364 12.91,-364"/>
<polygon fill="#00688b" stroke="#00688b" points="12.91,-318.25 12.91,-318.25 79.16,-318.25 79.16,-318.25 12.91,-318.25"/>
<path fill="none" stroke="#00688b" d="M24.91,-283.25C24.91,-283.25 67.16,-283.25 67.16,-283.25 73.16,-283.25 79.16,-289.25 79.16,-295.25 79.16,-295.25 79.16,-382.5 79.16,-382.5 79.16,-388.5 73.16,-394.5 67.16,-394.5 67.16,-394.5 24.91,-394.5 24.91,-394.5 18.91,-394.5 12.91,-388.5 12.91,-382.5 12.91,-382.5 12.91,-295.25 12.91,-295.25 12.91,-289.25 18.91,-283.25 24.91,-283.25"/>
</g>
<!-- Green&#45;&gt;Yellow -->
<g id="edge2" class="edge">
<title>Green&#45;&gt;Yellow</title>
<path fill="none" stroke="red" d="M82.07,-471.72C70.88,-459.61 59.57,-444.78 53.04,-429 50.01,-421.69 47.91,-413.76 46.49,-405.74"/>
<polygon fill="red" stroke="red" points="49.97,-405.32 45.12,-395.9 43.04,-406.29 49.97,-405.32"/>
<text xml:space="preserve" text-anchor="middle" x="77.04" y="-415.7" font-family="Times,serif" font-size="14.00"> expired </text>
</g>
<!-- EmergencyRed -->
<g id="node5" class="node">
<title>EmergencyRed</title>
<path fill="azure" stroke="none" d="M121.66,-67C121.66,-67 40.41,-67 40.41,-67 34.41,-67 28.41,-61 28.41,-55 28.41,-55 28.41,-12 28.41,-12 28.41,-6 34.41,0 40.41,0 40.41,0 121.66,0 121.66,0 127.66,0 133.66,-6 133.66,-12 133.66,-12 133.66,-55 133.66,-55 133.66,-61 127.66,-67 121.66,-67"/>
<text xml:space="preserve" text-anchor="start" x="36.41" y="-46.7" font-family="Times,serif" font-weight="bold" font-size="14.00">EmergencyRed</text>
<text xml:space="preserve" text-anchor="start" x="36.41" y="-21.5" font-family="Times,serif" font-size="10.00">resume()</text>
<text xml:space="preserve" text-anchor="start" x="40.16" y="-10.25" font-family="Times,serif" font-size="10.00"> &#160;&#160;&#160;&#160;&#160;&#160;&#160;&#160;&#160;&#160;&#160;</text>
<polygon fill="#00688b" stroke="#00688b" points="28.41,-36.5 28.41,-36.5 133.66,-36.5 133.66,-36.5 28.41,-36.5"/>
<path fill="none" stroke="#00688b" d="M40.41,0C40.41,0 121.66,0 121.66,0 127.66,0 133.66,-6 133.66,-12 133.66,-12 133.66,-55 133.66,-55 133.66,-61 127.66,-67 121.66,-67 121.66,-67 40.41,-67 40.41,-67 34.41,-67 28.41,-61 28.41,-55 28.41,-55 28.41,-12 28.41,-12 28.41,-6 34.41,0 40.41,0"/>
</g>
<!-- Green&#45;&gt;EmergencyRed -->
<g id="edge3" class="edge">
<title>Green&#45;&gt;EmergencyRed</title>
<path fill="none" stroke="red" d="M148.1,-448.19C156.65,-431.6 164.68,-412.84 169.04,-394.5 181.59,-341.74 168.18,-99.09 160.04,-85 155.57,-77.27 149.4,-70.53 142.45,-64.72"/>
<polygon fill="red" stroke="red" points="144.6,-61.96 134.51,-58.75 140.4,-67.56 144.6,-61.96"/>
<text xml:space="preserve" text-anchor="middle" x="207.31" y="-251.95" font-family="Times,serif" font-size="14.00"> emergency </text>
</g>
<!-- Red -->
<g id="node4" class="node">
<title>Red</title>
<path fill="azure" stroke="none" d="M139.16,-230.75C139.16,-230.75 96.91,-230.75 96.91,-230.75 90.91,-230.75 84.91,-224.75 84.91,-218.75 84.91,-218.75 84.91,-131.5 84.91,-131.5 84.91,-125.5 90.91,-119.5 96.91,-119.5 96.91,-119.5 139.16,-119.5 139.16,-119.5 145.16,-119.5 151.16,-125.5 151.16,-131.5 151.16,-131.5 151.16,-218.75 151.16,-218.75 151.16,-224.75 145.16,-230.75 139.16,-230.75"/>
<text xml:space="preserve" text-anchor="start" x="106.41" y="-210.45" font-family="Times,serif" font-weight="bold" font-size="14.00">Red</text>
<text xml:space="preserve" text-anchor="start" x="92.91" y="-185.25" font-family="Times,serif" font-size="10.00">next()</text>
<text xml:space="preserve" text-anchor="start" x="92.91" y="-174" font-family="Times,serif" font-size="10.00">emergency()</text>
<text xml:space="preserve" text-anchor="start" x="104.54" y="-162.75" font-family="Times,serif" font-size="10.00"> &#160;&#160;&#160;&#160;&#160;&#160;&#160;&#160;&#160;&#160;&#160;</text>
<text xml:space="preserve" text-anchor="start" x="92.91" y="-140.25" font-family="Times,serif" font-size="9.00" fill="#666666">ticks: int</text>
<text xml:space="preserve" text-anchor="start" x="94.41" y="-129.75" font-family="Times,serif" font-size="9.00" fill="#666666"> &#160;&#160;&#160;&#160;&#160;&#160;&#160;&#160;&#160;&#160;&#160;</text>
<polygon fill="#00688b" stroke="#00688b" points="84.91,-200.25 84.91,-200.25 151.16,-200.25 151.16,-200.25 84.91,-200.25"/>
<polygon fill="#00688b" stroke="#00688b" points="84.91,-154.5 84.91,-154.5 151.16,-154.5 151.16,-154.5 84.91,-154.5"/>
<path fill="none" stroke="#00688b" d="M96.91,-119.5C96.91,-119.5 139.16,-119.5 139.16,-119.5 145.16,-119.5 151.16,-125.5 151.16,-131.5 151.16,-131.5 151.16,-218.75 151.16,-218.75 151.16,-224.75 145.16,-230.75 139.16,-230.75 139.16,-230.75 96.91,-230.75 96.91,-230.75 90.91,-230.75 84.91,-224.75 84.91,-218.75 84.91,-218.75 84.91,-131.5 84.91,-131.5 84.91,-125.5 90.91,-119.5 96.91,-119.5"/>
</g>
<!-- Yellow&#45;&gt;Red -->
<g id="edge4" class="edge">
<title>Yellow&#45;&gt;Red</title>
<path fill="none" stroke="red" d="M44.23,-283.54C45.48,-271.67 48.1,-259.46 53.04,-248.75 57.77,-238.48 63.34,-239.04 71.04,-230.75 73.19,-228.43 75.38,-226.03 77.57,-223.6"/>
<polygon fill="red" stroke="red" points="79.98,-226.16 84.01,-216.36 74.75,-221.51 79.98,-226.16"/>
<text xml:space="preserve" text-anchor="middle" x="77.04" y="-251.95" font-family="Times,serif" font-size="14.00"> expired </text>
</g>
<!-- Yellow&#45;&gt;EmergencyRed -->
<g id="edge5" class="edge">
<title>Yellow&#45;&gt;EmergencyRed</title>
<path fill="none" stroke="red" d="M23.03,-283.49C17.09,-266.87 11.53,-248.33 8.54,-230.75 0.25,-182 -5.06,-167.04 8.54,-119.5 13.27,-102.98 23.4,-87.71 34.64,-74.81"/>
<polygon fill="red" stroke="red" points="36.9,-77.52 41.11,-67.8 31.76,-72.77 36.9,-77.52"/>
<text xml:space="preserve" text-anchor="middle" x="42.29" y="-170.07" font-family="Times,serif" font-size="14.00"> emergency </text>
</g>
<!-- Red&#45;&gt;Green -->
<g id="edge6" class="edge">
<title>Red&#45;&gt;Green</title>
<path fill="none" stroke="red" d="M117.54,-230.51C117.02,-287.01 116.2,-375.44 115.65,-435.83"/>
<polygon fill="red" stroke="red" points="112.15,-435.6 115.56,-445.63 119.15,-435.66 112.15,-435.6"/>
<text xml:space="preserve" text-anchor="middle" x="141.03" y="-333.82" font-family="Times,serif" font-size="14.00"> expired </text>
</g>
<!-- Red&#45;&gt;EmergencyRed -->
<g id="edge7" class="edge">
<title>Red&#45;&gt;EmergencyRed</title>
<path fill="none" stroke="red" d="M84.92,-132.27C80.49,-127.71 75.82,-123.34 71.04,-119.5 57.86,-108.92 46.21,-116.01 37.54,-101.5 32.68,-93.38 33.51,-84.82 37.33,-76.64"/>
<polygon fill="red" stroke="red" points="40.26,-78.55 42.51,-68.2 34.29,-74.9 40.26,-78.55"/>
<text xml:space="preserve" text-anchor="middle" x="71.29" y="-88.2" font-family="Times,serif" font-size="14.00"> emergency </text>
</g>
<!-- EmergencyRed&#45;&gt;Red -->
<g id="edge8" class="edge">
<title>EmergencyRed&#45;&gt;Red</title>
<path fill="none" stroke="red" d="M98.13,-66.8C100.76,-72.73 103.21,-78.96 105.04,-85 107.32,-92.53 109.21,-100.54 110.77,-108.55"/>
<polygon fill="red" stroke="red" points="107.31,-109.1 112.5,-118.34 114.2,-107.88 107.31,-109.1"/>
<text xml:space="preserve" text-anchor="middle" x="132.42" y="-88.2" font-family="Times,serif" font-size="14.00"> resume </text>
</g>
</g>
</svg>
