<?xml version="1.0" encoding="UTF-8" standalone="no"?>
<!DOCTYPE svg PUBLIC "-//W3C//DTD SVG 1.1//EN"
 "http://www.w3.org/Graphics/SVG/1.1/DTD/svg11.dtd">
<!-- Generated by graphviz version 14.1.5 (20260411.2331)
 -->
<!-- Title: TrafficLight Pages: 1 -->
<svg width="243pt" height="618pt"
 viewBox="0.00 0.00 243.00 618.00" xmlns="http://www.w3.org/2000/svg" xmlns:xlink="http://www.w3.org/1999/xlink">
<g id="graph0" class="graph" transform="scale(1 1) rotate(0) translate(4 613.65)">
<title>TrafficLight</title>
<polygon fill="white" stroke="none" points="-4,4 -4,-613.65 238.97,-613.65 238.97,4 -4,4"/>
<!-- Entry -->
<g id="node1" class="node">
<title>Entry</title>
<ellipse fill="black" stroke="#00688b" cx="118.68" cy="-602.45" rx="7.2" ry="7.2"/>
</g>
<!-- Green -->
<g id="node2" class="node">
<title>Green</title>
<path fill="azure" stroke="none" d="M139.8,-558.25C139.8,-558.25 97.55,-558.25 97.55,-558.25 91.55,-558.25 85.55,-552.25 85.55,-546.25 85.55,-546.25 85.55,-459 85.55,-459 85.55,-453 91.55,-447 97.55,-447 97.55,-447 139.8,-447 139.8,-447 145.8,-447 151.8,-453 151.8,-459 151.8,-459 151.8,-546.25 151.8,-546.25 151.8,-552.25 145.8,-558.25 139.8,-558.25"/>
<text xml:space="preserve" text-anchor="start" x="100.3" y="-537.95" font-family="Times,serif" font-weight="bold" font-size="14.00">Green</text>
<text xml:space="preserve" text-anchor="start" x="93.55" y="-512.75" font-family="Times,serif" font-size="10.00">next()</text>
<text xml:space="preserve" text-anchor="start" x="93.55" y="-501.5" font-family="Times,serif" font-size="10.00">emergency()</text>
<text xml:space="preserve" text-anchor="start" x="105.18" y="-490.25" font-family="Times,serif" font-size="10.00"> &#160;&#160;&#160;&#160;&#160;&#160;&#160;&#160;&#160;&#160;&#160;</text>
<text xml:space="preserve" text-anchor="start" x="93.55" y="-467.75" font-family="Times,serif" font-size="9.00" fill="#666666">ticks: int</text>
<text xml:space="preserve" text-anchor="start" x="95.05" y="-457.25" font-family="Times,serif" font-size="9.00" fill="#666666"> &#160;&#160;&#160;&#160;&#160;&#160;&#160;&#160;&#160;&#160;&#160;</text>
<polygon fill="#00688b" stroke="#00688b" points="85.55,-527.75 85.55,-527.75 151.8,-527.75 151.8,-527.75 85.55,-527.75"/>
<polygon fill="#00688b" stroke="#00688b" points="85.55,-482 85.55,-482 151.8,-482 151.8,-482 85.55,-482"/>
<path fill="none" stroke="#00688b" d="M97.55,-447C97.55,-447 139.8,-447 139.8,-447 145.8,-447 151.8,-453 151.8,-459 151.8,-459 151.8,-546.25 151.8,-546.25 151.8,-552.25 145.8,-558.25 139.8,-558.25 139.8,-558.25 97.55,-558.25 97.55,-558.25 91.55,-558.25 85.55,-552.25 85.55,-546.25 85.55,-546.25 85.55,-459 85.55,-459 85.55,-453 91.55,-447 97.55,-447"/>
</g>
<!-- Entry&#45;&gt;Green -->
<g id="edge1" class="edge">
<title>Entry&#45;&gt;Green</title>
<path fill="none" stroke="red" d="M118.68,-595.03C118.68,-589.16 118.68,-579.81 118.68,-569.29"/>
<polygon fill="red" stroke="red" points="122.18,-569.5 118.68,-559.5 115.18,-569.5 122.18,-569.5"/>
</g>
<!-- Yellow -->
<g id="node3" class="node">
<title>Yellow</title>
<path fill="azure" stroke="none" d="M70.8,-394.5C70.8,-394.5 28.55,-394.5 28.55,-394.5 22.55,-394.5 16.55,-388.5 16.55,-382.5 16.55,-382.5 16.55,-295.25 16.55,-295.25 16.55,-289.25 22.55,-283.25 28.55,-283.25 28.55,-283.25 70.8,-283.25 70.8,-283.25 76.8,-283.25 82.8,-289.25 82.8,-295.25 82.8,-295.25 82.8,-382.5 82.8,-382.5 82.8,-388.5 76.8,-394.5 70.8,-394.5"/>
<text xml:space="preserve" text-anchor="start" x="30.55" y="-374.2" font-family="Times,serif" font-weight="bold" font-size="14.00">Yellow</text>
<text xml:space="preserve" text-anchor="start" x="24.55" y="-349" font-family="Times,serif" font-size="10.00">next()</text>
<text xml:space="preserve" text-anchor="start" x="24.55" y="-337.75" font-family="Times,serif" font-size="10.00">emergency()</text>
<text xml:space="preserve" text-anchor="start" x="36.18" y="-326.5" font-family="Times,serif" font-size="10.00"> &#160;&#160;&#160;&#160;&#160;&#160;&#160;&#160;&#160;&#160;&#160;</text>
<text xml:space="preserve" text-anchor="start" x="24.55" y="-304" font-family="Times,serif" font-size="9.00" fill="#666666">ticks: int</text>
<text xml:space="preserve" text-anchor="start" x="26.05" y="-293.5" font-family="Times,serif" font-size="9.00" fill="#666666"> &#160;&#160;&#160;&#160;&#160;&#160;&#160;&#160;&#160;&#160;&#160;</text>
<polygon fill="#00688b" stroke="#00688b" points="16.55,-364 16.55,-364 82.8,-364 82.8,-364 16.55,-364"/>
<polygon fill="#00688b" stroke="#00688b" points="16.55,-318.25 16.55,-318.25 82.8,-318.25 82.8,-318.25 16.55,-318.25"/>
<path fill="none" stroke="#00688b" d="M28.55,-283.25C28.55,-283.25 70.8,-283.25 70.8,-283.25 76.8,-283.25 82.8,-289.25 82.8,-295.25 82.8,-295.25 82.8,-382.5 82.8,-382.5 82.8,-388.5 76.8,-394.5 70.8,-394.5 70.8,-394.5 28.55,-394.5 28.55,-394.5 22.55,-394.5 16.55,-388.5 16.55,-382.5 16.55,-382.5 16.55,-295.25 16.55,-295.25 16.55,-289.25 22.55,-283.25 28.55,-283.25"/>
</g>
<!-- Green&#45;&gt;Yellow -->
<g id="edge2" class="edge">
<title>Green&#45;&gt;Yellow</title>
<path fill="none" stroke="red" d="M85.68,-452.24C81.36,-444.64 77.28,-436.75 73.93,-429 70.68,-421.51 67.77,-413.48 65.18,-405.42"/>
<polygon fill="red" stroke="red" points="68.55,-404.46 62.3,-395.9 61.85,-406.49 68.55,-404.46"/>
<text xml:space="preserve" text-anchor="middle" x="89.3" y="-415.7" font-family="Times,serif" font-size="14.00"> next </text>
</g>
<!-- EmergencyRed -->
<g id="node5" class="node">
<title>EmergencyRed</title>
<path fill="azure" stroke="none" d="M113.3,-67C113.3,-67 32.05,-67 32.05,-67 26.05,-67 20.05,-61 20.05,-55 20.05,-55 20.05,-12 20.05,-12 20.05,-6 26.05,0 32.05,0 32.05,0 113.3,0 113.3,0 119.3,0 125.3,-6 125.3,-12 125.3,-12 125.3,-55 125.3,-55 125.3,-61 119.3,-67 113.3,-67"/>
<text xml:space="preserve" text-anchor="start" x="28.05" y="-46.7" font-family="Times,serif" font-weight="bold" font-size="14.00">EmergencyRed</text>
<text xml:space="preserve" text-anchor="start" x="28.05" y="-21.5" font-family="Times,serif" font-size="10.00">resume()</text>
<text xml:space="preserve" text-anchor="start" x="31.8" y="-10.25" font-family="Times,serif" font-size="10.00"> &#160;&#160;&#160;&#160;&#160;&#160;&#160;&#160;&#160;&#160;&#160;</text>
<polygon fill="#00688b" stroke="#00688b" points="20.05,-36.5 20.05,-36.5 125.3,-36.5 125.3,-36.5 20.05,-36.5"/>
<path fill="none" stroke="#00688b" d="M32.05,0C32.05,0 113.3,0 113.3,0 119.3,0 125.3,-6 125.3,-12 125.3,-12 125.3,-55 125.3,-55 125.3,-61 119.3,-67 113.3,-67 113.3,-67 32.05,-67 32.05,-67 26.05,-67 20.05,-61 20.05,-55 20.05,-55 20.05,-12 20.05,-12 20.05,-6 26.05,0 32.05,0"/>
</g>
<!-- Green&#45;&gt;EmergencyRed -->
<g id="edge3" class="edge">
<title>Green&#45;&gt;EmergencyRed</title>
<path fill="none" stroke="red" d="M139.14,-447.01C144.52,-430.38 149.65,-411.9 152.68,-394.5 173.6,-274.05 169.19,-241.3 158.68,-119.5 157.34,-103.99 161.33,-97.93 152.68,-85 147.73,-77.61 141.3,-71.09 134.23,-65.4"/>
<polygon fill="red" stroke="red" points="136.35,-62.61 126.22,-59.52 132.21,-68.26 136.35,-62.61"/>
<text xml:space="preserve" text-anchor="middle" x="201.22" y="-251.95" font-family="Times,serif" font-size="14.00"> emergency </text>
</g>
<!-- Red -->
<g id="node4" class="node">
<title>Red</title>
<path fill="azure" stroke="none" d="M137.8,-230.75C137.8,-230.75 95.55,-230.75 95.55,-230.75 89.55,-230.75 83.55,-224.75 83.55,-218.75 83.55,-218.75 83.55,-131.5 83.55,-131.5 83.55,-125.5 89.55,-119.5 95.55,-119.5 95.55,-119.5 137.8,-119.5 137.8,-119.5 143.8,-119.5 149.8,-125.5 149.8,-131.5 149.8,-131.5 149.8,-218.75 149.8,-218.75 149.8,-224.75 143.8,-230.75 137.8,-230.75"/>
<text xml:space="preserve" text-anchor="start" x="105.05" y="-210.45" font-family="Times,serif" font-weight="bold" font-size="14.00">Red</text>
<text xml:space="preserve" text-anchor="start" x="91.55" y="-185.25" font-family="Times,serif" font-size="10.00">next()</text>
<text xml:space="preserve" text-anchor="start" x="91.55" y="-174" font-family="Times,serif" font-size="10.00">emergency()</text>
<text xml:space="preserve" text-anchor="start" x="103.18" y="-162.75" font-family="Times,serif" font-size="10.00"> &#160;&#160;&#160;&#160;&#160;&#160;&#160;&#160;&#160;&#160;&#160;</text>
<text xml:space="preserve" text-anchor="start" x="91.55" y="-140.25" font-family="Times,serif" font-size="9.00" fill="#666666">ticks: int</text>
<text xml:space="preserve" text-anchor="start" x="93.05" y="-129.75" font-family="Times,serif" font-size="9.00" fill="#666666"> &#160;&#160;&#160;&#160;&#160;&#160;&#160;&#160;&#160;&#160;&#160;</text>
<polygon fill="#00688b" stroke="#00688b" points="83.55,-200.25 83.55,-200.25 149.8,-200.25 149.8,-200.25 83.55,-200.25"/>
<polygon fill="#00688b" stroke="#00688b" points="83.55,-154.5 83.55,-154.5 149.8,-154.5 149.8,-154.5 83.55,-154.5"/>
<path fill="none" stroke="#00688b" d="M95.55,-119.5C95.55,-119.5 137.8,-119.5 137.8,-119.5 143.8,-119.5 149.8,-125.5 149.8,-131.5 149.8,-131.5 149.8,-218.75 149.8,-218.75 149.8,-224.75 143.8,-230.75 137.8,-230.75 137.8,-230.75 95.55,-230.75 95.55,-230.75 89.55,-230.75 83.55,-224.75 83.55,-218.75 83.55,-218.75 83.55,-131.5 83.55,-131.5 83.55,-125.5 89.55,-119.5 95.55,-119.5"/>
</g>
<!-- Yellow&#45;&gt;Red -->
<g id="edge4" class="edge">
<title>Yellow&#45;&gt;Red</title>
<path fill="none" stroke="red" d="M62.03,-283.37C65.35,-271.75 69.32,-259.68 73.93,-248.75 75.35,-245.38 76.9,-241.97 78.54,-238.57"/>
<polygon fill="red" stroke="red" points="81.6,-240.27 83.01,-229.77 75.36,-237.1 81.6,-240.27"/>
<text xml:space="preserve" text-anchor="middle" x="89.3" y="-251.95" font-family="Times,serif" font-size="14.00"> next </text>
</g>
<!-- Yellow&#45;&gt;EmergencyRed -->
<g id="edge5" class="edge">
<title>Yellow&#45;&gt;EmergencyRed</title>
<path fill="none" stroke="red" d="M23.5,-283.47C16.81,-266.93 10.56,-248.44 7.18,-230.75 -2.11,-182.18 -2.6,-167.97 7.18,-119.5 10.46,-103.2 12.37,-98.78 21.68,-85 23.87,-81.75 26.29,-78.54 28.86,-75.4"/>
<polygon fill="red" stroke="red" points="31.44,-77.77 35.39,-67.94 26.17,-73.16 31.44,-77.77"/>
<text xml:space="preserve" text-anchor="middle" x="40.93" y="-170.07" font-family="Times,serif" font-size="14.00"> emergency </text>
</g>
<!-- Red&#45;&gt;Green -->
<g id="edge6" class="edge">
<title>Red&#45;&gt;Green</title>
<path fill="none" stroke="red" d="M117.01,-230.51C117.36,-287.01 117.9,-375.44 118.27,-435.83"/>
<polygon fill="red" stroke="red" points="114.77,-435.65 118.33,-445.63 121.77,-435.61 114.77,-435.65"/>
<text xml:space="preserve" text-anchor="middle" x="133.38" y="-333.82" font-family="Times,serif" font-size="14.00"> next </text>
</g>
<!-- Red&#45;&gt;EmergencyRed -->
<g id="edge7" class="edge">
<title>Red&#45;&gt;EmergencyRed</title>
<path fill="none" stroke="red" d="M83.76,-135.26C78.05,-129.61 71.92,-124.14 65.68,-119.5 51.16,-108.71 38.73,-116.86 29.18,-101.5 24.07,-93.29 24.97,-84.58 28.99,-76.26"/>
<polygon fill="red" stroke="red" points="31.82,-78.33 34.16,-67.99 25.88,-74.62 31.82,-78.33"/>
<text xml:space="preserve" text-anchor="middle" x="62.93" y="-88.2" font-family="Times,serif" font-size="14.00"> emergency </text>
</g>
<!-- EmergencyRed&#45;&gt;Red -->
<g id="edge8" class="edge">
<title>EmergencyRed&#45;&gt;Red</title>
<path fill="none" stroke="red" d="M89.38,-66.93C92.06,-72.84 94.62,-79.04 96.68,-85 99.31,-92.63 101.68,-100.74 103.8,-108.85"/>
<polygon fill="red" stroke="red" points="100.36,-109.52 106.16,-118.39 107.15,-107.84 100.36,-109.52"/>
<text xml:space="preserve" text-anchor="middle" x="124.79" y="-88.2" font-family="Times,serif" font-size="14.00"> resume </text>
</g>
</g>
</svg>
