<?xml version="1.0" encoding="UTF-8" standalone="no"?>
<!DOCTYPE svg PUBLIC "-//W3C//DTD SVG 1.1//EN"
 "http://www.w3.org/Graphics/SVG/1.1/DTD/svg11.dtd">
<!-- Generated by graphviz version 14.1.5 (20260411.2331)
 -->
<!-- Title: ToolRunner Pages: 1 -->
<svg width="147pt" height="246pt"
 viewBox="0.00 0.00 147.00 246.00" xmlns="http://www.w3.org/2000/svg" xmlns:xlink="http://www.w3.org/1999/xlink">
<g id="graph0" class="graph" transform="scale(1 1) rotate(0) translate(4 241.9)">
<title>ToolRunner</title>
<polygon fill="white" stroke="none" points="-4,4 -4,-241.9 143,-241.9 143,4 -4,4"/>
<!-- Entry -->
<g id="node1" class="node">
<title>Entry</title>
<ellipse fill="black" stroke="#00688b" cx="69.5" cy="-230.7" rx="7.2" ry="7.2"/>
</g>
<!-- Ready -->
<g id="node2" class="node">
<title>Ready</title>
<path fill="azure" stroke="none" d="M127,-186.5C127,-186.5 12,-186.5 12,-186.5 6,-186.5 0,-180.5 0,-174.5 0,-174.5 0,-131.5 0,-131.5 0,-125.5 6,-119.5 12,-119.5 12,-119.5 127,-119.5 127,-119.5 133,-119.5 139,-125.5 139,-131.5 139,-131.5 139,-174.5 139,-174.5 139,-180.5 133,-186.5 127,-186.5"/>
<text xml:space="preserve" text-anchor="start" x="51.12" y="-166.2" font-family="Times,serif" font-weight="bold" font-size="14.00">Ready</text>
<text xml:space="preserve" text-anchor="start" x="8" y="-141" font-family="Times,serif" font-size="10.00">execute(tool: str, params: dict)</text>
<text xml:space="preserve" text-anchor="start" x="56" y="-129.75" font-family="Times,serif" font-size="10.00"> &#160;&#160;&#160;&#160;&#160;&#160;&#160;&#160;&#160;&#160;&#160;</text>
<polygon fill="#00688b" stroke="#00688b" points="0,-156 0,-156 139,-156 139,-156 0,-156"/>
<path fill="none" stroke="#00688b" d="M12,-119.5C12,-119.5 127,-119.5 127,-119.5 133,-119.5 139,-125.5 139,-131.5 139,-131.5 139,-174.5 139,-174.5 139,-180.5 133,-186.5 127,-186.5 127,-186.5 12,-186.5 12,-186.5 6,-186.5 0,-180.5 0,-174.5 0,-174.5 0,-131.5 0,-131.5 0,-125.5 6,-119.5 12,-119.5"/>
</g>
<!-- Entry&#45;&gt;Ready -->
<g id="edge1" class="edge">
<title>Entry&#45;&gt;Ready</title>
<path fill="none" stroke="red" d="M69.5,-223.25C69.5,-217.27 69.5,-207.82 69.5,-197.8"/>
<polygon fill="red" stroke="red" points="73,-197.91 69.5,-187.91 66,-197.91 73,-197.91"/>
</g>
<!-- Running -->
<g id="node3" class="node">
<title>Running</title>
<path fill="azure" stroke="none" d="M90.62,-67C90.62,-67 48.38,-67 48.38,-67 42.38,-67 36.38,-61 36.38,-55 36.38,-55 36.38,-12 36.38,-12 36.38,-6 42.38,0 48.38,0 48.38,0 90.62,0 90.62,0 96.62,0 102.62,-6 102.62,-12 102.62,-12 102.62,-55 102.62,-55 102.62,-61 96.62,-67 90.62,-67"/>
<text xml:space="preserve" text-anchor="start" x="44.38" y="-46.7" font-family="Times,serif" font-weight="bold" font-size="14.00">Running</text>
<text xml:space="preserve" text-anchor="start" x="44.38" y="-21.5" font-family="Times,serif" font-size="10.00">$&gt;()</text>
<text xml:space="preserve" text-anchor="start" x="44.38" y="-10.25" font-family="Times,serif" font-size="10.00"> &#160;&#160;&#160;&#160;&#160;&#160;&#160;&#160;&#160;&#160;&#160;</text>
<polygon fill="#00688b" stroke="#00688b" points="36.38,-36.5 36.38,-36.5 102.62,-36.5 102.62,-36.5 36.38,-36.5"/>
<path fill="none" stroke="#00688b" d="M48.38,0C48.38,0 90.62,0 90.62,0 96.62,0 102.62,-6 102.62,-12 102.62,-12 102.62,-55 102.62,-55 102.62,-61 96.62,-67 90.62,-67 90.62,-67 48.38,-67 48.38,-67 42.38,-67 36.38,-61 36.38,-55 36.38,-55 36.38,-12 36.38,-12 36.38,-6 42.38,0 48.38,0"/>
</g>
<!-- Ready&#45;&gt;Running -->
<g id="edge2" class="edge">
<title>Ready&#45;&gt;Running</title>
<path fill="none" stroke="red" d="M69.5,-119.58C69.5,-106.74 69.5,-91.78 69.5,-78.02"/>
<polygon fill="red" stroke="red" points="73,-78.33 69.5,-68.33 66,-78.33 73,-78.33"/>
<text xml:space="preserve" text-anchor="middle" x="93.88" y="-88.2" font-family="Times,serif" font-size="14.00"> execute </text>
</g>
</g>
</svg>
