<?xml version="1.0" encoding="UTF-8" standalone="no"?>
<!DOCTYPE svg PUBLIC "-//W3C//DTD SVG 1.1//EN"
 "http://www.w3.org/Graphics/SVG/1.1/DTD/svg11.dtd">
<!-- Generated by graphviz version 14.1.5 (20260411.2331)
 -->
<!-- Title: IdempotentReceiver Pages: 1 -->
<svg width="156pt" height="125pt"
 viewBox="0.00 0.00 156.00 125.00" xmlns="http://www.w3.org/2000/svg" xmlns:xlink="http://www.w3.org/1999/xlink">
<g id="graph0" class="graph" transform="scale(1 1) rotate(0) translate(4 121.4)">
<title>IdempotentReceiver</title>
<polygon fill="white" stroke="none" points="-4,4 -4,-121.4 152,-121.4 152,4 -4,4"/>
<!-- Entry -->
<g id="node1" class="node">
<title>Entry</title>
<ellipse fill="black" stroke="#00688b" cx="74" cy="-110.2" rx="7.2" ry="7.2"/>
</g>
<!-- Ready -->
<g id="node2" class="node">
<title>Ready</title>
<path fill="azure" stroke="none" d="M136,-67C136,-67 12,-67 12,-67 6,-67 0,-61 0,-55 0,-55 0,-12 0,-12 0,-6 6,0 12,0 12,0 136,0 136,0 142,0 148,-6 148,-12 148,-12 148,-55 148,-55 148,-61 142,-67 136,-67"/>
<text xml:space="preserve" text-anchor="start" x="55.62" y="-46.7" font-family="Times,serif" font-weight="bold" font-size="14.00">Ready</text>
<text xml:space="preserve" text-anchor="start" x="8" y="-21.5" font-family="Times,serif" font-size="10.00">deliver(msg_id: str, payload: str)</text>
<text xml:space="preserve" text-anchor="start" x="60.5" y="-10.25" font-family="Times,serif" font-size="10.00"> &#160;&#160;&#160;&#160;&#160;&#160;&#160;&#160;&#160;&#160;&#160;</text>
<polygon fill="#00688b" stroke="#00688b" points="0,-36.5 0,-36.5 148,-36.5 148,-36.5 0,-36.5"/>
<path fill="none" stroke="#00688b" d="M12,0C12,0 136,0 136,0 142,0 148,-6 148,-12 148,-12 148,-55 148,-55 148,-61 142,-67 136,-67 136,-67 12,-67 12,-67 6,-67 0,-61 0,-55 0,-55 0,-12 0,-12 0,-6 6,0 12,0"/>
</g>
<!-- Entry&#45;&gt;Ready -->
<g id="edge1" class="edge">
<title>Entry&#45;&gt;Ready</title>
<path fill="none" stroke="red" d="M74,-102.57C74,-96.77 74,-87.8 74,-78.25"/>
<polygon fill="red" stroke="red" points="77.5,-78.45 74,-68.45 70.5,-78.45 77.5,-78.45"/>
</g>
</g>
</svg>
