<?xml version="1.0" encoding="UTF-8" standalone="no"?>
<!DOCTYPE svg PUBLIC "-//W3C//DTD SVG 1.1//EN"
 "http://www.w3.org/Graphics/SVG/1.1/DTD/svg11.dtd">
<!-- Generated by graphviz version 14.1.5 (20260411.2331)
 -->
<!-- Title: ContentBasedRouter Pages: 1 -->
<svg width="137pt" height="125pt"
 viewBox="0.00 0.00 137.00 125.00" xmlns="http://www.w3.org/2000/svg" xmlns:xlink="http://www.w3.org/1999/xlink">
<g id="graph0" class="graph" transform="scale(1 1) rotate(0) translate(4 121.4)">
<title>ContentBasedRouter</title>
<polygon fill="white" stroke="none" points="-4,4 -4,-121.4 133.25,-121.4 133.25,4 -4,4"/>
<!-- Entry -->
<g id="node1" class="node">
<title>Entry</title>
<ellipse fill="black" stroke="#00688b" cx="64.62" cy="-110.2" rx="7.2" ry="7.2"/>
</g>
<!-- Routing -->
<g id="node2" class="node">
<title>Routing</title>
<path fill="azure" stroke="none" d="M117.25,-67C117.25,-67 12,-67 12,-67 6,-67 0,-61 0,-55 0,-55 0,-12 0,-12 0,-6 6,0 12,0 12,0 117.25,0 117.25,0 123.25,0 129.25,-6 129.25,-12 129.25,-12 129.25,-55 129.25,-55 129.25,-61 123.25,-67 117.25,-67"/>
<text xml:space="preserve" text-anchor="start" x="41.38" y="-46.7" font-family="Times,serif" font-weight="bold" font-size="14.00">Routing</text>
<text xml:space="preserve" text-anchor="start" x="8" y="-21.5" font-family="Times,serif" font-size="10.00">route(kind: str, payload: str)</text>
<text xml:space="preserve" text-anchor="start" x="51.12" y="-10.25" font-family="Times,serif" font-size="10.00"> &#160;&#160;&#160;&#160;&#160;&#160;&#160;&#160;&#160;&#160;&#160;</text>
<polygon fill="#00688b" stroke="#00688b" points="0,-36.5 0,-36.5 129.25,-36.5 129.25,-36.5 0,-36.5"/>
<path fill="none" stroke="#00688b" d="M12,0C12,0 117.25,0 117.25,0 123.25,0 129.25,-6 129.25,-12 129.25,-12 129.25,-55 129.25,-55 129.25,-61 123.25,-67 117.25,-67 117.25,-67 12,-67 12,-67 6,-67 0,-61 0,-55 0,-55 0,-12 0,-12 0,-6 6,0 12,0"/>
</g>
<!-- Entry&#45;&gt;Routing -->
<g id="edge1" class="edge">
<title>Entry&#45;&gt;Routing</title>
<path fill="none" stroke="red" d="M64.62,-102.57C64.62,-96.77 64.62,-87.8 64.62,-78.25"/>
<polygon fill="red" stroke="red" points="68.13,-78.45 64.63,-68.45 61.13,-78.45 68.13,-78.45"/>
</g>
</g>
</svg>
