<?xml version="1.0" encoding="UTF-8" standalone="no"?>
<!DOCTYPE svg PUBLIC "-//W3C//DTD SVG 1.1//EN"
 "http://www.w3.org/Graphics/SVG/1.1/DTD/svg11.dtd">
<!-- Generated by graphviz version 14.1.5 (20260411.2331)
 -->
<!-- Title: MessageFilter Pages: 1 -->
<svg width="113pt" height="137pt"
 viewBox="0.00 0.00 113.00 137.00" xmlns="http://www.w3.org/2000/svg" xmlns:xlink="http://www.w3.org/1999/xlink">
<g id="graph0" class="graph" transform="scale(1 1) rotate(0) translate(4 132.65)">
<title>MessageFilter</title>
<polygon fill="white" stroke="none" points="-4,4 -4,-132.65 108.5,-132.65 108.5,4 -4,4"/>
<!-- Entry -->
<g id="node1" class="node">
<title>Entry</title>
<ellipse fill="black" stroke="#00688b" cx="52.25" cy="-121.45" rx="7.2" ry="7.2"/>
</g>
<!-- Accepting -->
<g id="node2" class="node">
<title>Accepting</title>
<path fill="azure" stroke="none" d="M92.5,-78.25C92.5,-78.25 12,-78.25 12,-78.25 6,-78.25 0,-72.25 0,-66.25 0,-66.25 0,-12 0,-12 0,-6 6,0 12,0 12,0 92.5,0 92.5,0 98.5,0 104.5,-6 104.5,-12 104.5,-12 104.5,-66.25 104.5,-66.25 104.5,-72.25 98.5,-78.25 92.5,-78.25"/>
<text xml:space="preserve" text-anchor="start" x="23.38" y="-57.95" font-family="Times,serif" font-weight="bold" font-size="14.00">Accepting</text>
<text xml:space="preserve" text-anchor="start" x="8" y="-32.75" font-family="Times,serif" font-size="10.00">consider(payload: str)</text>
<text xml:space="preserve" text-anchor="start" x="8" y="-21.5" font-family="Times,serif" font-size="10.00">stats()</text>
<text xml:space="preserve" text-anchor="start" x="38.75" y="-10.25" font-family="Times,serif" font-size="10.00"> &#160;&#160;&#160;&#160;&#160;&#160;&#160;&#160;&#160;&#160;&#160;</text>
<polygon fill="#00688b" stroke="#00688b" points="0,-47.75 0,-47.75 104.5,-47.75 104.5,-47.75 0,-47.75"/>
<path fill="none" stroke="#00688b" d="M12,0C12,0 92.5,0 92.5,0 98.5,0 104.5,-6 104.5,-12 104.5,-12 104.5,-66.25 104.5,-66.25 104.5,-72.25 98.5,-78.25 92.5,-78.25 92.5,-78.25 12,-78.25 12,-78.25 6,-78.25 0,-72.25 0,-66.25 0,-66.25 0,-12 0,-12 0,-6 6,0 12,0"/>
</g>
<!-- Entry&#45;&gt;Accepting -->
<g id="edge1" class="edge">
<title>Entry&#45;&gt;Accepting</title>
<path fill="none" stroke="red" d="M52.25,-113.88C52.25,-108.17 52.25,-99.32 52.25,-89.72"/>
<polygon fill="red" stroke="red" points="55.75,-89.75 52.25,-79.75 48.75,-89.75 55.75,-89.75"/>
</g>
</g>
</svg>
