<?xml version="1.0" encoding="UTF-8" standalone="no"?>
<!DOCTYPE svg PUBLIC "-//W3C//DTD SVG 1.1//EN"
 "http://www.w3.org/Graphics/SVG/1.1/DTD/svg11.dtd">
<!-- Generated by graphviz version 14.1.5 (20260411.2331)
 -->
<!-- Title: Aggregator Pages: 1 -->
<svg width="167pt" height="137pt"
 viewBox="0.00 0.00 167.00 137.00" xmlns="http://www.w3.org/2000/svg" xmlns:xlink="http://www.w3.org/1999/xlink">
<g id="graph0" class="graph" transform="scale(1 1) rotate(0) translate(4 132.65)">
<title>Aggregator</title>
<polygon fill="white" stroke="none" points="-4,4 -4,-132.65 163.25,-132.65 163.25,4 -4,4"/>
<!-- Entry -->
<g id="node1" class="node">
<title>Entry</title>
<ellipse fill="black" stroke="#00688b" cx="79.62" cy="-121.45" rx="7.2" ry="7.2"/>
</g>
<!-- Collecting -->
<g id="node2" class="node">
<title>Collecting</title>
<path fill="azure" stroke="none" d="M147.25,-78.25C147.25,-78.25 12,-78.25 12,-78.25 6,-78.25 0,-72.25 0,-66.25 0,-66.25 0,-12 0,-12 0,-6 6,0 12,0 12,0 147.25,0 147.25,0 153.25,0 159.25,-6 159.25,-12 159.25,-12 159.25,-66.25 159.25,-66.25 159.25,-72.25 153.25,-78.25 147.25,-78.25"/>
<text xml:space="preserve" text-anchor="start" x="50.38" y="-57.95" font-family="Times,serif" font-weight="bold" font-size="14.00">Collecting</text>
<text xml:space="preserve" text-anchor="start" x="8" y="-32.75" font-family="Times,serif" font-size="10.00">receive(correlation_id: str, part: str)</text>
<text xml:space="preserve" text-anchor="start" x="8" y="-21.5" font-family="Times,serif" font-size="10.00">status()</text>
<text xml:space="preserve" text-anchor="start" x="66.12" y="-10.25" font-family="Times,serif" font-size="10.00"> &#160;&#160;&#160;&#160;&#160;&#160;&#160;&#160;&#160;&#160;&#160;</text>
<polygon fill="#00688b" stroke="#00688b" points="0,-47.75 0,-47.75 159.25,-47.75 159.25,-47.75 0,-47.75"/>
<path fill="none" stroke="#00688b" d="M12,0C12,0 147.25,0 147.25,0 153.25,0 159.25,-6 159.25,-12 159.25,-12 159.25,-66.25 159.25,-66.25 159.25,-72.25 153.25,-78.25 147.25,-78.25 147.25,-78.25 12,-78.25 12,-78.25 6,-78.25 0,-72.25 0,-66.25 0,-66.25 0,-12 0,-12 0,-6 6,0 12,0"/>
</g>
<!-- Entry&#45;&gt;Collecting -->
<g id="edge1" class="edge">
<title>Entry&#45;&gt;Collecting</title>
<path fill="none" stroke="red" d="M79.62,-113.88C79.62,-108.17 79.62,-99.32 79.62,-89.72"/>
<polygon fill="red" stroke="red" points="83.13,-89.75 79.63,-79.75 76.13,-89.75 83.13,-89.75"/>
</g>
</g>
</svg>
