<?xml version="1.0" encoding="UTF-8" standalone="no"?>
<!DOCTYPE svg PUBLIC "-//W3C//DTD SVG 1.1//EN"
 "http://www.w3.org/Graphics/SVG/1.1/DTD/svg11.dtd">
<!-- Generated by graphviz version 14.1.5 (20260411.2331)
 -->
<!-- Title: Resequencer Pages: 1 -->
<svg width="136pt" height="137pt"
 viewBox="0.00 0.00 136.00 137.00" xmlns="http://www.w3.org/2000/svg" xmlns:xlink="http://www.w3.org/1999/xlink">
<g id="graph0" class="graph" transform="scale(1 1) rotate(0) translate(4 132.65)">
<title>Resequencer</title>
<polygon fill="white" stroke="none" points="-4,4 -4,-132.65 131.75,-132.65 131.75,4 -4,4"/>
<!-- Entry -->
<g id="node1" class="node">
<title>Entry</title>
<ellipse fill="black" stroke="#00688b" cx="63.88" cy="-121.45" rx="7.2" ry="7.2"/>
</g>
<!-- Buffering -->
<g id="node2" class="node">
<title>Buffering</title>
<path fill="azure" stroke="none" d="M115.75,-78.25C115.75,-78.25 12,-78.25 12,-78.25 6,-78.25 0,-72.25 0,-66.25 0,-66.25 0,-12 0,-12 0,-6 6,0 12,0 12,0 115.75,0 115.75,0 121.75,0 127.75,-6 127.75,-12 127.75,-12 127.75,-66.25 127.75,-66.25 127.75,-72.25 121.75,-78.25 115.75,-78.25"/>
<text xml:space="preserve" text-anchor="start" x="36.12" y="-57.95" font-family="Times,serif" font-weight="bold" font-size="14.00">Buffering</text>
<text xml:space="preserve" text-anchor="start" x="8" y="-32.75" font-family="Times,serif" font-size="10.00">arrive(seq: int, payload: str)</text>
<text xml:space="preserve" text-anchor="start" x="8" y="-21.5" font-family="Times,serif" font-size="10.00">status()</text>
<text xml:space="preserve" text-anchor="start" x="50.38" y="-10.25" font-family="Times,serif" font-size="10.00"> &#160;&#160;&#160;&#160;&#160;&#160;&#160;&#160;&#160;&#160;&#160;</text>
<polygon fill="#00688b" stroke="#00688b" points="0,-47.75 0,-47.75 127.75,-47.75 127.75,-47.75 0,-47.75"/>
<path fill="none" stroke="#00688b" d="M12,0C12,0 115.75,0 115.75,0 121.75,0 127.75,-6 127.75,-12 127.75,-12 127.75,-66.25 127.75,-66.25 127.75,-72.25 121.75,-78.25 115.75,-78.25 115.75,-78.25 12,-78.25 12,-78.25 6,-78.25 0,-72.25 0,-66.25 0,-66.25 0,-12 0,-12 0,-6 6,0 12,0"/>
</g>
<!-- Entry&#45;&gt;Buffering -->
<g id="edge1" class="edge">
<title>Entry&#45;&gt;Buffering</title>
<path fill="none" stroke="red" d="M63.88,-113.88C63.88,-108.17 63.88,-99.32 63.88,-89.72"/>
<polygon fill="red" stroke="red" points="67.38,-89.75 63.88,-79.75 60.38,-89.75 67.38,-89.75"/>
</g>
</g>
</svg>
