<?xml version="1.0" encoding="UTF-8" standalone="no"?>
<!DOCTYPE svg PUBLIC "-//W3C//DTD SVG 1.1//EN"
 "http://www.w3.org/Graphics/SVG/1.1/DTD/svg11.dtd">
<!-- Generated by graphviz version 14.1.5 (20260411.2331)
 -->
<!-- Title: CircuitBreaker Pages: 1 -->
<svg width="163pt" height="467pt"
 viewBox="0.00 0.00 163.00 467.00" xmlns="http://www.w3.org/2000/svg" xmlns:xlink="http://www.w3.org/1999/xlink">
<g id="graph0" class="graph" transform="scale(1 1) rotate(0) translate(4 462.65)">
<title>CircuitBreaker</title>
<polygon fill="white" stroke="none" points="-4,4 -4,-462.65 158.87,-462.65 158.87,4 -4,4"/>
<!-- Entry -->
<g id="node1" class="node">
<title>Entry</title>
<ellipse fill="black" stroke="#00688b" cx="81.5" cy="-451.45" rx="7.2" ry="7.2"/>
</g>
<!-- Closed -->
<g id="node2" class="node">
<title>Closed</title>
<path fill="azure" stroke="none" d="M112,-407.25C112,-407.25 51,-407.25 51,-407.25 45,-407.25 39,-401.25 39,-395.25 39,-395.25 39,-307.25 39,-307.25 39,-301.25 45,-295.25 51,-295.25 51,-295.25 112,-295.25 112,-295.25 118,-295.25 124,-301.25 124,-307.25 124,-307.25 124,-395.25 124,-395.25 124,-401.25 118,-407.25 112,-407.25"/>
<text xml:space="preserve" text-anchor="start" x="62" y="-386.95" font-family="Times,serif" font-weight="bold" font-size="14.00">Closed</text>
<text xml:space="preserve" text-anchor="start" x="47" y="-361.75" font-family="Times,serif" font-size="10.00">$&gt;()</text>
<text xml:space="preserve" text-anchor="start" x="47" y="-350.5" font-family="Times,serif" font-size="10.00">call(payload: str)</text>
<text xml:space="preserve" text-anchor="start" x="47" y="-339.25" font-family="Times,serif" font-size="10.00">record_failure()</text>
<text xml:space="preserve" text-anchor="start" x="47" y="-328" font-family="Times,serif" font-size="10.00">record_success()</text>
<text xml:space="preserve" text-anchor="start" x="47" y="-316.75" font-family="Times,serif" font-size="10.00">state_name()</text>
<text xml:space="preserve" text-anchor="start" x="68" y="-305.5" font-family="Times,serif" font-size="10.00"> &#160;&#160;&#160;&#160;&#160;&#160;&#160;&#160;&#160;&#160;&#160;</text>
<polygon fill="#00688b" stroke="#00688b" points="39,-376.75 39,-376.75 124,-376.75 124,-376.75 39,-376.75"/>
<path fill="none" stroke="#00688b" d="M51,-295.25C51,-295.25 112,-295.25 112,-295.25 118,-295.25 124,-301.25 124,-307.25 124,-307.25 124,-395.25 124,-395.25 124,-401.25 118,-407.25 112,-407.25 112,-407.25 51,-407.25 51,-407.25 45,-407.25 39,-401.25 39,-395.25 39,-395.25 39,-307.25 39,-307.25 39,-301.25 45,-295.25 51,-295.25"/>
</g>
<!-- Entry&#45;&gt;Closed -->
<g id="edge1" class="edge">
<title>Entry&#45;&gt;Closed</title>
<path fill="none" stroke="red" d="M81.5,-444.01C81.5,-438.12 81.5,-428.73 81.5,-418.17"/>
<polygon fill="red" stroke="red" points="85,-418.34 81.5,-408.34 78,-418.34 85,-418.34"/>
</g>
<!-- Open -->
<g id="node3" class="node">
<title>Open</title>
<path fill="azure" stroke="none" d="M73,-242.75C73,-242.75 12,-242.75 12,-242.75 6,-242.75 0,-236.75 0,-230.75 0,-230.75 0,-165.25 0,-165.25 0,-159.25 6,-153.25 12,-153.25 12,-153.25 73,-153.25 73,-153.25 79,-153.25 85,-159.25 85,-165.25 85,-165.25 85,-230.75 85,-230.75 85,-236.75 79,-242.75 73,-242.75"/>
<text xml:space="preserve" text-anchor="start" x="26.38" y="-222.45" font-family="Times,serif" font-weight="bold" font-size="14.00">Open</text>
<text xml:space="preserve" text-anchor="start" x="8" y="-197.25" font-family="Times,serif" font-size="10.00">call(payload: str)</text>
<text xml:space="preserve" text-anchor="start" x="8" y="-186" font-family="Times,serif" font-size="10.00">probe()</text>
<text xml:space="preserve" text-anchor="start" x="8" y="-174.75" font-family="Times,serif" font-size="10.00">state_name()</text>
<text xml:space="preserve" text-anchor="start" x="29" y="-163.5" font-family="Times,serif" font-size="10.00"> &#160;&#160;&#160;&#160;&#160;&#160;&#160;&#160;&#160;&#160;&#160;</text>
<polygon fill="#00688b" stroke="#00688b" points="0,-212.25 0,-212.25 85,-212.25 85,-212.25 0,-212.25"/>
<path fill="none" stroke="#00688b" d="M12,-153.25C12,-153.25 73,-153.25 73,-153.25 79,-153.25 85,-159.25 85,-165.25 85,-165.25 85,-230.75 85,-230.75 85,-236.75 79,-242.75 73,-242.75 73,-242.75 12,-242.75 12,-242.75 6,-242.75 0,-236.75 0,-230.75 0,-230.75 0,-165.25 0,-165.25 0,-159.25 6,-153.25 12,-153.25"/>
</g>
<!-- Closed&#45;&gt;Open -->
<g id="edge2" class="edge">
<title>Closed&#45;&gt;Open</title>
<path fill="none" stroke="red" d="M67.42,-295.65C63.87,-281.89 60.07,-267.13 56.52,-253.39"/>
<polygon fill="red" stroke="red" points="60.01,-252.9 54.13,-244.09 53.23,-254.64 60.01,-252.9"/>
<text xml:space="preserve" text-anchor="middle" x="75.12" y="-263.95" font-family="Times,serif" font-size="14.00"> trip </text>
</g>
<!-- HalfOpen -->
<g id="node4" class="node">
<title>HalfOpen</title>
<path fill="azure" stroke="none" d="M96,-100.75C96,-100.75 35,-100.75 35,-100.75 29,-100.75 23,-94.75 23,-88.75 23,-88.75 23,-12 23,-12 23,-6 29,0 35,0 35,0 96,0 96,0 102,0 108,-6 108,-12 108,-12 108,-88.75 108,-88.75 108,-94.75 102,-100.75 96,-100.75"/>
<text xml:space="preserve" text-anchor="start" x="36.25" y="-80.45" font-family="Times,serif" font-weight="bold" font-size="14.00">HalfOpen</text>
<text xml:space="preserve" text-anchor="start" x="31" y="-55.25" font-family="Times,serif" font-size="10.00">call(payload: str)</text>
<text xml:space="preserve" text-anchor="start" x="31" y="-44" font-family="Times,serif" font-size="10.00">record_success()</text>
<text xml:space="preserve" text-anchor="start" x="31" y="-32.75" font-family="Times,serif" font-size="10.00">record_failure()</text>
<text xml:space="preserve" text-anchor="start" x="31" y="-21.5" font-family="Times,serif" font-size="10.00">state_name()</text>
<text xml:space="preserve" text-anchor="start" x="52" y="-10.25" font-family="Times,serif" font-size="10.00"> &#160;&#160;&#160;&#160;&#160;&#160;&#160;&#160;&#160;&#160;&#160;</text>
<polygon fill="#00688b" stroke="#00688b" points="23,-70.25 23,-70.25 108,-70.25 108,-70.25 23,-70.25"/>
<path fill="none" stroke="#00688b" d="M35,0C35,0 96,0 96,0 102,0 108,-6 108,-12 108,-12 108,-88.75 108,-88.75 108,-94.75 102,-100.75 96,-100.75 96,-100.75 35,-100.75 35,-100.75 29,-100.75 23,-94.75 23,-88.75 23,-88.75 23,-12 23,-12 23,-6 29,0 35,0"/>
</g>
<!-- Open&#45;&gt;HalfOpen -->
<g id="edge3" class="edge">
<title>Open&#45;&gt;HalfOpen</title>
<path fill="none" stroke="red" d="M7.98,-153.25C3.03,-142.15 0.9,-130.14 5.25,-118.75 7.96,-111.66 11.79,-104.84 16.24,-98.45"/>
<polygon fill="red" stroke="red" points="18.93,-100.69 22.2,-90.61 13.36,-96.45 18.93,-100.69"/>
<text xml:space="preserve" text-anchor="middle" x="24.38" y="-121.95" font-family="Times,serif" font-size="14.00"> probe </text>
</g>
<!-- HalfOpen&#45;&gt;Closed -->
<g id="edge4" class="edge">
<title>HalfOpen&#45;&gt;Closed</title>
<path fill="none" stroke="red" d="M93.48,-100.42C95.94,-106.44 98.04,-112.63 99.5,-118.75 112.56,-173.64 105.96,-237.7 97.3,-284.51"/>
<polygon fill="red" stroke="red" points="93.88,-283.75 95.41,-294.23 100.75,-285.08 93.88,-283.75"/>
<text xml:space="preserve" text-anchor="middle" x="130.87" y="-192.95" font-family="Times,serif" font-size="14.00"> recover </text>
</g>
<!-- HalfOpen&#45;&gt;Open -->
<g id="edge5" class="edge">
<title>HalfOpen&#45;&gt;Open</title>
<path fill="none" stroke="red" d="M57.72,-100.65C55.61,-113.98 53.32,-128.5 51.17,-142.12"/>
<polygon fill="red" stroke="red" points="47.74,-141.39 49.64,-151.81 54.65,-142.48 47.74,-141.39"/>
<text xml:space="preserve" text-anchor="middle" x="75.31" y="-121.95" font-family="Times,serif" font-size="14.00"> re&#45;trip </text>
</g>
</g>
</svg>
