<?xml version="1.0" encoding="UTF-8" standalone="no"?>
<!DOCTYPE svg PUBLIC "-//W3C//DTD SVG 1.1//EN"
 "http://www.w3.org/Graphics/SVG/1.1/DTD/svg11.dtd">
<!-- Generated by graphviz version 14.1.5 (20260411.2331)
 -->
<!-- Title: CircuitBreaker Pages: 1 -->
<svg width="263pt" height="467pt"
 viewBox="0.00 0.00 263.00 467.00" xmlns="http://www.w3.org/2000/svg" xmlns:xlink="http://www.w3.org/1999/xlink">
<g id="graph0" class="graph" transform="scale(1 1) rotate(0) translate(4 462.65)">
<title>CircuitBreaker</title>
<polygon fill="white" stroke="none" points="-4,4 -4,-462.65 258.74,-462.65 258.74,4 -4,4"/>
<!-- Entry -->
<g id="node1" class="node">
<title>Entry</title>
<ellipse fill="black" stroke="#00688b" cx="111.58" cy="-451.45" rx="7.2" ry="7.2"/>
</g>
<!-- Closed -->
<g id="node2" class="node">
<title>Closed</title>
<path fill="azure" stroke="none" d="M142.08,-407.25C142.08,-407.25 81.08,-407.25 81.08,-407.25 75.08,-407.25 69.08,-401.25 69.08,-395.25 69.08,-395.25 69.08,-307.25 69.08,-307.25 69.08,-301.25 75.08,-295.25 81.08,-295.25 81.08,-295.25 142.08,-295.25 142.08,-295.25 148.08,-295.25 154.08,-301.25 154.08,-307.25 154.08,-307.25 154.08,-395.25 154.08,-395.25 154.08,-401.25 148.08,-407.25 142.08,-407.25"/>
<text xml:space="preserve" text-anchor="start" x="92.08" y="-386.95" font-family="Times,serif" font-weight="bold" font-size="14.00">Closed</text>
<text xml:space="preserve" text-anchor="start" x="77.08" y="-361.75" font-family="Times,serif" font-size="10.00">$&gt;()</text>
<text xml:space="preserve" text-anchor="start" x="77.08" y="-350.5" font-family="Times,serif" font-size="10.00">call(payload: str)</text>
<text xml:space="preserve" text-anchor="start" x="77.08" y="-339.25" font-family="Times,serif" font-size="10.00">record_failure()</text>
<text xml:space="preserve" text-anchor="start" x="77.08" y="-328" font-family="Times,serif" font-size="10.00">record_success()</text>
<text xml:space="preserve" text-anchor="start" x="77.08" y="-316.75" font-family="Times,serif" font-size="10.00">state_name()</text>
<text xml:space="preserve" text-anchor="start" x="98.08" y="-305.5" font-family="Times,serif" font-size="10.00"> &#160;&#160;&#160;&#160;&#160;&#160;&#160;&#160;&#160;&#160;&#160;</text>
<polygon fill="#00688b" stroke="#00688b" points="69.08,-376.75 69.08,-376.75 154.08,-376.75 154.08,-376.75 69.08,-376.75"/>
<path fill="none" stroke="#00688b" d="M81.08,-295.25C81.08,-295.25 142.08,-295.25 142.08,-295.25 148.08,-295.25 154.08,-301.25 154.08,-307.25 154.08,-307.25 154.08,-395.25 154.08,-395.25 154.08,-401.25 148.08,-407.25 142.08,-407.25 142.08,-407.25 81.08,-407.25 81.08,-407.25 75.08,-407.25 69.08,-401.25 69.08,-395.25 69.08,-395.25 69.08,-307.25 69.08,-307.25 69.08,-301.25 75.08,-295.25 81.08,-295.25"/>
</g>
<!-- Entry&#45;&gt;Closed -->
<g id="edge1" class="edge">
<title>Entry&#45;&gt;Closed</title>
<path fill="none" stroke="red" d="M111.58,-444.01C111.58,-438.12 111.58,-428.73 111.58,-418.17"/>
<polygon fill="red" stroke="red" points="115.08,-418.34 111.58,-408.34 108.08,-418.34 115.08,-418.34"/>
</g>
<!-- Open -->
<g id="node3" class="node">
<title>Open</title>
<path fill="azure" stroke="none" d="M93.08,-242.75C93.08,-242.75 32.08,-242.75 32.08,-242.75 26.08,-242.75 20.08,-236.75 20.08,-230.75 20.08,-230.75 20.08,-165.25 20.08,-165.25 20.08,-159.25 26.08,-153.25 32.08,-153.25 32.08,-153.25 93.08,-153.25 93.08,-153.25 99.08,-153.25 105.08,-159.25 105.08,-165.25 105.08,-165.25 105.08,-230.75 105.08,-230.75 105.08,-236.75 99.08,-242.75 93.08,-242.75"/>
<text xml:space="preserve" text-anchor="start" x="46.46" y="-222.45" font-family="Times,serif" font-weight="bold" font-size="14.00">Open</text>
<text xml:space="preserve" text-anchor="start" x="28.08" y="-197.25" font-family="Times,serif" font-size="10.00">call(payload: str)</text>
<text xml:space="preserve" text-anchor="start" x="28.08" y="-186" font-family="Times,serif" font-size="10.00">probe()</text>
<text xml:space="preserve" text-anchor="start" x="28.08" y="-174.75" font-family="Times,serif" font-size="10.00">state_name()</text>
<text xml:space="preserve" text-anchor="start" x="49.08" y="-163.5" font-family="Times,serif" font-size="10.00"> &#160;&#160;&#160;&#160;&#160;&#160;&#160;&#160;&#160;&#160;&#160;</text>
<polygon fill="#00688b" stroke="#00688b" points="20.08,-212.25 20.08,-212.25 105.08,-212.25 105.08,-212.25 20.08,-212.25"/>
<path fill="none" stroke="#00688b" d="M32.08,-153.25C32.08,-153.25 93.08,-153.25 93.08,-153.25 99.08,-153.25 105.08,-159.25 105.08,-165.25 105.08,-165.25 105.08,-230.75 105.08,-230.75 105.08,-236.75 99.08,-242.75 93.08,-242.75 93.08,-242.75 32.08,-242.75 32.08,-242.75 26.08,-242.75 20.08,-236.75 20.08,-230.75 20.08,-230.75 20.08,-165.25 20.08,-165.25 20.08,-159.25 26.08,-153.25 32.08,-153.25"/>
</g>
<!-- Closed&#45;&gt;Open -->
<g id="edge2" class="edge">
<title>Closed&#45;&gt;Open</title>
<path fill="none" stroke="red" d="M70.94,-295.27C67.99,-289.4 65.45,-283.34 63.58,-277.25 61.33,-269.92 60.03,-262.02 59.36,-254.15"/>
<polygon fill="red" stroke="red" points="62.86,-254.05 58.88,-244.24 55.87,-254.4 62.86,-254.05"/>
<text xml:space="preserve" text-anchor="middle" x="105.58" y="-263.95" font-family="Times,serif" font-size="14.00"> record_failure </text>
</g>
<!-- HalfOpen -->
<g id="node4" class="node">
<title>HalfOpen</title>
<path fill="azure" stroke="none" d="M93.08,-100.75C93.08,-100.75 32.08,-100.75 32.08,-100.75 26.08,-100.75 20.08,-94.75 20.08,-88.75 20.08,-88.75 20.08,-12 20.08,-12 20.08,-6 26.08,0 32.08,0 32.08,0 93.08,0 93.08,0 99.08,0 105.08,-6 105.08,-12 105.08,-12 105.08,-88.75 105.08,-88.75 105.08,-94.75 99.08,-100.75 93.08,-100.75"/>
<text xml:space="preserve" text-anchor="start" x="33.33" y="-80.45" font-family="Times,serif" font-weight="bold" font-size="14.00">HalfOpen</text>
<text xml:space="preserve" text-anchor="start" x="28.08" y="-55.25" font-family="Times,serif" font-size="10.00">call(payload: str)</text>
<text xml:space="preserve" text-anchor="start" x="28.08" y="-44" font-family="Times,serif" font-size="10.00">record_success()</text>
<text xml:space="preserve" text-anchor="start" x="28.08" y="-32.75" font-family="Times,serif" font-size="10.00">record_failure()</text>
<text xml:space="preserve" text-anchor="start" x="28.08" y="-21.5" font-family="Times,serif" font-size="10.00">state_name()</text>
<text xml:space="preserve" text-anchor="start" x="49.08" y="-10.25" font-family="Times,serif" font-size="10.00"> &#160;&#160;&#160;&#160;&#160;&#160;&#160;&#160;&#160;&#160;&#160;</text>
<polygon fill="#00688b" stroke="#00688b" points="20.08,-70.25 20.08,-70.25 105.08,-70.25 105.08,-70.25 20.08,-70.25"/>
<path fill="none" stroke="#00688b" d="M32.08,0C32.08,0 93.08,0 93.08,0 99.08,0 105.08,-6 105.08,-12 105.08,-12 105.08,-88.75 105.08,-88.75 105.08,-94.75 99.08,-100.75 93.08,-100.75 93.08,-100.75 32.08,-100.75 32.08,-100.75 26.08,-100.75 20.08,-94.75 20.08,-88.75 20.08,-88.75 20.08,-12 20.08,-12 20.08,-6 26.08,0 32.08,0"/>
</g>
<!-- Open&#45;&gt;HalfOpen -->
<g id="edge3" class="edge">
<title>Open&#45;&gt;HalfOpen</title>
<path fill="none" stroke="red" d="M20.33,-167.61C6.15,-153.91 -4.52,-136.69 2.33,-118.75 5.04,-111.66 8.87,-104.84 13.32,-98.45"/>
<polygon fill="red" stroke="red" points="16.01,-100.69 19.28,-90.61 10.44,-96.45 16.01,-100.69"/>
<text xml:space="preserve" text-anchor="middle" x="21.46" y="-121.95" font-family="Times,serif" font-size="14.00"> probe </text>
</g>
<!-- HalfOpen&#45;&gt;Closed -->
<g id="edge4" class="edge">
<title>HalfOpen&#45;&gt;Closed</title>
<path fill="none" stroke="red" d="M104.74,-73.62C121.29,-84.77 138.48,-99.93 147.58,-118.75 178.24,-182.17 163.58,-208.65 147.58,-277.25 147.01,-279.71 146.34,-282.18 145.59,-284.65"/>
<polygon fill="red" stroke="red" points="142.32,-283.41 142.35,-294.01 148.93,-285.7 142.32,-283.41"/>
<text xml:space="preserve" text-anchor="middle" x="210.11" y="-192.95" font-family="Times,serif" font-size="14.00"> record_success </text>
</g>
<!-- HalfOpen&#45;&gt;Open -->
<g id="edge5" class="edge">
<title>HalfOpen&#45;&gt;Open</title>
<path fill="none" stroke="red" d="M62.58,-100.65C62.58,-113.98 62.58,-128.5 62.58,-142.12"/>
<polygon fill="red" stroke="red" points="59.08,-141.79 62.58,-151.79 66.08,-141.79 59.08,-141.79"/>
<text xml:space="preserve" text-anchor="middle" x="104.58" y="-121.95" font-family="Times,serif" font-size="14.00"> record_failure </text>
</g>
</g>
</svg>
