<?xml version="1.0" encoding="UTF-8" standalone="no"?>
<!DOCTYPE svg PUBLIC "-//W3C//DTD SVG 1.1//EN"
 "http://www.w3.org/Graphics/SVG/1.1/DTD/svg11.dtd">
<!-- Generated by graphviz version 14.1.5 (20260411.2331)
 -->
<!-- Title: DeadLetterProcessor Pages: 1 -->
<svg width="241pt" height="410pt"
 viewBox="0.00 0.00 241.00 410.00" xmlns="http://www.w3.org/2000/svg" xmlns:xlink="http://www.w3.org/1999/xlink">
<g id="graph0" class="graph" transform="scale(1 1) rotate(0) translate(4 406.4)">
<title>DeadLetterProcessor</title>
<polygon fill="white" stroke="none" points="-4,4 -4,-406.4 237.29,-406.4 237.29,4 -4,4"/>
<!-- Entry -->
<g id="node1" class="node">
<title>Entry</title>
<ellipse fill="black" stroke="#00688b" cx="89.22" cy="-395.2" rx="7.2" ry="7.2"/>
</g>
<!-- Idle -->
<g id="node2" class="node">
<title>Idle</title>
<path fill="azure" stroke="none" d="M150.1,-351C150.1,-351 28.35,-351 28.35,-351 22.35,-351 16.35,-345 16.35,-339 16.35,-339 16.35,-284.75 16.35,-284.75 16.35,-278.75 22.35,-272.75 28.35,-272.75 28.35,-272.75 150.1,-272.75 150.1,-272.75 156.1,-272.75 162.1,-278.75 162.1,-284.75 162.1,-284.75 162.1,-339 162.1,-339 162.1,-345 156.1,-351 150.1,-351"/>
<text xml:space="preserve" text-anchor="start" x="77.97" y="-330.7" font-family="Times,serif" font-weight="bold" font-size="14.00">Idle</text>
<text xml:space="preserve" text-anchor="start" x="24.35" y="-305.5" font-family="Times,serif" font-size="10.00">accept(msg_id: str, payload: str)</text>
<text xml:space="preserve" text-anchor="start" x="24.35" y="-294.25" font-family="Times,serif" font-size="10.00">process_tick()</text>
<text xml:space="preserve" text-anchor="start" x="75.72" y="-283" font-family="Times,serif" font-size="10.00"> &#160;&#160;&#160;&#160;&#160;&#160;&#160;&#160;&#160;&#160;&#160;</text>
<polygon fill="#00688b" stroke="#00688b" points="16.35,-320.5 16.35,-320.5 162.1,-320.5 162.1,-320.5 16.35,-320.5"/>
<path fill="none" stroke="#00688b" d="M28.35,-272.75C28.35,-272.75 150.1,-272.75 150.1,-272.75 156.1,-272.75 162.1,-278.75 162.1,-284.75 162.1,-284.75 162.1,-339 162.1,-339 162.1,-345 156.1,-351 150.1,-351 150.1,-351 28.35,-351 28.35,-351 22.35,-351 16.35,-345 16.35,-339 16.35,-339 16.35,-284.75 16.35,-284.75 16.35,-278.75 22.35,-272.75 28.35,-272.75"/>
</g>
<!-- Entry&#45;&gt;Idle -->
<g id="edge1" class="edge">
<title>Entry&#45;&gt;Idle</title>
<path fill="none" stroke="red" d="M89.22,-387.54C89.22,-381.53 89.22,-372.07 89.22,-361.88"/>
<polygon fill="red" stroke="red" points="92.72,-362.19 89.22,-352.19 85.72,-362.19 92.72,-362.19"/>
</g>
<!-- Processing -->
<g id="node3" class="node">
<title>Processing</title>
<path fill="azure" stroke="none" d="M115.97,-220.25C115.97,-220.25 62.47,-220.25 62.47,-220.25 56.47,-220.25 50.47,-214.25 50.47,-208.25 50.47,-208.25 50.47,-154 50.47,-154 50.47,-148 56.47,-142 62.47,-142 62.47,-142 115.97,-142 115.97,-142 121.97,-142 127.97,-148 127.97,-154 127.97,-154 127.97,-208.25 127.97,-208.25 127.97,-214.25 121.97,-220.25 115.97,-220.25"/>
<text xml:space="preserve" text-anchor="start" x="58.47" y="-199.95" font-family="Times,serif" font-weight="bold" font-size="14.00">Processing</text>
<text xml:space="preserve" text-anchor="start" x="58.47" y="-174.75" font-family="Times,serif" font-size="10.00">$&gt;()</text>
<text xml:space="preserve" text-anchor="start" x="58.47" y="-163.5" font-family="Times,serif" font-size="10.00">process_tick()</text>
<text xml:space="preserve" text-anchor="start" x="73.47" y="-152.25" font-family="Times,serif" font-size="10.00"> &#160;&#160;&#160;&#160;&#160;&#160;&#160;&#160;&#160;&#160;&#160;</text>
<polygon fill="#00688b" stroke="#00688b" points="50.47,-189.75 50.47,-189.75 127.97,-189.75 127.97,-189.75 50.47,-189.75"/>
<path fill="none" stroke="#00688b" d="M62.47,-142C62.47,-142 115.97,-142 115.97,-142 121.97,-142 127.97,-148 127.97,-154 127.97,-154 127.97,-208.25 127.97,-208.25 127.97,-214.25 121.97,-220.25 115.97,-220.25 115.97,-220.25 62.47,-220.25 62.47,-220.25 56.47,-220.25 50.47,-214.25 50.47,-208.25 50.47,-208.25 50.47,-154 50.47,-154 50.47,-148 56.47,-142 62.47,-142"/>
</g>
<!-- Idle&#45;&gt;Processing -->
<g id="edge2" class="edge">
<title>Idle&#45;&gt;Processing</title>
<path fill="none" stroke="red" d="M89.22,-272.94C89.22,-259.96 89.22,-245.24 89.22,-231.49"/>
<polygon fill="red" stroke="red" points="92.72,-231.75 89.22,-221.75 85.72,-231.75 92.72,-231.75"/>
<text xml:space="preserve" text-anchor="middle" x="110.22" y="-241.45" font-family="Times,serif" font-size="14.00"> accept </text>
</g>
<!-- Processing&#45;&gt;Processing -->
<g id="edge5" class="edge">
<title>Processing&#45;&gt;Processing</title>
<path fill="none" stroke="red" d="M127.95,-193.28C138.2,-192.58 145.97,-188.53 145.97,-181.12 145.97,-176.73 143.23,-173.51 138.86,-171.48"/>
<polygon fill="red" stroke="red" points="139.95,-168.14 129.42,-169.31 138.38,-174.96 139.95,-168.14"/>
<text xml:space="preserve" text-anchor="middle" x="162.47" y="-176.07" font-family="Times,serif" font-size="14.00"> retry </text>
</g>
<!-- Done -->
<g id="node4" class="node">
<title>Done</title>
<path fill="azure" stroke="none" d="M61.72,-83.88C61.72,-83.88 12.72,-83.88 12.72,-83.88 6.72,-83.88 0.72,-77.88 0.72,-71.88 0.72,-71.88 0.72,-17.62 0.72,-17.62 0.72,-11.62 6.72,-5.62 12.72,-5.62 12.72,-5.62 61.72,-5.62 61.72,-5.62 67.72,-5.62 73.72,-11.62 73.72,-17.62 73.72,-17.62 73.72,-71.88 73.72,-71.88 73.72,-77.88 67.72,-83.88 61.72,-83.88"/>
<text xml:space="preserve" text-anchor="start" x="22.22" y="-63.58" font-family="Times,serif" font-weight="bold" font-size="14.00">Done</text>
<text xml:space="preserve" text-anchor="start" x="8.72" y="-38.38" font-family="Times,serif" font-size="10.00">process_tick()</text>
<text xml:space="preserve" text-anchor="start" x="8.72" y="-27.12" font-family="Times,serif" font-size="10.00">reset()</text>
<text xml:space="preserve" text-anchor="start" x="23.72" y="-15.88" font-family="Times,serif" font-size="10.00"> &#160;&#160;&#160;&#160;&#160;&#160;&#160;&#160;&#160;&#160;&#160;</text>
<polygon fill="#00688b" stroke="#00688b" points="0.72,-53.38 0.72,-53.38 73.72,-53.38 73.72,-53.38 0.72,-53.38"/>
<path fill="none" stroke="#00688b" d="M12.72,-5.62C12.72,-5.62 61.72,-5.62 61.72,-5.62 67.72,-5.62 73.72,-11.62 73.72,-17.62 73.72,-17.62 73.72,-71.88 73.72,-71.88 73.72,-77.88 67.72,-83.88 61.72,-83.88 61.72,-83.88 12.72,-83.88 12.72,-83.88 6.72,-83.88 0.72,-77.88 0.72,-71.88 0.72,-71.88 0.72,-17.62 0.72,-17.62 0.72,-11.62 6.72,-5.62 12.72,-5.62"/>
</g>
<!-- Processing&#45;&gt;Done -->
<g id="edge3" class="edge">
<title>Processing&#45;&gt;Done</title>
<path fill="none" stroke="red" d="M67.44,-142.01C64.46,-136.08 61.61,-129.95 59.22,-124 55.47,-114.68 52.1,-104.49 49.2,-94.63"/>
<polygon fill="red" stroke="red" points="52.61,-93.85 46.53,-85.17 45.88,-95.75 52.61,-93.85"/>
<text xml:space="preserve" text-anchor="middle" x="83.22" y="-110.7" font-family="Times,serif" font-size="14.00"> success </text>
</g>
<!-- DeadLettered -->
<g id="node5" class="node">
<title>DeadLettered</title>
<path fill="azure" stroke="none" d="M175.97,-89.5C175.97,-89.5 104.47,-89.5 104.47,-89.5 98.47,-89.5 92.47,-83.5 92.47,-77.5 92.47,-77.5 92.47,-12 92.47,-12 92.47,-6 98.47,0 104.47,0 104.47,0 175.97,0 175.97,0 181.97,0 187.97,-6 187.97,-12 187.97,-12 187.97,-77.5 187.97,-77.5 187.97,-83.5 181.97,-89.5 175.97,-89.5"/>
<text xml:space="preserve" text-anchor="start" x="100.47" y="-69.2" font-family="Times,serif" font-weight="bold" font-size="14.00">DeadLettered</text>
<text xml:space="preserve" text-anchor="start" x="100.47" y="-44" font-family="Times,serif" font-size="10.00">$&gt;()</text>
<text xml:space="preserve" text-anchor="start" x="100.47" y="-32.75" font-family="Times,serif" font-size="10.00">process_tick()</text>
<text xml:space="preserve" text-anchor="start" x="100.47" y="-21.5" font-family="Times,serif" font-size="10.00">reset()</text>
<text xml:space="preserve" text-anchor="start" x="115.47" y="-10.25" font-family="Times,serif" font-size="10.00"> &#160;&#160;&#160;&#160;&#160;&#160;&#160;&#160;&#160;&#160;&#160;</text>
<polygon fill="#00688b" stroke="#00688b" points="92.47,-59 92.47,-59 187.97,-59 187.97,-59 92.47,-59"/>
<path fill="none" stroke="#00688b" d="M104.47,0C104.47,0 175.97,0 175.97,0 181.97,0 187.97,-6 187.97,-12 187.97,-12 187.97,-77.5 187.97,-77.5 187.97,-83.5 181.97,-89.5 175.97,-89.5 175.97,-89.5 104.47,-89.5 104.47,-89.5 98.47,-89.5 92.47,-83.5 92.47,-77.5 92.47,-77.5 92.47,-12 92.47,-12 92.47,-6 98.47,0 104.47,0"/>
</g>
<!-- Processing&#45;&gt;DeadLettered -->
<g id="edge4" class="edge">
<title>Processing&#45;&gt;DeadLettered</title>
<path fill="none" stroke="red" d="M103.56,-142.34C108.54,-129.22 114.22,-114.25 119.61,-100.07"/>
<polygon fill="red" stroke="red" points="122.83,-101.43 123.11,-90.84 116.29,-98.94 122.83,-101.43"/>
<text xml:space="preserve" text-anchor="middle" x="147" y="-110.7" font-family="Times,serif" font-size="14.00"> exhausted </text>
</g>
<!-- Done&#45;&gt;Idle -->
<g id="edge6" class="edge">
<title>Done&#45;&gt;Idle</title>
<path fill="none" stroke="red" d="M19.85,-83.65C5.83,-119.78 -8.98,-175.21 8.22,-220.25 14.39,-236.42 24.93,-251.53 36.4,-264.61"/>
<polygon fill="red" stroke="red" points="33.65,-266.8 43,-271.78 38.8,-262.05 33.65,-266.8"/>
<text xml:space="preserve" text-anchor="middle" x="24.72" y="-176.07" font-family="Times,serif" font-size="14.00"> reset </text>
</g>
<!-- DeadLettered&#45;&gt;Idle -->
<g id="edge7" class="edge">
<title>DeadLettered&#45;&gt;Idle</title>
<path fill="none" stroke="red" d="M173.11,-89.33C176.58,-95.23 179.74,-101.37 182.22,-107.5 201.06,-154.01 208.44,-174.32 188.22,-220.25 180.76,-237.2 168.38,-252.37 154.86,-265.22"/>
<polygon fill="red" stroke="red" points="152.54,-262.6 147.46,-271.9 157.23,-267.8 152.54,-262.6"/>
<text xml:space="preserve" text-anchor="middle" x="216.79" y="-176.07" font-family="Times,serif" font-size="14.00"> reset </text>
</g>
</g>
</svg>
