<?xml version="1.0" encoding="UTF-8" standalone="no"?>
<!DOCTYPE svg PUBLIC "-//W3C//DTD SVG 1.1//EN"
 "http://www.w3.org/Graphics/SVG/1.1/DTD/svg11.dtd">
<!-- Generated by graphviz version 14.1.5 (20260411.2331)
 -->
<!-- Title: DeadLetterProcessor Pages: 1 -->
<svg width="285pt" height="410pt"
 viewBox="0.00 0.00 285.00 410.00" xmlns="http://www.w3.org/2000/svg" xmlns:xlink="http://www.w3.org/1999/xlink">
<g id="graph0" class="graph" transform="scale(1 1) rotate(0) translate(4 406.4)">
<title>DeadLetterProcessor</title>
<polygon fill="white" stroke="none" points="-4,4 -4,-406.4 281.09,-406.4 281.09,4 -4,4"/>
<!-- Entry -->
<g id="node1" class="node">
<title>Entry</title>
<ellipse fill="black" stroke="#00688b" cx="88.49" cy="-395.2" rx="7.2" ry="7.2"/>
</g>
<!-- Idle -->
<g id="node2" class="node">
<title>Idle</title>
<path fill="azure" stroke="none" d="M149.37,-351C149.37,-351 27.62,-351 27.62,-351 21.62,-351 15.62,-345 15.62,-339 15.62,-339 15.62,-284.75 15.62,-284.75 15.62,-278.75 21.62,-272.75 27.62,-272.75 27.62,-272.75 149.37,-272.75 149.37,-272.75 155.37,-272.75 161.37,-278.75 161.37,-284.75 161.37,-284.75 161.37,-339 161.37,-339 161.37,-345 155.37,-351 149.37,-351"/>
<text xml:space="preserve" text-anchor="start" x="77.24" y="-330.7" font-family="Times,serif" font-weight="bold" font-size="14.00">Idle</text>
<text xml:space="preserve" text-anchor="start" x="23.62" y="-305.5" font-family="Times,serif" font-size="10.00">accept(msg_id: str, payload: str)</text>
<text xml:space="preserve" text-anchor="start" x="23.62" y="-294.25" font-family="Times,serif" font-size="10.00">process_tick()</text>
<text xml:space="preserve" text-anchor="start" x="74.99" y="-283" font-family="Times,serif" font-size="10.00"> &#160;&#160;&#160;&#160;&#160;&#160;&#160;&#160;&#160;&#160;&#160;</text>
<polygon fill="#00688b" stroke="#00688b" points="15.62,-320.5 15.62,-320.5 161.37,-320.5 161.37,-320.5 15.62,-320.5"/>
<path fill="none" stroke="#00688b" d="M27.62,-272.75C27.62,-272.75 149.37,-272.75 149.37,-272.75 155.37,-272.75 161.37,-278.75 161.37,-284.75 161.37,-284.75 161.37,-339 161.37,-339 161.37,-345 155.37,-351 149.37,-351 149.37,-351 27.62,-351 27.62,-351 21.62,-351 15.62,-345 15.62,-339 15.62,-339 15.62,-284.75 15.62,-284.75 15.62,-278.75 21.62,-272.75 27.62,-272.75"/>
</g>
<!-- Entry&#45;&gt;Idle -->
<g id="edge1" class="edge">
<title>Entry&#45;&gt;Idle</title>
<path fill="none" stroke="red" d="M88.49,-387.54C88.49,-381.53 88.49,-372.07 88.49,-361.88"/>
<polygon fill="red" stroke="red" points="91.99,-362.19 88.49,-352.19 84.99,-362.19 91.99,-362.19"/>
</g>
<!-- Processing -->
<g id="node3" class="node">
<title>Processing</title>
<path fill="azure" stroke="none" d="M115.24,-220.25C115.24,-220.25 61.74,-220.25 61.74,-220.25 55.74,-220.25 49.74,-214.25 49.74,-208.25 49.74,-208.25 49.74,-154 49.74,-154 49.74,-148 55.74,-142 61.74,-142 61.74,-142 115.24,-142 115.24,-142 121.24,-142 127.24,-148 127.24,-154 127.24,-154 127.24,-208.25 127.24,-208.25 127.24,-214.25 121.24,-220.25 115.24,-220.25"/>
<text xml:space="preserve" text-anchor="start" x="57.74" y="-199.95" font-family="Times,serif" font-weight="bold" font-size="14.00">Processing</text>
<text xml:space="preserve" text-anchor="start" x="57.74" y="-174.75" font-family="Times,serif" font-size="10.00">$&gt;()</text>
<text xml:space="preserve" text-anchor="start" x="57.74" y="-163.5" font-family="Times,serif" font-size="10.00">process_tick()</text>
<text xml:space="preserve" text-anchor="start" x="72.74" y="-152.25" font-family="Times,serif" font-size="10.00"> &#160;&#160;&#160;&#160;&#160;&#160;&#160;&#160;&#160;&#160;&#160;</text>
<polygon fill="#00688b" stroke="#00688b" points="49.74,-189.75 49.74,-189.75 127.24,-189.75 127.24,-189.75 49.74,-189.75"/>
<path fill="none" stroke="#00688b" d="M61.74,-142C61.74,-142 115.24,-142 115.24,-142 121.24,-142 127.24,-148 127.24,-154 127.24,-154 127.24,-208.25 127.24,-208.25 127.24,-214.25 121.24,-220.25 115.24,-220.25 115.24,-220.25 61.74,-220.25 61.74,-220.25 55.74,-220.25 49.74,-214.25 49.74,-208.25 49.74,-208.25 49.74,-154 49.74,-154 49.74,-148 55.74,-142 61.74,-142"/>
</g>
<!-- Idle&#45;&gt;Processing -->
<g id="edge2" class="edge">
<title>Idle&#45;&gt;Processing</title>
<path fill="none" stroke="red" d="M88.49,-272.94C88.49,-259.96 88.49,-245.24 88.49,-231.49"/>
<polygon fill="red" stroke="red" points="91.99,-231.75 88.49,-221.75 84.99,-231.75 91.99,-231.75"/>
<text xml:space="preserve" text-anchor="middle" x="109.49" y="-241.45" font-family="Times,serif" font-size="14.00"> accept </text>
</g>
<!-- Processing&#45;&gt;Processing -->
<g id="edge5" class="edge">
<title>Processing&#45;&gt;Processing</title>
<path fill="none" stroke="red" d="M127.22,-193.28C137.48,-192.58 145.24,-188.53 145.24,-181.12 145.24,-176.73 142.51,-173.51 138.13,-171.48"/>
<polygon fill="red" stroke="red" points="139.22,-168.14 128.69,-169.31 137.66,-174.96 139.22,-168.14"/>
<text xml:space="preserve" text-anchor="middle" x="182.74" y="-176.07" font-family="Times,serif" font-size="14.00"> process_tick </text>
</g>
<!-- Done -->
<g id="node4" class="node">
<title>Done</title>
<path fill="azure" stroke="none" d="M68.99,-83.88C68.99,-83.88 19.99,-83.88 19.99,-83.88 13.99,-83.88 7.99,-77.88 7.99,-71.88 7.99,-71.88 7.99,-17.62 7.99,-17.62 7.99,-11.62 13.99,-5.62 19.99,-5.62 19.99,-5.62 68.99,-5.62 68.99,-5.62 74.99,-5.62 80.99,-11.62 80.99,-17.62 80.99,-17.62 80.99,-71.88 80.99,-71.88 80.99,-77.88 74.99,-83.88 68.99,-83.88"/>
<text xml:space="preserve" text-anchor="start" x="29.49" y="-63.58" font-family="Times,serif" font-weight="bold" font-size="14.00">Done</text>
<text xml:space="preserve" text-anchor="start" x="15.99" y="-38.38" font-family="Times,serif" font-size="10.00">process_tick()</text>
<text xml:space="preserve" text-anchor="start" x="15.99" y="-27.12" font-family="Times,serif" font-size="10.00">reset()</text>
<text xml:space="preserve" text-anchor="start" x="30.99" y="-15.88" font-family="Times,serif" font-size="10.00"> &#160;&#160;&#160;&#160;&#160;&#160;&#160;&#160;&#160;&#160;&#160;</text>
<polygon fill="#00688b" stroke="#00688b" points="7.99,-53.38 7.99,-53.38 80.99,-53.38 80.99,-53.38 7.99,-53.38"/>
<path fill="none" stroke="#00688b" d="M19.99,-5.62C19.99,-5.62 68.99,-5.62 68.99,-5.62 74.99,-5.62 80.99,-11.62 80.99,-17.62 80.99,-17.62 80.99,-71.88 80.99,-71.88 80.99,-77.88 74.99,-83.88 68.99,-83.88 68.99,-83.88 19.99,-83.88 19.99,-83.88 13.99,-83.88 7.99,-77.88 7.99,-71.88 7.99,-71.88 7.99,-17.62 7.99,-17.62 7.99,-11.62 13.99,-5.62 19.99,-5.62"/>
</g>
<!-- Processing&#45;&gt;Done -->
<g id="edge3" class="edge">
<title>Processing&#45;&gt;Done</title>
<path fill="none" stroke="red" d="M67.02,-142.13C64.2,-136.18 61.57,-130.01 59.49,-124 56.31,-114.79 53.74,-104.73 51.69,-94.97"/>
<polygon fill="red" stroke="red" points="55.14,-94.38 49.8,-85.22 48.27,-95.71 55.14,-94.38"/>
<text xml:space="preserve" text-anchor="middle" x="96.99" y="-110.7" font-family="Times,serif" font-size="14.00"> process_tick </text>
</g>
<!-- DeadLettered -->
<g id="node5" class="node">
<title>DeadLettered</title>
<path fill="azure" stroke="none" d="M196.24,-89.5C196.24,-89.5 124.74,-89.5 124.74,-89.5 118.74,-89.5 112.74,-83.5 112.74,-77.5 112.74,-77.5 112.74,-12 112.74,-12 112.74,-6 118.74,0 124.74,0 124.74,0 196.24,0 196.24,0 202.24,0 208.24,-6 208.24,-12 208.24,-12 208.24,-77.5 208.24,-77.5 208.24,-83.5 202.24,-89.5 196.24,-89.5"/>
<text xml:space="preserve" text-anchor="start" x="120.74" y="-69.2" font-family="Times,serif" font-weight="bold" font-size="14.00">DeadLettered</text>
<text xml:space="preserve" text-anchor="start" x="120.74" y="-44" font-family="Times,serif" font-size="10.00">$&gt;()</text>
<text xml:space="preserve" text-anchor="start" x="120.74" y="-32.75" font-family="Times,serif" font-size="10.00">process_tick()</text>
<text xml:space="preserve" text-anchor="start" x="120.74" y="-21.5" font-family="Times,serif" font-size="10.00">reset()</text>
<text xml:space="preserve" text-anchor="start" x="135.74" y="-10.25" font-family="Times,serif" font-size="10.00"> &#160;&#160;&#160;&#160;&#160;&#160;&#160;&#160;&#160;&#160;&#160;</text>
<polygon fill="#00688b" stroke="#00688b" points="112.74,-59 112.74,-59 208.24,-59 208.24,-59 112.74,-59"/>
<path fill="none" stroke="#00688b" d="M124.74,0C124.74,0 196.24,0 196.24,0 202.24,0 208.24,-6 208.24,-12 208.24,-12 208.24,-77.5 208.24,-77.5 208.24,-83.5 202.24,-89.5 196.24,-89.5 196.24,-89.5 124.74,-89.5 124.74,-89.5 118.74,-89.5 112.74,-83.5 112.74,-77.5 112.74,-77.5 112.74,-12 112.74,-12 112.74,-6 118.74,0 124.74,0"/>
</g>
<!-- Processing&#45;&gt;DeadLettered -->
<g id="edge4" class="edge">
<title>Processing&#45;&gt;DeadLettered</title>
<path fill="none" stroke="red" d="M122.62,-142.2C126.97,-136.34 131.09,-130.18 134.49,-124 138.63,-116.5 142.25,-108.24 145.37,-99.98"/>
<polygon fill="red" stroke="red" points="148.65,-101.2 148.68,-90.6 142.05,-98.86 148.65,-101.2"/>
<text xml:space="preserve" text-anchor="middle" x="179.77" y="-110.7" font-family="Times,serif" font-size="14.00"> process_tick </text>
</g>
<!-- Done&#45;&gt;Idle -->
<g id="edge6" class="edge">
<title>Done&#45;&gt;Idle</title>
<path fill="none" stroke="red" d="M24.24,-83.82C7.88,-119.84 -9.79,-174.97 7.49,-220.25 13.67,-236.42 24.2,-251.53 35.67,-264.61"/>
<polygon fill="red" stroke="red" points="32.93,-266.8 42.28,-271.78 38.07,-262.05 32.93,-266.8"/>
<text xml:space="preserve" text-anchor="middle" x="23.99" y="-176.07" font-family="Times,serif" font-size="14.00"> reset </text>
</g>
<!-- DeadLettered&#45;&gt;Idle -->
<g id="edge7" class="edge">
<title>DeadLettered&#45;&gt;Idle</title>
<path fill="none" stroke="red" d="M208.06,-88.17C213.13,-94.27 217.79,-100.77 221.49,-107.5 245.74,-151.5 253.57,-176.16 229.49,-220.25 216.44,-244.16 194.07,-262.71 170.95,-276.61"/>
<polygon fill="red" stroke="red" points="169.28,-273.53 162.34,-281.53 172.76,-279.61 169.28,-273.53"/>
<text xml:space="preserve" text-anchor="middle" x="260.59" y="-176.07" font-family="Times,serif" font-size="14.00"> reset </text>
</g>
</g>
</svg>
