<?xml version="1.0" encoding="UTF-8" standalone="no"?>
<!DOCTYPE svg PUBLIC "-//W3C//DTD SVG 1.1//EN"
 "http://www.w3.org/Graphics/SVG/1.1/DTD/svg11.dtd">
<!-- Generated by graphviz version 14.1.5 (20260411.2331)
 -->
<!-- Title: PollingConsumer Pages: 1 -->
<svg width="295pt" height="485pt"
 viewBox="0.00 0.00 295.00 485.00" xmlns="http://www.w3.org/2000/svg" xmlns:xlink="http://www.w3.org/1999/xlink">
<g id="graph0" class="graph" transform="scale(1 1) rotate(0) translate(4 481.4)">
<title>PollingConsumer</title>
<polygon fill="white" stroke="none" points="-4,4 -4,-481.4 291,-481.4 291,4 -4,4"/>
<g id="clust1" class="cluster">
<title>cluster_Active</title>
<path fill="none" stroke="black" d="M20,-8C20,-8 267,-8 267,-8 273,-8 279,-14 279,-20 279,-20 279,-282 279,-282 279,-288 273,-294 267,-294 267,-294 20,-294 20,-294 14,-294 8,-288 8,-282 8,-282 8,-20 8,-20 8,-14 14,-8 20,-8"/>
<text xml:space="preserve" text-anchor="start" x="125.5" y="-273.25" font-family="Times,serif" font-size="14.00">Active</text>
<text xml:space="preserve" text-anchor="start" x="125.5" y="-254.5" font-family="Times,serif" font-size="10.00">stop()</text>
<text xml:space="preserve" text-anchor="start" x="125.5" y="-243.25" font-family="Times,serif" font-size="10.00"> &#160;&#160;&#160;&#160;&#160;&#160;&#160;&#160;&#160;&#160;&#160;&#160;&#160;&#160;&#160;</text>
<polygon fill="black" stroke="black" points="121.5,-266.5 121.5,-266.5 165.5,-266.5 165.5,-266.5 121.5,-266.5"/>
</g>
<!-- Entry -->
<g id="node1" class="node">
<title>Entry</title>
<ellipse fill="black" stroke="#00688b" cx="165" cy="-470.2" rx="7.2" ry="7.2"/>
</g>
<!-- Stopped -->
<g id="node2" class="node">
<title>Stopped</title>
<path fill="azure" stroke="none" d="M186.88,-426C186.88,-426 143.12,-426 143.12,-426 137.12,-426 131.12,-420 131.12,-414 131.12,-414 131.12,-348.5 131.12,-348.5 131.12,-342.5 137.12,-336.5 143.12,-336.5 143.12,-336.5 186.88,-336.5 186.88,-336.5 192.88,-336.5 198.88,-342.5 198.88,-348.5 198.88,-348.5 198.88,-414 198.88,-414 198.88,-420 192.88,-426 186.88,-426"/>
<text xml:space="preserve" text-anchor="start" x="141.38" y="-405.7" font-family="Times,serif" font-weight="bold" font-size="14.00">Stopped</text>
<text xml:space="preserve" text-anchor="start" x="139.12" y="-380.5" font-family="Times,serif" font-size="10.00">start()</text>
<text xml:space="preserve" text-anchor="start" x="139.12" y="-369.25" font-family="Times,serif" font-size="10.00">tick()</text>
<text xml:space="preserve" text-anchor="start" x="139.12" y="-358" font-family="Times,serif" font-size="10.00">state_name()</text>
<text xml:space="preserve" text-anchor="start" x="151.5" y="-346.75" font-family="Times,serif" font-size="10.00"> &#160;&#160;&#160;&#160;&#160;&#160;&#160;&#160;&#160;&#160;&#160;</text>
<polygon fill="#00688b" stroke="#00688b" points="131.12,-395.5 131.12,-395.5 198.88,-395.5 198.88,-395.5 131.12,-395.5"/>
<path fill="none" stroke="#00688b" d="M143.12,-336.5C143.12,-336.5 186.88,-336.5 186.88,-336.5 192.88,-336.5 198.88,-342.5 198.88,-348.5 198.88,-348.5 198.88,-414 198.88,-414 198.88,-420 192.88,-426 186.88,-426 186.88,-426 143.12,-426 143.12,-426 137.12,-426 131.12,-420 131.12,-414 131.12,-414 131.12,-348.5 131.12,-348.5 131.12,-342.5 137.12,-336.5 143.12,-336.5"/>
</g>
<!-- Entry&#45;&gt;Stopped -->
<g id="edge1" class="edge">
<title>Entry&#45;&gt;Stopped</title>
<path fill="none" stroke="red" d="M165,-462.66C165,-456.75 165,-447.41 165,-437.16"/>
<polygon fill="red" stroke="red" points="168.5,-437.31 165,-427.31 161.5,-437.31 168.5,-437.31"/>
</g>
<!-- Polling -->
<g id="node4" class="node">
<title>Polling</title>
<path fill="azure" stroke="none" d="M159.88,-225C159.88,-225 116.12,-225 116.12,-225 110.12,-225 104.12,-219 104.12,-213 104.12,-213 104.12,-158.75 104.12,-158.75 104.12,-152.75 110.12,-146.75 116.12,-146.75 116.12,-146.75 159.88,-146.75 159.88,-146.75 165.88,-146.75 171.88,-152.75 171.88,-158.75 171.88,-158.75 171.88,-213 171.88,-213 171.88,-219 165.88,-225 159.88,-225"/>
<text xml:space="preserve" text-anchor="start" x="117.75" y="-204.7" font-family="Times,serif" font-weight="bold" font-size="14.00">Polling</text>
<text xml:space="preserve" text-anchor="start" x="112.12" y="-179.5" font-family="Times,serif" font-size="10.00">tick()</text>
<text xml:space="preserve" text-anchor="start" x="112.12" y="-168.25" font-family="Times,serif" font-size="10.00">state_name()</text>
<text xml:space="preserve" text-anchor="start" x="120" y="-157" font-family="Times,serif" font-size="10.00"> &#160;&#160;&#160;&#160;&#160;&#160;&#160;&#160;&#160;&#160;&#160;&#160;&#160;&#160;&#160;</text>
<polygon fill="#00688b" stroke="#00688b" points="104.12,-194.5 104.12,-194.5 171.88,-194.5 171.88,-194.5 104.12,-194.5"/>
<path fill="none" stroke="#00688b" d="M116.12,-146.75C116.12,-146.75 159.88,-146.75 159.88,-146.75 165.88,-146.75 171.88,-152.75 171.88,-158.75 171.88,-158.75 171.88,-213 171.88,-213 171.88,-219 165.88,-225 159.88,-225 159.88,-225 116.12,-225 116.12,-225 110.12,-225 104.12,-219 104.12,-213 104.12,-213 104.12,-158.75 104.12,-158.75 104.12,-152.75 110.12,-146.75 116.12,-146.75"/>
</g>
<!-- Stopped&#45;&gt;Polling -->
<g id="edge2" class="edge">
<title>Stopped&#45;&gt;Polling</title>
<path fill="none" stroke="red" d="M144.44,-336.72C142.32,-330.71 140.49,-324.53 139.25,-318.5 133.74,-291.64 133.12,-261.04 134.02,-236.11"/>
<polygon fill="red" stroke="red" points="137.51,-236.39 134.48,-226.24 130.52,-236.06 137.51,-236.39"/>
<text xml:space="preserve" text-anchor="middle" x="154.62" y="-305.2" font-family="Times,serif" font-size="14.00"> start </text>
</g>
<!-- Active -->
<g id="node3" class="node">
<title>Active</title>
<ellipse fill="azure" stroke="#00688b" cx="192" cy="-185.88" rx="0.36" ry="0.36"/>
</g>
<!-- Active&#45;&gt;Stopped -->
<g id="edge7" class="edge">
<title>Active&#45;&gt;Stopped</title>
<path fill="none" stroke="red" d="M181,-294C179.52,-304.3 177.69,-315.24 175.8,-325.75"/>
<polygon fill="red" stroke="red" points="172.39,-324.97 174.02,-335.44 179.27,-326.24 172.39,-324.97"/>
<text xml:space="preserve" text-anchor="middle" x="194.58" y="-305.2" font-family="Times,serif" font-size="14.00"> stop </text>
</g>
<!-- Handling -->
<g id="node5" class="node">
<title>Handling</title>
<path fill="azure" stroke="none" d="M111.38,-94.25C111.38,-94.25 64.62,-94.25 64.62,-94.25 58.62,-94.25 52.62,-88.25 52.62,-82.25 52.62,-82.25 52.62,-28 52.62,-28 52.62,-22 58.62,-16 64.62,-16 64.62,-16 111.38,-16 111.38,-16 117.38,-16 123.38,-22 123.38,-28 123.38,-28 123.38,-82.25 123.38,-82.25 123.38,-88.25 117.38,-94.25 111.38,-94.25"/>
<text xml:space="preserve" text-anchor="start" x="60.62" y="-73.95" font-family="Times,serif" font-weight="bold" font-size="14.00">Handling</text>
<text xml:space="preserve" text-anchor="start" x="60.62" y="-48.75" font-family="Times,serif" font-size="10.00">$&gt;()</text>
<text xml:space="preserve" text-anchor="start" x="60.62" y="-37.5" font-family="Times,serif" font-size="10.00">state_name()</text>
<text xml:space="preserve" text-anchor="start" x="68.5" y="-26.25" font-family="Times,serif" font-size="10.00"> &#160;&#160;&#160;&#160;&#160;&#160;&#160;&#160;&#160;&#160;&#160;&#160;&#160;&#160;&#160;</text>
<polygon fill="#00688b" stroke="#00688b" points="52.62,-63.75 52.62,-63.75 123.38,-63.75 123.38,-63.75 52.62,-63.75"/>
<path fill="none" stroke="#00688b" d="M64.62,-16C64.62,-16 111.38,-16 111.38,-16 117.38,-16 123.38,-22 123.38,-28 123.38,-28 123.38,-82.25 123.38,-82.25 123.38,-88.25 117.38,-94.25 111.38,-94.25 111.38,-94.25 64.62,-94.25 64.62,-94.25 58.62,-94.25 52.62,-88.25 52.62,-82.25 52.62,-82.25 52.62,-28 52.62,-28 52.62,-22 58.62,-16 64.62,-16"/>
</g>
<!-- Polling&#45;&gt;Handling -->
<g id="edge4" class="edge">
<title>Polling&#45;&gt;Handling</title>
<path fill="none" stroke="red" d="M104.36,-176.31C80.54,-168.3 50.29,-153.71 35.5,-128.75 27.51,-115.26 33.94,-101.15 44.68,-88.98"/>
<polygon fill="red" stroke="red" points="47.06,-91.55 51.61,-81.98 42.09,-86.62 47.06,-91.55"/>
<text xml:space="preserve" text-anchor="middle" x="61.75" y="-115.45" font-family="Times,serif" font-size="14.00"> dispatch </text>
</g>
<!-- Idle -->
<g id="node6" class="node">
<title>Idle</title>
<path fill="azure" stroke="none" d="M210.88,-94.25C210.88,-94.25 167.12,-94.25 167.12,-94.25 161.12,-94.25 155.12,-88.25 155.12,-82.25 155.12,-82.25 155.12,-28 155.12,-28 155.12,-22 161.12,-16 167.12,-16 167.12,-16 210.88,-16 210.88,-16 216.88,-16 222.88,-22 222.88,-28 222.88,-28 222.88,-82.25 222.88,-82.25 222.88,-88.25 216.88,-94.25 210.88,-94.25"/>
<text xml:space="preserve" text-anchor="start" x="177.75" y="-73.95" font-family="Times,serif" font-weight="bold" font-size="14.00">Idle</text>
<text xml:space="preserve" text-anchor="start" x="163.12" y="-48.75" font-family="Times,serif" font-size="10.00">tick()</text>
<text xml:space="preserve" text-anchor="start" x="163.12" y="-37.5" font-family="Times,serif" font-size="10.00">state_name()</text>
<text xml:space="preserve" text-anchor="start" x="171" y="-26.25" font-family="Times,serif" font-size="10.00"> &#160;&#160;&#160;&#160;&#160;&#160;&#160;&#160;&#160;&#160;&#160;&#160;&#160;&#160;&#160;</text>
<polygon fill="#00688b" stroke="#00688b" points="155.12,-63.75 155.12,-63.75 222.88,-63.75 222.88,-63.75 155.12,-63.75"/>
<path fill="none" stroke="#00688b" d="M167.12,-16C167.12,-16 210.88,-16 210.88,-16 216.88,-16 222.88,-22 222.88,-28 222.88,-28 222.88,-82.25 222.88,-82.25 222.88,-88.25 216.88,-94.25 210.88,-94.25 210.88,-94.25 167.12,-94.25 167.12,-94.25 161.12,-94.25 155.12,-88.25 155.12,-82.25 155.12,-82.25 155.12,-28 155.12,-28 155.12,-22 161.12,-16 167.12,-16"/>
</g>
<!-- Polling&#45;&gt;Idle -->
<g id="edge3" class="edge">
<title>Polling&#45;&gt;Idle</title>
<path fill="none" stroke="red" d="M153.03,-146.94C158.27,-133.7 164.23,-118.66 169.77,-104.67"/>
<polygon fill="red" stroke="red" points="172.92,-106.22 173.35,-95.64 166.41,-103.65 172.92,-106.22"/>
<text xml:space="preserve" text-anchor="middle" x="192.8" y="-115.45" font-family="Times,serif" font-size="14.00"> no work </text>
</g>
<!-- Handling&#45;&gt;Polling -->
<g id="edge5" class="edge">
<title>Handling&#45;&gt;Polling</title>
<path fill="none" stroke="red" d="M99.11,-94.16C102.68,-105.41 106.86,-117.67 111.25,-128.75 112.24,-131.25 113.29,-133.79 114.38,-136.35"/>
<polygon fill="red" stroke="red" points="111.16,-137.73 118.41,-145.45 117.56,-134.89 111.16,-137.73"/>
<text xml:space="preserve" text-anchor="middle" x="128.12" y="-115.45" font-family="Times,serif" font-size="14.00"> done </text>
</g>
<!-- Idle&#45;&gt;Polling -->
<g id="edge6" class="edge">
<title>Idle&#45;&gt;Polling</title>
<path fill="none" stroke="red" d="M219.92,-94.17C225.55,-105.65 227.78,-118.04 221,-128.75 211.01,-144.54 198.71,-136.62 183,-146.75 182.29,-147.21 181.58,-147.68 180.87,-148.15"/>
<polygon fill="red" stroke="red" points="178.98,-145.2 172.91,-153.88 183.07,-150.88 178.98,-145.2"/>
<text xml:space="preserve" text-anchor="middle" x="239.07" y="-115.45" font-family="Times,serif" font-size="14.00"> tick </text>
</g>
</g>
</svg>
