<?xml version="1.0" encoding="UTF-8" standalone="no"?>
<!DOCTYPE svg PUBLIC "-//W3C//DTD SVG 1.1//EN"
 "http://www.w3.org/Graphics/SVG/1.1/DTD/svg11.dtd">
<!-- Generated by graphviz version 14.1.5 (20260411.2331)
 -->
<!-- Title: PollingConsumer Pages: 1 -->
<svg width="234pt" height="463pt"
 viewBox="0.00 0.00 234.00 463.00" xmlns="http://www.w3.org/2000/svg" xmlns:xlink="http://www.w3.org/1999/xlink">
<g id="graph0" class="graph" transform="scale(1 1) rotate(0) translate(4 458.9)">
<title>PollingConsumer</title>
<polygon fill="white" stroke="none" points="-4,4 -4,-458.9 230,-458.9 230,4 -4,4"/>
<g id="clust1" class="cluster">
<title>cluster_Active</title>
<path fill="none" stroke="black" d="M20,-8C20,-8 206,-8 206,-8 212,-8 218,-14 218,-20 218,-20 218,-259.5 218,-259.5 218,-265.5 212,-271.5 206,-271.5 206,-271.5 20,-271.5 20,-271.5 14,-271.5 8,-265.5 8,-259.5 8,-259.5 8,-20 8,-20 8,-14 14,-8 20,-8"/>
<text xml:space="preserve" text-anchor="start" x="95" y="-250.75" font-family="Times,serif" font-size="14.00">Active</text>
<polygon fill="black" stroke="black" points="91,-244 91,-244 135,-244 135,-244 91,-244"/>
</g>
<!-- Entry -->
<g id="node1" class="node">
<title>Entry</title>
<ellipse fill="black" stroke="#00688b" cx="135" cy="-447.7" rx="7.2" ry="7.2"/>
</g>
<!-- Stopped -->
<g id="node2" class="node">
<title>Stopped</title>
<path fill="azure" stroke="none" d="M156.88,-403.5C156.88,-403.5 113.12,-403.5 113.12,-403.5 107.12,-403.5 101.12,-397.5 101.12,-391.5 101.12,-391.5 101.12,-326 101.12,-326 101.12,-320 107.12,-314 113.12,-314 113.12,-314 156.88,-314 156.88,-314 162.88,-314 168.88,-320 168.88,-326 168.88,-326 168.88,-391.5 168.88,-391.5 168.88,-397.5 162.88,-403.5 156.88,-403.5"/>
<text xml:space="preserve" text-anchor="start" x="111.38" y="-383.2" font-family="Times,serif" font-weight="bold" font-size="14.00">Stopped</text>
<text xml:space="preserve" text-anchor="start" x="109.12" y="-358" font-family="Times,serif" font-size="10.00">start()</text>
<text xml:space="preserve" text-anchor="start" x="109.12" y="-346.75" font-family="Times,serif" font-size="10.00">tick()</text>
<text xml:space="preserve" text-anchor="start" x="109.12" y="-335.5" font-family="Times,serif" font-size="10.00">state_name()</text>
<text xml:space="preserve" text-anchor="start" x="121.5" y="-324.25" font-family="Times,serif" font-size="10.00"> &#160;&#160;&#160;&#160;&#160;&#160;&#160;&#160;&#160;&#160;&#160;</text>
<polygon fill="#00688b" stroke="#00688b" points="101.12,-373 101.12,-373 168.88,-373 168.88,-373 101.12,-373"/>
<path fill="none" stroke="#00688b" d="M113.12,-314C113.12,-314 156.88,-314 156.88,-314 162.88,-314 168.88,-320 168.88,-326 168.88,-326 168.88,-391.5 168.88,-391.5 168.88,-397.5 162.88,-403.5 156.88,-403.5 156.88,-403.5 113.12,-403.5 113.12,-403.5 107.12,-403.5 101.12,-397.5 101.12,-391.5 101.12,-391.5 101.12,-326 101.12,-326 101.12,-320 107.12,-314 113.12,-314"/>
</g>
<!-- Entry&#45;&gt;Stopped -->
<g id="edge1" class="edge">
<title>Entry&#45;&gt;Stopped</title>
<path fill="none" stroke="red" d="M135,-440.16C135,-434.25 135,-424.91 135,-414.66"/>
<polygon fill="red" stroke="red" points="138.5,-414.81 135,-404.81 131.5,-414.81 138.5,-414.81"/>
</g>
<!-- Polling -->
<g id="node4" class="node">
<title>Polling</title>
<path fill="azure" stroke="none" d="M129.88,-225C129.88,-225 86.12,-225 86.12,-225 80.12,-225 74.12,-219 74.12,-213 74.12,-213 74.12,-158.75 74.12,-158.75 74.12,-152.75 80.12,-146.75 86.12,-146.75 86.12,-146.75 129.88,-146.75 129.88,-146.75 135.88,-146.75 141.88,-152.75 141.88,-158.75 141.88,-158.75 141.88,-213 141.88,-213 141.88,-219 135.88,-225 129.88,-225"/>
<text xml:space="preserve" text-anchor="start" x="87.75" y="-204.7" font-family="Times,serif" font-weight="bold" font-size="14.00">Polling</text>
<text xml:space="preserve" text-anchor="start" x="82.12" y="-179.5" font-family="Times,serif" font-size="10.00">tick()</text>
<text xml:space="preserve" text-anchor="start" x="82.12" y="-168.25" font-family="Times,serif" font-size="10.00">state_name()</text>
<text xml:space="preserve" text-anchor="start" x="90" y="-157" font-family="Times,serif" font-size="10.00"> &#160;&#160;&#160;&#160;&#160;&#160;&#160;&#160;&#160;&#160;&#160;&#160;&#160;&#160;&#160;</text>
<polygon fill="#00688b" stroke="#00688b" points="74.12,-194.5 74.12,-194.5 141.88,-194.5 141.88,-194.5 74.12,-194.5"/>
<path fill="none" stroke="#00688b" d="M86.12,-146.75C86.12,-146.75 129.88,-146.75 129.88,-146.75 135.88,-146.75 141.88,-152.75 141.88,-158.75 141.88,-158.75 141.88,-213 141.88,-213 141.88,-219 135.88,-225 129.88,-225 129.88,-225 86.12,-225 86.12,-225 80.12,-225 74.12,-219 74.12,-213 74.12,-213 74.12,-158.75 74.12,-158.75 74.12,-152.75 80.12,-146.75 86.12,-146.75"/>
</g>
<!-- Stopped&#45;&gt;Polling -->
<g id="edge2" class="edge">
<title>Stopped&#45;&gt;Polling</title>
<path fill="none" stroke="red" d="M114.45,-314.22C112.32,-308.21 110.49,-302.03 109.25,-296 105.27,-276.71 104.32,-255.1 104.59,-236.23"/>
<polygon fill="red" stroke="red" points="108.09,-236.49 104.86,-226.39 101.09,-236.29 108.09,-236.49"/>
<text xml:space="preserve" text-anchor="middle" x="124.62" y="-282.7" font-family="Times,serif" font-size="14.00"> start </text>
</g>
<!-- Active -->
<g id="node3" class="node">
<title>Active</title>
<ellipse fill="azure" stroke="#00688b" cx="162" cy="-185.88" rx="0.36" ry="0.36"/>
</g>
<!-- Active&#45;&gt;Stopped -->
<g id="edge7" class="edge">
<title>Active&#45;&gt;Stopped</title>
<path fill="none" stroke="red" d="M151,-271.5C149.38,-281.77 147.49,-292.71 145.58,-303.21"/>
<polygon fill="red" stroke="red" points="142.16,-302.44 143.79,-312.91 149.05,-303.71 142.16,-302.44"/>
<text xml:space="preserve" text-anchor="middle" x="164.48" y="-282.7" font-family="Times,serif" font-size="14.00"> stop </text>
</g>
<!-- Handling -->
<g id="node5" class="node">
<title>Handling</title>
<path fill="azure" stroke="none" d="M91.38,-94.25C91.38,-94.25 44.62,-94.25 44.62,-94.25 38.62,-94.25 32.62,-88.25 32.62,-82.25 32.62,-82.25 32.62,-28 32.62,-28 32.62,-22 38.62,-16 44.62,-16 44.62,-16 91.38,-16 91.38,-16 97.38,-16 103.38,-22 103.38,-28 103.38,-28 103.38,-82.25 103.38,-82.25 103.38,-88.25 97.38,-94.25 91.38,-94.25"/>
<text xml:space="preserve" text-anchor="start" x="40.62" y="-73.95" font-family="Times,serif" font-weight="bold" font-size="14.00">Handling</text>
<text xml:space="preserve" text-anchor="start" x="40.62" y="-48.75" font-family="Times,serif" font-size="10.00">$&gt;()</text>
<text xml:space="preserve" text-anchor="start" x="40.62" y="-37.5" font-family="Times,serif" font-size="10.00">state_name()</text>
<text xml:space="preserve" text-anchor="start" x="48.5" y="-26.25" font-family="Times,serif" font-size="10.00"> &#160;&#160;&#160;&#160;&#160;&#160;&#160;&#160;&#160;&#160;&#160;&#160;&#160;&#160;&#160;</text>
<polygon fill="#00688b" stroke="#00688b" points="32.62,-63.75 32.62,-63.75 103.38,-63.75 103.38,-63.75 32.62,-63.75"/>
<path fill="none" stroke="#00688b" d="M44.62,-16C44.62,-16 91.38,-16 91.38,-16 97.38,-16 103.38,-22 103.38,-28 103.38,-28 103.38,-82.25 103.38,-82.25 103.38,-88.25 97.38,-94.25 91.38,-94.25 91.38,-94.25 44.62,-94.25 44.62,-94.25 38.62,-94.25 32.62,-88.25 32.62,-82.25 32.62,-82.25 32.62,-28 32.62,-28 32.62,-22 38.62,-16 44.62,-16"/>
</g>
<!-- Polling&#45;&gt;Handling -->
<g id="edge4" class="edge">
<title>Polling&#45;&gt;Handling</title>
<path fill="none" stroke="red" d="M74.23,-168.02C59.39,-158.66 43.48,-145.5 35.25,-128.75 31.43,-120.98 31.44,-112.67 33.63,-104.55"/>
<polygon fill="red" stroke="red" points="36.8,-106.05 37.08,-95.46 30.26,-103.56 36.8,-106.05"/>
<text xml:space="preserve" text-anchor="middle" x="49.12" y="-115.45" font-family="Times,serif" font-size="14.00"> tick </text>
</g>
<!-- Idle -->
<g id="node6" class="node">
<title>Idle</title>
<path fill="azure" stroke="none" d="M186.88,-94.25C186.88,-94.25 143.12,-94.25 143.12,-94.25 137.12,-94.25 131.12,-88.25 131.12,-82.25 131.12,-82.25 131.12,-28 131.12,-28 131.12,-22 137.12,-16 143.12,-16 143.12,-16 186.88,-16 186.88,-16 192.88,-16 198.88,-22 198.88,-28 198.88,-28 198.88,-82.25 198.88,-82.25 198.88,-88.25 192.88,-94.25 186.88,-94.25"/>
<text xml:space="preserve" text-anchor="start" x="153.75" y="-73.95" font-family="Times,serif" font-weight="bold" font-size="14.00">Idle</text>
<text xml:space="preserve" text-anchor="start" x="139.12" y="-48.75" font-family="Times,serif" font-size="10.00">tick()</text>
<text xml:space="preserve" text-anchor="start" x="139.12" y="-37.5" font-family="Times,serif" font-size="10.00">state_name()</text>
<text xml:space="preserve" text-anchor="start" x="147" y="-26.25" font-family="Times,serif" font-size="10.00"> &#160;&#160;&#160;&#160;&#160;&#160;&#160;&#160;&#160;&#160;&#160;&#160;&#160;&#160;&#160;</text>
<polygon fill="#00688b" stroke="#00688b" points="131.12,-63.75 131.12,-63.75 198.88,-63.75 198.88,-63.75 131.12,-63.75"/>
<path fill="none" stroke="#00688b" d="M143.12,-16C143.12,-16 186.88,-16 186.88,-16 192.88,-16 198.88,-22 198.88,-28 198.88,-28 198.88,-82.25 198.88,-82.25 198.88,-88.25 192.88,-94.25 186.88,-94.25 186.88,-94.25 143.12,-94.25 143.12,-94.25 137.12,-94.25 131.12,-88.25 131.12,-82.25 131.12,-82.25 131.12,-28 131.12,-28 131.12,-22 137.12,-16 143.12,-16"/>
</g>
<!-- Polling&#45;&gt;Idle -->
<g id="edge3" class="edge">
<title>Polling&#45;&gt;Idle</title>
<path fill="none" stroke="red" d="M119.02,-146.99C122.75,-135.63 127.26,-123.27 132.25,-112.25 133.43,-109.64 134.7,-107 136.03,-104.36"/>
<polygon fill="red" stroke="red" points="139.1,-106.03 140.67,-95.55 132.91,-102.77 139.1,-106.03"/>
<text xml:space="preserve" text-anchor="middle" x="146.12" y="-115.45" font-family="Times,serif" font-size="14.00"> tick </text>
</g>
<!-- Handling&#45;&gt;Polling -->
<g id="edge5" class="edge">
<title>Handling&#45;&gt;Polling</title>
<path fill="none" stroke="red" d="M76.78,-94.06C79.62,-105.3 82.95,-117.59 86.5,-128.75 87.3,-131.27 88.15,-133.84 89.04,-136.42"/>
<polygon fill="red" stroke="red" points="85.66,-137.38 92.32,-145.62 92.26,-135.03 85.66,-137.38"/>
<text xml:space="preserve" text-anchor="middle" x="97.75" y="-115.45" font-family="Times,serif" font-size="14.00"> $&gt; </text>
</g>
<!-- Idle&#45;&gt;Polling -->
<g id="edge6" class="edge">
<title>Idle&#45;&gt;Polling</title>
<path fill="none" stroke="red" d="M167.15,-94.21C166.56,-105.7 164.61,-118.08 160,-128.75 157.2,-135.23 153.32,-141.44 148.93,-147.21"/>
<polygon fill="red" stroke="red" points="146.37,-144.81 142.66,-154.73 151.75,-149.29 146.37,-144.81"/>
<text xml:space="preserve" text-anchor="middle" x="178.57" y="-115.45" font-family="Times,serif" font-size="14.00"> tick </text>
</g>
</g>
</svg>
