<?xml version="1.0" encoding="UTF-8" standalone="no"?>
<!DOCTYPE svg PUBLIC "-//W3C//DTD SVG 1.1//EN"
 "http://www.w3.org/Graphics/SVG/1.1/DTD/svg11.dtd">
<!-- Generated by graphviz version 14.1.5 (20260411.2331)
 -->
<!-- Title: PollingConsumer Pages: 1 -->
<svg width="295pt" height="463pt"
 viewBox="0.00 0.00 295.00 463.00" xmlns="http://www.w3.org/2000/svg" xmlns:xlink="http://www.w3.org/1999/xlink">
<g id="graph0" class="graph" transform="scale(1 1) rotate(0) translate(4 458.9)">
<title>PollingConsumer</title>
<polygon fill="white" stroke="none" points="-4,4 -4,-458.9 291,-458.9 291,4 -4,4"/>
<g id="clust1" class="cluster">
<title>cluster_Active</title>
<path fill="none" stroke="black" d="M20,-8C20,-8 267,-8 267,-8 273,-8 279,-14 279,-20 279,-20 279,-259.5 279,-259.5 279,-265.5 273,-271.5 267,-271.5 267,-271.5 20,-271.5 20,-271.5 14,-271.5 8,-265.5 8,-259.5 8,-259.5 8,-20 8,-20 8,-14 14,-8 20,-8"/>
<text xml:space="preserve" text-anchor="start" x="125.5" y="-250.75" font-family="Times,serif" font-size="14.00">Active</text>
<polygon fill="black" stroke="black" points="121.5,-244 121.5,-244 165.5,-244 165.5,-244 121.5,-244"/>
</g>
<!-- Entry -->
<g id="node1" class="node">
<title>Entry</title>
<ellipse fill="black" stroke="#00688b" cx="165" cy="-447.7" rx="7.2" ry="7.2"/>
</g>
<!-- Stopped -->
<g id="node2" class="node">
<title>Stopped</title>
<path fill="azure" stroke="none" d="M186.88,-403.5C186.88,-403.5 143.12,-403.5 143.12,-403.5 137.12,-403.5 131.12,-397.5 131.12,-391.5 131.12,-391.5 131.12,-326 131.12,-326 131.12,-320 137.12,-314 143.12,-314 143.12,-314 186.88,-314 186.88,-314 192.88,-314 198.88,-320 198.88,-326 198.88,-326 198.88,-391.5 198.88,-391.5 198.88,-397.5 192.88,-403.5 186.88,-403.5"/>
<text xml:space="preserve" text-anchor="start" x="141.38" y="-383.2" font-family="Times,serif" font-weight="bold" font-size="14.00">Stopped</text>
<text xml:space="preserve" text-anchor="start" x="139.12" y="-358" font-family="Times,serif" font-size="10.00">start()</text>
<text xml:space="preserve" text-anchor="start" x="139.12" y="-346.75" font-family="Times,serif" font-size="10.00">tick()</text>
<text xml:space="preserve" text-anchor="start" x="139.12" y="-335.5" font-family="Times,serif" font-size="10.00">state_name()</text>
<text xml:space="preserve" text-anchor="start" x="151.5" y="-324.25" font-family="Times,serif" font-size="10.00"> &#160;&#160;&#160;&#160;&#160;&#160;&#160;&#160;&#160;&#160;&#160;</text>
<polygon fill="#00688b" stroke="#00688b" points="131.12,-373 131.12,-373 198.88,-373 198.88,-373 131.12,-373"/>
<path fill="none" stroke="#00688b" d="M143.12,-314C143.12,-314 186.88,-314 186.88,-314 192.88,-314 198.88,-320 198.88,-326 198.88,-326 198.88,-391.5 198.88,-391.5 198.88,-397.5 192.88,-403.5 186.88,-403.5 186.88,-403.5 143.12,-403.5 143.12,-403.5 137.12,-403.5 131.12,-397.5 131.12,-391.5 131.12,-391.5 131.12,-326 131.12,-326 131.12,-320 137.12,-314 143.12,-314"/>
</g>
<!-- Entry&#45;&gt;Stopped -->
<g id="edge1" class="edge">
<title>Entry&#45;&gt;Stopped</title>
<path fill="none" stroke="red" d="M165,-440.16C165,-434.25 165,-424.91 165,-414.66"/>
<polygon fill="red" stroke="red" points="168.5,-414.81 165,-404.81 161.5,-414.81 168.5,-414.81"/>
</g>
<!-- Polling -->
<g id="node4" class="node">
<title>Polling</title>
<path fill="azure" stroke="none" d="M159.88,-225C159.88,-225 116.12,-225 116.12,-225 110.12,-225 104.12,-219 104.12,-213 104.12,-213 104.12,-158.75 104.12,-158.75 104.12,-152.75 110.12,-146.75 116.12,-146.75 116.12,-146.75 159.88,-146.75 159.88,-146.75 165.88,-146.75 171.88,-152.75 171.88,-158.75 171.88,-158.75 171.88,-213 171.88,-213 171.88,-219 165.88,-225 159.88,-225"/>
<text xml:space="preserve" text-anchor="start" x="117.75" y="-204.7" font-family="Times,serif" font-weight="bold" font-size="14.00">Polling</text>
<text xml:space="preserve" text-anchor="start" x="112.12" y="-179.5" font-family="Times,serif" font-size="10.00">tick()</text>
<text xml:space="preserve" text-anchor="start" x="112.12" y="-168.25" font-family="Times,serif" font-size="10.00">state_name()</text>
<text xml:space="preserve" text-anchor="start" x="120" y="-157" font-family="Times,serif" font-size="10.00"> &#160;&#160;&#160;&#160;&#160;&#160;&#160;&#160;&#160;&#160;&#160;&#160;&#160;&#160;&#160;</text>
<polygon fill="#00688b" stroke="#00688b" points="104.12,-194.5 104.12,-194.5 171.88,-194.5 171.88,-194.5 104.12,-194.5"/>
<path fill="none" stroke="#00688b" d="M116.12,-146.75C116.12,-146.75 159.88,-146.75 159.88,-146.75 165.88,-146.75 171.88,-152.75 171.88,-158.75 171.88,-158.75 171.88,-213 171.88,-213 171.88,-219 165.88,-225 159.88,-225 159.88,-225 116.12,-225 116.12,-225 110.12,-225 104.12,-219 104.12,-213 104.12,-213 104.12,-158.75 104.12,-158.75 104.12,-152.75 110.12,-146.75 116.12,-146.75"/>
</g>
<!-- Stopped&#45;&gt;Polling -->
<g id="edge2" class="edge">
<title>Stopped&#45;&gt;Polling</title>
<path fill="none" stroke="red" d="M144.45,-314.22C142.32,-308.21 140.49,-302.03 139.25,-296 135.27,-276.71 134.32,-255.1 134.59,-236.23"/>
<polygon fill="red" stroke="red" points="138.09,-236.49 134.86,-226.39 131.09,-236.29 138.09,-236.49"/>
<text xml:space="preserve" text-anchor="middle" x="154.62" y="-282.7" font-family="Times,serif" font-size="14.00"> start </text>
</g>
<!-- Active -->
<g id="node3" class="node">
<title>Active</title>
<ellipse fill="azure" stroke="#00688b" cx="192" cy="-185.88" rx="0.36" ry="0.36"/>
</g>
<!-- Active&#45;&gt;Stopped -->
<g id="edge7" class="edge">
<title>Active&#45;&gt;Stopped</title>
<path fill="none" stroke="red" d="M181,-271.5C179.38,-281.77 177.49,-292.71 175.58,-303.21"/>
<polygon fill="red" stroke="red" points="172.16,-302.44 173.79,-312.91 179.05,-303.71 172.16,-302.44"/>
<text xml:space="preserve" text-anchor="middle" x="194.48" y="-282.7" font-family="Times,serif" font-size="14.00"> stop </text>
</g>
<!-- Handling -->
<g id="node5" class="node">
<title>Handling</title>
<path fill="azure" stroke="none" d="M111.38,-94.25C111.38,-94.25 64.62,-94.25 64.62,-94.25 58.62,-94.25 52.62,-88.25 52.62,-82.25 52.62,-82.25 52.62,-28 52.62,-28 52.62,-22 58.62,-16 64.62,-16 64.62,-16 111.38,-16 111.38,-16 117.38,-16 123.38,-22 123.38,-28 123.38,-28 123.38,-82.25 123.38,-82.25 123.38,-88.25 117.38,-94.25 111.38,-94.25"/>
<text xml:space="preserve" text-anchor="start" x="60.62" y="-73.95" font-family="Times,serif" font-weight="bold" font-size="14.00">Handling</text>
<text xml:space="preserve" text-anchor="start" x="60.62" y="-48.75" font-family="Times,serif" font-size="10.00">$&gt;()</text>
<text xml:space="preserve" text-anchor="start" x="60.62" y="-37.5" font-family="Times,serif" font-size="10.00">state_name()</text>
<text xml:space="preserve" text-anchor="start" x="68.5" y="-26.25" font-family="Times,serif" font-size="10.00"> &#160;&#160;&#160;&#160;&#160;&#160;&#160;&#160;&#160;&#160;&#160;&#160;&#160;&#160;&#160;</text>
<polygon fill="#00688b" stroke="#00688b" points="52.62,-63.75 52.62,-63.75 123.38,-63.75 123.38,-63.75 52.62,-63.75"/>
<path fill="none" stroke="#00688b" d="M64.62,-16C64.62,-16 111.38,-16 111.38,-16 117.38,-16 123.38,-22 123.38,-28 123.38,-28 123.38,-82.25 123.38,-82.25 123.38,-88.25 117.38,-94.25 111.38,-94.25 111.38,-94.25 64.62,-94.25 64.62,-94.25 58.62,-94.25 52.62,-88.25 52.62,-82.25 52.62,-82.25 52.62,-28 52.62,-28 52.62,-22 58.62,-16 64.62,-16"/>
</g>
<!-- Polling&#45;&gt;Handling -->
<g id="edge4" class="edge">
<title>Polling&#45;&gt;Handling</title>
<path fill="none" stroke="red" d="M104.36,-176.31C80.54,-168.3 50.29,-153.71 35.5,-128.75 27.51,-115.26 33.94,-101.15 44.68,-88.98"/>
<polygon fill="red" stroke="red" points="47.06,-91.55 51.61,-81.98 42.09,-86.62 47.06,-91.55"/>
<text xml:space="preserve" text-anchor="middle" x="61.75" y="-115.45" font-family="Times,serif" font-size="14.00"> dispatch </text>
</g>
<!-- Idle -->
<g id="node6" class="node">
<title>Idle</title>
<path fill="azure" stroke="none" d="M210.88,-94.25C210.88,-94.25 167.12,-94.25 167.12,-94.25 161.12,-94.25 155.12,-88.25 155.12,-82.25 155.12,-82.25 155.12,-28 155.12,-28 155.12,-22 161.12,-16 167.12,-16 167.12,-16 210.88,-16 210.88,-16 216.88,-16 222.88,-22 222.88,-28 222.88,-28 222.88,-82.25 222.88,-82.25 222.88,-88.25 216.88,-94.25 210.88,-94.25"/>
<text xml:space="preserve" text-anchor="start" x="177.75" y="-73.95" font-family="Times,serif" font-weight="bold" font-size="14.00">Idle</text>
<text xml:space="preserve" text-anchor="start" x="163.12" y="-48.75" font-family="Times,serif" font-size="10.00">tick()</text>
<text xml:space="preserve" text-anchor="start" x="163.12" y="-37.5" font-family="Times,serif" font-size="10.00">state_name()</text>
<text xml:space="preserve" text-anchor="start" x="171" y="-26.25" font-family="Times,serif" font-size="10.00"> &#160;&#160;&#160;&#160;&#160;&#160;&#160;&#160;&#160;&#160;&#160;&#160;&#160;&#160;&#160;</text>
<polygon fill="#00688b" stroke="#00688b" points="155.12,-63.75 155.12,-63.75 222.88,-63.75 222.88,-63.75 155.12,-63.75"/>
<path fill="none" stroke="#00688b" d="M167.12,-16C167.12,-16 210.88,-16 210.88,-16 216.88,-16 222.88,-22 222.88,-28 222.88,-28 222.88,-82.25 222.88,-82.25 222.88,-88.25 216.88,-94.25 210.88,-94.25 210.88,-94.25 167.12,-94.25 167.12,-94.25 161.12,-94.25 155.12,-88.25 155.12,-82.25 155.12,-82.25 155.12,-28 155.12,-28 155.12,-22 161.12,-16 167.12,-16"/>
</g>
<!-- Polling&#45;&gt;Idle -->
<g id="edge3" class="edge">
<title>Polling&#45;&gt;Idle</title>
<path fill="none" stroke="red" d="M153.03,-146.94C158.27,-133.7 164.23,-118.66 169.77,-104.67"/>
<polygon fill="red" stroke="red" points="172.92,-106.22 173.35,-95.64 166.41,-103.65 172.92,-106.22"/>
<text xml:space="preserve" text-anchor="middle" x="192.8" y="-115.45" font-family="Times,serif" font-size="14.00"> no work </text>
</g>
<!-- Handling&#45;&gt;Polling -->
<g id="edge5" class="edge">
<title>Handling&#45;&gt;Polling</title>
<path fill="none" stroke="red" d="M99.11,-94.16C102.68,-105.41 106.86,-117.67 111.25,-128.75 112.24,-131.25 113.29,-133.79 114.38,-136.35"/>
<polygon fill="red" stroke="red" points="111.16,-137.73 118.41,-145.45 117.56,-134.89 111.16,-137.73"/>
<text xml:space="preserve" text-anchor="middle" x="128.12" y="-115.45" font-family="Times,serif" font-size="14.00"> done </text>
</g>
<!-- Idle&#45;&gt;Polling -->
<g id="edge6" class="edge">
<title>Idle&#45;&gt;Polling</title>
<path fill="none" stroke="red" d="M219.92,-94.17C225.55,-105.65 227.78,-118.04 221,-128.75 211.01,-144.54 198.71,-136.62 183,-146.75 182.29,-147.21 181.58,-147.68 180.87,-148.15"/>
<polygon fill="red" stroke="red" points="178.98,-145.2 172.91,-153.88 183.07,-150.88 178.98,-145.2"/>
<text xml:space="preserve" text-anchor="middle" x="239.07" y="-115.45" font-family="Times,serif" font-size="14.00"> tick </text>
</g>
</g>
</svg>
