<?xml version="1.0" encoding="UTF-8" standalone="no"?>
<!DOCTYPE svg PUBLIC "-//W3C//DTD SVG 1.1//EN"
 "http://www.w3.org/Graphics/SVG/1.1/DTD/svg11.dtd">
<!-- Generated by graphviz version 14.1.5 (20260411.2331)
 -->
<!-- Title: OrderSaga Pages: 1 -->
<svg width="466pt" height="978pt"
 viewBox="0.00 0.00 466.00 978.00" xmlns="http://www.w3.org/2000/svg" xmlns:xlink="http://www.w3.org/1999/xlink">
<g id="graph0" class="graph" transform="scale(1 1) rotate(0) translate(4 974.4)">
<title>OrderSaga</title>
<polygon fill="white" stroke="none" points="-4,4 -4,-974.4 462.38,-974.4 462.38,4 -4,4"/>
<!-- Entry -->
<g id="node1" class="node">
<title>Entry</title>
<ellipse fill="black" stroke="#00688b" cx="322.38" cy="-963.2" rx="7.2" ry="7.2"/>
</g>
<!-- New -->
<g id="node2" class="node">
<title>New</title>
<path fill="azure" stroke="none" d="M354.75,-919C354.75,-919 290,-919 290,-919 284,-919 278,-913 278,-907 278,-907 278,-852.75 278,-852.75 278,-846.75 284,-840.75 290,-840.75 290,-840.75 354.75,-840.75 354.75,-840.75 360.75,-840.75 366.75,-846.75 366.75,-852.75 366.75,-852.75 366.75,-907 366.75,-907 366.75,-913 360.75,-919 354.75,-919"/>
<text xml:space="preserve" text-anchor="start" x="309.62" y="-898.7" font-family="Times,serif" font-weight="bold" font-size="14.00">New</text>
<text xml:space="preserve" text-anchor="start" x="286" y="-873.5" font-family="Times,serif" font-size="10.00">start(order_id: str)</text>
<text xml:space="preserve" text-anchor="start" x="286" y="-862.25" font-family="Times,serif" font-size="10.00">status()</text>
<text xml:space="preserve" text-anchor="start" x="308.88" y="-851" font-family="Times,serif" font-size="10.00"> &#160;&#160;&#160;&#160;&#160;&#160;&#160;&#160;&#160;&#160;&#160;</text>
<polygon fill="#00688b" stroke="#00688b" points="278,-888.5 278,-888.5 366.75,-888.5 366.75,-888.5 278,-888.5"/>
<path fill="none" stroke="#00688b" d="M290,-840.75C290,-840.75 354.75,-840.75 354.75,-840.75 360.75,-840.75 366.75,-846.75 366.75,-852.75 366.75,-852.75 366.75,-907 366.75,-907 366.75,-913 360.75,-919 354.75,-919 354.75,-919 290,-919 290,-919 284,-919 278,-913 278,-907 278,-907 278,-852.75 278,-852.75 278,-846.75 284,-840.75 290,-840.75"/>
</g>
<!-- Entry&#45;&gt;New -->
<g id="edge1" class="edge">
<title>Entry&#45;&gt;New</title>
<path fill="none" stroke="red" d="M322.38,-955.54C322.38,-949.53 322.38,-940.07 322.38,-929.88"/>
<polygon fill="red" stroke="red" points="325.88,-930.19 322.38,-920.19 318.88,-930.19 325.88,-930.19"/>
</g>
<!-- Reserving -->
<g id="node3" class="node">
<title>Reserving</title>
<path fill="azure" stroke="none" d="M370.5,-788.25C370.5,-788.25 274.25,-788.25 274.25,-788.25 268.25,-788.25 262.25,-782.25 262.25,-776.25 262.25,-776.25 262.25,-699.5 262.25,-699.5 262.25,-693.5 268.25,-687.5 274.25,-687.5 274.25,-687.5 370.5,-687.5 370.5,-687.5 376.5,-687.5 382.5,-693.5 382.5,-699.5 382.5,-699.5 382.5,-776.25 382.5,-776.25 382.5,-782.25 376.5,-788.25 370.5,-788.25"/>
<text xml:space="preserve" text-anchor="start" x="293.5" y="-767.95" font-family="Times,serif" font-weight="bold" font-size="14.00">Reserving</text>
<text xml:space="preserve" text-anchor="start" x="270.25" y="-742.75" font-family="Times,serif" font-size="10.00">$&gt;()</text>
<text xml:space="preserve" text-anchor="start" x="270.25" y="-731.5" font-family="Times,serif" font-size="10.00">reserved()</text>
<text xml:space="preserve" text-anchor="start" x="270.25" y="-720.25" font-family="Times,serif" font-size="10.00">reserve_failed(reason: str)</text>
<text xml:space="preserve" text-anchor="start" x="270.25" y="-709" font-family="Times,serif" font-size="10.00">status()</text>
<text xml:space="preserve" text-anchor="start" x="308.88" y="-697.75" font-family="Times,serif" font-size="10.00"> &#160;&#160;&#160;&#160;&#160;&#160;&#160;&#160;&#160;&#160;&#160;</text>
<polygon fill="#00688b" stroke="#00688b" points="262.25,-757.75 262.25,-757.75 382.5,-757.75 382.5,-757.75 262.25,-757.75"/>
<path fill="none" stroke="#00688b" d="M274.25,-687.5C274.25,-687.5 370.5,-687.5 370.5,-687.5 376.5,-687.5 382.5,-693.5 382.5,-699.5 382.5,-699.5 382.5,-776.25 382.5,-776.25 382.5,-782.25 376.5,-788.25 370.5,-788.25 370.5,-788.25 274.25,-788.25 274.25,-788.25 268.25,-788.25 262.25,-782.25 262.25,-776.25 262.25,-776.25 262.25,-699.5 262.25,-699.5 262.25,-693.5 268.25,-687.5 274.25,-687.5"/>
</g>
<!-- New&#45;&gt;Reserving -->
<g id="edge2" class="edge">
<title>New&#45;&gt;Reserving</title>
<path fill="none" stroke="red" d="M322.38,-840.99C322.38,-828.15 322.38,-813.46 322.38,-799.31"/>
<polygon fill="red" stroke="red" points="325.88,-799.63 322.38,-789.63 318.88,-799.63 325.88,-799.63"/>
<text xml:space="preserve" text-anchor="middle" x="337.75" y="-809.45" font-family="Times,serif" font-size="14.00"> start </text>
</g>
<!-- Charging -->
<g id="node4" class="node">
<title>Charging</title>
<path fill="azure" stroke="none" d="M317.75,-635C317.75,-635 223,-635 223,-635 217,-635 211,-629 211,-623 211,-623 211,-546.25 211,-546.25 211,-540.25 217,-534.25 223,-534.25 223,-534.25 317.75,-534.25 317.75,-534.25 323.75,-534.25 329.75,-540.25 329.75,-546.25 329.75,-546.25 329.75,-623 329.75,-623 329.75,-629 323.75,-635 317.75,-635"/>
<text xml:space="preserve" text-anchor="start" x="243" y="-614.7" font-family="Times,serif" font-weight="bold" font-size="14.00">Charging</text>
<text xml:space="preserve" text-anchor="start" x="219" y="-589.5" font-family="Times,serif" font-size="10.00">$&gt;()</text>
<text xml:space="preserve" text-anchor="start" x="219" y="-578.25" font-family="Times,serif" font-size="10.00">charged(tx_id: str)</text>
<text xml:space="preserve" text-anchor="start" x="219" y="-567" font-family="Times,serif" font-size="10.00">charge_failed(reason: str)</text>
<text xml:space="preserve" text-anchor="start" x="219" y="-555.75" font-family="Times,serif" font-size="10.00">status()</text>
<text xml:space="preserve" text-anchor="start" x="256.88" y="-544.5" font-family="Times,serif" font-size="10.00"> &#160;&#160;&#160;&#160;&#160;&#160;&#160;&#160;&#160;&#160;&#160;</text>
<polygon fill="#00688b" stroke="#00688b" points="211,-604.5 211,-604.5 329.75,-604.5 329.75,-604.5 211,-604.5"/>
<path fill="none" stroke="#00688b" d="M223,-534.25C223,-534.25 317.75,-534.25 317.75,-534.25 323.75,-534.25 329.75,-540.25 329.75,-546.25 329.75,-546.25 329.75,-623 329.75,-623 329.75,-629 323.75,-635 317.75,-635 317.75,-635 223,-635 223,-635 217,-635 211,-629 211,-623 211,-623 211,-546.25 211,-546.25 211,-540.25 217,-534.25 223,-534.25"/>
</g>
<!-- Reserving&#45;&gt;Charging -->
<g id="edge3" class="edge">
<title>Reserving&#45;&gt;Charging</title>
<path fill="none" stroke="red" d="M305.49,-687.77C300.84,-674.23 295.73,-659.39 290.9,-645.32"/>
<polygon fill="red" stroke="red" points="294.32,-644.49 287.75,-636.18 287.7,-646.77 294.32,-644.49"/>
<text xml:space="preserve" text-anchor="middle" x="324.56" y="-656.2" font-family="Times,serif" font-size="14.00"> reserved </text>
</g>
<!-- Failed -->
<g id="node9" class="node">
<title>Failed</title>
<path fill="azure" stroke="none" d="M333.38,-67C333.38,-67 303.38,-67 303.38,-67 297.38,-67 291.38,-61 291.38,-55 291.38,-55 291.38,-12 291.38,-12 291.38,-6 297.38,0 303.38,0 303.38,0 333.38,0 333.38,0 339.38,0 345.38,-6 345.38,-12 345.38,-12 345.38,-55 345.38,-55 345.38,-61 339.38,-67 333.38,-67"/>
<text xml:space="preserve" text-anchor="start" x="300.38" y="-46.7" font-family="Times,serif" font-weight="bold" font-size="14.00">Failed</text>
<text xml:space="preserve" text-anchor="start" x="300.38" y="-21.5" font-family="Times,serif" font-size="10.00">status()</text>
<text xml:space="preserve" text-anchor="start" x="301.5" y="-10.25" font-family="Times,serif" font-size="10.00"> &#160;&#160;&#160;&#160;&#160;&#160;&#160;&#160;&#160;&#160;&#160;</text>
<polygon fill="#00688b" stroke="#00688b" points="292.38,-36.5 292.38,-36.5 344.38,-36.5 344.38,-36.5 292.38,-36.5"/>
<path fill="none" stroke="#00688b" d="M304.38,0C304.38,0 332.38,0 332.38,0 338.38,0 344.38,-6 344.38,-12 344.38,-12 344.38,-55 344.38,-55 344.38,-61 338.38,-67 332.38,-67 332.38,-67 304.38,-67 304.38,-67 298.38,-67 292.38,-61 292.38,-55 292.38,-55 292.38,-12 292.38,-12 292.38,-6 298.38,0 304.38,0"/>
</g>
<!-- Reserving&#45;&gt;Failed -->
<g id="edge4" class="edge">
<title>Reserving&#45;&gt;Failed</title>
<path fill="none" stroke="red" d="M348.53,-687.57C361.48,-658.68 374.38,-621.03 374.38,-585.62 374.38,-585.62 374.38,-585.62 374.38,-157.62 374.38,-128.88 361.58,-99.48 348.22,-76.62"/>
<polygon fill="red" stroke="red" points="351.28,-74.92 343.08,-68.22 345.31,-78.57 351.28,-74.92"/>
<text xml:space="preserve" text-anchor="middle" x="416.38" y="-349.7" font-family="Times,serif" font-size="14.00"> reserve_failed </text>
</g>
<!-- Shipping -->
<g id="node5" class="node">
<title>Shipping</title>
<path fill="azure" stroke="none" d="M229.88,-481.75C229.88,-481.75 144.88,-481.75 144.88,-481.75 138.88,-481.75 132.88,-475.75 132.88,-469.75 132.88,-469.75 132.88,-393 132.88,-393 132.88,-387 138.88,-381 144.88,-381 144.88,-381 229.88,-381 229.88,-381 235.88,-381 241.88,-387 241.88,-393 241.88,-393 241.88,-469.75 241.88,-469.75 241.88,-475.75 235.88,-481.75 229.88,-481.75"/>
<text xml:space="preserve" text-anchor="start" x="161.5" y="-461.45" font-family="Times,serif" font-weight="bold" font-size="14.00">Shipping</text>
<text xml:space="preserve" text-anchor="start" x="140.88" y="-436.25" font-family="Times,serif" font-size="10.00">$&gt;()</text>
<text xml:space="preserve" text-anchor="start" x="140.88" y="-425" font-family="Times,serif" font-size="10.00">shipped(tracking: str)</text>
<text xml:space="preserve" text-anchor="start" x="140.88" y="-413.75" font-family="Times,serif" font-size="10.00">ship_failed(reason: str)</text>
<text xml:space="preserve" text-anchor="start" x="140.88" y="-402.5" font-family="Times,serif" font-size="10.00">status()</text>
<text xml:space="preserve" text-anchor="start" x="173.88" y="-391.25" font-family="Times,serif" font-size="10.00"> &#160;&#160;&#160;&#160;&#160;&#160;&#160;&#160;&#160;&#160;&#160;</text>
<polygon fill="#00688b" stroke="#00688b" points="132.88,-451.25 132.88,-451.25 241.88,-451.25 241.88,-451.25 132.88,-451.25"/>
<path fill="none" stroke="#00688b" d="M144.88,-381C144.88,-381 229.88,-381 229.88,-381 235.88,-381 241.88,-387 241.88,-393 241.88,-393 241.88,-469.75 241.88,-469.75 241.88,-475.75 235.88,-481.75 229.88,-481.75 229.88,-481.75 144.88,-481.75 144.88,-481.75 138.88,-481.75 132.88,-475.75 132.88,-469.75 132.88,-469.75 132.88,-393 132.88,-393 132.88,-387 138.88,-381 144.88,-381"/>
</g>
<!-- Charging&#45;&gt;Shipping -->
<g id="edge5" class="edge">
<title>Charging&#45;&gt;Shipping</title>
<path fill="none" stroke="red" d="M218.06,-534.44C213.57,-528.63 209.48,-522.52 206.12,-516.25 202.16,-508.84 199.04,-500.63 196.57,-492.33"/>
<polygon fill="red" stroke="red" points="200.02,-491.67 194.08,-482.89 193.25,-493.45 200.02,-491.67"/>
<text xml:space="preserve" text-anchor="middle" x="231.25" y="-502.95" font-family="Times,serif" font-size="14.00"> charged </text>
</g>
<!-- CompensatingReservation -->
<g id="node7" class="node">
<title>CompensatingReservation</title>
<path fill="azure" stroke="none" d="M333.88,-197.75C333.88,-197.75 188.88,-197.75 188.88,-197.75 182.88,-197.75 176.88,-191.75 176.88,-185.75 176.88,-185.75 176.88,-131.5 176.88,-131.5 176.88,-125.5 182.88,-119.5 188.88,-119.5 188.88,-119.5 333.88,-119.5 333.88,-119.5 339.88,-119.5 345.88,-125.5 345.88,-131.5 345.88,-131.5 345.88,-185.75 345.88,-185.75 345.88,-191.75 339.88,-197.75 333.88,-197.75"/>
<text xml:space="preserve" text-anchor="start" x="184.88" y="-177.45" font-family="Times,serif" font-weight="bold" font-size="14.00">CompensatingReservation</text>
<text xml:space="preserve" text-anchor="start" x="184.88" y="-152.25" font-family="Times,serif" font-size="10.00">$&gt;()</text>
<text xml:space="preserve" text-anchor="start" x="184.88" y="-141" font-family="Times,serif" font-size="10.00">status()</text>
<text xml:space="preserve" text-anchor="start" x="186" y="-129.75" font-family="Times,serif" font-size="10.00"> &#160;&#160;&#160;&#160;&#160;&#160;&#160;&#160;&#160;&#160;&#160;</text>
<polygon fill="#00688b" stroke="#00688b" points="176.88,-167.25 176.88,-167.25 345.88,-167.25 345.88,-167.25 176.88,-167.25"/>
<path fill="none" stroke="#00688b" d="M188.88,-119.5C188.88,-119.5 333.88,-119.5 333.88,-119.5 339.88,-119.5 345.88,-125.5 345.88,-131.5 345.88,-131.5 345.88,-185.75 345.88,-185.75 345.88,-191.75 339.88,-197.75 333.88,-197.75 333.88,-197.75 188.88,-197.75 188.88,-197.75 182.88,-197.75 176.88,-191.75 176.88,-185.75 176.88,-185.75 176.88,-131.5 176.88,-131.5 176.88,-125.5 182.88,-119.5 188.88,-119.5"/>
</g>
<!-- Charging&#45;&gt;CompensatingReservation -->
<g id="edge6" class="edge">
<title>Charging&#45;&gt;CompensatingReservation</title>
<path fill="none" stroke="red" d="M269.33,-534.57C267.6,-453.13 264.16,-290.88 262.43,-209.14"/>
<polygon fill="red" stroke="red" points="265.93,-209.11 262.21,-199.19 258.93,-209.26 265.93,-209.11"/>
<text xml:space="preserve" text-anchor="middle" x="306.17" y="-349.7" font-family="Times,serif" font-size="14.00"> charge_failed </text>
</g>
<!-- CompensatingCharge -->
<g id="node6" class="node">
<title>CompensatingCharge</title>
<path fill="azure" stroke="none" d="M130.75,-328.5C130.75,-328.5 12,-328.5 12,-328.5 6,-328.5 0,-322.5 0,-316.5 0,-316.5 0,-262.25 0,-262.25 0,-256.25 6,-250.25 12,-250.25 12,-250.25 130.75,-250.25 130.75,-250.25 136.75,-250.25 142.75,-256.25 142.75,-262.25 142.75,-262.25 142.75,-316.5 142.75,-316.5 142.75,-322.5 136.75,-328.5 130.75,-328.5"/>
<text xml:space="preserve" text-anchor="start" x="8" y="-308.2" font-family="Times,serif" font-weight="bold" font-size="14.00">CompensatingCharge</text>
<text xml:space="preserve" text-anchor="start" x="8" y="-283" font-family="Times,serif" font-size="10.00">$&gt;()</text>
<text xml:space="preserve" text-anchor="start" x="8" y="-271.75" font-family="Times,serif" font-size="10.00">status()</text>
<text xml:space="preserve" text-anchor="start" x="9.12" y="-260.5" font-family="Times,serif" font-size="10.00"> &#160;&#160;&#160;&#160;&#160;&#160;&#160;&#160;&#160;&#160;&#160;</text>
<polygon fill="#00688b" stroke="#00688b" points="0,-298 0,-298 142.75,-298 142.75,-298 0,-298"/>
<path fill="none" stroke="#00688b" d="M12,-250.25C12,-250.25 130.75,-250.25 130.75,-250.25 136.75,-250.25 142.75,-256.25 142.75,-262.25 142.75,-262.25 142.75,-316.5 142.75,-316.5 142.75,-322.5 136.75,-328.5 130.75,-328.5 130.75,-328.5 12,-328.5 12,-328.5 6,-328.5 0,-322.5 0,-316.5 0,-316.5 0,-262.25 0,-262.25 0,-256.25 6,-250.25 12,-250.25"/>
</g>
<!-- Shipping&#45;&gt;CompensatingCharge -->
<g id="edge8" class="edge">
<title>Shipping&#45;&gt;CompensatingCharge</title>
<path fill="none" stroke="red" d="M138.63,-381.09C133.18,-375.11 127.82,-368.99 122.88,-363 116.3,-355.03 109.65,-346.28 103.4,-337.69"/>
<polygon fill="red" stroke="red" points="106.36,-335.81 97.7,-329.71 100.67,-339.88 106.36,-335.81"/>
<text xml:space="preserve" text-anchor="middle" x="156.62" y="-349.7" font-family="Times,serif" font-size="14.00"> ship_failed </text>
</g>
<!-- Completed -->
<g id="node8" class="node">
<title>Completed</title>
<path fill="azure" stroke="none" d="M228.25,-322.88C228.25,-322.88 172.5,-322.88 172.5,-322.88 166.5,-322.88 160.5,-316.88 160.5,-310.88 160.5,-310.88 160.5,-267.88 160.5,-267.88 160.5,-261.88 166.5,-255.88 172.5,-255.88 172.5,-255.88 228.25,-255.88 228.25,-255.88 234.25,-255.88 240.25,-261.88 240.25,-267.88 240.25,-267.88 240.25,-310.88 240.25,-310.88 240.25,-316.88 234.25,-322.88 228.25,-322.88"/>
<text xml:space="preserve" text-anchor="start" x="168.5" y="-302.57" font-family="Times,serif" font-weight="bold" font-size="14.00">Completed</text>
<text xml:space="preserve" text-anchor="start" x="168.5" y="-277.38" font-family="Times,serif" font-size="10.00">status()</text>
<text xml:space="preserve" text-anchor="start" x="169.62" y="-266.12" font-family="Times,serif" font-size="10.00"> &#160;&#160;&#160;&#160;&#160;&#160;&#160;&#160;&#160;&#160;&#160;</text>
<polygon fill="#00688b" stroke="#00688b" points="160.5,-292.38 160.5,-292.38 240.25,-292.38 240.25,-292.38 160.5,-292.38"/>
<path fill="none" stroke="#00688b" d="M172.5,-255.88C172.5,-255.88 228.25,-255.88 228.25,-255.88 234.25,-255.88 240.25,-261.88 240.25,-267.88 240.25,-267.88 240.25,-310.88 240.25,-310.88 240.25,-316.88 234.25,-322.88 228.25,-322.88 228.25,-322.88 172.5,-322.88 172.5,-322.88 166.5,-322.88 160.5,-316.88 160.5,-310.88 160.5,-310.88 160.5,-267.88 160.5,-267.88 160.5,-261.88 166.5,-255.88 172.5,-255.88"/>
</g>
<!-- Shipping&#45;&gt;Completed -->
<g id="edge7" class="edge">
<title>Shipping&#45;&gt;Completed</title>
<path fill="none" stroke="red" d="M191.96,-381.02C193.39,-365.58 194.96,-348.68 196.35,-333.7"/>
<polygon fill="red" stroke="red" points="199.8,-334.46 197.24,-324.18 192.83,-333.81 199.8,-334.46"/>
<text xml:space="preserve" text-anchor="middle" x="219.79" y="-349.7" font-family="Times,serif" font-size="14.00"> shipped </text>
</g>
<!-- CompensatingCharge&#45;&gt;CompensatingReservation -->
<g id="edge9" class="edge">
<title>CompensatingCharge&#45;&gt;CompensatingReservation</title>
<path fill="none" stroke="red" d="M127.61,-250.27C149.06,-235.73 173.69,-219.05 195.92,-203.98"/>
<polygon fill="red" stroke="red" points="197.72,-206.99 204.03,-198.48 193.79,-201.2 197.72,-206.99"/>
<text xml:space="preserve" text-anchor="middle" x="189" y="-218.95" font-family="Times,serif" font-size="14.00"> $&gt; </text>
</g>
<!-- CompensatingReservation&#45;&gt;Failed -->
<g id="edge10" class="edge">
<title>CompensatingReservation&#45;&gt;Failed</title>
<path fill="none" stroke="red" d="M278.94,-119.68C285.2,-106.17 292.28,-90.86 298.7,-76.99"/>
<polygon fill="red" stroke="red" points="301.8,-78.64 302.82,-68.09 295.45,-75.7 301.8,-78.64"/>
<text xml:space="preserve" text-anchor="middle" x="306.23" y="-88.2" font-family="Times,serif" font-size="14.00"> $&gt; </text>
</g>
</g>
</svg>
