<?xml version="1.0" encoding="UTF-8" standalone="no"?>
<!DOCTYPE svg PUBLIC "-//W3C//DTD SVG 1.1//EN"
 "http://www.w3.org/Graphics/SVG/1.1/DTD/svg11.dtd">
<!-- Generated by graphviz version 14.1.5 (20260411.2331)
 -->
<!-- Title: OrderSaga Pages: 1 -->
<svg width="409pt" height="978pt"
 viewBox="0.00 0.00 409.00 978.00" xmlns="http://www.w3.org/2000/svg" xmlns:xlink="http://www.w3.org/1999/xlink">
<g id="graph0" class="graph" transform="scale(1 1) rotate(0) translate(4 974.4)">
<title>OrderSaga</title>
<polygon fill="white" stroke="none" points="-4,4 -4,-974.4 404.62,-974.4 404.62,4 -4,4"/>
<!-- Entry -->
<g id="node1" class="node">
<title>Entry</title>
<ellipse fill="black" stroke="#00688b" cx="318.38" cy="-963.2" rx="7.2" ry="7.2"/>
</g>
<!-- New -->
<g id="node2" class="node">
<title>New</title>
<path fill="azure" stroke="none" d="M350.75,-919C350.75,-919 286,-919 286,-919 280,-919 274,-913 274,-907 274,-907 274,-852.75 274,-852.75 274,-846.75 280,-840.75 286,-840.75 286,-840.75 350.75,-840.75 350.75,-840.75 356.75,-840.75 362.75,-846.75 362.75,-852.75 362.75,-852.75 362.75,-907 362.75,-907 362.75,-913 356.75,-919 350.75,-919"/>
<text xml:space="preserve" text-anchor="start" x="305.62" y="-898.7" font-family="Times,serif" font-weight="bold" font-size="14.00">New</text>
<text xml:space="preserve" text-anchor="start" x="282" y="-873.5" font-family="Times,serif" font-size="10.00">start(order_id: str)</text>
<text xml:space="preserve" text-anchor="start" x="282" y="-862.25" font-family="Times,serif" font-size="10.00">status()</text>
<text xml:space="preserve" text-anchor="start" x="304.88" y="-851" font-family="Times,serif" font-size="10.00"> &#160;&#160;&#160;&#160;&#160;&#160;&#160;&#160;&#160;&#160;&#160;</text>
<polygon fill="#00688b" stroke="#00688b" points="274,-888.5 274,-888.5 362.75,-888.5 362.75,-888.5 274,-888.5"/>
<path fill="none" stroke="#00688b" d="M286,-840.75C286,-840.75 350.75,-840.75 350.75,-840.75 356.75,-840.75 362.75,-846.75 362.75,-852.75 362.75,-852.75 362.75,-907 362.75,-907 362.75,-913 356.75,-919 350.75,-919 350.75,-919 286,-919 286,-919 280,-919 274,-913 274,-907 274,-907 274,-852.75 274,-852.75 274,-846.75 280,-840.75 286,-840.75"/>
</g>
<!-- Entry&#45;&gt;New -->
<g id="edge1" class="edge">
<title>Entry&#45;&gt;New</title>
<path fill="none" stroke="red" d="M318.38,-955.54C318.38,-949.53 318.38,-940.07 318.38,-929.88"/>
<polygon fill="red" stroke="red" points="321.88,-930.19 318.38,-920.19 314.88,-930.19 321.88,-930.19"/>
</g>
<!-- Reserving -->
<g id="node3" class="node">
<title>Reserving</title>
<path fill="azure" stroke="none" d="M366.5,-788.25C366.5,-788.25 270.25,-788.25 270.25,-788.25 264.25,-788.25 258.25,-782.25 258.25,-776.25 258.25,-776.25 258.25,-699.5 258.25,-699.5 258.25,-693.5 264.25,-687.5 270.25,-687.5 270.25,-687.5 366.5,-687.5 366.5,-687.5 372.5,-687.5 378.5,-693.5 378.5,-699.5 378.5,-699.5 378.5,-776.25 378.5,-776.25 378.5,-782.25 372.5,-788.25 366.5,-788.25"/>
<text xml:space="preserve" text-anchor="start" x="289.5" y="-767.95" font-family="Times,serif" font-weight="bold" font-size="14.00">Reserving</text>
<text xml:space="preserve" text-anchor="start" x="266.25" y="-742.75" font-family="Times,serif" font-size="10.00">$&gt;()</text>
<text xml:space="preserve" text-anchor="start" x="266.25" y="-731.5" font-family="Times,serif" font-size="10.00">reserved()</text>
<text xml:space="preserve" text-anchor="start" x="266.25" y="-720.25" font-family="Times,serif" font-size="10.00">reserve_failed(reason: str)</text>
<text xml:space="preserve" text-anchor="start" x="266.25" y="-709" font-family="Times,serif" font-size="10.00">status()</text>
<text xml:space="preserve" text-anchor="start" x="304.88" y="-697.75" font-family="Times,serif" font-size="10.00"> &#160;&#160;&#160;&#160;&#160;&#160;&#160;&#160;&#160;&#160;&#160;</text>
<polygon fill="#00688b" stroke="#00688b" points="258.25,-757.75 258.25,-757.75 378.5,-757.75 378.5,-757.75 258.25,-757.75"/>
<path fill="none" stroke="#00688b" d="M270.25,-687.5C270.25,-687.5 366.5,-687.5 366.5,-687.5 372.5,-687.5 378.5,-693.5 378.5,-699.5 378.5,-699.5 378.5,-776.25 378.5,-776.25 378.5,-782.25 372.5,-788.25 366.5,-788.25 366.5,-788.25 270.25,-788.25 270.25,-788.25 264.25,-788.25 258.25,-782.25 258.25,-776.25 258.25,-776.25 258.25,-699.5 258.25,-699.5 258.25,-693.5 264.25,-687.5 270.25,-687.5"/>
</g>
<!-- New&#45;&gt;Reserving -->
<g id="edge2" class="edge">
<title>New&#45;&gt;Reserving</title>
<path fill="none" stroke="red" d="M318.38,-840.99C318.38,-828.15 318.38,-813.46 318.38,-799.31"/>
<polygon fill="red" stroke="red" points="321.88,-799.63 318.38,-789.63 314.88,-799.63 321.88,-799.63"/>
<text xml:space="preserve" text-anchor="middle" x="333.75" y="-809.45" font-family="Times,serif" font-size="14.00"> start </text>
</g>
<!-- Charging -->
<g id="node4" class="node">
<title>Charging</title>
<path fill="azure" stroke="none" d="M317.75,-635C317.75,-635 223,-635 223,-635 217,-635 211,-629 211,-623 211,-623 211,-546.25 211,-546.25 211,-540.25 217,-534.25 223,-534.25 223,-534.25 317.75,-534.25 317.75,-534.25 323.75,-534.25 329.75,-540.25 329.75,-546.25 329.75,-546.25 329.75,-623 329.75,-623 329.75,-629 323.75,-635 317.75,-635"/>
<text xml:space="preserve" text-anchor="start" x="243" y="-614.7" font-family="Times,serif" font-weight="bold" font-size="14.00">Charging</text>
<text xml:space="preserve" text-anchor="start" x="219" y="-589.5" font-family="Times,serif" font-size="10.00">$&gt;()</text>
<text xml:space="preserve" text-anchor="start" x="219" y="-578.25" font-family="Times,serif" font-size="10.00">charged(tx_id: str)</text>
<text xml:space="preserve" text-anchor="start" x="219" y="-567" font-family="Times,serif" font-size="10.00">charge_failed(reason: str)</text>
<text xml:space="preserve" text-anchor="start" x="219" y="-555.75" font-family="Times,serif" font-size="10.00">status()</text>
<text xml:space="preserve" text-anchor="start" x="256.88" y="-544.5" font-family="Times,serif" font-size="10.00"> &#160;&#160;&#160;&#160;&#160;&#160;&#160;&#160;&#160;&#160;&#160;</text>
<polygon fill="#00688b" stroke="#00688b" points="211,-604.5 211,-604.5 329.75,-604.5 329.75,-604.5 211,-604.5"/>
<path fill="none" stroke="#00688b" d="M223,-534.25C223,-534.25 317.75,-534.25 317.75,-534.25 323.75,-534.25 329.75,-540.25 329.75,-546.25 329.75,-546.25 329.75,-623 329.75,-623 329.75,-629 323.75,-635 317.75,-635 317.75,-635 223,-635 223,-635 217,-635 211,-629 211,-623 211,-623 211,-546.25 211,-546.25 211,-540.25 217,-534.25 223,-534.25"/>
</g>
<!-- Reserving&#45;&gt;Charging -->
<g id="edge3" class="edge">
<title>Reserving&#45;&gt;Charging</title>
<path fill="none" stroke="red" d="M302.79,-687.77C298.49,-674.23 293.78,-659.39 289.32,-645.32"/>
<polygon fill="red" stroke="red" points="292.78,-644.66 286.42,-636.19 286.11,-646.78 292.78,-644.66"/>
<text xml:space="preserve" text-anchor="middle" x="322.44" y="-656.2" font-family="Times,serif" font-size="14.00"> reserved </text>
</g>
<!-- Failed -->
<g id="node9" class="node">
<title>Failed</title>
<path fill="azure" stroke="none" d="M323.38,-67C323.38,-67 293.38,-67 293.38,-67 287.38,-67 281.38,-61 281.38,-55 281.38,-55 281.38,-12 281.38,-12 281.38,-6 287.38,0 293.38,0 293.38,0 323.38,0 323.38,0 329.38,0 335.38,-6 335.38,-12 335.38,-12 335.38,-55 335.38,-55 335.38,-61 329.38,-67 323.38,-67"/>
<text xml:space="preserve" text-anchor="start" x="290.38" y="-46.7" font-family="Times,serif" font-weight="bold" font-size="14.00">Failed</text>
<text xml:space="preserve" text-anchor="start" x="290.38" y="-21.5" font-family="Times,serif" font-size="10.00">status()</text>
<text xml:space="preserve" text-anchor="start" x="291.5" y="-10.25" font-family="Times,serif" font-size="10.00"> &#160;&#160;&#160;&#160;&#160;&#160;&#160;&#160;&#160;&#160;&#160;</text>
<polygon fill="#00688b" stroke="#00688b" points="282.38,-36.5 282.38,-36.5 334.38,-36.5 334.38,-36.5 282.38,-36.5"/>
<path fill="none" stroke="#00688b" d="M294.38,0C294.38,0 322.38,0 322.38,0 328.38,0 334.38,-6 334.38,-12 334.38,-12 334.38,-55 334.38,-55 334.38,-61 328.38,-67 322.38,-67 322.38,-67 294.38,-67 294.38,-67 288.38,-67 282.38,-61 282.38,-55 282.38,-55 282.38,-12 282.38,-12 282.38,-6 288.38,0 294.38,0"/>
</g>
<!-- Reserving&#45;&gt;Failed -->
<g id="edge4" class="edge">
<title>Reserving&#45;&gt;Failed</title>
<path fill="none" stroke="red" d="M344.55,-687.51C347.11,-681.54 349.47,-675.45 351.38,-669.5 362.92,-633.51 365.38,-623.42 365.38,-585.62 365.38,-585.62 365.38,-585.62 365.38,-157.62 365.38,-128.8 352.35,-99.39 338.75,-76.55"/>
<polygon fill="red" stroke="red" points="341.77,-74.78 333.51,-68.15 335.83,-78.49 341.77,-74.78"/>
<text xml:space="preserve" text-anchor="middle" x="383" y="-349.7" font-family="Times,serif" font-size="14.00"> abort </text>
</g>
<!-- Shipping -->
<g id="node5" class="node">
<title>Shipping</title>
<path fill="azure" stroke="none" d="M229.88,-481.75C229.88,-481.75 144.88,-481.75 144.88,-481.75 138.88,-481.75 132.88,-475.75 132.88,-469.75 132.88,-469.75 132.88,-393 132.88,-393 132.88,-387 138.88,-381 144.88,-381 144.88,-381 229.88,-381 229.88,-381 235.88,-381 241.88,-387 241.88,-393 241.88,-393 241.88,-469.75 241.88,-469.75 241.88,-475.75 235.88,-481.75 229.88,-481.75"/>
<text xml:space="preserve" text-anchor="start" x="161.5" y="-461.45" font-family="Times,serif" font-weight="bold" font-size="14.00">Shipping</text>
<text xml:space="preserve" text-anchor="start" x="140.88" y="-436.25" font-family="Times,serif" font-size="10.00">$&gt;()</text>
<text xml:space="preserve" text-anchor="start" x="140.88" y="-425" font-family="Times,serif" font-size="10.00">shipped(tracking: str)</text>
<text xml:space="preserve" text-anchor="start" x="140.88" y="-413.75" font-family="Times,serif" font-size="10.00">ship_failed(reason: str)</text>
<text xml:space="preserve" text-anchor="start" x="140.88" y="-402.5" font-family="Times,serif" font-size="10.00">status()</text>
<text xml:space="preserve" text-anchor="start" x="173.88" y="-391.25" font-family="Times,serif" font-size="10.00"> &#160;&#160;&#160;&#160;&#160;&#160;&#160;&#160;&#160;&#160;&#160;</text>
<polygon fill="#00688b" stroke="#00688b" points="132.88,-451.25 132.88,-451.25 241.88,-451.25 241.88,-451.25 132.88,-451.25"/>
<path fill="none" stroke="#00688b" d="M144.88,-381C144.88,-381 229.88,-381 229.88,-381 235.88,-381 241.88,-387 241.88,-393 241.88,-393 241.88,-469.75 241.88,-469.75 241.88,-475.75 235.88,-481.75 229.88,-481.75 229.88,-481.75 144.88,-481.75 144.88,-481.75 138.88,-481.75 132.88,-475.75 132.88,-469.75 132.88,-469.75 132.88,-393 132.88,-393 132.88,-387 138.88,-381 144.88,-381"/>
</g>
<!-- Charging&#45;&gt;Shipping -->
<g id="edge5" class="edge">
<title>Charging&#45;&gt;Shipping</title>
<path fill="none" stroke="red" d="M218.06,-534.44C213.57,-528.63 209.48,-522.52 206.12,-516.25 202.16,-508.84 199.04,-500.63 196.57,-492.33"/>
<polygon fill="red" stroke="red" points="200.02,-491.67 194.08,-482.89 193.25,-493.45 200.02,-491.67"/>
<text xml:space="preserve" text-anchor="middle" x="231.25" y="-502.95" font-family="Times,serif" font-size="14.00"> charged </text>
</g>
<!-- CompensatingReservation -->
<g id="node7" class="node">
<title>CompensatingReservation</title>
<path fill="azure" stroke="none" d="M324.88,-197.75C324.88,-197.75 179.88,-197.75 179.88,-197.75 173.88,-197.75 167.88,-191.75 167.88,-185.75 167.88,-185.75 167.88,-131.5 167.88,-131.5 167.88,-125.5 173.88,-119.5 179.88,-119.5 179.88,-119.5 324.88,-119.5 324.88,-119.5 330.88,-119.5 336.88,-125.5 336.88,-131.5 336.88,-131.5 336.88,-185.75 336.88,-185.75 336.88,-191.75 330.88,-197.75 324.88,-197.75"/>
<text xml:space="preserve" text-anchor="start" x="175.88" y="-177.45" font-family="Times,serif" font-weight="bold" font-size="14.00">CompensatingReservation</text>
<text xml:space="preserve" text-anchor="start" x="175.88" y="-152.25" font-family="Times,serif" font-size="10.00">$&gt;()</text>
<text xml:space="preserve" text-anchor="start" x="175.88" y="-141" font-family="Times,serif" font-size="10.00">status()</text>
<text xml:space="preserve" text-anchor="start" x="177" y="-129.75" font-family="Times,serif" font-size="10.00"> &#160;&#160;&#160;&#160;&#160;&#160;&#160;&#160;&#160;&#160;&#160;</text>
<polygon fill="#00688b" stroke="#00688b" points="167.88,-167.25 167.88,-167.25 336.88,-167.25 336.88,-167.25 167.88,-167.25"/>
<path fill="none" stroke="#00688b" d="M179.88,-119.5C179.88,-119.5 324.88,-119.5 324.88,-119.5 330.88,-119.5 336.88,-125.5 336.88,-131.5 336.88,-131.5 336.88,-185.75 336.88,-185.75 336.88,-191.75 330.88,-197.75 324.88,-197.75 324.88,-197.75 179.88,-197.75 179.88,-197.75 173.88,-197.75 167.88,-191.75 167.88,-185.75 167.88,-185.75 167.88,-131.5 167.88,-131.5 167.88,-125.5 173.88,-119.5 179.88,-119.5"/>
</g>
<!-- Charging&#45;&gt;CompensatingReservation -->
<g id="edge6" class="edge">
<title>Charging&#45;&gt;CompensatingReservation</title>
<path fill="none" stroke="red" d="M268.29,-534.57C264.83,-453.13 257.95,-290.88 254.48,-209.14"/>
<polygon fill="red" stroke="red" points="257.98,-209.03 254.05,-199.19 250.98,-209.33 257.98,-209.03"/>
<text xml:space="preserve" text-anchor="middle" x="296.96" y="-349.7" font-family="Times,serif" font-size="14.00"> compensate </text>
</g>
<!-- CompensatingCharge -->
<g id="node6" class="node">
<title>CompensatingCharge</title>
<path fill="azure" stroke="none" d="M130.75,-328.5C130.75,-328.5 12,-328.5 12,-328.5 6,-328.5 0,-322.5 0,-316.5 0,-316.5 0,-262.25 0,-262.25 0,-256.25 6,-250.25 12,-250.25 12,-250.25 130.75,-250.25 130.75,-250.25 136.75,-250.25 142.75,-256.25 142.75,-262.25 142.75,-262.25 142.75,-316.5 142.75,-316.5 142.75,-322.5 136.75,-328.5 130.75,-328.5"/>
<text xml:space="preserve" text-anchor="start" x="8" y="-308.2" font-family="Times,serif" font-weight="bold" font-size="14.00">CompensatingCharge</text>
<text xml:space="preserve" text-anchor="start" x="8" y="-283" font-family="Times,serif" font-size="10.00">$&gt;()</text>
<text xml:space="preserve" text-anchor="start" x="8" y="-271.75" font-family="Times,serif" font-size="10.00">status()</text>
<text xml:space="preserve" text-anchor="start" x="9.12" y="-260.5" font-family="Times,serif" font-size="10.00"> &#160;&#160;&#160;&#160;&#160;&#160;&#160;&#160;&#160;&#160;&#160;</text>
<polygon fill="#00688b" stroke="#00688b" points="0,-298 0,-298 142.75,-298 142.75,-298 0,-298"/>
<path fill="none" stroke="#00688b" d="M12,-250.25C12,-250.25 130.75,-250.25 130.75,-250.25 136.75,-250.25 142.75,-256.25 142.75,-262.25 142.75,-262.25 142.75,-316.5 142.75,-316.5 142.75,-322.5 136.75,-328.5 130.75,-328.5 130.75,-328.5 12,-328.5 12,-328.5 6,-328.5 0,-322.5 0,-316.5 0,-316.5 0,-262.25 0,-262.25 0,-256.25 6,-250.25 12,-250.25"/>
</g>
<!-- Shipping&#45;&gt;CompensatingCharge -->
<g id="edge8" class="edge">
<title>Shipping&#45;&gt;CompensatingCharge</title>
<path fill="none" stroke="red" d="M134.46,-381.16C128.84,-375.21 123.36,-369.09 118.38,-363 112.02,-355.23 105.78,-346.57 100.02,-338.01"/>
<polygon fill="red" stroke="red" points="102.99,-336.15 94.58,-329.7 97.13,-339.99 102.99,-336.15"/>
<text xml:space="preserve" text-anchor="middle" x="154.38" y="-349.7" font-family="Times,serif" font-size="14.00"> compensate </text>
</g>
<!-- Completed -->
<g id="node8" class="node">
<title>Completed</title>
<path fill="azure" stroke="none" d="M228.25,-322.88C228.25,-322.88 172.5,-322.88 172.5,-322.88 166.5,-322.88 160.5,-316.88 160.5,-310.88 160.5,-310.88 160.5,-267.88 160.5,-267.88 160.5,-261.88 166.5,-255.88 172.5,-255.88 172.5,-255.88 228.25,-255.88 228.25,-255.88 234.25,-255.88 240.25,-261.88 240.25,-267.88 240.25,-267.88 240.25,-310.88 240.25,-310.88 240.25,-316.88 234.25,-322.88 228.25,-322.88"/>
<text xml:space="preserve" text-anchor="start" x="168.5" y="-302.57" font-family="Times,serif" font-weight="bold" font-size="14.00">Completed</text>
<text xml:space="preserve" text-anchor="start" x="168.5" y="-277.38" font-family="Times,serif" font-size="10.00">status()</text>
<text xml:space="preserve" text-anchor="start" x="169.62" y="-266.12" font-family="Times,serif" font-size="10.00"> &#160;&#160;&#160;&#160;&#160;&#160;&#160;&#160;&#160;&#160;&#160;</text>
<polygon fill="#00688b" stroke="#00688b" points="160.5,-292.38 160.5,-292.38 240.25,-292.38 240.25,-292.38 160.5,-292.38"/>
<path fill="none" stroke="#00688b" d="M172.5,-255.88C172.5,-255.88 228.25,-255.88 228.25,-255.88 234.25,-255.88 240.25,-261.88 240.25,-267.88 240.25,-267.88 240.25,-310.88 240.25,-310.88 240.25,-316.88 234.25,-322.88 228.25,-322.88 228.25,-322.88 172.5,-322.88 172.5,-322.88 166.5,-322.88 160.5,-316.88 160.5,-310.88 160.5,-310.88 160.5,-267.88 160.5,-267.88 160.5,-261.88 166.5,-255.88 172.5,-255.88"/>
</g>
<!-- Shipping&#45;&gt;Completed -->
<g id="edge7" class="edge">
<title>Shipping&#45;&gt;Completed</title>
<path fill="none" stroke="red" d="M191.96,-381.02C193.39,-365.58 194.96,-348.68 196.35,-333.7"/>
<polygon fill="red" stroke="red" points="199.8,-334.46 197.24,-324.18 192.83,-333.81 199.8,-334.46"/>
<text xml:space="preserve" text-anchor="middle" x="219.79" y="-349.7" font-family="Times,serif" font-size="14.00"> shipped </text>
</g>
<!-- CompensatingCharge&#45;&gt;CompensatingReservation -->
<g id="edge9" class="edge">
<title>CompensatingCharge&#45;&gt;CompensatingReservation</title>
<path fill="none" stroke="red" d="M124.7,-250.44C145.05,-235.97 168.43,-219.34 189.58,-204.29"/>
<polygon fill="red" stroke="red" points="191.45,-207.26 197.57,-198.61 187.39,-201.55 191.45,-207.26"/>
<text xml:space="preserve" text-anchor="middle" x="200.46" y="-218.95" font-family="Times,serif" font-size="14.00"> refunded </text>
</g>
<!-- CompensatingReservation&#45;&gt;Failed -->
<g id="edge10" class="edge">
<title>CompensatingReservation&#45;&gt;Failed</title>
<path fill="none" stroke="red" d="M269.63,-119.68C275.78,-106.17 282.74,-90.86 289.05,-76.99"/>
<polygon fill="red" stroke="red" points="292.14,-78.65 293.09,-68.1 285.77,-75.75 292.14,-78.65"/>
<text xml:space="preserve" text-anchor="middle" x="311.27" y="-88.2" font-family="Times,serif" font-size="14.00"> released </text>
</g>
</g>
</svg>
