<?xml version="1.0" encoding="UTF-8" standalone="no"?>
<!DOCTYPE svg PUBLIC "-//W3C//DTD SVG 1.1//EN"
 "http://www.w3.org/Graphics/SVG/1.1/DTD/svg11.dtd">
<!-- Generated by graphviz version 14.1.5 (20260411.2331)
 -->
<!-- Title: Worker Pages: 1 -->
<svg width="96pt" height="280pt"
 viewBox="0.00 0.00 96.00 280.00" xmlns="http://www.w3.org/2000/svg" xmlns:xlink="http://www.w3.org/1999/xlink">
<g id="graph0" class="graph" transform="scale(1 1) rotate(0) translate(4 275.65)">
<title>Worker</title>
<polygon fill="white" stroke="none" points="-4,4 -4,-275.65 92.22,-275.65 92.22,4 -4,4"/>
<!-- Entry -->
<g id="node1" class="node">
<title>Entry</title>
<ellipse fill="black" stroke="#00688b" cx="39.5" cy="-264.45" rx="7.2" ry="7.2"/>
</g>
<!-- Idle -->
<g id="node2" class="node">
<title>Idle</title>
<path fill="azure" stroke="none" d="M67,-220.25C67,-220.25 12,-220.25 12,-220.25 6,-220.25 0,-214.25 0,-208.25 0,-208.25 0,-154 0,-154 0,-148 6,-142 12,-142 12,-142 67,-142 67,-142 73,-142 79,-148 79,-154 79,-154 79,-208.25 79,-208.25 79,-214.25 73,-220.25 67,-220.25"/>
<text xml:space="preserve" text-anchor="start" x="28.25" y="-199.95" font-family="Times,serif" font-weight="bold" font-size="14.00">Idle</text>
<text xml:space="preserve" text-anchor="start" x="8" y="-174.75" font-family="Times,serif" font-size="10.00">assign(msg: str)</text>
<text xml:space="preserve" text-anchor="start" x="8" y="-163.5" font-family="Times,serif" font-size="10.00">busy()</text>
<text xml:space="preserve" text-anchor="start" x="26" y="-152.25" font-family="Times,serif" font-size="10.00"> &#160;&#160;&#160;&#160;&#160;&#160;&#160;&#160;&#160;&#160;&#160;</text>
<polygon fill="#00688b" stroke="#00688b" points="0,-189.75 0,-189.75 79,-189.75 79,-189.75 0,-189.75"/>
<path fill="none" stroke="#00688b" d="M12,-142C12,-142 67,-142 67,-142 73,-142 79,-148 79,-154 79,-154 79,-208.25 79,-208.25 79,-214.25 73,-220.25 67,-220.25 67,-220.25 12,-220.25 12,-220.25 6,-220.25 0,-214.25 0,-208.25 0,-208.25 0,-154 0,-154 0,-148 6,-142 12,-142"/>
</g>
<!-- Entry&#45;&gt;Idle -->
<g id="edge1" class="edge">
<title>Entry&#45;&gt;Idle</title>
<path fill="none" stroke="red" d="M39.5,-256.79C39.5,-250.78 39.5,-241.32 39.5,-231.13"/>
<polygon fill="red" stroke="red" points="43,-231.44 39.5,-221.44 36,-231.44 43,-231.44"/>
</g>
<!-- Working -->
<g id="node3" class="node">
<title>Working</title>
<path fill="azure" stroke="none" d="M61.38,-89.5C61.38,-89.5 17.62,-89.5 17.62,-89.5 11.62,-89.5 5.62,-83.5 5.62,-77.5 5.62,-77.5 5.62,-12 5.62,-12 5.62,-6 11.62,0 17.62,0 17.62,0 61.38,0 61.38,0 67.38,0 73.38,-6 73.38,-12 73.38,-12 73.38,-77.5 73.38,-77.5 73.38,-83.5 67.38,-89.5 61.38,-89.5"/>
<text xml:space="preserve" text-anchor="start" x="13.62" y="-69.2" font-family="Times,serif" font-weight="bold" font-size="14.00">Working</text>
<text xml:space="preserve" text-anchor="start" x="13.62" y="-44" font-family="Times,serif" font-size="10.00">$&gt;()</text>
<text xml:space="preserve" text-anchor="start" x="13.62" y="-32.75" font-family="Times,serif" font-size="10.00">finish()</text>
<text xml:space="preserve" text-anchor="start" x="13.62" y="-21.5" font-family="Times,serif" font-size="10.00">busy()</text>
<text xml:space="preserve" text-anchor="start" x="14.75" y="-10.25" font-family="Times,serif" font-size="10.00"> &#160;&#160;&#160;&#160;&#160;&#160;&#160;&#160;&#160;&#160;&#160;</text>
<polygon fill="#00688b" stroke="#00688b" points="5.62,-59 5.62,-59 73.38,-59 73.38,-59 5.62,-59"/>
<path fill="none" stroke="#00688b" d="M17.62,0C17.62,0 61.38,0 61.38,0 67.38,0 73.38,-6 73.38,-12 73.38,-12 73.38,-77.5 73.38,-77.5 73.38,-83.5 67.38,-89.5 61.38,-89.5 61.38,-89.5 17.62,-89.5 17.62,-89.5 11.62,-89.5 5.62,-83.5 5.62,-77.5 5.62,-77.5 5.62,-12 5.62,-12 5.62,-6 11.62,0 17.62,0"/>
</g>
<!-- Idle&#45;&gt;Working -->
<g id="edge2" class="edge">
<title>Idle&#45;&gt;Working</title>
<path fill="none" stroke="red" d="M15.1,-142.26C12.28,-136.35 9.85,-130.15 8.25,-124 6.23,-116.2 6.52,-108.14 8.22,-100.29"/>
<polygon fill="red" stroke="red" points="11.54,-101.41 11.05,-90.83 4.83,-99.41 11.54,-101.41"/>
<text xml:space="preserve" text-anchor="middle" x="28.88" y="-110.7" font-family="Times,serif" font-size="14.00"> assign </text>
</g>
<!-- Working&#45;&gt;Idle -->
<g id="edge3" class="edge">
<title>Working&#45;&gt;Idle</title>
<path fill="none" stroke="red" d="M48.4,-89.14C49.8,-100.47 50.5,-112.68 49.5,-124 49.3,-126.31 49.05,-128.67 48.76,-131.05"/>
<polygon fill="red" stroke="red" points="45.33,-130.32 47.4,-140.71 52.26,-131.29 45.33,-130.32"/>
<text xml:space="preserve" text-anchor="middle" x="69.1" y="-110.7" font-family="Times,serif" font-size="14.00"> finish </text>
</g>
</g>
</svg>
