<?xml version="1.0" encoding="UTF-8" standalone="no"?>
<!DOCTYPE svg PUBLIC "-//W3C//DTD SVG 1.1//EN"
 "http://www.w3.org/Graphics/SVG/1.1/DTD/svg11.dtd">
<!-- Generated by graphviz version 14.1.5 (20260411.2331)
 -->
<!-- Title: MessageStore Pages: 1 -->
<svg width="144pt" height="148pt"
 viewBox="0.00 0.00 144.00 148.00" xmlns="http://www.w3.org/2000/svg" xmlns:xlink="http://www.w3.org/1999/xlink">
<g id="graph0" class="graph" transform="scale(1 1) rotate(0) translate(4 143.9)">
<title>MessageStore</title>
<polygon fill="white" stroke="none" points="-4,4 -4,-143.9 140,-143.9 140,4 -4,4"/>
<!-- Entry -->
<g id="node1" class="node">
<title>Entry</title>
<ellipse fill="black" stroke="#00688b" cx="68" cy="-132.7" rx="7.2" ry="7.2"/>
</g>
<!-- Recording -->
<g id="node2" class="node">
<title>Recording</title>
<path fill="azure" stroke="none" d="M124,-89.5C124,-89.5 12,-89.5 12,-89.5 6,-89.5 0,-83.5 0,-77.5 0,-77.5 0,-12 0,-12 0,-6 6,0 12,0 12,0 124,0 124,0 130,0 136,-6 136,-12 136,-12 136,-77.5 136,-77.5 136,-83.5 130,-89.5 124,-89.5"/>
<text xml:space="preserve" text-anchor="start" x="38" y="-69.2" font-family="Times,serif" font-weight="bold" font-size="14.00">Recording</text>
<text xml:space="preserve" text-anchor="start" x="8" y="-44" font-family="Times,serif" font-size="10.00">record(topic: str, payload: str)</text>
<text xml:space="preserve" text-anchor="start" x="8" y="-32.75" font-family="Times,serif" font-size="10.00">count_for(topic: str)</text>
<text xml:space="preserve" text-anchor="start" x="8" y="-21.5" font-family="Times,serif" font-size="10.00">total()</text>
<text xml:space="preserve" text-anchor="start" x="54.5" y="-10.25" font-family="Times,serif" font-size="10.00"> &#160;&#160;&#160;&#160;&#160;&#160;&#160;&#160;&#160;&#160;&#160;</text>
<polygon fill="#00688b" stroke="#00688b" points="0,-59 0,-59 136,-59 136,-59 0,-59"/>
<path fill="none" stroke="#00688b" d="M12,0C12,0 124,0 124,0 130,0 136,-6 136,-12 136,-12 136,-77.5 136,-77.5 136,-83.5 130,-89.5 124,-89.5 124,-89.5 12,-89.5 12,-89.5 6,-89.5 0,-83.5 0,-77.5 0,-77.5 0,-12 0,-12 0,-6 6,0 12,0"/>
</g>
<!-- Entry&#45;&gt;Recording -->
<g id="edge1" class="edge">
<title>Entry&#45;&gt;Recording</title>
<path fill="none" stroke="red" d="M68,-125.24C68,-119.51 68,-110.53 68,-100.64"/>
<polygon fill="red" stroke="red" points="71.5,-100.72 68,-90.72 64.5,-100.72 71.5,-100.72"/>
</g>
</g>
</svg>
