<?xml version="1.0" encoding="UTF-8" standalone="no"?>
<!DOCTYPE svg PUBLIC "-//W3C//DTD SVG 1.1//EN"
 "http://www.w3.org/Graphics/SVG/1.1/DTD/svg11.dtd">
<!-- Generated by graphviz version 14.1.5 (20260411.2331)
 -->
<!-- Title: WizardMachine Pages: 1 -->
<svg width="338pt" height="780pt"
 viewBox="0.00 0.00 338.00 780.00" xmlns="http://www.w3.org/2000/svg" xmlns:xlink="http://www.w3.org/1999/xlink">
<g id="graph0" class="graph" transform="scale(1 1) rotate(0) translate(4 776.15)">
<title>WizardMachine</title>
<polygon fill="white" stroke="none" points="-4,4 -4,-776.15 334.24,-776.15 334.24,4 -4,4"/>
<!-- Entry -->
<g id="node1" class="node">
<title>Entry</title>
<ellipse fill="black" stroke="#00688b" cx="194.75" cy="-764.95" rx="7.2" ry="7.2"/>
</g>
<!-- Start -->
<g id="node2" class="node">
<title>Start</title>
<path fill="azure" stroke="none" d="M218.12,-720.75C218.12,-720.75 171.38,-720.75 171.38,-720.75 165.38,-720.75 159.38,-714.75 159.38,-708.75 159.38,-708.75 159.38,-654.5 159.38,-654.5 159.38,-648.5 165.38,-642.5 171.38,-642.5 171.38,-642.5 218.12,-642.5 218.12,-642.5 224.12,-642.5 230.12,-648.5 230.12,-654.5 230.12,-654.5 230.12,-708.75 230.12,-708.75 230.12,-714.75 224.12,-720.75 218.12,-720.75"/>
<text xml:space="preserve" text-anchor="start" x="180.12" y="-700.45" font-family="Times,serif" font-weight="bold" font-size="14.00">Start</text>
<text xml:space="preserve" text-anchor="start" x="167.38" y="-675.25" font-family="Times,serif" font-size="10.00">start(user: str)</text>
<text xml:space="preserve" text-anchor="start" x="167.38" y="-664" font-family="Times,serif" font-size="10.00">where_next()</text>
<text xml:space="preserve" text-anchor="start" x="181.25" y="-652.75" font-family="Times,serif" font-size="10.00"> &#160;&#160;&#160;&#160;&#160;&#160;&#160;&#160;&#160;&#160;&#160;</text>
<polygon fill="#00688b" stroke="#00688b" points="159.38,-690.25 159.38,-690.25 230.12,-690.25 230.12,-690.25 159.38,-690.25"/>
<path fill="none" stroke="#00688b" d="M171.38,-642.5C171.38,-642.5 218.12,-642.5 218.12,-642.5 224.12,-642.5 230.12,-648.5 230.12,-654.5 230.12,-654.5 230.12,-708.75 230.12,-708.75 230.12,-714.75 224.12,-720.75 218.12,-720.75 218.12,-720.75 171.38,-720.75 171.38,-720.75 165.38,-720.75 159.38,-714.75 159.38,-708.75 159.38,-708.75 159.38,-654.5 159.38,-654.5 159.38,-648.5 165.38,-642.5 171.38,-642.5"/>
</g>
<!-- Entry&#45;&gt;Start -->
<g id="edge1" class="edge">
<title>Entry&#45;&gt;Start</title>
<path fill="none" stroke="red" d="M194.75,-757.29C194.75,-751.28 194.75,-741.82 194.75,-731.63"/>
<polygon fill="red" stroke="red" points="198.25,-731.94 194.75,-721.94 191.25,-731.94 198.25,-731.94"/>
</g>
<!-- NeedsClientCollect -->
<g id="node3" class="node">
<title>NeedsClientCollect</title>
<path fill="azure" stroke="none" d="M245.88,-590C245.88,-590 143.62,-590 143.62,-590 137.62,-590 131.62,-584 131.62,-578 131.62,-578 131.62,-523.75 131.62,-523.75 131.62,-517.75 137.62,-511.75 143.62,-511.75 143.62,-511.75 245.88,-511.75 245.88,-511.75 251.88,-511.75 257.88,-517.75 257.88,-523.75 257.88,-523.75 257.88,-578 257.88,-578 257.88,-584 251.88,-590 245.88,-590"/>
<text xml:space="preserve" text-anchor="start" x="139.62" y="-569.7" font-family="Times,serif" font-weight="bold" font-size="14.00">NeedsClientCollect</text>
<text xml:space="preserve" text-anchor="start" x="139.62" y="-544.5" font-family="Times,serif" font-size="10.00">client_collect(email: str)</text>
<text xml:space="preserve" text-anchor="start" x="139.62" y="-533.25" font-family="Times,serif" font-size="10.00">where_next()</text>
<text xml:space="preserve" text-anchor="start" x="176" y="-522" font-family="Times,serif" font-size="10.00"> &#160;&#160;&#160;&#160;&#160;&#160;&#160;&#160;&#160;&#160;&#160;</text>
<polygon fill="#00688b" stroke="#00688b" points="131.62,-559.5 131.62,-559.5 257.88,-559.5 257.88,-559.5 131.62,-559.5"/>
<path fill="none" stroke="#00688b" d="M143.62,-511.75C143.62,-511.75 245.88,-511.75 245.88,-511.75 251.88,-511.75 257.88,-517.75 257.88,-523.75 257.88,-523.75 257.88,-578 257.88,-578 257.88,-584 251.88,-590 245.88,-590 245.88,-590 143.62,-590 143.62,-590 137.62,-590 131.62,-584 131.62,-578 131.62,-578 131.62,-523.75 131.62,-523.75 131.62,-517.75 137.62,-511.75 143.62,-511.75"/>
</g>
<!-- Start&#45;&gt;NeedsClientCollect -->
<g id="edge2" class="edge">
<title>Start&#45;&gt;NeedsClientCollect</title>
<path fill="none" stroke="red" d="M194.75,-642.69C194.75,-629.71 194.75,-614.99 194.75,-601.24"/>
<polygon fill="red" stroke="red" points="198.25,-601.5 194.75,-591.5 191.25,-601.5 198.25,-601.5"/>
<text xml:space="preserve" text-anchor="middle" x="210.12" y="-611.2" font-family="Times,serif" font-size="14.00"> start </text>
</g>
<!-- NeedsServerValidate -->
<g id="node4" class="node">
<title>NeedsServerValidate</title>
<path fill="azure" stroke="none" d="M251.12,-459.25C251.12,-459.25 138.38,-459.25 138.38,-459.25 132.38,-459.25 126.38,-453.25 126.38,-447.25 126.38,-447.25 126.38,-393 126.38,-393 126.38,-387 132.38,-381 138.38,-381 138.38,-381 251.12,-381 251.12,-381 257.12,-381 263.12,-387 263.12,-393 263.12,-393 263.12,-447.25 263.12,-447.25 263.12,-453.25 257.12,-459.25 251.12,-459.25"/>
<text xml:space="preserve" text-anchor="start" x="134.38" y="-438.95" font-family="Times,serif" font-weight="bold" font-size="14.00">NeedsServerValidate</text>
<text xml:space="preserve" text-anchor="start" x="134.38" y="-413.75" font-family="Times,serif" font-size="10.00">server_validate()</text>
<text xml:space="preserve" text-anchor="start" x="134.38" y="-402.5" font-family="Times,serif" font-size="10.00">where_next()</text>
<text xml:space="preserve" text-anchor="start" x="155" y="-391.25" font-family="Times,serif" font-size="10.00"> &#160;&#160;&#160;&#160;&#160;&#160;&#160;&#160;&#160;&#160;&#160;</text>
<polygon fill="#00688b" stroke="#00688b" points="126.38,-428.75 126.38,-428.75 263.12,-428.75 263.12,-428.75 126.38,-428.75"/>
<path fill="none" stroke="#00688b" d="M138.38,-381C138.38,-381 251.12,-381 251.12,-381 257.12,-381 263.12,-387 263.12,-393 263.12,-393 263.12,-447.25 263.12,-447.25 263.12,-453.25 257.12,-459.25 251.12,-459.25 251.12,-459.25 138.38,-459.25 138.38,-459.25 132.38,-459.25 126.38,-453.25 126.38,-447.25 126.38,-447.25 126.38,-393 126.38,-393 126.38,-387 132.38,-381 138.38,-381"/>
</g>
<!-- NeedsClientCollect&#45;&gt;NeedsServerValidate -->
<g id="edge3" class="edge">
<title>NeedsClientCollect&#45;&gt;NeedsServerValidate</title>
<path fill="none" stroke="red" d="M194.75,-511.94C194.75,-498.96 194.75,-484.24 194.75,-470.49"/>
<polygon fill="red" stroke="red" points="198.25,-470.75 194.75,-460.75 191.25,-470.75 198.25,-470.75"/>
<text xml:space="preserve" text-anchor="middle" x="234.88" y="-480.45" font-family="Times,serif" font-size="14.00"> client_collect </text>
</g>
<!-- NeedsClientConfirm -->
<g id="node5" class="node">
<title>NeedsClientConfirm</title>
<path fill="azure" stroke="none" d="M190.75,-328.5C190.75,-328.5 78.75,-328.5 78.75,-328.5 72.75,-328.5 66.75,-322.5 66.75,-316.5 66.75,-316.5 66.75,-262.25 66.75,-262.25 66.75,-256.25 72.75,-250.25 78.75,-250.25 78.75,-250.25 190.75,-250.25 190.75,-250.25 196.75,-250.25 202.75,-256.25 202.75,-262.25 202.75,-262.25 202.75,-316.5 202.75,-316.5 202.75,-322.5 196.75,-328.5 190.75,-328.5"/>
<text xml:space="preserve" text-anchor="start" x="74.75" y="-308.2" font-family="Times,serif" font-weight="bold" font-size="14.00">NeedsClientConfirm</text>
<text xml:space="preserve" text-anchor="start" x="74.75" y="-283" font-family="Times,serif" font-size="10.00">client_confirm(accept: bool)</text>
<text xml:space="preserve" text-anchor="start" x="74.75" y="-271.75" font-family="Times,serif" font-size="10.00">where_next()</text>
<text xml:space="preserve" text-anchor="start" x="119.38" y="-260.5" font-family="Times,serif" font-size="10.00"> &#160;&#160;&#160;&#160;&#160;&#160;&#160;&#160;&#160;&#160;&#160;</text>
<polygon fill="#00688b" stroke="#00688b" points="66.75,-298 66.75,-298 202.75,-298 202.75,-298 66.75,-298"/>
<path fill="none" stroke="#00688b" d="M78.75,-250.25C78.75,-250.25 190.75,-250.25 190.75,-250.25 196.75,-250.25 202.75,-256.25 202.75,-262.25 202.75,-262.25 202.75,-316.5 202.75,-316.5 202.75,-322.5 196.75,-328.5 190.75,-328.5 190.75,-328.5 78.75,-328.5 78.75,-328.5 72.75,-328.5 66.75,-322.5 66.75,-316.5 66.75,-316.5 66.75,-262.25 66.75,-262.25 66.75,-256.25 72.75,-250.25 78.75,-250.25"/>
</g>
<!-- NeedsServerValidate&#45;&gt;NeedsClientConfirm -->
<g id="edge4" class="edge">
<title>NeedsServerValidate&#45;&gt;NeedsClientConfirm</title>
<path fill="none" stroke="red" d="M154.9,-381.18C150.55,-375.46 146.66,-369.34 143.75,-363 140.4,-355.7 138.15,-347.58 136.67,-339.49"/>
<polygon fill="red" stroke="red" points="140.15,-339.05 135.27,-329.65 133.22,-340.04 140.15,-339.05"/>
<text xml:space="preserve" text-anchor="middle" x="188.75" y="-349.7" font-family="Times,serif" font-size="14.00"> server_validate </text>
</g>
<!-- Rejected -->
<g id="node9" class="node">
<title>Rejected</title>
<path fill="azure" stroke="none" d="M278.75,-322.88C278.75,-322.88 232.75,-322.88 232.75,-322.88 226.75,-322.88 220.75,-316.88 220.75,-310.88 220.75,-310.88 220.75,-267.88 220.75,-267.88 220.75,-261.88 226.75,-255.88 232.75,-255.88 232.75,-255.88 278.75,-255.88 278.75,-255.88 284.75,-255.88 290.75,-261.88 290.75,-267.88 290.75,-267.88 290.75,-310.88 290.75,-310.88 290.75,-316.88 284.75,-322.88 278.75,-322.88"/>
<text xml:space="preserve" text-anchor="start" x="230.62" y="-302.57" font-family="Times,serif" font-weight="bold" font-size="14.00">Rejected</text>
<text xml:space="preserve" text-anchor="start" x="228.75" y="-277.38" font-family="Times,serif" font-size="10.00">where_next()</text>
<text xml:space="preserve" text-anchor="start" x="242.25" y="-266.12" font-family="Times,serif" font-size="10.00"> &#160;&#160;&#160;&#160;&#160;&#160;&#160;&#160;&#160;&#160;&#160;</text>
<polygon fill="#00688b" stroke="#00688b" points="220.75,-292.38 220.75,-292.38 290.75,-292.38 290.75,-292.38 220.75,-292.38"/>
<path fill="none" stroke="#00688b" d="M232.75,-255.88C232.75,-255.88 278.75,-255.88 278.75,-255.88 284.75,-255.88 290.75,-261.88 290.75,-267.88 290.75,-267.88 290.75,-310.88 290.75,-310.88 290.75,-316.88 284.75,-322.88 278.75,-322.88 278.75,-322.88 232.75,-322.88 232.75,-322.88 226.75,-322.88 220.75,-316.88 220.75,-310.88 220.75,-310.88 220.75,-267.88 220.75,-267.88 220.75,-261.88 226.75,-255.88 232.75,-255.88"/>
</g>
<!-- NeedsServerValidate&#45;&gt;Rejected -->
<g id="edge5" class="edge">
<title>NeedsServerValidate&#45;&gt;Rejected</title>
<path fill="none" stroke="red" d="M223.47,-381.14C227.24,-375.25 230.8,-369.09 233.75,-363 238.21,-353.78 241.99,-343.46 245.09,-333.56"/>
<polygon fill="red" stroke="red" points="248.41,-334.68 247.88,-324.1 241.7,-332.7 248.41,-334.68"/>
<text xml:space="preserve" text-anchor="middle" x="285.24" y="-349.7" font-family="Times,serif" font-size="14.00"> server_validate </text>
</g>
<!-- NeedsServerProvision -->
<g id="node6" class="node">
<title>NeedsServerProvision</title>
<path fill="azure" stroke="none" d="M131.5,-197.75C131.5,-197.75 12,-197.75 12,-197.75 6,-197.75 0,-191.75 0,-185.75 0,-185.75 0,-131.5 0,-131.5 0,-125.5 6,-119.5 12,-119.5 12,-119.5 131.5,-119.5 131.5,-119.5 137.5,-119.5 143.5,-125.5 143.5,-131.5 143.5,-131.5 143.5,-185.75 143.5,-185.75 143.5,-191.75 137.5,-197.75 131.5,-197.75"/>
<text xml:space="preserve" text-anchor="start" x="8" y="-177.45" font-family="Times,serif" font-weight="bold" font-size="14.00">NeedsServerProvision</text>
<text xml:space="preserve" text-anchor="start" x="8" y="-152.25" font-family="Times,serif" font-size="10.00">server_provision()</text>
<text xml:space="preserve" text-anchor="start" x="8" y="-141" font-family="Times,serif" font-size="10.00">where_next()</text>
<text xml:space="preserve" text-anchor="start" x="31.62" y="-129.75" font-family="Times,serif" font-size="10.00"> &#160;&#160;&#160;&#160;&#160;&#160;&#160;&#160;&#160;&#160;&#160;</text>
<polygon fill="#00688b" stroke="#00688b" points="0,-167.25 0,-167.25 143.5,-167.25 143.5,-167.25 0,-167.25"/>
<path fill="none" stroke="#00688b" d="M12,-119.5C12,-119.5 131.5,-119.5 131.5,-119.5 137.5,-119.5 143.5,-125.5 143.5,-131.5 143.5,-131.5 143.5,-185.75 143.5,-185.75 143.5,-191.75 137.5,-197.75 131.5,-197.75 131.5,-197.75 12,-197.75 12,-197.75 6,-197.75 0,-191.75 0,-185.75 0,-185.75 0,-131.5 0,-131.5 0,-125.5 6,-119.5 12,-119.5"/>
</g>
<!-- NeedsClientConfirm&#45;&gt;NeedsServerProvision -->
<g id="edge6" class="edge">
<title>NeedsClientConfirm&#45;&gt;NeedsServerProvision</title>
<path fill="none" stroke="red" d="M99.24,-250.48C94.99,-244.67 91.08,-238.51 88,-232.25 84.39,-224.92 81.57,-216.78 79.38,-208.67"/>
<polygon fill="red" stroke="red" points="82.84,-208.1 77.1,-199.19 76.03,-209.73 82.84,-208.1"/>
<text xml:space="preserve" text-anchor="middle" x="131.88" y="-218.95" font-family="Times,serif" font-size="14.00"> client_confirm </text>
</g>
<!-- Cancelled -->
<g id="node8" class="node">
<title>Cancelled</title>
<path fill="azure" stroke="none" d="M222.25,-192.12C222.25,-192.12 173.25,-192.12 173.25,-192.12 167.25,-192.12 161.25,-186.12 161.25,-180.12 161.25,-180.12 161.25,-137.12 161.25,-137.12 161.25,-131.12 167.25,-125.12 173.25,-125.12 173.25,-125.12 222.25,-125.12 222.25,-125.12 228.25,-125.12 234.25,-131.12 234.25,-137.12 234.25,-137.12 234.25,-180.12 234.25,-180.12 234.25,-186.12 228.25,-192.12 222.25,-192.12"/>
<text xml:space="preserve" text-anchor="start" x="169.25" y="-171.82" font-family="Times,serif" font-weight="bold" font-size="14.00">Cancelled</text>
<text xml:space="preserve" text-anchor="start" x="169.25" y="-146.62" font-family="Times,serif" font-size="10.00">where_next()</text>
<text xml:space="preserve" text-anchor="start" x="182.75" y="-135.38" font-family="Times,serif" font-size="10.00"> &#160;&#160;&#160;&#160;&#160;&#160;&#160;&#160;&#160;&#160;&#160;</text>
<polygon fill="#00688b" stroke="#00688b" points="161.25,-161.62 161.25,-161.62 234.25,-161.62 234.25,-161.62 161.25,-161.62"/>
<path fill="none" stroke="#00688b" d="M173.25,-125.12C173.25,-125.12 222.25,-125.12 222.25,-125.12 228.25,-125.12 234.25,-131.12 234.25,-137.12 234.25,-137.12 234.25,-180.12 234.25,-180.12 234.25,-186.12 228.25,-192.12 222.25,-192.12 222.25,-192.12 173.25,-192.12 173.25,-192.12 167.25,-192.12 161.25,-186.12 161.25,-180.12 161.25,-180.12 161.25,-137.12 161.25,-137.12 161.25,-131.12 167.25,-125.12 173.25,-125.12"/>
</g>
<!-- NeedsClientConfirm&#45;&gt;Cancelled -->
<g id="edge7" class="edge">
<title>NeedsClientConfirm&#45;&gt;Cancelled</title>
<path fill="none" stroke="red" d="M164.99,-250.52C168.95,-244.6 172.68,-238.41 175.75,-232.25 180.32,-223.08 184.14,-212.79 187.25,-202.89"/>
<polygon fill="red" stroke="red" points="190.57,-204.01 190.03,-193.43 183.86,-202.03 190.57,-204.01"/>
<text xml:space="preserve" text-anchor="middle" x="226.23" y="-218.95" font-family="Times,serif" font-size="14.00"> client_confirm </text>
</g>
<!-- Done -->
<g id="node7" class="node">
<title>Done</title>
<path fill="azure" stroke="none" d="M94.75,-67C94.75,-67 48.75,-67 48.75,-67 42.75,-67 36.75,-61 36.75,-55 36.75,-55 36.75,-12 36.75,-12 36.75,-6 42.75,0 48.75,0 48.75,0 94.75,0 94.75,0 100.75,0 106.75,-6 106.75,-12 106.75,-12 106.75,-55 106.75,-55 106.75,-61 100.75,-67 94.75,-67"/>
<text xml:space="preserve" text-anchor="start" x="56.75" y="-46.7" font-family="Times,serif" font-weight="bold" font-size="14.00">Done</text>
<text xml:space="preserve" text-anchor="start" x="44.75" y="-21.5" font-family="Times,serif" font-size="10.00">where_next()</text>
<text xml:space="preserve" text-anchor="start" x="58.25" y="-10.25" font-family="Times,serif" font-size="10.00"> &#160;&#160;&#160;&#160;&#160;&#160;&#160;&#160;&#160;&#160;&#160;</text>
<polygon fill="#00688b" stroke="#00688b" points="36.75,-36.5 36.75,-36.5 106.75,-36.5 106.75,-36.5 36.75,-36.5"/>
<path fill="none" stroke="#00688b" d="M48.75,0C48.75,0 94.75,0 94.75,0 100.75,0 106.75,-6 106.75,-12 106.75,-12 106.75,-55 106.75,-55 106.75,-61 100.75,-67 94.75,-67 94.75,-67 48.75,-67 48.75,-67 42.75,-67 36.75,-61 36.75,-55 36.75,-55 36.75,-12 36.75,-12 36.75,-6 42.75,0 48.75,0"/>
</g>
<!-- NeedsServerProvision&#45;&gt;Done -->
<g id="edge8" class="edge">
<title>NeedsServerProvision&#45;&gt;Done</title>
<path fill="none" stroke="red" d="M71.75,-119.68C71.75,-106.56 71.75,-91.76 71.75,-78.22"/>
<polygon fill="red" stroke="red" points="75.25,-78.23 71.75,-68.23 68.25,-78.23 75.25,-78.23"/>
<text xml:space="preserve" text-anchor="middle" x="120.88" y="-88.2" font-family="Times,serif" font-size="14.00"> server_provision </text>
</g>
</g>
</svg>
