<?xml version="1.0" encoding="UTF-8" standalone="no"?>
<!DOCTYPE svg PUBLIC "-//W3C//DTD SVG 1.1//EN"
 "http://www.w3.org/Graphics/SVG/1.1/DTD/svg11.dtd">
<!-- Generated by graphviz version 14.1.5 (20260411.2331)
 -->
<!-- Title: WizardMachine Pages: 1 -->
<svg width="299pt" height="780pt"
 viewBox="0.00 0.00 299.00 780.00" xmlns="http://www.w3.org/2000/svg" xmlns:xlink="http://www.w3.org/1999/xlink">
<g id="graph0" class="graph" transform="scale(1 1) rotate(0) translate(4 776.15)">
<title>WizardMachine</title>
<polygon fill="white" stroke="none" points="-4,4 -4,-776.15 294.75,-776.15 294.75,4 -4,4"/>
<!-- Entry -->
<g id="node1" class="node">
<title>Entry</title>
<ellipse fill="black" stroke="#00688b" cx="195.75" cy="-764.95" rx="7.2" ry="7.2"/>
</g>
<!-- Start -->
<g id="node2" class="node">
<title>Start</title>
<path fill="azure" stroke="none" d="M219.12,-720.75C219.12,-720.75 172.38,-720.75 172.38,-720.75 166.38,-720.75 160.38,-714.75 160.38,-708.75 160.38,-708.75 160.38,-654.5 160.38,-654.5 160.38,-648.5 166.38,-642.5 172.38,-642.5 172.38,-642.5 219.12,-642.5 219.12,-642.5 225.12,-642.5 231.12,-648.5 231.12,-654.5 231.12,-654.5 231.12,-708.75 231.12,-708.75 231.12,-714.75 225.12,-720.75 219.12,-720.75"/>
<text xml:space="preserve" text-anchor="start" x="181.12" y="-700.45" font-family="Times,serif" font-weight="bold" font-size="14.00">Start</text>
<text xml:space="preserve" text-anchor="start" x="168.38" y="-675.25" font-family="Times,serif" font-size="10.00">start(user: str)</text>
<text xml:space="preserve" text-anchor="start" x="168.38" y="-664" font-family="Times,serif" font-size="10.00">where_next()</text>
<text xml:space="preserve" text-anchor="start" x="182.25" y="-652.75" font-family="Times,serif" font-size="10.00"> &#160;&#160;&#160;&#160;&#160;&#160;&#160;&#160;&#160;&#160;&#160;</text>
<polygon fill="#00688b" stroke="#00688b" points="160.38,-690.25 160.38,-690.25 231.12,-690.25 231.12,-690.25 160.38,-690.25"/>
<path fill="none" stroke="#00688b" d="M172.38,-642.5C172.38,-642.5 219.12,-642.5 219.12,-642.5 225.12,-642.5 231.12,-648.5 231.12,-654.5 231.12,-654.5 231.12,-708.75 231.12,-708.75 231.12,-714.75 225.12,-720.75 219.12,-720.75 219.12,-720.75 172.38,-720.75 172.38,-720.75 166.38,-720.75 160.38,-714.75 160.38,-708.75 160.38,-708.75 160.38,-654.5 160.38,-654.5 160.38,-648.5 166.38,-642.5 172.38,-642.5"/>
</g>
<!-- Entry&#45;&gt;Start -->
<g id="edge1" class="edge">
<title>Entry&#45;&gt;Start</title>
<path fill="none" stroke="red" d="M195.75,-757.29C195.75,-751.28 195.75,-741.82 195.75,-731.63"/>
<polygon fill="red" stroke="red" points="199.25,-731.94 195.75,-721.94 192.25,-731.94 199.25,-731.94"/>
</g>
<!-- NeedsClientCollect -->
<g id="node3" class="node">
<title>NeedsClientCollect</title>
<path fill="azure" stroke="none" d="M246.88,-590C246.88,-590 144.62,-590 144.62,-590 138.62,-590 132.62,-584 132.62,-578 132.62,-578 132.62,-523.75 132.62,-523.75 132.62,-517.75 138.62,-511.75 144.62,-511.75 144.62,-511.75 246.88,-511.75 246.88,-511.75 252.88,-511.75 258.88,-517.75 258.88,-523.75 258.88,-523.75 258.88,-578 258.88,-578 258.88,-584 252.88,-590 246.88,-590"/>
<text xml:space="preserve" text-anchor="start" x="140.62" y="-569.7" font-family="Times,serif" font-weight="bold" font-size="14.00">NeedsClientCollect</text>
<text xml:space="preserve" text-anchor="start" x="140.62" y="-544.5" font-family="Times,serif" font-size="10.00">client_collect(email: str)</text>
<text xml:space="preserve" text-anchor="start" x="140.62" y="-533.25" font-family="Times,serif" font-size="10.00">where_next()</text>
<text xml:space="preserve" text-anchor="start" x="177" y="-522" font-family="Times,serif" font-size="10.00"> &#160;&#160;&#160;&#160;&#160;&#160;&#160;&#160;&#160;&#160;&#160;</text>
<polygon fill="#00688b" stroke="#00688b" points="132.62,-559.5 132.62,-559.5 258.88,-559.5 258.88,-559.5 132.62,-559.5"/>
<path fill="none" stroke="#00688b" d="M144.62,-511.75C144.62,-511.75 246.88,-511.75 246.88,-511.75 252.88,-511.75 258.88,-517.75 258.88,-523.75 258.88,-523.75 258.88,-578 258.88,-578 258.88,-584 252.88,-590 246.88,-590 246.88,-590 144.62,-590 144.62,-590 138.62,-590 132.62,-584 132.62,-578 132.62,-578 132.62,-523.75 132.62,-523.75 132.62,-517.75 138.62,-511.75 144.62,-511.75"/>
</g>
<!-- Start&#45;&gt;NeedsClientCollect -->
<g id="edge2" class="edge">
<title>Start&#45;&gt;NeedsClientCollect</title>
<path fill="none" stroke="red" d="M195.75,-642.69C195.75,-629.71 195.75,-614.99 195.75,-601.24"/>
<polygon fill="red" stroke="red" points="199.25,-601.5 195.75,-591.5 192.25,-601.5 199.25,-601.5"/>
<text xml:space="preserve" text-anchor="middle" x="211.12" y="-611.2" font-family="Times,serif" font-size="14.00"> start </text>
</g>
<!-- NeedsServerValidate -->
<g id="node4" class="node">
<title>NeedsServerValidate</title>
<path fill="azure" stroke="none" d="M252.12,-459.25C252.12,-459.25 139.38,-459.25 139.38,-459.25 133.38,-459.25 127.38,-453.25 127.38,-447.25 127.38,-447.25 127.38,-393 127.38,-393 127.38,-387 133.38,-381 139.38,-381 139.38,-381 252.12,-381 252.12,-381 258.12,-381 264.12,-387 264.12,-393 264.12,-393 264.12,-447.25 264.12,-447.25 264.12,-453.25 258.12,-459.25 252.12,-459.25"/>
<text xml:space="preserve" text-anchor="start" x="135.38" y="-438.95" font-family="Times,serif" font-weight="bold" font-size="14.00">NeedsServerValidate</text>
<text xml:space="preserve" text-anchor="start" x="135.38" y="-413.75" font-family="Times,serif" font-size="10.00">server_validate()</text>
<text xml:space="preserve" text-anchor="start" x="135.38" y="-402.5" font-family="Times,serif" font-size="10.00">where_next()</text>
<text xml:space="preserve" text-anchor="start" x="156" y="-391.25" font-family="Times,serif" font-size="10.00"> &#160;&#160;&#160;&#160;&#160;&#160;&#160;&#160;&#160;&#160;&#160;</text>
<polygon fill="#00688b" stroke="#00688b" points="127.38,-428.75 127.38,-428.75 264.12,-428.75 264.12,-428.75 127.38,-428.75"/>
<path fill="none" stroke="#00688b" d="M139.38,-381C139.38,-381 252.12,-381 252.12,-381 258.12,-381 264.12,-387 264.12,-393 264.12,-393 264.12,-447.25 264.12,-447.25 264.12,-453.25 258.12,-459.25 252.12,-459.25 252.12,-459.25 139.38,-459.25 139.38,-459.25 133.38,-459.25 127.38,-453.25 127.38,-447.25 127.38,-447.25 127.38,-393 127.38,-393 127.38,-387 133.38,-381 139.38,-381"/>
</g>
<!-- NeedsClientCollect&#45;&gt;NeedsServerValidate -->
<g id="edge3" class="edge">
<title>NeedsClientCollect&#45;&gt;NeedsServerValidate</title>
<path fill="none" stroke="red" d="M195.75,-511.94C195.75,-498.96 195.75,-484.24 195.75,-470.49"/>
<polygon fill="red" stroke="red" points="199.25,-470.75 195.75,-460.75 192.25,-470.75 199.25,-470.75"/>
<text xml:space="preserve" text-anchor="middle" x="235.88" y="-480.45" font-family="Times,serif" font-size="14.00"> client_collect </text>
</g>
<!-- NeedsClientConfirm -->
<g id="node5" class="node">
<title>NeedsClientConfirm</title>
<path fill="azure" stroke="none" d="M190.75,-328.5C190.75,-328.5 78.75,-328.5 78.75,-328.5 72.75,-328.5 66.75,-322.5 66.75,-316.5 66.75,-316.5 66.75,-262.25 66.75,-262.25 66.75,-256.25 72.75,-250.25 78.75,-250.25 78.75,-250.25 190.75,-250.25 190.75,-250.25 196.75,-250.25 202.75,-256.25 202.75,-262.25 202.75,-262.25 202.75,-316.5 202.75,-316.5 202.75,-322.5 196.75,-328.5 190.75,-328.5"/>
<text xml:space="preserve" text-anchor="start" x="74.75" y="-308.2" font-family="Times,serif" font-weight="bold" font-size="14.00">NeedsClientConfirm</text>
<text xml:space="preserve" text-anchor="start" x="74.75" y="-283" font-family="Times,serif" font-size="10.00">client_confirm(accept: bool)</text>
<text xml:space="preserve" text-anchor="start" x="74.75" y="-271.75" font-family="Times,serif" font-size="10.00">where_next()</text>
<text xml:space="preserve" text-anchor="start" x="119.38" y="-260.5" font-family="Times,serif" font-size="10.00"> &#160;&#160;&#160;&#160;&#160;&#160;&#160;&#160;&#160;&#160;&#160;</text>
<polygon fill="#00688b" stroke="#00688b" points="66.75,-298 66.75,-298 202.75,-298 202.75,-298 66.75,-298"/>
<path fill="none" stroke="#00688b" d="M78.75,-250.25C78.75,-250.25 190.75,-250.25 190.75,-250.25 196.75,-250.25 202.75,-256.25 202.75,-262.25 202.75,-262.25 202.75,-316.5 202.75,-316.5 202.75,-322.5 196.75,-328.5 190.75,-328.5 190.75,-328.5 78.75,-328.5 78.75,-328.5 72.75,-328.5 66.75,-322.5 66.75,-316.5 66.75,-316.5 66.75,-262.25 66.75,-262.25 66.75,-256.25 72.75,-250.25 78.75,-250.25"/>
</g>
<!-- NeedsServerValidate&#45;&gt;NeedsClientConfirm -->
<g id="edge4" class="edge">
<title>NeedsServerValidate&#45;&gt;NeedsClientConfirm</title>
<path fill="none" stroke="red" d="M177.78,-381.19C171.44,-367.82 164.24,-352.61 157.56,-338.51"/>
<polygon fill="red" stroke="red" points="160.9,-337.39 153.45,-329.85 154.57,-340.39 160.9,-337.39"/>
<text xml:space="preserve" text-anchor="middle" x="186.15" y="-349.7" font-family="Times,serif" font-size="14.00"> valid </text>
</g>
<!-- Rejected -->
<g id="node9" class="node">
<title>Rejected</title>
<path fill="azure" stroke="none" d="M278.75,-322.88C278.75,-322.88 232.75,-322.88 232.75,-322.88 226.75,-322.88 220.75,-316.88 220.75,-310.88 220.75,-310.88 220.75,-267.88 220.75,-267.88 220.75,-261.88 226.75,-255.88 232.75,-255.88 232.75,-255.88 278.75,-255.88 278.75,-255.88 284.75,-255.88 290.75,-261.88 290.75,-267.88 290.75,-267.88 290.75,-310.88 290.75,-310.88 290.75,-316.88 284.75,-322.88 278.75,-322.88"/>
<text xml:space="preserve" text-anchor="start" x="230.62" y="-302.57" font-family="Times,serif" font-weight="bold" font-size="14.00">Rejected</text>
<text xml:space="preserve" text-anchor="start" x="228.75" y="-277.38" font-family="Times,serif" font-size="10.00">where_next()</text>
<text xml:space="preserve" text-anchor="start" x="242.25" y="-266.12" font-family="Times,serif" font-size="10.00"> &#160;&#160;&#160;&#160;&#160;&#160;&#160;&#160;&#160;&#160;&#160;</text>
<polygon fill="#00688b" stroke="#00688b" points="220.75,-292.38 220.75,-292.38 290.75,-292.38 290.75,-292.38 220.75,-292.38"/>
<path fill="none" stroke="#00688b" d="M232.75,-255.88C232.75,-255.88 278.75,-255.88 278.75,-255.88 284.75,-255.88 290.75,-261.88 290.75,-267.88 290.75,-267.88 290.75,-310.88 290.75,-310.88 290.75,-316.88 284.75,-322.88 278.75,-322.88 278.75,-322.88 232.75,-322.88 232.75,-322.88 226.75,-322.88 220.75,-316.88 220.75,-310.88 220.75,-310.88 220.75,-267.88 220.75,-267.88 220.75,-261.88 226.75,-255.88 232.75,-255.88"/>
</g>
<!-- NeedsServerValidate&#45;&gt;Rejected -->
<g id="edge5" class="edge">
<title>NeedsServerValidate&#45;&gt;Rejected</title>
<path fill="none" stroke="red" d="M213.43,-381.19C220.45,-366.13 228.56,-348.72 235.79,-333.2"/>
<polygon fill="red" stroke="red" points="238.94,-334.73 239.99,-324.18 232.6,-331.77 238.94,-334.73"/>
<text xml:space="preserve" text-anchor="middle" x="251.84" y="-349.7" font-family="Times,serif" font-size="14.00"> invalid </text>
</g>
<!-- NeedsServerProvision -->
<g id="node6" class="node">
<title>NeedsServerProvision</title>
<path fill="azure" stroke="none" d="M131.5,-197.75C131.5,-197.75 12,-197.75 12,-197.75 6,-197.75 0,-191.75 0,-185.75 0,-185.75 0,-131.5 0,-131.5 0,-125.5 6,-119.5 12,-119.5 12,-119.5 131.5,-119.5 131.5,-119.5 137.5,-119.5 143.5,-125.5 143.5,-131.5 143.5,-131.5 143.5,-185.75 143.5,-185.75 143.5,-191.75 137.5,-197.75 131.5,-197.75"/>
<text xml:space="preserve" text-anchor="start" x="8" y="-177.45" font-family="Times,serif" font-weight="bold" font-size="14.00">NeedsServerProvision</text>
<text xml:space="preserve" text-anchor="start" x="8" y="-152.25" font-family="Times,serif" font-size="10.00">server_provision()</text>
<text xml:space="preserve" text-anchor="start" x="8" y="-141" font-family="Times,serif" font-size="10.00">where_next()</text>
<text xml:space="preserve" text-anchor="start" x="31.62" y="-129.75" font-family="Times,serif" font-size="10.00"> &#160;&#160;&#160;&#160;&#160;&#160;&#160;&#160;&#160;&#160;&#160;</text>
<polygon fill="#00688b" stroke="#00688b" points="0,-167.25 0,-167.25 143.5,-167.25 143.5,-167.25 0,-167.25"/>
<path fill="none" stroke="#00688b" d="M12,-119.5C12,-119.5 131.5,-119.5 131.5,-119.5 137.5,-119.5 143.5,-125.5 143.5,-131.5 143.5,-131.5 143.5,-185.75 143.5,-185.75 143.5,-191.75 137.5,-197.75 131.5,-197.75 131.5,-197.75 12,-197.75 12,-197.75 6,-197.75 0,-191.75 0,-185.75 0,-185.75 0,-131.5 0,-131.5 0,-125.5 6,-119.5 12,-119.5"/>
</g>
<!-- NeedsClientConfirm&#45;&gt;NeedsServerProvision -->
<g id="edge6" class="edge">
<title>NeedsClientConfirm&#45;&gt;NeedsServerProvision</title>
<path fill="none" stroke="red" d="M116.19,-250.44C109.65,-237.07 102.2,-221.86 95.3,-207.76"/>
<polygon fill="red" stroke="red" points="98.6,-206.54 91.06,-199.09 92.31,-209.61 98.6,-206.54"/>
<text xml:space="preserve" text-anchor="middle" x="134.4" y="-218.95" font-family="Times,serif" font-size="14.00"> accepted </text>
</g>
<!-- Cancelled -->
<g id="node8" class="node">
<title>Cancelled</title>
<path fill="azure" stroke="none" d="M222.25,-192.12C222.25,-192.12 173.25,-192.12 173.25,-192.12 167.25,-192.12 161.25,-186.12 161.25,-180.12 161.25,-180.12 161.25,-137.12 161.25,-137.12 161.25,-131.12 167.25,-125.12 173.25,-125.12 173.25,-125.12 222.25,-125.12 222.25,-125.12 228.25,-125.12 234.25,-131.12 234.25,-137.12 234.25,-137.12 234.25,-180.12 234.25,-180.12 234.25,-186.12 228.25,-192.12 222.25,-192.12"/>
<text xml:space="preserve" text-anchor="start" x="169.25" y="-171.82" font-family="Times,serif" font-weight="bold" font-size="14.00">Cancelled</text>
<text xml:space="preserve" text-anchor="start" x="169.25" y="-146.62" font-family="Times,serif" font-size="10.00">where_next()</text>
<text xml:space="preserve" text-anchor="start" x="182.75" y="-135.38" font-family="Times,serif" font-size="10.00"> &#160;&#160;&#160;&#160;&#160;&#160;&#160;&#160;&#160;&#160;&#160;</text>
<polygon fill="#00688b" stroke="#00688b" points="161.25,-161.62 161.25,-161.62 234.25,-161.62 234.25,-161.62 161.25,-161.62"/>
<path fill="none" stroke="#00688b" d="M173.25,-125.12C173.25,-125.12 222.25,-125.12 222.25,-125.12 228.25,-125.12 234.25,-131.12 234.25,-137.12 234.25,-137.12 234.25,-180.12 234.25,-180.12 234.25,-186.12 228.25,-192.12 222.25,-192.12 222.25,-192.12 173.25,-192.12 173.25,-192.12 167.25,-192.12 161.25,-186.12 161.25,-180.12 161.25,-180.12 161.25,-137.12 161.25,-137.12 161.25,-131.12 167.25,-125.12 173.25,-125.12"/>
</g>
<!-- NeedsClientConfirm&#45;&gt;Cancelled -->
<g id="edge7" class="edge">
<title>NeedsClientConfirm&#45;&gt;Cancelled</title>
<path fill="none" stroke="red" d="M156.39,-250.27C159.62,-244.29 162.84,-238.14 165.75,-232.25 170.47,-222.73 175.24,-212.36 179.62,-202.51"/>
<polygon fill="red" stroke="red" points="182.77,-204.04 183.58,-193.47 176.36,-201.23 182.77,-204.04"/>
<text xml:space="preserve" text-anchor="middle" x="199.87" y="-218.95" font-family="Times,serif" font-size="14.00"> declined </text>
</g>
<!-- Done -->
<g id="node7" class="node">
<title>Done</title>
<path fill="azure" stroke="none" d="M94.75,-67C94.75,-67 48.75,-67 48.75,-67 42.75,-67 36.75,-61 36.75,-55 36.75,-55 36.75,-12 36.75,-12 36.75,-6 42.75,0 48.75,0 48.75,0 94.75,0 94.75,0 100.75,0 106.75,-6 106.75,-12 106.75,-12 106.75,-55 106.75,-55 106.75,-61 100.75,-67 94.75,-67"/>
<text xml:space="preserve" text-anchor="start" x="56.75" y="-46.7" font-family="Times,serif" font-weight="bold" font-size="14.00">Done</text>
<text xml:space="preserve" text-anchor="start" x="44.75" y="-21.5" font-family="Times,serif" font-size="10.00">where_next()</text>
<text xml:space="preserve" text-anchor="start" x="58.25" y="-10.25" font-family="Times,serif" font-size="10.00"> &#160;&#160;&#160;&#160;&#160;&#160;&#160;&#160;&#160;&#160;&#160;</text>
<polygon fill="#00688b" stroke="#00688b" points="36.75,-36.5 36.75,-36.5 106.75,-36.5 106.75,-36.5 36.75,-36.5"/>
<path fill="none" stroke="#00688b" d="M48.75,0C48.75,0 94.75,0 94.75,0 100.75,0 106.75,-6 106.75,-12 106.75,-12 106.75,-55 106.75,-55 106.75,-61 100.75,-67 94.75,-67 94.75,-67 48.75,-67 48.75,-67 42.75,-67 36.75,-61 36.75,-55 36.75,-55 36.75,-12 36.75,-12 36.75,-6 42.75,0 48.75,0"/>
</g>
<!-- NeedsServerProvision&#45;&gt;Done -->
<g id="edge8" class="edge">
<title>NeedsServerProvision&#45;&gt;Done</title>
<path fill="none" stroke="red" d="M71.75,-119.68C71.75,-106.56 71.75,-91.76 71.75,-78.22"/>
<polygon fill="red" stroke="red" points="75.25,-78.23 71.75,-68.23 68.25,-78.23 75.25,-78.23"/>
<text xml:space="preserve" text-anchor="middle" x="120.88" y="-88.2" font-family="Times,serif" font-size="14.00"> server_provision </text>
</g>
</g>
</svg>
