<?xml version="1.0" encoding="UTF-8" standalone="no"?>
<!DOCTYPE svg PUBLIC "-//W3C//DTD SVG 1.1//EN"
 "http://www.w3.org/Graphics/SVG/1.1/DTD/svg11.dtd">
<!-- Generated by graphviz version 14.1.5 (20260411.2331)
 -->
<!-- Title: FixBuySideOrder Pages: 1 -->
<svg width="1403pt" height="1161pt"
 viewBox="0.00 0.00 1403.00 1161.00" xmlns="http://www.w3.org/2000/svg" xmlns:xlink="http://www.w3.org/1999/xlink">
<g id="graph0" class="graph" transform="scale(1 1) rotate(0) translate(4 1157.15)">
<title>FixBuySideOrder</title>
<polygon fill="white" stroke="none" points="-4,4 -4,-1157.15 1399.25,-1157.15 1399.25,4 -4,4"/>
<g id="clust1" class="cluster">
<title>cluster_Active</title>
<path fill="none" stroke="black" d="M215,-111.5C215,-111.5 863,-111.5 863,-111.5 869,-111.5 875,-117.5 875,-123.5 875,-123.5 875,-980.25 875,-980.25 875,-986.25 869,-992.25 863,-992.25 863,-992.25 215,-992.25 215,-992.25 209,-992.25 203,-986.25 203,-980.25 203,-980.25 203,-123.5 203,-123.5 203,-117.5 209,-111.5 215,-111.5"/>
<text xml:space="preserve" text-anchor="start" x="521" y="-971.5" font-family="Times,serif" font-size="14.00">Active</text>
<polygon fill="black" stroke="black" points="517,-964.75 517,-964.75 561,-964.75 561,-964.75 517,-964.75"/>
</g>
<!-- Entry -->
<g id="node1" class="node">
<title>Entry</title>
<ellipse fill="black" stroke="#00688b" cx="584" cy="-1145.95" rx="7.2" ry="7.2"/>
</g>
<!-- Idle -->
<g id="node2" class="node">
<title>Idle</title>
<path fill="azure" stroke="none" d="M631,-1101.75C631,-1101.75 537,-1101.75 537,-1101.75 531,-1101.75 525,-1095.75 525,-1089.75 525,-1089.75 525,-1046.75 525,-1046.75 525,-1040.75 531,-1034.75 537,-1034.75 537,-1034.75 631,-1034.75 631,-1034.75 637,-1034.75 643,-1040.75 643,-1046.75 643,-1046.75 643,-1089.75 643,-1089.75 643,-1095.75 637,-1101.75 631,-1101.75"/>
<text xml:space="preserve" text-anchor="start" x="572.75" y="-1081.45" font-family="Times,serif" font-weight="bold" font-size="14.00">Idle</text>
<text xml:space="preserve" text-anchor="start" x="533" y="-1056.25" font-family="Times,serif" font-size="10.00">send_new(cl_ord_id: str)</text>
<text xml:space="preserve" text-anchor="start" x="570.5" y="-1045" font-family="Times,serif" font-size="10.00"> &#160;&#160;&#160;&#160;&#160;&#160;&#160;&#160;&#160;&#160;&#160;</text>
<polygon fill="#00688b" stroke="#00688b" points="525,-1071.25 525,-1071.25 643,-1071.25 643,-1071.25 525,-1071.25"/>
<path fill="none" stroke="#00688b" d="M537,-1034.75C537,-1034.75 631,-1034.75 631,-1034.75 637,-1034.75 643,-1040.75 643,-1046.75 643,-1046.75 643,-1089.75 643,-1089.75 643,-1095.75 637,-1101.75 631,-1101.75 631,-1101.75 537,-1101.75 537,-1101.75 531,-1101.75 525,-1095.75 525,-1089.75 525,-1089.75 525,-1046.75 525,-1046.75 525,-1040.75 531,-1034.75 537,-1034.75"/>
</g>
<!-- Entry&#45;&gt;Idle -->
<g id="edge1" class="edge">
<title>Entry&#45;&gt;Idle</title>
<path fill="none" stroke="red" d="M584,-1138.5C584,-1132.52 584,-1123.07 584,-1113.05"/>
<polygon fill="red" stroke="red" points="587.5,-1113.16 584,-1103.16 580.5,-1113.16 587.5,-1113.16"/>
</g>
<!-- PendingNew -->
<g id="node4" class="node">
<title>PendingNew</title>
<path fill="azure" stroke="none" d="M700.38,-945.75C700.38,-945.75 467.62,-945.75 467.62,-945.75 461.62,-945.75 455.62,-939.75 455.62,-933.75 455.62,-933.75 455.62,-834.5 455.62,-834.5 455.62,-828.5 461.62,-822.5 467.62,-822.5 467.62,-822.5 700.38,-822.5 700.38,-822.5 706.38,-822.5 712.38,-828.5 712.38,-834.5 712.38,-834.5 712.38,-933.75 712.38,-933.75 712.38,-939.75 706.38,-945.75 700.38,-945.75"/>
<text xml:space="preserve" text-anchor="start" x="547.62" y="-925.45" font-family="Times,serif" font-weight="bold" font-size="14.00">PendingNew</text>
<text xml:space="preserve" text-anchor="start" x="463.62" y="-900.25" font-family="Times,serif" font-size="10.00">$&gt;()</text>
<text xml:space="preserve" text-anchor="start" x="463.62" y="-889" font-family="Times,serif" font-size="10.00">exec_new(exec_id: str)</text>
<text xml:space="preserve" text-anchor="start" x="463.62" y="-877.75" font-family="Times,serif" font-size="10.00">exec_rejected(exec_id: str, reason: str)</text>
<text xml:space="preserve" text-anchor="start" x="463.62" y="-866.5" font-family="Times,serif" font-size="10.00">exec_fill(exec_id: str, last_qty: float, last_px: float)</text>
<text xml:space="preserve" text-anchor="start" x="463.62" y="-855.25" font-family="Times,serif" font-size="10.00">exec_partial_fill(exec_id: str, last_qty: float, last_px: float)</text>
<text xml:space="preserve" text-anchor="start" x="463.62" y="-844" font-family="Times,serif" font-size="10.00">exec_canceled(exec_id: str)</text>
<text xml:space="preserve" text-anchor="start" x="566" y="-832.75" font-family="Times,serif" font-size="10.00"> &#160;&#160;&#160;&#160;&#160;&#160;&#160;&#160;&#160;&#160;&#160;&#160;&#160;&#160;&#160;</text>
<polygon fill="#00688b" stroke="#00688b" points="455.62,-915.25 455.62,-915.25 712.38,-915.25 712.38,-915.25 455.62,-915.25"/>
<path fill="none" stroke="#00688b" d="M467.62,-822.5C467.62,-822.5 700.38,-822.5 700.38,-822.5 706.38,-822.5 712.38,-828.5 712.38,-834.5 712.38,-834.5 712.38,-933.75 712.38,-933.75 712.38,-939.75 706.38,-945.75 700.38,-945.75 700.38,-945.75 467.62,-945.75 467.62,-945.75 461.62,-945.75 455.62,-939.75 455.62,-933.75 455.62,-933.75 455.62,-834.5 455.62,-834.5 455.62,-828.5 461.62,-822.5 467.62,-822.5"/>
</g>
<!-- Idle&#45;&gt;PendingNew -->
<g id="edge2" class="edge">
<title>Idle&#45;&gt;PendingNew</title>
<path fill="none" stroke="red" d="M584,-1035.11C584,-1013.49 584,-984.09 584,-957.06"/>
<polygon fill="red" stroke="red" points="587.5,-957.16 584,-947.16 580.5,-957.16 587.5,-957.16"/>
<text xml:space="preserve" text-anchor="middle" x="614.75" y="-1003.45" font-family="Times,serif" font-size="14.00"> send_new </text>
</g>
<!-- Active -->
<g id="node3" class="node">
<title>Active</title>
<ellipse fill="azure" stroke="#00688b" cx="867" cy="-884.12" rx="0.36" ry="0.36"/>
</g>
<!-- Canceled -->
<g id="node12" class="node">
<title>Canceled</title>
<path fill="azure" stroke="none" d="M1079.62,-67C1079.62,-67 1034.38,-67 1034.38,-67 1028.38,-67 1022.38,-61 1022.38,-55 1022.38,-55 1022.38,-12 1022.38,-12 1022.38,-6 1028.38,0 1034.38,0 1034.38,0 1079.62,0 1079.62,0 1085.62,0 1091.62,-6 1091.62,-12 1091.62,-12 1091.62,-55 1091.62,-55 1091.62,-61 1085.62,-67 1079.62,-67"/>
<text xml:space="preserve" text-anchor="start" x="1030.38" y="-46.7" font-family="Times,serif" font-weight="bold" font-size="14.00">Canceled</text>
<text xml:space="preserve" text-anchor="start" x="1030.38" y="-21.5" font-family="Times,serif" font-size="10.00">$&gt;()</text>
<text xml:space="preserve" text-anchor="start" x="1030.38" y="-10.25" font-family="Times,serif" font-size="10.00"> &#160;&#160;&#160;&#160;&#160;&#160;&#160;&#160;&#160;&#160;&#160;</text>
<polygon fill="#00688b" stroke="#00688b" points="1022.38,-36.5 1022.38,-36.5 1091.62,-36.5 1091.62,-36.5 1022.38,-36.5"/>
<path fill="none" stroke="#00688b" d="M1034.38,0C1034.38,0 1079.62,0 1079.62,0 1085.62,0 1091.62,-6 1091.62,-12 1091.62,-12 1091.62,-55 1091.62,-55 1091.62,-61 1085.62,-67 1079.62,-67 1079.62,-67 1034.38,-67 1034.38,-67 1028.38,-67 1022.38,-61 1022.38,-55 1022.38,-55 1022.38,-12 1022.38,-12 1022.38,-6 1028.38,0 1034.38,0"/>
</g>
<!-- Active&#45;&gt;Canceled -->
<g id="edge36" class="edge">
<title>Active&#45;&gt;Canceled</title>
<path fill="none" stroke="red" d="M875,-883.44C934.74,-885.33 1309,-889.36 1309,-692.5 1309,-692.5 1309,-692.5 1309,-174.5 1309,-81.15 1175.22,-49.51 1102.61,-39.21"/>
<polygon fill="red" stroke="red" points="1103.39,-35.78 1093.01,-37.93 1102.46,-42.72 1103.39,-35.78"/>
<text xml:space="preserve" text-anchor="middle" x="1352.12" y="-439.7" font-family="Times,serif" font-size="14.00"> exec_canceled </text>
</g>
<!-- New -->
<g id="node5" class="node">
<title>New</title>
<path fill="azure" stroke="none" d="M722.12,-770C722.12,-770 445.88,-770 445.88,-770 439.88,-770 433.88,-764 433.88,-758 433.88,-758 433.88,-625 433.88,-625 433.88,-619 439.88,-613 445.88,-613 445.88,-613 722.12,-613 722.12,-613 728.12,-613 734.12,-619 734.12,-625 734.12,-625 734.12,-758 734.12,-758 734.12,-764 728.12,-770 722.12,-770"/>
<text xml:space="preserve" text-anchor="start" x="571.25" y="-749.7" font-family="Times,serif" font-weight="bold" font-size="14.00">New</text>
<text xml:space="preserve" text-anchor="start" x="441.88" y="-724.5" font-family="Times,serif" font-size="10.00">$&gt;()</text>
<text xml:space="preserve" text-anchor="start" x="441.88" y="-713.25" font-family="Times,serif" font-size="10.00">exec_fill(exec_id: str, last_qty: float, last_px: float)</text>
<text xml:space="preserve" text-anchor="start" x="441.88" y="-702" font-family="Times,serif" font-size="10.00">exec_partial_fill(exec_id: str, last_qty: float, last_px: float)</text>
<text xml:space="preserve" text-anchor="start" x="441.88" y="-690.75" font-family="Times,serif" font-size="10.00">send_cancel(cancel_cl_ord_id: str)</text>
<text xml:space="preserve" text-anchor="start" x="441.88" y="-679.5" font-family="Times,serif" font-size="10.00">send_replace(replace_cl_ord_id: str, new_qty: float, new_price: float)</text>
<text xml:space="preserve" text-anchor="start" x="441.88" y="-668.25" font-family="Times,serif" font-size="10.00">exec_stopped(exec_id: str, stop_px: float)</text>
<text xml:space="preserve" text-anchor="start" x="441.88" y="-657" font-family="Times,serif" font-size="10.00">exec_done_for_day(exec_id: str)</text>
<text xml:space="preserve" text-anchor="start" x="441.88" y="-645.75" font-family="Times,serif" font-size="10.00">exec_expired(exec_id: str)</text>
<text xml:space="preserve" text-anchor="start" x="441.88" y="-634.5" font-family="Times,serif" font-size="10.00">exec_suspended(exec_id: str)</text>
<text xml:space="preserve" text-anchor="start" x="566" y="-623.25" font-family="Times,serif" font-size="10.00"> &#160;&#160;&#160;&#160;&#160;&#160;&#160;&#160;&#160;&#160;&#160;&#160;&#160;&#160;&#160;</text>
<polygon fill="#00688b" stroke="#00688b" points="433.88,-739.5 433.88,-739.5 734.12,-739.5 734.12,-739.5 433.88,-739.5"/>
<path fill="none" stroke="#00688b" d="M445.88,-613C445.88,-613 722.12,-613 722.12,-613 728.12,-613 734.12,-619 734.12,-625 734.12,-625 734.12,-758 734.12,-758 734.12,-764 728.12,-770 722.12,-770 722.12,-770 445.88,-770 445.88,-770 439.88,-770 433.88,-764 433.88,-758 433.88,-758 433.88,-625 433.88,-625 433.88,-619 439.88,-613 445.88,-613"/>
</g>
<!-- PendingNew&#45;&gt;New -->
<g id="edge3" class="edge">
<title>PendingNew&#45;&gt;New</title>
<path fill="none" stroke="red" d="M584,-822.55C584,-809.3 584,-795.02 584,-780.93"/>
<polygon fill="red" stroke="red" points="587.5,-781.22 584,-771.22 580.5,-781.22 587.5,-781.22"/>
<text xml:space="preserve" text-anchor="middle" x="614.75" y="-791.2" font-family="Times,serif" font-size="14.00"> exec_new </text>
</g>
<!-- PartiallyFilled -->
<g id="node6" class="node">
<title>PartiallyFilled</title>
<path fill="azure" stroke="none" d="M627.12,-418.5C627.12,-418.5 350.88,-418.5 350.88,-418.5 344.88,-418.5 338.88,-412.5 338.88,-406.5 338.88,-406.5 338.88,-296 338.88,-296 338.88,-290 344.88,-284 350.88,-284 350.88,-284 627.12,-284 627.12,-284 633.12,-284 639.12,-290 639.12,-296 639.12,-296 639.12,-406.5 639.12,-406.5 639.12,-412.5 633.12,-418.5 627.12,-418.5"/>
<text xml:space="preserve" text-anchor="start" x="447.38" y="-398.2" font-family="Times,serif" font-weight="bold" font-size="14.00">PartiallyFilled</text>
<text xml:space="preserve" text-anchor="start" x="346.88" y="-373" font-family="Times,serif" font-size="10.00">$&gt;()</text>
<text xml:space="preserve" text-anchor="start" x="346.88" y="-361.75" font-family="Times,serif" font-size="10.00">exec_fill(exec_id: str, last_qty: float, last_px: float)</text>
<text xml:space="preserve" text-anchor="start" x="346.88" y="-350.5" font-family="Times,serif" font-size="10.00">exec_partial_fill(exec_id: str, last_qty: float, last_px: float)</text>
<text xml:space="preserve" text-anchor="start" x="346.88" y="-339.25" font-family="Times,serif" font-size="10.00">send_cancel(cancel_cl_ord_id: str)</text>
<text xml:space="preserve" text-anchor="start" x="346.88" y="-328" font-family="Times,serif" font-size="10.00">send_replace(replace_cl_ord_id: str, new_qty: float, new_price: float)</text>
<text xml:space="preserve" text-anchor="start" x="346.88" y="-316.75" font-family="Times,serif" font-size="10.00">exec_done_for_day(exec_id: str)</text>
<text xml:space="preserve" text-anchor="start" x="346.88" y="-305.5" font-family="Times,serif" font-size="10.00">exec_expired(exec_id: str)</text>
<text xml:space="preserve" text-anchor="start" x="471" y="-294.25" font-family="Times,serif" font-size="10.00"> &#160;&#160;&#160;&#160;&#160;&#160;&#160;&#160;&#160;&#160;&#160;&#160;&#160;&#160;&#160;</text>
<polygon fill="#00688b" stroke="#00688b" points="338.88,-388 338.88,-388 639.12,-388 639.12,-388 338.88,-388"/>
<path fill="none" stroke="#00688b" d="M350.88,-284C350.88,-284 627.12,-284 627.12,-284 633.12,-284 639.12,-290 639.12,-296 639.12,-296 639.12,-406.5 639.12,-406.5 639.12,-412.5 633.12,-418.5 627.12,-418.5 627.12,-418.5 350.88,-418.5 350.88,-418.5 344.88,-418.5 338.88,-412.5 338.88,-406.5 338.88,-406.5 338.88,-296 338.88,-296 338.88,-290 344.88,-284 350.88,-284"/>
</g>
<!-- PendingNew&#45;&gt;PartiallyFilled -->
<g id="edge6" class="edge">
<title>PendingNew&#45;&gt;PartiallyFilled</title>
<path fill="none" stroke="red" d="M486.69,-822.7C406.89,-766.37 300.98,-674.08 262,-560.5 249.09,-522.88 236.14,-501.22 262,-471 295.63,-431.69 334.03,-481.81 377,-453 384.12,-448.22 381.39,-442.99 387,-436.5 389.92,-433.13 392.98,-429.78 396.14,-426.48"/>
<polygon fill="red" stroke="red" points="398.57,-428.99 403.14,-419.43 393.61,-424.06 398.57,-428.99"/>
<text xml:space="preserve" text-anchor="middle" x="322.21" y="-581.7" font-family="Times,serif" font-size="14.00"> exec_partial_fill </text>
</g>
<!-- Filled -->
<g id="node11" class="node">
<title>Filled</title>
<path fill="azure" stroke="none" d="M146,-67C146,-67 116,-67 116,-67 110,-67 104,-61 104,-55 104,-55 104,-12 104,-12 104,-6 110,0 116,0 116,0 146,0 146,0 152,0 158,-6 158,-12 158,-12 158,-55 158,-55 158,-61 152,-67 146,-67"/>
<text xml:space="preserve" text-anchor="start" x="114.5" y="-46.7" font-family="Times,serif" font-weight="bold" font-size="14.00">Filled</text>
<text xml:space="preserve" text-anchor="start" x="114.5" y="-21.5" font-family="Times,serif" font-size="10.00">$&gt;()</text>
<text xml:space="preserve" text-anchor="start" x="114.5" y="-10.25" font-family="Times,serif" font-size="10.00"> &#160;&#160;&#160;&#160;&#160;&#160;&#160;&#160;&#160;&#160;&#160;</text>
<polygon fill="#00688b" stroke="#00688b" points="106.5,-36.5 106.5,-36.5 155.5,-36.5 155.5,-36.5 106.5,-36.5"/>
<path fill="none" stroke="#00688b" d="M118.5,0C118.5,0 143.5,0 143.5,0 149.5,0 155.5,-6 155.5,-12 155.5,-12 155.5,-55 155.5,-55 155.5,-61 149.5,-67 143.5,-67 143.5,-67 118.5,-67 118.5,-67 112.5,-67 106.5,-61 106.5,-55 106.5,-55 106.5,-12 106.5,-12 106.5,-6 112.5,0 118.5,0"/>
</g>
<!-- PendingNew&#45;&gt;Filled -->
<g id="edge5" class="edge">
<title>PendingNew&#45;&gt;Filled</title>
<path fill="none" stroke="red" d="M455.84,-867.46C283.93,-842.81 0,-787.69 0,-692.5 0,-692.5 0,-692.5 0,-174.5 0,-119.04 55.49,-76.47 94.24,-53.5"/>
<polygon fill="red" stroke="red" points="95.92,-56.57 102.86,-48.57 92.44,-50.5 95.92,-56.57"/>
<text xml:space="preserve" text-anchor="middle" x="27.38" y="-439.7" font-family="Times,serif" font-size="14.00"> exec_fill </text>
</g>
<!-- PendingNew&#45;&gt;Canceled -->
<g id="edge7" class="edge">
<title>PendingNew&#45;&gt;Canceled</title>
<path fill="none" stroke="red" d="M711.88,-854.86C812.11,-832.69 935.17,-805.41 938,-804.5 1058.55,-765.72 1200,-819.14 1200,-692.5 1200,-692.5 1200,-692.5 1200,-174.5 1200,-118.65 1143.62,-77.74 1101.66,-55.03"/>
<polygon fill="red" stroke="red" points="1103.44,-52.01 1092.96,-50.48 1100.2,-58.21 1103.44,-52.01"/>
<text xml:space="preserve" text-anchor="middle" x="1243.12" y="-439.7" font-family="Times,serif" font-size="14.00"> exec_canceled </text>
</g>
<!-- Rejected -->
<g id="node13" class="node">
<title>Rejected</title>
<path fill="azure" stroke="none" d="M937.12,-725C937.12,-725 894.88,-725 894.88,-725 888.88,-725 882.88,-719 882.88,-713 882.88,-713 882.88,-670 882.88,-670 882.88,-664 888.88,-658 894.88,-658 894.88,-658 937.12,-658 937.12,-658 943.12,-658 949.12,-664 949.12,-670 949.12,-670 949.12,-713 949.12,-713 949.12,-719 943.12,-725 937.12,-725"/>
<text xml:space="preserve" text-anchor="start" x="890.88" y="-704.7" font-family="Times,serif" font-weight="bold" font-size="14.00">Rejected</text>
<text xml:space="preserve" text-anchor="start" x="890.88" y="-679.5" font-family="Times,serif" font-size="10.00">$&gt;()</text>
<text xml:space="preserve" text-anchor="start" x="890.88" y="-668.25" font-family="Times,serif" font-size="10.00"> &#160;&#160;&#160;&#160;&#160;&#160;&#160;&#160;&#160;&#160;&#160;</text>
<polygon fill="#00688b" stroke="#00688b" points="882.88,-694.5 882.88,-694.5 949.12,-694.5 949.12,-694.5 882.88,-694.5"/>
<path fill="none" stroke="#00688b" d="M894.88,-658C894.88,-658 937.12,-658 937.12,-658 943.12,-658 949.12,-664 949.12,-670 949.12,-670 949.12,-713 949.12,-713 949.12,-719 943.12,-725 937.12,-725 937.12,-725 894.88,-725 894.88,-725 888.88,-725 882.88,-719 882.88,-713 882.88,-713 882.88,-670 882.88,-670 882.88,-664 888.88,-658 894.88,-658"/>
</g>
<!-- PendingNew&#45;&gt;Rejected -->
<g id="edge4" class="edge">
<title>PendingNew&#45;&gt;Rejected</title>
<path fill="none" stroke="red" d="M712.09,-856.82C768.71,-839.86 832.76,-812.71 879,-770 889.18,-760.59 896.85,-747.8 902.48,-735.32"/>
<polygon fill="red" stroke="red" points="905.59,-736.96 906.17,-726.39 899.12,-734.29 905.59,-736.96"/>
<text xml:space="preserve" text-anchor="middle" x="893.56" y="-791.2" font-family="Times,serif" font-size="14.00"> exec_rejected </text>
</g>
<!-- New&#45;&gt;PartiallyFilled -->
<g id="edge9" class="edge">
<title>New&#45;&gt;PartiallyFilled</title>
<path fill="none" stroke="red" d="M591.92,-613.2C594.16,-561.19 591,-492.21 567,-436.5 565.78,-433.68 564.43,-430.89 562.97,-428.15"/>
<polygon fill="red" stroke="red" points="566.07,-426.52 557.96,-419.7 560.05,-430.08 566.07,-426.52"/>
<text xml:space="preserve" text-anchor="middle" x="639.94" y="-510.7" font-family="Times,serif" font-size="14.00"> exec_partial_fill </text>
</g>
<!-- PendingCancel -->
<g id="node7" class="node">
<title>PendingCancel</title>
<path fill="azure" stroke="none" d="M753.38,-231.5C753.38,-231.5 520.62,-231.5 520.62,-231.5 514.62,-231.5 508.62,-225.5 508.62,-219.5 508.62,-219.5 508.62,-131.5 508.62,-131.5 508.62,-125.5 514.62,-119.5 520.62,-119.5 520.62,-119.5 753.38,-119.5 753.38,-119.5 759.38,-119.5 765.38,-125.5 765.38,-131.5 765.38,-131.5 765.38,-219.5 765.38,-219.5 765.38,-225.5 759.38,-231.5 753.38,-231.5"/>
<text xml:space="preserve" text-anchor="start" x="593.5" y="-211.2" font-family="Times,serif" font-weight="bold" font-size="14.00">PendingCancel</text>
<text xml:space="preserve" text-anchor="start" x="516.62" y="-186" font-family="Times,serif" font-size="10.00">$&gt;()</text>
<text xml:space="preserve" text-anchor="start" x="516.62" y="-174.75" font-family="Times,serif" font-size="10.00">exec_canceled(exec_id: str)</text>
<text xml:space="preserve" text-anchor="start" x="516.62" y="-163.5" font-family="Times,serif" font-size="10.00">exec_cancel_rejected(reason: str)</text>
<text xml:space="preserve" text-anchor="start" x="516.62" y="-152.25" font-family="Times,serif" font-size="10.00">exec_fill(exec_id: str, last_qty: float, last_px: float)</text>
<text xml:space="preserve" text-anchor="start" x="516.62" y="-141" font-family="Times,serif" font-size="10.00">exec_partial_fill(exec_id: str, last_qty: float, last_px: float)</text>
<text xml:space="preserve" text-anchor="start" x="619" y="-129.75" font-family="Times,serif" font-size="10.00"> &#160;&#160;&#160;&#160;&#160;&#160;&#160;&#160;&#160;&#160;&#160;&#160;&#160;&#160;&#160;</text>
<polygon fill="#00688b" stroke="#00688b" points="508.62,-201 508.62,-201 765.38,-201 765.38,-201 508.62,-201"/>
<path fill="none" stroke="#00688b" d="M520.62,-119.5C520.62,-119.5 753.38,-119.5 753.38,-119.5 759.38,-119.5 765.38,-125.5 765.38,-131.5 765.38,-131.5 765.38,-219.5 765.38,-219.5 765.38,-225.5 759.38,-231.5 753.38,-231.5 753.38,-231.5 520.62,-231.5 520.62,-231.5 514.62,-231.5 508.62,-225.5 508.62,-219.5 508.62,-219.5 508.62,-131.5 508.62,-131.5 508.62,-125.5 514.62,-119.5 520.62,-119.5"/>
</g>
<!-- New&#45;&gt;PendingCancel -->
<g id="edge10" class="edge">
<title>New&#45;&gt;PendingCancel</title>
<path fill="none" stroke="red" d="M563.3,-613.11C555.75,-569.28 553.6,-514.67 575,-471 586.01,-448.53 596.38,-446.07 619.5,-436.5 648.99,-424.29 740.89,-442.44 762,-418.5 801.53,-373.66 786.93,-338.33 762,-284 754.32,-267.26 742.59,-252.14 729.35,-238.88"/>
<polygon fill="red" stroke="red" points="732.14,-236.71 722.49,-232.34 727.31,-241.77 732.14,-236.71"/>
<text xml:space="preserve" text-anchor="middle" x="656.25" y="-439.7" font-family="Times,serif" font-size="14.00"> send_cancel </text>
</g>
<!-- PendingReplace -->
<g id="node8" class="node">
<title>PendingReplace</title>
<path fill="azure" stroke="none" d="M478.75,-231.5C478.75,-231.5 239.25,-231.5 239.25,-231.5 233.25,-231.5 227.25,-225.5 227.25,-219.5 227.25,-219.5 227.25,-131.5 227.25,-131.5 227.25,-125.5 233.25,-119.5 239.25,-119.5 239.25,-119.5 478.75,-119.5 478.75,-119.5 484.75,-119.5 490.75,-125.5 490.75,-131.5 490.75,-131.5 490.75,-219.5 490.75,-219.5 490.75,-225.5 484.75,-231.5 478.75,-231.5"/>
<text xml:space="preserve" text-anchor="start" x="312.5" y="-211.2" font-family="Times,serif" font-weight="bold" font-size="14.00">PendingReplace</text>
<text xml:space="preserve" text-anchor="start" x="235.25" y="-186" font-family="Times,serif" font-size="10.00">$&gt;()</text>
<text xml:space="preserve" text-anchor="start" x="235.25" y="-174.75" font-family="Times,serif" font-size="10.00">exec_replaced(exec_id: str, new_qty: float, new_price: float)</text>
<text xml:space="preserve" text-anchor="start" x="235.25" y="-163.5" font-family="Times,serif" font-size="10.00">exec_replace_rejected(reason: str)</text>
<text xml:space="preserve" text-anchor="start" x="235.25" y="-152.25" font-family="Times,serif" font-size="10.00">exec_fill(exec_id: str, last_qty: float, last_px: float)</text>
<text xml:space="preserve" text-anchor="start" x="235.25" y="-141" font-family="Times,serif" font-size="10.00">exec_partial_fill(exec_id: str, last_qty: float, last_px: float)</text>
<text xml:space="preserve" text-anchor="start" x="341" y="-129.75" font-family="Times,serif" font-size="10.00"> &#160;&#160;&#160;&#160;&#160;&#160;&#160;&#160;&#160;&#160;&#160;&#160;&#160;&#160;&#160;</text>
<polygon fill="#00688b" stroke="#00688b" points="227.25,-201 227.25,-201 490.75,-201 490.75,-201 227.25,-201"/>
<path fill="none" stroke="#00688b" d="M239.25,-119.5C239.25,-119.5 478.75,-119.5 478.75,-119.5 484.75,-119.5 490.75,-125.5 490.75,-131.5 490.75,-131.5 490.75,-219.5 490.75,-219.5 490.75,-225.5 484.75,-231.5 478.75,-231.5 478.75,-231.5 239.25,-231.5 239.25,-231.5 233.25,-231.5 227.25,-225.5 227.25,-219.5 227.25,-219.5 227.25,-131.5 227.25,-131.5 227.25,-125.5 233.25,-119.5 239.25,-119.5"/>
</g>
<!-- New&#45;&gt;PendingReplace -->
<g id="edge11" class="edge">
<title>New&#45;&gt;PendingReplace</title>
<path fill="none" stroke="red" d="M433.98,-650.87C399.36,-637.01 364.4,-618.76 336,-595 329.42,-589.5 332.95,-583.52 326,-578.5 296.8,-557.43 271.59,-586.8 247,-560.5 151.48,-458.34 224.64,-370.37 295,-249.5 296.73,-246.54 298.58,-243.58 300.53,-240.66"/>
<polygon fill="red" stroke="red" points="303.27,-242.84 306.19,-232.66 297.56,-238.8 303.27,-242.84"/>
<text xml:space="preserve" text-anchor="middle" x="241.99" y="-439.7" font-family="Times,serif" font-size="14.00"> send_replace </text>
</g>
<!-- Stopped -->
<g id="node9" class="node">
<title>Stopped</title>
<path fill="azure" stroke="none" d="M515.38,-560.5C515.38,-560.5 282.62,-560.5 282.62,-560.5 276.62,-560.5 270.62,-554.5 270.62,-548.5 270.62,-548.5 270.62,-483 270.62,-483 270.62,-477 276.62,-471 282.62,-471 282.62,-471 515.38,-471 515.38,-471 521.38,-471 527.38,-477 527.38,-483 527.38,-483 527.38,-548.5 527.38,-548.5 527.38,-554.5 521.38,-560.5 515.38,-560.5"/>
<text xml:space="preserve" text-anchor="start" x="375.38" y="-540.2" font-family="Times,serif" font-weight="bold" font-size="14.00">Stopped</text>
<text xml:space="preserve" text-anchor="start" x="278.62" y="-515" font-family="Times,serif" font-size="10.00">$&gt;()</text>
<text xml:space="preserve" text-anchor="start" x="278.62" y="-503.75" font-family="Times,serif" font-size="10.00">exec_fill(exec_id: str, last_qty: float, last_px: float)</text>
<text xml:space="preserve" text-anchor="start" x="278.62" y="-492.5" font-family="Times,serif" font-size="10.00">exec_partial_fill(exec_id: str, last_qty: float, last_px: float)</text>
<text xml:space="preserve" text-anchor="start" x="381" y="-481.25" font-family="Times,serif" font-size="10.00"> &#160;&#160;&#160;&#160;&#160;&#160;&#160;&#160;&#160;&#160;&#160;&#160;&#160;&#160;&#160;</text>
<polygon fill="#00688b" stroke="#00688b" points="270.62,-530 270.62,-530 527.38,-530 527.38,-530 270.62,-530"/>
<path fill="none" stroke="#00688b" d="M282.62,-471C282.62,-471 515.38,-471 515.38,-471 521.38,-471 527.38,-477 527.38,-483 527.38,-483 527.38,-548.5 527.38,-548.5 527.38,-554.5 521.38,-560.5 515.38,-560.5 515.38,-560.5 282.62,-560.5 282.62,-560.5 276.62,-560.5 270.62,-554.5 270.62,-548.5 270.62,-548.5 270.62,-483 270.62,-483 270.62,-477 276.62,-471 282.62,-471"/>
</g>
<!-- New&#45;&gt;Stopped -->
<g id="edge12" class="edge">
<title>New&#45;&gt;Stopped</title>
<path fill="none" stroke="red" d="M479.49,-613.18C472.73,-607.22 466.17,-601.13 460,-595 452.03,-587.08 444.16,-578.11 436.86,-569.14"/>
<polygon fill="red" stroke="red" points="439.66,-567.05 430.7,-561.4 434.18,-571.41 439.66,-567.05"/>
<text xml:space="preserve" text-anchor="middle" x="500.5" y="-581.7" font-family="Times,serif" font-size="14.00"> exec_stopped </text>
</g>
<!-- Suspended -->
<g id="node10" class="node">
<title>Suspended</title>
<path fill="azure" stroke="none" d="M854.62,-560.5C854.62,-560.5 749.38,-560.5 749.38,-560.5 743.38,-560.5 737.38,-554.5 737.38,-548.5 737.38,-548.5 737.38,-483 737.38,-483 737.38,-477 743.38,-471 749.38,-471 749.38,-471 854.62,-471 854.62,-471 860.62,-471 866.62,-477 866.62,-483 866.62,-483 866.62,-548.5 866.62,-548.5 866.62,-554.5 860.62,-560.5 854.62,-560.5"/>
<text xml:space="preserve" text-anchor="start" x="770.88" y="-540.2" font-family="Times,serif" font-weight="bold" font-size="14.00">Suspended</text>
<text xml:space="preserve" text-anchor="start" x="745.38" y="-515" font-family="Times,serif" font-size="10.00">$&gt;()</text>
<text xml:space="preserve" text-anchor="start" x="745.38" y="-503.75" font-family="Times,serif" font-size="10.00">exec_restated(exec_id: str)</text>
<text xml:space="preserve" text-anchor="start" x="745.38" y="-492.5" font-family="Times,serif" font-size="10.00">exec_canceled(exec_id: str)</text>
<text xml:space="preserve" text-anchor="start" x="784" y="-481.25" font-family="Times,serif" font-size="10.00"> &#160;&#160;&#160;&#160;&#160;&#160;&#160;&#160;&#160;&#160;&#160;&#160;&#160;&#160;&#160;</text>
<polygon fill="#00688b" stroke="#00688b" points="737.38,-530 737.38,-530 866.62,-530 866.62,-530 737.38,-530"/>
<path fill="none" stroke="#00688b" d="M749.38,-471C749.38,-471 854.62,-471 854.62,-471 860.62,-471 866.62,-477 866.62,-483 866.62,-483 866.62,-548.5 866.62,-548.5 866.62,-554.5 860.62,-560.5 854.62,-560.5 854.62,-560.5 749.38,-560.5 749.38,-560.5 743.38,-560.5 737.38,-554.5 737.38,-548.5 737.38,-548.5 737.38,-483 737.38,-483 737.38,-477 743.38,-471 749.38,-471"/>
</g>
<!-- New&#45;&gt;Suspended -->
<g id="edge15" class="edge">
<title>New&#45;&gt;Suspended</title>
<path fill="none" stroke="red" d="M728.72,-613.02C736.18,-607.27 743.33,-601.25 750,-595 757.95,-587.55 765.29,-578.66 771.8,-569.59"/>
<polygon fill="red" stroke="red" points="774.66,-571.6 777.42,-561.37 768.88,-567.65 774.66,-571.6"/>
<text xml:space="preserve" text-anchor="middle" x="811.51" y="-581.7" font-family="Times,serif" font-size="14.00"> exec_suspended </text>
</g>
<!-- New&#45;&gt;Filled -->
<g id="edge8" class="edge">
<title>New&#45;&gt;Filled</title>
<path fill="none" stroke="red" d="M433.95,-669.47C282.23,-643.88 70,-594.23 70,-516.75 70,-516.75 70,-516.75 70,-174.5 70,-139.59 86.14,-103.55 101.81,-76.78"/>
<polygon fill="red" stroke="red" points="104.77,-78.66 106.98,-68.29 98.79,-75.02 104.77,-78.66"/>
<text xml:space="preserve" text-anchor="middle" x="97.38" y="-346.2" font-family="Times,serif" font-size="14.00"> exec_fill </text>
</g>
<!-- New&#45;&gt;Canceled -->
<g id="edge14" class="edge">
<title>New&#45;&gt;Canceled</title>
<path fill="none" stroke="red" d="M733.96,-654.2C783.27,-639.3 837.38,-619.66 884,-595 929.14,-571.12 1032.8,-503.47 1060,-453 1125.87,-330.77 1091.73,-157.82 1070.18,-77.98"/>
<polygon fill="red" stroke="red" points="1073.56,-77.06 1067.51,-68.36 1066.81,-78.93 1073.56,-77.06"/>
<text xml:space="preserve" text-anchor="middle" x="1138.09" y="-346.2" font-family="Times,serif" font-size="14.00"> exec_expired </text>
</g>
<!-- DoneForDay -->
<g id="node14" class="node">
<title>DoneForDay</title>
<path fill="azure" stroke="none" d="M977.12,-209C977.12,-209 910.88,-209 910.88,-209 904.88,-209 898.88,-203 898.88,-197 898.88,-197 898.88,-154 898.88,-154 898.88,-148 904.88,-142 910.88,-142 910.88,-142 977.12,-142 977.12,-142 983.12,-142 989.12,-148 989.12,-154 989.12,-154 989.12,-197 989.12,-197 989.12,-203 983.12,-209 977.12,-209"/>
<text xml:space="preserve" text-anchor="start" x="906.88" y="-188.7" font-family="Times,serif" font-weight="bold" font-size="14.00">DoneForDay</text>
<text xml:space="preserve" text-anchor="start" x="906.88" y="-163.5" font-family="Times,serif" font-size="10.00">$&gt;()</text>
<text xml:space="preserve" text-anchor="start" x="906.88" y="-152.25" font-family="Times,serif" font-size="10.00"> &#160;&#160;&#160;&#160;&#160;&#160;&#160;&#160;&#160;&#160;&#160;</text>
<polygon fill="#00688b" stroke="#00688b" points="898.88,-178.5 898.88,-178.5 989.12,-178.5 989.12,-178.5 898.88,-178.5"/>
<path fill="none" stroke="#00688b" d="M910.88,-142C910.88,-142 977.12,-142 977.12,-142 983.12,-142 989.12,-148 989.12,-154 989.12,-154 989.12,-197 989.12,-197 989.12,-203 983.12,-209 977.12,-209 977.12,-209 910.88,-209 910.88,-209 904.88,-209 898.88,-203 898.88,-197 898.88,-197 898.88,-154 898.88,-154 898.88,-148 904.88,-142 910.88,-142"/>
</g>
<!-- New&#45;&gt;DoneForDay -->
<g id="edge13" class="edge">
<title>New&#45;&gt;DoneForDay</title>
<path fill="none" stroke="red" d="M734.1,-665.1C780.17,-650.97 827.9,-629.04 863,-595 966.25,-494.86 959.41,-305.55 950.13,-220.19"/>
<polygon fill="red" stroke="red" points="953.62,-219.89 948.99,-210.36 946.67,-220.69 953.62,-219.89"/>
<text xml:space="preserve" text-anchor="middle" x="999.4" y="-439.7" font-family="Times,serif" font-size="14.00"> exec_done_for_day </text>
</g>
<!-- PartiallyFilled&#45;&gt;PartiallyFilled -->
<g id="edge17" class="edge">
<title>PartiallyFilled&#45;&gt;PartiallyFilled</title>
<path fill="none" stroke="red" d="M639,-364.33C650.23,-361.41 657.12,-357.05 657.12,-351.25 657.12,-347.63 654.43,-344.56 649.67,-342.06"/>
<polygon fill="red" stroke="red" points="651.02,-338.83 640.42,-338.69 648.62,-345.41 651.02,-338.83"/>
<text xml:space="preserve" text-anchor="middle" x="705.12" y="-346.2" font-family="Times,serif" font-size="14.00"> exec_partial_fill </text>
</g>
<!-- PartiallyFilled&#45;&gt;PendingCancel -->
<g id="edge18" class="edge">
<title>PartiallyFilled&#45;&gt;PendingCancel</title>
<path fill="none" stroke="red" d="M545.37,-284.07C557.62,-269.69 570.55,-254.51 582.71,-240.24"/>
<polygon fill="red" stroke="red" points="585.37,-242.51 589.19,-232.63 580.04,-237.97 585.37,-242.51"/>
<text xml:space="preserve" text-anchor="middle" x="608.61" y="-252.7" font-family="Times,serif" font-size="14.00"> send_cancel </text>
</g>
<!-- PartiallyFilled&#45;&gt;PendingReplace -->
<g id="edge19" class="edge">
<title>PartiallyFilled&#45;&gt;PendingReplace</title>
<path fill="none" stroke="red" d="M482.85,-284.14C479.66,-271.93 474.94,-259.8 468,-249.5 465.77,-246.19 463.33,-242.99 460.73,-239.9"/>
<polygon fill="red" stroke="red" points="463.35,-237.59 454,-232.61 458.21,-242.33 463.35,-237.59"/>
<text xml:space="preserve" text-anchor="middle" x="514.96" y="-252.7" font-family="Times,serif" font-size="14.00"> send_replace </text>
</g>
<!-- PartiallyFilled&#45;&gt;Filled -->
<g id="edge16" class="edge">
<title>PartiallyFilled&#45;&gt;Filled</title>
<path fill="none" stroke="red" d="M339.08,-329.74C275.8,-313.42 206.83,-284.12 163.25,-231.5 127.71,-188.59 124.09,-121.89 126.31,-78.19"/>
<polygon fill="red" stroke="red" points="129.8,-78.51 126.95,-68.3 122.81,-78.06 129.8,-78.51"/>
<text xml:space="preserve" text-anchor="middle" x="190.62" y="-170.45" font-family="Times,serif" font-size="14.00"> exec_fill </text>
</g>
<!-- PartiallyFilled&#45;&gt;Canceled -->
<g id="edge21" class="edge">
<title>PartiallyFilled&#45;&gt;Canceled</title>
<path fill="none" stroke="red" d="M638.8,-318.06C688.47,-300.31 739.75,-273.08 774,-231.5 809.44,-188.47 771.23,-151.07 810.5,-111.5 864.46,-57.13 956.19,-41.04 1011.24,-36.35"/>
<polygon fill="red" stroke="red" points="1011.18,-39.86 1020.89,-35.62 1010.66,-32.88 1011.18,-39.86"/>
<text xml:space="preserve" text-anchor="middle" x="850.25" y="-170.45" font-family="Times,serif" font-size="14.00"> exec_expired </text>
</g>
<!-- PartiallyFilled&#45;&gt;DoneForDay -->
<g id="edge20" class="edge">
<title>PartiallyFilled&#45;&gt;DoneForDay</title>
<path fill="none" stroke="red" d="M638.9,-323.21C694.82,-310.04 757.83,-291.42 812,-266 823.39,-260.66 823.99,-255.59 835,-249.5 853.49,-239.27 860.94,-242.46 879,-231.5 886.46,-226.97 893.94,-221.61 901.04,-216.03"/>
<polygon fill="red" stroke="red" points="903.07,-218.89 908.61,-209.86 898.64,-213.46 903.07,-218.89"/>
<text xml:space="preserve" text-anchor="middle" x="892" y="-252.7" font-family="Times,serif" font-size="14.00"> exec_done_for_day </text>
</g>
<!-- PendingCancel&#45;&gt;New -->
<g id="edge24" class="edge">
<title>PendingCancel&#45;&gt;New</title>
<path fill="none" stroke="red" d="M740.51,-231.46C757.21,-245.92 771.48,-263.37 779,-284 799.47,-340.16 786.61,-359.21 779,-418.5 776.98,-434.22 780.34,-440.99 770,-453 756.75,-468.39 742.2,-456.48 728,-471 698.03,-501.66 713.96,-523.68 692,-560.5 683.1,-575.42 672.54,-590.39 661.56,-604.6"/>
<polygon fill="red" stroke="red" points="659.06,-602.12 655.62,-612.14 664.56,-606.45 659.06,-602.12"/>
<text xml:space="preserve" text-anchor="middle" x="800.56" y="-439.7" font-family="Times,serif" font-size="14.00"> no fills </text>
</g>
<!-- PendingCancel&#45;&gt;PartiallyFilled -->
<g id="edge23" class="edge">
<title>PendingCancel&#45;&gt;PartiallyFilled</title>
<path fill="none" stroke="red" d="M655.55,-231.42C656.64,-243.45 655.24,-255.67 649,-266 647.01,-269.29 644.85,-272.46 642.53,-275.51"/>
<polygon fill="red" stroke="red" points="639.86,-273.25 636.11,-283.16 645.22,-277.76 639.86,-273.25"/>
<text xml:space="preserve" text-anchor="middle" x="679.93" y="-252.7" font-family="Times,serif" font-size="14.00"> has fills </text>
</g>
<!-- PendingCancel&#45;&gt;Filled -->
<g id="edge25" class="edge">
<title>PendingCancel&#45;&gt;Filled</title>
<path fill="none" stroke="red" d="M522.64,-119.64C515.05,-116.71 507.46,-113.96 500,-111.5 382.44,-72.75 237.16,-49.23 169.3,-39.58"/>
<polygon fill="red" stroke="red" points="169.83,-36.12 159.44,-38.21 168.86,-43.06 169.83,-36.12"/>
<text xml:space="preserve" text-anchor="middle" x="488.35" y="-88.2" font-family="Times,serif" font-size="14.00"> exec_fill </text>
</g>
<!-- PendingCancel&#45;&gt;Canceled -->
<g id="edge22" class="edge">
<title>PendingCancel&#45;&gt;Canceled</title>
<path fill="none" stroke="red" d="M665.46,-119.79C674.94,-106.42 686.73,-93.52 700.75,-85 751.99,-53.84 926.78,-41.01 1010.96,-36.55"/>
<polygon fill="red" stroke="red" points="1011.14,-40.04 1020.94,-36.04 1010.78,-33.05 1011.14,-40.04"/>
<text xml:space="preserve" text-anchor="middle" x="743.88" y="-88.2" font-family="Times,serif" font-size="14.00"> exec_canceled </text>
</g>
<!-- PendingReplace&#45;&gt;New -->
<g id="edge27" class="edge">
<title>PendingReplace&#45;&gt;New</title>
<path fill="none" stroke="red" d="M322.98,-231.16C319.94,-237.19 317.2,-243.37 315,-249.5 284.13,-335.55 330.95,-373.96 285,-453 278.48,-464.22 267.69,-459.33 262,-471 244.58,-506.76 237.57,-529.11 262,-560.5 281.99,-586.19 302.25,-567.83 333,-578.5 362.74,-588.82 393.82,-601.26 423.58,-614.04"/>
<polygon fill="red" stroke="red" points="422.09,-617.21 432.65,-617.97 424.87,-610.78 422.09,-617.21"/>
<text xml:space="preserve" text-anchor="middle" x="316.14" y="-439.7" font-family="Times,serif" font-size="14.00"> no fills </text>
</g>
<!-- PendingReplace&#45;&gt;New -->
<g id="edge29" class="edge">
<title>PendingReplace&#45;&gt;New</title>
<path fill="none" stroke="red" d="M333.39,-231.16C312.99,-283.5 293.36,-362.58 330,-418.5 351.06,-450.63 372.29,-442.54 409.25,-453 436.62,-460.75 515.77,-450.99 536,-471 555.82,-490.6 548.82,-567.82 555,-595 555.52,-597.31 556.08,-599.65 556.65,-602"/>
<polygon fill="red" stroke="red" points="553.24,-602.8 559.11,-611.62 560.03,-601.07 553.24,-602.8"/>
<text xml:space="preserve" text-anchor="middle" x="432.12" y="-439.7" font-family="Times,serif" font-size="14.00"> no fills </text>
</g>
<!-- PendingReplace&#45;&gt;PartiallyFilled -->
<g id="edge26" class="edge">
<title>PendingReplace&#45;&gt;PartiallyFilled</title>
<path fill="none" stroke="red" d="M339,-231.17C337.6,-243.21 338.72,-255.49 344.75,-266 346.63,-269.27 348.69,-272.42 350.9,-275.47"/>
<polygon fill="red" stroke="red" points="348.05,-277.5 357.05,-283.09 353.5,-273.11 348.05,-277.5"/>
<text xml:space="preserve" text-anchor="middle" x="369.88" y="-252.7" font-family="Times,serif" font-size="14.00"> has fills </text>
</g>
<!-- PendingReplace&#45;&gt;PartiallyFilled -->
<g id="edge28" class="edge">
<title>PendingReplace&#45;&gt;PartiallyFilled</title>
<path fill="none" stroke="red" d="M390.48,-231.48C397.74,-243.14 405.71,-255.18 413.75,-266 416.04,-269.08 418.42,-272.19 420.87,-275.3"/>
<polygon fill="red" stroke="red" points="417.95,-277.26 426.95,-282.85 423.41,-272.87 417.95,-277.26"/>
<text xml:space="preserve" text-anchor="middle" x="438.88" y="-252.7" font-family="Times,serif" font-size="14.00"> has fills </text>
</g>
<!-- PendingReplace&#45;&gt;Filled -->
<g id="edge30" class="edge">
<title>PendingReplace&#45;&gt;Filled</title>
<path fill="none" stroke="red" d="M269.54,-119.57C233.99,-97.74 195.09,-73.85 167.58,-56.96"/>
<polygon fill="red" stroke="red" points="169.64,-54.12 159.28,-51.87 165.97,-60.08 169.64,-54.12"/>
<text xml:space="preserve" text-anchor="middle" x="265.54" y="-88.2" font-family="Times,serif" font-size="14.00"> exec_fill </text>
</g>
<!-- Stopped&#45;&gt;PartiallyFilled -->
<g id="edge32" class="edge">
<title>Stopped&#45;&gt;PartiallyFilled</title>
<path fill="none" stroke="red" d="M445.98,-471.31C450.81,-465.48 455.3,-459.32 459,-453 463.38,-445.53 467.17,-437.36 470.43,-429.02"/>
<polygon fill="red" stroke="red" points="473.65,-430.41 473.77,-419.82 467.07,-428.02 473.65,-430.41"/>
<text xml:space="preserve" text-anchor="middle" x="514.78" y="-439.7" font-family="Times,serif" font-size="14.00"> exec_partial_fill </text>
</g>
<!-- Stopped&#45;&gt;Filled -->
<g id="edge31" class="edge">
<title>Stopped&#45;&gt;Filled</title>
<path fill="none" stroke="red" d="M270.7,-493.81C244.3,-484.72 218.38,-471.69 198,-453 195.93,-451.11 122.8,-268.75 122.25,-266 119.26,-250.96 122.06,-246.83 122,-231.5 121.76,-166.39 116.27,-149.86 122,-85 122.19,-82.8 122.43,-80.56 122.71,-78.3"/>
<polygon fill="red" stroke="red" points="126.16,-78.88 124.13,-68.48 119.24,-77.88 126.16,-78.88"/>
<text xml:space="preserve" text-anchor="middle" x="149.62" y="-252.7" font-family="Times,serif" font-size="14.00"> exec_fill </text>
</g>
<!-- Suspended&#45;&gt;New -->
<g id="edge34" class="edge">
<title>Suspended&#45;&gt;New</title>
<path fill="none" stroke="red" d="M737.6,-552.86C724.88,-560.81 711.87,-569.55 700.25,-578.5 693.15,-583.97 682.33,-593.7 670.1,-605.22"/>
<polygon fill="red" stroke="red" points="667.83,-602.56 662.99,-611.98 672.65,-607.63 667.83,-602.56"/>
<text xml:space="preserve" text-anchor="middle" x="723.12" y="-581.7" font-family="Times,serif" font-size="14.00"> no fills </text>
</g>
<!-- Suspended&#45;&gt;PartiallyFilled -->
<g id="edge33" class="edge">
<title>Suspended&#45;&gt;PartiallyFilled</title>
<path fill="none" stroke="red" d="M743.73,-471.09C720.32,-453.59 698.44,-437.31 697,-436.5 681.82,-427.95 665.59,-419.82 649.15,-412.22"/>
<polygon fill="red" stroke="red" points="650.82,-409.14 640.27,-408.19 647.93,-415.51 650.82,-409.14"/>
<text xml:space="preserve" text-anchor="middle" x="743.59" y="-439.7" font-family="Times,serif" font-size="14.00"> has fills </text>
</g>
<!-- Suspended&#45;&gt;Canceled -->
<g id="edge35" class="edge">
<title>Suspended&#45;&gt;Canceled</title>
<path fill="none" stroke="red" d="M838.58,-471.35C881.97,-417.97 953.95,-323.12 998,-231.5 1022.2,-181.17 1038.85,-118.79 1048.15,-77.88"/>
<polygon fill="red" stroke="red" points="1051.56,-78.68 1050.3,-68.16 1044.72,-77.17 1051.56,-78.68"/>
<text xml:space="preserve" text-anchor="middle" x="1031.55" y="-252.7" font-family="Times,serif" font-size="14.00"> exec_canceled </text>
</g>
</g>
</svg>
