<?xml version="1.0" encoding="UTF-8" standalone="no"?>
<!DOCTYPE svg PUBLIC "-//W3C//DTD SVG 1.1//EN"
 "http://www.w3.org/Graphics/SVG/1.1/DTD/svg11.dtd">
<!-- Generated by graphviz version 14.1.5 (20260411.2331)
 -->
<!-- Title: FixBuySideOrder Pages: 1 -->
<svg width="1502pt" height="1161pt"
 viewBox="0.00 0.00 1502.00 1161.00" xmlns="http://www.w3.org/2000/svg" xmlns:xlink="http://www.w3.org/1999/xlink">
<g id="graph0" class="graph" transform="scale(1 1) rotate(0) translate(4 1157.15)">
<title>FixBuySideOrder</title>
<polygon fill="white" stroke="none" points="-4,4 -4,-1157.15 1498.25,-1157.15 1498.25,4 -4,4"/>
<g id="clust1" class="cluster">
<title>cluster_Active</title>
<path fill="none" stroke="black" d="M176,-111.5C176,-111.5 1003,-111.5 1003,-111.5 1009,-111.5 1015,-117.5 1015,-123.5 1015,-123.5 1015,-980.25 1015,-980.25 1015,-986.25 1009,-992.25 1003,-992.25 1003,-992.25 176,-992.25 176,-992.25 170,-992.25 164,-986.25 164,-980.25 164,-980.25 164,-123.5 164,-123.5 164,-117.5 170,-111.5 176,-111.5"/>
<text xml:space="preserve" text-anchor="start" x="571.5" y="-971.5" font-family="Times,serif" font-size="14.00">Active</text>
<polygon fill="black" stroke="black" points="567.5,-964.75 567.5,-964.75 611.5,-964.75 611.5,-964.75 567.5,-964.75"/>
</g>
<!-- Entry -->
<g id="node1" class="node">
<title>Entry</title>
<ellipse fill="black" stroke="#00688b" cx="667" cy="-1145.95" rx="7.2" ry="7.2"/>
</g>
<!-- Idle -->
<g id="node2" class="node">
<title>Idle</title>
<path fill="azure" stroke="none" d="M714,-1101.75C714,-1101.75 620,-1101.75 620,-1101.75 614,-1101.75 608,-1095.75 608,-1089.75 608,-1089.75 608,-1046.75 608,-1046.75 608,-1040.75 614,-1034.75 620,-1034.75 620,-1034.75 714,-1034.75 714,-1034.75 720,-1034.75 726,-1040.75 726,-1046.75 726,-1046.75 726,-1089.75 726,-1089.75 726,-1095.75 720,-1101.75 714,-1101.75"/>
<text xml:space="preserve" text-anchor="start" x="655.75" y="-1081.45" font-family="Times,serif" font-weight="bold" font-size="14.00">Idle</text>
<text xml:space="preserve" text-anchor="start" x="616" y="-1056.25" font-family="Times,serif" font-size="10.00">send_new(cl_ord_id: str)</text>
<text xml:space="preserve" text-anchor="start" x="653.5" y="-1045" font-family="Times,serif" font-size="10.00"> &#160;&#160;&#160;&#160;&#160;&#160;&#160;&#160;&#160;&#160;&#160;</text>
<polygon fill="#00688b" stroke="#00688b" points="608,-1071.25 608,-1071.25 726,-1071.25 726,-1071.25 608,-1071.25"/>
<path fill="none" stroke="#00688b" d="M620,-1034.75C620,-1034.75 714,-1034.75 714,-1034.75 720,-1034.75 726,-1040.75 726,-1046.75 726,-1046.75 726,-1089.75 726,-1089.75 726,-1095.75 720,-1101.75 714,-1101.75 714,-1101.75 620,-1101.75 620,-1101.75 614,-1101.75 608,-1095.75 608,-1089.75 608,-1089.75 608,-1046.75 608,-1046.75 608,-1040.75 614,-1034.75 620,-1034.75"/>
</g>
<!-- Entry&#45;&gt;Idle -->
<g id="edge1" class="edge">
<title>Entry&#45;&gt;Idle</title>
<path fill="none" stroke="red" d="M667,-1138.5C667,-1132.52 667,-1123.07 667,-1113.05"/>
<polygon fill="red" stroke="red" points="670.5,-1113.16 667,-1103.16 663.5,-1113.16 670.5,-1113.16"/>
</g>
<!-- PendingNew -->
<g id="node4" class="node">
<title>PendingNew</title>
<path fill="azure" stroke="none" d="M783.38,-945.75C783.38,-945.75 550.62,-945.75 550.62,-945.75 544.62,-945.75 538.62,-939.75 538.62,-933.75 538.62,-933.75 538.62,-834.5 538.62,-834.5 538.62,-828.5 544.62,-822.5 550.62,-822.5 550.62,-822.5 783.38,-822.5 783.38,-822.5 789.38,-822.5 795.38,-828.5 795.38,-834.5 795.38,-834.5 795.38,-933.75 795.38,-933.75 795.38,-939.75 789.38,-945.75 783.38,-945.75"/>
<text xml:space="preserve" text-anchor="start" x="630.62" y="-925.45" font-family="Times,serif" font-weight="bold" font-size="14.00">PendingNew</text>
<text xml:space="preserve" text-anchor="start" x="546.62" y="-900.25" font-family="Times,serif" font-size="10.00">$&gt;()</text>
<text xml:space="preserve" text-anchor="start" x="546.62" y="-889" font-family="Times,serif" font-size="10.00">exec_new(exec_id: str)</text>
<text xml:space="preserve" text-anchor="start" x="546.62" y="-877.75" font-family="Times,serif" font-size="10.00">exec_rejected(exec_id: str, reason: str)</text>
<text xml:space="preserve" text-anchor="start" x="546.62" y="-866.5" font-family="Times,serif" font-size="10.00">exec_fill(exec_id: str, last_qty: float, last_px: float)</text>
<text xml:space="preserve" text-anchor="start" x="546.62" y="-855.25" font-family="Times,serif" font-size="10.00">exec_partial_fill(exec_id: str, last_qty: float, last_px: float)</text>
<text xml:space="preserve" text-anchor="start" x="546.62" y="-844" font-family="Times,serif" font-size="10.00">exec_canceled(exec_id: str)</text>
<text xml:space="preserve" text-anchor="start" x="649" y="-832.75" font-family="Times,serif" font-size="10.00"> &#160;&#160;&#160;&#160;&#160;&#160;&#160;&#160;&#160;&#160;&#160;&#160;&#160;&#160;&#160;</text>
<polygon fill="#00688b" stroke="#00688b" points="538.62,-915.25 538.62,-915.25 795.38,-915.25 795.38,-915.25 538.62,-915.25"/>
<path fill="none" stroke="#00688b" d="M550.62,-822.5C550.62,-822.5 783.38,-822.5 783.38,-822.5 789.38,-822.5 795.38,-828.5 795.38,-834.5 795.38,-834.5 795.38,-933.75 795.38,-933.75 795.38,-939.75 789.38,-945.75 783.38,-945.75 783.38,-945.75 550.62,-945.75 550.62,-945.75 544.62,-945.75 538.62,-939.75 538.62,-933.75 538.62,-933.75 538.62,-834.5 538.62,-834.5 538.62,-828.5 544.62,-822.5 550.62,-822.5"/>
</g>
<!-- Idle&#45;&gt;PendingNew -->
<g id="edge2" class="edge">
<title>Idle&#45;&gt;PendingNew</title>
<path fill="none" stroke="red" d="M667,-1035.11C667,-1013.49 667,-984.09 667,-957.06"/>
<polygon fill="red" stroke="red" points="670.5,-957.16 667,-947.16 663.5,-957.16 670.5,-957.16"/>
<text xml:space="preserve" text-anchor="middle" x="697.75" y="-1003.45" font-family="Times,serif" font-size="14.00"> send_new </text>
</g>
<!-- Active -->
<g id="node3" class="node">
<title>Active</title>
<ellipse fill="azure" stroke="#00688b" cx="1007" cy="-884.12" rx="0.36" ry="0.36"/>
</g>
<!-- Canceled -->
<g id="node12" class="node">
<title>Canceled</title>
<path fill="azure" stroke="none" d="M1190.62,-67C1190.62,-67 1145.38,-67 1145.38,-67 1139.38,-67 1133.38,-61 1133.38,-55 1133.38,-55 1133.38,-12 1133.38,-12 1133.38,-6 1139.38,0 1145.38,0 1145.38,0 1190.62,0 1190.62,0 1196.62,0 1202.62,-6 1202.62,-12 1202.62,-12 1202.62,-55 1202.62,-55 1202.62,-61 1196.62,-67 1190.62,-67"/>
<text xml:space="preserve" text-anchor="start" x="1141.38" y="-46.7" font-family="Times,serif" font-weight="bold" font-size="14.00">Canceled</text>
<text xml:space="preserve" text-anchor="start" x="1141.38" y="-21.5" font-family="Times,serif" font-size="10.00">$&gt;()</text>
<text xml:space="preserve" text-anchor="start" x="1141.38" y="-10.25" font-family="Times,serif" font-size="10.00"> &#160;&#160;&#160;&#160;&#160;&#160;&#160;&#160;&#160;&#160;&#160;</text>
<polygon fill="#00688b" stroke="#00688b" points="1133.38,-36.5 1133.38,-36.5 1202.62,-36.5 1202.62,-36.5 1133.38,-36.5"/>
<path fill="none" stroke="#00688b" d="M1145.38,0C1145.38,0 1190.62,0 1190.62,0 1196.62,0 1202.62,-6 1202.62,-12 1202.62,-12 1202.62,-55 1202.62,-55 1202.62,-61 1196.62,-67 1190.62,-67 1190.62,-67 1145.38,-67 1145.38,-67 1139.38,-67 1133.38,-61 1133.38,-55 1133.38,-55 1133.38,-12 1133.38,-12 1133.38,-6 1139.38,0 1145.38,0"/>
</g>
<!-- Active&#45;&gt;Canceled -->
<g id="edge36" class="edge">
<title>Active&#45;&gt;Canceled</title>
<path fill="none" stroke="red" d="M1015,-883.14C1071.47,-882.81 1408,-873.28 1408,-692.5 1408,-692.5 1408,-692.5 1408,-174.5 1408,-85.4 1283.05,-51.99 1213.46,-40.29"/>
<polygon fill="red" stroke="red" points="1214.31,-36.88 1203.88,-38.77 1213.21,-43.8 1214.31,-36.88"/>
<text xml:space="preserve" text-anchor="middle" x="1451.12" y="-439.7" font-family="Times,serif" font-size="14.00"> exec_canceled </text>
</g>
<!-- New -->
<g id="node5" class="node">
<title>New</title>
<path fill="azure" stroke="none" d="M805.12,-770C805.12,-770 528.88,-770 528.88,-770 522.88,-770 516.88,-764 516.88,-758 516.88,-758 516.88,-625 516.88,-625 516.88,-619 522.88,-613 528.88,-613 528.88,-613 805.12,-613 805.12,-613 811.12,-613 817.12,-619 817.12,-625 817.12,-625 817.12,-758 817.12,-758 817.12,-764 811.12,-770 805.12,-770"/>
<text xml:space="preserve" text-anchor="start" x="654.25" y="-749.7" font-family="Times,serif" font-weight="bold" font-size="14.00">New</text>
<text xml:space="preserve" text-anchor="start" x="524.88" y="-724.5" font-family="Times,serif" font-size="10.00">$&gt;()</text>
<text xml:space="preserve" text-anchor="start" x="524.88" y="-713.25" font-family="Times,serif" font-size="10.00">exec_fill(exec_id: str, last_qty: float, last_px: float)</text>
<text xml:space="preserve" text-anchor="start" x="524.88" y="-702" font-family="Times,serif" font-size="10.00">exec_partial_fill(exec_id: str, last_qty: float, last_px: float)</text>
<text xml:space="preserve" text-anchor="start" x="524.88" y="-690.75" font-family="Times,serif" font-size="10.00">send_cancel(cancel_cl_ord_id: str)</text>
<text xml:space="preserve" text-anchor="start" x="524.88" y="-679.5" font-family="Times,serif" font-size="10.00">send_replace(replace_cl_ord_id: str, new_qty: float, new_price: float)</text>
<text xml:space="preserve" text-anchor="start" x="524.88" y="-668.25" font-family="Times,serif" font-size="10.00">exec_stopped(exec_id: str, stop_px: float)</text>
<text xml:space="preserve" text-anchor="start" x="524.88" y="-657" font-family="Times,serif" font-size="10.00">exec_done_for_day(exec_id: str)</text>
<text xml:space="preserve" text-anchor="start" x="524.88" y="-645.75" font-family="Times,serif" font-size="10.00">exec_expired(exec_id: str)</text>
<text xml:space="preserve" text-anchor="start" x="524.88" y="-634.5" font-family="Times,serif" font-size="10.00">exec_suspended(exec_id: str)</text>
<text xml:space="preserve" text-anchor="start" x="649" y="-623.25" font-family="Times,serif" font-size="10.00"> &#160;&#160;&#160;&#160;&#160;&#160;&#160;&#160;&#160;&#160;&#160;&#160;&#160;&#160;&#160;</text>
<polygon fill="#00688b" stroke="#00688b" points="516.88,-739.5 516.88,-739.5 817.12,-739.5 817.12,-739.5 516.88,-739.5"/>
<path fill="none" stroke="#00688b" d="M528.88,-613C528.88,-613 805.12,-613 805.12,-613 811.12,-613 817.12,-619 817.12,-625 817.12,-625 817.12,-758 817.12,-758 817.12,-764 811.12,-770 805.12,-770 805.12,-770 528.88,-770 528.88,-770 522.88,-770 516.88,-764 516.88,-758 516.88,-758 516.88,-625 516.88,-625 516.88,-619 522.88,-613 528.88,-613"/>
</g>
<!-- PendingNew&#45;&gt;New -->
<g id="edge3" class="edge">
<title>PendingNew&#45;&gt;New</title>
<path fill="none" stroke="red" d="M667,-822.55C667,-809.3 667,-795.02 667,-780.93"/>
<polygon fill="red" stroke="red" points="670.5,-781.22 667,-771.22 663.5,-781.22 670.5,-781.22"/>
<text xml:space="preserve" text-anchor="middle" x="697.75" y="-791.2" font-family="Times,serif" font-size="14.00"> exec_new </text>
</g>
<!-- PartiallyFilled -->
<g id="node6" class="node">
<title>PartiallyFilled</title>
<path fill="azure" stroke="none" d="M707.12,-418.5C707.12,-418.5 430.88,-418.5 430.88,-418.5 424.88,-418.5 418.88,-412.5 418.88,-406.5 418.88,-406.5 418.88,-296 418.88,-296 418.88,-290 424.88,-284 430.88,-284 430.88,-284 707.12,-284 707.12,-284 713.12,-284 719.12,-290 719.12,-296 719.12,-296 719.12,-406.5 719.12,-406.5 719.12,-412.5 713.12,-418.5 707.12,-418.5"/>
<text xml:space="preserve" text-anchor="start" x="527.38" y="-398.2" font-family="Times,serif" font-weight="bold" font-size="14.00">PartiallyFilled</text>
<text xml:space="preserve" text-anchor="start" x="426.88" y="-373" font-family="Times,serif" font-size="10.00">$&gt;()</text>
<text xml:space="preserve" text-anchor="start" x="426.88" y="-361.75" font-family="Times,serif" font-size="10.00">exec_fill(exec_id: str, last_qty: float, last_px: float)</text>
<text xml:space="preserve" text-anchor="start" x="426.88" y="-350.5" font-family="Times,serif" font-size="10.00">exec_partial_fill(exec_id: str, last_qty: float, last_px: float)</text>
<text xml:space="preserve" text-anchor="start" x="426.88" y="-339.25" font-family="Times,serif" font-size="10.00">send_cancel(cancel_cl_ord_id: str)</text>
<text xml:space="preserve" text-anchor="start" x="426.88" y="-328" font-family="Times,serif" font-size="10.00">send_replace(replace_cl_ord_id: str, new_qty: float, new_price: float)</text>
<text xml:space="preserve" text-anchor="start" x="426.88" y="-316.75" font-family="Times,serif" font-size="10.00">exec_done_for_day(exec_id: str)</text>
<text xml:space="preserve" text-anchor="start" x="426.88" y="-305.5" font-family="Times,serif" font-size="10.00">exec_expired(exec_id: str)</text>
<text xml:space="preserve" text-anchor="start" x="551" y="-294.25" font-family="Times,serif" font-size="10.00"> &#160;&#160;&#160;&#160;&#160;&#160;&#160;&#160;&#160;&#160;&#160;&#160;&#160;&#160;&#160;</text>
<polygon fill="#00688b" stroke="#00688b" points="418.88,-388 418.88,-388 719.12,-388 719.12,-388 418.88,-388"/>
<path fill="none" stroke="#00688b" d="M430.88,-284C430.88,-284 707.12,-284 707.12,-284 713.12,-284 719.12,-290 719.12,-296 719.12,-296 719.12,-406.5 719.12,-406.5 719.12,-412.5 713.12,-418.5 707.12,-418.5 707.12,-418.5 430.88,-418.5 430.88,-418.5 424.88,-418.5 418.88,-412.5 418.88,-406.5 418.88,-406.5 418.88,-296 418.88,-296 418.88,-290 424.88,-284 430.88,-284"/>
</g>
<!-- PendingNew&#45;&gt;PartiallyFilled -->
<g id="edge6" class="edge">
<title>PendingNew&#45;&gt;PartiallyFilled</title>
<path fill="none" stroke="red" d="M554.21,-822.62C465.46,-767.69 349.03,-677.44 301,-560.5 285.89,-523.7 276.33,-502.2 301,-471 322.53,-443.77 348.94,-473.43 377,-453 383.93,-447.95 380.61,-442.22 387,-436.5 394.09,-430.16 401.74,-424.21 409.74,-418.65"/>
<polygon fill="red" stroke="red" points="411.65,-421.59 418.03,-413.13 407.77,-415.76 411.65,-421.59"/>
<text xml:space="preserve" text-anchor="middle" x="363.98" y="-581.7" font-family="Times,serif" font-size="14.00"> exec_partial_fill </text>
</g>
<!-- Filled -->
<g id="node11" class="node">
<title>Filled</title>
<path fill="azure" stroke="none" d="M158,-67C158,-67 128,-67 128,-67 122,-67 116,-61 116,-55 116,-55 116,-12 116,-12 116,-6 122,0 128,0 128,0 158,0 158,0 164,0 170,-6 170,-12 170,-12 170,-55 170,-55 170,-61 164,-67 158,-67"/>
<text xml:space="preserve" text-anchor="start" x="126.5" y="-46.7" font-family="Times,serif" font-weight="bold" font-size="14.00">Filled</text>
<text xml:space="preserve" text-anchor="start" x="126.5" y="-21.5" font-family="Times,serif" font-size="10.00">$&gt;()</text>
<text xml:space="preserve" text-anchor="start" x="126.5" y="-10.25" font-family="Times,serif" font-size="10.00"> &#160;&#160;&#160;&#160;&#160;&#160;&#160;&#160;&#160;&#160;&#160;</text>
<polygon fill="#00688b" stroke="#00688b" points="118.5,-36.5 118.5,-36.5 167.5,-36.5 167.5,-36.5 118.5,-36.5"/>
<path fill="none" stroke="#00688b" d="M130.5,0C130.5,0 155.5,0 155.5,0 161.5,0 167.5,-6 167.5,-12 167.5,-12 167.5,-55 167.5,-55 167.5,-61 161.5,-67 155.5,-67 155.5,-67 130.5,-67 130.5,-67 124.5,-67 118.5,-61 118.5,-55 118.5,-55 118.5,-12 118.5,-12 118.5,-6 124.5,0 130.5,0"/>
</g>
<!-- PendingNew&#45;&gt;Filled -->
<g id="edge5" class="edge">
<title>PendingNew&#45;&gt;Filled</title>
<path fill="none" stroke="red" d="M538.79,-872.7C345.04,-853.37 0,-803.38 0,-692.5 0,-692.5 0,-692.5 0,-174.5 0,-115.25 63.47,-72.81 105.84,-51.08"/>
<polygon fill="red" stroke="red" points="107.33,-54.24 114.75,-46.67 104.23,-47.97 107.33,-54.24"/>
<text xml:space="preserve" text-anchor="middle" x="27.38" y="-439.7" font-family="Times,serif" font-size="14.00"> exec_fill </text>
</g>
<!-- PendingNew&#45;&gt;Canceled -->
<g id="edge7" class="edge">
<title>PendingNew&#45;&gt;Canceled</title>
<path fill="none" stroke="red" d="M795.17,-859.7C911.61,-838.28 1067.28,-809.22 1081,-804.5 1184.01,-769.09 1299,-801.43 1299,-692.5 1299,-692.5 1299,-692.5 1299,-174.5 1299,-122.33 1249.91,-81.57 1211.83,-57.8"/>
<polygon fill="red" stroke="red" points="1214.09,-55.07 1203.71,-52.91 1210.47,-61.07 1214.09,-55.07"/>
<text xml:space="preserve" text-anchor="middle" x="1342.12" y="-439.7" font-family="Times,serif" font-size="14.00"> exec_canceled </text>
</g>
<!-- Rejected -->
<g id="node13" class="node">
<title>Rejected</title>
<path fill="azure" stroke="none" d="M1077.12,-725C1077.12,-725 1034.88,-725 1034.88,-725 1028.88,-725 1022.88,-719 1022.88,-713 1022.88,-713 1022.88,-670 1022.88,-670 1022.88,-664 1028.88,-658 1034.88,-658 1034.88,-658 1077.12,-658 1077.12,-658 1083.12,-658 1089.12,-664 1089.12,-670 1089.12,-670 1089.12,-713 1089.12,-713 1089.12,-719 1083.12,-725 1077.12,-725"/>
<text xml:space="preserve" text-anchor="start" x="1030.88" y="-704.7" font-family="Times,serif" font-weight="bold" font-size="14.00">Rejected</text>
<text xml:space="preserve" text-anchor="start" x="1030.88" y="-679.5" font-family="Times,serif" font-size="10.00">$&gt;()</text>
<text xml:space="preserve" text-anchor="start" x="1030.88" y="-668.25" font-family="Times,serif" font-size="10.00"> &#160;&#160;&#160;&#160;&#160;&#160;&#160;&#160;&#160;&#160;&#160;</text>
<polygon fill="#00688b" stroke="#00688b" points="1022.88,-694.5 1022.88,-694.5 1089.12,-694.5 1089.12,-694.5 1022.88,-694.5"/>
<path fill="none" stroke="#00688b" d="M1034.88,-658C1034.88,-658 1077.12,-658 1077.12,-658 1083.12,-658 1089.12,-664 1089.12,-670 1089.12,-670 1089.12,-713 1089.12,-713 1089.12,-719 1083.12,-725 1077.12,-725 1077.12,-725 1034.88,-725 1034.88,-725 1028.88,-725 1022.88,-719 1022.88,-713 1022.88,-713 1022.88,-670 1022.88,-670 1022.88,-664 1028.88,-658 1034.88,-658"/>
</g>
<!-- PendingNew&#45;&gt;Rejected -->
<g id="edge4" class="edge">
<title>PendingNew&#45;&gt;Rejected</title>
<path fill="none" stroke="red" d="M795.32,-867.37C868.1,-852.67 956.77,-824.38 1019,-770 1029.53,-760.8 1037.3,-747.95 1042.94,-735.35"/>
<polygon fill="red" stroke="red" points="1046.09,-736.89 1046.61,-726.31 1039.6,-734.26 1046.09,-736.89"/>
<text xml:space="preserve" text-anchor="middle" x="1036.54" y="-791.2" font-family="Times,serif" font-size="14.00"> exec_rejected </text>
</g>
<!-- New&#45;&gt;PartiallyFilled -->
<g id="edge9" class="edge">
<title>New&#45;&gt;PartiallyFilled</title>
<path fill="none" stroke="red" d="M672.34,-613.24C673.02,-561.24 668.16,-492.26 644,-436.5 642.78,-433.69 641.43,-430.91 639.98,-428.17"/>
<polygon fill="red" stroke="red" points="643.09,-426.56 635.01,-419.7 637.05,-430.1 643.09,-426.56"/>
<text xml:space="preserve" text-anchor="middle" x="718.89" y="-510.7" font-family="Times,serif" font-size="14.00"> exec_partial_fill </text>
</g>
<!-- PendingCancel -->
<g id="node7" class="node">
<title>PendingCancel</title>
<path fill="azure" stroke="none" d="M852.38,-231.5C852.38,-231.5 619.62,-231.5 619.62,-231.5 613.62,-231.5 607.62,-225.5 607.62,-219.5 607.62,-219.5 607.62,-131.5 607.62,-131.5 607.62,-125.5 613.62,-119.5 619.62,-119.5 619.62,-119.5 852.38,-119.5 852.38,-119.5 858.38,-119.5 864.38,-125.5 864.38,-131.5 864.38,-131.5 864.38,-219.5 864.38,-219.5 864.38,-225.5 858.38,-231.5 852.38,-231.5"/>
<text xml:space="preserve" text-anchor="start" x="692.5" y="-211.2" font-family="Times,serif" font-weight="bold" font-size="14.00">PendingCancel</text>
<text xml:space="preserve" text-anchor="start" x="615.62" y="-186" font-family="Times,serif" font-size="10.00">$&gt;()</text>
<text xml:space="preserve" text-anchor="start" x="615.62" y="-174.75" font-family="Times,serif" font-size="10.00">exec_canceled(exec_id: str)</text>
<text xml:space="preserve" text-anchor="start" x="615.62" y="-163.5" font-family="Times,serif" font-size="10.00">exec_cancel_rejected(reason: str)</text>
<text xml:space="preserve" text-anchor="start" x="615.62" y="-152.25" font-family="Times,serif" font-size="10.00">exec_fill(exec_id: str, last_qty: float, last_px: float)</text>
<text xml:space="preserve" text-anchor="start" x="615.62" y="-141" font-family="Times,serif" font-size="10.00">exec_partial_fill(exec_id: str, last_qty: float, last_px: float)</text>
<text xml:space="preserve" text-anchor="start" x="718" y="-129.75" font-family="Times,serif" font-size="10.00"> &#160;&#160;&#160;&#160;&#160;&#160;&#160;&#160;&#160;&#160;&#160;&#160;&#160;&#160;&#160;</text>
<polygon fill="#00688b" stroke="#00688b" points="607.62,-201 607.62,-201 864.38,-201 864.38,-201 607.62,-201"/>
<path fill="none" stroke="#00688b" d="M619.62,-119.5C619.62,-119.5 852.38,-119.5 852.38,-119.5 858.38,-119.5 864.38,-125.5 864.38,-131.5 864.38,-131.5 864.38,-219.5 864.38,-219.5 864.38,-225.5 858.38,-231.5 852.38,-231.5 852.38,-231.5 619.62,-231.5 619.62,-231.5 613.62,-231.5 607.62,-225.5 607.62,-219.5 607.62,-219.5 607.62,-131.5 607.62,-131.5 607.62,-125.5 613.62,-119.5 619.62,-119.5"/>
</g>
<!-- New&#45;&gt;PendingCancel -->
<g id="edge10" class="edge">
<title>New&#45;&gt;PendingCancel</title>
<path fill="none" stroke="red" d="M648.34,-613.16C641.42,-570.21 638.56,-516.45 654,-471 660.22,-452.69 663.66,-446 680.5,-436.5 711.96,-418.76 816.38,-443.95 842,-418.5 868.79,-391.88 878.75,-282.29 860,-249.5 858.11,-246.19 856,-243.02 853.72,-239.98"/>
<polygon fill="red" stroke="red" points="856.44,-237.78 847.31,-232.4 851.09,-242.3 856.44,-237.78"/>
<text xml:space="preserve" text-anchor="middle" x="717.25" y="-439.7" font-family="Times,serif" font-size="14.00"> send_cancel </text>
</g>
<!-- PendingReplace -->
<g id="node8" class="node">
<title>PendingReplace</title>
<path fill="azure" stroke="none" d="M490.75,-231.5C490.75,-231.5 251.25,-231.5 251.25,-231.5 245.25,-231.5 239.25,-225.5 239.25,-219.5 239.25,-219.5 239.25,-131.5 239.25,-131.5 239.25,-125.5 245.25,-119.5 251.25,-119.5 251.25,-119.5 490.75,-119.5 490.75,-119.5 496.75,-119.5 502.75,-125.5 502.75,-131.5 502.75,-131.5 502.75,-219.5 502.75,-219.5 502.75,-225.5 496.75,-231.5 490.75,-231.5"/>
<text xml:space="preserve" text-anchor="start" x="324.5" y="-211.2" font-family="Times,serif" font-weight="bold" font-size="14.00">PendingReplace</text>
<text xml:space="preserve" text-anchor="start" x="247.25" y="-186" font-family="Times,serif" font-size="10.00">$&gt;()</text>
<text xml:space="preserve" text-anchor="start" x="247.25" y="-174.75" font-family="Times,serif" font-size="10.00">exec_replaced(exec_id: str, new_qty: float, new_price: float)</text>
<text xml:space="preserve" text-anchor="start" x="247.25" y="-163.5" font-family="Times,serif" font-size="10.00">exec_replace_rejected(reason: str)</text>
<text xml:space="preserve" text-anchor="start" x="247.25" y="-152.25" font-family="Times,serif" font-size="10.00">exec_fill(exec_id: str, last_qty: float, last_px: float)</text>
<text xml:space="preserve" text-anchor="start" x="247.25" y="-141" font-family="Times,serif" font-size="10.00">exec_partial_fill(exec_id: str, last_qty: float, last_px: float)</text>
<text xml:space="preserve" text-anchor="start" x="353" y="-129.75" font-family="Times,serif" font-size="10.00"> &#160;&#160;&#160;&#160;&#160;&#160;&#160;&#160;&#160;&#160;&#160;&#160;&#160;&#160;&#160;</text>
<polygon fill="#00688b" stroke="#00688b" points="239.25,-201 239.25,-201 502.75,-201 502.75,-201 239.25,-201"/>
<path fill="none" stroke="#00688b" d="M251.25,-119.5C251.25,-119.5 490.75,-119.5 490.75,-119.5 496.75,-119.5 502.75,-125.5 502.75,-131.5 502.75,-131.5 502.75,-219.5 502.75,-219.5 502.75,-225.5 496.75,-231.5 490.75,-231.5 490.75,-231.5 251.25,-231.5 251.25,-231.5 245.25,-231.5 239.25,-225.5 239.25,-219.5 239.25,-219.5 239.25,-131.5 239.25,-131.5 239.25,-125.5 245.25,-119.5 251.25,-119.5"/>
</g>
<!-- New&#45;&gt;PendingReplace -->
<g id="edge11" class="edge">
<title>New&#45;&gt;PendingReplace</title>
<path fill="none" stroke="red" d="M516.89,-641.98C481.42,-631.52 443.57,-621.17 408,-613 359.29,-601.81 338.44,-622.94 297,-595 289.89,-590.21 291.83,-585.58 287,-578.5 247.41,-520.5 213.52,-519.52 191,-453 167.83,-384.58 65.17,-489.39 255,-249.5 257.79,-245.98 260.79,-242.58 263.97,-239.31"/>
<polygon fill="red" stroke="red" points="266.3,-241.92 271.1,-232.47 261.46,-236.86 266.3,-241.92"/>
<text xml:space="preserve" text-anchor="middle" x="230" y="-439.7" font-family="Times,serif" font-size="14.00"> send_replace </text>
</g>
<!-- Stopped -->
<g id="node9" class="node">
<title>Stopped</title>
<path fill="azure" stroke="none" d="M554.38,-560.5C554.38,-560.5 321.62,-560.5 321.62,-560.5 315.62,-560.5 309.62,-554.5 309.62,-548.5 309.62,-548.5 309.62,-483 309.62,-483 309.62,-477 315.62,-471 321.62,-471 321.62,-471 554.38,-471 554.38,-471 560.38,-471 566.38,-477 566.38,-483 566.38,-483 566.38,-548.5 566.38,-548.5 566.38,-554.5 560.38,-560.5 554.38,-560.5"/>
<text xml:space="preserve" text-anchor="start" x="414.38" y="-540.2" font-family="Times,serif" font-weight="bold" font-size="14.00">Stopped</text>
<text xml:space="preserve" text-anchor="start" x="317.62" y="-515" font-family="Times,serif" font-size="10.00">$&gt;()</text>
<text xml:space="preserve" text-anchor="start" x="317.62" y="-503.75" font-family="Times,serif" font-size="10.00">exec_fill(exec_id: str, last_qty: float, last_px: float)</text>
<text xml:space="preserve" text-anchor="start" x="317.62" y="-492.5" font-family="Times,serif" font-size="10.00">exec_partial_fill(exec_id: str, last_qty: float, last_px: float)</text>
<text xml:space="preserve" text-anchor="start" x="420" y="-481.25" font-family="Times,serif" font-size="10.00"> &#160;&#160;&#160;&#160;&#160;&#160;&#160;&#160;&#160;&#160;&#160;&#160;&#160;&#160;&#160;</text>
<polygon fill="#00688b" stroke="#00688b" points="309.62,-530 309.62,-530 566.38,-530 566.38,-530 309.62,-530"/>
<path fill="none" stroke="#00688b" d="M321.62,-471C321.62,-471 554.38,-471 554.38,-471 560.38,-471 566.38,-477 566.38,-483 566.38,-483 566.38,-548.5 566.38,-548.5 566.38,-554.5 560.38,-560.5 554.38,-560.5 554.38,-560.5 321.62,-560.5 321.62,-560.5 315.62,-560.5 309.62,-554.5 309.62,-548.5 309.62,-548.5 309.62,-483 309.62,-483 309.62,-477 315.62,-471 321.62,-471"/>
</g>
<!-- New&#45;&gt;Stopped -->
<g id="edge12" class="edge">
<title>New&#45;&gt;Stopped</title>
<path fill="none" stroke="red" d="M521.92,-613.1C513.94,-607.3 506.23,-601.25 499,-595 490.21,-587.4 481.82,-578.38 474.22,-569.2"/>
<polygon fill="red" stroke="red" points="477.12,-567.22 468.15,-561.59 471.65,-571.59 477.12,-567.22"/>
<text xml:space="preserve" text-anchor="middle" x="539.5" y="-581.7" font-family="Times,serif" font-size="14.00"> exec_stopped </text>
</g>
<!-- Suspended -->
<g id="node10" class="node">
<title>Suspended</title>
<path fill="azure" stroke="none" d="M957.62,-560.5C957.62,-560.5 852.38,-560.5 852.38,-560.5 846.38,-560.5 840.38,-554.5 840.38,-548.5 840.38,-548.5 840.38,-483 840.38,-483 840.38,-477 846.38,-471 852.38,-471 852.38,-471 957.62,-471 957.62,-471 963.62,-471 969.62,-477 969.62,-483 969.62,-483 969.62,-548.5 969.62,-548.5 969.62,-554.5 963.62,-560.5 957.62,-560.5"/>
<text xml:space="preserve" text-anchor="start" x="873.88" y="-540.2" font-family="Times,serif" font-weight="bold" font-size="14.00">Suspended</text>
<text xml:space="preserve" text-anchor="start" x="848.38" y="-515" font-family="Times,serif" font-size="10.00">$&gt;()</text>
<text xml:space="preserve" text-anchor="start" x="848.38" y="-503.75" font-family="Times,serif" font-size="10.00">exec_restated(exec_id: str)</text>
<text xml:space="preserve" text-anchor="start" x="848.38" y="-492.5" font-family="Times,serif" font-size="10.00">exec_canceled(exec_id: str)</text>
<text xml:space="preserve" text-anchor="start" x="887" y="-481.25" font-family="Times,serif" font-size="10.00"> &#160;&#160;&#160;&#160;&#160;&#160;&#160;&#160;&#160;&#160;&#160;&#160;&#160;&#160;&#160;</text>
<polygon fill="#00688b" stroke="#00688b" points="840.38,-530 840.38,-530 969.62,-530 969.62,-530 840.38,-530"/>
<path fill="none" stroke="#00688b" d="M852.38,-471C852.38,-471 957.62,-471 957.62,-471 963.62,-471 969.62,-477 969.62,-483 969.62,-483 969.62,-548.5 969.62,-548.5 969.62,-554.5 963.62,-560.5 957.62,-560.5 957.62,-560.5 852.38,-560.5 852.38,-560.5 846.38,-560.5 840.38,-554.5 840.38,-548.5 840.38,-548.5 840.38,-483 840.38,-483 840.38,-477 846.38,-471 852.38,-471"/>
</g>
<!-- New&#45;&gt;Suspended -->
<g id="edge15" class="edge">
<title>New&#45;&gt;Suspended</title>
<path fill="none" stroke="red" d="M816.96,-650.3C844.67,-636.76 870.85,-618.78 890,-595 895.55,-588.11 899.26,-579.77 901.71,-571.14"/>
<polygon fill="red" stroke="red" points="905.07,-572.15 903.84,-561.62 898.24,-570.62 905.07,-572.15"/>
<text xml:space="preserve" text-anchor="middle" x="946.17" y="-581.7" font-family="Times,serif" font-size="14.00"> exec_suspended </text>
</g>
<!-- New&#45;&gt;Filled -->
<g id="edge8" class="edge">
<title>New&#45;&gt;Filled</title>
<path fill="none" stroke="red" d="M517.12,-676.73C340.28,-656.24 70,-609.72 70,-516.75 70,-516.75 70,-516.75 70,-174.5 70,-137.6 90.19,-100.79 109.33,-74.18"/>
<polygon fill="red" stroke="red" points="111.94,-76.53 115.12,-66.43 106.33,-72.35 111.94,-76.53"/>
<text xml:space="preserve" text-anchor="middle" x="97.38" y="-346.2" font-family="Times,serif" font-size="14.00"> exec_fill </text>
</g>
<!-- New&#45;&gt;Canceled -->
<g id="edge14" class="edge">
<title>New&#45;&gt;Canceled</title>
<path fill="none" stroke="red" d="M817.05,-669.39C939.5,-642.84 1102.14,-583.67 1165,-453 1225.12,-328.03 1197.26,-156.78 1179.19,-77.72"/>
<polygon fill="red" stroke="red" points="1182.65,-77.15 1176.96,-68.22 1175.84,-78.75 1182.65,-77.15"/>
<text xml:space="preserve" text-anchor="middle" x="1241.07" y="-346.2" font-family="Times,serif" font-size="14.00"> exec_expired </text>
</g>
<!-- DoneForDay -->
<g id="node14" class="node">
<title>DoneForDay</title>
<path fill="azure" stroke="none" d="M1101.12,-209C1101.12,-209 1034.88,-209 1034.88,-209 1028.88,-209 1022.88,-203 1022.88,-197 1022.88,-197 1022.88,-154 1022.88,-154 1022.88,-148 1028.88,-142 1034.88,-142 1034.88,-142 1101.12,-142 1101.12,-142 1107.12,-142 1113.12,-148 1113.12,-154 1113.12,-154 1113.12,-197 1113.12,-197 1113.12,-203 1107.12,-209 1101.12,-209"/>
<text xml:space="preserve" text-anchor="start" x="1030.88" y="-188.7" font-family="Times,serif" font-weight="bold" font-size="14.00">DoneForDay</text>
<text xml:space="preserve" text-anchor="start" x="1030.88" y="-163.5" font-family="Times,serif" font-size="10.00">$&gt;()</text>
<text xml:space="preserve" text-anchor="start" x="1030.88" y="-152.25" font-family="Times,serif" font-size="10.00"> &#160;&#160;&#160;&#160;&#160;&#160;&#160;&#160;&#160;&#160;&#160;</text>
<polygon fill="#00688b" stroke="#00688b" points="1022.88,-178.5 1022.88,-178.5 1113.12,-178.5 1113.12,-178.5 1022.88,-178.5"/>
<path fill="none" stroke="#00688b" d="M1034.88,-142C1034.88,-142 1101.12,-142 1101.12,-142 1107.12,-142 1113.12,-148 1113.12,-154 1113.12,-154 1113.12,-197 1113.12,-197 1113.12,-203 1107.12,-209 1101.12,-209 1101.12,-209 1034.88,-209 1034.88,-209 1028.88,-209 1022.88,-203 1022.88,-197 1022.88,-197 1022.88,-154 1022.88,-154 1022.88,-148 1028.88,-142 1034.88,-142"/>
</g>
<!-- New&#45;&gt;DoneForDay -->
<g id="edge13" class="edge">
<title>New&#45;&gt;DoneForDay</title>
<path fill="none" stroke="red" d="M816.99,-663.4C892.36,-646.71 972.93,-623.13 998,-595 1046.98,-540.02 1062.15,-315.7 1066.45,-220.05"/>
<polygon fill="red" stroke="red" points="1069.93,-220.42 1066.86,-210.28 1062.94,-220.12 1069.93,-220.42"/>
<text xml:space="preserve" text-anchor="middle" x="1103.57" y="-439.7" font-family="Times,serif" font-size="14.00"> exec_done_for_day </text>
</g>
<!-- PartiallyFilled&#45;&gt;PartiallyFilled -->
<g id="edge17" class="edge">
<title>PartiallyFilled&#45;&gt;PartiallyFilled</title>
<path fill="none" stroke="red" d="M719,-364.33C730.23,-361.41 737.12,-357.05 737.12,-351.25 737.12,-347.63 734.43,-344.56 729.67,-342.06"/>
<polygon fill="red" stroke="red" points="731.02,-338.83 720.42,-338.69 728.62,-345.41 731.02,-338.83"/>
<text xml:space="preserve" text-anchor="middle" x="785.12" y="-346.2" font-family="Times,serif" font-size="14.00"> exec_partial_fill </text>
</g>
<!-- PartiallyFilled&#45;&gt;PendingCancel -->
<g id="edge18" class="edge">
<title>PartiallyFilled&#45;&gt;PendingCancel</title>
<path fill="none" stroke="red" d="M621.2,-284.15C631.26,-272.32 641.96,-260.32 652.5,-249.5 655.92,-245.99 659.48,-242.46 663.13,-238.94"/>
<polygon fill="red" stroke="red" points="665.26,-241.74 670.11,-232.33 660.45,-236.66 665.26,-241.74"/>
<text xml:space="preserve" text-anchor="middle" x="689.25" y="-252.7" font-family="Times,serif" font-size="14.00"> send_cancel </text>
</g>
<!-- PartiallyFilled&#45;&gt;PendingReplace -->
<g id="edge19" class="edge">
<title>PartiallyFilled&#45;&gt;PendingReplace</title>
<path fill="none" stroke="red" d="M550.44,-284.18C544.72,-271.62 537.38,-259.35 528,-249.5 522.92,-244.16 517.37,-239.18 511.48,-234.53"/>
<polygon fill="red" stroke="red" points="513.97,-232.01 503.86,-228.85 509.79,-237.63 513.97,-232.01"/>
<text xml:space="preserve" text-anchor="middle" x="579.54" y="-252.7" font-family="Times,serif" font-size="14.00"> send_replace </text>
</g>
<!-- PartiallyFilled&#45;&gt;Filled -->
<g id="edge16" class="edge">
<title>PartiallyFilled&#45;&gt;Filled</title>
<path fill="none" stroke="red" d="M419.26,-343.2C335.2,-331.06 235.42,-301.47 175.25,-231.5 138.82,-189.14 135.48,-122 138.01,-78.1"/>
<polygon fill="red" stroke="red" points="141.5,-78.38 138.72,-68.15 134.51,-77.88 141.5,-78.38"/>
<text xml:space="preserve" text-anchor="middle" x="202.62" y="-170.45" font-family="Times,serif" font-size="14.00"> exec_fill </text>
</g>
<!-- PartiallyFilled&#45;&gt;Canceled -->
<g id="edge21" class="edge">
<title>PartiallyFilled&#45;&gt;Canceled</title>
<path fill="none" stroke="red" d="M718.98,-331.79C768.23,-319.62 820.43,-299.44 860,-266 918.22,-216.79 877.19,-161.77 934.5,-111.5 988.09,-64.5 1071.12,-46.05 1122.38,-38.91"/>
<polygon fill="red" stroke="red" points="1122.78,-42.38 1132.25,-37.63 1121.89,-35.44 1122.78,-42.38"/>
<text xml:space="preserve" text-anchor="middle" x="974.25" y="-170.45" font-family="Times,serif" font-size="14.00"> exec_expired </text>
</g>
<!-- PartiallyFilled&#45;&gt;DoneForDay -->
<g id="edge20" class="edge">
<title>PartiallyFilled&#45;&gt;DoneForDay</title>
<path fill="none" stroke="red" d="M718.76,-326.23C780.13,-313.14 850.75,-293.77 911,-266 922.43,-260.73 922.49,-254.58 934,-249.5 969.33,-233.91 985.6,-250.88 1019,-231.5 1025.61,-227.66 1031.81,-222.62 1037.43,-217.14"/>
<polygon fill="red" stroke="red" points="1039.86,-219.66 1044.18,-209.99 1034.77,-214.85 1039.86,-219.66"/>
<text xml:space="preserve" text-anchor="middle" x="991" y="-252.7" font-family="Times,serif" font-size="14.00"> exec_done_for_day </text>
</g>
<!-- PendingCancel&#45;&gt;New -->
<g id="edge24" class="edge">
<title>PendingCancel&#45;&gt;New</title>
<path fill="none" stroke="red" d="M854.2,-231.47C859.46,-236.96 864.14,-242.96 868,-249.5 913.96,-327.44 908.4,-375.32 862,-453 853.83,-466.68 842.62,-460.1 831,-471 796.06,-503.75 799.32,-521.88 771,-560.5 760.46,-574.88 748.95,-589.88 737.57,-604.37"/>
<polygon fill="red" stroke="red" points="734.89,-602.1 731.44,-612.12 740.39,-606.44 734.89,-602.1"/>
<text xml:space="preserve" text-anchor="middle" x="932.55" y="-439.7" font-family="Times,serif" font-size="14.00"> exec_cancel_rejected </text>
</g>
<!-- PendingCancel&#45;&gt;PartiallyFilled -->
<g id="edge23" class="edge">
<title>PendingCancel&#45;&gt;PartiallyFilled</title>
<path fill="none" stroke="red" d="M738.13,-231.49C736.43,-243.64 732.83,-255.9 726,-266 723.72,-269.37 721.26,-272.61 718.65,-275.74"/>
<polygon fill="red" stroke="red" points="716.07,-273.37 711.91,-283.11 721.24,-278.09 716.07,-273.37"/>
<text xml:space="preserve" text-anchor="middle" x="795" y="-252.7" font-family="Times,serif" font-size="14.00"> exec_cancel_rejected </text>
</g>
<!-- PendingCancel&#45;&gt;Filled -->
<g id="edge25" class="edge">
<title>PendingCancel&#45;&gt;Filled</title>
<path fill="none" stroke="red" d="M607.88,-136.84C576.62,-128.1 543.2,-119.13 512,-111.5 392.07,-82.16 248.49,-54.24 181.26,-41.59"/>
<polygon fill="red" stroke="red" points="181.96,-38.16 171.48,-39.76 180.67,-45.04 181.96,-38.16"/>
<text xml:space="preserve" text-anchor="middle" x="489.5" y="-88.2" font-family="Times,serif" font-size="14.00"> exec_fill </text>
</g>
<!-- PendingCancel&#45;&gt;Canceled -->
<g id="edge22" class="edge">
<title>PendingCancel&#45;&gt;Canceled</title>
<path fill="none" stroke="red" d="M764.43,-119.75C773.91,-106.38 785.71,-93.49 799.75,-85 853.13,-52.71 1035.96,-40.39 1122.24,-36.29"/>
<polygon fill="red" stroke="red" points="1122.16,-39.8 1131.99,-35.85 1121.84,-32.8 1122.16,-39.8"/>
<text xml:space="preserve" text-anchor="middle" x="842.88" y="-88.2" font-family="Times,serif" font-size="14.00"> exec_canceled </text>
</g>
<!-- PendingReplace&#45;&gt;New -->
<g id="edge27" class="edge">
<title>PendingReplace&#45;&gt;New</title>
<path fill="none" stroke="red" d="M277.64,-231.31C272.74,-236.92 268.43,-242.97 265,-249.5 248.82,-280.29 279.25,-533.35 301,-560.5 315.11,-578.1 414.48,-612.83 506.13,-641.96"/>
<polygon fill="red" stroke="red" points="504.94,-645.26 515.53,-644.94 507.05,-638.58 504.94,-645.26"/>
<text xml:space="preserve" text-anchor="middle" x="317.11" y="-439.7" font-family="Times,serif" font-size="14.00"> exec_replaced </text>
</g>
<!-- PendingReplace&#45;&gt;New -->
<g id="edge29" class="edge">
<title>PendingReplace&#45;&gt;New</title>
<path fill="none" stroke="red" d="M287.81,-231.39C281.17,-241.78 278.26,-253.39 282,-266 310.16,-361.03 318.98,-401.23 403.5,-453 468.85,-493.03 513.49,-425.28 575,-471 597.57,-487.78 622.15,-548.77 640.22,-602.22"/>
<polygon fill="red" stroke="red" points="636.9,-603.32 643.38,-611.7 643.54,-601.11 636.9,-603.32"/>
<text xml:space="preserve" text-anchor="middle" x="467.25" y="-439.7" font-family="Times,serif" font-size="14.00"> exec_replace_rejected </text>
</g>
<!-- PendingReplace&#45;&gt;PartiallyFilled -->
<g id="edge26" class="edge">
<title>PendingReplace&#45;&gt;PartiallyFilled</title>
<path fill="none" stroke="red" d="M292.74,-231.37C285.34,-242.6 283.44,-254.5 292.25,-266 310.94,-290.39 329.51,-275.38 359,-284 374.95,-288.67 391.54,-293.66 408.1,-298.73"/>
<polygon fill="red" stroke="red" points="406.93,-302.03 417.51,-301.63 408.99,-295.34 406.93,-302.03"/>
<text xml:space="preserve" text-anchor="middle" x="334.62" y="-252.7" font-family="Times,serif" font-size="14.00"> exec_replaced </text>
</g>
<!-- PendingReplace&#45;&gt;PartiallyFilled -->
<g id="edge28" class="edge">
<title>PendingReplace&#45;&gt;PartiallyFilled</title>
<path fill="none" stroke="red" d="M378.82,-231.19C382.6,-243.63 388.2,-256.09 396.5,-266 400.82,-271.16 405.53,-276.02 410.54,-280.62"/>
<polygon fill="red" stroke="red" points="408.22,-283.24 418.09,-287.1 412.78,-277.93 408.22,-283.24"/>
<text xml:space="preserve" text-anchor="middle" x="460.25" y="-252.7" font-family="Times,serif" font-size="14.00"> exec_replace_rejected </text>
</g>
<!-- PendingReplace&#45;&gt;Filled -->
<g id="edge30" class="edge">
<title>PendingReplace&#45;&gt;Filled</title>
<path fill="none" stroke="red" d="M281.54,-119.57C245.99,-97.74 207.09,-73.85 179.58,-56.96"/>
<polygon fill="red" stroke="red" points="181.64,-54.12 171.28,-51.87 177.97,-60.08 181.64,-54.12"/>
<text xml:space="preserve" text-anchor="middle" x="277.54" y="-88.2" font-family="Times,serif" font-size="14.00"> exec_fill </text>
</g>
<!-- Stopped&#45;&gt;PartiallyFilled -->
<g id="edge32" class="edge">
<title>Stopped&#45;&gt;PartiallyFilled</title>
<path fill="none" stroke="red" d="M517.18,-471.28C523.74,-465.7 529.83,-459.6 535,-453 540.67,-445.77 545.41,-437.54 549.39,-428.98"/>
<polygon fill="red" stroke="red" points="552.6,-430.38 553.27,-419.81 546.15,-427.65 552.6,-430.38"/>
<text xml:space="preserve" text-anchor="middle" x="592.48" y="-439.7" font-family="Times,serif" font-size="14.00"> exec_partial_fill </text>
</g>
<!-- Stopped&#45;&gt;Filled -->
<g id="edge31" class="edge">
<title>Stopped&#45;&gt;Filled</title>
<path fill="none" stroke="red" d="M309.66,-499.21C250.1,-489.34 188.05,-474.33 168,-453 114.24,-395.8 133.3,-180 133,-101.5 132.97,-94.17 132.28,-92.3 133,-85 133.22,-82.8 133.48,-80.55 133.79,-78.29"/>
<polygon fill="red" stroke="red" points="137.24,-78.88 135.36,-68.45 130.33,-77.78 137.24,-78.88"/>
<text xml:space="preserve" text-anchor="middle" x="157.44" y="-252.7" font-family="Times,serif" font-size="14.00"> exec_fill </text>
</g>
<!-- Suspended&#45;&gt;New -->
<g id="edge34" class="edge">
<title>Suspended&#45;&gt;New</title>
<path fill="none" stroke="red" d="M840.5,-554.44C828.47,-562.07 816.18,-570.28 805,-578.5 795.99,-585.13 794.59,-587.83 786,-595 781.66,-598.62 777.22,-602.3 772.73,-606.01"/>
<polygon fill="red" stroke="red" points="770.7,-603.14 765.19,-612.19 775.14,-608.55 770.7,-603.14"/>
<text xml:space="preserve" text-anchor="middle" x="845.5" y="-581.7" font-family="Times,serif" font-size="14.00"> exec_restated </text>
</g>
<!-- Suspended&#45;&gt;PartiallyFilled -->
<g id="edge33" class="edge">
<title>Suspended&#45;&gt;PartiallyFilled</title>
<path fill="none" stroke="red" d="M840.55,-485.09C821.07,-475.48 799.85,-464.35 781,-453 770.22,-446.51 768.91,-442.76 758,-436.5 748.65,-431.14 738.9,-425.87 728.96,-420.76"/>
<polygon fill="red" stroke="red" points="730.83,-417.78 720.33,-416.39 727.67,-424.03 730.83,-417.78"/>
<text xml:space="preserve" text-anchor="middle" x="821.5" y="-439.7" font-family="Times,serif" font-size="14.00"> exec_restated </text>
</g>
<!-- Suspended&#45;&gt;Canceled -->
<g id="edge35" class="edge">
<title>Suspended&#45;&gt;Canceled</title>
<path fill="none" stroke="red" d="M969.25,-478.79C979.66,-471.16 989.73,-462.5 998,-453 1063.88,-377.32 1030.44,-325.67 1095.75,-249.5 1104.96,-238.76 1114.02,-243.18 1122,-231.5 1153.52,-185.38 1163.63,-120.53 1166.77,-78.02"/>
<polygon fill="red" stroke="red" points="1170.25,-78.37 1167.38,-68.17 1163.27,-77.93 1170.25,-78.37"/>
<text xml:space="preserve" text-anchor="middle" x="1138.88" y="-252.7" font-family="Times,serif" font-size="14.00"> exec_canceled </text>
</g>
</g>
</svg>
