<?xml version="1.0" encoding="UTF-8" standalone="no"?>
<!DOCTYPE svg PUBLIC "-//W3C//DTD SVG 1.1//EN"
 "http://www.w3.org/Graphics/SVG/1.1/DTD/svg11.dtd">
<!-- Generated by graphviz version 14.1.5 (20260411.2331)
 -->
<!-- Title: FixSellSide Pages: 1 -->
<svg width="803pt" height="720pt"
 viewBox="0.00 0.00 803.00 720.00" xmlns="http://www.w3.org/2000/svg" xmlns:xlink="http://www.w3.org/1999/xlink">
<g id="graph0" class="graph" transform="scale(1 1) rotate(0) translate(4 715.65)">
<title>FixSellSide</title>
<polygon fill="white" stroke="none" points="-4,4 -4,-715.65 798.97,-715.65 798.97,4 -4,4"/>
<g id="clust1" class="cluster">
<title>cluster_BookActive</title>
<path fill="none" stroke="black" d="M20,-122.75C20,-122.75 422,-122.75 422,-122.75 428,-122.75 434,-128.75 434,-134.75 434,-134.75 434,-396.75 434,-396.75 434,-402.75 428,-408.75 422,-408.75 422,-408.75 20,-408.75 20,-408.75 14,-408.75 8,-402.75 8,-396.75 8,-396.75 8,-134.75 8,-134.75 8,-128.75 14,-122.75 20,-122.75"/>
<text xml:space="preserve" text-anchor="start" x="188.38" y="-388" font-family="Times,serif" font-size="14.00">BookActive</text>
<polygon fill="black" stroke="black" points="184.38,-381.25 184.38,-381.25 257.62,-381.25 257.62,-381.25 184.38,-381.25"/>
</g>
<!-- Entry -->
<g id="node1" class="node">
<title>Entry</title>
<ellipse fill="black" stroke="#00688b" cx="504" cy="-704.45" rx="7.2" ry="7.2"/>
</g>
<!-- NoOrder -->
<g id="node2" class="node">
<title>NoOrder</title>
<path fill="azure" stroke="none" d="M654.5,-660.25C654.5,-660.25 353.5,-660.25 353.5,-660.25 347.5,-660.25 341.5,-654.25 341.5,-648.25 341.5,-648.25 341.5,-594 341.5,-594 341.5,-588 347.5,-582 353.5,-582 353.5,-582 654.5,-582 654.5,-582 660.5,-582 666.5,-588 666.5,-594 666.5,-594 666.5,-648.25 666.5,-648.25 666.5,-654.25 660.5,-660.25 654.5,-660.25"/>
<text xml:space="preserve" text-anchor="start" x="477.38" y="-639.95" font-family="Times,serif" font-weight="bold" font-size="14.00">NoOrder</text>
<text xml:space="preserve" text-anchor="start" x="349.5" y="-614.75" font-family="Times,serif" font-size="10.00">new_order(cl_ord_id: str, symbol: str, side: str, qty: float, price: float, tif: str)</text>
<text xml:space="preserve" text-anchor="start" x="349.5" y="-603.5" font-family="Times,serif" font-size="10.00">status()</text>
<text xml:space="preserve" text-anchor="start" x="490.5" y="-592.25" font-family="Times,serif" font-size="10.00"> &#160;&#160;&#160;&#160;&#160;&#160;&#160;&#160;&#160;&#160;&#160;</text>
<polygon fill="#00688b" stroke="#00688b" points="341.5,-629.75 341.5,-629.75 666.5,-629.75 666.5,-629.75 341.5,-629.75"/>
<path fill="none" stroke="#00688b" d="M353.5,-582C353.5,-582 654.5,-582 654.5,-582 660.5,-582 666.5,-588 666.5,-594 666.5,-594 666.5,-648.25 666.5,-648.25 666.5,-654.25 660.5,-660.25 654.5,-660.25 654.5,-660.25 353.5,-660.25 353.5,-660.25 347.5,-660.25 341.5,-654.25 341.5,-648.25 341.5,-648.25 341.5,-594 341.5,-594 341.5,-588 347.5,-582 353.5,-582"/>
</g>
<!-- Entry&#45;&gt;NoOrder -->
<g id="edge1" class="edge">
<title>Entry&#45;&gt;NoOrder</title>
<path fill="none" stroke="red" d="M504,-696.79C504,-690.78 504,-681.32 504,-671.13"/>
<polygon fill="red" stroke="red" points="507.5,-671.44 504,-661.44 500.5,-671.44 507.5,-671.44"/>
</g>
<!-- Accepting -->
<g id="node3" class="node">
<title>Accepting</title>
<path fill="azure" stroke="none" d="M484.88,-523.88C484.88,-523.88 435.12,-523.88 435.12,-523.88 429.12,-523.88 423.12,-517.88 423.12,-511.88 423.12,-511.88 423.12,-468.88 423.12,-468.88 423.12,-462.88 429.12,-456.88 435.12,-456.88 435.12,-456.88 484.88,-456.88 484.88,-456.88 490.88,-456.88 496.88,-462.88 496.88,-468.88 496.88,-468.88 496.88,-511.88 496.88,-511.88 496.88,-517.88 490.88,-523.88 484.88,-523.88"/>
<text xml:space="preserve" text-anchor="start" x="431.12" y="-503.57" font-family="Times,serif" font-weight="bold" font-size="14.00">Accepting</text>
<text xml:space="preserve" text-anchor="start" x="431.12" y="-478.38" font-family="Times,serif" font-size="10.00">$&gt;()</text>
<text xml:space="preserve" text-anchor="start" x="431.12" y="-467.12" font-family="Times,serif" font-size="10.00"> &#160;&#160;&#160;&#160;&#160;&#160;&#160;&#160;&#160;&#160;&#160;</text>
<polygon fill="#00688b" stroke="#00688b" points="423.12,-493.38 423.12,-493.38 496.88,-493.38 496.88,-493.38 423.12,-493.38"/>
<path fill="none" stroke="#00688b" d="M435.12,-456.88C435.12,-456.88 484.88,-456.88 484.88,-456.88 490.88,-456.88 496.88,-462.88 496.88,-468.88 496.88,-468.88 496.88,-511.88 496.88,-511.88 496.88,-517.88 490.88,-523.88 484.88,-523.88 484.88,-523.88 435.12,-523.88 435.12,-523.88 429.12,-523.88 423.12,-517.88 423.12,-511.88 423.12,-511.88 423.12,-468.88 423.12,-468.88 423.12,-462.88 429.12,-456.88 435.12,-456.88"/>
</g>
<!-- NoOrder&#45;&gt;Accepting -->
<g id="edge3" class="edge">
<title>NoOrder&#45;&gt;Accepting</title>
<path fill="none" stroke="red" d="M475.1,-582.21C471.71,-576.36 468.68,-570.19 466.5,-564 463.26,-554.82 461.38,-544.6 460.34,-534.8"/>
<polygon fill="red" stroke="red" points="463.85,-534.77 459.58,-525.07 456.87,-535.31 463.85,-534.77"/>
<text xml:space="preserve" text-anchor="middle" x="492.75" y="-550.7" font-family="Times,serif" font-size="14.00"> evaluate </text>
</g>
<!-- Rejected -->
<g id="node10" class="node">
<title>Rejected</title>
<path fill="azure" stroke="none" d="M569.12,-529.5C569.12,-529.5 526.88,-529.5 526.88,-529.5 520.88,-529.5 514.88,-523.5 514.88,-517.5 514.88,-517.5 514.88,-463.25 514.88,-463.25 514.88,-457.25 520.88,-451.25 526.88,-451.25 526.88,-451.25 569.12,-451.25 569.12,-451.25 575.12,-451.25 581.12,-457.25 581.12,-463.25 581.12,-463.25 581.12,-517.5 581.12,-517.5 581.12,-523.5 575.12,-529.5 569.12,-529.5"/>
<text xml:space="preserve" text-anchor="start" x="522.88" y="-509.2" font-family="Times,serif" font-weight="bold" font-size="14.00">Rejected</text>
<text xml:space="preserve" text-anchor="start" x="522.88" y="-484" font-family="Times,serif" font-size="10.00">$&gt;()</text>
<text xml:space="preserve" text-anchor="start" x="522.88" y="-472.75" font-family="Times,serif" font-size="10.00">status()</text>
<text xml:space="preserve" text-anchor="start" x="524" y="-461.5" font-family="Times,serif" font-size="10.00"> &#160;&#160;&#160;&#160;&#160;&#160;&#160;&#160;&#160;&#160;&#160;</text>
<polygon fill="#00688b" stroke="#00688b" points="514.88,-499 514.88,-499 581.12,-499 581.12,-499 514.88,-499"/>
<path fill="none" stroke="#00688b" d="M526.88,-451.25C526.88,-451.25 569.12,-451.25 569.12,-451.25 575.12,-451.25 581.12,-457.25 581.12,-463.25 581.12,-463.25 581.12,-517.5 581.12,-517.5 581.12,-523.5 575.12,-529.5 569.12,-529.5 569.12,-529.5 526.88,-529.5 526.88,-529.5 520.88,-529.5 514.88,-523.5 514.88,-517.5 514.88,-517.5 514.88,-463.25 514.88,-463.25 514.88,-457.25 520.88,-451.25 526.88,-451.25"/>
</g>
<!-- NoOrder&#45;&gt;Rejected -->
<g id="edge2" class="edge">
<title>NoOrder&#45;&gt;Rejected</title>
<path fill="none" stroke="red" d="M516.96,-582.19C521.44,-569.08 526.53,-554.2 531.27,-540.33"/>
<polygon fill="red" stroke="red" points="534.57,-541.51 534.49,-530.91 527.94,-539.24 534.57,-541.51"/>
<text xml:space="preserve" text-anchor="middle" x="551.13" y="-550.7" font-family="Times,serif" font-size="14.00"> invalid </text>
</g>
<!-- Working -->
<g id="node5" class="node">
<title>Working</title>
<path fill="azure" stroke="none" d="M413.88,-362.25C413.88,-362.25 46.12,-362.25 46.12,-362.25 40.12,-362.25 34.12,-356.25 34.12,-350.25 34.12,-350.25 34.12,-273.5 34.12,-273.5 34.12,-267.5 40.12,-261.5 46.12,-261.5 46.12,-261.5 413.88,-261.5 413.88,-261.5 419.88,-261.5 425.88,-267.5 425.88,-273.5 425.88,-273.5 425.88,-350.25 425.88,-350.25 425.88,-356.25 419.88,-362.25 413.88,-362.25"/>
<text xml:space="preserve" text-anchor="start" x="204.12" y="-341.95" font-family="Times,serif" font-weight="bold" font-size="14.00">Working</text>
<text xml:space="preserve" text-anchor="start" x="42.12" y="-316.75" font-family="Times,serif" font-size="10.00">$&gt;()</text>
<text xml:space="preserve" text-anchor="start" x="42.12" y="-305.5" font-family="Times,serif" font-size="10.00">market_fill(fill_qty: float, fill_px: float)</text>
<text xml:space="preserve" text-anchor="start" x="42.12" y="-294.25" font-family="Times,serif" font-size="10.00">cancel_request(cancel_cl_ord_id: str, orig_cl_ord_id: str)</text>
<text xml:space="preserve" text-anchor="start" x="42.12" y="-283" font-family="Times,serif" font-size="10.00">replace_request(replace_cl_ord_id: str, orig_cl_ord_id: str, new_qty: float, new_price: float)</text>
<text xml:space="preserve" text-anchor="start" x="212" y="-271.75" font-family="Times,serif" font-size="10.00"> &#160;&#160;&#160;&#160;&#160;&#160;&#160;&#160;&#160;&#160;&#160;&#160;&#160;&#160;&#160;</text>
<polygon fill="#00688b" stroke="#00688b" points="34.12,-331.75 34.12,-331.75 425.88,-331.75 425.88,-331.75 34.12,-331.75"/>
<path fill="none" stroke="#00688b" d="M46.12,-261.5C46.12,-261.5 413.88,-261.5 413.88,-261.5 419.88,-261.5 425.88,-267.5 425.88,-273.5 425.88,-273.5 425.88,-350.25 425.88,-350.25 425.88,-356.25 419.88,-362.25 413.88,-362.25 413.88,-362.25 46.12,-362.25 46.12,-362.25 40.12,-362.25 34.12,-356.25 34.12,-350.25 34.12,-350.25 34.12,-273.5 34.12,-273.5 34.12,-267.5 40.12,-261.5 46.12,-261.5"/>
</g>
<!-- Accepting&#45;&gt;Working -->
<g id="edge7" class="edge">
<title>Accepting&#45;&gt;Working</title>
<path fill="none" stroke="red" d="M423.36,-483.06C389.87,-475.77 340.45,-461.02 306,-433.25 285.73,-416.9 269.27,-393.62 256.92,-371.88"/>
<polygon fill="red" stroke="red" points="260.13,-370.46 252.26,-363.36 253.99,-373.82 260.13,-370.46"/>
<text xml:space="preserve" text-anchor="middle" x="327" y="-419.95" font-family="Times,serif" font-size="14.00"> partial </text>
</g>
<!-- Accepting&#45;&gt;Working -->
<g id="edge9" class="edge">
<title>Accepting&#45;&gt;Working</title>
<path fill="none" stroke="red" d="M423.27,-467.86C406.91,-457.86 387.62,-445.49 371,-433.25 344.45,-413.7 316.58,-390.53 292.69,-369.76"/>
<polygon fill="red" stroke="red" points="295.05,-367.17 285.22,-363.22 290.44,-372.44 295.05,-367.17"/>
<text xml:space="preserve" text-anchor="middle" x="408.5" y="-419.95" font-family="Times,serif" font-size="14.00"> rest on book </text>
</g>
<!-- Accepting&#45;&gt;Working -->
<g id="edge10" class="edge">
<title>Accepting&#45;&gt;Working</title>
<path fill="none" stroke="red" d="M423.16,-485.81C364.45,-479.29 253.86,-463.26 230.25,-433.25 217.17,-416.62 214.39,-394.32 215.82,-373.43"/>
<polygon fill="red" stroke="red" points="219.3,-373.82 216.85,-363.52 212.34,-373.1 219.3,-373.82"/>
<text xml:space="preserve" text-anchor="middle" x="257.62" y="-419.95" font-family="Times,serif" font-size="14.00"> accepted </text>
</g>
<!-- Filled -->
<g id="node8" class="node">
<title>Filled</title>
<path fill="azure" stroke="none" d="M287,-78.25C287,-78.25 257,-78.25 257,-78.25 251,-78.25 245,-72.25 245,-66.25 245,-66.25 245,-12 245,-12 245,-6 251,0 257,0 257,0 287,0 287,0 293,0 299,-6 299,-12 299,-12 299,-66.25 299,-66.25 299,-72.25 293,-78.25 287,-78.25"/>
<text xml:space="preserve" text-anchor="start" x="255.5" y="-57.95" font-family="Times,serif" font-weight="bold" font-size="14.00">Filled</text>
<text xml:space="preserve" text-anchor="start" x="255.5" y="-32.75" font-family="Times,serif" font-size="10.00">$&gt;()</text>
<text xml:space="preserve" text-anchor="start" x="255.5" y="-21.5" font-family="Times,serif" font-size="10.00">status()</text>
<text xml:space="preserve" text-anchor="start" x="256.62" y="-10.25" font-family="Times,serif" font-size="10.00"> &#160;&#160;&#160;&#160;&#160;&#160;&#160;&#160;&#160;&#160;&#160;</text>
<polygon fill="#00688b" stroke="#00688b" points="247.5,-47.75 247.5,-47.75 296.5,-47.75 296.5,-47.75 247.5,-47.75"/>
<path fill="none" stroke="#00688b" d="M259.5,0C259.5,0 284.5,0 284.5,0 290.5,0 296.5,-6 296.5,-12 296.5,-12 296.5,-66.25 296.5,-66.25 296.5,-72.25 290.5,-78.25 284.5,-78.25 284.5,-78.25 259.5,-78.25 259.5,-78.25 253.5,-78.25 247.5,-72.25 247.5,-66.25 247.5,-66.25 247.5,-12 247.5,-12 247.5,-6 253.5,0 259.5,0"/>
</g>
<!-- Accepting&#45;&gt;Filled -->
<g id="edge5" class="edge">
<title>Accepting&#45;&gt;Filled</title>
<path fill="none" stroke="red" d="M463.43,-456.97C471.59,-373.26 488.46,-152.44 446,-96.25 414.39,-54.42 351.12,-43.2 310.21,-40.51"/>
<polygon fill="red" stroke="red" points="310.48,-37.02 300.32,-40.02 310.13,-44.01 310.48,-37.02"/>
<text xml:space="preserve" text-anchor="middle" x="491.38" y="-230.2" font-family="Times,serif" font-size="14.00"> filled </text>
</g>
<!-- Canceled -->
<g id="node9" class="node">
<title>Canceled</title>
<path fill="azure" stroke="none" d="M597.62,-78.25C597.62,-78.25 552.38,-78.25 552.38,-78.25 546.38,-78.25 540.38,-72.25 540.38,-66.25 540.38,-66.25 540.38,-12 540.38,-12 540.38,-6 546.38,0 552.38,0 552.38,0 597.62,0 597.62,0 603.62,0 609.62,-6 609.62,-12 609.62,-12 609.62,-66.25 609.62,-66.25 609.62,-72.25 603.62,-78.25 597.62,-78.25"/>
<text xml:space="preserve" text-anchor="start" x="548.38" y="-57.95" font-family="Times,serif" font-weight="bold" font-size="14.00">Canceled</text>
<text xml:space="preserve" text-anchor="start" x="548.38" y="-32.75" font-family="Times,serif" font-size="10.00">$&gt;()</text>
<text xml:space="preserve" text-anchor="start" x="548.38" y="-21.5" font-family="Times,serif" font-size="10.00">status()</text>
<text xml:space="preserve" text-anchor="start" x="549.5" y="-10.25" font-family="Times,serif" font-size="10.00"> &#160;&#160;&#160;&#160;&#160;&#160;&#160;&#160;&#160;&#160;&#160;</text>
<polygon fill="#00688b" stroke="#00688b" points="540.38,-47.75 540.38,-47.75 609.62,-47.75 609.62,-47.75 540.38,-47.75"/>
<path fill="none" stroke="#00688b" d="M552.38,0C552.38,0 597.62,0 597.62,0 603.62,0 609.62,-6 609.62,-12 609.62,-12 609.62,-66.25 609.62,-66.25 609.62,-72.25 603.62,-78.25 597.62,-78.25 597.62,-78.25 552.38,-78.25 552.38,-78.25 546.38,-78.25 540.38,-72.25 540.38,-66.25 540.38,-66.25 540.38,-12 540.38,-12 540.38,-6 546.38,0 552.38,0"/>
</g>
<!-- Accepting&#45;&gt;Canceled -->
<g id="edge4" class="edge">
<title>Accepting&#45;&gt;Canceled</title>
<path fill="none" stroke="red" d="M495.4,-456.94C498.83,-454.77 502.39,-452.82 506,-451.25 563.54,-426.25 598.06,-473.71 646,-433.25 713.39,-376.37 690.97,-330.72 704,-243.5 713.6,-179.25 648.92,-100.02 646,-96.25 638.26,-86.27 628.38,-77.02 618.46,-69.03"/>
<polygon fill="red" stroke="red" points="620.67,-66.31 610.61,-62.99 616.4,-71.86 620.67,-66.31"/>
<text xml:space="preserve" text-anchor="middle" x="749.97" y="-230.2" font-family="Times,serif" font-size="14.00"> FOK unfillable </text>
</g>
<!-- Accepting&#45;&gt;Canceled -->
<g id="edge6" class="edge">
<title>Accepting&#45;&gt;Canceled</title>
<path fill="none" stroke="red" d="M468.21,-457.06C470.14,-449.27 472.18,-440.97 474,-433.25 495.59,-341.85 496.51,-317.93 520,-227 532.2,-179.76 548.12,-126.42 559.69,-88.86"/>
<polygon fill="red" stroke="red" points="562.92,-90.25 562.53,-79.66 556.23,-88.18 562.92,-90.25"/>
<text xml:space="preserve" text-anchor="middle" x="565" y="-230.2" font-family="Times,serif" font-size="14.00"> IOC remainder </text>
</g>
<!-- Accepting&#45;&gt;Canceled -->
<g id="edge8" class="edge">
<title>Accepting&#45;&gt;Canceled</title>
<path fill="none" stroke="red" d="M487.82,-457.17C524.22,-412.67 586.2,-328.23 610,-243.5 624.59,-191.57 609.92,-130.39 595.35,-88.79"/>
<polygon fill="red" stroke="red" points="598.7,-87.75 591.99,-79.55 592.12,-90.14 598.7,-87.75"/>
<text xml:space="preserve" text-anchor="middle" x="648.54" y="-230.2" font-family="Times,serif" font-size="14.00"> no liquidity </text>
</g>
<!-- BookActive -->
<g id="node4" class="node">
<title>BookActive</title>
<ellipse fill="azure" stroke="#00688b" cx="16" cy="-311.88" rx="0.36" ry="0.36"/>
</g>
<!-- PendingCancel -->
<g id="node6" class="node">
<title>PendingCancel</title>
<path fill="azure" stroke="none" d="M414,-209C414,-209 260,-209 260,-209 254,-209 248,-203 248,-197 248,-197 248,-142.75 248,-142.75 248,-136.75 254,-130.75 260,-130.75 260,-130.75 414,-130.75 414,-130.75 420,-130.75 426,-136.75 426,-142.75 426,-142.75 426,-197 426,-197 426,-203 420,-209 414,-209"/>
<text xml:space="preserve" text-anchor="start" x="293.5" y="-188.7" font-family="Times,serif" font-weight="bold" font-size="14.00">PendingCancel</text>
<text xml:space="preserve" text-anchor="start" x="256" y="-163.5" font-family="Times,serif" font-size="10.00">$&gt;()</text>
<text xml:space="preserve" text-anchor="start" x="256" y="-152.25" font-family="Times,serif" font-size="10.00">market_fill(fill_qty: float, fill_px: float)</text>
<text xml:space="preserve" text-anchor="start" x="319" y="-141" font-family="Times,serif" font-size="10.00"> &#160;&#160;&#160;&#160;&#160;&#160;&#160;&#160;&#160;&#160;&#160;&#160;&#160;&#160;&#160;</text>
<polygon fill="#00688b" stroke="#00688b" points="248,-178.5 248,-178.5 426,-178.5 426,-178.5 248,-178.5"/>
<path fill="none" stroke="#00688b" d="M260,-130.75C260,-130.75 414,-130.75 414,-130.75 420,-130.75 426,-136.75 426,-142.75 426,-142.75 426,-197 426,-197 426,-203 420,-209 414,-209 414,-209 260,-209 260,-209 254,-209 248,-203 248,-197 248,-197 248,-142.75 248,-142.75 248,-136.75 254,-130.75 260,-130.75"/>
</g>
<!-- Working&#45;&gt;PendingCancel -->
<g id="edge12" class="edge">
<title>Working&#45;&gt;PendingCancel</title>
<path fill="none" stroke="red" d="M286.81,-261.66C292.25,-255.81 297.44,-249.71 302,-243.5 307.48,-236.04 312.46,-227.59 316.84,-219.16"/>
<polygon fill="red" stroke="red" points="319.92,-220.83 321.21,-210.31 313.65,-217.73 319.92,-220.83"/>
<text xml:space="preserve" text-anchor="middle" x="355.46" y="-230.2" font-family="Times,serif" font-size="14.00"> cancel_request </text>
</g>
<!-- PendingReplace -->
<g id="node7" class="node">
<title>PendingReplace</title>
<path fill="azure" stroke="none" d="M217.5,-203.38C217.5,-203.38 132.5,-203.38 132.5,-203.38 126.5,-203.38 120.5,-197.38 120.5,-191.38 120.5,-191.38 120.5,-148.38 120.5,-148.38 120.5,-142.38 126.5,-136.38 132.5,-136.38 132.5,-136.38 217.5,-136.38 217.5,-136.38 223.5,-136.38 229.5,-142.38 229.5,-148.38 229.5,-148.38 229.5,-191.38 229.5,-191.38 229.5,-197.38 223.5,-203.38 217.5,-203.38"/>
<text xml:space="preserve" text-anchor="start" x="128.5" y="-183.07" font-family="Times,serif" font-weight="bold" font-size="14.00">PendingReplace</text>
<text xml:space="preserve" text-anchor="start" x="128.5" y="-157.88" font-family="Times,serif" font-size="10.00">$&gt;()</text>
<text xml:space="preserve" text-anchor="start" x="128.5" y="-146.62" font-family="Times,serif" font-size="10.00"> &#160;&#160;&#160;&#160;&#160;&#160;&#160;&#160;&#160;&#160;&#160;&#160;&#160;&#160;&#160;</text>
<polygon fill="#00688b" stroke="#00688b" points="120.5,-172.88 120.5,-172.88 229.5,-172.88 229.5,-172.88 120.5,-172.88"/>
<path fill="none" stroke="#00688b" d="M132.5,-136.38C132.5,-136.38 217.5,-136.38 217.5,-136.38 223.5,-136.38 229.5,-142.38 229.5,-148.38 229.5,-148.38 229.5,-191.38 229.5,-191.38 229.5,-197.38 223.5,-203.38 217.5,-203.38 217.5,-203.38 132.5,-203.38 132.5,-203.38 126.5,-203.38 120.5,-197.38 120.5,-191.38 120.5,-191.38 120.5,-148.38 120.5,-148.38 120.5,-142.38 126.5,-136.38 132.5,-136.38"/>
</g>
<!-- Working&#45;&gt;PendingReplace -->
<g id="edge13" class="edge">
<title>Working&#45;&gt;PendingReplace</title>
<path fill="none" stroke="red" d="M98.96,-261.72C93.2,-256.26 88.05,-250.21 83.75,-243.5 71.29,-224.04 88.07,-207.5 110.5,-195.14"/>
<polygon fill="red" stroke="red" points="112.07,-198.27 119.4,-190.62 108.9,-192.03 112.07,-198.27"/>
<text xml:space="preserve" text-anchor="middle" x="129.88" y="-230.2" font-family="Times,serif" font-size="14.00"> replace_request </text>
</g>
<!-- Working&#45;&gt;Filled -->
<g id="edge11" class="edge">
<title>Working&#45;&gt;Filled</title>
<path fill="none" stroke="red" d="M91.45,-261.72C85.62,-256.27 80.39,-250.22 76,-243.5 46.63,-198.59 46.32,-167.47 76,-122.75 111.13,-69.82 187.55,-50.72 233.91,-43.88"/>
<polygon fill="red" stroke="red" points="234.33,-47.35 243.78,-42.56 233.41,-40.41 234.33,-47.35"/>
<text xml:space="preserve" text-anchor="middle" x="94" y="-164.82" font-family="Times,serif" font-size="14.00"> filled </text>
</g>
<!-- PendingCancel&#45;&gt;Filled -->
<g id="edge14" class="edge">
<title>PendingCancel&#45;&gt;Filled</title>
<path fill="none" stroke="red" d="M285.53,-130.96C280.73,-125.39 276.53,-119.29 273.5,-112.75 270.15,-105.52 268.36,-97.43 267.57,-89.35"/>
<polygon fill="red" stroke="red" points="271.07,-89.36 267.12,-79.53 264.08,-89.68 271.07,-89.36"/>
<text xml:space="preserve" text-anchor="middle" x="316.25" y="-99.45" font-family="Times,serif" font-size="14.00"> fill supersedes </text>
</g>
<!-- PendingCancel&#45;&gt;Canceled -->
<g id="edge15" class="edge">
<title>PendingCancel&#45;&gt;Canceled</title>
<path fill="none" stroke="red" d="M387.05,-130.81C403.8,-118.95 422.89,-106.35 441.25,-96.25 469.76,-80.57 503.56,-66.42 530.05,-56.25"/>
<polygon fill="red" stroke="red" points="531.01,-59.63 539.13,-52.82 528.54,-53.08 531.01,-59.63"/>
<text xml:space="preserve" text-anchor="middle" x="473.12" y="-99.45" font-family="Times,serif" font-size="14.00"> confirmed </text>
</g>
<!-- PendingReplace&#45;&gt;Working -->
<g id="edge16" class="edge">
<title>PendingReplace&#45;&gt;Working</title>
<path fill="none" stroke="red" d="M184.71,-203.34C188.73,-215.99 193.65,-230.54 198.75,-243.5 199.78,-246.12 200.87,-248.79 201.99,-251.48"/>
<polygon fill="red" stroke="red" points="198.69,-252.66 205.85,-260.47 205.12,-249.9 198.69,-252.66"/>
<text xml:space="preserve" text-anchor="middle" x="222.38" y="-230.2" font-family="Times,serif" font-size="14.00"> resume </text>
</g>
<!-- PendingReplace&#45;&gt;Working -->
<g id="edge17" class="edge">
<title>PendingReplace&#45;&gt;Working</title>
<path fill="none" stroke="red" d="M227.86,-203.28C235.2,-210.17 241.69,-218.09 246,-227 249.51,-234.25 250.81,-242.21 250.68,-250.25"/>
<polygon fill="red" stroke="red" points="247.2,-249.8 249.76,-260.08 254.17,-250.45 247.2,-249.8"/>
<text xml:space="preserve" text-anchor="middle" x="273.91" y="-230.2" font-family="Times,serif" font-size="14.00"> resume </text>
</g>
</g>
</svg>
