<?xml version="1.0" encoding="UTF-8" standalone="no"?>
<!DOCTYPE svg PUBLIC "-//W3C//DTD SVG 1.1//EN"
 "http://www.w3.org/Graphics/SVG/1.1/DTD/svg11.dtd">
<!-- Generated by graphviz version 14.1.5 (20260411.2331)
 -->
<!-- Title: FixSellSide Pages: 1 -->
<svg width="675pt" height="720pt"
 viewBox="0.00 0.00 675.00 720.00" xmlns="http://www.w3.org/2000/svg" xmlns:xlink="http://www.w3.org/1999/xlink">
<g id="graph0" class="graph" transform="scale(1 1) rotate(0) translate(4 715.65)">
<title>FixSellSide</title>
<polygon fill="white" stroke="none" points="-4,4 -4,-715.65 670.5,-715.65 670.5,4 -4,4"/>
<g id="clust1" class="cluster">
<title>cluster_BookActive</title>
<path fill="none" stroke="black" d="M20,-122.75C20,-122.75 422,-122.75 422,-122.75 428,-122.75 434,-128.75 434,-134.75 434,-134.75 434,-396.75 434,-396.75 434,-402.75 428,-408.75 422,-408.75 422,-408.75 20,-408.75 20,-408.75 14,-408.75 8,-402.75 8,-396.75 8,-396.75 8,-134.75 8,-134.75 8,-128.75 14,-122.75 20,-122.75"/>
<text xml:space="preserve" text-anchor="start" x="188.38" y="-388" font-family="Times,serif" font-size="14.00">BookActive</text>
<polygon fill="black" stroke="black" points="184.38,-381.25 184.38,-381.25 257.62,-381.25 257.62,-381.25 184.38,-381.25"/>
</g>
<!-- Entry -->
<g id="node1" class="node">
<title>Entry</title>
<ellipse fill="black" stroke="#00688b" cx="504" cy="-704.45" rx="7.2" ry="7.2"/>
</g>
<!-- NoOrder -->
<g id="node2" class="node">
<title>NoOrder</title>
<path fill="azure" stroke="none" d="M654.5,-660.25C654.5,-660.25 353.5,-660.25 353.5,-660.25 347.5,-660.25 341.5,-654.25 341.5,-648.25 341.5,-648.25 341.5,-594 341.5,-594 341.5,-588 347.5,-582 353.5,-582 353.5,-582 654.5,-582 654.5,-582 660.5,-582 666.5,-588 666.5,-594 666.5,-594 666.5,-648.25 666.5,-648.25 666.5,-654.25 660.5,-660.25 654.5,-660.25"/>
<text xml:space="preserve" text-anchor="start" x="477.38" y="-639.95" font-family="Times,serif" font-weight="bold" font-size="14.00">NoOrder</text>
<text xml:space="preserve" text-anchor="start" x="349.5" y="-614.75" font-family="Times,serif" font-size="10.00">new_order(cl_ord_id: str, symbol: str, side: str, qty: float, price: float, tif: str)</text>
<text xml:space="preserve" text-anchor="start" x="349.5" y="-603.5" font-family="Times,serif" font-size="10.00">status()</text>
<text xml:space="preserve" text-anchor="start" x="490.5" y="-592.25" font-family="Times,serif" font-size="10.00"> &#160;&#160;&#160;&#160;&#160;&#160;&#160;&#160;&#160;&#160;&#160;</text>
<polygon fill="#00688b" stroke="#00688b" points="341.5,-629.75 341.5,-629.75 666.5,-629.75 666.5,-629.75 341.5,-629.75"/>
<path fill="none" stroke="#00688b" d="M353.5,-582C353.5,-582 654.5,-582 654.5,-582 660.5,-582 666.5,-588 666.5,-594 666.5,-594 666.5,-648.25 666.5,-648.25 666.5,-654.25 660.5,-660.25 654.5,-660.25 654.5,-660.25 353.5,-660.25 353.5,-660.25 347.5,-660.25 341.5,-654.25 341.5,-648.25 341.5,-648.25 341.5,-594 341.5,-594 341.5,-588 347.5,-582 353.5,-582"/>
</g>
<!-- Entry&#45;&gt;NoOrder -->
<g id="edge1" class="edge">
<title>Entry&#45;&gt;NoOrder</title>
<path fill="none" stroke="red" d="M504,-696.79C504,-690.78 504,-681.32 504,-671.13"/>
<polygon fill="red" stroke="red" points="507.5,-671.44 504,-661.44 500.5,-671.44 507.5,-671.44"/>
</g>
<!-- Accepting -->
<g id="node3" class="node">
<title>Accepting</title>
<path fill="azure" stroke="none" d="M484.88,-523.88C484.88,-523.88 435.12,-523.88 435.12,-523.88 429.12,-523.88 423.12,-517.88 423.12,-511.88 423.12,-511.88 423.12,-468.88 423.12,-468.88 423.12,-462.88 429.12,-456.88 435.12,-456.88 435.12,-456.88 484.88,-456.88 484.88,-456.88 490.88,-456.88 496.88,-462.88 496.88,-468.88 496.88,-468.88 496.88,-511.88 496.88,-511.88 496.88,-517.88 490.88,-523.88 484.88,-523.88"/>
<text xml:space="preserve" text-anchor="start" x="431.12" y="-503.57" font-family="Times,serif" font-weight="bold" font-size="14.00">Accepting</text>
<text xml:space="preserve" text-anchor="start" x="431.12" y="-478.38" font-family="Times,serif" font-size="10.00">$&gt;()</text>
<text xml:space="preserve" text-anchor="start" x="431.12" y="-467.12" font-family="Times,serif" font-size="10.00"> &#160;&#160;&#160;&#160;&#160;&#160;&#160;&#160;&#160;&#160;&#160;</text>
<polygon fill="#00688b" stroke="#00688b" points="423.12,-493.38 423.12,-493.38 496.88,-493.38 496.88,-493.38 423.12,-493.38"/>
<path fill="none" stroke="#00688b" d="M435.12,-456.88C435.12,-456.88 484.88,-456.88 484.88,-456.88 490.88,-456.88 496.88,-462.88 496.88,-468.88 496.88,-468.88 496.88,-511.88 496.88,-511.88 496.88,-517.88 490.88,-523.88 484.88,-523.88 484.88,-523.88 435.12,-523.88 435.12,-523.88 429.12,-523.88 423.12,-517.88 423.12,-511.88 423.12,-511.88 423.12,-468.88 423.12,-468.88 423.12,-462.88 429.12,-456.88 435.12,-456.88"/>
</g>
<!-- NoOrder&#45;&gt;Accepting -->
<g id="edge3" class="edge">
<title>NoOrder&#45;&gt;Accepting</title>
<path fill="none" stroke="red" d="M466.35,-582.18C462.45,-576.46 459.06,-570.34 456.75,-564 453.42,-554.88 452.39,-544.69 452.57,-534.89"/>
<polygon fill="red" stroke="red" points="456.05,-535.36 453.18,-525.16 449.06,-534.92 456.05,-535.36"/>
<text xml:space="preserve" text-anchor="middle" x="489.38" y="-550.7" font-family="Times,serif" font-size="14.00"> new_order </text>
</g>
<!-- Rejected -->
<g id="node10" class="node">
<title>Rejected</title>
<path fill="azure" stroke="none" d="M569.12,-529.5C569.12,-529.5 526.88,-529.5 526.88,-529.5 520.88,-529.5 514.88,-523.5 514.88,-517.5 514.88,-517.5 514.88,-463.25 514.88,-463.25 514.88,-457.25 520.88,-451.25 526.88,-451.25 526.88,-451.25 569.12,-451.25 569.12,-451.25 575.12,-451.25 581.12,-457.25 581.12,-463.25 581.12,-463.25 581.12,-517.5 581.12,-517.5 581.12,-523.5 575.12,-529.5 569.12,-529.5"/>
<text xml:space="preserve" text-anchor="start" x="522.88" y="-509.2" font-family="Times,serif" font-weight="bold" font-size="14.00">Rejected</text>
<text xml:space="preserve" text-anchor="start" x="522.88" y="-484" font-family="Times,serif" font-size="10.00">$&gt;()</text>
<text xml:space="preserve" text-anchor="start" x="522.88" y="-472.75" font-family="Times,serif" font-size="10.00">status()</text>
<text xml:space="preserve" text-anchor="start" x="524" y="-461.5" font-family="Times,serif" font-size="10.00"> &#160;&#160;&#160;&#160;&#160;&#160;&#160;&#160;&#160;&#160;&#160;</text>
<polygon fill="#00688b" stroke="#00688b" points="514.88,-499 514.88,-499 581.12,-499 581.12,-499 514.88,-499"/>
<path fill="none" stroke="#00688b" d="M526.88,-451.25C526.88,-451.25 569.12,-451.25 569.12,-451.25 575.12,-451.25 581.12,-457.25 581.12,-463.25 581.12,-463.25 581.12,-517.5 581.12,-517.5 581.12,-523.5 575.12,-529.5 569.12,-529.5 569.12,-529.5 526.88,-529.5 526.88,-529.5 520.88,-529.5 514.88,-523.5 514.88,-517.5 514.88,-517.5 514.88,-463.25 514.88,-463.25 514.88,-457.25 520.88,-451.25 526.88,-451.25"/>
</g>
<!-- NoOrder&#45;&gt;Rejected -->
<g id="edge2" class="edge">
<title>NoOrder&#45;&gt;Rejected</title>
<path fill="none" stroke="red" d="M519.32,-582.24C521.64,-576.17 523.94,-569.93 526,-564 528.67,-556.3 531.34,-548.08 533.84,-540.04"/>
<polygon fill="red" stroke="red" points="537.12,-541.29 536.7,-530.7 530.43,-539.24 537.12,-541.29"/>
<text xml:space="preserve" text-anchor="middle" x="563.88" y="-550.7" font-family="Times,serif" font-size="14.00"> new_order </text>
</g>
<!-- Working -->
<g id="node5" class="node">
<title>Working</title>
<path fill="azure" stroke="none" d="M413.88,-362.25C413.88,-362.25 46.12,-362.25 46.12,-362.25 40.12,-362.25 34.12,-356.25 34.12,-350.25 34.12,-350.25 34.12,-273.5 34.12,-273.5 34.12,-267.5 40.12,-261.5 46.12,-261.5 46.12,-261.5 413.88,-261.5 413.88,-261.5 419.88,-261.5 425.88,-267.5 425.88,-273.5 425.88,-273.5 425.88,-350.25 425.88,-350.25 425.88,-356.25 419.88,-362.25 413.88,-362.25"/>
<text xml:space="preserve" text-anchor="start" x="204.12" y="-341.95" font-family="Times,serif" font-weight="bold" font-size="14.00">Working</text>
<text xml:space="preserve" text-anchor="start" x="42.12" y="-316.75" font-family="Times,serif" font-size="10.00">$&gt;()</text>
<text xml:space="preserve" text-anchor="start" x="42.12" y="-305.5" font-family="Times,serif" font-size="10.00">market_fill(fill_qty: float, fill_px: float)</text>
<text xml:space="preserve" text-anchor="start" x="42.12" y="-294.25" font-family="Times,serif" font-size="10.00">cancel_request(cancel_cl_ord_id: str, orig_cl_ord_id: str)</text>
<text xml:space="preserve" text-anchor="start" x="42.12" y="-283" font-family="Times,serif" font-size="10.00">replace_request(replace_cl_ord_id: str, orig_cl_ord_id: str, new_qty: float, new_price: float)</text>
<text xml:space="preserve" text-anchor="start" x="212" y="-271.75" font-family="Times,serif" font-size="10.00"> &#160;&#160;&#160;&#160;&#160;&#160;&#160;&#160;&#160;&#160;&#160;&#160;&#160;&#160;&#160;</text>
<polygon fill="#00688b" stroke="#00688b" points="34.12,-331.75 34.12,-331.75 425.88,-331.75 425.88,-331.75 34.12,-331.75"/>
<path fill="none" stroke="#00688b" d="M46.12,-261.5C46.12,-261.5 413.88,-261.5 413.88,-261.5 419.88,-261.5 425.88,-267.5 425.88,-273.5 425.88,-273.5 425.88,-350.25 425.88,-350.25 425.88,-356.25 419.88,-362.25 413.88,-362.25 413.88,-362.25 46.12,-362.25 46.12,-362.25 40.12,-362.25 34.12,-356.25 34.12,-350.25 34.12,-350.25 34.12,-273.5 34.12,-273.5 34.12,-267.5 40.12,-261.5 46.12,-261.5"/>
</g>
<!-- Accepting&#45;&gt;Working -->
<g id="edge7" class="edge">
<title>Accepting&#45;&gt;Working</title>
<path fill="none" stroke="red" d="M423.53,-469.87C405.54,-459.72 383.83,-446.65 365.5,-433.25 339.25,-414.07 312.12,-390.76 289.1,-369.79"/>
<polygon fill="red" stroke="red" points="291.66,-367.39 281.92,-363.2 286.92,-372.54 291.66,-367.39"/>
<text xml:space="preserve" text-anchor="middle" x="376.75" y="-419.95" font-family="Times,serif" font-size="14.00"> $&gt; </text>
</g>
<!-- Accepting&#45;&gt;Working -->
<g id="edge9" class="edge">
<title>Accepting&#45;&gt;Working</title>
<path fill="none" stroke="red" d="M430.86,-457.16C418.26,-443.99 402.98,-429 388,-416.75 367.32,-399.84 343.83,-383.18 321.39,-368.32"/>
<polygon fill="red" stroke="red" points="323.4,-365.46 313.12,-362.9 319.57,-371.31 323.4,-365.46"/>
<text xml:space="preserve" text-anchor="middle" x="416.1" y="-419.95" font-family="Times,serif" font-size="14.00"> $&gt; </text>
</g>
<!-- Accepting&#45;&gt;Working -->
<g id="edge10" class="edge">
<title>Accepting&#45;&gt;Working</title>
<path fill="none" stroke="red" d="M423.14,-480.66C393.03,-472.21 350.52,-457.11 319.5,-433.25 297.74,-416.51 278.73,-393.15 263.89,-371.46"/>
<polygon fill="red" stroke="red" points="266.87,-369.62 258.42,-363.23 261.04,-373.49 266.87,-369.62"/>
<text xml:space="preserve" text-anchor="middle" x="330.75" y="-419.95" font-family="Times,serif" font-size="14.00"> $&gt; </text>
</g>
<!-- Filled -->
<g id="node8" class="node">
<title>Filled</title>
<path fill="azure" stroke="none" d="M346,-78.25C346,-78.25 316,-78.25 316,-78.25 310,-78.25 304,-72.25 304,-66.25 304,-66.25 304,-12 304,-12 304,-6 310,0 316,0 316,0 346,0 346,0 352,0 358,-6 358,-12 358,-12 358,-66.25 358,-66.25 358,-72.25 352,-78.25 346,-78.25"/>
<text xml:space="preserve" text-anchor="start" x="314.5" y="-57.95" font-family="Times,serif" font-weight="bold" font-size="14.00">Filled</text>
<text xml:space="preserve" text-anchor="start" x="314.5" y="-32.75" font-family="Times,serif" font-size="10.00">$&gt;()</text>
<text xml:space="preserve" text-anchor="start" x="314.5" y="-21.5" font-family="Times,serif" font-size="10.00">status()</text>
<text xml:space="preserve" text-anchor="start" x="315.62" y="-10.25" font-family="Times,serif" font-size="10.00"> &#160;&#160;&#160;&#160;&#160;&#160;&#160;&#160;&#160;&#160;&#160;</text>
<polygon fill="#00688b" stroke="#00688b" points="306.5,-47.75 306.5,-47.75 355.5,-47.75 355.5,-47.75 306.5,-47.75"/>
<path fill="none" stroke="#00688b" d="M318.5,0C318.5,0 343.5,0 343.5,0 349.5,0 355.5,-6 355.5,-12 355.5,-12 355.5,-66.25 355.5,-66.25 355.5,-72.25 349.5,-78.25 343.5,-78.25 343.5,-78.25 318.5,-78.25 318.5,-78.25 312.5,-78.25 306.5,-72.25 306.5,-66.25 306.5,-66.25 306.5,-12 306.5,-12 306.5,-6 312.5,0 318.5,0"/>
</g>
<!-- Accepting&#45;&gt;Filled -->
<g id="edge5" class="edge">
<title>Accepting&#45;&gt;Filled</title>
<path fill="none" stroke="red" d="M462.99,-456.99C470.04,-373.85 484.32,-155.24 446,-96.25 428.79,-69.76 395.22,-55.38 368.77,-47.83"/>
<polygon fill="red" stroke="red" points="369.97,-44.53 359.41,-45.38 368.2,-51.3 369.97,-44.53"/>
<text xml:space="preserve" text-anchor="middle" x="482.38" y="-230.2" font-family="Times,serif" font-size="14.00"> $&gt; </text>
</g>
<!-- Canceled -->
<g id="node9" class="node">
<title>Canceled</title>
<path fill="azure" stroke="none" d="M551.62,-78.25C551.62,-78.25 506.38,-78.25 506.38,-78.25 500.38,-78.25 494.38,-72.25 494.38,-66.25 494.38,-66.25 494.38,-12 494.38,-12 494.38,-6 500.38,0 506.38,0 506.38,0 551.62,0 551.62,0 557.62,0 563.62,-6 563.62,-12 563.62,-12 563.62,-66.25 563.62,-66.25 563.62,-72.25 557.62,-78.25 551.62,-78.25"/>
<text xml:space="preserve" text-anchor="start" x="502.38" y="-57.95" font-family="Times,serif" font-weight="bold" font-size="14.00">Canceled</text>
<text xml:space="preserve" text-anchor="start" x="502.38" y="-32.75" font-family="Times,serif" font-size="10.00">$&gt;()</text>
<text xml:space="preserve" text-anchor="start" x="502.38" y="-21.5" font-family="Times,serif" font-size="10.00">status()</text>
<text xml:space="preserve" text-anchor="start" x="503.5" y="-10.25" font-family="Times,serif" font-size="10.00"> &#160;&#160;&#160;&#160;&#160;&#160;&#160;&#160;&#160;&#160;&#160;</text>
<polygon fill="#00688b" stroke="#00688b" points="494.38,-47.75 494.38,-47.75 563.62,-47.75 563.62,-47.75 494.38,-47.75"/>
<path fill="none" stroke="#00688b" d="M506.38,0C506.38,0 551.62,0 551.62,0 557.62,0 563.62,-6 563.62,-12 563.62,-12 563.62,-66.25 563.62,-66.25 563.62,-72.25 557.62,-78.25 551.62,-78.25 551.62,-78.25 506.38,-78.25 506.38,-78.25 500.38,-78.25 494.38,-72.25 494.38,-66.25 494.38,-66.25 494.38,-12 494.38,-12 494.38,-6 500.38,0 506.38,0"/>
</g>
<!-- Accepting&#45;&gt;Canceled -->
<g id="edge4" class="edge">
<title>Accepting&#45;&gt;Canceled</title>
<path fill="none" stroke="red" d="M496.5,-457.03C499.61,-454.92 502.8,-452.96 506,-451.25 530.54,-438.1 548.8,-455.14 566,-433.25 658.54,-315.48 614.48,-237.97 566,-96.25 565.07,-93.54 563.99,-90.84 562.78,-88.17"/>
<polygon fill="red" stroke="red" points="565.96,-86.7 558.28,-79.39 559.73,-89.89 565.96,-86.7"/>
<text xml:space="preserve" text-anchor="middle" x="624.84" y="-230.2" font-family="Times,serif" font-size="14.00"> $&gt; </text>
</g>
<!-- Accepting&#45;&gt;Canceled -->
<g id="edge6" class="edge">
<title>Accepting&#45;&gt;Canceled</title>
<path fill="none" stroke="red" d="M468.66,-457.15C470.58,-449.36 472.49,-441.04 474,-433.25 497.84,-310.43 515.53,-164.11 523.8,-89.38"/>
<polygon fill="red" stroke="red" points="527.27,-89.85 524.88,-79.52 520.31,-89.08 527.27,-89.85"/>
<text xml:space="preserve" text-anchor="middle" x="518.09" y="-230.2" font-family="Times,serif" font-size="14.00"> $&gt; </text>
</g>
<!-- Accepting&#45;&gt;Canceled -->
<g id="edge8" class="edge">
<title>Accepting&#45;&gt;Canceled</title>
<path fill="none" stroke="red" d="M481.65,-456.89C490.18,-442.67 499.29,-425.43 505,-408.75 547.81,-283.6 532.97,-244.99 536,-112.75 536.17,-105.42 536.45,-103.57 536,-96.25 535.86,-94.04 535.7,-91.79 535.51,-89.52"/>
<polygon fill="red" stroke="red" points="538.99,-89.22 534.53,-79.61 532.03,-89.91 538.99,-89.22"/>
<text xml:space="preserve" text-anchor="middle" x="547.4" y="-230.2" font-family="Times,serif" font-size="14.00"> $&gt; </text>
</g>
<!-- BookActive -->
<g id="node4" class="node">
<title>BookActive</title>
<ellipse fill="azure" stroke="#00688b" cx="16" cy="-311.88" rx="0.36" ry="0.36"/>
</g>
<!-- PendingCancel -->
<g id="node6" class="node">
<title>PendingCancel</title>
<path fill="azure" stroke="none" d="M414,-209C414,-209 260,-209 260,-209 254,-209 248,-203 248,-197 248,-197 248,-142.75 248,-142.75 248,-136.75 254,-130.75 260,-130.75 260,-130.75 414,-130.75 414,-130.75 420,-130.75 426,-136.75 426,-142.75 426,-142.75 426,-197 426,-197 426,-203 420,-209 414,-209"/>
<text xml:space="preserve" text-anchor="start" x="293.5" y="-188.7" font-family="Times,serif" font-weight="bold" font-size="14.00">PendingCancel</text>
<text xml:space="preserve" text-anchor="start" x="256" y="-163.5" font-family="Times,serif" font-size="10.00">$&gt;()</text>
<text xml:space="preserve" text-anchor="start" x="256" y="-152.25" font-family="Times,serif" font-size="10.00">market_fill(fill_qty: float, fill_px: float)</text>
<text xml:space="preserve" text-anchor="start" x="319" y="-141" font-family="Times,serif" font-size="10.00"> &#160;&#160;&#160;&#160;&#160;&#160;&#160;&#160;&#160;&#160;&#160;&#160;&#160;&#160;&#160;</text>
<polygon fill="#00688b" stroke="#00688b" points="248,-178.5 248,-178.5 426,-178.5 426,-178.5 248,-178.5"/>
<path fill="none" stroke="#00688b" d="M260,-130.75C260,-130.75 414,-130.75 414,-130.75 420,-130.75 426,-136.75 426,-142.75 426,-142.75 426,-197 426,-197 426,-203 420,-209 414,-209 414,-209 260,-209 260,-209 254,-209 248,-203 248,-197 248,-197 248,-142.75 248,-142.75 248,-136.75 254,-130.75 260,-130.75"/>
</g>
<!-- Working&#45;&gt;PendingCancel -->
<g id="edge12" class="edge">
<title>Working&#45;&gt;PendingCancel</title>
<path fill="none" stroke="red" d="M267.72,-261.52C278.58,-247.31 290.39,-231.86 301.14,-217.8"/>
<polygon fill="red" stroke="red" points="303.81,-220.07 307.1,-210 298.25,-215.82 303.81,-220.07"/>
<text xml:space="preserve" text-anchor="middle" x="336.96" y="-230.2" font-family="Times,serif" font-size="14.00"> cancel_request </text>
</g>
<!-- PendingReplace -->
<g id="node7" class="node">
<title>PendingReplace</title>
<path fill="azure" stroke="none" d="M217.5,-203.38C217.5,-203.38 132.5,-203.38 132.5,-203.38 126.5,-203.38 120.5,-197.38 120.5,-191.38 120.5,-191.38 120.5,-148.38 120.5,-148.38 120.5,-142.38 126.5,-136.38 132.5,-136.38 132.5,-136.38 217.5,-136.38 217.5,-136.38 223.5,-136.38 229.5,-142.38 229.5,-148.38 229.5,-148.38 229.5,-191.38 229.5,-191.38 229.5,-197.38 223.5,-203.38 217.5,-203.38"/>
<text xml:space="preserve" text-anchor="start" x="128.5" y="-183.07" font-family="Times,serif" font-weight="bold" font-size="14.00">PendingReplace</text>
<text xml:space="preserve" text-anchor="start" x="128.5" y="-157.88" font-family="Times,serif" font-size="10.00">$&gt;()</text>
<text xml:space="preserve" text-anchor="start" x="128.5" y="-146.62" font-family="Times,serif" font-size="10.00"> &#160;&#160;&#160;&#160;&#160;&#160;&#160;&#160;&#160;&#160;&#160;&#160;&#160;&#160;&#160;</text>
<polygon fill="#00688b" stroke="#00688b" points="120.5,-172.88 120.5,-172.88 229.5,-172.88 229.5,-172.88 120.5,-172.88"/>
<path fill="none" stroke="#00688b" d="M132.5,-136.38C132.5,-136.38 217.5,-136.38 217.5,-136.38 223.5,-136.38 229.5,-142.38 229.5,-148.38 229.5,-148.38 229.5,-191.38 229.5,-191.38 229.5,-197.38 223.5,-203.38 217.5,-203.38 217.5,-203.38 132.5,-203.38 132.5,-203.38 126.5,-203.38 120.5,-197.38 120.5,-191.38 120.5,-191.38 120.5,-148.38 120.5,-148.38 120.5,-142.38 126.5,-136.38 132.5,-136.38"/>
</g>
<!-- Working&#45;&gt;PendingReplace -->
<g id="edge13" class="edge">
<title>Working&#45;&gt;PendingReplace</title>
<path fill="none" stroke="red" d="M99.85,-261.64C94.13,-256.2 89.01,-250.18 84.75,-243.5 80.8,-237.32 81.19,-233.41 84.75,-227 86.67,-223.54 97.42,-216.11 110.88,-207.75"/>
<polygon fill="red" stroke="red" points="112.54,-210.83 119.26,-202.64 108.9,-204.86 112.54,-210.83"/>
<text xml:space="preserve" text-anchor="middle" x="130.88" y="-230.2" font-family="Times,serif" font-size="14.00"> replace_request </text>
</g>
<!-- Working&#45;&gt;Filled -->
<g id="edge11" class="edge">
<title>Working&#45;&gt;Filled</title>
<path fill="none" stroke="red" d="M107.89,-261.69C97.5,-256.04 87.39,-249.97 78,-243.5 32.06,-211.86 10.2,-167.31 43.75,-122.75 73.91,-82.7 222.21,-56.03 293.11,-45.37"/>
<polygon fill="red" stroke="red" points="293.32,-48.87 302.7,-43.95 292.3,-41.95 293.32,-48.87"/>
<text xml:space="preserve" text-anchor="middle" x="77.88" y="-164.82" font-family="Times,serif" font-size="14.00"> market_fill </text>
</g>
<!-- PendingCancel&#45;&gt;Filled -->
<g id="edge14" class="edge">
<title>PendingCancel&#45;&gt;Filled</title>
<path fill="none" stroke="red" d="M333.01,-130.87C332.5,-124.81 332.05,-118.61 331.75,-112.75 331.36,-105.31 331.12,-97.43 330.96,-89.72"/>
<polygon fill="red" stroke="red" points="334.46,-89.67 330.82,-79.73 327.46,-89.77 334.46,-89.67"/>
<text xml:space="preserve" text-anchor="middle" x="365.88" y="-99.45" font-family="Times,serif" font-size="14.00"> market_fill </text>
</g>
<!-- PendingCancel&#45;&gt;Canceled -->
<g id="edge15" class="edge">
<title>PendingCancel&#45;&gt;Canceled</title>
<path fill="none" stroke="red" d="M393.83,-130.77C423.11,-111.13 458.25,-87.57 485.37,-69.38"/>
<polygon fill="red" stroke="red" points="486.99,-72.51 493.34,-64.03 483.09,-66.7 486.99,-72.51"/>
<text xml:space="preserve" text-anchor="middle" x="455.75" y="-99.45" font-family="Times,serif" font-size="14.00"> $&gt; </text>
</g>
<!-- PendingReplace&#45;&gt;Working -->
<g id="edge16" class="edge">
<title>PendingReplace&#45;&gt;Working</title>
<path fill="none" stroke="red" d="M185.78,-203.24C190.14,-215.88 195.36,-230.44 200.5,-243.5 201.49,-246.01 202.51,-248.56 203.56,-251.13"/>
<polygon fill="red" stroke="red" points="200.33,-252.46 207.4,-260.35 206.79,-249.77 200.33,-252.46"/>
<text xml:space="preserve" text-anchor="middle" x="211.75" y="-230.2" font-family="Times,serif" font-size="14.00"> $&gt; </text>
</g>
<!-- PendingReplace&#45;&gt;Working -->
<g id="edge17" class="edge">
<title>PendingReplace&#45;&gt;Working</title>
<path fill="none" stroke="red" d="M208.48,-203.28C214.24,-210.54 219.49,-218.6 223,-227 226.06,-234.33 228.14,-242.33 229.51,-250.39"/>
<polygon fill="red" stroke="red" points="226.03,-250.79 230.81,-260.25 232.97,-249.88 226.03,-250.79"/>
<text xml:space="preserve" text-anchor="middle" x="239.1" y="-230.2" font-family="Times,serif" font-size="14.00"> $&gt; </text>
</g>
</g>
</svg>
