<?xml version="1.0" encoding="UTF-8" standalone="no"?>
<!DOCTYPE svg PUBLIC "-//W3C//DTD SVG 1.1//EN"
 "http://www.w3.org/Graphics/SVG/1.1/DTD/svg11.dtd">
<!-- Generated by graphviz version 14.1.5 (20260411.2331)
 -->
<!-- Title: PropulsionController Pages: 1 -->
<svg width="262pt" height="541pt"
 viewBox="0.00 0.00 262.00 541.00" xmlns="http://www.w3.org/2000/svg" xmlns:xlink="http://www.w3.org/1999/xlink">
<g id="graph0" class="graph" transform="scale(1 1) rotate(0) translate(4 537.15)">
<title>PropulsionController</title>
<polygon fill="white" stroke="none" points="-4,4 -4,-537.15 258.26,-537.15 258.26,4 -4,4"/>
<!-- Entry -->
<g id="node1" class="node">
<title>Entry</title>
<ellipse fill="black" stroke="#00688b" cx="107.88" cy="-525.95" rx="7.2" ry="7.2"/>
</g>
<!-- Idle -->
<g id="node2" class="node">
<title>Idle</title>
<path fill="azure" stroke="none" d="M150.75,-481.75C150.75,-481.75 65,-481.75 65,-481.75 59,-481.75 53,-475.75 53,-469.75 53,-469.75 53,-415.5 53,-415.5 53,-409.5 59,-403.5 65,-403.5 65,-403.5 150.75,-403.5 150.75,-403.5 156.75,-403.5 162.75,-409.5 162.75,-415.5 162.75,-415.5 162.75,-469.75 162.75,-469.75 162.75,-475.75 156.75,-481.75 150.75,-481.75"/>
<text xml:space="preserve" text-anchor="start" x="96.62" y="-461.45" font-family="Times,serif" font-weight="bold" font-size="14.00">Idle</text>
<text xml:space="preserve" text-anchor="start" x="61" y="-436.25" font-family="Times,serif" font-size="10.00">ignite_stage(stage: int)</text>
<text xml:space="preserve" text-anchor="start" x="61" y="-425" font-family="Times,serif" font-size="10.00">engine_status()</text>
<text xml:space="preserve" text-anchor="start" x="94.38" y="-413.75" font-family="Times,serif" font-size="10.00"> &#160;&#160;&#160;&#160;&#160;&#160;&#160;&#160;&#160;&#160;&#160;</text>
<polygon fill="#00688b" stroke="#00688b" points="53,-451.25 53,-451.25 162.75,-451.25 162.75,-451.25 53,-451.25"/>
<path fill="none" stroke="#00688b" d="M65,-403.5C65,-403.5 150.75,-403.5 150.75,-403.5 156.75,-403.5 162.75,-409.5 162.75,-415.5 162.75,-415.5 162.75,-469.75 162.75,-469.75 162.75,-475.75 156.75,-481.75 150.75,-481.75 150.75,-481.75 65,-481.75 65,-481.75 59,-481.75 53,-475.75 53,-469.75 53,-469.75 53,-415.5 53,-415.5 53,-409.5 59,-403.5 65,-403.5"/>
</g>
<!-- Entry&#45;&gt;Idle -->
<g id="edge1" class="edge">
<title>Entry&#45;&gt;Idle</title>
<path fill="none" stroke="red" d="M107.88,-518.29C107.88,-512.28 107.88,-502.82 107.88,-492.63"/>
<polygon fill="red" stroke="red" points="111.38,-492.94 107.88,-482.94 104.38,-492.94 111.38,-492.94"/>
</g>
<!-- Igniting -->
<g id="node3" class="node">
<title>Igniting</title>
<path fill="azure" stroke="none" d="M49.75,-351C49.75,-351 12,-351 12,-351 6,-351 0,-345 0,-339 0,-339 0,-296 0,-296 0,-290 6,-284 12,-284 12,-284 49.75,-284 49.75,-284 55.75,-284 61.75,-290 61.75,-296 61.75,-296 61.75,-339 61.75,-339 61.75,-345 55.75,-351 49.75,-351"/>
<text xml:space="preserve" text-anchor="start" x="8" y="-330.7" font-family="Times,serif" font-weight="bold" font-size="14.00">Igniting</text>
<text xml:space="preserve" text-anchor="start" x="8" y="-305.5" font-family="Times,serif" font-size="10.00">$&gt;()</text>
<text xml:space="preserve" text-anchor="start" x="8" y="-294.25" font-family="Times,serif" font-size="10.00"> &#160;&#160;&#160;&#160;&#160;&#160;&#160;&#160;&#160;&#160;&#160;</text>
<polygon fill="#00688b" stroke="#00688b" points="0,-320.5 0,-320.5 61.75,-320.5 61.75,-320.5 0,-320.5"/>
<path fill="none" stroke="#00688b" d="M12,-284C12,-284 49.75,-284 49.75,-284 55.75,-284 61.75,-290 61.75,-296 61.75,-296 61.75,-339 61.75,-339 61.75,-345 55.75,-351 49.75,-351 49.75,-351 12,-351 12,-351 6,-351 0,-345 0,-339 0,-339 0,-296 0,-296 0,-290 6,-284 12,-284"/>
</g>
<!-- Idle&#45;&gt;Igniting -->
<g id="edge2" class="edge">
<title>Idle&#45;&gt;Igniting</title>
<path fill="none" stroke="red" d="M53.22,-417.88C40.42,-409.58 28.41,-398.89 21.12,-385.5 17.27,-378.41 16.18,-370.31 16.66,-362.24"/>
<polygon fill="red" stroke="red" points="20.1,-362.86 18.03,-352.47 13.17,-361.89 20.1,-362.86"/>
<text xml:space="preserve" text-anchor="middle" x="57.5" y="-372.2" font-family="Times,serif" font-size="14.00"> ignite_stage </text>
</g>
<!-- RampingUp -->
<g id="node4" class="node">
<title>RampingUp</title>
<path fill="azure" stroke="none" d="M145.12,-231.5C145.12,-231.5 70.62,-231.5 70.62,-231.5 64.62,-231.5 58.62,-225.5 58.62,-219.5 58.62,-219.5 58.62,-131.5 58.62,-131.5 58.62,-125.5 64.62,-119.5 70.62,-119.5 70.62,-119.5 145.12,-119.5 145.12,-119.5 151.12,-119.5 157.12,-125.5 157.12,-131.5 157.12,-131.5 157.12,-219.5 157.12,-219.5 157.12,-225.5 151.12,-231.5 145.12,-231.5"/>
<text xml:space="preserve" text-anchor="start" x="72.25" y="-211.2" font-family="Times,serif" font-weight="bold" font-size="14.00">RampingUp</text>
<text xml:space="preserve" text-anchor="start" x="66.62" y="-186" font-family="Times,serif" font-size="10.00">$&gt;()</text>
<text xml:space="preserve" text-anchor="start" x="66.62" y="-174.75" font-family="Times,serif" font-size="10.00">throttle(percent: int)</text>
<text xml:space="preserve" text-anchor="start" x="66.62" y="-163.5" font-family="Times,serif" font-size="10.00">shutdown()</text>
<text xml:space="preserve" text-anchor="start" x="66.62" y="-152.25" font-family="Times,serif" font-size="10.00">separate_stage()</text>
<text xml:space="preserve" text-anchor="start" x="66.62" y="-141" font-family="Times,serif" font-size="10.00">engine_status()</text>
<text xml:space="preserve" text-anchor="start" x="94.38" y="-129.75" font-family="Times,serif" font-size="10.00"> &#160;&#160;&#160;&#160;&#160;&#160;&#160;&#160;&#160;&#160;&#160;</text>
<polygon fill="#00688b" stroke="#00688b" points="58.62,-201 58.62,-201 157.12,-201 157.12,-201 58.62,-201"/>
<path fill="none" stroke="#00688b" d="M70.62,-119.5C70.62,-119.5 145.12,-119.5 145.12,-119.5 151.12,-119.5 157.12,-125.5 157.12,-131.5 157.12,-131.5 157.12,-219.5 157.12,-219.5 157.12,-225.5 151.12,-231.5 145.12,-231.5 145.12,-231.5 70.62,-231.5 70.62,-231.5 64.62,-231.5 58.62,-225.5 58.62,-219.5 58.62,-219.5 58.62,-131.5 58.62,-131.5 58.62,-125.5 64.62,-119.5 70.62,-119.5"/>
</g>
<!-- Igniting&#45;&gt;RampingUp -->
<g id="edge3" class="edge">
<title>Igniting&#45;&gt;RampingUp</title>
<path fill="none" stroke="red" d="M48.73,-284.03C55.8,-271.17 64.19,-255.92 72.4,-241.01"/>
<polygon fill="red" stroke="red" points="75.26,-243.05 77.02,-232.61 69.13,-239.68 75.26,-243.05"/>
<text xml:space="preserve" text-anchor="middle" x="78.32" y="-252.7" font-family="Times,serif" font-size="14.00"> $&gt; </text>
</g>
<!-- RampingUp&#45;&gt;Idle -->
<g id="edge5" class="edge">
<title>RampingUp&#45;&gt;Idle</title>
<path fill="none" stroke="red" d="M107.88,-231.47C107.88,-278.83 107.88,-346.59 107.88,-392.25"/>
<polygon fill="red" stroke="red" points="104.38,-392.13 107.88,-402.13 111.38,-392.13 104.38,-392.13"/>
<text xml:space="preserve" text-anchor="middle" x="151" y="-312.45" font-family="Times,serif" font-size="14.00"> separate_stage </text>
</g>
<!-- ShuttingDown -->
<g id="node5" class="node">
<title>ShuttingDown</title>
<path fill="azure" stroke="none" d="M202.5,-67C202.5,-67 127.25,-67 127.25,-67 121.25,-67 115.25,-61 115.25,-55 115.25,-55 115.25,-12 115.25,-12 115.25,-6 121.25,0 127.25,0 127.25,0 202.5,0 202.5,0 208.5,0 214.5,-6 214.5,-12 214.5,-12 214.5,-55 214.5,-55 214.5,-61 208.5,-67 202.5,-67"/>
<text xml:space="preserve" text-anchor="start" x="123.25" y="-46.7" font-family="Times,serif" font-weight="bold" font-size="14.00">ShuttingDown</text>
<text xml:space="preserve" text-anchor="start" x="123.25" y="-21.5" font-family="Times,serif" font-size="10.00">$&gt;()</text>
<text xml:space="preserve" text-anchor="start" x="123.25" y="-10.25" font-family="Times,serif" font-size="10.00"> &#160;&#160;&#160;&#160;&#160;&#160;&#160;&#160;&#160;&#160;&#160;</text>
<polygon fill="#00688b" stroke="#00688b" points="115.25,-36.5 115.25,-36.5 214.5,-36.5 214.5,-36.5 115.25,-36.5"/>
<path fill="none" stroke="#00688b" d="M127.25,0C127.25,0 202.5,0 202.5,0 208.5,0 214.5,-6 214.5,-12 214.5,-12 214.5,-55 214.5,-55 214.5,-61 208.5,-67 202.5,-67 202.5,-67 127.25,-67 127.25,-67 121.25,-67 115.25,-61 115.25,-55 115.25,-55 115.25,-12 115.25,-12 115.25,-6 121.25,0 127.25,0"/>
</g>
<!-- RampingUp&#45;&gt;ShuttingDown -->
<g id="edge4" class="edge">
<title>RampingUp&#45;&gt;ShuttingDown</title>
<path fill="none" stroke="red" d="M130.24,-119.57C136,-105.43 142.11,-90.42 147.57,-77.01"/>
<polygon fill="red" stroke="red" points="150.69,-78.63 151.21,-68.05 144.2,-75.99 150.69,-78.63"/>
<text xml:space="preserve" text-anchor="middle" x="173.16" y="-88.2" font-family="Times,serif" font-size="14.00"> shutdown </text>
</g>
<!-- ShuttingDown&#45;&gt;Idle -->
<g id="edge6" class="edge">
<title>ShuttingDown&#45;&gt;Idle</title>
<path fill="none" stroke="red" d="M197.15,-66.95C201.12,-72.58 204.59,-78.67 206.88,-85 247.09,-196.24 244.92,-242.47 197.88,-351 190.65,-367.68 178.82,-382.97 166.07,-396.05"/>
<polygon fill="red" stroke="red" points="163.83,-393.35 159.14,-402.84 168.73,-398.35 163.83,-393.35"/>
<text xml:space="preserve" text-anchor="middle" x="243.01" y="-252.7" font-family="Times,serif" font-size="14.00"> $&gt; </text>
</g>
</g>
</svg>
