<?xml version="1.0" encoding="UTF-8" standalone="no"?>
<!DOCTYPE svg PUBLIC "-//W3C//DTD SVG 1.1//EN"
 "http://www.w3.org/Graphics/SVG/1.1/DTD/svg11.dtd">
<!-- Generated by graphviz version 14.1.5 (20260411.2331)
 -->
<!-- Title: PropulsionController Pages: 1 -->
<svg width="309pt" height="541pt"
 viewBox="0.00 0.00 309.00 541.00" xmlns="http://www.w3.org/2000/svg" xmlns:xlink="http://www.w3.org/1999/xlink">
<g id="graph0" class="graph" transform="scale(1 1) rotate(0) translate(4 537.15)">
<title>PropulsionController</title>
<polygon fill="white" stroke="none" points="-4,4 -4,-537.15 305.01,-537.15 305.01,4 -4,4"/>
<!-- Entry -->
<g id="node1" class="node">
<title>Entry</title>
<ellipse fill="black" stroke="#00688b" cx="108.88" cy="-525.95" rx="7.2" ry="7.2"/>
</g>
<!-- Idle -->
<g id="node2" class="node">
<title>Idle</title>
<path fill="azure" stroke="none" d="M151.75,-481.75C151.75,-481.75 66,-481.75 66,-481.75 60,-481.75 54,-475.75 54,-469.75 54,-469.75 54,-415.5 54,-415.5 54,-409.5 60,-403.5 66,-403.5 66,-403.5 151.75,-403.5 151.75,-403.5 157.75,-403.5 163.75,-409.5 163.75,-415.5 163.75,-415.5 163.75,-469.75 163.75,-469.75 163.75,-475.75 157.75,-481.75 151.75,-481.75"/>
<text xml:space="preserve" text-anchor="start" x="97.62" y="-461.45" font-family="Times,serif" font-weight="bold" font-size="14.00">Idle</text>
<text xml:space="preserve" text-anchor="start" x="62" y="-436.25" font-family="Times,serif" font-size="10.00">ignite_stage(stage: int)</text>
<text xml:space="preserve" text-anchor="start" x="62" y="-425" font-family="Times,serif" font-size="10.00">engine_status()</text>
<text xml:space="preserve" text-anchor="start" x="95.38" y="-413.75" font-family="Times,serif" font-size="10.00"> &#160;&#160;&#160;&#160;&#160;&#160;&#160;&#160;&#160;&#160;&#160;</text>
<polygon fill="#00688b" stroke="#00688b" points="54,-451.25 54,-451.25 163.75,-451.25 163.75,-451.25 54,-451.25"/>
<path fill="none" stroke="#00688b" d="M66,-403.5C66,-403.5 151.75,-403.5 151.75,-403.5 157.75,-403.5 163.75,-409.5 163.75,-415.5 163.75,-415.5 163.75,-469.75 163.75,-469.75 163.75,-475.75 157.75,-481.75 151.75,-481.75 151.75,-481.75 66,-481.75 66,-481.75 60,-481.75 54,-475.75 54,-469.75 54,-469.75 54,-415.5 54,-415.5 54,-409.5 60,-403.5 66,-403.5"/>
</g>
<!-- Entry&#45;&gt;Idle -->
<g id="edge1" class="edge">
<title>Entry&#45;&gt;Idle</title>
<path fill="none" stroke="red" d="M108.88,-518.29C108.88,-512.28 108.88,-502.82 108.88,-492.63"/>
<polygon fill="red" stroke="red" points="112.38,-492.94 108.88,-482.94 105.38,-492.94 112.38,-492.94"/>
</g>
<!-- Igniting -->
<g id="node3" class="node">
<title>Igniting</title>
<path fill="azure" stroke="none" d="M49.75,-351C49.75,-351 12,-351 12,-351 6,-351 0,-345 0,-339 0,-339 0,-296 0,-296 0,-290 6,-284 12,-284 12,-284 49.75,-284 49.75,-284 55.75,-284 61.75,-290 61.75,-296 61.75,-296 61.75,-339 61.75,-339 61.75,-345 55.75,-351 49.75,-351"/>
<text xml:space="preserve" text-anchor="start" x="8" y="-330.7" font-family="Times,serif" font-weight="bold" font-size="14.00">Igniting</text>
<text xml:space="preserve" text-anchor="start" x="8" y="-305.5" font-family="Times,serif" font-size="10.00">$&gt;()</text>
<text xml:space="preserve" text-anchor="start" x="8" y="-294.25" font-family="Times,serif" font-size="10.00"> &#160;&#160;&#160;&#160;&#160;&#160;&#160;&#160;&#160;&#160;&#160;</text>
<polygon fill="#00688b" stroke="#00688b" points="0,-320.5 0,-320.5 61.75,-320.5 61.75,-320.5 0,-320.5"/>
<path fill="none" stroke="#00688b" d="M12,-284C12,-284 49.75,-284 49.75,-284 55.75,-284 61.75,-290 61.75,-296 61.75,-296 61.75,-339 61.75,-339 61.75,-345 55.75,-351 49.75,-351 49.75,-351 12,-351 12,-351 6,-351 0,-345 0,-339 0,-339 0,-296 0,-296 0,-290 6,-284 12,-284"/>
</g>
<!-- Idle&#45;&gt;Igniting -->
<g id="edge2" class="edge">
<title>Idle&#45;&gt;Igniting</title>
<path fill="none" stroke="red" d="M54.22,-417.88C41.42,-409.58 29.41,-398.89 22.12,-385.5 18.28,-378.43 17.12,-370.33 17.49,-362.26"/>
<polygon fill="red" stroke="red" points="20.94,-362.86 18.72,-352.5 14,-361.98 20.94,-362.86"/>
<text xml:space="preserve" text-anchor="middle" x="58.5" y="-372.2" font-family="Times,serif" font-size="14.00"> ignite_stage </text>
</g>
<!-- RampingUp -->
<g id="node4" class="node">
<title>RampingUp</title>
<path fill="azure" stroke="none" d="M146.12,-231.5C146.12,-231.5 71.62,-231.5 71.62,-231.5 65.62,-231.5 59.62,-225.5 59.62,-219.5 59.62,-219.5 59.62,-131.5 59.62,-131.5 59.62,-125.5 65.62,-119.5 71.62,-119.5 71.62,-119.5 146.12,-119.5 146.12,-119.5 152.12,-119.5 158.12,-125.5 158.12,-131.5 158.12,-131.5 158.12,-219.5 158.12,-219.5 158.12,-225.5 152.12,-231.5 146.12,-231.5"/>
<text xml:space="preserve" text-anchor="start" x="73.25" y="-211.2" font-family="Times,serif" font-weight="bold" font-size="14.00">RampingUp</text>
<text xml:space="preserve" text-anchor="start" x="67.62" y="-186" font-family="Times,serif" font-size="10.00">$&gt;()</text>
<text xml:space="preserve" text-anchor="start" x="67.62" y="-174.75" font-family="Times,serif" font-size="10.00">throttle(percent: int)</text>
<text xml:space="preserve" text-anchor="start" x="67.62" y="-163.5" font-family="Times,serif" font-size="10.00">shutdown()</text>
<text xml:space="preserve" text-anchor="start" x="67.62" y="-152.25" font-family="Times,serif" font-size="10.00">separate_stage()</text>
<text xml:space="preserve" text-anchor="start" x="67.62" y="-141" font-family="Times,serif" font-size="10.00">engine_status()</text>
<text xml:space="preserve" text-anchor="start" x="95.38" y="-129.75" font-family="Times,serif" font-size="10.00"> &#160;&#160;&#160;&#160;&#160;&#160;&#160;&#160;&#160;&#160;&#160;</text>
<polygon fill="#00688b" stroke="#00688b" points="59.62,-201 59.62,-201 158.12,-201 158.12,-201 59.62,-201"/>
<path fill="none" stroke="#00688b" d="M71.62,-119.5C71.62,-119.5 146.12,-119.5 146.12,-119.5 152.12,-119.5 158.12,-125.5 158.12,-131.5 158.12,-131.5 158.12,-219.5 158.12,-219.5 158.12,-225.5 152.12,-231.5 146.12,-231.5 146.12,-231.5 71.62,-231.5 71.62,-231.5 65.62,-231.5 59.62,-225.5 59.62,-219.5 59.62,-219.5 59.62,-131.5 59.62,-131.5 59.62,-125.5 65.62,-119.5 71.62,-119.5"/>
</g>
<!-- Igniting&#45;&gt;RampingUp -->
<g id="edge3" class="edge">
<title>Igniting&#45;&gt;RampingUp</title>
<path fill="none" stroke="red" d="M32.21,-284.33C33.66,-272.89 36.43,-260.2 41.62,-249.5 44.81,-242.94 48.78,-236.55 53.19,-230.46"/>
<polygon fill="red" stroke="red" points="55.64,-233.01 58.99,-222.96 50.11,-228.72 55.64,-233.01"/>
<text xml:space="preserve" text-anchor="middle" x="68.25" y="-252.7" font-family="Times,serif" font-size="14.00"> ramp up </text>
</g>
<!-- RampingUp&#45;&gt;Idle -->
<g id="edge5" class="edge">
<title>RampingUp&#45;&gt;Idle</title>
<path fill="none" stroke="red" d="M108.88,-231.47C108.88,-278.83 108.88,-346.59 108.88,-392.25"/>
<polygon fill="red" stroke="red" points="105.38,-392.13 108.88,-402.13 112.38,-392.13 105.38,-392.13"/>
<text xml:space="preserve" text-anchor="middle" x="152" y="-312.45" font-family="Times,serif" font-size="14.00"> separate_stage </text>
</g>
<!-- ShuttingDown -->
<g id="node5" class="node">
<title>ShuttingDown</title>
<path fill="azure" stroke="none" d="M203.5,-67C203.5,-67 128.25,-67 128.25,-67 122.25,-67 116.25,-61 116.25,-55 116.25,-55 116.25,-12 116.25,-12 116.25,-6 122.25,0 128.25,0 128.25,0 203.5,0 203.5,0 209.5,0 215.5,-6 215.5,-12 215.5,-12 215.5,-55 215.5,-55 215.5,-61 209.5,-67 203.5,-67"/>
<text xml:space="preserve" text-anchor="start" x="124.25" y="-46.7" font-family="Times,serif" font-weight="bold" font-size="14.00">ShuttingDown</text>
<text xml:space="preserve" text-anchor="start" x="124.25" y="-21.5" font-family="Times,serif" font-size="10.00">$&gt;()</text>
<text xml:space="preserve" text-anchor="start" x="124.25" y="-10.25" font-family="Times,serif" font-size="10.00"> &#160;&#160;&#160;&#160;&#160;&#160;&#160;&#160;&#160;&#160;&#160;</text>
<polygon fill="#00688b" stroke="#00688b" points="116.25,-36.5 116.25,-36.5 215.5,-36.5 215.5,-36.5 116.25,-36.5"/>
<path fill="none" stroke="#00688b" d="M128.25,0C128.25,0 203.5,0 203.5,0 209.5,0 215.5,-6 215.5,-12 215.5,-12 215.5,-55 215.5,-55 215.5,-61 209.5,-67 203.5,-67 203.5,-67 128.25,-67 128.25,-67 122.25,-67 116.25,-61 116.25,-55 116.25,-55 116.25,-12 116.25,-12 116.25,-6 122.25,0 128.25,0"/>
</g>
<!-- RampingUp&#45;&gt;ShuttingDown -->
<g id="edge4" class="edge">
<title>RampingUp&#45;&gt;ShuttingDown</title>
<path fill="none" stroke="red" d="M131.24,-119.57C137,-105.43 143.11,-90.42 148.57,-77.01"/>
<polygon fill="red" stroke="red" points="151.69,-78.63 152.21,-68.05 145.2,-75.99 151.69,-78.63"/>
<text xml:space="preserve" text-anchor="middle" x="174.16" y="-88.2" font-family="Times,serif" font-size="14.00"> shutdown </text>
</g>
<!-- ShuttingDown&#45;&gt;Idle -->
<g id="edge6" class="edge">
<title>ShuttingDown&#45;&gt;Idle</title>
<path fill="none" stroke="red" d="M198.15,-66.95C202.12,-72.58 205.59,-78.67 207.88,-85 248.09,-196.24 245.92,-242.47 198.88,-351 191.65,-367.68 179.82,-382.97 167.07,-396.05"/>
<polygon fill="red" stroke="red" points="164.83,-393.35 160.14,-402.84 169.73,-398.35 164.83,-393.35"/>
<text xml:space="preserve" text-anchor="middle" x="266.88" y="-252.7" font-family="Times,serif" font-size="14.00"> engines off </text>
</g>
</g>
</svg>
