<?xml version="1.0" encoding="UTF-8" standalone="no"?>
<!DOCTYPE svg PUBLIC "-//W3C//DTD SVG 1.1//EN"
 "http://www.w3.org/Graphics/SVG/1.1/DTD/svg11.dtd">
<!-- Generated by graphviz version 14.1.5 (20260411.2331)
 -->
<!-- Title: RobotArm Pages: 1 -->
<svg width="1034pt" height="855pt"
 viewBox="0.00 0.00 1034.00 855.00" xmlns="http://www.w3.org/2000/svg" xmlns:xlink="http://www.w3.org/1999/xlink">
<g id="graph0" class="graph" transform="scale(1 1) rotate(0) translate(4 850.75)">
<title>RobotArm</title>
<polygon fill="white" stroke="none" points="-4,4 -4,-850.75 1029.95,-850.75 1029.95,4 -4,4"/>
<g id="clust1" class="cluster">
<title>cluster_Safety</title>
<path fill="none" stroke="black" d="M20,-8C20,-8 818,-8 818,-8 824,-8 830,-14 830,-20 830,-20 830,-702.75 830,-702.75 830,-708.75 824,-714.75 818,-714.75 818,-714.75 20,-714.75 20,-714.75 14,-714.75 8,-708.75 8,-702.75 8,-702.75 8,-20 8,-20 8,-14 14,-8 20,-8"/>
<text xml:space="preserve" text-anchor="start" x="401.75" y="-694" font-family="Times,serif" font-size="14.00">Safety</text>
<polygon fill="black" stroke="black" points="397.75,-687.25 397.75,-687.25 440.25,-687.25 440.25,-687.25 397.75,-687.25"/>
</g>
<g id="clust2" class="cluster">
<title>cluster_Operational</title>
<path fill="none" stroke="black" d="M28,-16C28,-16 802,-16 802,-16 808,-16 814,-22 814,-28 814,-28 814,-656.25 814,-656.25 814,-662.25 808,-668.25 802,-668.25 802,-668.25 28,-668.25 28,-668.25 22,-668.25 16,-662.25 16,-656.25 16,-656.25 16,-28 16,-28 16,-22 22,-16 28,-16"/>
<text xml:space="preserve" text-anchor="start" x="383.12" y="-647.5" font-family="Times,serif" font-size="14.00">Operational</text>
<polygon fill="black" stroke="black" points="379.12,-640.75 379.12,-640.75 450.88,-640.75 450.88,-640.75 379.12,-640.75"/>
</g>
<g id="clust3" class="cluster">
<title>cluster_Manual</title>
<path fill="none" stroke="black" d="M36,-188.5C36,-188.5 464,-188.5 464,-188.5 470,-188.5 476,-194.5 476,-200.5 476,-200.5 476,-609.75 476,-609.75 476,-615.75 470,-621.75 464,-621.75 464,-621.75 36,-621.75 36,-621.75 30,-621.75 24,-615.75 24,-609.75 24,-609.75 24,-200.5 24,-200.5 24,-194.5 30,-188.5 36,-188.5"/>
<text xml:space="preserve" text-anchor="start" x="229" y="-601" font-family="Times,serif" font-size="14.00">Manual</text>
<polygon fill="black" stroke="black" points="225,-594.25 225,-594.25 275,-594.25 275,-594.25 225,-594.25"/>
</g>
<g id="clust4" class="cluster">
<title>cluster_Auto</title>
<path fill="none" stroke="black" d="M528,-24C528,-24 762,-24 762,-24 768,-24 774,-30 774,-36 774,-36 774,-370.25 774,-370.25 774,-376.25 768,-382.25 762,-382.25 762,-382.25 528,-382.25 528,-382.25 522,-382.25 516,-376.25 516,-370.25 516,-370.25 516,-36 516,-36 516,-30 522,-24 528,-24"/>
<text xml:space="preserve" text-anchor="start" x="631.5" y="-361.5" font-family="Times,serif" font-size="14.00">Auto</text>
<polygon fill="black" stroke="black" points="627.5,-354.75 627.5,-354.75 662.5,-354.75 662.5,-354.75 627.5,-354.75"/>
</g>
<!-- Entry -->
<g id="node1" class="node">
<title>Entry</title>
<ellipse fill="black" stroke="#00688b" cx="794" cy="-802" rx="7.2" ry="7.2"/>
</g>
<!-- Operational -->
<g id="node2" class="node">
<title>Operational</title>
<ellipse fill="azure" stroke="#00688b" cx="803" cy="-480.75" rx="0.36" ry="0.36"/>
</g>
<!-- Entry&#45;&gt;Operational -->
<g id="edge1" class="edge">
<title>Entry&#45;&gt;Operational</title>
<path fill="none" stroke="red" d="M794.19,-794.33C795.32,-754.18 801.23,-544.54 802.68,-493.14"/>
<polygon fill="red" stroke="red" points="806.17,-493.41 802.96,-483.31 799.18,-493.21 806.17,-493.41"/>
</g>
<!-- EStopCategory0 -->
<g id="node3" class="node">
<title>EStopCategory0</title>
<path fill="azure" stroke="none" d="M927.62,-846.75C927.62,-846.75 840.38,-846.75 840.38,-846.75 834.38,-846.75 828.38,-840.75 828.38,-834.75 828.38,-834.75 828.38,-769.25 828.38,-769.25 828.38,-763.25 834.38,-757.25 840.38,-757.25 840.38,-757.25 927.62,-757.25 927.62,-757.25 933.62,-757.25 939.62,-763.25 939.62,-769.25 939.62,-769.25 939.62,-834.75 939.62,-834.75 939.62,-840.75 933.62,-846.75 927.62,-846.75"/>
<text xml:space="preserve" text-anchor="start" x="836.38" y="-826.45" font-family="Times,serif" font-weight="bold" font-size="14.00">EStopCategory0</text>
<text xml:space="preserve" text-anchor="start" x="836.38" y="-801.25" font-family="Times,serif" font-size="10.00">$&gt;()</text>
<text xml:space="preserve" text-anchor="start" x="836.38" y="-790" font-family="Times,serif" font-size="10.00">reset_e_stop()</text>
<text xml:space="preserve" text-anchor="start" x="836.38" y="-778.75" font-family="Times,serif" font-size="10.00">status()</text>
<text xml:space="preserve" text-anchor="start" x="851.38" y="-767.5" font-family="Times,serif" font-size="10.00"> &#160;&#160;&#160;&#160;&#160;&#160;&#160;&#160;&#160;&#160;&#160;</text>
<polygon fill="#00688b" stroke="#00688b" points="828.38,-816.25 828.38,-816.25 939.62,-816.25 939.62,-816.25 828.38,-816.25"/>
<path fill="none" stroke="#00688b" d="M840.38,-757.25C840.38,-757.25 927.62,-757.25 927.62,-757.25 933.62,-757.25 939.62,-763.25 939.62,-769.25 939.62,-769.25 939.62,-834.75 939.62,-834.75 939.62,-840.75 933.62,-846.75 927.62,-846.75 927.62,-846.75 840.38,-846.75 840.38,-846.75 834.38,-846.75 828.38,-840.75 828.38,-834.75 828.38,-834.75 828.38,-769.25 828.38,-769.25 828.38,-763.25 834.38,-757.25 840.38,-757.25"/>
</g>
<!-- Operational&#45;&gt;EStopCategory0 -->
<g id="edge2" class="edge">
<title>Operational&#45;&gt;EStopCategory0</title>
<path fill="none" stroke="red" d="M794.31,-668.25C797.12,-684.27 801.22,-699.98 807,-714.75 811.7,-726.75 818.88,-738.16 827.01,-748.51"/>
<polygon fill="red" stroke="red" points="824.29,-750.72 833.38,-756.16 829.67,-746.24 824.29,-750.72"/>
<text xml:space="preserve" text-anchor="middle" x="840" y="-725.95" font-family="Times,serif" font-size="14.00"> e_stop </text>
</g>
<!-- SafetyFault -->
<g id="node4" class="node">
<title>SafetyFault</title>
<path fill="azure" stroke="none" d="M952.38,-297.25C952.38,-297.25 893.62,-297.25 893.62,-297.25 887.62,-297.25 881.62,-291.25 881.62,-285.25 881.62,-285.25 881.62,-219.75 881.62,-219.75 881.62,-213.75 887.62,-207.75 893.62,-207.75 893.62,-207.75 952.38,-207.75 952.38,-207.75 958.38,-207.75 964.38,-213.75 964.38,-219.75 964.38,-219.75 964.38,-285.25 964.38,-285.25 964.38,-291.25 958.38,-297.25 952.38,-297.25"/>
<text xml:space="preserve" text-anchor="start" x="889.62" y="-276.95" font-family="Times,serif" font-weight="bold" font-size="14.00">SafetyFault</text>
<text xml:space="preserve" text-anchor="start" x="889.62" y="-251.75" font-family="Times,serif" font-size="10.00">$&gt;()</text>
<text xml:space="preserve" text-anchor="start" x="889.62" y="-240.5" font-family="Times,serif" font-size="10.00">reset_e_stop()</text>
<text xml:space="preserve" text-anchor="start" x="889.62" y="-229.25" font-family="Times,serif" font-size="10.00">status()</text>
<text xml:space="preserve" text-anchor="start" x="904.62" y="-218" font-family="Times,serif" font-size="10.00"> &#160;&#160;&#160;&#160;&#160;&#160;&#160;&#160;&#160;&#160;&#160;</text>
<polygon fill="#00688b" stroke="#00688b" points="881.62,-266.75 881.62,-266.75 964.38,-266.75 964.38,-266.75 881.62,-266.75"/>
<path fill="none" stroke="#00688b" d="M893.62,-207.75C893.62,-207.75 952.38,-207.75 952.38,-207.75 958.38,-207.75 964.38,-213.75 964.38,-219.75 964.38,-219.75 964.38,-285.25 964.38,-285.25 964.38,-291.25 958.38,-297.25 952.38,-297.25 952.38,-297.25 893.62,-297.25 893.62,-297.25 887.62,-297.25 881.62,-291.25 881.62,-285.25 881.62,-285.25 881.62,-219.75 881.62,-219.75 881.62,-213.75 887.62,-207.75 893.62,-207.75"/>
</g>
<!-- Operational&#45;&gt;SafetyFault -->
<g id="edge3" class="edge">
<title>Operational&#45;&gt;SafetyFault</title>
<path fill="none" stroke="red" d="M814,-405.64C829.41,-368.36 854.01,-332.9 875.95,-305.61"/>
<polygon fill="red" stroke="red" points="878.48,-308.03 882.11,-298.08 873.07,-303.6 878.48,-308.03"/>
<text xml:space="preserve" text-anchor="middle" x="854.98" y="-393.45" font-family="Times,serif" font-size="14.00"> safety_fault </text>
</g>
<!-- SafetyCheck -->
<g id="node5" class="node">
<title>SafetyCheck</title>
<path fill="azure" stroke="none" d="M925.38,-514.25C925.38,-514.25 860.62,-514.25 860.62,-514.25 854.62,-514.25 848.62,-508.25 848.62,-502.25 848.62,-502.25 848.62,-459.25 848.62,-459.25 848.62,-453.25 854.62,-447.25 860.62,-447.25 860.62,-447.25 925.38,-447.25 925.38,-447.25 931.38,-447.25 937.38,-453.25 937.38,-459.25 937.38,-459.25 937.38,-502.25 937.38,-502.25 937.38,-508.25 931.38,-514.25 925.38,-514.25"/>
<text xml:space="preserve" text-anchor="start" x="856.62" y="-493.95" font-family="Times,serif" font-weight="bold" font-size="14.00">SafetyCheck</text>
<text xml:space="preserve" text-anchor="start" x="856.62" y="-468.75" font-family="Times,serif" font-size="10.00">$&gt;()</text>
<text xml:space="preserve" text-anchor="start" x="856.62" y="-457.5" font-family="Times,serif" font-size="10.00"> &#160;&#160;&#160;&#160;&#160;&#160;&#160;&#160;&#160;&#160;&#160;</text>
<polygon fill="#00688b" stroke="#00688b" points="848.62,-483.75 848.62,-483.75 937.38,-483.75 937.38,-483.75 848.62,-483.75"/>
<path fill="none" stroke="#00688b" d="M860.62,-447.25C860.62,-447.25 925.38,-447.25 925.38,-447.25 931.38,-447.25 937.38,-453.25 937.38,-459.25 937.38,-459.25 937.38,-502.25 937.38,-502.25 937.38,-508.25 931.38,-514.25 925.38,-514.25 925.38,-514.25 860.62,-514.25 860.62,-514.25 854.62,-514.25 848.62,-508.25 848.62,-502.25 848.62,-502.25 848.62,-459.25 848.62,-459.25 848.62,-453.25 854.62,-447.25 860.62,-447.25"/>
</g>
<!-- EStopCategory0&#45;&gt;SafetyCheck -->
<g id="edge4" class="edge">
<title>EStopCategory0&#45;&gt;SafetyCheck</title>
<path fill="none" stroke="red" d="M885.23,-757.28C886.95,-696.28 890.05,-586.29 891.77,-525.36"/>
<polygon fill="red" stroke="red" points="895.27,-525.46 892.05,-515.37 888.27,-525.26 895.27,-525.46"/>
<text xml:space="preserve" text-anchor="middle" x="923.67" y="-725.95" font-family="Times,serif" font-size="14.00"> reset_e_stop </text>
</g>
<!-- SafetyFault&#45;&gt;SafetyCheck -->
<g id="edge5" class="edge">
<title>SafetyFault&#45;&gt;SafetyCheck</title>
<path fill="none" stroke="red" d="M940.48,-296.99C950.46,-328.16 958.85,-370.82 947,-406.75 943.33,-417.87 937.25,-428.68 930.46,-438.43"/>
<polygon fill="red" stroke="red" points="927.84,-436.09 924.69,-446.2 933.46,-440.26 927.84,-436.09"/>
<text xml:space="preserve" text-anchor="middle" x="988.45" y="-393.45" font-family="Times,serif" font-size="14.00"> reset_e_stop </text>
</g>
<!-- SafetyCheck&#45;&gt;SafetyFault -->
<g id="edge7" class="edge">
<title>SafetyCheck&#45;&gt;SafetyFault</title>
<path fill="none" stroke="red" d="M897.3,-447.33C902.1,-411.1 909.96,-351.83 915.73,-308.35"/>
<polygon fill="red" stroke="red" points="919.17,-308.98 917.02,-298.6 912.24,-308.06 919.17,-308.98"/>
<text xml:space="preserve" text-anchor="middle" x="915.68" y="-393.45" font-family="Times,serif" font-size="14.00"> $&gt; </text>
</g>
<!-- ManualIdle -->
<g id="node8" class="node">
<title>ManualIdle</title>
<path fill="azure" stroke="none" d="M438,-536.75C438,-536.75 308,-536.75 308,-536.75 302,-536.75 296,-530.75 296,-524.75 296,-524.75 296,-436.75 296,-436.75 296,-430.75 302,-424.75 308,-424.75 308,-424.75 438,-424.75 438,-424.75 444,-424.75 450,-430.75 450,-436.75 450,-436.75 450,-524.75 450,-524.75 450,-530.75 444,-536.75 438,-536.75"/>
<text xml:space="preserve" text-anchor="start" x="338.88" y="-516.45" font-family="Times,serif" font-weight="bold" font-size="14.00">ManualIdle</text>
<text xml:space="preserve" text-anchor="start" x="304" y="-491.25" font-family="Times,serif" font-size="10.00">move_to(x: float, y: float, z: float)</text>
<text xml:space="preserve" text-anchor="start" x="304" y="-480" font-family="Times,serif" font-size="10.00">grip()</text>
<text xml:space="preserve" text-anchor="start" x="304" y="-468.75" font-family="Times,serif" font-size="10.00">release()</text>
<text xml:space="preserve" text-anchor="start" x="304" y="-457.5" font-family="Times,serif" font-size="10.00">set_auto()</text>
<text xml:space="preserve" text-anchor="start" x="304" y="-446.25" font-family="Times,serif" font-size="10.00">status()</text>
<text xml:space="preserve" text-anchor="start" x="346" y="-435" font-family="Times,serif" font-size="10.00"> &#160;&#160;&#160;&#160;&#160;&#160;&#160;&#160;&#160;&#160;&#160;&#160;&#160;&#160;&#160;&#160;&#160;&#160;&#160;&#160;&#160;&#160;&#160;</text>
<polygon fill="#00688b" stroke="#00688b" points="296,-506.25 296,-506.25 450,-506.25 450,-506.25 296,-506.25"/>
<path fill="none" stroke="#00688b" d="M308,-424.75C308,-424.75 438,-424.75 438,-424.75 444,-424.75 450,-430.75 450,-436.75 450,-436.75 450,-524.75 450,-524.75 450,-530.75 444,-536.75 438,-536.75 438,-536.75 308,-536.75 308,-536.75 302,-536.75 296,-530.75 296,-524.75 296,-524.75 296,-436.75 296,-436.75 296,-430.75 302,-424.75 308,-424.75"/>
</g>
<!-- SafetyCheck&#45;&gt;ManualIdle -->
<g id="edge6" class="edge">
<title>SafetyCheck&#45;&gt;ManualIdle</title>
<path fill="none" stroke="red" d="M893.47,-514.14C892.05,-557.7 882.21,-632.53 834,-667.88 699.59,-766.43 599.32,-757.81 459,-667.88 417.83,-641.49 396.1,-589.88 384.8,-547.53"/>
<polygon fill="red" stroke="red" points="388.21,-546.74 382.38,-537.9 381.42,-548.45 388.21,-546.74"/>
<text xml:space="preserve" text-anchor="middle" x="628" y="-725.95" font-family="Times,serif" font-size="14.00"> $&gt; </text>
</g>
<!-- Safety -->
<g id="node6" class="node">
<title>Safety</title>
<ellipse fill="azure" stroke="#00688b" cx="822" cy="-480.75" rx="0.36" ry="0.36"/>
</g>
<!-- Manual -->
<g id="node7" class="node">
<title>Manual</title>
<ellipse fill="azure" stroke="#00688b" cx="468" cy="-480.75" rx="0.36" ry="0.36"/>
</g>
<!-- AutoIdle -->
<g id="node13" class="node">
<title>AutoIdle</title>
<path fill="azure" stroke="none" d="M711.12,-297.25C711.12,-297.25 608.88,-297.25 608.88,-297.25 602.88,-297.25 596.88,-291.25 596.88,-285.25 596.88,-285.25 596.88,-219.75 596.88,-219.75 596.88,-213.75 602.88,-207.75 608.88,-207.75 608.88,-207.75 711.12,-207.75 711.12,-207.75 717.12,-207.75 723.12,-213.75 723.12,-219.75 723.12,-219.75 723.12,-285.25 723.12,-285.25 723.12,-291.25 717.12,-297.25 711.12,-297.25"/>
<text xml:space="preserve" text-anchor="start" x="634.5" y="-276.95" font-family="Times,serif" font-weight="bold" font-size="14.00">AutoIdle</text>
<text xml:space="preserve" text-anchor="start" x="604.88" y="-251.75" font-family="Times,serif" font-size="10.00">run_program(program: list)</text>
<text xml:space="preserve" text-anchor="start" x="604.88" y="-240.5" font-family="Times,serif" font-size="10.00">set_manual()</text>
<text xml:space="preserve" text-anchor="start" x="604.88" y="-229.25" font-family="Times,serif" font-size="10.00">status()</text>
<text xml:space="preserve" text-anchor="start" x="633" y="-218" font-family="Times,serif" font-size="10.00"> &#160;&#160;&#160;&#160;&#160;&#160;&#160;&#160;&#160;&#160;&#160;&#160;&#160;&#160;&#160;&#160;&#160;&#160;&#160;&#160;&#160;&#160;&#160;</text>
<polygon fill="#00688b" stroke="#00688b" points="596.88,-266.75 596.88,-266.75 723.12,-266.75 723.12,-266.75 596.88,-266.75"/>
<path fill="none" stroke="#00688b" d="M608.88,-207.75C608.88,-207.75 711.12,-207.75 711.12,-207.75 717.12,-207.75 723.12,-213.75 723.12,-219.75 723.12,-219.75 723.12,-285.25 723.12,-285.25 723.12,-291.25 717.12,-297.25 711.12,-297.25 711.12,-297.25 608.88,-297.25 608.88,-297.25 602.88,-297.25 596.88,-291.25 596.88,-285.25 596.88,-285.25 596.88,-219.75 596.88,-219.75 596.88,-213.75 602.88,-207.75 608.88,-207.75"/>
</g>
<!-- Manual&#45;&gt;AutoIdle -->
<g id="edge16" class="edge">
<title>Manual&#45;&gt;AutoIdle</title>
<path fill="none" stroke="red" d="M476,-421.4C523.36,-387.78 692.81,-447.68 731,-406.75 757.6,-378.23 737.4,-337.99 711.85,-305.89"/>
<polygon fill="red" stroke="red" points="714.58,-303.7 705.5,-298.24 709.19,-308.17 714.58,-303.7"/>
<text xml:space="preserve" text-anchor="middle" x="766.36" y="-393.45" font-family="Times,serif" font-size="14.00"> set_auto </text>
</g>
<!-- ManualMoving -->
<g id="node9" class="node">
<title>ManualMoving</title>
<path fill="azure" stroke="none" d="M288.38,-308.5C288.38,-308.5 205.62,-308.5 205.62,-308.5 199.62,-308.5 193.62,-302.5 193.62,-296.5 193.62,-296.5 193.62,-208.5 193.62,-208.5 193.62,-202.5 199.62,-196.5 205.62,-196.5 205.62,-196.5 288.38,-196.5 288.38,-196.5 294.38,-196.5 300.38,-202.5 300.38,-208.5 300.38,-208.5 300.38,-296.5 300.38,-296.5 300.38,-302.5 294.38,-308.5 288.38,-308.5"/>
<text xml:space="preserve" text-anchor="start" x="201.62" y="-288.2" font-family="Times,serif" font-weight="bold" font-size="14.00">ManualMoving</text>
<text xml:space="preserve" text-anchor="start" x="201.62" y="-263" font-family="Times,serif" font-size="10.00">$&gt;()</text>
<text xml:space="preserve" text-anchor="start" x="201.62" y="-251.75" font-family="Times,serif" font-size="10.00">&lt;$()</text>
<text xml:space="preserve" text-anchor="start" x="201.62" y="-240.5" font-family="Times,serif" font-size="10.00">tick()</text>
<text xml:space="preserve" text-anchor="start" x="201.62" y="-229.25" font-family="Times,serif" font-size="10.00">stop_motion()</text>
<text xml:space="preserve" text-anchor="start" x="201.62" y="-218" font-family="Times,serif" font-size="10.00">status()</text>
<text xml:space="preserve" text-anchor="start" x="203.5" y="-206.75" font-family="Times,serif" font-size="10.00"> &#160;&#160;&#160;&#160;&#160;&#160;&#160;&#160;&#160;&#160;&#160;&#160;&#160;&#160;&#160;&#160;&#160;&#160;&#160;&#160;&#160;&#160;&#160;</text>
<polygon fill="#00688b" stroke="#00688b" points="193.62,-278 193.62,-278 300.38,-278 300.38,-278 193.62,-278"/>
<path fill="none" stroke="#00688b" d="M205.62,-196.5C205.62,-196.5 288.38,-196.5 288.38,-196.5 294.38,-196.5 300.38,-202.5 300.38,-208.5 300.38,-208.5 300.38,-296.5 300.38,-296.5 300.38,-302.5 294.38,-308.5 288.38,-308.5 288.38,-308.5 205.62,-308.5 205.62,-308.5 199.62,-308.5 193.62,-302.5 193.62,-296.5 193.62,-296.5 193.62,-208.5 193.62,-208.5 193.62,-202.5 199.62,-196.5 205.62,-196.5"/>
</g>
<!-- ManualIdle&#45;&gt;ManualMoving -->
<g id="edge8" class="edge">
<title>ManualIdle&#45;&gt;ManualMoving</title>
<path fill="none" stroke="red" d="M296.15,-450.97C277.31,-440.08 259.43,-425.61 248.5,-406.75 233.49,-380.84 231.38,-348.08 233.74,-319.52"/>
<polygon fill="red" stroke="red" points="237.19,-320.2 234.74,-309.89 230.23,-319.48 237.19,-320.2"/>
<text xml:space="preserve" text-anchor="middle" x="276.25" y="-393.45" font-family="Times,serif" font-size="14.00"> move_to </text>
</g>
<!-- ManualGripping -->
<g id="node10" class="node">
<title>ManualGripping</title>
<path fill="azure" stroke="none" d="M141.88,-286C141.88,-286 50.12,-286 50.12,-286 44.12,-286 38.12,-280 38.12,-274 38.12,-274 38.12,-231 38.12,-231 38.12,-225 44.12,-219 50.12,-219 50.12,-219 141.88,-219 141.88,-219 147.88,-219 153.88,-225 153.88,-231 153.88,-231 153.88,-274 153.88,-274 153.88,-280 147.88,-286 141.88,-286"/>
<text xml:space="preserve" text-anchor="start" x="46.12" y="-265.7" font-family="Times,serif" font-weight="bold" font-size="14.00">ManualGripping</text>
<text xml:space="preserve" text-anchor="start" x="46.12" y="-240.5" font-family="Times,serif" font-size="10.00">$&gt;()</text>
<text xml:space="preserve" text-anchor="start" x="46.12" y="-229.25" font-family="Times,serif" font-size="10.00"> &#160;&#160;&#160;&#160;&#160;&#160;&#160;&#160;&#160;&#160;&#160;&#160;&#160;&#160;&#160;&#160;&#160;&#160;&#160;&#160;&#160;&#160;&#160;</text>
<polygon fill="#00688b" stroke="#00688b" points="38.12,-255.5 38.12,-255.5 153.88,-255.5 153.88,-255.5 38.12,-255.5"/>
<path fill="none" stroke="#00688b" d="M50.12,-219C50.12,-219 141.88,-219 141.88,-219 147.88,-219 153.88,-225 153.88,-231 153.88,-231 153.88,-274 153.88,-274 153.88,-280 147.88,-286 141.88,-286 141.88,-286 50.12,-286 50.12,-286 44.12,-286 38.12,-280 38.12,-274 38.12,-274 38.12,-231 38.12,-231 38.12,-225 44.12,-219 50.12,-219"/>
</g>
<!-- ManualIdle&#45;&gt;ManualGripping -->
<g id="edge9" class="edge">
<title>ManualIdle&#45;&gt;ManualGripping</title>
<path fill="none" stroke="red" d="M296.37,-473.23C210.98,-464.19 80.91,-444.51 50.75,-406.75 25.14,-374.69 44.23,-328.52 64.91,-295.25"/>
<polygon fill="red" stroke="red" points="67.71,-297.36 70.22,-287.07 61.84,-293.56 67.71,-297.36"/>
<text xml:space="preserve" text-anchor="middle" x="65.38" y="-393.45" font-family="Times,serif" font-size="14.00"> grip </text>
</g>
<!-- ManualReleasing -->
<g id="node11" class="node">
<title>ManualReleasing</title>
<path fill="azure" stroke="none" d="M439.62,-286C439.62,-286 346.38,-286 346.38,-286 340.38,-286 334.38,-280 334.38,-274 334.38,-274 334.38,-231 334.38,-231 334.38,-225 340.38,-219 346.38,-219 346.38,-219 439.62,-219 439.62,-219 445.62,-219 451.62,-225 451.62,-231 451.62,-231 451.62,-274 451.62,-274 451.62,-280 445.62,-286 439.62,-286"/>
<text xml:space="preserve" text-anchor="start" x="342.38" y="-265.7" font-family="Times,serif" font-weight="bold" font-size="14.00">ManualReleasing</text>
<text xml:space="preserve" text-anchor="start" x="342.38" y="-240.5" font-family="Times,serif" font-size="10.00">$&gt;()</text>
<text xml:space="preserve" text-anchor="start" x="342.38" y="-229.25" font-family="Times,serif" font-size="10.00"> &#160;&#160;&#160;&#160;&#160;&#160;&#160;&#160;&#160;&#160;&#160;&#160;&#160;&#160;&#160;&#160;&#160;&#160;&#160;&#160;&#160;&#160;&#160;</text>
<polygon fill="#00688b" stroke="#00688b" points="334.38,-255.5 334.38,-255.5 451.62,-255.5 451.62,-255.5 334.38,-255.5"/>
<path fill="none" stroke="#00688b" d="M346.38,-219C346.38,-219 439.62,-219 439.62,-219 445.62,-219 451.62,-225 451.62,-231 451.62,-231 451.62,-274 451.62,-274 451.62,-280 445.62,-286 439.62,-286 439.62,-286 346.38,-286 346.38,-286 340.38,-286 334.38,-280 334.38,-274 334.38,-274 334.38,-231 334.38,-231 334.38,-225 340.38,-219 346.38,-219"/>
</g>
<!-- ManualIdle&#45;&gt;ManualReleasing -->
<g id="edge10" class="edge">
<title>ManualIdle&#45;&gt;ManualReleasing</title>
<path fill="none" stroke="red" d="M375.6,-424.81C376.28,-413.38 377.08,-401.42 378,-390.25 380.58,-359.05 384.45,-323.94 387.62,-297.11"/>
<polygon fill="red" stroke="red" points="391.08,-297.63 388.79,-287.28 384.13,-296.8 391.08,-297.63"/>
<text xml:space="preserve" text-anchor="middle" x="400.5" y="-393.45" font-family="Times,serif" font-size="14.00"> release </text>
</g>
<!-- ManualIdle&#45;&gt;AutoIdle -->
<g id="edge11" class="edge">
<title>ManualIdle&#45;&gt;AutoIdle</title>
<path fill="none" stroke="red" d="M449.96,-428.21C452.96,-426.95 455.98,-425.78 459,-424.75 500.37,-410.57 625,-438.58 655,-406.75 679.17,-381.11 679.68,-341 674.54,-308.25"/>
<polygon fill="red" stroke="red" points="678,-307.72 672.78,-298.5 671.11,-308.96 678,-307.72"/>
<text xml:space="preserve" text-anchor="middle" x="692.75" y="-393.45" font-family="Times,serif" font-size="14.00"> set_auto </text>
</g>
<!-- ManualMoving&#45;&gt;ManualIdle -->
<g id="edge12" class="edge">
<title>ManualMoving&#45;&gt;ManualIdle</title>
<path fill="none" stroke="red" d="M277.44,-308.16C295.39,-340.39 318.21,-381.37 337.05,-415.19"/>
<polygon fill="red" stroke="red" points="333.84,-416.63 341.76,-423.66 339.95,-413.22 333.84,-416.63"/>
<text xml:space="preserve" text-anchor="middle" x="346.12" y="-393.45" font-family="Times,serif" font-size="14.00"> tick </text>
</g>
<!-- ManualMoving&#45;&gt;ManualIdle -->
<g id="edge13" class="edge">
<title>ManualMoving&#45;&gt;ManualIdle</title>
<path fill="none" stroke="red" d="M203.28,-308.35C187.04,-332.1 170.55,-361.1 162.25,-390.25 160.24,-397.3 158,-400.78 162.25,-406.75 190.09,-445.86 240.41,-464.21 284.89,-472.74"/>
<polygon fill="red" stroke="red" points="284.11,-476.15 294.56,-474.44 285.32,-469.26 284.11,-476.15"/>
<text xml:space="preserve" text-anchor="middle" x="200.12" y="-393.45" font-family="Times,serif" font-size="14.00"> stop_motion </text>
</g>
<!-- ManualGripping&#45;&gt;ManualIdle -->
<g id="edge14" class="edge">
<title>ManualGripping&#45;&gt;ManualIdle</title>
<path fill="none" stroke="red" d="M95.08,-285.69C95.89,-320.07 102.54,-374.01 133.5,-406.75 172.44,-447.93 233.85,-466.1 284.73,-474.02"/>
<polygon fill="red" stroke="red" points="284.18,-477.47 294.58,-475.43 285.18,-470.54 284.18,-477.47"/>
<text xml:space="preserve" text-anchor="middle" x="144.75" y="-393.45" font-family="Times,serif" font-size="14.00"> $&gt; </text>
</g>
<!-- ManualReleasing&#45;&gt;ManualIdle -->
<g id="edge15" class="edge">
<title>ManualReleasing&#45;&gt;ManualIdle</title>
<path fill="none" stroke="red" d="M408.52,-285.99C421.36,-317.35 435.63,-365.96 423,-406.75 422.19,-409.35 421.26,-411.94 420.22,-414.51"/>
<polygon fill="red" stroke="red" points="417.06,-413 416.04,-423.55 423.42,-415.94 417.06,-413"/>
<text xml:space="preserve" text-anchor="middle" x="437.87" y="-393.45" font-family="Times,serif" font-size="14.00"> $&gt; </text>
</g>
<!-- Auto -->
<g id="node12" class="node">
<title>Auto</title>
<ellipse fill="azure" stroke="#00688b" cx="524" cy="-252.5" rx="0.36" ry="0.36"/>
</g>
<!-- Auto&#45;&gt;ManualIdle -->
<g id="edge22" class="edge">
<title>Auto&#45;&gt;ManualIdle</title>
<path fill="none" stroke="red" d="M516,-292.83C509.31,-319.58 497.91,-354.95 480,-382.25 472.04,-394.39 462.22,-406.02 451.79,-416.74"/>
<polygon fill="red" stroke="red" points="449.41,-414.17 444.78,-423.7 454.35,-419.13 449.41,-414.17"/>
<text xml:space="preserve" text-anchor="middle" x="508.15" y="-393.45" font-family="Times,serif" font-size="14.00"> set_manual </text>
</g>
<!-- AutoIdle&#45;&gt;ManualIdle -->
<g id="edge18" class="edge">
<title>AutoIdle&#45;&gt;ManualIdle</title>
<path fill="none" stroke="red" d="M639.22,-297.18C620.19,-332.35 588.64,-380.14 547,-406.75 515.99,-426.57 498.81,-412.39 459.98,-425.04"/>
<polygon fill="red" stroke="red" points="459.21,-421.59 451.05,-428.34 461.64,-428.16 459.21,-421.59"/>
<text xml:space="preserve" text-anchor="middle" x="602.37" y="-393.45" font-family="Times,serif" font-size="14.00"> set_manual </text>
</g>
<!-- AutoExecuting -->
<g id="node14" class="node">
<title>AutoExecuting</title>
<path fill="azure" stroke="none" d="M620.5,-144C620.5,-144 541.5,-144 541.5,-144 535.5,-144 529.5,-138 529.5,-132 529.5,-132 529.5,-44 529.5,-44 529.5,-38 535.5,-32 541.5,-32 541.5,-32 620.5,-32 620.5,-32 626.5,-32 632.5,-38 632.5,-44 632.5,-44 632.5,-132 632.5,-132 632.5,-138 626.5,-144 620.5,-144"/>
<text xml:space="preserve" text-anchor="start" x="537.88" y="-123.7" font-family="Times,serif" font-weight="bold" font-size="14.00">AutoExecuting</text>
<text xml:space="preserve" text-anchor="start" x="537.5" y="-98.5" font-family="Times,serif" font-size="10.00">$&gt;()</text>
<text xml:space="preserve" text-anchor="start" x="537.5" y="-87.25" font-family="Times,serif" font-size="10.00">tick()</text>
<text xml:space="preserve" text-anchor="start" x="537.5" y="-76" font-family="Times,serif" font-size="10.00">program_step_done()</text>
<text xml:space="preserve" text-anchor="start" x="537.5" y="-64.75" font-family="Times,serif" font-size="10.00">stop_motion()</text>
<text xml:space="preserve" text-anchor="start" x="537.5" y="-53.5" font-family="Times,serif" font-size="10.00">status()</text>
<text xml:space="preserve" text-anchor="start" x="554" y="-42.25" font-family="Times,serif" font-size="10.00"> &#160;&#160;&#160;&#160;&#160;&#160;&#160;&#160;&#160;&#160;&#160;&#160;&#160;&#160;&#160;&#160;&#160;&#160;&#160;&#160;&#160;&#160;&#160;</text>
<polygon fill="#00688b" stroke="#00688b" points="529.5,-113.5 529.5,-113.5 632.5,-113.5 632.5,-113.5 529.5,-113.5"/>
<path fill="none" stroke="#00688b" d="M541.5,-32C541.5,-32 620.5,-32 620.5,-32 626.5,-32 632.5,-38 632.5,-44 632.5,-44 632.5,-132 632.5,-132 632.5,-138 626.5,-144 620.5,-144 620.5,-144 541.5,-144 541.5,-144 535.5,-144 529.5,-138 529.5,-132 529.5,-132 529.5,-44 529.5,-44 529.5,-38 535.5,-32 541.5,-32"/>
</g>
<!-- AutoIdle&#45;&gt;AutoExecuting -->
<g id="edge17" class="edge">
<title>AutoIdle&#45;&gt;AutoExecuting</title>
<path fill="none" stroke="red" d="M596.91,-227.19C576,-215.75 555.07,-199.83 543.25,-178.5 539.09,-171 538.08,-162.94 539.12,-154.85"/>
<polygon fill="red" stroke="red" points="542.48,-155.85 541.37,-145.31 535.67,-154.24 542.48,-155.85"/>
<text xml:space="preserve" text-anchor="middle" x="582.62" y="-165.2" font-family="Times,serif" font-size="14.00"> run_program </text>
</g>
<!-- AutoExecuting&#45;&gt;AutoIdle -->
<g id="edge20" class="edge">
<title>AutoExecuting&#45;&gt;AutoIdle</title>
<path fill="none" stroke="red" d="M612.55,-143.66C615.84,-149.8 619.05,-156 622,-162 627.53,-173.25 633.05,-185.51 638.1,-197.24"/>
<polygon fill="red" stroke="red" points="634.87,-198.59 642,-206.43 641.31,-195.85 634.87,-198.59"/>
<text xml:space="preserve" text-anchor="middle" x="666.7" y="-165.2" font-family="Times,serif" font-size="14.00"> stop_motion </text>
</g>
<!-- AutoExecuting&#45;&gt;AutoIdle -->
<g id="edge21" class="edge">
<title>AutoExecuting&#45;&gt;AutoIdle</title>
<path fill="none" stroke="red" d="M632.34,-104.13C660.3,-115.29 692.49,-133.57 709,-162 715.74,-173.61 714.2,-186.19 708.69,-198.14"/>
<polygon fill="red" stroke="red" points="705.74,-196.24 703.95,-206.68 711.86,-199.64 705.74,-196.24"/>
<text xml:space="preserve" text-anchor="middle" x="724.65" y="-165.2" font-family="Times,serif" font-size="14.00"> $&gt; </text>
</g>
<!-- AutoExecuting&#45;&gt;AutoExecuting -->
<g id="edge19" class="edge">
<title>AutoExecuting&#45;&gt;AutoExecuting</title>
<path fill="none" stroke="red" d="M632.22,-102.88C642.85,-101.31 650.5,-96.35 650.5,-88 650.5,-82.91 647.66,-79.08 643.04,-76.51"/>
<polygon fill="red" stroke="red" points="644.25,-73.22 633.66,-73.57 642.16,-79.9 644.25,-73.22"/>
<text xml:space="preserve" text-anchor="middle" x="708.25" y="-82.95" font-family="Times,serif" font-size="14.00"> program_step_done </text>
</g>
</g>
</svg>
