<?xml version="1.0" encoding="UTF-8" standalone="no"?>
<!DOCTYPE svg PUBLIC "-//W3C//DTD SVG 1.1//EN"
 "http://www.w3.org/Graphics/SVG/1.1/DTD/svg11.dtd">
<!-- Generated by graphviz version 14.1.5 (20260411.2331)
 -->
<!-- Title: RobotArm Pages: 1 -->
<svg width="1071pt" height="1012pt"
 viewBox="0.00 0.00 1071.00 1012.00" xmlns="http://www.w3.org/2000/svg" xmlns:xlink="http://www.w3.org/1999/xlink">
<g id="graph0" class="graph" transform="scale(1 1) rotate(0) translate(4 1008.25)">
<title>RobotArm</title>
<polygon fill="white" stroke="none" points="-4,4 -4,-1008.25 1066.89,-1008.25 1066.89,4 -4,4"/>
<g id="clust1" class="cluster">
<title>cluster_Safety</title>
<path fill="none" stroke="black" d="M20,-8C20,-8 840,-8 840,-8 846,-8 852,-14 852,-20 852,-20 852,-860.25 852,-860.25 852,-866.25 846,-872.25 840,-872.25 840,-872.25 20,-872.25 20,-872.25 14,-872.25 8,-866.25 8,-860.25 8,-860.25 8,-20 8,-20 8,-14 14,-8 20,-8"/>
<text xml:space="preserve" text-anchor="start" x="412.75" y="-851.5" font-family="Times,serif" font-size="14.00">Safety</text>
<polygon fill="black" stroke="black" points="408.75,-844.75 408.75,-844.75 451.25,-844.75 451.25,-844.75 408.75,-844.75"/>
</g>
<g id="clust2" class="cluster">
<title>cluster_Operational</title>
<path fill="none" stroke="black" d="M28,-16C28,-16 824,-16 824,-16 830,-16 836,-22 836,-28 836,-28 836,-813.75 836,-813.75 836,-819.75 830,-825.75 824,-825.75 824,-825.75 28,-825.75 28,-825.75 22,-825.75 16,-819.75 16,-813.75 16,-813.75 16,-28 16,-28 16,-22 22,-16 28,-16"/>
<text xml:space="preserve" text-anchor="start" x="394.12" y="-805" font-family="Times,serif" font-size="14.00">Operational</text>
<text xml:space="preserve" text-anchor="start" x="369.75" y="-786.25" font-family="Times,serif" font-size="10.00">e_stop()</text>
<text xml:space="preserve" text-anchor="start" x="369.75" y="-775" font-family="Times,serif" font-size="10.00">safety_fault(fault_code: str)</text>
<text xml:space="preserve" text-anchor="start" x="403.5" y="-763.75" font-family="Times,serif" font-size="10.00"> &#160;&#160;&#160;&#160;&#160;&#160;&#160;&#160;&#160;&#160;&#160;&#160;&#160;&#160;&#160;&#160;&#160;&#160;&#160;</text>
<polygon fill="black" stroke="black" points="365.75,-798.25 365.75,-798.25 486.25,-798.25 486.25,-798.25 365.75,-798.25"/>
</g>
<g id="clust3" class="cluster">
<title>cluster_Manual</title>
<path fill="none" stroke="black" d="M36,-188.5C36,-188.5 486,-188.5 486,-188.5 492,-188.5 498,-194.5 498,-200.5 498,-200.5 498,-722.25 498,-722.25 498,-728.25 492,-734.25 486,-734.25 486,-734.25 36,-734.25 36,-734.25 30,-734.25 24,-728.25 24,-722.25 24,-722.25 24,-200.5 24,-200.5 24,-194.5 30,-188.5 36,-188.5"/>
<text xml:space="preserve" text-anchor="start" x="240" y="-713.5" font-family="Times,serif" font-size="14.00">Manual</text>
<text xml:space="preserve" text-anchor="start" x="234" y="-694.75" font-family="Times,serif" font-size="10.00">set_auto()</text>
<text xml:space="preserve" text-anchor="start" x="234" y="-683.5" font-family="Times,serif" font-size="10.00"> &#160;&#160;&#160;&#160;&#160;&#160;&#160;&#160;&#160;&#160;&#160;&#160;&#160;&#160;&#160;&#160;&#160;&#160;&#160;&#160;&#160;&#160;&#160;</text>
<polygon fill="black" stroke="black" points="230,-706.75 230,-706.75 292,-706.75 292,-706.75 230,-706.75"/>
</g>
<g id="clust4" class="cluster">
<title>cluster_Auto</title>
<path fill="none" stroke="black" d="M532,-24C532,-24 801,-24 801,-24 807,-24 813,-30 813,-36 813,-36 813,-437.75 813,-437.75 813,-443.75 807,-449.75 801,-449.75 801,-449.75 532,-449.75 532,-449.75 526,-449.75 520,-443.75 520,-437.75 520,-437.75 520,-36 520,-36 520,-30 526,-24 532,-24"/>
<text xml:space="preserve" text-anchor="start" x="653" y="-429" font-family="Times,serif" font-size="14.00">Auto</text>
<text xml:space="preserve" text-anchor="start" x="597.5" y="-410.25" font-family="Times,serif" font-size="10.00">set_manual()</text>
<text xml:space="preserve" text-anchor="start" x="597.5" y="-399" font-family="Times,serif" font-size="10.00">move_to(x: float, y: float, z: float)</text>
<text xml:space="preserve" text-anchor="start" x="639.5" y="-387.75" font-family="Times,serif" font-size="10.00"> &#160;&#160;&#160;&#160;&#160;&#160;&#160;&#160;&#160;&#160;&#160;&#160;&#160;&#160;&#160;&#160;&#160;&#160;&#160;&#160;&#160;&#160;&#160;</text>
<polygon fill="black" stroke="black" points="593.5,-422.25 593.5,-422.25 739.5,-422.25 739.5,-422.25 593.5,-422.25"/>
</g>
<!-- Entry -->
<g id="node1" class="node">
<title>Entry</title>
<ellipse fill="black" stroke="#00688b" cx="816" cy="-959.5" rx="7.2" ry="7.2"/>
</g>
<!-- Operational -->
<g id="node2" class="node">
<title>Operational</title>
<ellipse fill="azure" stroke="#00688b" cx="825" cy="-548.25" rx="0.36" ry="0.36"/>
</g>
<!-- Entry&#45;&gt;Operational -->
<g id="edge1" class="edge">
<title>Entry&#45;&gt;Operational</title>
<path fill="none" stroke="red" d="M816.14,-952.07C817.16,-905.56 823.43,-620.66 824.75,-560.43"/>
<polygon fill="red" stroke="red" points="828.24,-560.9 824.97,-550.83 821.25,-560.75 828.24,-560.9"/>
</g>
<!-- EStopCategory0 -->
<g id="node3" class="node">
<title>EStopCategory0</title>
<path fill="azure" stroke="none" d="M949.62,-1004.25C949.62,-1004.25 862.38,-1004.25 862.38,-1004.25 856.38,-1004.25 850.38,-998.25 850.38,-992.25 850.38,-992.25 850.38,-926.75 850.38,-926.75 850.38,-920.75 856.38,-914.75 862.38,-914.75 862.38,-914.75 949.62,-914.75 949.62,-914.75 955.62,-914.75 961.62,-920.75 961.62,-926.75 961.62,-926.75 961.62,-992.25 961.62,-992.25 961.62,-998.25 955.62,-1004.25 949.62,-1004.25"/>
<text xml:space="preserve" text-anchor="start" x="858.38" y="-983.95" font-family="Times,serif" font-weight="bold" font-size="14.00">EStopCategory0</text>
<text xml:space="preserve" text-anchor="start" x="858.38" y="-958.75" font-family="Times,serif" font-size="10.00">$&gt;()</text>
<text xml:space="preserve" text-anchor="start" x="858.38" y="-947.5" font-family="Times,serif" font-size="10.00">reset_e_stop()</text>
<text xml:space="preserve" text-anchor="start" x="858.38" y="-936.25" font-family="Times,serif" font-size="10.00">status()</text>
<text xml:space="preserve" text-anchor="start" x="873.38" y="-925" font-family="Times,serif" font-size="10.00"> &#160;&#160;&#160;&#160;&#160;&#160;&#160;&#160;&#160;&#160;&#160;</text>
<polygon fill="#00688b" stroke="#00688b" points="850.38,-973.75 850.38,-973.75 961.62,-973.75 961.62,-973.75 850.38,-973.75"/>
<path fill="none" stroke="#00688b" d="M862.38,-914.75C862.38,-914.75 949.62,-914.75 949.62,-914.75 955.62,-914.75 961.62,-920.75 961.62,-926.75 961.62,-926.75 961.62,-992.25 961.62,-992.25 961.62,-998.25 955.62,-1004.25 949.62,-1004.25 949.62,-1004.25 862.38,-1004.25 862.38,-1004.25 856.38,-1004.25 850.38,-998.25 850.38,-992.25 850.38,-992.25 850.38,-926.75 850.38,-926.75 850.38,-920.75 856.38,-914.75 862.38,-914.75"/>
</g>
<!-- Operational&#45;&gt;EStopCategory0 -->
<g id="edge2" class="edge">
<title>Operational&#45;&gt;EStopCategory0</title>
<path fill="none" stroke="red" d="M815.13,-825.75C818.65,-841.71 823.2,-857.32 829,-872.25 833.67,-884.26 840.84,-895.67 848.96,-906.03"/>
<polygon fill="red" stroke="red" points="846.24,-908.24 855.33,-913.68 851.62,-903.76 846.24,-908.24"/>
<text xml:space="preserve" text-anchor="middle" x="861.96" y="-883.45" font-family="Times,serif" font-size="14.00"> e_stop </text>
</g>
<!-- SafetyFault -->
<g id="node4" class="node">
<title>SafetyFault</title>
<path fill="azure" stroke="none" d="M974.38,-297.25C974.38,-297.25 915.62,-297.25 915.62,-297.25 909.62,-297.25 903.62,-291.25 903.62,-285.25 903.62,-285.25 903.62,-219.75 903.62,-219.75 903.62,-213.75 909.62,-207.75 915.62,-207.75 915.62,-207.75 974.38,-207.75 974.38,-207.75 980.38,-207.75 986.38,-213.75 986.38,-219.75 986.38,-219.75 986.38,-285.25 986.38,-285.25 986.38,-291.25 980.38,-297.25 974.38,-297.25"/>
<text xml:space="preserve" text-anchor="start" x="911.62" y="-276.95" font-family="Times,serif" font-weight="bold" font-size="14.00">SafetyFault</text>
<text xml:space="preserve" text-anchor="start" x="911.62" y="-251.75" font-family="Times,serif" font-size="10.00">$&gt;()</text>
<text xml:space="preserve" text-anchor="start" x="911.62" y="-240.5" font-family="Times,serif" font-size="10.00">reset_e_stop()</text>
<text xml:space="preserve" text-anchor="start" x="911.62" y="-229.25" font-family="Times,serif" font-size="10.00">status()</text>
<text xml:space="preserve" text-anchor="start" x="926.62" y="-218" font-family="Times,serif" font-size="10.00"> &#160;&#160;&#160;&#160;&#160;&#160;&#160;&#160;&#160;&#160;&#160;</text>
<polygon fill="#00688b" stroke="#00688b" points="903.62,-266.75 903.62,-266.75 986.38,-266.75 986.38,-266.75 903.62,-266.75"/>
<path fill="none" stroke="#00688b" d="M915.62,-207.75C915.62,-207.75 974.38,-207.75 974.38,-207.75 980.38,-207.75 986.38,-213.75 986.38,-219.75 986.38,-219.75 986.38,-285.25 986.38,-285.25 986.38,-291.25 980.38,-297.25 974.38,-297.25 974.38,-297.25 915.62,-297.25 915.62,-297.25 909.62,-297.25 903.62,-291.25 903.62,-285.25 903.62,-285.25 903.62,-219.75 903.62,-219.75 903.62,-213.75 909.62,-207.75 915.62,-207.75"/>
</g>
<!-- Operational&#45;&gt;SafetyFault -->
<g id="edge3" class="edge">
<title>Operational&#45;&gt;SafetyFault</title>
<path fill="none" stroke="red" d="M836,-468.79C855.62,-408.61 887.68,-347.98 911.96,-306.47"/>
<polygon fill="red" stroke="red" points="914.81,-308.53 916.89,-298.14 908.78,-304.97 914.81,-308.53"/>
<text xml:space="preserve" text-anchor="middle" x="875.31" y="-460.95" font-family="Times,serif" font-size="14.00"> safety_fault </text>
</g>
<!-- SafetyCheck -->
<g id="node5" class="node">
<title>SafetyCheck</title>
<path fill="azure" stroke="none" d="M947.38,-581.75C947.38,-581.75 882.62,-581.75 882.62,-581.75 876.62,-581.75 870.62,-575.75 870.62,-569.75 870.62,-569.75 870.62,-526.75 870.62,-526.75 870.62,-520.75 876.62,-514.75 882.62,-514.75 882.62,-514.75 947.38,-514.75 947.38,-514.75 953.38,-514.75 959.38,-520.75 959.38,-526.75 959.38,-526.75 959.38,-569.75 959.38,-569.75 959.38,-575.75 953.38,-581.75 947.38,-581.75"/>
<text xml:space="preserve" text-anchor="start" x="878.62" y="-561.45" font-family="Times,serif" font-weight="bold" font-size="14.00">SafetyCheck</text>
<text xml:space="preserve" text-anchor="start" x="878.62" y="-536.25" font-family="Times,serif" font-size="10.00">$&gt;()</text>
<text xml:space="preserve" text-anchor="start" x="878.62" y="-525" font-family="Times,serif" font-size="10.00"> &#160;&#160;&#160;&#160;&#160;&#160;&#160;&#160;&#160;&#160;&#160;</text>
<polygon fill="#00688b" stroke="#00688b" points="870.62,-551.25 870.62,-551.25 959.38,-551.25 959.38,-551.25 870.62,-551.25"/>
<path fill="none" stroke="#00688b" d="M882.62,-514.75C882.62,-514.75 947.38,-514.75 947.38,-514.75 953.38,-514.75 959.38,-520.75 959.38,-526.75 959.38,-526.75 959.38,-569.75 959.38,-569.75 959.38,-575.75 953.38,-581.75 947.38,-581.75 947.38,-581.75 882.62,-581.75 882.62,-581.75 876.62,-581.75 870.62,-575.75 870.62,-569.75 870.62,-569.75 870.62,-526.75 870.62,-526.75 870.62,-520.75 876.62,-514.75 882.62,-514.75"/>
</g>
<!-- EStopCategory0&#45;&gt;SafetyCheck -->
<g id="edge4" class="edge">
<title>EStopCategory0&#45;&gt;SafetyCheck</title>
<path fill="none" stroke="red" d="M906.95,-915.09C908.68,-836.63 912.3,-672.04 914.03,-593.19"/>
<polygon fill="red" stroke="red" points="917.53,-593.34 914.25,-583.26 910.53,-593.18 917.53,-593.34"/>
<text xml:space="preserve" text-anchor="middle" x="945.01" y="-883.45" font-family="Times,serif" font-size="14.00"> reset_e_stop </text>
</g>
<!-- SafetyFault&#45;&gt;SafetyCheck -->
<g id="edge5" class="edge">
<title>SafetyFault&#45;&gt;SafetyCheck</title>
<path fill="none" stroke="red" d="M966.34,-297.24C985.5,-342.83 1007.3,-415.67 984,-474.25 979.31,-486.03 971.72,-497.01 963.26,-506.69"/>
<polygon fill="red" stroke="red" points="960.94,-504.04 956.68,-513.74 966.06,-508.82 960.94,-504.04"/>
<text xml:space="preserve" text-anchor="middle" x="1025.39" y="-460.95" font-family="Times,serif" font-size="14.00"> reset_e_stop </text>
</g>
<!-- SafetyCheck&#45;&gt;SafetyFault -->
<g id="edge7" class="edge">
<title>SafetyCheck&#45;&gt;SafetyFault</title>
<path fill="none" stroke="red" d="M918.61,-514.91C920.01,-502.24 921.61,-487.56 923,-474.25 928.92,-417.69 935.33,-352.94 939.69,-308.27"/>
<polygon fill="red" stroke="red" points="943.15,-308.87 940.64,-298.58 936.18,-308.19 943.15,-308.87"/>
<text xml:space="preserve" text-anchor="middle" x="943.36" y="-460.95" font-family="Times,serif" font-size="14.00"> failed </text>
</g>
<!-- ManualIdle -->
<g id="node8" class="node">
<title>ManualIdle</title>
<path fill="azure" stroke="none" d="M457,-604.25C457,-604.25 327,-604.25 327,-604.25 321,-604.25 315,-598.25 315,-592.25 315,-592.25 315,-504.25 315,-504.25 315,-498.25 321,-492.25 327,-492.25 327,-492.25 457,-492.25 457,-492.25 463,-492.25 469,-498.25 469,-504.25 469,-504.25 469,-592.25 469,-592.25 469,-598.25 463,-604.25 457,-604.25"/>
<text xml:space="preserve" text-anchor="start" x="357.88" y="-583.95" font-family="Times,serif" font-weight="bold" font-size="14.00">ManualIdle</text>
<text xml:space="preserve" text-anchor="start" x="323" y="-558.75" font-family="Times,serif" font-size="10.00">move_to(x: float, y: float, z: float)</text>
<text xml:space="preserve" text-anchor="start" x="323" y="-547.5" font-family="Times,serif" font-size="10.00">grip()</text>
<text xml:space="preserve" text-anchor="start" x="323" y="-536.25" font-family="Times,serif" font-size="10.00">release()</text>
<text xml:space="preserve" text-anchor="start" x="323" y="-525" font-family="Times,serif" font-size="10.00">set_auto()</text>
<text xml:space="preserve" text-anchor="start" x="323" y="-513.75" font-family="Times,serif" font-size="10.00">status()</text>
<text xml:space="preserve" text-anchor="start" x="365" y="-502.5" font-family="Times,serif" font-size="10.00"> &#160;&#160;&#160;&#160;&#160;&#160;&#160;&#160;&#160;&#160;&#160;&#160;&#160;&#160;&#160;&#160;&#160;&#160;&#160;&#160;&#160;&#160;&#160;</text>
<polygon fill="#00688b" stroke="#00688b" points="315,-573.75 315,-573.75 469,-573.75 469,-573.75 315,-573.75"/>
<path fill="none" stroke="#00688b" d="M327,-492.25C327,-492.25 457,-492.25 457,-492.25 463,-492.25 469,-498.25 469,-504.25 469,-504.25 469,-592.25 469,-592.25 469,-598.25 463,-604.25 457,-604.25 457,-604.25 327,-604.25 327,-604.25 321,-604.25 315,-598.25 315,-592.25 315,-592.25 315,-504.25 315,-504.25 315,-498.25 321,-492.25 327,-492.25"/>
</g>
<!-- SafetyCheck&#45;&gt;ManualIdle -->
<g id="edge6" class="edge">
<title>SafetyCheck&#45;&gt;ManualIdle</title>
<path fill="none" stroke="red" d="M918.59,-581.73C922.37,-636.54 920.57,-744.41 856,-795.38 725.18,-898.64 617.36,-891.2 481,-795.38 423.55,-755 403.01,-673.79 395.77,-615.47"/>
<polygon fill="red" stroke="red" points="399.26,-615.18 394.66,-605.64 392.3,-615.96 399.26,-615.18"/>
<text xml:space="preserve" text-anchor="middle" x="650" y="-883.45" font-family="Times,serif" font-size="14.00"> cleared </text>
</g>
<!-- Safety -->
<g id="node6" class="node">
<title>Safety</title>
<ellipse fill="azure" stroke="#00688b" cx="844" cy="-548.25" rx="0.36" ry="0.36"/>
</g>
<!-- Manual -->
<g id="node7" class="node">
<title>Manual</title>
<ellipse fill="azure" stroke="#00688b" cx="490" cy="-548.25" rx="0.36" ry="0.36"/>
</g>
<!-- AutoIdle -->
<g id="node13" class="node">
<title>AutoIdle</title>
<path fill="azure" stroke="none" d="M724.12,-297.25C724.12,-297.25 621.88,-297.25 621.88,-297.25 615.88,-297.25 609.88,-291.25 609.88,-285.25 609.88,-285.25 609.88,-219.75 609.88,-219.75 609.88,-213.75 615.88,-207.75 621.88,-207.75 621.88,-207.75 724.12,-207.75 724.12,-207.75 730.12,-207.75 736.12,-213.75 736.12,-219.75 736.12,-219.75 736.12,-285.25 736.12,-285.25 736.12,-291.25 730.12,-297.25 724.12,-297.25"/>
<text xml:space="preserve" text-anchor="start" x="647.5" y="-276.95" font-family="Times,serif" font-weight="bold" font-size="14.00">AutoIdle</text>
<text xml:space="preserve" text-anchor="start" x="617.88" y="-251.75" font-family="Times,serif" font-size="10.00">run_program(program: list)</text>
<text xml:space="preserve" text-anchor="start" x="617.88" y="-240.5" font-family="Times,serif" font-size="10.00">set_manual()</text>
<text xml:space="preserve" text-anchor="start" x="617.88" y="-229.25" font-family="Times,serif" font-size="10.00">status()</text>
<text xml:space="preserve" text-anchor="start" x="646" y="-218" font-family="Times,serif" font-size="10.00"> &#160;&#160;&#160;&#160;&#160;&#160;&#160;&#160;&#160;&#160;&#160;&#160;&#160;&#160;&#160;&#160;&#160;&#160;&#160;&#160;&#160;&#160;&#160;</text>
<polygon fill="#00688b" stroke="#00688b" points="609.88,-266.75 609.88,-266.75 736.12,-266.75 736.12,-266.75 609.88,-266.75"/>
<path fill="none" stroke="#00688b" d="M621.88,-207.75C621.88,-207.75 724.12,-207.75 724.12,-207.75 730.12,-207.75 736.12,-213.75 736.12,-219.75 736.12,-219.75 736.12,-285.25 736.12,-285.25 736.12,-291.25 730.12,-297.25 724.12,-297.25 724.12,-297.25 621.88,-297.25 621.88,-297.25 615.88,-297.25 609.88,-291.25 609.88,-285.25 609.88,-285.25 609.88,-219.75 609.88,-219.75 609.88,-213.75 615.88,-207.75 621.88,-207.75"/>
</g>
<!-- Manual&#45;&gt;AutoIdle -->
<g id="edge16" class="edge">
<title>Manual&#45;&gt;AutoIdle</title>
<path fill="none" stroke="red" d="M498,-488.9C545.36,-455.28 714.81,-515.18 753,-474.25 796.72,-427.39 756.57,-354.83 719.07,-305.81"/>
<polygon fill="red" stroke="red" points="721.98,-303.85 713.06,-298.13 716.47,-308.16 721.98,-303.85"/>
<text xml:space="preserve" text-anchor="middle" x="789.74" y="-460.95" font-family="Times,serif" font-size="14.00"> set_auto </text>
</g>
<!-- ManualMoving -->
<g id="node9" class="node">
<title>ManualMoving</title>
<path fill="azure" stroke="none" d="M299.38,-308.5C299.38,-308.5 216.62,-308.5 216.62,-308.5 210.62,-308.5 204.62,-302.5 204.62,-296.5 204.62,-296.5 204.62,-208.5 204.62,-208.5 204.62,-202.5 210.62,-196.5 216.62,-196.5 216.62,-196.5 299.38,-196.5 299.38,-196.5 305.38,-196.5 311.38,-202.5 311.38,-208.5 311.38,-208.5 311.38,-296.5 311.38,-296.5 311.38,-302.5 305.38,-308.5 299.38,-308.5"/>
<text xml:space="preserve" text-anchor="start" x="212.62" y="-288.2" font-family="Times,serif" font-weight="bold" font-size="14.00">ManualMoving</text>
<text xml:space="preserve" text-anchor="start" x="212.62" y="-263" font-family="Times,serif" font-size="10.00">$&gt;()</text>
<text xml:space="preserve" text-anchor="start" x="212.62" y="-251.75" font-family="Times,serif" font-size="10.00">&lt;$()</text>
<text xml:space="preserve" text-anchor="start" x="212.62" y="-240.5" font-family="Times,serif" font-size="10.00">tick()</text>
<text xml:space="preserve" text-anchor="start" x="212.62" y="-229.25" font-family="Times,serif" font-size="10.00">stop_motion()</text>
<text xml:space="preserve" text-anchor="start" x="212.62" y="-218" font-family="Times,serif" font-size="10.00">status()</text>
<text xml:space="preserve" text-anchor="start" x="214.5" y="-206.75" font-family="Times,serif" font-size="10.00"> &#160;&#160;&#160;&#160;&#160;&#160;&#160;&#160;&#160;&#160;&#160;&#160;&#160;&#160;&#160;&#160;&#160;&#160;&#160;&#160;&#160;&#160;&#160;</text>
<polygon fill="#00688b" stroke="#00688b" points="204.62,-278 204.62,-278 311.38,-278 311.38,-278 204.62,-278"/>
<path fill="none" stroke="#00688b" d="M216.62,-196.5C216.62,-196.5 299.38,-196.5 299.38,-196.5 305.38,-196.5 311.38,-202.5 311.38,-208.5 311.38,-208.5 311.38,-296.5 311.38,-296.5 311.38,-302.5 305.38,-308.5 299.38,-308.5 299.38,-308.5 216.62,-308.5 216.62,-308.5 210.62,-308.5 204.62,-302.5 204.62,-296.5 204.62,-296.5 204.62,-208.5 204.62,-208.5 204.62,-202.5 210.62,-196.5 216.62,-196.5"/>
</g>
<!-- ManualIdle&#45;&gt;ManualMoving -->
<g id="edge8" class="edge">
<title>ManualIdle&#45;&gt;ManualMoving</title>
<path fill="none" stroke="red" d="M315.15,-522.03C293.35,-510.94 272.13,-495.46 259.5,-474.25 231.97,-428.01 234.19,-366.08 241.81,-319.58"/>
<polygon fill="red" stroke="red" points="245.22,-320.36 243.52,-309.9 238.33,-319.14 245.22,-320.36"/>
<text xml:space="preserve" text-anchor="middle" x="287.25" y="-460.95" font-family="Times,serif" font-size="14.00"> move_to </text>
</g>
<!-- ManualGripping -->
<g id="node10" class="node">
<title>ManualGripping</title>
<path fill="azure" stroke="none" d="M141.88,-286C141.88,-286 50.12,-286 50.12,-286 44.12,-286 38.12,-280 38.12,-274 38.12,-274 38.12,-231 38.12,-231 38.12,-225 44.12,-219 50.12,-219 50.12,-219 141.88,-219 141.88,-219 147.88,-219 153.88,-225 153.88,-231 153.88,-231 153.88,-274 153.88,-274 153.88,-280 147.88,-286 141.88,-286"/>
<text xml:space="preserve" text-anchor="start" x="46.12" y="-265.7" font-family="Times,serif" font-weight="bold" font-size="14.00">ManualGripping</text>
<text xml:space="preserve" text-anchor="start" x="46.12" y="-240.5" font-family="Times,serif" font-size="10.00">$&gt;()</text>
<text xml:space="preserve" text-anchor="start" x="46.12" y="-229.25" font-family="Times,serif" font-size="10.00"> &#160;&#160;&#160;&#160;&#160;&#160;&#160;&#160;&#160;&#160;&#160;&#160;&#160;&#160;&#160;&#160;&#160;&#160;&#160;&#160;&#160;&#160;&#160;</text>
<polygon fill="#00688b" stroke="#00688b" points="38.12,-255.5 38.12,-255.5 153.88,-255.5 153.88,-255.5 38.12,-255.5"/>
<path fill="none" stroke="#00688b" d="M50.12,-219C50.12,-219 141.88,-219 141.88,-219 147.88,-219 153.88,-225 153.88,-231 153.88,-231 153.88,-274 153.88,-274 153.88,-280 147.88,-286 141.88,-286 141.88,-286 50.12,-286 50.12,-286 44.12,-286 38.12,-280 38.12,-274 38.12,-274 38.12,-231 38.12,-231 38.12,-225 44.12,-219 50.12,-219"/>
</g>
<!-- ManualIdle&#45;&gt;ManualGripping -->
<g id="edge9" class="edge">
<title>ManualIdle&#45;&gt;ManualGripping</title>
<path fill="none" stroke="red" d="M315.29,-541.81C225.05,-533.62 83.37,-514.59 50.75,-474.25 9.41,-423.13 41.84,-344 69.01,-295.66"/>
<polygon fill="red" stroke="red" points="71.96,-297.56 73.94,-287.15 65.9,-294.05 71.96,-297.56"/>
<text xml:space="preserve" text-anchor="middle" x="65.38" y="-460.95" font-family="Times,serif" font-size="14.00"> grip </text>
</g>
<!-- ManualReleasing -->
<g id="node11" class="node">
<title>ManualReleasing</title>
<path fill="azure" stroke="none" d="M455.62,-286C455.62,-286 362.38,-286 362.38,-286 356.38,-286 350.38,-280 350.38,-274 350.38,-274 350.38,-231 350.38,-231 350.38,-225 356.38,-219 362.38,-219 362.38,-219 455.62,-219 455.62,-219 461.62,-219 467.62,-225 467.62,-231 467.62,-231 467.62,-274 467.62,-274 467.62,-280 461.62,-286 455.62,-286"/>
<text xml:space="preserve" text-anchor="start" x="358.38" y="-265.7" font-family="Times,serif" font-weight="bold" font-size="14.00">ManualReleasing</text>
<text xml:space="preserve" text-anchor="start" x="358.38" y="-240.5" font-family="Times,serif" font-size="10.00">$&gt;()</text>
<text xml:space="preserve" text-anchor="start" x="358.38" y="-229.25" font-family="Times,serif" font-size="10.00"> &#160;&#160;&#160;&#160;&#160;&#160;&#160;&#160;&#160;&#160;&#160;&#160;&#160;&#160;&#160;&#160;&#160;&#160;&#160;&#160;&#160;&#160;&#160;</text>
<polygon fill="#00688b" stroke="#00688b" points="350.38,-255.5 350.38,-255.5 467.62,-255.5 467.62,-255.5 350.38,-255.5"/>
<path fill="none" stroke="#00688b" d="M362.38,-219C362.38,-219 455.62,-219 455.62,-219 461.62,-219 467.62,-225 467.62,-231 467.62,-231 467.62,-274 467.62,-274 467.62,-280 461.62,-286 455.62,-286 455.62,-286 362.38,-286 362.38,-286 356.38,-286 350.38,-280 350.38,-274 350.38,-274 350.38,-231 350.38,-231 350.38,-225 356.38,-219 362.38,-219"/>
</g>
<!-- ManualIdle&#45;&gt;ManualReleasing -->
<g id="edge10" class="edge">
<title>ManualIdle&#45;&gt;ManualReleasing</title>
<path fill="none" stroke="red" d="M389.5,-492.25C389.29,-486.18 389.12,-480.08 389,-474.25 387.73,-412.62 395.88,-341.69 402.16,-297.22"/>
<polygon fill="red" stroke="red" points="405.6,-297.86 403.57,-287.46 398.68,-296.86 405.6,-297.86"/>
<text xml:space="preserve" text-anchor="middle" x="411.5" y="-460.95" font-family="Times,serif" font-size="14.00"> release </text>
</g>
<!-- ManualIdle&#45;&gt;AutoIdle -->
<g id="edge11" class="edge">
<title>ManualIdle&#45;&gt;AutoIdle</title>
<path fill="none" stroke="red" d="M468.87,-496.9C472.9,-495.17 476.95,-493.6 481,-492.25 522.48,-478.39 647.52,-506.56 677,-474.25 717.35,-430.02 706.98,-357.59 692.75,-307.84"/>
<polygon fill="red" stroke="red" points="696.15,-306.97 689.92,-298.41 689.44,-308.99 696.15,-306.97"/>
<text xml:space="preserve" text-anchor="middle" x="713.73" y="-460.95" font-family="Times,serif" font-size="14.00"> set_auto </text>
</g>
<!-- ManualMoving&#45;&gt;ManualIdle -->
<g id="edge12" class="edge">
<title>ManualMoving&#45;&gt;ManualIdle</title>
<path fill="none" stroke="red" d="M279.72,-308.17C295.82,-347.84 318.73,-402.58 341,-449.75 346.01,-460.35 351.54,-471.48 357.07,-482.26"/>
<polygon fill="red" stroke="red" points="353.95,-483.85 361.65,-491.13 360.17,-480.64 353.95,-483.85"/>
<text xml:space="preserve" text-anchor="middle" x="366.82" y="-460.95" font-family="Times,serif" font-size="14.00"> tick </text>
</g>
<!-- ManualMoving&#45;&gt;ManualIdle -->
<g id="edge13" class="edge">
<title>ManualMoving&#45;&gt;ManualIdle</title>
<path fill="none" stroke="red" d="M224.8,-308.46C193.02,-364.51 152.58,-446.99 172.25,-474.25 202.19,-515.75 256.69,-534.03 303.92,-541.92"/>
<polygon fill="red" stroke="red" points="303.22,-545.35 313.63,-543.39 304.27,-538.43 303.22,-545.35"/>
<text xml:space="preserve" text-anchor="middle" x="210.12" y="-460.95" font-family="Times,serif" font-size="14.00"> stop_motion </text>
</g>
<!-- ManualGripping&#45;&gt;ManualIdle -->
<g id="edge14" class="edge">
<title>ManualGripping&#45;&gt;ManualIdle</title>
<path fill="none" stroke="red" d="M91.09,-285.73C85.81,-333.15 83.63,-421.77 130.25,-474.25 153.48,-500.39 237.58,-520.74 304.26,-533.23"/>
<polygon fill="red" stroke="red" points="303.27,-536.61 313.74,-534.97 304.53,-529.72 303.27,-536.61"/>
<text xml:space="preserve" text-anchor="middle" x="147.12" y="-460.95" font-family="Times,serif" font-size="14.00"> done </text>
</g>
<!-- ManualReleasing&#45;&gt;ManualIdle -->
<g id="edge15" class="edge">
<title>ManualReleasing&#45;&gt;ManualIdle</title>
<path fill="none" stroke="red" d="M420.04,-285.86C433.24,-329.37 451.47,-408.85 434,-474.25 433.32,-476.81 432.52,-479.38 431.62,-481.93"/>
<polygon fill="red" stroke="red" points="428.48,-480.36 428.03,-490.95 434.99,-482.95 428.48,-480.36"/>
<text xml:space="preserve" text-anchor="middle" x="453.58" y="-460.95" font-family="Times,serif" font-size="14.00"> done </text>
</g>
<!-- Auto -->
<g id="node12" class="node">
<title>Auto</title>
<ellipse fill="azure" stroke="#00688b" cx="528" cy="-252.5" rx="0.36" ry="0.36"/>
</g>
<!-- Auto&#45;&gt;ManualIdle -->
<g id="edge22" class="edge">
<title>Auto&#45;&gt;ManualIdle</title>
<path fill="none" stroke="red" d="M520,-401.76C515.74,-418.51 509.91,-434.88 502,-449.75 495.43,-462.11 486.63,-473.64 476.85,-484.15"/>
<polygon fill="red" stroke="red" points="474.38,-481.67 469.88,-491.26 479.38,-486.56 474.38,-481.67"/>
<text xml:space="preserve" text-anchor="middle" x="530.86" y="-460.95" font-family="Times,serif" font-size="14.00"> set_manual </text>
</g>
<!-- AutoIdle&#45;&gt;ManualIdle -->
<g id="edge18" class="edge">
<title>AutoIdle&#45;&gt;ManualIdle</title>
<path fill="none" stroke="red" d="M664.96,-296.89C653.22,-347.51 626.33,-429.91 570,-474.25 538.29,-499.21 518.53,-477.41 481,-492.25 480.37,-492.5 479.73,-492.76 479.1,-493.01"/>
<polygon fill="red" stroke="red" points="477.93,-489.7 470.2,-496.95 480.76,-496.11 477.93,-489.7"/>
<text xml:space="preserve" text-anchor="middle" x="619.47" y="-460.95" font-family="Times,serif" font-size="14.00"> set_manual </text>
</g>
<!-- AutoExecuting -->
<g id="node14" class="node">
<title>AutoExecuting</title>
<path fill="azure" stroke="none" d="M659.5,-144C659.5,-144 580.5,-144 580.5,-144 574.5,-144 568.5,-138 568.5,-132 568.5,-132 568.5,-44 568.5,-44 568.5,-38 574.5,-32 580.5,-32 580.5,-32 659.5,-32 659.5,-32 665.5,-32 671.5,-38 671.5,-44 671.5,-44 671.5,-132 671.5,-132 671.5,-138 665.5,-144 659.5,-144"/>
<text xml:space="preserve" text-anchor="start" x="576.88" y="-123.7" font-family="Times,serif" font-weight="bold" font-size="14.00">AutoExecuting</text>
<text xml:space="preserve" text-anchor="start" x="576.5" y="-98.5" font-family="Times,serif" font-size="10.00">$&gt;()</text>
<text xml:space="preserve" text-anchor="start" x="576.5" y="-87.25" font-family="Times,serif" font-size="10.00">tick()</text>
<text xml:space="preserve" text-anchor="start" x="576.5" y="-76" font-family="Times,serif" font-size="10.00">program_step_done()</text>
<text xml:space="preserve" text-anchor="start" x="576.5" y="-64.75" font-family="Times,serif" font-size="10.00">stop_motion()</text>
<text xml:space="preserve" text-anchor="start" x="576.5" y="-53.5" font-family="Times,serif" font-size="10.00">status()</text>
<text xml:space="preserve" text-anchor="start" x="593" y="-42.25" font-family="Times,serif" font-size="10.00"> &#160;&#160;&#160;&#160;&#160;&#160;&#160;&#160;&#160;&#160;&#160;&#160;&#160;&#160;&#160;&#160;&#160;&#160;&#160;&#160;&#160;&#160;&#160;</text>
<polygon fill="#00688b" stroke="#00688b" points="568.5,-113.5 568.5,-113.5 671.5,-113.5 671.5,-113.5 568.5,-113.5"/>
<path fill="none" stroke="#00688b" d="M580.5,-32C580.5,-32 659.5,-32 659.5,-32 665.5,-32 671.5,-38 671.5,-44 671.5,-44 671.5,-132 671.5,-132 671.5,-138 665.5,-144 659.5,-144 659.5,-144 580.5,-144 580.5,-144 574.5,-144 568.5,-138 568.5,-132 568.5,-132 568.5,-44 568.5,-44 568.5,-38 574.5,-32 580.5,-32"/>
</g>
<!-- AutoIdle&#45;&gt;AutoExecuting -->
<g id="edge17" class="edge">
<title>AutoIdle&#45;&gt;AutoExecuting</title>
<path fill="none" stroke="red" d="M610.14,-230.68C586.04,-219.27 561.04,-202.45 547.25,-178.5 537.3,-161.21 546.11,-143.82 560.59,-129.03"/>
<polygon fill="red" stroke="red" points="562.58,-131.96 567.5,-122.58 557.8,-126.84 562.58,-131.96"/>
<text xml:space="preserve" text-anchor="middle" x="586.62" y="-165.2" font-family="Times,serif" font-size="14.00"> run_program </text>
</g>
<!-- AutoExecuting&#45;&gt;AutoIdle -->
<g id="edge20" class="edge">
<title>AutoExecuting&#45;&gt;AutoIdle</title>
<path fill="none" stroke="red" d="M637.85,-143.73C643.5,-161.06 649.74,-180.19 655.38,-197.47"/>
<polygon fill="red" stroke="red" points="651.9,-198.09 658.33,-206.51 658.55,-195.92 651.9,-198.09"/>
<text xml:space="preserve" text-anchor="middle" x="685.96" y="-165.2" font-family="Times,serif" font-size="14.00"> stop_motion </text>
</g>
<!-- AutoExecuting&#45;&gt;AutoIdle -->
<g id="edge21" class="edge">
<title>AutoExecuting&#45;&gt;AutoIdle</title>
<path fill="none" stroke="red" d="M671.36,-111.39C691.94,-123.24 713.48,-139.96 725,-162 731.18,-173.82 729.4,-186.31 723.77,-198.09"/>
<polygon fill="red" stroke="red" points="720.9,-196.05 718.97,-206.47 726.97,-199.53 720.9,-196.05"/>
<text xml:space="preserve" text-anchor="middle" x="757.75" y="-165.2" font-family="Times,serif" font-size="14.00"> complete </text>
</g>
<!-- AutoExecuting&#45;&gt;AutoExecuting -->
<g id="edge19" class="edge">
<title>AutoExecuting&#45;&gt;AutoExecuting</title>
<path fill="none" stroke="red" d="M671.22,-102.88C681.85,-101.31 689.5,-96.35 689.5,-88 689.5,-82.91 686.66,-79.08 682.04,-76.51"/>
<polygon fill="red" stroke="red" points="683.25,-73.22 672.66,-73.57 681.16,-79.9 683.25,-73.22"/>
<text xml:space="preserve" text-anchor="middle" x="747.25" y="-82.95" font-family="Times,serif" font-size="14.00"> program_step_done </text>
</g>
</g>
</svg>
