<?xml version="1.0" encoding="UTF-8" standalone="no"?>
<!DOCTYPE svg PUBLIC "-//W3C//DTD SVG 1.1//EN"
 "http://www.w3.org/Graphics/SVG/1.1/DTD/svg11.dtd">
<!-- Generated by graphviz version 14.1.5 (20260411.2331)
 -->
<!-- Title: RobotArm Pages: 1 -->
<svg width="1072pt" height="855pt"
 viewBox="0.00 0.00 1072.00 855.00" xmlns="http://www.w3.org/2000/svg" xmlns:xlink="http://www.w3.org/1999/xlink">
<g id="graph0" class="graph" transform="scale(1 1) rotate(0) translate(4 850.75)">
<title>RobotArm</title>
<polygon fill="white" stroke="none" points="-4,4 -4,-850.75 1067.57,-850.75 1067.57,4 -4,4"/>
<g id="clust1" class="cluster">
<title>cluster_Safety</title>
<path fill="none" stroke="black" d="M20,-8C20,-8 840,-8 840,-8 846,-8 852,-14 852,-20 852,-20 852,-702.75 852,-702.75 852,-708.75 846,-714.75 840,-714.75 840,-714.75 20,-714.75 20,-714.75 14,-714.75 8,-708.75 8,-702.75 8,-702.75 8,-20 8,-20 8,-14 14,-8 20,-8"/>
<text xml:space="preserve" text-anchor="start" x="412.75" y="-694" font-family="Times,serif" font-size="14.00">Safety</text>
<polygon fill="black" stroke="black" points="408.75,-687.25 408.75,-687.25 451.25,-687.25 451.25,-687.25 408.75,-687.25"/>
</g>
<g id="clust2" class="cluster">
<title>cluster_Operational</title>
<path fill="none" stroke="black" d="M28,-16C28,-16 824,-16 824,-16 830,-16 836,-22 836,-28 836,-28 836,-656.25 836,-656.25 836,-662.25 830,-668.25 824,-668.25 824,-668.25 28,-668.25 28,-668.25 22,-668.25 16,-662.25 16,-656.25 16,-656.25 16,-28 16,-28 16,-22 22,-16 28,-16"/>
<text xml:space="preserve" text-anchor="start" x="394.12" y="-647.5" font-family="Times,serif" font-size="14.00">Operational</text>
<polygon fill="black" stroke="black" points="390.12,-640.75 390.12,-640.75 461.88,-640.75 461.88,-640.75 390.12,-640.75"/>
</g>
<g id="clust3" class="cluster">
<title>cluster_Manual</title>
<path fill="none" stroke="black" d="M36,-188.5C36,-188.5 486,-188.5 486,-188.5 492,-188.5 498,-194.5 498,-200.5 498,-200.5 498,-609.75 498,-609.75 498,-615.75 492,-621.75 486,-621.75 486,-621.75 36,-621.75 36,-621.75 30,-621.75 24,-615.75 24,-609.75 24,-609.75 24,-200.5 24,-200.5 24,-194.5 30,-188.5 36,-188.5"/>
<text xml:space="preserve" text-anchor="start" x="240" y="-601" font-family="Times,serif" font-size="14.00">Manual</text>
<polygon fill="black" stroke="black" points="236,-594.25 236,-594.25 286,-594.25 286,-594.25 236,-594.25"/>
</g>
<g id="clust4" class="cluster">
<title>cluster_Auto</title>
<path fill="none" stroke="black" d="M532,-24C532,-24 801,-24 801,-24 807,-24 813,-30 813,-36 813,-36 813,-370.25 813,-370.25 813,-376.25 807,-382.25 801,-382.25 801,-382.25 532,-382.25 532,-382.25 526,-382.25 520,-376.25 520,-370.25 520,-370.25 520,-36 520,-36 520,-30 526,-24 532,-24"/>
<text xml:space="preserve" text-anchor="start" x="653" y="-361.5" font-family="Times,serif" font-size="14.00">Auto</text>
<polygon fill="black" stroke="black" points="649,-354.75 649,-354.75 684,-354.75 684,-354.75 649,-354.75"/>
</g>
<!-- Entry -->
<g id="node1" class="node">
<title>Entry</title>
<ellipse fill="black" stroke="#00688b" cx="816" cy="-802" rx="7.2" ry="7.2"/>
</g>
<!-- Operational -->
<g id="node2" class="node">
<title>Operational</title>
<ellipse fill="azure" stroke="#00688b" cx="825" cy="-480.75" rx="0.36" ry="0.36"/>
</g>
<!-- Entry&#45;&gt;Operational -->
<g id="edge1" class="edge">
<title>Entry&#45;&gt;Operational</title>
<path fill="none" stroke="red" d="M816.19,-794.33C817.32,-754.18 823.23,-544.54 824.68,-493.14"/>
<polygon fill="red" stroke="red" points="828.17,-493.41 824.96,-483.31 821.18,-493.21 828.17,-493.41"/>
</g>
<!-- EStopCategory0 -->
<g id="node3" class="node">
<title>EStopCategory0</title>
<path fill="azure" stroke="none" d="M949.62,-846.75C949.62,-846.75 862.38,-846.75 862.38,-846.75 856.38,-846.75 850.38,-840.75 850.38,-834.75 850.38,-834.75 850.38,-769.25 850.38,-769.25 850.38,-763.25 856.38,-757.25 862.38,-757.25 862.38,-757.25 949.62,-757.25 949.62,-757.25 955.62,-757.25 961.62,-763.25 961.62,-769.25 961.62,-769.25 961.62,-834.75 961.62,-834.75 961.62,-840.75 955.62,-846.75 949.62,-846.75"/>
<text xml:space="preserve" text-anchor="start" x="858.38" y="-826.45" font-family="Times,serif" font-weight="bold" font-size="14.00">EStopCategory0</text>
<text xml:space="preserve" text-anchor="start" x="858.38" y="-801.25" font-family="Times,serif" font-size="10.00">$&gt;()</text>
<text xml:space="preserve" text-anchor="start" x="858.38" y="-790" font-family="Times,serif" font-size="10.00">reset_e_stop()</text>
<text xml:space="preserve" text-anchor="start" x="858.38" y="-778.75" font-family="Times,serif" font-size="10.00">status()</text>
<text xml:space="preserve" text-anchor="start" x="873.38" y="-767.5" font-family="Times,serif" font-size="10.00"> &#160;&#160;&#160;&#160;&#160;&#160;&#160;&#160;&#160;&#160;&#160;</text>
<polygon fill="#00688b" stroke="#00688b" points="850.38,-816.25 850.38,-816.25 961.62,-816.25 961.62,-816.25 850.38,-816.25"/>
<path fill="none" stroke="#00688b" d="M862.38,-757.25C862.38,-757.25 949.62,-757.25 949.62,-757.25 955.62,-757.25 961.62,-763.25 961.62,-769.25 961.62,-769.25 961.62,-834.75 961.62,-834.75 961.62,-840.75 955.62,-846.75 949.62,-846.75 949.62,-846.75 862.38,-846.75 862.38,-846.75 856.38,-846.75 850.38,-840.75 850.38,-834.75 850.38,-834.75 850.38,-769.25 850.38,-769.25 850.38,-763.25 856.38,-757.25 862.38,-757.25"/>
</g>
<!-- Operational&#45;&gt;EStopCategory0 -->
<g id="edge2" class="edge">
<title>Operational&#45;&gt;EStopCategory0</title>
<path fill="none" stroke="red" d="M816.31,-668.25C819.12,-684.27 823.22,-699.98 829,-714.75 833.7,-726.75 840.88,-738.16 849.01,-748.51"/>
<polygon fill="red" stroke="red" points="846.29,-750.72 855.38,-756.16 851.67,-746.24 846.29,-750.72"/>
<text xml:space="preserve" text-anchor="middle" x="862" y="-725.95" font-family="Times,serif" font-size="14.00"> e_stop </text>
</g>
<!-- SafetyFault -->
<g id="node4" class="node">
<title>SafetyFault</title>
<path fill="azure" stroke="none" d="M974.38,-297.25C974.38,-297.25 915.62,-297.25 915.62,-297.25 909.62,-297.25 903.62,-291.25 903.62,-285.25 903.62,-285.25 903.62,-219.75 903.62,-219.75 903.62,-213.75 909.62,-207.75 915.62,-207.75 915.62,-207.75 974.38,-207.75 974.38,-207.75 980.38,-207.75 986.38,-213.75 986.38,-219.75 986.38,-219.75 986.38,-285.25 986.38,-285.25 986.38,-291.25 980.38,-297.25 974.38,-297.25"/>
<text xml:space="preserve" text-anchor="start" x="911.62" y="-276.95" font-family="Times,serif" font-weight="bold" font-size="14.00">SafetyFault</text>
<text xml:space="preserve" text-anchor="start" x="911.62" y="-251.75" font-family="Times,serif" font-size="10.00">$&gt;()</text>
<text xml:space="preserve" text-anchor="start" x="911.62" y="-240.5" font-family="Times,serif" font-size="10.00">reset_e_stop()</text>
<text xml:space="preserve" text-anchor="start" x="911.62" y="-229.25" font-family="Times,serif" font-size="10.00">status()</text>
<text xml:space="preserve" text-anchor="start" x="926.62" y="-218" font-family="Times,serif" font-size="10.00"> &#160;&#160;&#160;&#160;&#160;&#160;&#160;&#160;&#160;&#160;&#160;</text>
<polygon fill="#00688b" stroke="#00688b" points="903.62,-266.75 903.62,-266.75 986.38,-266.75 986.38,-266.75 903.62,-266.75"/>
<path fill="none" stroke="#00688b" d="M915.62,-207.75C915.62,-207.75 974.38,-207.75 974.38,-207.75 980.38,-207.75 986.38,-213.75 986.38,-219.75 986.38,-219.75 986.38,-285.25 986.38,-285.25 986.38,-291.25 980.38,-297.25 974.38,-297.25 974.38,-297.25 915.62,-297.25 915.62,-297.25 909.62,-297.25 903.62,-291.25 903.62,-285.25 903.62,-285.25 903.62,-219.75 903.62,-219.75 903.62,-213.75 909.62,-207.75 915.62,-207.75"/>
</g>
<!-- Operational&#45;&gt;SafetyFault -->
<g id="edge3" class="edge">
<title>Operational&#45;&gt;SafetyFault</title>
<path fill="none" stroke="red" d="M836,-405.64C851.41,-368.36 876.01,-332.9 897.95,-305.61"/>
<polygon fill="red" stroke="red" points="900.48,-308.03 904.11,-298.08 895.07,-303.6 900.48,-308.03"/>
<text xml:space="preserve" text-anchor="middle" x="876.98" y="-393.45" font-family="Times,serif" font-size="14.00"> safety_fault </text>
</g>
<!-- SafetyCheck -->
<g id="node5" class="node">
<title>SafetyCheck</title>
<path fill="azure" stroke="none" d="M947.38,-514.25C947.38,-514.25 882.62,-514.25 882.62,-514.25 876.62,-514.25 870.62,-508.25 870.62,-502.25 870.62,-502.25 870.62,-459.25 870.62,-459.25 870.62,-453.25 876.62,-447.25 882.62,-447.25 882.62,-447.25 947.38,-447.25 947.38,-447.25 953.38,-447.25 959.38,-453.25 959.38,-459.25 959.38,-459.25 959.38,-502.25 959.38,-502.25 959.38,-508.25 953.38,-514.25 947.38,-514.25"/>
<text xml:space="preserve" text-anchor="start" x="878.62" y="-493.95" font-family="Times,serif" font-weight="bold" font-size="14.00">SafetyCheck</text>
<text xml:space="preserve" text-anchor="start" x="878.62" y="-468.75" font-family="Times,serif" font-size="10.00">$&gt;()</text>
<text xml:space="preserve" text-anchor="start" x="878.62" y="-457.5" font-family="Times,serif" font-size="10.00"> &#160;&#160;&#160;&#160;&#160;&#160;&#160;&#160;&#160;&#160;&#160;</text>
<polygon fill="#00688b" stroke="#00688b" points="870.62,-483.75 870.62,-483.75 959.38,-483.75 959.38,-483.75 870.62,-483.75"/>
<path fill="none" stroke="#00688b" d="M882.62,-447.25C882.62,-447.25 947.38,-447.25 947.38,-447.25 953.38,-447.25 959.38,-453.25 959.38,-459.25 959.38,-459.25 959.38,-502.25 959.38,-502.25 959.38,-508.25 953.38,-514.25 947.38,-514.25 947.38,-514.25 882.62,-514.25 882.62,-514.25 876.62,-514.25 870.62,-508.25 870.62,-502.25 870.62,-502.25 870.62,-459.25 870.62,-459.25 870.62,-453.25 876.62,-447.25 882.62,-447.25"/>
</g>
<!-- EStopCategory0&#45;&gt;SafetyCheck -->
<g id="edge4" class="edge">
<title>EStopCategory0&#45;&gt;SafetyCheck</title>
<path fill="none" stroke="red" d="M907.23,-757.28C908.95,-696.28 912.05,-586.29 913.77,-525.36"/>
<polygon fill="red" stroke="red" points="917.27,-525.46 914.05,-515.37 910.27,-525.26 917.27,-525.46"/>
<text xml:space="preserve" text-anchor="middle" x="945.67" y="-725.95" font-family="Times,serif" font-size="14.00"> reset_e_stop </text>
</g>
<!-- SafetyFault&#45;&gt;SafetyCheck -->
<g id="edge5" class="edge">
<title>SafetyFault&#45;&gt;SafetyCheck</title>
<path fill="none" stroke="red" d="M970.36,-297.05C985.12,-328.25 998.26,-370.91 984,-406.75 979.31,-418.53 971.72,-429.51 963.26,-439.19"/>
<polygon fill="red" stroke="red" points="960.94,-436.54 956.68,-446.24 966.06,-441.32 960.94,-436.54"/>
<text xml:space="preserve" text-anchor="middle" x="1026.07" y="-393.45" font-family="Times,serif" font-size="14.00"> reset_e_stop </text>
</g>
<!-- SafetyCheck&#45;&gt;SafetyFault -->
<g id="edge7" class="edge">
<title>SafetyCheck&#45;&gt;SafetyFault</title>
<path fill="none" stroke="red" d="M919.3,-447.33C924.1,-411.1 931.96,-351.83 937.73,-308.35"/>
<polygon fill="red" stroke="red" points="941.17,-308.98 939.02,-298.6 934.24,-308.06 941.17,-308.98"/>
<text xml:space="preserve" text-anchor="middle" x="945.56" y="-393.45" font-family="Times,serif" font-size="14.00"> failed </text>
</g>
<!-- ManualIdle -->
<g id="node8" class="node">
<title>ManualIdle</title>
<path fill="azure" stroke="none" d="M457,-536.75C457,-536.75 327,-536.75 327,-536.75 321,-536.75 315,-530.75 315,-524.75 315,-524.75 315,-436.75 315,-436.75 315,-430.75 321,-424.75 327,-424.75 327,-424.75 457,-424.75 457,-424.75 463,-424.75 469,-430.75 469,-436.75 469,-436.75 469,-524.75 469,-524.75 469,-530.75 463,-536.75 457,-536.75"/>
<text xml:space="preserve" text-anchor="start" x="357.88" y="-516.45" font-family="Times,serif" font-weight="bold" font-size="14.00">ManualIdle</text>
<text xml:space="preserve" text-anchor="start" x="323" y="-491.25" font-family="Times,serif" font-size="10.00">move_to(x: float, y: float, z: float)</text>
<text xml:space="preserve" text-anchor="start" x="323" y="-480" font-family="Times,serif" font-size="10.00">grip()</text>
<text xml:space="preserve" text-anchor="start" x="323" y="-468.75" font-family="Times,serif" font-size="10.00">release()</text>
<text xml:space="preserve" text-anchor="start" x="323" y="-457.5" font-family="Times,serif" font-size="10.00">set_auto()</text>
<text xml:space="preserve" text-anchor="start" x="323" y="-446.25" font-family="Times,serif" font-size="10.00">status()</text>
<text xml:space="preserve" text-anchor="start" x="365" y="-435" font-family="Times,serif" font-size="10.00"> &#160;&#160;&#160;&#160;&#160;&#160;&#160;&#160;&#160;&#160;&#160;&#160;&#160;&#160;&#160;&#160;&#160;&#160;&#160;&#160;&#160;&#160;&#160;</text>
<polygon fill="#00688b" stroke="#00688b" points="315,-506.25 315,-506.25 469,-506.25 469,-506.25 315,-506.25"/>
<path fill="none" stroke="#00688b" d="M327,-424.75C327,-424.75 457,-424.75 457,-424.75 463,-424.75 469,-430.75 469,-436.75 469,-436.75 469,-524.75 469,-524.75 469,-530.75 463,-536.75 457,-536.75 457,-536.75 327,-536.75 327,-536.75 321,-536.75 315,-530.75 315,-524.75 315,-524.75 315,-436.75 315,-436.75 315,-430.75 321,-424.75 327,-424.75"/>
</g>
<!-- SafetyCheck&#45;&gt;ManualIdle -->
<g id="edge6" class="edge">
<title>SafetyCheck&#45;&gt;ManualIdle</title>
<path fill="none" stroke="red" d="M915.47,-514.14C914.05,-557.7 904.21,-632.53 856,-667.88 721.59,-766.43 621.91,-756.89 481,-667.88 439.4,-641.6 416.85,-589.98 404.86,-547.6"/>
<polygon fill="red" stroke="red" points="408.25,-546.71 402.29,-537.95 401.48,-548.52 408.25,-546.71"/>
<text xml:space="preserve" text-anchor="middle" x="650" y="-725.95" font-family="Times,serif" font-size="14.00"> cleared </text>
</g>
<!-- Safety -->
<g id="node6" class="node">
<title>Safety</title>
<ellipse fill="azure" stroke="#00688b" cx="844" cy="-480.75" rx="0.36" ry="0.36"/>
</g>
<!-- Manual -->
<g id="node7" class="node">
<title>Manual</title>
<ellipse fill="azure" stroke="#00688b" cx="490" cy="-480.75" rx="0.36" ry="0.36"/>
</g>
<!-- AutoIdle -->
<g id="node13" class="node">
<title>AutoIdle</title>
<path fill="azure" stroke="none" d="M724.12,-297.25C724.12,-297.25 621.88,-297.25 621.88,-297.25 615.88,-297.25 609.88,-291.25 609.88,-285.25 609.88,-285.25 609.88,-219.75 609.88,-219.75 609.88,-213.75 615.88,-207.75 621.88,-207.75 621.88,-207.75 724.12,-207.75 724.12,-207.75 730.12,-207.75 736.12,-213.75 736.12,-219.75 736.12,-219.75 736.12,-285.25 736.12,-285.25 736.12,-291.25 730.12,-297.25 724.12,-297.25"/>
<text xml:space="preserve" text-anchor="start" x="647.5" y="-276.95" font-family="Times,serif" font-weight="bold" font-size="14.00">AutoIdle</text>
<text xml:space="preserve" text-anchor="start" x="617.88" y="-251.75" font-family="Times,serif" font-size="10.00">run_program(program: list)</text>
<text xml:space="preserve" text-anchor="start" x="617.88" y="-240.5" font-family="Times,serif" font-size="10.00">set_manual()</text>
<text xml:space="preserve" text-anchor="start" x="617.88" y="-229.25" font-family="Times,serif" font-size="10.00">status()</text>
<text xml:space="preserve" text-anchor="start" x="646" y="-218" font-family="Times,serif" font-size="10.00"> &#160;&#160;&#160;&#160;&#160;&#160;&#160;&#160;&#160;&#160;&#160;&#160;&#160;&#160;&#160;&#160;&#160;&#160;&#160;&#160;&#160;&#160;&#160;</text>
<polygon fill="#00688b" stroke="#00688b" points="609.88,-266.75 609.88,-266.75 736.12,-266.75 736.12,-266.75 609.88,-266.75"/>
<path fill="none" stroke="#00688b" d="M621.88,-207.75C621.88,-207.75 724.12,-207.75 724.12,-207.75 730.12,-207.75 736.12,-213.75 736.12,-219.75 736.12,-219.75 736.12,-285.25 736.12,-285.25 736.12,-291.25 730.12,-297.25 724.12,-297.25 724.12,-297.25 621.88,-297.25 621.88,-297.25 615.88,-297.25 609.88,-291.25 609.88,-285.25 609.88,-285.25 609.88,-219.75 609.88,-219.75 609.88,-213.75 615.88,-207.75 621.88,-207.75"/>
</g>
<!-- Manual&#45;&gt;AutoIdle -->
<g id="edge16" class="edge">
<title>Manual&#45;&gt;AutoIdle</title>
<path fill="none" stroke="red" d="M498,-421.4C545.36,-387.78 714.81,-447.68 753,-406.75 780.25,-377.54 757.54,-337.27 729.45,-305.35"/>
<polygon fill="red" stroke="red" points="732.17,-303.14 722.84,-298.12 727.01,-307.86 732.17,-303.14"/>
<text xml:space="preserve" text-anchor="middle" x="788.44" y="-393.45" font-family="Times,serif" font-size="14.00"> set_auto </text>
</g>
<!-- ManualMoving -->
<g id="node9" class="node">
<title>ManualMoving</title>
<path fill="azure" stroke="none" d="M299.38,-308.5C299.38,-308.5 216.62,-308.5 216.62,-308.5 210.62,-308.5 204.62,-302.5 204.62,-296.5 204.62,-296.5 204.62,-208.5 204.62,-208.5 204.62,-202.5 210.62,-196.5 216.62,-196.5 216.62,-196.5 299.38,-196.5 299.38,-196.5 305.38,-196.5 311.38,-202.5 311.38,-208.5 311.38,-208.5 311.38,-296.5 311.38,-296.5 311.38,-302.5 305.38,-308.5 299.38,-308.5"/>
<text xml:space="preserve" text-anchor="start" x="212.62" y="-288.2" font-family="Times,serif" font-weight="bold" font-size="14.00">ManualMoving</text>
<text xml:space="preserve" text-anchor="start" x="212.62" y="-263" font-family="Times,serif" font-size="10.00">$&gt;()</text>
<text xml:space="preserve" text-anchor="start" x="212.62" y="-251.75" font-family="Times,serif" font-size="10.00">&lt;$()</text>
<text xml:space="preserve" text-anchor="start" x="212.62" y="-240.5" font-family="Times,serif" font-size="10.00">tick()</text>
<text xml:space="preserve" text-anchor="start" x="212.62" y="-229.25" font-family="Times,serif" font-size="10.00">stop_motion()</text>
<text xml:space="preserve" text-anchor="start" x="212.62" y="-218" font-family="Times,serif" font-size="10.00">status()</text>
<text xml:space="preserve" text-anchor="start" x="214.5" y="-206.75" font-family="Times,serif" font-size="10.00"> &#160;&#160;&#160;&#160;&#160;&#160;&#160;&#160;&#160;&#160;&#160;&#160;&#160;&#160;&#160;&#160;&#160;&#160;&#160;&#160;&#160;&#160;&#160;</text>
<polygon fill="#00688b" stroke="#00688b" points="204.62,-278 204.62,-278 311.38,-278 311.38,-278 204.62,-278"/>
<path fill="none" stroke="#00688b" d="M216.62,-196.5C216.62,-196.5 299.38,-196.5 299.38,-196.5 305.38,-196.5 311.38,-202.5 311.38,-208.5 311.38,-208.5 311.38,-296.5 311.38,-296.5 311.38,-302.5 305.38,-308.5 299.38,-308.5 299.38,-308.5 216.62,-308.5 216.62,-308.5 210.62,-308.5 204.62,-302.5 204.62,-296.5 204.62,-296.5 204.62,-208.5 204.62,-208.5 204.62,-202.5 210.62,-196.5 216.62,-196.5"/>
</g>
<!-- ManualIdle&#45;&gt;ManualMoving -->
<g id="edge8" class="edge">
<title>ManualIdle&#45;&gt;ManualMoving</title>
<path fill="none" stroke="red" d="M315.19,-454.51C293.39,-443.42 272.16,-427.94 259.5,-406.75 244.08,-380.94 241.98,-348.06 244.45,-319.37"/>
<polygon fill="red" stroke="red" points="247.9,-320.02 245.49,-309.7 240.94,-319.27 247.9,-320.02"/>
<text xml:space="preserve" text-anchor="middle" x="287.25" y="-393.45" font-family="Times,serif" font-size="14.00"> move_to </text>
</g>
<!-- ManualGripping -->
<g id="node10" class="node">
<title>ManualGripping</title>
<path fill="azure" stroke="none" d="M141.88,-286C141.88,-286 50.12,-286 50.12,-286 44.12,-286 38.12,-280 38.12,-274 38.12,-274 38.12,-231 38.12,-231 38.12,-225 44.12,-219 50.12,-219 50.12,-219 141.88,-219 141.88,-219 147.88,-219 153.88,-225 153.88,-231 153.88,-231 153.88,-274 153.88,-274 153.88,-280 147.88,-286 141.88,-286"/>
<text xml:space="preserve" text-anchor="start" x="46.12" y="-265.7" font-family="Times,serif" font-weight="bold" font-size="14.00">ManualGripping</text>
<text xml:space="preserve" text-anchor="start" x="46.12" y="-240.5" font-family="Times,serif" font-size="10.00">$&gt;()</text>
<text xml:space="preserve" text-anchor="start" x="46.12" y="-229.25" font-family="Times,serif" font-size="10.00"> &#160;&#160;&#160;&#160;&#160;&#160;&#160;&#160;&#160;&#160;&#160;&#160;&#160;&#160;&#160;&#160;&#160;&#160;&#160;&#160;&#160;&#160;&#160;</text>
<polygon fill="#00688b" stroke="#00688b" points="38.12,-255.5 38.12,-255.5 153.88,-255.5 153.88,-255.5 38.12,-255.5"/>
<path fill="none" stroke="#00688b" d="M50.12,-219C50.12,-219 141.88,-219 141.88,-219 147.88,-219 153.88,-225 153.88,-231 153.88,-231 153.88,-274 153.88,-274 153.88,-280 147.88,-286 141.88,-286 141.88,-286 50.12,-286 50.12,-286 44.12,-286 38.12,-280 38.12,-274 38.12,-274 38.12,-231 38.12,-231 38.12,-225 44.12,-219 50.12,-219"/>
</g>
<!-- ManualIdle&#45;&gt;ManualGripping -->
<g id="edge9" class="edge">
<title>ManualIdle&#45;&gt;ManualGripping</title>
<path fill="none" stroke="red" d="M315.29,-474.31C225.05,-466.12 83.37,-447.09 50.75,-406.75 24.95,-374.85 44.06,-328.66 64.81,-295.33"/>
<polygon fill="red" stroke="red" points="67.62,-297.43 70.13,-287.14 61.75,-293.62 67.62,-297.43"/>
<text xml:space="preserve" text-anchor="middle" x="65.38" y="-393.45" font-family="Times,serif" font-size="14.00"> grip </text>
</g>
<!-- ManualReleasing -->
<g id="node11" class="node">
<title>ManualReleasing</title>
<path fill="azure" stroke="none" d="M455.62,-286C455.62,-286 362.38,-286 362.38,-286 356.38,-286 350.38,-280 350.38,-274 350.38,-274 350.38,-231 350.38,-231 350.38,-225 356.38,-219 362.38,-219 362.38,-219 455.62,-219 455.62,-219 461.62,-219 467.62,-225 467.62,-231 467.62,-231 467.62,-274 467.62,-274 467.62,-280 461.62,-286 455.62,-286"/>
<text xml:space="preserve" text-anchor="start" x="358.38" y="-265.7" font-family="Times,serif" font-weight="bold" font-size="14.00">ManualReleasing</text>
<text xml:space="preserve" text-anchor="start" x="358.38" y="-240.5" font-family="Times,serif" font-size="10.00">$&gt;()</text>
<text xml:space="preserve" text-anchor="start" x="358.38" y="-229.25" font-family="Times,serif" font-size="10.00"> &#160;&#160;&#160;&#160;&#160;&#160;&#160;&#160;&#160;&#160;&#160;&#160;&#160;&#160;&#160;&#160;&#160;&#160;&#160;&#160;&#160;&#160;&#160;</text>
<polygon fill="#00688b" stroke="#00688b" points="350.38,-255.5 350.38,-255.5 467.62,-255.5 467.62,-255.5 350.38,-255.5"/>
<path fill="none" stroke="#00688b" d="M362.38,-219C362.38,-219 455.62,-219 455.62,-219 461.62,-219 467.62,-225 467.62,-231 467.62,-231 467.62,-274 467.62,-274 467.62,-280 461.62,-286 455.62,-286 455.62,-286 362.38,-286 362.38,-286 356.38,-286 350.38,-280 350.38,-274 350.38,-274 350.38,-231 350.38,-231 350.38,-225 356.38,-219 362.38,-219"/>
</g>
<!-- ManualIdle&#45;&gt;ManualReleasing -->
<g id="edge10" class="edge">
<title>ManualIdle&#45;&gt;ManualReleasing</title>
<path fill="none" stroke="red" d="M389.5,-424.75C389.29,-418.68 389.12,-412.58 389,-406.75 388.85,-399.42 388.47,-397.56 389,-390.25 391.27,-358.98 396.44,-324.01 400.95,-297.26"/>
<polygon fill="red" stroke="red" points="404.39,-297.9 402.64,-287.45 397.49,-296.71 404.39,-297.9"/>
<text xml:space="preserve" text-anchor="middle" x="411.5" y="-393.45" font-family="Times,serif" font-size="14.00"> release </text>
</g>
<!-- ManualIdle&#45;&gt;AutoIdle -->
<g id="edge11" class="edge">
<title>ManualIdle&#45;&gt;AutoIdle</title>
<path fill="none" stroke="red" d="M468.87,-429.4C472.9,-427.67 476.95,-426.1 481,-424.75 522.48,-410.89 647.52,-439.06 677,-406.75 700.77,-380.69 698.86,-340.55 691.49,-307.88"/>
<polygon fill="red" stroke="red" points="694.99,-307.45 689.17,-298.59 688.19,-309.14 694.99,-307.45"/>
<text xml:space="preserve" text-anchor="middle" x="712.51" y="-393.45" font-family="Times,serif" font-size="14.00"> set_auto </text>
</g>
<!-- ManualMoving&#45;&gt;ManualIdle -->
<g id="edge12" class="edge">
<title>ManualMoving&#45;&gt;ManualIdle</title>
<path fill="none" stroke="red" d="M290.37,-308.16C309.46,-340.39 333.73,-381.37 353.76,-415.19"/>
<polygon fill="red" stroke="red" points="350.68,-416.86 358.79,-423.68 356.71,-413.29 350.68,-416.86"/>
<text xml:space="preserve" text-anchor="middle" x="362.53" y="-393.45" font-family="Times,serif" font-size="14.00"> tick </text>
</g>
<!-- ManualMoving&#45;&gt;ManualIdle -->
<g id="edge13" class="edge">
<title>ManualMoving&#45;&gt;ManualIdle</title>
<path fill="none" stroke="red" d="M213.73,-308.33C186.77,-344.92 159.72,-389.38 172.25,-406.75 202.19,-448.25 256.69,-466.53 303.92,-474.42"/>
<polygon fill="red" stroke="red" points="303.22,-477.85 313.63,-475.89 304.27,-470.93 303.22,-477.85"/>
<text xml:space="preserve" text-anchor="middle" x="210.12" y="-393.45" font-family="Times,serif" font-size="14.00"> stop_motion </text>
</g>
<!-- ManualGripping&#45;&gt;ManualIdle -->
<g id="edge14" class="edge">
<title>ManualGripping&#45;&gt;ManualIdle</title>
<path fill="none" stroke="red" d="M94.41,-285.79C94.53,-320.25 100.25,-374.26 131.25,-406.75 175.67,-453.3 247.13,-470.94 304.02,-477.28"/>
<polygon fill="red" stroke="red" points="303.38,-480.73 313.68,-478.25 304.08,-473.77 303.38,-480.73"/>
<text xml:space="preserve" text-anchor="middle" x="148.12" y="-393.45" font-family="Times,serif" font-size="14.00"> done </text>
</g>
<!-- ManualReleasing&#45;&gt;ManualIdle -->
<g id="edge15" class="edge">
<title>ManualReleasing&#45;&gt;ManualIdle</title>
<path fill="none" stroke="red" d="M422.12,-285.89C432.97,-317.18 444.96,-365.73 434,-406.75 433.32,-409.31 432.52,-411.88 431.62,-414.43"/>
<polygon fill="red" stroke="red" points="428.48,-412.86 428.03,-423.45 434.99,-415.45 428.48,-412.86"/>
<text xml:space="preserve" text-anchor="middle" x="454.04" y="-393.45" font-family="Times,serif" font-size="14.00"> done </text>
</g>
<!-- Auto -->
<g id="node12" class="node">
<title>Auto</title>
<ellipse fill="azure" stroke="#00688b" cx="528" cy="-252.5" rx="0.36" ry="0.36"/>
</g>
<!-- Auto&#45;&gt;ManualIdle -->
<g id="edge22" class="edge">
<title>Auto&#45;&gt;ManualIdle</title>
<path fill="none" stroke="red" d="M520,-333.5C516.12,-350.33 510.41,-367.45 502,-382.25 494.92,-394.72 485.65,-406.41 475.49,-417.06"/>
<polygon fill="red" stroke="red" points="473.22,-414.38 468.64,-423.93 478.18,-419.32 473.22,-414.38"/>
<text xml:space="preserve" text-anchor="middle" x="530.6" y="-393.45" font-family="Times,serif" font-size="14.00"> set_manual </text>
</g>
<!-- AutoIdle&#45;&gt;ManualIdle -->
<g id="edge18" class="edge">
<title>AutoIdle&#45;&gt;ManualIdle</title>
<path fill="none" stroke="red" d="M654.74,-297.15C637.74,-332.3 608.99,-380.08 569,-406.75 535.79,-428.9 518.11,-410.03 481,-424.75 480.37,-425 479.73,-425.26 479.1,-425.52"/>
<polygon fill="red" stroke="red" points="477.93,-422.21 470.2,-429.46 480.76,-428.61 477.93,-422.21"/>
<text xml:space="preserve" text-anchor="middle" x="623.43" y="-393.45" font-family="Times,serif" font-size="14.00"> set_manual </text>
</g>
<!-- AutoExecuting -->
<g id="node14" class="node">
<title>AutoExecuting</title>
<path fill="azure" stroke="none" d="M659.5,-144C659.5,-144 580.5,-144 580.5,-144 574.5,-144 568.5,-138 568.5,-132 568.5,-132 568.5,-44 568.5,-44 568.5,-38 574.5,-32 580.5,-32 580.5,-32 659.5,-32 659.5,-32 665.5,-32 671.5,-38 671.5,-44 671.5,-44 671.5,-132 671.5,-132 671.5,-138 665.5,-144 659.5,-144"/>
<text xml:space="preserve" text-anchor="start" x="576.88" y="-123.7" font-family="Times,serif" font-weight="bold" font-size="14.00">AutoExecuting</text>
<text xml:space="preserve" text-anchor="start" x="576.5" y="-98.5" font-family="Times,serif" font-size="10.00">$&gt;()</text>
<text xml:space="preserve" text-anchor="start" x="576.5" y="-87.25" font-family="Times,serif" font-size="10.00">tick()</text>
<text xml:space="preserve" text-anchor="start" x="576.5" y="-76" font-family="Times,serif" font-size="10.00">program_step_done()</text>
<text xml:space="preserve" text-anchor="start" x="576.5" y="-64.75" font-family="Times,serif" font-size="10.00">stop_motion()</text>
<text xml:space="preserve" text-anchor="start" x="576.5" y="-53.5" font-family="Times,serif" font-size="10.00">status()</text>
<text xml:space="preserve" text-anchor="start" x="593" y="-42.25" font-family="Times,serif" font-size="10.00"> &#160;&#160;&#160;&#160;&#160;&#160;&#160;&#160;&#160;&#160;&#160;&#160;&#160;&#160;&#160;&#160;&#160;&#160;&#160;&#160;&#160;&#160;&#160;</text>
<polygon fill="#00688b" stroke="#00688b" points="568.5,-113.5 568.5,-113.5 671.5,-113.5 671.5,-113.5 568.5,-113.5"/>
<path fill="none" stroke="#00688b" d="M580.5,-32C580.5,-32 659.5,-32 659.5,-32 665.5,-32 671.5,-38 671.5,-44 671.5,-44 671.5,-132 671.5,-132 671.5,-138 665.5,-144 659.5,-144 659.5,-144 580.5,-144 580.5,-144 574.5,-144 568.5,-138 568.5,-132 568.5,-132 568.5,-44 568.5,-44 568.5,-38 574.5,-32 580.5,-32"/>
</g>
<!-- AutoIdle&#45;&gt;AutoExecuting -->
<g id="edge17" class="edge">
<title>AutoIdle&#45;&gt;AutoExecuting</title>
<path fill="none" stroke="red" d="M610.14,-230.68C586.04,-219.27 561.04,-202.45 547.25,-178.5 537.3,-161.21 546.11,-143.82 560.59,-129.03"/>
<polygon fill="red" stroke="red" points="562.58,-131.96 567.5,-122.58 557.8,-126.84 562.58,-131.96"/>
<text xml:space="preserve" text-anchor="middle" x="586.62" y="-165.2" font-family="Times,serif" font-size="14.00"> run_program </text>
</g>
<!-- AutoExecuting&#45;&gt;AutoIdle -->
<g id="edge20" class="edge">
<title>AutoExecuting&#45;&gt;AutoIdle</title>
<path fill="none" stroke="red" d="M637.85,-143.73C643.5,-161.06 649.74,-180.19 655.38,-197.47"/>
<polygon fill="red" stroke="red" points="651.9,-198.09 658.33,-206.51 658.55,-195.92 651.9,-198.09"/>
<text xml:space="preserve" text-anchor="middle" x="685.96" y="-165.2" font-family="Times,serif" font-size="14.00"> stop_motion </text>
</g>
<!-- AutoExecuting&#45;&gt;AutoIdle -->
<g id="edge21" class="edge">
<title>AutoExecuting&#45;&gt;AutoIdle</title>
<path fill="none" stroke="red" d="M671.36,-111.39C691.94,-123.24 713.48,-139.96 725,-162 731.18,-173.82 729.4,-186.31 723.77,-198.09"/>
<polygon fill="red" stroke="red" points="720.9,-196.05 718.97,-206.47 726.97,-199.53 720.9,-196.05"/>
<text xml:space="preserve" text-anchor="middle" x="757.75" y="-165.2" font-family="Times,serif" font-size="14.00"> complete </text>
</g>
<!-- AutoExecuting&#45;&gt;AutoExecuting -->
<g id="edge19" class="edge">
<title>AutoExecuting&#45;&gt;AutoExecuting</title>
<path fill="none" stroke="red" d="M671.22,-102.88C681.85,-101.31 689.5,-96.35 689.5,-88 689.5,-82.91 686.66,-79.08 682.04,-76.51"/>
<polygon fill="red" stroke="red" points="683.25,-73.22 672.66,-73.57 681.16,-79.9 683.25,-73.22"/>
<text xml:space="preserve" text-anchor="middle" x="747.25" y="-82.95" font-family="Times,serif" font-size="14.00"> program_step_done </text>
</g>
</g>
</svg>
