<?xml version="1.0" encoding="UTF-8" standalone="no"?>
<!DOCTYPE svg PUBLIC "-//W3C//DTD SVG 1.1//EN"
 "http://www.w3.org/Graphics/SVG/1.1/DTD/svg11.dtd">
<!-- Generated by graphviz version 14.1.5 (20260411.2331)
 -->
<!-- Title: PrintSpooler Pages: 1 -->
<svg width="160pt" height="346pt"
 viewBox="0.00 0.00 160.00 346.00" xmlns="http://www.w3.org/2000/svg" xmlns:xlink="http://www.w3.org/1999/xlink">
<g id="graph0" class="graph" transform="scale(1 1) rotate(0) translate(4 342.4)">
<title>PrintSpooler</title>
<polygon fill="white" stroke="none" points="-4,4 -4,-342.4 156.25,-342.4 156.25,4 -4,4"/>
<!-- Entry -->
<g id="node1" class="node">
<title>Entry</title>
<ellipse fill="black" stroke="#00688b" cx="69.18" cy="-331.2" rx="7.2" ry="7.2"/>
</g>
<!-- Idle -->
<g id="node2" class="node">
<title>Idle</title>
<path fill="azure" stroke="none" d="M122.55,-287C122.55,-287 15.8,-287 15.8,-287 9.8,-287 3.8,-281 3.8,-275 3.8,-275 3.8,-209.5 3.8,-209.5 3.8,-203.5 9.8,-197.5 15.8,-197.5 15.8,-197.5 122.55,-197.5 122.55,-197.5 128.55,-197.5 134.55,-203.5 134.55,-209.5 134.55,-209.5 134.55,-275 134.55,-275 134.55,-281 128.55,-287 122.55,-287"/>
<text xml:space="preserve" text-anchor="start" x="57.93" y="-266.7" font-family="Times,serif" font-weight="bold" font-size="14.00">Idle</text>
<text xml:space="preserve" text-anchor="start" x="11.8" y="-241.5" font-family="Times,serif" font-size="10.00">$&gt;()</text>
<text xml:space="preserve" text-anchor="start" x="11.8" y="-230.25" font-family="Times,serif" font-size="10.00">submit(name: str, pages: int)</text>
<text xml:space="preserve" text-anchor="start" x="11.8" y="-219" font-family="Times,serif" font-size="10.00">status()</text>
<text xml:space="preserve" text-anchor="start" x="55.68" y="-207.75" font-family="Times,serif" font-size="10.00"> &#160;&#160;&#160;&#160;&#160;&#160;&#160;&#160;&#160;&#160;&#160;</text>
<polygon fill="#00688b" stroke="#00688b" points="3.8,-256.5 3.8,-256.5 134.55,-256.5 134.55,-256.5 3.8,-256.5"/>
<path fill="none" stroke="#00688b" d="M15.8,-197.5C15.8,-197.5 122.55,-197.5 122.55,-197.5 128.55,-197.5 134.55,-203.5 134.55,-209.5 134.55,-209.5 134.55,-275 134.55,-275 134.55,-281 128.55,-287 122.55,-287 122.55,-287 15.8,-287 15.8,-287 9.8,-287 3.8,-281 3.8,-275 3.8,-275 3.8,-209.5 3.8,-209.5 3.8,-203.5 9.8,-197.5 15.8,-197.5"/>
</g>
<!-- Entry&#45;&gt;Idle -->
<g id="edge1" class="edge">
<title>Entry&#45;&gt;Idle</title>
<path fill="none" stroke="red" d="M69.18,-323.66C69.18,-317.75 69.18,-308.41 69.18,-298.16"/>
<polygon fill="red" stroke="red" points="72.68,-298.31 69.18,-288.31 65.68,-298.31 72.68,-298.31"/>
</g>
<!-- Printing -->
<g id="node3" class="node">
<title>Printing</title>
<path fill="azure" stroke="none" d="M122.55,-145C122.55,-145 15.8,-145 15.8,-145 9.8,-145 3.8,-139 3.8,-133 3.8,-133 3.8,-12 3.8,-12 3.8,-6 9.8,0 15.8,0 15.8,0 122.55,0 122.55,0 128.55,0 134.55,-6 134.55,-12 134.55,-12 134.55,-133 134.55,-133 134.55,-139 128.55,-145 122.55,-145"/>
<text xml:space="preserve" text-anchor="start" x="45.18" y="-124.7" font-family="Times,serif" font-weight="bold" font-size="14.00">Printing</text>
<text xml:space="preserve" text-anchor="start" x="11.8" y="-99.5" font-family="Times,serif" font-size="10.00">$&gt;()</text>
<text xml:space="preserve" text-anchor="start" x="11.8" y="-88.25" font-family="Times,serif" font-size="10.00">submit(name: str, pages: int)</text>
<text xml:space="preserve" text-anchor="start" x="11.8" y="-77" font-family="Times,serif" font-size="10.00">tick()</text>
<text xml:space="preserve" text-anchor="start" x="11.8" y="-65.75" font-family="Times,serif" font-size="10.00">cancel_job(name: str)</text>
<text xml:space="preserve" text-anchor="start" x="11.8" y="-54.5" font-family="Times,serif" font-size="10.00">status()</text>
<text xml:space="preserve" text-anchor="start" x="55.68" y="-43.25" font-family="Times,serif" font-size="10.00"> &#160;&#160;&#160;&#160;&#160;&#160;&#160;&#160;&#160;&#160;&#160;</text>
<text xml:space="preserve" text-anchor="start" x="11.8" y="-20.75" font-family="Times,serif" font-size="9.00" fill="#666666">pages_done: int</text>
<text xml:space="preserve" text-anchor="start" x="26.05" y="-10.25" font-family="Times,serif" font-size="9.00" fill="#666666"> &#160;&#160;&#160;&#160;&#160;&#160;&#160;&#160;&#160;&#160;&#160;</text>
<polygon fill="#00688b" stroke="#00688b" points="3.8,-114.5 3.8,-114.5 134.55,-114.5 134.55,-114.5 3.8,-114.5"/>
<polygon fill="#00688b" stroke="#00688b" points="3.8,-35 3.8,-35 134.55,-35 134.55,-35 3.8,-35"/>
<path fill="none" stroke="#00688b" d="M15.8,0C15.8,0 122.55,0 122.55,0 128.55,0 134.55,-6 134.55,-12 134.55,-12 134.55,-133 134.55,-133 134.55,-139 128.55,-145 122.55,-145 122.55,-145 15.8,-145 15.8,-145 9.8,-145 3.8,-139 3.8,-133 3.8,-133 3.8,-12 3.8,-12 3.8,-6 9.8,0 15.8,0"/>
</g>
<!-- Idle&#45;&gt;Printing -->
<g id="edge2" class="edge">
<title>Idle&#45;&gt;Printing</title>
<path fill="none" stroke="red" d="M9.4,-197.88C1.83,-187.39 -2,-175.56 2.18,-163 3.04,-160.4 4.02,-157.81 5.09,-155.24"/>
<polygon fill="red" stroke="red" points="8.25,-156.73 9.33,-146.19 1.91,-153.76 8.25,-156.73"/>
<text xml:space="preserve" text-anchor="middle" x="24.68" y="-166.2" font-family="Times,serif" font-size="14.00"> submit </text>
</g>
<!-- Idle&#45;&gt;Printing -->
<g id="edge3" class="edge">
<title>Idle&#45;&gt;Printing</title>
<path fill="none" stroke="red" d="M69.18,-197.61C69.18,-184.9 69.18,-170.57 69.18,-156.28"/>
<polygon fill="red" stroke="red" points="72.68,-156.37 69.18,-146.37 65.68,-156.37 72.68,-156.37"/>
<text xml:space="preserve" text-anchor="middle" x="95.43" y="-166.2" font-family="Times,serif" font-size="14.00"> dequeue </text>
</g>
<!-- Printing&#45;&gt;Idle -->
<g id="edge4" class="edge">
<title>Printing&#45;&gt;Idle</title>
<path fill="none" stroke="red" d="M116.62,-144.76C119.23,-150.76 121.47,-156.88 123.18,-163 125.49,-171.31 124.61,-179.49 121.74,-187.24"/>
<polygon fill="red" stroke="red" points="118.63,-185.64 117.38,-196.16 124.91,-188.71 118.63,-185.64"/>
<text xml:space="preserve" text-anchor="middle" x="138.37" y="-166.2" font-family="Times,serif" font-size="14.00"> tick </text>
</g>
</g>
</svg>
