<?xml version="1.0" encoding="UTF-8" standalone="no"?>
<!DOCTYPE svg PUBLIC "-//W3C//DTD SVG 1.1//EN"
 "http://www.w3.org/Graphics/SVG/1.1/DTD/svg11.dtd">
<!-- Generated by graphviz version 14.1.5 (20260411.2331)
 -->
<!-- Title: ManufacturingCell Pages: 1 -->
<svg width="579pt" height="551pt"
 viewBox="0.00 0.00 579.00 551.00" xmlns="http://www.w3.org/2000/svg" xmlns:xlink="http://www.w3.org/1999/xlink">
<g id="graph0" class="graph" transform="scale(1 1) rotate(0) translate(4 547)">
<title>ManufacturingCell</title>
<polygon fill="white" stroke="none" points="-4,4 -4,-547 575.2,-547 575.2,4 -4,4"/>
<g id="clust1" class="cluster">
<title>cluster_Active</title>
<path fill="none" stroke="black" d="M20,-8C20,-8 100,-8 100,-8 106,-8 112,-14 112,-20 112,-20 112,-523 112,-523 112,-529 106,-535 100,-535 100,-535 20,-535 20,-535 14,-535 8,-529 8,-523 8,-523 8,-20 8,-20 8,-14 14,-8 20,-8"/>
<text xml:space="preserve" text-anchor="start" x="42" y="-514.25" font-family="Times,serif" font-size="14.00">Active</text>
<polygon fill="black" stroke="black" points="38,-507.5 38,-507.5 82,-507.5 82,-507.5 38,-507.5"/>
</g>
<!-- Entry -->
<g id="node1" class="node">
<title>Entry</title>
<ellipse fill="black" stroke="#00688b" cx="564" cy="-252.25" rx="7.2" ry="7.2"/>
</g>
<!-- Idle -->
<g id="node2" class="node">
<title>Idle</title>
<path fill="azure" stroke="none" d="M392.5,-122C392.5,-122 157.5,-122 157.5,-122 151.5,-122 145.5,-116 145.5,-110 145.5,-110 145.5,-44.5 145.5,-44.5 145.5,-38.5 151.5,-32.5 157.5,-32.5 157.5,-32.5 392.5,-32.5 392.5,-32.5 398.5,-32.5 404.5,-38.5 404.5,-44.5 404.5,-44.5 404.5,-110 404.5,-110 404.5,-116 398.5,-122 392.5,-122"/>
<text xml:space="preserve" text-anchor="start" x="263.75" y="-101.7" font-family="Times,serif" font-weight="bold" font-size="14.00">Idle</text>
<text xml:space="preserve" text-anchor="start" x="153.5" y="-76.5" font-family="Times,serif" font-size="10.00">$&gt;()</text>
<text xml:space="preserve" text-anchor="start" x="153.5" y="-65.25" font-family="Times,serif" font-size="10.00">work_order(order_id: str, part: str, program: str, priority: int)</text>
<text xml:space="preserve" text-anchor="start" x="153.5" y="-54" font-family="Times,serif" font-size="10.00">status()</text>
<text xml:space="preserve" text-anchor="start" x="261.5" y="-42.75" font-family="Times,serif" font-size="10.00"> &#160;&#160;&#160;&#160;&#160;&#160;&#160;&#160;&#160;&#160;&#160;</text>
<polygon fill="#00688b" stroke="#00688b" points="145.5,-91.5 145.5,-91.5 404.5,-91.5 404.5,-91.5 145.5,-91.5"/>
<path fill="none" stroke="#00688b" d="M157.5,-32.5C157.5,-32.5 392.5,-32.5 392.5,-32.5 398.5,-32.5 404.5,-38.5 404.5,-44.5 404.5,-44.5 404.5,-110 404.5,-110 404.5,-116 398.5,-122 392.5,-122 392.5,-122 157.5,-122 157.5,-122 151.5,-122 145.5,-116 145.5,-110 145.5,-110 145.5,-44.5 145.5,-44.5 145.5,-38.5 151.5,-32.5 157.5,-32.5"/>
</g>
<!-- Entry&#45;&gt;Idle -->
<g id="edge1" class="edge">
<title>Entry&#45;&gt;Idle</title>
<path fill="none" stroke="red" d="M564.07,-244.77C563.85,-232.71 561.69,-206.63 548,-191 513.53,-151.64 463.16,-125.75 415.06,-108.83"/>
<polygon fill="red" stroke="red" points="416.22,-105.53 405.62,-105.64 413.97,-112.16 416.22,-105.53"/>
</g>
<!-- Setup -->
<g id="node4" class="node">
<title>Setup</title>
<path fill="azure" stroke="none" d="M73.62,-488.5C73.62,-488.5 28.38,-488.5 28.38,-488.5 22.38,-488.5 16.38,-482.5 16.38,-476.5 16.38,-476.5 16.38,-378 16.38,-378 16.38,-372 22.38,-366 28.38,-366 28.38,-366 73.62,-366 73.62,-366 79.62,-366 85.62,-372 85.62,-378 85.62,-378 85.62,-476.5 85.62,-476.5 85.62,-482.5 79.62,-488.5 73.62,-488.5"/>
<text xml:space="preserve" text-anchor="start" x="34.5" y="-468.2" font-family="Times,serif" font-weight="bold" font-size="14.00">Setup</text>
<text xml:space="preserve" text-anchor="start" x="24.38" y="-443" font-family="Times,serif" font-size="10.00">$&gt;()</text>
<text xml:space="preserve" text-anchor="start" x="24.38" y="-431.75" font-family="Times,serif" font-size="10.00">tick()</text>
<text xml:space="preserve" text-anchor="start" x="24.38" y="-420.5" font-family="Times,serif" font-size="10.00">status()</text>
<text xml:space="preserve" text-anchor="start" x="24.38" y="-409.25" font-family="Times,serif" font-size="10.00"> &#160;&#160;&#160;&#160;&#160;&#160;&#160;&#160;&#160;&#160;&#160;&#160;&#160;&#160;&#160;</text>
<text xml:space="preserve" text-anchor="start" x="24.38" y="-386.75" font-family="Times,serif" font-size="9.00" fill="#666666">setup_ticks: int</text>
<text xml:space="preserve" text-anchor="start" x="33" y="-376.25" font-family="Times,serif" font-size="9.00" fill="#666666"> &#160;&#160;&#160;&#160;&#160;&#160;&#160;&#160;&#160;&#160;&#160;&#160;&#160;&#160;&#160;</text>
<polygon fill="#00688b" stroke="#00688b" points="16.38,-458 16.38,-458 85.62,-458 85.62,-458 16.38,-458"/>
<polygon fill="#00688b" stroke="#00688b" points="16.38,-401 16.38,-401 85.62,-401 85.62,-401 16.38,-401"/>
<path fill="none" stroke="#00688b" d="M28.38,-366C28.38,-366 73.62,-366 73.62,-366 79.62,-366 85.62,-372 85.62,-378 85.62,-378 85.62,-476.5 85.62,-476.5 85.62,-482.5 79.62,-488.5 73.62,-488.5 73.62,-488.5 28.38,-488.5 28.38,-488.5 22.38,-488.5 16.38,-482.5 16.38,-476.5 16.38,-476.5 16.38,-378 16.38,-378 16.38,-372 22.38,-366 28.38,-366"/>
</g>
<!-- Idle&#45;&gt;Setup -->
<g id="edge2" class="edge">
<title>Idle&#45;&gt;Setup</title>
<path fill="none" stroke="red" d="M212.67,-121.8C189.24,-140.78 164.05,-164.71 146.5,-191 114.58,-238.81 126.68,-260.26 105,-313.5 99.3,-327.49 92.71,-342.21 86.13,-356.23"/>
<polygon fill="red" stroke="red" points="83.13,-354.38 82.01,-364.92 89.46,-357.39 83.13,-354.38"/>
<text xml:space="preserve" text-anchor="middle" x="181.75" y="-247.2" font-family="Times,serif" font-size="14.00"> work_order </text>
</g>
<!-- Idle&#45;&gt;Setup -->
<g id="edge3" class="edge">
<title>Idle&#45;&gt;Setup</title>
<path fill="none" stroke="red" d="M264.75,-121.91C248.96,-188.91 220.14,-309.79 217,-313.5 178.83,-358.53 141.15,-329.2 95,-366 94.58,-366.33 94.17,-366.67 93.75,-367.01"/>
<polygon fill="red" stroke="red" points="91.42,-364.4 86.49,-373.78 96.2,-369.52 91.42,-364.4"/>
<text xml:space="preserve" text-anchor="middle" x="258.88" y="-247.2" font-family="Times,serif" font-size="14.00"> $&gt; </text>
</g>
<!-- Active -->
<g id="node3" class="node">
<title>Active</title>
<ellipse fill="azure" stroke="#00688b" cx="104" cy="-427.25" rx="0.36" ry="0.36"/>
</g>
<!-- EStop -->
<g id="node7" class="node">
<title>EStop</title>
<path fill="azure" stroke="none" d="M526.5,-302.62C526.5,-302.62 291.5,-302.62 291.5,-302.62 285.5,-302.62 279.5,-296.62 279.5,-290.62 279.5,-290.62 279.5,-213.88 279.5,-213.88 279.5,-207.88 285.5,-201.88 291.5,-201.88 291.5,-201.88 526.5,-201.88 526.5,-201.88 532.5,-201.88 538.5,-207.88 538.5,-213.88 538.5,-213.88 538.5,-290.62 538.5,-290.62 538.5,-296.62 532.5,-302.62 526.5,-302.62"/>
<text xml:space="preserve" text-anchor="start" x="391.38" y="-282.32" font-family="Times,serif" font-weight="bold" font-size="14.00">EStop</text>
<text xml:space="preserve" text-anchor="start" x="287.5" y="-257.12" font-family="Times,serif" font-size="10.00">$&gt;()</text>
<text xml:space="preserve" text-anchor="start" x="287.5" y="-245.88" font-family="Times,serif" font-size="10.00">reset()</text>
<text xml:space="preserve" text-anchor="start" x="287.5" y="-234.62" font-family="Times,serif" font-size="10.00">work_order(order_id: str, part: str, program: str, priority: int)</text>
<text xml:space="preserve" text-anchor="start" x="287.5" y="-223.38" font-family="Times,serif" font-size="10.00">status()</text>
<text xml:space="preserve" text-anchor="start" x="395.5" y="-212.12" font-family="Times,serif" font-size="10.00"> &#160;&#160;&#160;&#160;&#160;&#160;&#160;&#160;&#160;&#160;&#160;</text>
<polygon fill="#00688b" stroke="#00688b" points="279.5,-272.12 279.5,-272.12 538.5,-272.12 538.5,-272.12 279.5,-272.12"/>
<path fill="none" stroke="#00688b" d="M291.5,-201.88C291.5,-201.88 526.5,-201.88 526.5,-201.88 532.5,-201.88 538.5,-207.88 538.5,-213.88 538.5,-213.88 538.5,-290.62 538.5,-290.62 538.5,-296.62 532.5,-302.62 526.5,-302.62 526.5,-302.62 291.5,-302.62 291.5,-302.62 285.5,-302.62 279.5,-296.62 279.5,-290.62 279.5,-290.62 279.5,-213.88 279.5,-213.88 279.5,-207.88 285.5,-201.88 291.5,-201.88"/>
</g>
<!-- Active&#45;&gt;EStop -->
<g id="edge7" class="edge">
<title>Active&#45;&gt;EStop</title>
<path fill="none" stroke="red" d="M112,-422.27C134.46,-411.05 199.96,-377.99 253,-348 275.1,-335.5 298.66,-321.54 320.59,-308.26"/>
<polygon fill="red" stroke="red" points="322.18,-311.39 328.91,-303.2 318.55,-305.4 322.18,-311.39"/>
<text xml:space="preserve" text-anchor="middle" x="327.26" y="-334.7" font-family="Times,serif" font-size="14.00"> emergency_stop </text>
</g>
<!-- Machining -->
<g id="node5" class="node">
<title>Machining</title>
<path fill="azure" stroke="none" d="M83.5,-313.5C83.5,-313.5 28.5,-313.5 28.5,-313.5 22.5,-313.5 16.5,-307.5 16.5,-301.5 16.5,-301.5 16.5,-203 16.5,-203 16.5,-197 22.5,-191 28.5,-191 28.5,-191 83.5,-191 83.5,-191 89.5,-191 95.5,-197 95.5,-203 95.5,-203 95.5,-301.5 95.5,-301.5 95.5,-307.5 89.5,-313.5 83.5,-313.5"/>
<text xml:space="preserve" text-anchor="start" x="24.5" y="-293.2" font-family="Times,serif" font-weight="bold" font-size="14.00">Machining</text>
<text xml:space="preserve" text-anchor="start" x="24.5" y="-268" font-family="Times,serif" font-size="10.00">$&gt;()</text>
<text xml:space="preserve" text-anchor="start" x="24.5" y="-256.75" font-family="Times,serif" font-size="10.00">tick()</text>
<text xml:space="preserve" text-anchor="start" x="24.5" y="-245.5" font-family="Times,serif" font-size="10.00">status()</text>
<text xml:space="preserve" text-anchor="start" x="24.5" y="-234.25" font-family="Times,serif" font-size="10.00"> &#160;&#160;&#160;&#160;&#160;&#160;&#160;&#160;&#160;&#160;&#160;&#160;&#160;&#160;&#160;</text>
<text xml:space="preserve" text-anchor="start" x="24.5" y="-211.75" font-family="Times,serif" font-size="9.00" fill="#666666">cycle_ticks: int</text>
<text xml:space="preserve" text-anchor="start" x="32.75" y="-201.25" font-family="Times,serif" font-size="9.00" fill="#666666"> &#160;&#160;&#160;&#160;&#160;&#160;&#160;&#160;&#160;&#160;&#160;&#160;&#160;&#160;&#160;</text>
<polygon fill="#00688b" stroke="#00688b" points="16.5,-283 16.5,-283 95.5,-283 95.5,-283 16.5,-283"/>
<polygon fill="#00688b" stroke="#00688b" points="16.5,-226 16.5,-226 95.5,-226 95.5,-226 16.5,-226"/>
<path fill="none" stroke="#00688b" d="M28.5,-191C28.5,-191 83.5,-191 83.5,-191 89.5,-191 95.5,-197 95.5,-203 95.5,-203 95.5,-301.5 95.5,-301.5 95.5,-307.5 89.5,-313.5 83.5,-313.5 83.5,-313.5 28.5,-313.5 28.5,-313.5 22.5,-313.5 16.5,-307.5 16.5,-301.5 16.5,-301.5 16.5,-203 16.5,-203 16.5,-197 22.5,-191 28.5,-191"/>
</g>
<!-- Setup&#45;&gt;Machining -->
<g id="edge4" class="edge">
<title>Setup&#45;&gt;Machining</title>
<path fill="none" stroke="red" d="M52.73,-366.23C53.12,-352.89 53.53,-338.61 53.93,-324.86"/>
<polygon fill="red" stroke="red" points="57.43,-325.07 54.22,-314.97 50.43,-324.87 57.43,-325.07"/>
<text xml:space="preserve" text-anchor="middle" x="67.52" y="-334.7" font-family="Times,serif" font-size="14.00"> tick </text>
</g>
<!-- Teardown -->
<g id="node6" class="node">
<title>Teardown</title>
<path fill="azure" stroke="none" d="M87.75,-138.5C87.75,-138.5 28.25,-138.5 28.25,-138.5 22.25,-138.5 16.25,-132.5 16.25,-126.5 16.25,-126.5 16.25,-28 16.25,-28 16.25,-22 22.25,-16 28.25,-16 28.25,-16 87.75,-16 87.75,-16 93.75,-16 99.75,-22 99.75,-28 99.75,-28 99.75,-126.5 99.75,-126.5 99.75,-132.5 93.75,-138.5 87.75,-138.5"/>
<text xml:space="preserve" text-anchor="start" x="28.75" y="-118.2" font-family="Times,serif" font-weight="bold" font-size="14.00">Teardown</text>
<text xml:space="preserve" text-anchor="start" x="24.25" y="-93" font-family="Times,serif" font-size="10.00">$&gt;()</text>
<text xml:space="preserve" text-anchor="start" x="24.25" y="-81.75" font-family="Times,serif" font-size="10.00">tick()</text>
<text xml:space="preserve" text-anchor="start" x="24.25" y="-70.5" font-family="Times,serif" font-size="10.00">status()</text>
<text xml:space="preserve" text-anchor="start" x="24.25" y="-59.25" font-family="Times,serif" font-size="10.00"> &#160;&#160;&#160;&#160;&#160;&#160;&#160;&#160;&#160;&#160;&#160;&#160;&#160;&#160;&#160;</text>
<text xml:space="preserve" text-anchor="start" x="24.25" y="-36.75" font-family="Times,serif" font-size="9.00" fill="#666666">teardown_ticks: int</text>
<text xml:space="preserve" text-anchor="start" x="40" y="-26.25" font-family="Times,serif" font-size="9.00" fill="#666666"> &#160;&#160;&#160;&#160;&#160;&#160;&#160;&#160;&#160;&#160;&#160;&#160;&#160;&#160;&#160;</text>
<polygon fill="#00688b" stroke="#00688b" points="16.25,-108 16.25,-108 99.75,-108 99.75,-108 16.25,-108"/>
<polygon fill="#00688b" stroke="#00688b" points="16.25,-51 16.25,-51 99.75,-51 99.75,-51 16.25,-51"/>
<path fill="none" stroke="#00688b" d="M28.25,-16C28.25,-16 87.75,-16 87.75,-16 93.75,-16 99.75,-22 99.75,-28 99.75,-28 99.75,-126.5 99.75,-126.5 99.75,-132.5 93.75,-138.5 87.75,-138.5 87.75,-138.5 28.25,-138.5 28.25,-138.5 22.25,-138.5 16.25,-132.5 16.25,-126.5 16.25,-126.5 16.25,-28 16.25,-28 16.25,-22 22.25,-16 28.25,-16"/>
</g>
<!-- Machining&#45;&gt;Teardown -->
<g id="edge5" class="edge">
<title>Machining&#45;&gt;Teardown</title>
<path fill="none" stroke="red" d="M56.69,-191.23C56.85,-177.89 57.01,-163.61 57.17,-149.86"/>
<polygon fill="red" stroke="red" points="60.67,-150.01 57.29,-139.97 53.67,-149.93 60.67,-150.01"/>
<text xml:space="preserve" text-anchor="middle" x="70.93" y="-159.7" font-family="Times,serif" font-size="14.00"> tick </text>
</g>
<!-- Teardown&#45;&gt;Idle -->
<g id="edge6" class="edge">
<title>Teardown&#45;&gt;Idle</title>
<path fill="none" stroke="red" d="M99.58,-77.25C110.15,-77.25 122.1,-77.25 134.68,-77.25"/>
<polygon fill="red" stroke="red" points="134.37,-80.75 144.37,-77.25 134.37,-73.75 134.37,-80.75"/>
<text xml:space="preserve" text-anchor="middle" x="122.62" y="-83.45" font-family="Times,serif" font-size="14.00"> tick </text>
</g>
<!-- EStop&#45;&gt;Idle -->
<g id="edge8" class="edge">
<title>EStop&#45;&gt;Idle</title>
<path fill="none" stroke="red" d="M370.96,-202.14C353.68,-179.83 333.21,-153.4 315.63,-130.71"/>
<polygon fill="red" stroke="red" points="318.61,-128.84 309.72,-123.08 313.08,-133.13 318.61,-128.84"/>
<text xml:space="preserve" text-anchor="middle" x="362.52" y="-159.7" font-family="Times,serif" font-size="14.00"> reset </text>
</g>
</g>
</svg>
