<?xml version="1.0" encoding="UTF-8" standalone="no"?>
<!DOCTYPE svg PUBLIC "-//W3C//DTD SVG 1.1//EN"
 "http://www.w3.org/Graphics/SVG/1.1/DTD/svg11.dtd">
<!-- Generated by graphviz version 14.1.5 (20260411.2331)
 -->
<!-- Title: ManufacturingCell Pages: 1 -->
<svg width="610pt" height="585pt"
 viewBox="0.00 0.00 610.00 585.00" xmlns="http://www.w3.org/2000/svg" xmlns:xlink="http://www.w3.org/1999/xlink">
<g id="graph0" class="graph" transform="scale(1 1) rotate(0) translate(4 580.75)">
<title>ManufacturingCell</title>
<polygon fill="white" stroke="none" points="-4,4 -4,-580.75 606.2,-580.75 606.2,4 -4,4"/>
<g id="clust1" class="cluster">
<title>cluster_Active</title>
<path fill="none" stroke="black" d="M20,-8C20,-8 263,-8 263,-8 269,-8 275,-14 275,-20 275,-20 275,-556.75 275,-556.75 275,-562.75 269,-568.75 263,-568.75 263,-568.75 20,-568.75 20,-568.75 14,-568.75 8,-562.75 8,-556.75 8,-556.75 8,-20 8,-20 8,-14 14,-8 20,-8"/>
<text xml:space="preserve" text-anchor="start" x="123.5" y="-548" font-family="Times,serif" font-size="14.00">Active</text>
<text xml:space="preserve" text-anchor="start" x="20" y="-529.25" font-family="Times,serif" font-size="10.00">emergency_stop()</text>
<text xml:space="preserve" text-anchor="start" x="20" y="-518" font-family="Times,serif" font-size="10.00">work_order(order_id: str, part: str, program: str, priority: int)</text>
<text xml:space="preserve" text-anchor="start" x="123.5" y="-506.75" font-family="Times,serif" font-size="10.00"> &#160;&#160;&#160;&#160;&#160;&#160;&#160;&#160;&#160;&#160;&#160;&#160;&#160;&#160;&#160;</text>
<polygon fill="black" stroke="black" points="16,-541.25 16,-541.25 267,-541.25 267,-541.25 16,-541.25"/>
</g>
<!-- Entry -->
<g id="node1" class="node">
<title>Entry</title>
<ellipse fill="black" stroke="#00688b" cx="595" cy="-252.25" rx="7.2" ry="7.2"/>
</g>
<!-- Idle -->
<g id="node2" class="node">
<title>Idle</title>
<path fill="azure" stroke="none" d="M530.5,-122C530.5,-122 295.5,-122 295.5,-122 289.5,-122 283.5,-116 283.5,-110 283.5,-110 283.5,-44.5 283.5,-44.5 283.5,-38.5 289.5,-32.5 295.5,-32.5 295.5,-32.5 530.5,-32.5 530.5,-32.5 536.5,-32.5 542.5,-38.5 542.5,-44.5 542.5,-44.5 542.5,-110 542.5,-110 542.5,-116 536.5,-122 530.5,-122"/>
<text xml:space="preserve" text-anchor="start" x="401.75" y="-101.7" font-family="Times,serif" font-weight="bold" font-size="14.00">Idle</text>
<text xml:space="preserve" text-anchor="start" x="291.5" y="-76.5" font-family="Times,serif" font-size="10.00">$&gt;()</text>
<text xml:space="preserve" text-anchor="start" x="291.5" y="-65.25" font-family="Times,serif" font-size="10.00">work_order(order_id: str, part: str, program: str, priority: int)</text>
<text xml:space="preserve" text-anchor="start" x="291.5" y="-54" font-family="Times,serif" font-size="10.00">status()</text>
<text xml:space="preserve" text-anchor="start" x="399.5" y="-42.75" font-family="Times,serif" font-size="10.00"> &#160;&#160;&#160;&#160;&#160;&#160;&#160;&#160;&#160;&#160;&#160;</text>
<polygon fill="#00688b" stroke="#00688b" points="283.5,-91.5 283.5,-91.5 542.5,-91.5 542.5,-91.5 283.5,-91.5"/>
<path fill="none" stroke="#00688b" d="M295.5,-32.5C295.5,-32.5 530.5,-32.5 530.5,-32.5 536.5,-32.5 542.5,-38.5 542.5,-44.5 542.5,-44.5 542.5,-110 542.5,-110 542.5,-116 536.5,-122 530.5,-122 530.5,-122 295.5,-122 295.5,-122 289.5,-122 283.5,-116 283.5,-110 283.5,-110 283.5,-44.5 283.5,-44.5 283.5,-38.5 289.5,-32.5 295.5,-32.5"/>
</g>
<!-- Entry&#45;&gt;Idle -->
<g id="edge1" class="edge">
<title>Entry&#45;&gt;Idle</title>
<path fill="none" stroke="red" d="M594.73,-244.65C593.95,-232.84 590.9,-207.77 579,-191 561.32,-166.07 536.26,-144.99 510.96,-128.04"/>
<polygon fill="red" stroke="red" points="513.21,-125.32 502.91,-122.81 509.39,-131.19 513.21,-125.32"/>
</g>
<!-- Setup -->
<g id="node4" class="node">
<title>Setup</title>
<path fill="azure" stroke="none" d="M155.62,-488.5C155.62,-488.5 110.38,-488.5 110.38,-488.5 104.38,-488.5 98.38,-482.5 98.38,-476.5 98.38,-476.5 98.38,-378 98.38,-378 98.38,-372 104.38,-366 110.38,-366 110.38,-366 155.62,-366 155.62,-366 161.62,-366 167.62,-372 167.62,-378 167.62,-378 167.62,-476.5 167.62,-476.5 167.62,-482.5 161.62,-488.5 155.62,-488.5"/>
<text xml:space="preserve" text-anchor="start" x="116.5" y="-468.2" font-family="Times,serif" font-weight="bold" font-size="14.00">Setup</text>
<text xml:space="preserve" text-anchor="start" x="106.38" y="-443" font-family="Times,serif" font-size="10.00">$&gt;()</text>
<text xml:space="preserve" text-anchor="start" x="106.38" y="-431.75" font-family="Times,serif" font-size="10.00">tick()</text>
<text xml:space="preserve" text-anchor="start" x="106.38" y="-420.5" font-family="Times,serif" font-size="10.00">status()</text>
<text xml:space="preserve" text-anchor="start" x="106.38" y="-409.25" font-family="Times,serif" font-size="10.00"> &#160;&#160;&#160;&#160;&#160;&#160;&#160;&#160;&#160;&#160;&#160;&#160;&#160;&#160;&#160;</text>
<text xml:space="preserve" text-anchor="start" x="106.38" y="-386.75" font-family="Times,serif" font-size="9.00" fill="#666666">setup_ticks: int</text>
<text xml:space="preserve" text-anchor="start" x="115" y="-376.25" font-family="Times,serif" font-size="9.00" fill="#666666"> &#160;&#160;&#160;&#160;&#160;&#160;&#160;&#160;&#160;&#160;&#160;&#160;&#160;&#160;&#160;</text>
<polygon fill="#00688b" stroke="#00688b" points="98.38,-458 98.38,-458 167.62,-458 167.62,-458 98.38,-458"/>
<polygon fill="#00688b" stroke="#00688b" points="98.38,-401 98.38,-401 167.62,-401 167.62,-401 98.38,-401"/>
<path fill="none" stroke="#00688b" d="M110.38,-366C110.38,-366 155.62,-366 155.62,-366 161.62,-366 167.62,-372 167.62,-378 167.62,-378 167.62,-476.5 167.62,-476.5 167.62,-482.5 161.62,-488.5 155.62,-488.5 155.62,-488.5 110.38,-488.5 110.38,-488.5 104.38,-488.5 98.38,-482.5 98.38,-476.5 98.38,-476.5 98.38,-378 98.38,-378 98.38,-372 104.38,-366 110.38,-366"/>
</g>
<!-- Idle&#45;&gt;Setup -->
<g id="edge2" class="edge">
<title>Idle&#45;&gt;Setup</title>
<path fill="none" stroke="red" d="M319.04,-121.85C305.68,-127.65 292.05,-133.36 279,-138.5 255.85,-147.61 249.19,-147.49 226,-156.5 190.48,-170.31 169.3,-159.74 147.5,-191 129.6,-216.66 127.91,-295.58 129.45,-354.99"/>
<polygon fill="red" stroke="red" points="125.94,-354.81 129.74,-364.71 132.94,-354.61 125.94,-354.81"/>
<text xml:space="preserve" text-anchor="middle" x="182.75" y="-247.2" font-family="Times,serif" font-size="14.00"> work_order </text>
</g>
<!-- Idle&#45;&gt;Setup -->
<g id="edge3" class="edge">
<title>Idle&#45;&gt;Setup</title>
<path fill="none" stroke="red" d="M325.99,-121.87C297.92,-139.81 269.04,-163.01 249.5,-191 217.32,-237.1 242.39,-262.85 218,-313.5 206.75,-336.86 190.29,-360.16 174.84,-379.46"/>
<polygon fill="red" stroke="red" points="172.18,-377.19 168.56,-387.14 177.6,-381.62 172.18,-377.19"/>
<text xml:space="preserve" text-anchor="middle" x="275.75" y="-247.2" font-family="Times,serif" font-size="14.00"> dequeue </text>
</g>
<!-- Active -->
<g id="node3" class="node">
<title>Active</title>
<ellipse fill="azure" stroke="#00688b" cx="267" cy="-427.25" rx="0.36" ry="0.36"/>
</g>
<!-- EStop -->
<g id="node7" class="node">
<title>EStop</title>
<path fill="azure" stroke="none" d="M557.5,-302.62C557.5,-302.62 322.5,-302.62 322.5,-302.62 316.5,-302.62 310.5,-296.62 310.5,-290.62 310.5,-290.62 310.5,-213.88 310.5,-213.88 310.5,-207.88 316.5,-201.88 322.5,-201.88 322.5,-201.88 557.5,-201.88 557.5,-201.88 563.5,-201.88 569.5,-207.88 569.5,-213.88 569.5,-213.88 569.5,-290.62 569.5,-290.62 569.5,-296.62 563.5,-302.62 557.5,-302.62"/>
<text xml:space="preserve" text-anchor="start" x="422.38" y="-282.32" font-family="Times,serif" font-weight="bold" font-size="14.00">EStop</text>
<text xml:space="preserve" text-anchor="start" x="318.5" y="-257.12" font-family="Times,serif" font-size="10.00">$&gt;()</text>
<text xml:space="preserve" text-anchor="start" x="318.5" y="-245.88" font-family="Times,serif" font-size="10.00">reset()</text>
<text xml:space="preserve" text-anchor="start" x="318.5" y="-234.62" font-family="Times,serif" font-size="10.00">work_order(order_id: str, part: str, program: str, priority: int)</text>
<text xml:space="preserve" text-anchor="start" x="318.5" y="-223.38" font-family="Times,serif" font-size="10.00">status()</text>
<text xml:space="preserve" text-anchor="start" x="426.5" y="-212.12" font-family="Times,serif" font-size="10.00"> &#160;&#160;&#160;&#160;&#160;&#160;&#160;&#160;&#160;&#160;&#160;</text>
<polygon fill="#00688b" stroke="#00688b" points="310.5,-272.12 310.5,-272.12 569.5,-272.12 569.5,-272.12 310.5,-272.12"/>
<path fill="none" stroke="#00688b" d="M322.5,-201.88C322.5,-201.88 557.5,-201.88 557.5,-201.88 563.5,-201.88 569.5,-207.88 569.5,-213.88 569.5,-213.88 569.5,-290.62 569.5,-290.62 569.5,-296.62 563.5,-302.62 557.5,-302.62 557.5,-302.62 322.5,-302.62 322.5,-302.62 316.5,-302.62 310.5,-296.62 310.5,-290.62 310.5,-290.62 310.5,-213.88 310.5,-213.88 310.5,-207.88 316.5,-201.88 322.5,-201.88"/>
</g>
<!-- Active&#45;&gt;EStop -->
<g id="edge7" class="edge">
<title>Active&#45;&gt;EStop</title>
<path fill="none" stroke="red" d="M275,-418.25C293.96,-399.29 343.03,-350.22 382.77,-310.48"/>
<polygon fill="red" stroke="red" points="385.16,-313.04 389.75,-303.5 380.21,-308.09 385.16,-313.04"/>
<text xml:space="preserve" text-anchor="middle" x="407.06" y="-334.7" font-family="Times,serif" font-size="14.00"> emergency_stop </text>
</g>
<!-- Machining -->
<g id="node5" class="node">
<title>Machining</title>
<path fill="azure" stroke="none" d="M84.5,-313.5C84.5,-313.5 29.5,-313.5 29.5,-313.5 23.5,-313.5 17.5,-307.5 17.5,-301.5 17.5,-301.5 17.5,-203 17.5,-203 17.5,-197 23.5,-191 29.5,-191 29.5,-191 84.5,-191 84.5,-191 90.5,-191 96.5,-197 96.5,-203 96.5,-203 96.5,-301.5 96.5,-301.5 96.5,-307.5 90.5,-313.5 84.5,-313.5"/>
<text xml:space="preserve" text-anchor="start" x="25.5" y="-293.2" font-family="Times,serif" font-weight="bold" font-size="14.00">Machining</text>
<text xml:space="preserve" text-anchor="start" x="25.5" y="-268" font-family="Times,serif" font-size="10.00">$&gt;()</text>
<text xml:space="preserve" text-anchor="start" x="25.5" y="-256.75" font-family="Times,serif" font-size="10.00">tick()</text>
<text xml:space="preserve" text-anchor="start" x="25.5" y="-245.5" font-family="Times,serif" font-size="10.00">status()</text>
<text xml:space="preserve" text-anchor="start" x="25.5" y="-234.25" font-family="Times,serif" font-size="10.00"> &#160;&#160;&#160;&#160;&#160;&#160;&#160;&#160;&#160;&#160;&#160;&#160;&#160;&#160;&#160;</text>
<text xml:space="preserve" text-anchor="start" x="25.5" y="-211.75" font-family="Times,serif" font-size="9.00" fill="#666666">cycle_ticks: int</text>
<text xml:space="preserve" text-anchor="start" x="33.75" y="-201.25" font-family="Times,serif" font-size="9.00" fill="#666666"> &#160;&#160;&#160;&#160;&#160;&#160;&#160;&#160;&#160;&#160;&#160;&#160;&#160;&#160;&#160;</text>
<polygon fill="#00688b" stroke="#00688b" points="17.5,-283 17.5,-283 96.5,-283 96.5,-283 17.5,-283"/>
<polygon fill="#00688b" stroke="#00688b" points="17.5,-226 17.5,-226 96.5,-226 96.5,-226 17.5,-226"/>
<path fill="none" stroke="#00688b" d="M29.5,-191C29.5,-191 84.5,-191 84.5,-191 90.5,-191 96.5,-197 96.5,-203 96.5,-203 96.5,-301.5 96.5,-301.5 96.5,-307.5 90.5,-313.5 84.5,-313.5 84.5,-313.5 29.5,-313.5 29.5,-313.5 23.5,-313.5 17.5,-307.5 17.5,-301.5 17.5,-301.5 17.5,-203 17.5,-203 17.5,-197 23.5,-191 29.5,-191"/>
</g>
<!-- Setup&#45;&gt;Machining -->
<g id="edge4" class="edge">
<title>Setup&#45;&gt;Machining</title>
<path fill="none" stroke="red" d="M99.76,-366.01C96.77,-359.99 93.88,-353.91 91.25,-348 87.84,-340.33 84.5,-332.21 81.34,-324.08"/>
<polygon fill="red" stroke="red" points="84.64,-322.92 77.81,-314.82 78.1,-325.41 84.64,-322.92"/>
<text xml:space="preserve" text-anchor="middle" x="105.12" y="-334.7" font-family="Times,serif" font-size="14.00"> tick </text>
</g>
<!-- Teardown -->
<g id="node6" class="node">
<title>Teardown</title>
<path fill="azure" stroke="none" d="M156.75,-138.5C156.75,-138.5 97.25,-138.5 97.25,-138.5 91.25,-138.5 85.25,-132.5 85.25,-126.5 85.25,-126.5 85.25,-28 85.25,-28 85.25,-22 91.25,-16 97.25,-16 97.25,-16 156.75,-16 156.75,-16 162.75,-16 168.75,-22 168.75,-28 168.75,-28 168.75,-126.5 168.75,-126.5 168.75,-132.5 162.75,-138.5 156.75,-138.5"/>
<text xml:space="preserve" text-anchor="start" x="97.75" y="-118.2" font-family="Times,serif" font-weight="bold" font-size="14.00">Teardown</text>
<text xml:space="preserve" text-anchor="start" x="93.25" y="-93" font-family="Times,serif" font-size="10.00">$&gt;()</text>
<text xml:space="preserve" text-anchor="start" x="93.25" y="-81.75" font-family="Times,serif" font-size="10.00">tick()</text>
<text xml:space="preserve" text-anchor="start" x="93.25" y="-70.5" font-family="Times,serif" font-size="10.00">status()</text>
<text xml:space="preserve" text-anchor="start" x="93.25" y="-59.25" font-family="Times,serif" font-size="10.00"> &#160;&#160;&#160;&#160;&#160;&#160;&#160;&#160;&#160;&#160;&#160;&#160;&#160;&#160;&#160;</text>
<text xml:space="preserve" text-anchor="start" x="93.25" y="-36.75" font-family="Times,serif" font-size="9.00" fill="#666666">teardown_ticks: int</text>
<text xml:space="preserve" text-anchor="start" x="109" y="-26.25" font-family="Times,serif" font-size="9.00" fill="#666666"> &#160;&#160;&#160;&#160;&#160;&#160;&#160;&#160;&#160;&#160;&#160;&#160;&#160;&#160;&#160;</text>
<polygon fill="#00688b" stroke="#00688b" points="85.25,-108 85.25,-108 168.75,-108 168.75,-108 85.25,-108"/>
<polygon fill="#00688b" stroke="#00688b" points="85.25,-51 85.25,-51 168.75,-51 168.75,-51 85.25,-51"/>
<path fill="none" stroke="#00688b" d="M97.25,-16C97.25,-16 156.75,-16 156.75,-16 162.75,-16 168.75,-22 168.75,-28 168.75,-28 168.75,-126.5 168.75,-126.5 168.75,-132.5 162.75,-138.5 156.75,-138.5 156.75,-138.5 97.25,-138.5 97.25,-138.5 91.25,-138.5 85.25,-132.5 85.25,-126.5 85.25,-126.5 85.25,-28 85.25,-28 85.25,-22 91.25,-16 97.25,-16"/>
</g>
<!-- Machining&#45;&gt;Teardown -->
<g id="edge5" class="edge">
<title>Machining&#45;&gt;Teardown</title>
<path fill="none" stroke="red" d="M77.92,-191.07C82.16,-179.53 86.72,-167.59 91.25,-156.5 92.31,-153.9 93.41,-151.26 94.54,-148.6"/>
<polygon fill="red" stroke="red" points="97.64,-150.23 98.38,-139.66 91.21,-147.46 97.64,-150.23"/>
<text xml:space="preserve" text-anchor="middle" x="105.12" y="-159.7" font-family="Times,serif" font-size="14.00"> tick </text>
</g>
<!-- Teardown&#45;&gt;Idle -->
<g id="edge6" class="edge">
<title>Teardown&#45;&gt;Idle</title>
<path fill="none" stroke="red" d="M168.59,-77.25C196.29,-77.25 234.47,-77.25 272.41,-77.25"/>
<polygon fill="red" stroke="red" points="272.12,-80.75 282.12,-77.25 272.12,-73.75 272.12,-80.75"/>
<text xml:space="preserve" text-anchor="middle" x="226.12" y="-83.45" font-family="Times,serif" font-size="14.00"> tick </text>
</g>
<!-- EStop&#45;&gt;Idle -->
<g id="edge8" class="edge">
<title>EStop&#45;&gt;Idle</title>
<path fill="none" stroke="red" d="M432.34,-202.14C428.98,-180.62 425.02,-155.27 421.57,-133.13"/>
<polygon fill="red" stroke="red" points="425.04,-132.72 420.04,-123.38 418.13,-133.8 425.04,-132.72"/>
<text xml:space="preserve" text-anchor="middle" x="443.81" y="-159.7" font-family="Times,serif" font-size="14.00"> reset </text>
</g>
</g>
</svg>
