<?xml version="1.0" encoding="UTF-8" standalone="no"?>
<!DOCTYPE svg PUBLIC "-//W3C//DTD SVG 1.1//EN"
 "http://www.w3.org/Graphics/SVG/1.1/DTD/svg11.dtd">
<!-- Generated by graphviz version 14.1.5 (20260411.2331)
 -->
<!-- Title: Elevator Pages: 1 -->
<svg width="411pt" height="619pt"
 viewBox="0.00 0.00 411.00 619.00" xmlns="http://www.w3.org/2000/svg" xmlns:xlink="http://www.w3.org/1999/xlink">
<g id="graph0" class="graph" transform="scale(1 1) rotate(0) translate(4 615.15)">
<title>Elevator</title>
<polygon fill="white" stroke="none" points="-4,4 -4,-615.15 407.14,-615.15 407.14,4 -4,4"/>
<!-- Entry -->
<g id="node1" class="node">
<title>Entry</title>
<ellipse fill="black" stroke="#00688b" cx="192.54" cy="-603.95" rx="7.2" ry="7.2"/>
</g>
<!-- Idle -->
<g id="node2" class="node">
<title>Idle</title>
<path fill="azure" stroke="none" d="M224.16,-559.75C224.16,-559.75 160.91,-559.75 160.91,-559.75 154.91,-559.75 148.91,-553.75 148.91,-547.75 148.91,-547.75 148.91,-482.25 148.91,-482.25 148.91,-476.25 154.91,-470.25 160.91,-470.25 160.91,-470.25 224.16,-470.25 224.16,-470.25 230.16,-470.25 236.16,-476.25 236.16,-482.25 236.16,-482.25 236.16,-547.75 236.16,-547.75 236.16,-553.75 230.16,-559.75 224.16,-559.75"/>
<text xml:space="preserve" text-anchor="start" x="181.29" y="-539.45" font-family="Times,serif" font-weight="bold" font-size="14.00">Idle</text>
<text xml:space="preserve" text-anchor="start" x="156.91" y="-514.25" font-family="Times,serif" font-size="10.00">$&gt;()</text>
<text xml:space="preserve" text-anchor="start" x="156.91" y="-503" font-family="Times,serif" font-size="10.00">request(floor: int)</text>
<text xml:space="preserve" text-anchor="start" x="156.91" y="-491.75" font-family="Times,serif" font-size="10.00">status()</text>
<text xml:space="preserve" text-anchor="start" x="179.04" y="-480.5" font-family="Times,serif" font-size="10.00"> &#160;&#160;&#160;&#160;&#160;&#160;&#160;&#160;&#160;&#160;&#160;</text>
<polygon fill="#00688b" stroke="#00688b" points="148.91,-529.25 148.91,-529.25 236.16,-529.25 236.16,-529.25 148.91,-529.25"/>
<path fill="none" stroke="#00688b" d="M160.91,-470.25C160.91,-470.25 224.16,-470.25 224.16,-470.25 230.16,-470.25 236.16,-476.25 236.16,-482.25 236.16,-482.25 236.16,-547.75 236.16,-547.75 236.16,-553.75 230.16,-559.75 224.16,-559.75 224.16,-559.75 160.91,-559.75 160.91,-559.75 154.91,-559.75 148.91,-553.75 148.91,-547.75 148.91,-547.75 148.91,-482.25 148.91,-482.25 148.91,-476.25 154.91,-470.25 160.91,-470.25"/>
</g>
<!-- Entry&#45;&gt;Idle -->
<g id="edge1" class="edge">
<title>Entry&#45;&gt;Idle</title>
<path fill="none" stroke="red" d="M192.54,-596.41C192.54,-590.5 192.54,-581.16 192.54,-570.91"/>
<polygon fill="red" stroke="red" points="196.04,-571.06 192.54,-561.06 189.04,-571.06 196.04,-571.06"/>
</g>
<!-- Moving -->
<g id="node3" class="node">
<title>Moving</title>
<path fill="azure" stroke="none" d="M187.16,-417.75C187.16,-417.75 123.91,-417.75 123.91,-417.75 117.91,-417.75 111.91,-411.75 111.91,-405.75 111.91,-405.75 111.91,-329 111.91,-329 111.91,-323 117.91,-317 123.91,-317 123.91,-317 187.16,-317 187.16,-317 193.16,-317 199.16,-323 199.16,-329 199.16,-329 199.16,-405.75 199.16,-405.75 199.16,-411.75 193.16,-417.75 187.16,-417.75"/>
<text xml:space="preserve" text-anchor="start" x="133.04" y="-397.45" font-family="Times,serif" font-weight="bold" font-size="14.00">Moving</text>
<text xml:space="preserve" text-anchor="start" x="119.91" y="-372.25" font-family="Times,serif" font-size="10.00">$&gt;()</text>
<text xml:space="preserve" text-anchor="start" x="119.91" y="-361" font-family="Times,serif" font-size="10.00">request(floor: int)</text>
<text xml:space="preserve" text-anchor="start" x="119.91" y="-349.75" font-family="Times,serif" font-size="10.00">tick()</text>
<text xml:space="preserve" text-anchor="start" x="119.91" y="-338.5" font-family="Times,serif" font-size="10.00">status()</text>
<text xml:space="preserve" text-anchor="start" x="142.04" y="-327.25" font-family="Times,serif" font-size="10.00"> &#160;&#160;&#160;&#160;&#160;&#160;&#160;&#160;&#160;&#160;&#160;</text>
<polygon fill="#00688b" stroke="#00688b" points="111.91,-387.25 111.91,-387.25 199.16,-387.25 199.16,-387.25 111.91,-387.25"/>
<path fill="none" stroke="#00688b" d="M123.91,-317C123.91,-317 187.16,-317 187.16,-317 193.16,-317 199.16,-323 199.16,-329 199.16,-329 199.16,-405.75 199.16,-405.75 199.16,-411.75 193.16,-417.75 187.16,-417.75 187.16,-417.75 123.91,-417.75 123.91,-417.75 117.91,-417.75 111.91,-411.75 111.91,-405.75 111.91,-405.75 111.91,-329 111.91,-329 111.91,-323 117.91,-317 123.91,-317"/>
</g>
<!-- Idle&#45;&gt;Moving -->
<g id="edge3" class="edge">
<title>Idle&#45;&gt;Moving</title>
<path fill="none" stroke="red" d="M149.29,-513.21C105.35,-509.81 39.3,-496.99 7.04,-452.25 -21.42,-412.79 47.83,-389.43 101.09,-377.76"/>
<polygon fill="red" stroke="red" points="101.61,-381.22 110.69,-375.75 100.18,-374.37 101.61,-381.22"/>
<text xml:space="preserve" text-anchor="middle" x="30.29" y="-438.95" font-family="Times,serif" font-size="14.00"> request </text>
</g>
<!-- Idle&#45;&gt;Moving -->
<g id="edge4" class="edge">
<title>Idle&#45;&gt;Moving</title>
<path fill="none" stroke="red" d="M148.94,-502.9C123.15,-493.84 92.58,-478.19 77.04,-452.25 64.61,-431.52 81.54,-411.62 102.82,-396.41"/>
<polygon fill="red" stroke="red" points="104.5,-399.49 110.87,-391.03 100.61,-393.67 104.5,-399.49"/>
<text xml:space="preserve" text-anchor="middle" x="103.29" y="-438.95" font-family="Times,serif" font-size="14.00"> dequeue </text>
</g>
<!-- DoorsOpen -->
<g id="node4" class="node">
<title>DoorsOpen</title>
<path fill="azure" stroke="none" d="M307.16,-264.5C307.16,-264.5 243.91,-264.5 243.91,-264.5 237.91,-264.5 231.91,-258.5 231.91,-252.5 231.91,-252.5 231.91,-131.5 231.91,-131.5 231.91,-125.5 237.91,-119.5 243.91,-119.5 243.91,-119.5 307.16,-119.5 307.16,-119.5 313.16,-119.5 319.16,-125.5 319.16,-131.5 319.16,-131.5 319.16,-252.5 319.16,-252.5 319.16,-258.5 313.16,-264.5 307.16,-264.5"/>
<text xml:space="preserve" text-anchor="start" x="242.16" y="-244.2" font-family="Times,serif" font-weight="bold" font-size="14.00">DoorsOpen</text>
<text xml:space="preserve" text-anchor="start" x="239.91" y="-219" font-family="Times,serif" font-size="10.00">$&gt;()</text>
<text xml:space="preserve" text-anchor="start" x="239.91" y="-207.75" font-family="Times,serif" font-size="10.00">request(floor: int)</text>
<text xml:space="preserve" text-anchor="start" x="239.91" y="-196.5" font-family="Times,serif" font-size="10.00">tick()</text>
<text xml:space="preserve" text-anchor="start" x="239.91" y="-185.25" font-family="Times,serif" font-size="10.00">close_doors()</text>
<text xml:space="preserve" text-anchor="start" x="239.91" y="-174" font-family="Times,serif" font-size="10.00">status()</text>
<text xml:space="preserve" text-anchor="start" x="262.04" y="-162.75" font-family="Times,serif" font-size="10.00"> &#160;&#160;&#160;&#160;&#160;&#160;&#160;&#160;&#160;&#160;&#160;</text>
<text xml:space="preserve" text-anchor="start" x="239.91" y="-140.25" font-family="Times,serif" font-size="9.00" fill="#666666">dwell_ticks: int</text>
<text xml:space="preserve" text-anchor="start" x="253.41" y="-129.75" font-family="Times,serif" font-size="9.00" fill="#666666"> &#160;&#160;&#160;&#160;&#160;&#160;&#160;&#160;&#160;&#160;&#160;</text>
<polygon fill="#00688b" stroke="#00688b" points="231.91,-234 231.91,-234 319.16,-234 319.16,-234 231.91,-234"/>
<polygon fill="#00688b" stroke="#00688b" points="231.91,-154.5 231.91,-154.5 319.16,-154.5 319.16,-154.5 231.91,-154.5"/>
<path fill="none" stroke="#00688b" d="M243.91,-119.5C243.91,-119.5 307.16,-119.5 307.16,-119.5 313.16,-119.5 319.16,-125.5 319.16,-131.5 319.16,-131.5 319.16,-252.5 319.16,-252.5 319.16,-258.5 313.16,-264.5 307.16,-264.5 307.16,-264.5 243.91,-264.5 243.91,-264.5 237.91,-264.5 231.91,-258.5 231.91,-252.5 231.91,-252.5 231.91,-131.5 231.91,-131.5 231.91,-125.5 237.91,-119.5 243.91,-119.5"/>
</g>
<!-- Idle&#45;&gt;DoorsOpen -->
<g id="edge2" class="edge">
<title>Idle&#45;&gt;DoorsOpen</title>
<path fill="none" stroke="red" d="M235.79,-491.88C250.73,-481.91 265.89,-468.64 274.54,-452.25 302.97,-398.36 301.61,-328.97 294.02,-275.54"/>
<polygon fill="red" stroke="red" points="297.52,-275.25 292.54,-265.89 290.6,-276.31 297.52,-275.25"/>
<text xml:space="preserve" text-anchor="middle" x="322.32" y="-362.32" font-family="Times,serif" font-size="14.00"> at floor </text>
</g>
<!-- Moving&#45;&gt;Idle -->
<g id="edge6" class="edge">
<title>Moving&#45;&gt;Idle</title>
<path fill="none" stroke="red" d="M148.54,-417.39C148.31,-429 149.28,-441.21 152.54,-452.25 153.3,-454.83 154.21,-457.41 155.24,-459.97"/>
<polygon fill="red" stroke="red" points="152.01,-461.33 159.4,-468.92 158.36,-458.38 152.01,-461.33"/>
<text xml:space="preserve" text-anchor="middle" x="182.54" y="-438.95" font-family="Times,serif" font-size="14.00"> all served </text>
</g>
<!-- Moving&#45;&gt;Idle -->
<g id="edge7" class="edge">
<title>Moving&#45;&gt;Idle</title>
<path fill="none" stroke="red" d="M199.05,-411.2C204.57,-418.83 209.38,-427.12 212.54,-435.75 215.29,-443.27 215.82,-451.32 214.98,-459.3"/>
<polygon fill="red" stroke="red" points="211.57,-458.52 213.25,-468.98 218.46,-459.76 211.57,-458.52"/>
<text xml:space="preserve" text-anchor="middle" x="243.06" y="-438.95" font-family="Times,serif" font-size="14.00"> no target </text>
</g>
<!-- Moving&#45;&gt;DoorsOpen -->
<g id="edge5" class="edge">
<title>Moving&#45;&gt;DoorsOpen</title>
<path fill="none" stroke="red" d="M189.6,-317.16C200.82,-300.96 213.52,-282.6 225.66,-265.06"/>
<polygon fill="red" stroke="red" points="228.27,-267.44 231.08,-257.23 222.51,-263.46 228.27,-267.44"/>
<text xml:space="preserve" text-anchor="middle" x="244.94" y="-285.7" font-family="Times,serif" font-size="14.00"> serve floor </text>
</g>
<!-- DoorsClosing -->
<g id="node5" class="node">
<title>DoorsClosing</title>
<path fill="azure" stroke="none" d="M286.54,-67C286.54,-67 216.54,-67 216.54,-67 210.54,-67 204.54,-61 204.54,-55 204.54,-55 204.54,-12 204.54,-12 204.54,-6 210.54,0 216.54,0 216.54,0 286.54,0 286.54,0 292.54,0 298.54,-6 298.54,-12 298.54,-12 298.54,-55 298.54,-55 298.54,-61 292.54,-67 286.54,-67"/>
<text xml:space="preserve" text-anchor="start" x="212.54" y="-46.7" font-family="Times,serif" font-weight="bold" font-size="14.00">DoorsClosing</text>
<text xml:space="preserve" text-anchor="start" x="212.54" y="-21.5" font-family="Times,serif" font-size="10.00">$&gt;()</text>
<text xml:space="preserve" text-anchor="start" x="212.54" y="-10.25" font-family="Times,serif" font-size="10.00"> &#160;&#160;&#160;&#160;&#160;&#160;&#160;&#160;&#160;&#160;&#160;</text>
<polygon fill="#00688b" stroke="#00688b" points="204.54,-36.5 204.54,-36.5 298.54,-36.5 298.54,-36.5 204.54,-36.5"/>
<path fill="none" stroke="#00688b" d="M216.54,0C216.54,0 286.54,0 286.54,0 292.54,0 298.54,-6 298.54,-12 298.54,-12 298.54,-55 298.54,-55 298.54,-61 292.54,-67 286.54,-67 286.54,-67 216.54,-67 216.54,-67 210.54,-67 204.54,-61 204.54,-55 204.54,-55 204.54,-12 204.54,-12 204.54,-6 210.54,0 216.54,0"/>
</g>
<!-- DoorsOpen&#45;&gt;DoorsClosing -->
<g id="edge8" class="edge">
<title>DoorsOpen&#45;&gt;DoorsClosing</title>
<path fill="none" stroke="red" d="M233.66,-119.69C231.32,-113.67 229.31,-107.57 227.79,-101.5 225.83,-93.69 226.42,-85.51 228.38,-77.65"/>
<polygon fill="red" stroke="red" points="231.66,-78.86 231.46,-68.27 225.01,-76.68 231.66,-78.86"/>
<text xml:space="preserve" text-anchor="middle" x="241.66" y="-88.2" font-family="Times,serif" font-size="14.00"> tick </text>
</g>
<!-- DoorsOpen&#45;&gt;DoorsClosing -->
<g id="edge9" class="edge">
<title>DoorsOpen&#45;&gt;DoorsClosing</title>
<path fill="none" stroke="red" d="M264.59,-119.62C262.42,-105.42 260.19,-90.92 258.21,-78.01"/>
<polygon fill="red" stroke="red" points="261.67,-77.5 256.7,-68.14 254.75,-78.56 261.67,-77.5"/>
<text xml:space="preserve" text-anchor="middle" x="297.39" y="-88.2" font-family="Times,serif" font-size="14.00"> close_doors </text>
</g>
<!-- DoorsClosing&#45;&gt;Idle -->
<g id="edge11" class="edge">
<title>DoorsClosing&#45;&gt;Idle</title>
<path fill="none" stroke="red" d="M298.41,-51.42C313.46,-59.26 328.55,-70.2 337.54,-85 384.46,-162.26 377.83,-367.22 349.54,-417.75 327.65,-456.85 282.66,-481.99 246.44,-496.73"/>
<polygon fill="red" stroke="red" points="245.45,-493.36 237.4,-500.25 247.99,-499.88 245.45,-493.36"/>
<text xml:space="preserve" text-anchor="middle" x="387.39" y="-285.7" font-family="Times,serif" font-size="14.00"> park </text>
</g>
<!-- DoorsClosing&#45;&gt;Moving -->
<g id="edge10" class="edge">
<title>DoorsClosing&#45;&gt;Moving</title>
<path fill="none" stroke="red" d="M213.42,-66.75C198.9,-81.29 183.81,-99.64 175.29,-119.5 149.66,-179.19 147.4,-254.41 149.86,-306.04"/>
<polygon fill="red" stroke="red" points="146.35,-306.03 150.4,-315.82 153.34,-305.64 146.35,-306.03"/>
<text xml:space="preserve" text-anchor="middle" x="198.91" y="-186.95" font-family="Times,serif" font-size="14.00"> resume </text>
</g>
</g>
</svg>
