<?xml version="1.0" encoding="UTF-8" standalone="no"?>
<!DOCTYPE svg PUBLIC "-//W3C//DTD SVG 1.1//EN"
 "http://www.w3.org/Graphics/SVG/1.1/DTD/svg11.dtd">
<!-- Generated by graphviz version 14.1.5 (20260411.2331)
 -->
<!-- Title: Elevator Pages: 1 -->
<svg width="331pt" height="619pt"
 viewBox="0.00 0.00 331.00 619.00" xmlns="http://www.w3.org/2000/svg" xmlns:xlink="http://www.w3.org/1999/xlink">
<g id="graph0" class="graph" transform="scale(1 1) rotate(0) translate(4 615.15)">
<title>Elevator</title>
<polygon fill="white" stroke="none" points="-4,4 -4,-615.15 326.79,-615.15 326.79,4 -4,4"/>
<!-- Entry -->
<g id="node1" class="node">
<title>Entry</title>
<ellipse fill="black" stroke="#00688b" cx="144.86" cy="-603.95" rx="7.2" ry="7.2"/>
</g>
<!-- Idle -->
<g id="node2" class="node">
<title>Idle</title>
<path fill="azure" stroke="none" d="M176.49,-559.75C176.49,-559.75 113.24,-559.75 113.24,-559.75 107.24,-559.75 101.24,-553.75 101.24,-547.75 101.24,-547.75 101.24,-482.25 101.24,-482.25 101.24,-476.25 107.24,-470.25 113.24,-470.25 113.24,-470.25 176.49,-470.25 176.49,-470.25 182.49,-470.25 188.49,-476.25 188.49,-482.25 188.49,-482.25 188.49,-547.75 188.49,-547.75 188.49,-553.75 182.49,-559.75 176.49,-559.75"/>
<text xml:space="preserve" text-anchor="start" x="133.61" y="-539.45" font-family="Times,serif" font-weight="bold" font-size="14.00">Idle</text>
<text xml:space="preserve" text-anchor="start" x="109.24" y="-514.25" font-family="Times,serif" font-size="10.00">$&gt;()</text>
<text xml:space="preserve" text-anchor="start" x="109.24" y="-503" font-family="Times,serif" font-size="10.00">request(floor: int)</text>
<text xml:space="preserve" text-anchor="start" x="109.24" y="-491.75" font-family="Times,serif" font-size="10.00">status()</text>
<text xml:space="preserve" text-anchor="start" x="131.36" y="-480.5" font-family="Times,serif" font-size="10.00"> &#160;&#160;&#160;&#160;&#160;&#160;&#160;&#160;&#160;&#160;&#160;</text>
<polygon fill="#00688b" stroke="#00688b" points="101.24,-529.25 101.24,-529.25 188.49,-529.25 188.49,-529.25 101.24,-529.25"/>
<path fill="none" stroke="#00688b" d="M113.24,-470.25C113.24,-470.25 176.49,-470.25 176.49,-470.25 182.49,-470.25 188.49,-476.25 188.49,-482.25 188.49,-482.25 188.49,-547.75 188.49,-547.75 188.49,-553.75 182.49,-559.75 176.49,-559.75 176.49,-559.75 113.24,-559.75 113.24,-559.75 107.24,-559.75 101.24,-553.75 101.24,-547.75 101.24,-547.75 101.24,-482.25 101.24,-482.25 101.24,-476.25 107.24,-470.25 113.24,-470.25"/>
</g>
<!-- Entry&#45;&gt;Idle -->
<g id="edge1" class="edge">
<title>Entry&#45;&gt;Idle</title>
<path fill="none" stroke="red" d="M144.86,-596.41C144.86,-590.5 144.86,-581.16 144.86,-570.91"/>
<polygon fill="red" stroke="red" points="148.36,-571.06 144.86,-561.06 141.36,-571.06 148.36,-571.06"/>
</g>
<!-- Moving -->
<g id="node3" class="node">
<title>Moving</title>
<path fill="azure" stroke="none" d="M149.49,-417.75C149.49,-417.75 86.24,-417.75 86.24,-417.75 80.24,-417.75 74.24,-411.75 74.24,-405.75 74.24,-405.75 74.24,-329 74.24,-329 74.24,-323 80.24,-317 86.24,-317 86.24,-317 149.49,-317 149.49,-317 155.49,-317 161.49,-323 161.49,-329 161.49,-329 161.49,-405.75 161.49,-405.75 161.49,-411.75 155.49,-417.75 149.49,-417.75"/>
<text xml:space="preserve" text-anchor="start" x="95.36" y="-397.45" font-family="Times,serif" font-weight="bold" font-size="14.00">Moving</text>
<text xml:space="preserve" text-anchor="start" x="82.24" y="-372.25" font-family="Times,serif" font-size="10.00">$&gt;()</text>
<text xml:space="preserve" text-anchor="start" x="82.24" y="-361" font-family="Times,serif" font-size="10.00">request(floor: int)</text>
<text xml:space="preserve" text-anchor="start" x="82.24" y="-349.75" font-family="Times,serif" font-size="10.00">tick()</text>
<text xml:space="preserve" text-anchor="start" x="82.24" y="-338.5" font-family="Times,serif" font-size="10.00">status()</text>
<text xml:space="preserve" text-anchor="start" x="104.36" y="-327.25" font-family="Times,serif" font-size="10.00"> &#160;&#160;&#160;&#160;&#160;&#160;&#160;&#160;&#160;&#160;&#160;</text>
<polygon fill="#00688b" stroke="#00688b" points="74.24,-387.25 74.24,-387.25 161.49,-387.25 161.49,-387.25 74.24,-387.25"/>
<path fill="none" stroke="#00688b" d="M86.24,-317C86.24,-317 149.49,-317 149.49,-317 155.49,-317 161.49,-323 161.49,-329 161.49,-329 161.49,-405.75 161.49,-405.75 161.49,-411.75 155.49,-417.75 149.49,-417.75 149.49,-417.75 86.24,-417.75 86.24,-417.75 80.24,-417.75 74.24,-411.75 74.24,-405.75 74.24,-405.75 74.24,-329 74.24,-329 74.24,-323 80.24,-317 86.24,-317"/>
</g>
<!-- Idle&#45;&gt;Moving -->
<g id="edge3" class="edge">
<title>Idle&#45;&gt;Moving</title>
<path fill="none" stroke="red" d="M101.42,-507.55C68.87,-500.18 26.46,-484.66 5.36,-452.25 -14.26,-422.11 26.16,-398.84 63.9,-384.54"/>
<polygon fill="red" stroke="red" points="64.77,-387.94 72.99,-381.26 62.4,-381.36 64.77,-387.94"/>
<text xml:space="preserve" text-anchor="middle" x="28.61" y="-438.95" font-family="Times,serif" font-size="14.00"> request </text>
</g>
<!-- Idle&#45;&gt;Moving -->
<g id="edge4" class="edge">
<title>Idle&#45;&gt;Moving</title>
<path fill="none" stroke="red" d="M101.51,-485.54C90.99,-476.29 81.12,-465.06 75.36,-452.25 71.87,-444.47 71.57,-436.37 73.31,-428.41"/>
<polygon fill="red" stroke="red" points="76.57,-429.71 76.37,-419.12 69.92,-427.52 76.57,-429.71"/>
<text xml:space="preserve" text-anchor="middle" x="86.61" y="-438.95" font-family="Times,serif" font-size="14.00"> $&gt; </text>
</g>
<!-- DoorsOpen -->
<g id="node4" class="node">
<title>DoorsOpen</title>
<path fill="azure" stroke="none" d="M230.49,-264.5C230.49,-264.5 167.24,-264.5 167.24,-264.5 161.24,-264.5 155.24,-258.5 155.24,-252.5 155.24,-252.5 155.24,-131.5 155.24,-131.5 155.24,-125.5 161.24,-119.5 167.24,-119.5 167.24,-119.5 230.49,-119.5 230.49,-119.5 236.49,-119.5 242.49,-125.5 242.49,-131.5 242.49,-131.5 242.49,-252.5 242.49,-252.5 242.49,-258.5 236.49,-264.5 230.49,-264.5"/>
<text xml:space="preserve" text-anchor="start" x="165.49" y="-244.2" font-family="Times,serif" font-weight="bold" font-size="14.00">DoorsOpen</text>
<text xml:space="preserve" text-anchor="start" x="163.24" y="-219" font-family="Times,serif" font-size="10.00">$&gt;()</text>
<text xml:space="preserve" text-anchor="start" x="163.24" y="-207.75" font-family="Times,serif" font-size="10.00">request(floor: int)</text>
<text xml:space="preserve" text-anchor="start" x="163.24" y="-196.5" font-family="Times,serif" font-size="10.00">tick()</text>
<text xml:space="preserve" text-anchor="start" x="163.24" y="-185.25" font-family="Times,serif" font-size="10.00">close_doors()</text>
<text xml:space="preserve" text-anchor="start" x="163.24" y="-174" font-family="Times,serif" font-size="10.00">status()</text>
<text xml:space="preserve" text-anchor="start" x="185.36" y="-162.75" font-family="Times,serif" font-size="10.00"> &#160;&#160;&#160;&#160;&#160;&#160;&#160;&#160;&#160;&#160;&#160;</text>
<text xml:space="preserve" text-anchor="start" x="163.24" y="-140.25" font-family="Times,serif" font-size="9.00" fill="#666666">dwell_ticks: int</text>
<text xml:space="preserve" text-anchor="start" x="176.74" y="-129.75" font-family="Times,serif" font-size="9.00" fill="#666666"> &#160;&#160;&#160;&#160;&#160;&#160;&#160;&#160;&#160;&#160;&#160;</text>
<polygon fill="#00688b" stroke="#00688b" points="155.24,-234 155.24,-234 242.49,-234 242.49,-234 155.24,-234"/>
<polygon fill="#00688b" stroke="#00688b" points="155.24,-154.5 155.24,-154.5 242.49,-154.5 242.49,-154.5 155.24,-154.5"/>
<path fill="none" stroke="#00688b" d="M167.24,-119.5C167.24,-119.5 230.49,-119.5 230.49,-119.5 236.49,-119.5 242.49,-125.5 242.49,-131.5 242.49,-131.5 242.49,-252.5 242.49,-252.5 242.49,-258.5 236.49,-264.5 230.49,-264.5 230.49,-264.5 167.24,-264.5 167.24,-264.5 161.24,-264.5 155.24,-258.5 155.24,-252.5 155.24,-252.5 155.24,-131.5 155.24,-131.5 155.24,-125.5 161.24,-119.5 167.24,-119.5"/>
</g>
<!-- Idle&#45;&gt;DoorsOpen -->
<g id="edge2" class="edge">
<title>Idle&#45;&gt;DoorsOpen</title>
<path fill="none" stroke="red" d="M170.94,-470.41C173.66,-464.46 176.08,-458.31 177.86,-452.25 194.73,-394.85 199.76,-327.43 200.7,-275.74"/>
<polygon fill="red" stroke="red" points="204.19,-275.84 200.82,-265.8 197.19,-275.76 204.19,-275.84"/>
<text xml:space="preserve" text-anchor="middle" x="222.14" y="-362.32" font-family="Times,serif" font-size="14.00"> request </text>
</g>
<!-- Moving&#45;&gt;Idle -->
<g id="edge6" class="edge">
<title>Moving&#45;&gt;Idle</title>
<path fill="none" stroke="red" d="M117.07,-417.49C117.63,-428.98 118.82,-441.12 121.11,-452.25 121.61,-454.67 122.2,-457.12 122.84,-459.58"/>
<polygon fill="red" stroke="red" points="119.41,-460.31 125.63,-468.89 126.12,-458.31 119.41,-460.31"/>
<text xml:space="preserve" text-anchor="middle" x="134.99" y="-438.95" font-family="Times,serif" font-size="14.00"> tick </text>
</g>
<!-- Moving&#45;&gt;Idle -->
<g id="edge7" class="edge">
<title>Moving&#45;&gt;Idle</title>
<path fill="none" stroke="red" d="M143.38,-417.58C145.63,-423.57 147.54,-429.71 148.86,-435.75 150.51,-443.25 151.23,-451.25 151.36,-459.15"/>
<polygon fill="red" stroke="red" points="147.86,-459.04 151.19,-469.1 154.86,-459.16 147.86,-459.04"/>
<text xml:space="preserve" text-anchor="middle" x="162.22" y="-438.95" font-family="Times,serif" font-size="14.00"> $&gt; </text>
</g>
<!-- Moving&#45;&gt;DoorsOpen -->
<g id="edge5" class="edge">
<title>Moving&#45;&gt;DoorsOpen</title>
<path fill="none" stroke="red" d="M140.86,-317.16C147.09,-303.82 154.01,-289.01 160.83,-274.41"/>
<polygon fill="red" stroke="red" points="163.83,-276.26 164.89,-265.72 157.49,-273.3 163.83,-276.26"/>
<text xml:space="preserve" text-anchor="middle" x="169.81" y="-285.7" font-family="Times,serif" font-size="14.00"> tick </text>
</g>
<!-- DoorsClosing -->
<g id="node5" class="node">
<title>DoorsClosing</title>
<path fill="azure" stroke="none" d="M207.86,-67C207.86,-67 137.86,-67 137.86,-67 131.86,-67 125.86,-61 125.86,-55 125.86,-55 125.86,-12 125.86,-12 125.86,-6 131.86,0 137.86,0 137.86,0 207.86,0 207.86,0 213.86,0 219.86,-6 219.86,-12 219.86,-12 219.86,-55 219.86,-55 219.86,-61 213.86,-67 207.86,-67"/>
<text xml:space="preserve" text-anchor="start" x="133.86" y="-46.7" font-family="Times,serif" font-weight="bold" font-size="14.00">DoorsClosing</text>
<text xml:space="preserve" text-anchor="start" x="133.86" y="-21.5" font-family="Times,serif" font-size="10.00">$&gt;()</text>
<text xml:space="preserve" text-anchor="start" x="133.86" y="-10.25" font-family="Times,serif" font-size="10.00"> &#160;&#160;&#160;&#160;&#160;&#160;&#160;&#160;&#160;&#160;&#160;</text>
<polygon fill="#00688b" stroke="#00688b" points="125.86,-36.5 125.86,-36.5 219.86,-36.5 219.86,-36.5 125.86,-36.5"/>
<path fill="none" stroke="#00688b" d="M137.86,0C137.86,0 207.86,0 207.86,0 213.86,0 219.86,-6 219.86,-12 219.86,-12 219.86,-55 219.86,-55 219.86,-61 213.86,-67 207.86,-67 207.86,-67 137.86,-67 137.86,-67 131.86,-67 125.86,-61 125.86,-55 125.86,-55 125.86,-12 125.86,-12 125.86,-6 131.86,0 137.86,0"/>
</g>
<!-- DoorsOpen&#45;&gt;DoorsClosing -->
<g id="edge8" class="edge">
<title>DoorsOpen&#45;&gt;DoorsClosing</title>
<path fill="none" stroke="red" d="M155.24,-119.78C152.8,-113.74 150.7,-107.61 149.11,-101.5 147.09,-93.71 147.65,-85.53 149.59,-77.68"/>
<polygon fill="red" stroke="red" points="152.88,-78.89 152.67,-68.3 146.23,-76.71 152.88,-78.89"/>
<text xml:space="preserve" text-anchor="middle" x="162.99" y="-88.2" font-family="Times,serif" font-size="14.00"> tick </text>
</g>
<!-- DoorsOpen&#45;&gt;DoorsClosing -->
<g id="edge9" class="edge">
<title>DoorsOpen&#45;&gt;DoorsClosing</title>
<path fill="none" stroke="red" d="M187.01,-119.62C184.62,-105.28 182.19,-90.63 180.03,-77.61"/>
<polygon fill="red" stroke="red" points="183.54,-77.43 178.45,-68.14 176.64,-78.58 183.54,-77.43"/>
<text xml:space="preserve" text-anchor="middle" x="219.54" y="-88.2" font-family="Times,serif" font-size="14.00"> close_doors </text>
</g>
<!-- DoorsClosing&#45;&gt;Idle -->
<g id="edge11" class="edge">
<title>DoorsClosing&#45;&gt;Idle</title>
<path fill="none" stroke="red" d="M219.79,-50.58C235.36,-58.41 250.98,-69.56 259.86,-85 333.69,-213.22 311.57,-283.28 249.86,-417.75 238.5,-442.52 217.46,-463.8 197.19,-480"/>
<polygon fill="red" stroke="red" points="195.27,-477.06 189.47,-485.93 199.53,-482.61 195.27,-477.06"/>
<text xml:space="preserve" text-anchor="middle" x="311.54" y="-285.7" font-family="Times,serif" font-size="14.00"> $&gt; </text>
</g>
<!-- DoorsClosing&#45;&gt;Moving -->
<g id="edge10" class="edge">
<title>DoorsClosing&#45;&gt;Moving</title>
<path fill="none" stroke="red" d="M148.95,-66.65C139.04,-81.86 128.65,-100.76 123.36,-119.5 105.99,-181.13 107.02,-254.89 110.89,-305.64"/>
<polygon fill="red" stroke="red" points="107.4,-305.88 111.71,-315.55 114.37,-305.3 107.4,-305.88"/>
<text xml:space="preserve" text-anchor="middle" x="134.61" y="-186.95" font-family="Times,serif" font-size="14.00"> $&gt; </text>
</g>
</g>
</svg>
