<?xml version="1.0" encoding="UTF-8" standalone="no"?>
<!DOCTYPE svg PUBLIC "-//W3C//DTD SVG 1.1//EN"
 "http://www.w3.org/Graphics/SVG/1.1/DTD/svg11.dtd">
<!-- Generated by graphviz version 14.1.5 (20260411.2331)
 -->
<!-- Title: Scanner Pages: 1 -->
<svg width="287pt" height="280pt"
 viewBox="0.00 0.00 287.00 280.00" xmlns="http://www.w3.org/2000/svg" xmlns:xlink="http://www.w3.org/1999/xlink">
<g id="graph0" class="graph" transform="scale(1 1) rotate(0) translate(4 275.65)">
<title>Scanner</title>
<polygon fill="white" stroke="none" points="-4,4 -4,-275.65 282.68,-275.65 282.68,4 -4,4"/>
<!-- Entry -->
<g id="node1" class="node">
<title>Entry</title>
<ellipse fill="black" stroke="#00688b" cx="138.3" cy="-264.45" rx="7.2" ry="7.2"/>
</g>
<!-- Start -->
<g id="node2" class="node">
<title>Start</title>
<path fill="azure" stroke="none" d="M158.3,-220.25C158.3,-220.25 118.3,-220.25 118.3,-220.25 112.3,-220.25 106.3,-214.25 106.3,-208.25 106.3,-208.25 106.3,-142.75 106.3,-142.75 106.3,-136.75 112.3,-130.75 118.3,-130.75 118.3,-130.75 158.3,-130.75 158.3,-130.75 164.3,-130.75 170.3,-136.75 170.3,-142.75 170.3,-142.75 170.3,-208.25 170.3,-208.25 170.3,-214.25 164.3,-220.25 158.3,-220.25"/>
<text xml:space="preserve" text-anchor="start" x="123.68" y="-199.95" font-family="Times,serif" font-weight="bold" font-size="14.00">Start</text>
<text xml:space="preserve" text-anchor="start" x="114.3" y="-174.75" font-family="Times,serif" font-size="10.00">feed(ch: str)</text>
<text xml:space="preserve" text-anchor="start" x="114.3" y="-163.5" font-family="Times,serif" font-size="10.00">eof()</text>
<text xml:space="preserve" text-anchor="start" x="114.3" y="-152.25" font-family="Times,serif" font-size="10.00">tokens()</text>
<text xml:space="preserve" text-anchor="start" x="124.8" y="-141" font-family="Times,serif" font-size="10.00"> &#160;&#160;&#160;&#160;&#160;&#160;&#160;&#160;&#160;&#160;&#160;</text>
<polygon fill="#00688b" stroke="#00688b" points="106.3,-189.75 106.3,-189.75 170.3,-189.75 170.3,-189.75 106.3,-189.75"/>
<path fill="none" stroke="#00688b" d="M118.3,-130.75C118.3,-130.75 158.3,-130.75 158.3,-130.75 164.3,-130.75 170.3,-136.75 170.3,-142.75 170.3,-142.75 170.3,-208.25 170.3,-208.25 170.3,-214.25 164.3,-220.25 158.3,-220.25 158.3,-220.25 118.3,-220.25 118.3,-220.25 112.3,-220.25 106.3,-214.25 106.3,-208.25 106.3,-208.25 106.3,-142.75 106.3,-142.75 106.3,-136.75 112.3,-130.75 118.3,-130.75"/>
</g>
<!-- Entry&#45;&gt;Start -->
<g id="edge1" class="edge">
<title>Entry&#45;&gt;Start</title>
<path fill="none" stroke="red" d="M138.3,-256.91C138.3,-251 138.3,-241.66 138.3,-231.41"/>
<polygon fill="red" stroke="red" points="141.8,-231.56 138.3,-221.56 134.8,-231.56 141.8,-231.56"/>
</g>
<!-- InIdent -->
<g id="node3" class="node">
<title>InIdent</title>
<path fill="azure" stroke="none" d="M55.3,-78.25C55.3,-78.25 15.3,-78.25 15.3,-78.25 9.3,-78.25 3.3,-72.25 3.3,-66.25 3.3,-66.25 3.3,-12 3.3,-12 3.3,-6 9.3,0 15.3,0 15.3,0 55.3,0 55.3,0 61.3,0 67.3,-6 67.3,-12 67.3,-12 67.3,-66.25 67.3,-66.25 67.3,-72.25 61.3,-78.25 55.3,-78.25"/>
<text xml:space="preserve" text-anchor="start" x="13.55" y="-57.95" font-family="Times,serif" font-weight="bold" font-size="14.00">InIdent</text>
<text xml:space="preserve" text-anchor="start" x="11.3" y="-32.75" font-family="Times,serif" font-size="10.00">feed(ch: str)</text>
<text xml:space="preserve" text-anchor="start" x="11.3" y="-21.5" font-family="Times,serif" font-size="10.00">eof()</text>
<text xml:space="preserve" text-anchor="start" x="21.8" y="-10.25" font-family="Times,serif" font-size="10.00"> &#160;&#160;&#160;&#160;&#160;&#160;&#160;&#160;&#160;&#160;&#160;</text>
<polygon fill="#00688b" stroke="#00688b" points="3.3,-47.75 3.3,-47.75 67.3,-47.75 67.3,-47.75 3.3,-47.75"/>
<path fill="none" stroke="#00688b" d="M15.3,0C15.3,0 55.3,0 55.3,0 61.3,0 67.3,-6 67.3,-12 67.3,-12 67.3,-66.25 67.3,-66.25 67.3,-72.25 61.3,-78.25 55.3,-78.25 55.3,-78.25 15.3,-78.25 15.3,-78.25 9.3,-78.25 3.3,-72.25 3.3,-66.25 3.3,-66.25 3.3,-12 3.3,-12 3.3,-6 9.3,0 15.3,0"/>
</g>
<!-- Start&#45;&gt;InIdent -->
<g id="edge2" class="edge">
<title>Start&#45;&gt;InIdent</title>
<path fill="none" stroke="red" d="M106.48,-169.75C74.51,-163.11 26.88,-147.65 4.55,-112.75 -0.22,-105.29 -0.62,-96.97 1.45,-88.69"/>
<polygon fill="red" stroke="red" points="4.73,-89.93 4.91,-79.33 -1.84,-87.5 4.73,-89.93"/>
<text xml:space="preserve" text-anchor="middle" x="19.93" y="-99.45" font-family="Times,serif" font-size="14.00"> feed </text>
</g>
<!-- InNumber -->
<g id="node4" class="node">
<title>InNumber</title>
<path fill="azure" stroke="none" d="M160.05,-78.25C160.05,-78.25 106.55,-78.25 106.55,-78.25 100.55,-78.25 94.55,-72.25 94.55,-66.25 94.55,-66.25 94.55,-12 94.55,-12 94.55,-6 100.55,0 106.55,0 106.55,0 160.05,0 160.05,0 166.05,0 172.05,-6 172.05,-12 172.05,-12 172.05,-66.25 172.05,-66.25 172.05,-72.25 166.05,-78.25 160.05,-78.25"/>
<text xml:space="preserve" text-anchor="start" x="102.55" y="-57.95" font-family="Times,serif" font-weight="bold" font-size="14.00">InNumber</text>
<text xml:space="preserve" text-anchor="start" x="102.55" y="-32.75" font-family="Times,serif" font-size="10.00">feed(ch: str)</text>
<text xml:space="preserve" text-anchor="start" x="102.55" y="-21.5" font-family="Times,serif" font-size="10.00">eof()</text>
<text xml:space="preserve" text-anchor="start" x="113.05" y="-10.25" font-family="Times,serif" font-size="10.00"> &#160;&#160;&#160;&#160;&#160;&#160;&#160;&#160;&#160;&#160;&#160;</text>
<polygon fill="#00688b" stroke="#00688b" points="94.55,-47.75 94.55,-47.75 172.05,-47.75 172.05,-47.75 94.55,-47.75"/>
<path fill="none" stroke="#00688b" d="M106.55,0C106.55,0 160.05,0 160.05,0 166.05,0 172.05,-6 172.05,-12 172.05,-12 172.05,-66.25 172.05,-66.25 172.05,-72.25 166.05,-78.25 160.05,-78.25 160.05,-78.25 106.55,-78.25 106.55,-78.25 100.55,-78.25 94.55,-72.25 94.55,-66.25 94.55,-66.25 94.55,-12 94.55,-12 94.55,-6 100.55,0 106.55,0"/>
</g>
<!-- Start&#45;&gt;InNumber -->
<g id="edge3" class="edge">
<title>Start&#45;&gt;InNumber</title>
<path fill="none" stroke="red" d="M117.69,-130.98C115.57,-124.97 113.76,-118.79 112.55,-112.75 111,-104.97 111.33,-96.81 112.76,-88.89"/>
<polygon fill="red" stroke="red" points="116.11,-89.92 115.05,-79.38 109.3,-88.28 116.11,-89.92"/>
<text xml:space="preserve" text-anchor="middle" x="127.93" y="-99.45" font-family="Times,serif" font-size="14.00"> feed </text>
</g>
<!-- InString -->
<g id="node5" class="node">
<title>InString</title>
<path fill="azure" stroke="none" d="M266.68,-78.25C266.68,-78.25 225.93,-78.25 225.93,-78.25 219.93,-78.25 213.93,-72.25 213.93,-66.25 213.93,-66.25 213.93,-12 213.93,-12 213.93,-6 219.93,0 225.93,0 225.93,0 266.68,0 266.68,0 272.68,0 278.68,-6 278.68,-12 278.68,-12 278.68,-66.25 278.68,-66.25 278.68,-72.25 272.68,-78.25 266.68,-78.25"/>
<text xml:space="preserve" text-anchor="start" x="221.93" y="-57.95" font-family="Times,serif" font-weight="bold" font-size="14.00">InString</text>
<text xml:space="preserve" text-anchor="start" x="221.93" y="-32.75" font-family="Times,serif" font-size="10.00">feed(ch: str)</text>
<text xml:space="preserve" text-anchor="start" x="221.93" y="-21.5" font-family="Times,serif" font-size="10.00">eof()</text>
<text xml:space="preserve" text-anchor="start" x="232.43" y="-10.25" font-family="Times,serif" font-size="10.00"> &#160;&#160;&#160;&#160;&#160;&#160;&#160;&#160;&#160;&#160;&#160;</text>
<polygon fill="#00688b" stroke="#00688b" points="213.93,-47.75 213.93,-47.75 278.68,-47.75 278.68,-47.75 213.93,-47.75"/>
<path fill="none" stroke="#00688b" d="M225.93,0C225.93,0 266.68,0 266.68,0 272.68,0 278.68,-6 278.68,-12 278.68,-12 278.68,-66.25 278.68,-66.25 278.68,-72.25 272.68,-78.25 266.68,-78.25 266.68,-78.25 225.93,-78.25 225.93,-78.25 219.93,-78.25 213.93,-72.25 213.93,-66.25 213.93,-66.25 213.93,-12 213.93,-12 213.93,-6 219.93,0 225.93,0"/>
</g>
<!-- Start&#45;&gt;InString -->
<g id="edge4" class="edge">
<title>Start&#45;&gt;InString</title>
<path fill="none" stroke="red" d="M170.12,-134.91C182.3,-119.76 196.3,-102.33 208.96,-86.59"/>
<polygon fill="red" stroke="red" points="211.34,-89.21 214.88,-79.23 205.88,-84.83 211.34,-89.21"/>
<text xml:space="preserve" text-anchor="middle" x="214.14" y="-99.45" font-family="Times,serif" font-size="14.00"> feed </text>
</g>
<!-- InIdent&#45;&gt;Start -->
<g id="edge5" class="edge">
<title>InIdent&#45;&gt;Start</title>
<path fill="none" stroke="red" d="M54.24,-77.91C60.7,-89.5 68.38,-102.02 76.55,-112.75 83.1,-121.34 90.78,-129.94 98.47,-137.86"/>
<polygon fill="red" stroke="red" points="95.82,-140.17 105.36,-144.78 100.78,-135.23 95.82,-140.17"/>
<text xml:space="preserve" text-anchor="middle" x="91.93" y="-99.45" font-family="Times,serif" font-size="14.00"> feed </text>
</g>
<!-- InNumber&#45;&gt;Start -->
<g id="edge6" class="edge">
<title>InNumber&#45;&gt;Start</title>
<path fill="none" stroke="red" d="M140.99,-78.04C141.95,-84.11 142.78,-90.33 143.3,-96.25 143.97,-103.81 144.11,-111.79 143.92,-119.65"/>
<polygon fill="red" stroke="red" points="140.43,-119.36 143.5,-129.5 147.42,-119.66 140.43,-119.36"/>
<text xml:space="preserve" text-anchor="middle" x="159.36" y="-99.45" font-family="Times,serif" font-size="14.00"> feed </text>
</g>
<!-- InString&#45;&gt;Start -->
<g id="edge7" class="edge">
<title>InString&#45;&gt;Start</title>
<path fill="none" stroke="red" d="M245.33,-78.14C243.56,-89.99 240.03,-102.61 233.3,-112.75 220.49,-132.06 199.35,-146.68 180.26,-156.83"/>
<polygon fill="red" stroke="red" points="178.94,-153.58 171.58,-161.19 182.08,-159.83 178.94,-153.58"/>
<text xml:space="preserve" text-anchor="middle" x="256.37" y="-99.45" font-family="Times,serif" font-size="14.00"> feed </text>
</g>
</g>
</svg>
