<?xml version="1.0" encoding="UTF-8" standalone="no"?>
<!DOCTYPE svg PUBLIC "-//W3C//DTD SVG 1.1//EN"
 "http://www.w3.org/Graphics/SVG/1.1/DTD/svg11.dtd">
<!-- Generated by graphviz version 14.1.5 (20260411.2331)
 -->
<!-- Title: BracketParser Pages: 1 -->
<svg width="126pt" height="422pt"
 viewBox="0.00 0.00 126.00 422.00" xmlns="http://www.w3.org/2000/svg" xmlns:xlink="http://www.w3.org/1999/xlink">
<g id="graph0" class="graph" transform="scale(1 1) rotate(0) translate(4 418.23)">
<title>BracketParser</title>
<polygon fill="white" stroke="none" points="-4,4 -4,-418.23 122,-418.23 122,4 -4,4"/>
<!-- Entry -->
<g id="node1" class="node">
<title>Entry</title>
<ellipse fill="black" stroke="#00688b" cx="33.12" cy="-407.03" rx="7.2" ry="7.2"/>
</g>
<!-- Flat -->
<g id="node2" class="node">
<title>Flat</title>
<path fill="azure" stroke="none" d="M54.25,-362.83C54.25,-362.83 12,-362.83 12,-362.83 6,-362.83 0,-356.83 0,-350.83 0,-350.83 0,-274.08 0,-274.08 0,-268.08 6,-262.08 12,-262.08 12,-262.08 54.25,-262.08 54.25,-262.08 60.25,-262.08 66.25,-268.08 66.25,-274.08 66.25,-274.08 66.25,-350.83 66.25,-350.83 66.25,-356.83 60.25,-362.83 54.25,-362.83"/>
<text xml:space="preserve" text-anchor="start" x="21.5" y="-342.53" font-family="Times,serif" font-weight="bold" font-size="14.00">Flat</text>
<text xml:space="preserve" text-anchor="start" x="8" y="-317.33" font-family="Times,serif" font-size="10.00">open()</text>
<text xml:space="preserve" text-anchor="start" x="8" y="-306.08" font-family="Times,serif" font-size="10.00">close()</text>
<text xml:space="preserve" text-anchor="start" x="8" y="-294.83" font-family="Times,serif" font-size="10.00">value(v: int)</text>
<text xml:space="preserve" text-anchor="start" x="8" y="-283.58" font-family="Times,serif" font-size="10.00">result()</text>
<text xml:space="preserve" text-anchor="start" x="19.62" y="-272.33" font-family="Times,serif" font-size="10.00"> &#160;&#160;&#160;&#160;&#160;&#160;&#160;&#160;&#160;&#160;&#160;</text>
<polygon fill="#00688b" stroke="#00688b" points="0,-332.33 0,-332.33 66.25,-332.33 66.25,-332.33 0,-332.33"/>
<path fill="none" stroke="#00688b" d="M12,-262.08C12,-262.08 54.25,-262.08 54.25,-262.08 60.25,-262.08 66.25,-268.08 66.25,-274.08 66.25,-274.08 66.25,-350.83 66.25,-350.83 66.25,-356.83 60.25,-362.83 54.25,-362.83 54.25,-362.83 12,-362.83 12,-362.83 6,-362.83 0,-356.83 0,-350.83 0,-350.83 0,-274.08 0,-274.08 0,-268.08 6,-262.08 12,-262.08"/>
</g>
<!-- Entry&#45;&gt;Flat -->
<g id="edge1" class="edge">
<title>Entry&#45;&gt;Flat</title>
<path fill="none" stroke="red" d="M33.12,-399.38C33.12,-393.47 33.12,-384.2 33.12,-373.89"/>
<polygon fill="red" stroke="red" points="36.63,-373.92 33.13,-363.92 29.63,-373.92 36.63,-373.92"/>
</g>
<!-- Nested -->
<g id="node3" class="node">
<title>Nested</title>
<path fill="azure" stroke="none" d="M54.25,-209.58C54.25,-209.58 12,-209.58 12,-209.58 6,-209.58 0,-203.58 0,-197.58 0,-197.58 0,-87.83 0,-87.83 0,-81.83 6,-75.83 12,-75.83 12,-75.83 54.25,-75.83 54.25,-75.83 60.25,-75.83 66.25,-81.83 66.25,-87.83 66.25,-87.83 66.25,-197.58 66.25,-197.58 66.25,-203.58 60.25,-209.58 54.25,-209.58"/>
<text xml:space="preserve" text-anchor="start" x="13.62" y="-189.28" font-family="Times,serif" font-weight="bold" font-size="14.00">Nested</text>
<text xml:space="preserve" text-anchor="start" x="8" y="-164.08" font-family="Times,serif" font-size="10.00">open()</text>
<text xml:space="preserve" text-anchor="start" x="8" y="-152.83" font-family="Times,serif" font-size="10.00">close()</text>
<text xml:space="preserve" text-anchor="start" x="8" y="-141.58" font-family="Times,serif" font-size="10.00">value(v: int)</text>
<text xml:space="preserve" text-anchor="start" x="8" y="-130.33" font-family="Times,serif" font-size="10.00">result()</text>
<text xml:space="preserve" text-anchor="start" x="19.62" y="-119.08" font-family="Times,serif" font-size="10.00"> &#160;&#160;&#160;&#160;&#160;&#160;&#160;&#160;&#160;&#160;&#160;</text>
<text xml:space="preserve" text-anchor="start" x="8" y="-96.58" font-family="Times,serif" font-size="9.00" fill="#666666">items: list</text>
<text xml:space="preserve" text-anchor="start" x="11.38" y="-86.08" font-family="Times,serif" font-size="9.00" fill="#666666"> &#160;&#160;&#160;&#160;&#160;&#160;&#160;&#160;&#160;&#160;&#160;</text>
<polygon fill="#00688b" stroke="#00688b" points="0,-179.08 0,-179.08 66.25,-179.08 66.25,-179.08 0,-179.08"/>
<polygon fill="#00688b" stroke="#00688b" points="0,-110.83 0,-110.83 66.25,-110.83 66.25,-110.83 0,-110.83"/>
<path fill="none" stroke="#00688b" d="M12,-75.83C12,-75.83 54.25,-75.83 54.25,-75.83 60.25,-75.83 66.25,-81.83 66.25,-87.83 66.25,-87.83 66.25,-197.58 66.25,-197.58 66.25,-203.58 60.25,-209.58 54.25,-209.58 54.25,-209.58 12,-209.58 12,-209.58 6,-209.58 0,-203.58 0,-197.58 0,-197.58 0,-87.83 0,-87.83 0,-81.83 6,-75.83 12,-75.83"/>
</g>
<!-- Flat&#45;&gt;Nested -->
<g id="edge2" class="edge">
<title>Flat&#45;&gt;Nested</title>
<path fill="none" stroke="red" d="M33.12,-262.49C33.12,-249.36 33.12,-234.85 33.12,-220.61"/>
<polygon fill="red" stroke="red" points="36.63,-220.79 33.13,-210.79 29.63,-220.79 36.63,-220.79"/>
<text xml:space="preserve" text-anchor="middle" x="50" y="-230.78" font-family="Times,serif" font-size="14.00"> open </text>
</g>
<!-- Nested&#45;&gt;Nested -->
<g id="edge3" class="edge">
<title>Nested&#45;&gt;Nested</title>
<path fill="none" stroke="red" d="M66.07,-160.15C76.25,-159.8 84.25,-153.99 84.25,-142.71 84.25,-136.01 81.43,-131.24 77.01,-128.4"/>
<polygon fill="red" stroke="red" points="78.1,-125.07 67.53,-125.68 76.17,-131.8 78.1,-125.07"/>
<text xml:space="preserve" text-anchor="middle" x="101.12" y="-137.66" font-family="Times,serif" font-size="14.00"> open </text>
</g>
<!-- Stack -->
<g id="node4" class="node">
<title>Stack</title>
<ellipse fill="azure" stroke="#00688b" cx="33.12" cy="-11.67" rx="11.67" ry="11.67"/>
<text xml:space="preserve" text-anchor="middle" x="33.12" y="-6.62" font-family="Times,serif" font-size="14.00">H*</text>
</g>
<!-- Nested&#45;&gt;Stack -->
<g id="edge4" class="edge">
<title>Nested&#45;&gt;Stack</title>
<path fill="none" stroke="red" d="M33.12,-76.05C33.12,-61.22 33.12,-46.46 33.12,-34.92"/>
<polygon fill="red" stroke="red" points="36.63,-34.94 33.13,-24.94 29.63,-34.94 36.63,-34.94"/>
<text xml:space="preserve" text-anchor="middle" x="50.75" y="-44.53" font-family="Times,serif" font-size="14.00"> close </text>
</g>
</g>
</svg>
