<?xml version="1.0" encoding="UTF-8" standalone="no"?>
<!DOCTYPE svg PUBLIC "-//W3C//DTD SVG 1.1//EN"
 "http://www.w3.org/Graphics/SVG/1.1/DTD/svg11.dtd">
<!-- Generated by graphviz version 14.1.5 (20260411.2331)
 -->
<!-- Title: TaskLifecycle Pages: 1 -->
<svg width="652pt" height="532pt"
 viewBox="0.00 0.00 652.00 532.00" xmlns="http://www.w3.org/2000/svg" xmlns:xlink="http://www.w3.org/1999/xlink">
<g id="graph0" class="graph" transform="scale(1 1) rotate(0) translate(4 527.9)">
<title>TaskLifecycle</title>
<polygon fill="white" stroke="none" points="-4,4 -4,-527.9 648.37,-527.9 648.37,4 -4,4"/>
<g id="clust1" class="cluster">
<title>cluster_Alive</title>
<path fill="none" stroke="black" d="M74,-8C74,-8 396,-8 396,-8 402,-8 408,-14 408,-20 408,-20 408,-470.5 408,-470.5 408,-476.5 402,-482.5 396,-482.5 396,-482.5 74,-482.5 74,-482.5 68,-482.5 62,-476.5 62,-470.5 62,-470.5 62,-20 62,-20 62,-14 68,-8 74,-8"/>
<text xml:space="preserve" text-anchor="start" x="220" y="-461.75" font-family="Times,serif" font-size="14.00">Alive</text>
<polygon fill="black" stroke="black" points="216,-455 216,-455 254,-455 254,-455 216,-455"/>
</g>
<g id="clust2" class="cluster">
<title>cluster_Blocked</title>
<path fill="none" stroke="black" d="M82,-292C82,-292 316,-292 316,-292 322,-292 328,-298 328,-304 328,-304 328,-424 328,-424 328,-430 322,-436 316,-436 316,-436 82,-436 82,-436 76,-436 70,-430 70,-424 70,-424 70,-304 70,-304 70,-298 76,-292 82,-292"/>
<text xml:space="preserve" text-anchor="start" x="176.5" y="-415.25" font-family="Times,serif" font-size="14.00">Blocked</text>
<polygon fill="black" stroke="black" points="172.5,-408.5 172.5,-408.5 225.5,-408.5 225.5,-408.5 172.5,-408.5"/>
</g>
<!-- Entry -->
<g id="node1" class="node">
<title>Entry</title>
<ellipse fill="black" stroke="#00688b" cx="27" cy="-516.7" rx="7.2" ry="7.2"/>
</g>
<!-- New -->
<g id="node2" class="node">
<title>New</title>
<path fill="azure" stroke="none" d="M42,-383.88C42,-383.88 12,-383.88 12,-383.88 6,-383.88 0,-377.88 0,-371.88 0,-371.88 0,-317.62 0,-317.62 0,-311.62 6,-305.62 12,-305.62 12,-305.62 42,-305.62 42,-305.62 48,-305.62 54,-311.62 54,-317.62 54,-317.62 54,-371.88 54,-371.88 54,-377.88 48,-383.88 42,-383.88"/>
<text xml:space="preserve" text-anchor="start" x="14.25" y="-363.57" font-family="Times,serif" font-weight="bold" font-size="14.00">New</text>
<text xml:space="preserve" text-anchor="start" x="12.38" y="-338.38" font-family="Times,serif" font-size="10.00">fork()</text>
<text xml:space="preserve" text-anchor="start" x="12.38" y="-327.12" font-family="Times,serif" font-size="10.00">status()</text>
<text xml:space="preserve" text-anchor="start" x="13.5" y="-315.88" font-family="Times,serif" font-size="10.00"> &#160;&#160;&#160;&#160;&#160;&#160;&#160;&#160;&#160;&#160;&#160;</text>
<polygon fill="#00688b" stroke="#00688b" points="4.38,-353.38 4.38,-353.38 49.62,-353.38 49.62,-353.38 4.38,-353.38"/>
<path fill="none" stroke="#00688b" d="M16.38,-305.62C16.38,-305.62 37.62,-305.62 37.62,-305.62 43.62,-305.62 49.62,-311.62 49.62,-317.62 49.62,-317.62 49.62,-371.88 49.62,-371.88 49.62,-377.88 43.62,-383.88 37.62,-383.88 37.62,-383.88 16.38,-383.88 16.38,-383.88 10.38,-383.88 4.38,-377.88 4.38,-371.88 4.38,-371.88 4.38,-317.62 4.38,-317.62 4.38,-311.62 10.38,-305.62 16.38,-305.62"/>
</g>
<!-- Entry&#45;&gt;New -->
<g id="edge1" class="edge">
<title>Entry&#45;&gt;New</title>
<path fill="none" stroke="red" d="M27,-509.25C27,-490.72 27,-436.07 27,-395.02"/>
<polygon fill="red" stroke="red" points="30.5,-395.09 27,-385.09 23.5,-395.09 30.5,-395.09"/>
</g>
<!-- Ready -->
<g id="node4" class="node">
<title>Ready</title>
<path fill="azure" stroke="none" d="M277,-247.5C277,-247.5 243,-247.5 243,-247.5 237,-247.5 231,-241.5 231,-235.5 231,-235.5 231,-181.25 231,-181.25 231,-175.25 237,-169.25 243,-169.25 243,-169.25 277,-169.25 277,-169.25 283,-169.25 289,-175.25 289,-181.25 289,-181.25 289,-235.5 289,-235.5 289,-241.5 283,-247.5 277,-247.5"/>
<text xml:space="preserve" text-anchor="start" x="241.62" y="-227.2" font-family="Times,serif" font-weight="bold" font-size="14.00">Ready</text>
<text xml:space="preserve" text-anchor="start" x="239" y="-202" font-family="Times,serif" font-size="10.00">schedule()</text>
<text xml:space="preserve" text-anchor="start" x="239" y="-190.75" font-family="Times,serif" font-size="10.00">status()</text>
<text xml:space="preserve" text-anchor="start" x="242" y="-179.5" font-family="Times,serif" font-size="10.00"> &#160;&#160;&#160;&#160;&#160;&#160;&#160;&#160;&#160;&#160;&#160;&#160;&#160;&#160;&#160;</text>
<polygon fill="#00688b" stroke="#00688b" points="231,-217 231,-217 289,-217 289,-217 231,-217"/>
<path fill="none" stroke="#00688b" d="M243,-169.25C243,-169.25 277,-169.25 277,-169.25 283,-169.25 289,-175.25 289,-181.25 289,-181.25 289,-235.5 289,-235.5 289,-241.5 283,-247.5 277,-247.5 277,-247.5 243,-247.5 243,-247.5 237,-247.5 231,-241.5 231,-235.5 231,-235.5 231,-181.25 231,-181.25 231,-175.25 237,-169.25 243,-169.25"/>
</g>
<!-- New&#45;&gt;Ready -->
<g id="edge2" class="edge">
<title>New&#45;&gt;Ready</title>
<path fill="none" stroke="red" d="M46.93,-305.67C56.69,-290.75 69.86,-274.97 86,-265.5 136.69,-235.77 163.6,-272.05 217,-247.5 218.53,-246.8 220.04,-246.02 221.54,-245.18"/>
<polygon fill="red" stroke="red" points="223.37,-248.17 229.81,-239.75 219.53,-242.32 223.37,-248.17"/>
<text xml:space="preserve" text-anchor="middle" x="101" y="-268.7" font-family="Times,serif" font-size="14.00"> fork </text>
</g>
<!-- Alive -->
<g id="node3" class="node">
<title>Alive</title>
<ellipse fill="azure" stroke="#00688b" cx="400" cy="-344.75" rx="0.36" ry="0.36"/>
</g>
<!-- Stopped -->
<g id="node9" class="node">
<title>Stopped</title>
<path fill="azure" stroke="none" d="M574.88,-383.88C574.88,-383.88 501.12,-383.88 501.12,-383.88 495.12,-383.88 489.12,-377.88 489.12,-371.88 489.12,-371.88 489.12,-317.62 489.12,-317.62 489.12,-311.62 495.12,-305.62 501.12,-305.62 501.12,-305.62 574.88,-305.62 574.88,-305.62 580.88,-305.62 586.88,-311.62 586.88,-317.62 586.88,-317.62 586.88,-371.88 586.88,-371.88 586.88,-377.88 580.88,-383.88 574.88,-383.88"/>
<text xml:space="preserve" text-anchor="start" x="514.38" y="-363.57" font-family="Times,serif" font-weight="bold" font-size="14.00">Stopped</text>
<text xml:space="preserve" text-anchor="start" x="497.12" y="-338.38" font-family="Times,serif" font-size="10.00">send_signal(sig: str)</text>
<text xml:space="preserve" text-anchor="start" x="497.12" y="-327.12" font-family="Times,serif" font-size="10.00">status()</text>
<text xml:space="preserve" text-anchor="start" x="524.5" y="-315.88" font-family="Times,serif" font-size="10.00"> &#160;&#160;&#160;&#160;&#160;&#160;&#160;&#160;&#160;&#160;&#160;</text>
<polygon fill="#00688b" stroke="#00688b" points="489.12,-353.38 489.12,-353.38 586.88,-353.38 586.88,-353.38 489.12,-353.38"/>
<path fill="none" stroke="#00688b" d="M501.12,-305.62C501.12,-305.62 574.88,-305.62 574.88,-305.62 580.88,-305.62 586.88,-311.62 586.88,-317.62 586.88,-317.62 586.88,-371.88 586.88,-371.88 586.88,-377.88 580.88,-383.88 574.88,-383.88 574.88,-383.88 501.12,-383.88 501.12,-383.88 495.12,-383.88 489.12,-377.88 489.12,-371.88 489.12,-371.88 489.12,-317.62 489.12,-317.62 489.12,-311.62 495.12,-305.62 501.12,-305.62"/>
</g>
<!-- Alive&#45;&gt;Stopped -->
<g id="edge11" class="edge">
<title>Alive&#45;&gt;Stopped</title>
<path fill="none" stroke="red" d="M408,-344.75C421.69,-344.75 450.77,-344.75 477.97,-344.75"/>
<polygon fill="red" stroke="red" points="477.69,-348.25 487.69,-344.75 477.69,-341.25 477.69,-348.25"/>
<text xml:space="preserve" text-anchor="middle" x="444.74" y="-350.95" font-family="Times,serif" font-size="14.00"> send_signal </text>
</g>
<!-- Zombie -->
<g id="node10" class="node">
<title>Zombie</title>
<path fill="azure" stroke="none" d="M558.25,-247.5C558.25,-247.5 495.75,-247.5 495.75,-247.5 489.75,-247.5 483.75,-241.5 483.75,-235.5 483.75,-235.5 483.75,-181.25 483.75,-181.25 483.75,-175.25 489.75,-169.25 495.75,-169.25 495.75,-169.25 558.25,-169.25 558.25,-169.25 564.25,-169.25 570.25,-175.25 570.25,-181.25 570.25,-181.25 570.25,-235.5 570.25,-235.5 570.25,-241.5 564.25,-247.5 558.25,-247.5"/>
<text xml:space="preserve" text-anchor="start" x="504.5" y="-227.2" font-family="Times,serif" font-weight="bold" font-size="14.00">Zombie</text>
<text xml:space="preserve" text-anchor="start" x="491.75" y="-202" font-family="Times,serif" font-size="10.00">wait_by_parent()</text>
<text xml:space="preserve" text-anchor="start" x="491.75" y="-190.75" font-family="Times,serif" font-size="10.00">status()</text>
<text xml:space="preserve" text-anchor="start" x="513.5" y="-179.5" font-family="Times,serif" font-size="10.00"> &#160;&#160;&#160;&#160;&#160;&#160;&#160;&#160;&#160;&#160;&#160;</text>
<polygon fill="#00688b" stroke="#00688b" points="483.75,-217 483.75,-217 570.25,-217 570.25,-217 483.75,-217"/>
<path fill="none" stroke="#00688b" d="M495.75,-169.25C495.75,-169.25 558.25,-169.25 558.25,-169.25 564.25,-169.25 570.25,-175.25 570.25,-181.25 570.25,-181.25 570.25,-235.5 570.25,-235.5 570.25,-241.5 564.25,-247.5 558.25,-247.5 558.25,-247.5 495.75,-247.5 495.75,-247.5 489.75,-247.5 483.75,-241.5 483.75,-235.5 483.75,-235.5 483.75,-181.25 483.75,-181.25 483.75,-175.25 489.75,-169.25 495.75,-169.25"/>
</g>
<!-- Alive&#45;&gt;Zombie -->
<g id="edge10" class="edge">
<title>Alive&#45;&gt;Zombie</title>
<path fill="none" stroke="red" d="M408,-262.41C423.9,-241.64 449.66,-228.82 473.16,-221"/>
<polygon fill="red" stroke="red" points="473.9,-224.43 482.44,-218.15 471.85,-217.74 473.9,-224.43"/>
<text xml:space="preserve" text-anchor="middle" x="441.38" y="-268.7" font-family="Times,serif" font-size="14.00"> send_signal </text>
</g>
<!-- Running -->
<g id="node5" class="node">
<title>Running</title>
<path fill="azure" stroke="none" d="M267,-116.75C267,-116.75 179,-116.75 179,-116.75 173,-116.75 167,-110.75 167,-104.75 167,-104.75 167,-28 167,-28 167,-22 173,-16 179,-16 179,-16 267,-16 267,-16 273,-16 279,-22 279,-28 279,-28 279,-104.75 279,-104.75 279,-110.75 273,-116.75 267,-116.75"/>
<text xml:space="preserve" text-anchor="start" x="197.88" y="-96.45" font-family="Times,serif" font-weight="bold" font-size="14.00">Running</text>
<text xml:space="preserve" text-anchor="start" x="175" y="-71.25" font-family="Times,serif" font-size="10.00">schedule()</text>
<text xml:space="preserve" text-anchor="start" x="175" y="-60" font-family="Times,serif" font-size="10.00">block_on_io()</text>
<text xml:space="preserve" text-anchor="start" x="175" y="-48.75" font-family="Times,serif" font-size="10.00">block_uninterruptible()</text>
<text xml:space="preserve" text-anchor="start" x="175" y="-37.5" font-family="Times,serif" font-size="10.00">status()</text>
<text xml:space="preserve" text-anchor="start" x="205" y="-26.25" font-family="Times,serif" font-size="10.00"> &#160;&#160;&#160;&#160;&#160;&#160;&#160;&#160;&#160;&#160;&#160;&#160;&#160;&#160;&#160;</text>
<polygon fill="#00688b" stroke="#00688b" points="167,-86.25 167,-86.25 279,-86.25 279,-86.25 167,-86.25"/>
<path fill="none" stroke="#00688b" d="M179,-16C179,-16 267,-16 267,-16 273,-16 279,-22 279,-28 279,-28 279,-104.75 279,-104.75 279,-110.75 273,-116.75 267,-116.75 267,-116.75 179,-116.75 179,-116.75 173,-116.75 167,-110.75 167,-104.75 167,-104.75 167,-28 167,-28 167,-22 173,-16 179,-16"/>
</g>
<!-- Ready&#45;&gt;Running -->
<g id="edge3" class="edge">
<title>Ready&#45;&gt;Running</title>
<path fill="none" stroke="red" d="M249.99,-169.49C246.56,-156.52 242.63,-141.67 238.86,-127.39"/>
<polygon fill="red" stroke="red" points="242.34,-126.85 236.4,-118.08 235.57,-128.64 242.34,-126.85"/>
<text xml:space="preserve" text-anchor="middle" x="272.19" y="-137.95" font-family="Times,serif" font-size="14.00"> schedule </text>
</g>
<!-- Running&#45;&gt;Ready -->
<g id="edge4" class="edge">
<title>Running&#45;&gt;Ready</title>
<path fill="none" stroke="red" d="M182.88,-116.56C177.98,-128.17 176.7,-140.33 183.25,-151.25 192,-165.83 203.04,-159.54 217,-169.25 218.78,-170.49 220.57,-171.79 222.35,-173.14"/>
<polygon fill="red" stroke="red" points="219.97,-175.71 229.96,-179.22 224.33,-170.24 219.97,-175.71"/>
<text xml:space="preserve" text-anchor="middle" x="210.62" y="-137.95" font-family="Times,serif" font-size="14.00"> schedule </text>
</g>
<!-- Interruptible -->
<g id="node7" class="node">
<title>Interruptible</title>
<path fill="azure" stroke="none" d="M307.88,-389.5C307.88,-389.5 234.12,-389.5 234.12,-389.5 228.12,-389.5 222.12,-383.5 222.12,-377.5 222.12,-377.5 222.12,-312 222.12,-312 222.12,-306 228.12,-300 234.12,-300 234.12,-300 307.88,-300 307.88,-300 313.88,-300 319.88,-306 319.88,-312 319.88,-312 319.88,-377.5 319.88,-377.5 319.88,-383.5 313.88,-389.5 307.88,-389.5"/>
<text xml:space="preserve" text-anchor="start" x="233.12" y="-369.2" font-family="Times,serif" font-weight="bold" font-size="14.00">Interruptible</text>
<text xml:space="preserve" text-anchor="start" x="230.12" y="-344" font-family="Times,serif" font-size="10.00">io_complete()</text>
<text xml:space="preserve" text-anchor="start" x="230.12" y="-332.75" font-family="Times,serif" font-size="10.00">send_signal(sig: str)</text>
<text xml:space="preserve" text-anchor="start" x="230.12" y="-321.5" font-family="Times,serif" font-size="10.00">status()</text>
<text xml:space="preserve" text-anchor="start" x="248.5" y="-310.25" font-family="Times,serif" font-size="10.00"> &#160;&#160;&#160;&#160;&#160;&#160;&#160;&#160;&#160;&#160;&#160;&#160;&#160;&#160;&#160;&#160;&#160;&#160;&#160;</text>
<polygon fill="#00688b" stroke="#00688b" points="222.12,-359 222.12,-359 319.88,-359 319.88,-359 222.12,-359"/>
<path fill="none" stroke="#00688b" d="M234.12,-300C234.12,-300 307.88,-300 307.88,-300 313.88,-300 319.88,-306 319.88,-312 319.88,-312 319.88,-377.5 319.88,-377.5 319.88,-383.5 313.88,-389.5 307.88,-389.5 307.88,-389.5 234.12,-389.5 234.12,-389.5 228.12,-389.5 222.12,-383.5 222.12,-377.5 222.12,-377.5 222.12,-312 222.12,-312 222.12,-306 228.12,-300 234.12,-300"/>
</g>
<!-- Running&#45;&gt;Interruptible -->
<g id="edge5" class="edge">
<title>Running&#45;&gt;Interruptible</title>
<path fill="none" stroke="red" d="M278.75,-107.59C287.95,-115.87 296.81,-125.05 304,-134.75 341.53,-185.41 346.53,-203.7 359,-265.5 360.45,-272.69 363.42,-276.15 359,-282 349.26,-294.92 337.99,-283.88 324,-292 323.1,-292.52 322.2,-293.06 321.31,-293.62"/>
<polygon fill="red" stroke="red" points="319.38,-290.7 313.2,-299.31 323.4,-296.43 319.38,-290.7"/>
<text xml:space="preserve" text-anchor="middle" x="392.57" y="-203.32" font-family="Times,serif" font-size="14.00"> block_on_io </text>
</g>
<!-- Uninterruptible -->
<g id="node8" class="node">
<title>Uninterruptible</title>
<path fill="azure" stroke="none" d="M191.75,-383.88C191.75,-383.88 108.25,-383.88 108.25,-383.88 102.25,-383.88 96.25,-377.88 96.25,-371.88 96.25,-371.88 96.25,-317.62 96.25,-317.62 96.25,-311.62 102.25,-305.62 108.25,-305.62 108.25,-305.62 191.75,-305.62 191.75,-305.62 197.75,-305.62 203.75,-311.62 203.75,-317.62 203.75,-317.62 203.75,-371.88 203.75,-371.88 203.75,-377.88 197.75,-383.88 191.75,-383.88"/>
<text xml:space="preserve" text-anchor="start" x="104.25" y="-363.57" font-family="Times,serif" font-weight="bold" font-size="14.00">Uninterruptible</text>
<text xml:space="preserve" text-anchor="start" x="104.25" y="-338.38" font-family="Times,serif" font-size="10.00">io_complete()</text>
<text xml:space="preserve" text-anchor="start" x="104.25" y="-327.12" font-family="Times,serif" font-size="10.00">status()</text>
<text xml:space="preserve" text-anchor="start" x="110.25" y="-315.88" font-family="Times,serif" font-size="10.00"> &#160;&#160;&#160;&#160;&#160;&#160;&#160;&#160;&#160;&#160;&#160;&#160;&#160;&#160;&#160;&#160;&#160;&#160;&#160;</text>
<polygon fill="#00688b" stroke="#00688b" points="96.25,-353.38 96.25,-353.38 203.75,-353.38 203.75,-353.38 96.25,-353.38"/>
<path fill="none" stroke="#00688b" d="M108.25,-305.62C108.25,-305.62 191.75,-305.62 191.75,-305.62 197.75,-305.62 203.75,-311.62 203.75,-317.62 203.75,-317.62 203.75,-371.88 203.75,-371.88 203.75,-377.88 197.75,-383.88 191.75,-383.88 191.75,-383.88 108.25,-383.88 108.25,-383.88 102.25,-383.88 96.25,-377.88 96.25,-371.88 96.25,-371.88 96.25,-317.62 96.25,-317.62 96.25,-311.62 102.25,-305.62 108.25,-305.62"/>
</g>
<!-- Running&#45;&gt;Uninterruptible -->
<g id="edge6" class="edge">
<title>Running&#45;&gt;Uninterruptible</title>
<path fill="none" stroke="red" d="M167.29,-96.91C140.94,-114.16 112.1,-138.59 97.5,-169.25 77.98,-210.24 96.84,-260.11 117.19,-296.02"/>
<polygon fill="red" stroke="red" points="114.07,-297.63 122.17,-304.46 120.1,-294.07 114.07,-297.63"/>
<text xml:space="preserve" text-anchor="middle" x="159.75" y="-203.32" font-family="Times,serif" font-size="14.00"> block_uninterruptible </text>
</g>
<!-- Blocked -->
<g id="node6" class="node">
<title>Blocked</title>
<ellipse fill="azure" stroke="#00688b" cx="78" cy="-344.75" rx="0.36" ry="0.36"/>
</g>
<!-- Interruptible&#45;&gt;Ready -->
<g id="edge7" class="edge">
<title>Interruptible&#45;&gt;Ready</title>
<path fill="none" stroke="red" d="M222.39,-301.52C215.02,-294.04 209.14,-287.04 207,-282 204.13,-275.25 204.29,-272.31 207,-265.5 210.63,-256.37 216.53,-247.87 223.1,-240.38"/>
<polygon fill="red" stroke="red" points="225.6,-242.82 229.97,-233.17 220.54,-237.99 225.6,-242.82"/>
<text xml:space="preserve" text-anchor="middle" x="244.5" y="-268.7" font-family="Times,serif" font-size="14.00"> io_complete </text>
</g>
<!-- Interruptible&#45;&gt;Ready -->
<g id="edge8" class="edge">
<title>Interruptible&#45;&gt;Ready</title>
<path fill="none" stroke="red" d="M282.18,-300.17C283.7,-288.85 284.11,-276.69 282,-265.5 281.56,-263.17 281.02,-260.81 280.42,-258.45"/>
<polygon fill="red" stroke="red" points="283.78,-257.47 277.54,-248.91 277.07,-259.49 283.78,-257.47"/>
<text xml:space="preserve" text-anchor="middle" x="319.06" y="-268.7" font-family="Times,serif" font-size="14.00"> send_signal </text>
</g>
<!-- Uninterruptible&#45;&gt;Ready -->
<g id="edge9" class="edge">
<title>Uninterruptible&#45;&gt;Ready</title>
<path fill="none" stroke="red" d="M124.74,-305.83C118.82,-291.97 116.62,-276.92 126,-265.5 152.17,-233.64 180.06,-265.82 217,-247.5 218.72,-246.65 220.43,-245.71 222.11,-244.7"/>
<polygon fill="red" stroke="red" points="223.93,-247.69 230.19,-239.14 219.97,-241.92 223.93,-247.69"/>
<text xml:space="preserve" text-anchor="middle" x="163.5" y="-268.7" font-family="Times,serif" font-size="14.00"> io_complete </text>
</g>
<!-- Stopped&#45;&gt;Ready -->
<g id="edge12" class="edge">
<title>Stopped&#45;&gt;Ready</title>
<path fill="none" stroke="red" d="M512.61,-305.63C500.24,-288.31 486.12,-270.55 477,-265.5 408.99,-227.83 374.17,-278.79 303,-247.5 301.46,-246.82 299.93,-246.07 298.43,-245.25"/>
<polygon fill="red" stroke="red" points="300.43,-242.38 290.13,-239.9 296.63,-248.26 300.43,-242.38"/>
<text xml:space="preserve" text-anchor="middle" x="529.5" y="-268.7" font-family="Times,serif" font-size="14.00"> send_signal </text>
</g>
<!-- Stopped&#45;&gt;Zombie -->
<g id="edge13" class="edge">
<title>Stopped&#45;&gt;Zombie</title>
<path fill="none" stroke="red" d="M565.97,-305.94C572.13,-293.23 575.62,-278.88 571,-265.5 570.01,-262.64 568.81,-259.81 567.44,-257.03"/>
<polygon fill="red" stroke="red" points="570.62,-255.53 562.63,-248.57 564.53,-258.99 570.62,-255.53"/>
<text xml:space="preserve" text-anchor="middle" x="608.75" y="-268.7" font-family="Times,serif" font-size="14.00"> send_signal </text>
</g>
<!-- Dead -->
<g id="node11" class="node">
<title>Dead</title>
<path fill="azure" stroke="none" d="M542,-99.88C542,-99.88 512,-99.88 512,-99.88 506,-99.88 500,-93.88 500,-87.88 500,-87.88 500,-44.88 500,-44.88 500,-38.88 506,-32.88 512,-32.88 512,-32.88 542,-32.88 542,-32.88 548,-32.88 554,-38.88 554,-44.88 554,-44.88 554,-87.88 554,-87.88 554,-93.88 548,-99.88 542,-99.88"/>
<text xml:space="preserve" text-anchor="start" x="512" y="-79.58" font-family="Times,serif" font-weight="bold" font-size="14.00">Dead</text>
<text xml:space="preserve" text-anchor="start" x="512" y="-54.38" font-family="Times,serif" font-size="10.00">status()</text>
<text xml:space="preserve" text-anchor="start" x="513.12" y="-43.12" font-family="Times,serif" font-size="10.00"> &#160;&#160;&#160;&#160;&#160;&#160;&#160;&#160;&#160;&#160;&#160;</text>
<polygon fill="#00688b" stroke="#00688b" points="504,-69.38 504,-69.38 550,-69.38 550,-69.38 504,-69.38"/>
<path fill="none" stroke="#00688b" d="M516,-32.88C516,-32.88 538,-32.88 538,-32.88 544,-32.88 550,-38.88 550,-44.88 550,-44.88 550,-87.88 550,-87.88 550,-93.88 544,-99.88 538,-99.88 538,-99.88 516,-99.88 516,-99.88 510,-99.88 504,-93.88 504,-87.88 504,-87.88 504,-44.88 504,-44.88 504,-38.88 510,-32.88 516,-32.88"/>
</g>
<!-- Zombie&#45;&gt;Dead -->
<g id="edge14" class="edge">
<title>Zombie&#45;&gt;Dead</title>
<path fill="none" stroke="red" d="M527,-169.49C527,-151.47 527,-129.82 527,-111.11"/>
<polygon fill="red" stroke="red" points="530.5,-111.11 527,-101.11 523.5,-111.11 530.5,-111.11"/>
<text xml:space="preserve" text-anchor="middle" x="572.75" y="-137.95" font-family="Times,serif" font-size="14.00"> wait_by_parent </text>
</g>
</g>
</svg>
