<?xml version="1.0" encoding="UTF-8" standalone="no"?>
<!DOCTYPE svg PUBLIC "-//W3C//DTD SVG 1.1//EN"
 "http://www.w3.org/Graphics/SVG/1.1/DTD/svg11.dtd">
<!-- Generated by graphviz version 14.1.5 (20260411.2331)
 -->
<!-- Title: RuntimePM Pages: 1 -->
<svg width="394pt" height="762pt"
 viewBox="0.00 0.00 394.00 762.00" xmlns="http://www.w3.org/2000/svg" xmlns:xlink="http://www.w3.org/1999/xlink">
<g id="graph0" class="graph" transform="scale(1 1) rotate(0) translate(4 757.9)">
<title>RuntimePM</title>
<polygon fill="white" stroke="none" points="-4,4 -4,-757.9 389.75,-757.9 389.75,4 -4,4"/>
<!-- Entry -->
<g id="node1" class="node">
<title>Entry</title>
<ellipse fill="black" stroke="#00688b" cx="124.5" cy="-746.7" rx="7.2" ry="7.2"/>
</g>
<!-- Active -->
<g id="node2" class="node">
<title>Active</title>
<path fill="azure" stroke="none" d="M139.5,-702.5C139.5,-702.5 109.5,-702.5 109.5,-702.5 103.5,-702.5 97.5,-696.5 97.5,-690.5 97.5,-690.5 97.5,-613.75 97.5,-613.75 97.5,-607.75 103.5,-601.75 109.5,-601.75 109.5,-601.75 139.5,-601.75 139.5,-601.75 145.5,-601.75 151.5,-607.75 151.5,-613.75 151.5,-613.75 151.5,-690.5 151.5,-690.5 151.5,-696.5 145.5,-702.5 139.5,-702.5"/>
<text xml:space="preserve" text-anchor="start" x="106.12" y="-682.2" font-family="Times,serif" font-weight="bold" font-size="14.00">Active</text>
<text xml:space="preserve" text-anchor="start" x="106.12" y="-657" font-family="Times,serif" font-size="10.00">$&gt;()</text>
<text xml:space="preserve" text-anchor="start" x="106.12" y="-645.75" font-family="Times,serif" font-size="10.00">get()</text>
<text xml:space="preserve" text-anchor="start" x="106.12" y="-634.5" font-family="Times,serif" font-size="10.00">put()</text>
<text xml:space="preserve" text-anchor="start" x="106.12" y="-623.25" font-family="Times,serif" font-size="10.00">status()</text>
<text xml:space="preserve" text-anchor="start" x="107.25" y="-612" font-family="Times,serif" font-size="10.00"> &#160;&#160;&#160;&#160;&#160;&#160;&#160;&#160;&#160;&#160;&#160;</text>
<polygon fill="#00688b" stroke="#00688b" points="98.12,-672 98.12,-672 150.88,-672 150.88,-672 98.12,-672"/>
<path fill="none" stroke="#00688b" d="M110.12,-601.75C110.12,-601.75 138.88,-601.75 138.88,-601.75 144.88,-601.75 150.88,-607.75 150.88,-613.75 150.88,-613.75 150.88,-690.5 150.88,-690.5 150.88,-696.5 144.88,-702.5 138.88,-702.5 138.88,-702.5 110.12,-702.5 110.12,-702.5 104.12,-702.5 98.12,-696.5 98.12,-690.5 98.12,-690.5 98.12,-613.75 98.12,-613.75 98.12,-607.75 104.12,-601.75 110.12,-601.75"/>
</g>
<!-- Entry&#45;&gt;Active -->
<g id="edge1" class="edge">
<title>Entry&#45;&gt;Active</title>
<path fill="none" stroke="red" d="M124.5,-739.04C124.5,-733.14 124.5,-723.86 124.5,-713.56"/>
<polygon fill="red" stroke="red" points="128,-713.59 124.5,-703.59 121,-713.59 128,-713.59"/>
</g>
<!-- Idle -->
<g id="node3" class="node">
<title>Idle</title>
<path fill="azure" stroke="none" d="M97,-549.25C97,-549.25 12,-549.25 12,-549.25 6,-549.25 0,-543.25 0,-537.25 0,-537.25 0,-449.25 0,-449.25 0,-443.25 6,-437.25 12,-437.25 12,-437.25 97,-437.25 97,-437.25 103,-437.25 109,-443.25 109,-449.25 109,-449.25 109,-537.25 109,-537.25 109,-543.25 103,-549.25 97,-549.25"/>
<text xml:space="preserve" text-anchor="start" x="43.25" y="-528.95" font-family="Times,serif" font-weight="bold" font-size="14.00">Idle</text>
<text xml:space="preserve" text-anchor="start" x="8" y="-503.75" font-family="Times,serif" font-size="10.00">$&gt;()</text>
<text xml:space="preserve" text-anchor="start" x="8" y="-492.5" font-family="Times,serif" font-size="10.00">&lt;$()</text>
<text xml:space="preserve" text-anchor="start" x="8" y="-481.25" font-family="Times,serif" font-size="10.00">get()</text>
<text xml:space="preserve" text-anchor="start" x="8" y="-470" font-family="Times,serif" font-size="10.00">autosuspend_expired()</text>
<text xml:space="preserve" text-anchor="start" x="8" y="-458.75" font-family="Times,serif" font-size="10.00">status()</text>
<text xml:space="preserve" text-anchor="start" x="41" y="-447.5" font-family="Times,serif" font-size="10.00"> &#160;&#160;&#160;&#160;&#160;&#160;&#160;&#160;&#160;&#160;&#160;</text>
<polygon fill="#00688b" stroke="#00688b" points="0,-518.75 0,-518.75 109,-518.75 109,-518.75 0,-518.75"/>
<path fill="none" stroke="#00688b" d="M12,-437.25C12,-437.25 97,-437.25 97,-437.25 103,-437.25 109,-443.25 109,-449.25 109,-449.25 109,-537.25 109,-537.25 109,-543.25 103,-549.25 97,-549.25 97,-549.25 12,-549.25 12,-549.25 6,-549.25 0,-543.25 0,-537.25 0,-537.25 0,-449.25 0,-449.25 0,-443.25 6,-437.25 12,-437.25"/>
</g>
<!-- Active&#45;&gt;Idle -->
<g id="edge2" class="edge">
<title>Active&#45;&gt;Idle</title>
<path fill="none" stroke="red" d="M97.55,-631.54C83.28,-619.51 67.03,-602.78 58.75,-583.75 55.59,-576.48 53.51,-568.55 52.22,-560.53"/>
<polygon fill="red" stroke="red" points="55.71,-560.19 51.07,-550.66 48.76,-561 55.71,-560.19"/>
<text xml:space="preserve" text-anchor="middle" x="71.12" y="-570.45" font-family="Times,serif" font-size="14.00"> put </text>
</g>
<!-- Idle&#45;&gt;Active -->
<g id="edge3" class="edge">
<title>Idle&#45;&gt;Active</title>
<path fill="none" stroke="red" d="M78.94,-549.01C85.06,-562.73 91.65,-577.51 97.87,-591.45"/>
<polygon fill="red" stroke="red" points="94.66,-592.83 101.93,-600.54 101.05,-589.98 94.66,-592.83"/>
<text xml:space="preserve" text-anchor="middle" x="105.69" y="-570.45" font-family="Times,serif" font-size="14.00"> get </text>
</g>
<!-- Suspending -->
<g id="node4" class="node">
<title>Suspending</title>
<path fill="azure" stroke="none" d="M189.38,-384.75C189.38,-384.75 61.62,-384.75 61.62,-384.75 55.62,-384.75 49.62,-378.75 49.62,-372.75 49.62,-372.75 49.62,-296 49.62,-296 49.62,-290 55.62,-284 61.62,-284 61.62,-284 189.38,-284 189.38,-284 195.38,-284 201.38,-290 201.38,-296 201.38,-296 201.38,-372.75 201.38,-372.75 201.38,-378.75 195.38,-384.75 189.38,-384.75"/>
<text xml:space="preserve" text-anchor="start" x="92.12" y="-364.45" font-family="Times,serif" font-weight="bold" font-size="14.00">Suspending</text>
<text xml:space="preserve" text-anchor="start" x="57.62" y="-339.25" font-family="Times,serif" font-size="10.00">$&gt;()</text>
<text xml:space="preserve" text-anchor="start" x="57.62" y="-328" font-family="Times,serif" font-size="10.00">suspend_complete(success: bool)</text>
<text xml:space="preserve" text-anchor="start" x="57.62" y="-316.75" font-family="Times,serif" font-size="10.00">get()</text>
<text xml:space="preserve" text-anchor="start" x="57.62" y="-305.5" font-family="Times,serif" font-size="10.00">status()</text>
<text xml:space="preserve" text-anchor="start" x="112" y="-294.25" font-family="Times,serif" font-size="10.00"> &#160;&#160;&#160;&#160;&#160;&#160;&#160;&#160;&#160;&#160;&#160;</text>
<polygon fill="#00688b" stroke="#00688b" points="49.62,-354.25 49.62,-354.25 201.38,-354.25 201.38,-354.25 49.62,-354.25"/>
<path fill="none" stroke="#00688b" d="M61.62,-284C61.62,-284 189.38,-284 189.38,-284 195.38,-284 201.38,-290 201.38,-296 201.38,-296 201.38,-372.75 201.38,-372.75 201.38,-378.75 195.38,-384.75 189.38,-384.75 189.38,-384.75 61.62,-384.75 61.62,-384.75 55.62,-384.75 49.62,-378.75 49.62,-372.75 49.62,-372.75 49.62,-296 49.62,-296 49.62,-290 55.62,-284 61.62,-284"/>
</g>
<!-- Idle&#45;&gt;Suspending -->
<g id="edge4" class="edge">
<title>Idle&#45;&gt;Suspending</title>
<path fill="none" stroke="red" d="M9.12,-437.27C4.6,-425.73 3.69,-413.73 10,-402.75 17.37,-389.92 28.23,-379.3 40.39,-370.58"/>
<polygon fill="red" stroke="red" points="42.23,-373.56 48.64,-365.12 38.37,-367.72 42.23,-373.56"/>
<text xml:space="preserve" text-anchor="middle" x="70.75" y="-405.95" font-family="Times,serif" font-size="14.00"> autosuspend_expired </text>
</g>
<!-- Suspending&#45;&gt;Active -->
<g id="edge6" class="edge">
<title>Suspending&#45;&gt;Active</title>
<path fill="none" stroke="red" d="M130.4,-384.65C130.85,-390.74 131.24,-396.88 131.5,-402.75 134.35,-466.92 131.52,-540.47 128.65,-590.78"/>
<polygon fill="red" stroke="red" points="125.16,-590.4 128.07,-600.59 132.15,-590.81 125.16,-590.4"/>
<text xml:space="preserve" text-anchor="middle" x="186.68" y="-488.2" font-family="Times,serif" font-size="14.00"> suspend_complete </text>
</g>
<!-- Suspended -->
<g id="node5" class="node">
<title>Suspended</title>
<path fill="azure" stroke="none" d="M157.62,-231.5C157.62,-231.5 103.38,-231.5 103.38,-231.5 97.38,-231.5 91.38,-225.5 91.38,-219.5 91.38,-219.5 91.38,-154 91.38,-154 91.38,-148 97.38,-142 103.38,-142 103.38,-142 157.62,-142 157.62,-142 163.62,-142 169.62,-148 169.62,-154 169.62,-154 169.62,-219.5 169.62,-219.5 169.62,-225.5 163.62,-231.5 157.62,-231.5"/>
<text xml:space="preserve" text-anchor="start" x="99.38" y="-211.2" font-family="Times,serif" font-weight="bold" font-size="14.00">Suspended</text>
<text xml:space="preserve" text-anchor="start" x="99.38" y="-186" font-family="Times,serif" font-size="10.00">$&gt;()</text>
<text xml:space="preserve" text-anchor="start" x="99.38" y="-174.75" font-family="Times,serif" font-size="10.00">get()</text>
<text xml:space="preserve" text-anchor="start" x="99.38" y="-163.5" font-family="Times,serif" font-size="10.00">status()</text>
<text xml:space="preserve" text-anchor="start" x="100.5" y="-152.25" font-family="Times,serif" font-size="10.00"> &#160;&#160;&#160;&#160;&#160;&#160;&#160;&#160;&#160;&#160;&#160;</text>
<polygon fill="#00688b" stroke="#00688b" points="91.38,-201 91.38,-201 169.62,-201 169.62,-201 91.38,-201"/>
<path fill="none" stroke="#00688b" d="M103.38,-142C103.38,-142 157.62,-142 157.62,-142 163.62,-142 169.62,-148 169.62,-154 169.62,-154 169.62,-219.5 169.62,-219.5 169.62,-225.5 163.62,-231.5 157.62,-231.5 157.62,-231.5 103.38,-231.5 103.38,-231.5 97.38,-231.5 91.38,-225.5 91.38,-219.5 91.38,-219.5 91.38,-154 91.38,-154 91.38,-148 97.38,-142 103.38,-142"/>
</g>
<!-- Suspending&#45;&gt;Suspended -->
<g id="edge5" class="edge">
<title>Suspending&#45;&gt;Suspended</title>
<path fill="none" stroke="red" d="M108.42,-284.25C106.28,-272.87 105.47,-260.79 107.5,-249.5 107.92,-247.17 108.42,-244.81 108.99,-242.45"/>
<polygon fill="red" stroke="red" points="112.35,-243.43 111.67,-232.86 105.61,-241.55 112.35,-243.43"/>
<text xml:space="preserve" text-anchor="middle" x="161.5" y="-252.7" font-family="Times,serif" font-size="14.00"> suspend_complete </text>
</g>
<!-- Resuming -->
<g id="node6" class="node">
<title>Resuming</title>
<path fill="azure" stroke="none" d="M264.12,-89.5C264.12,-89.5 194.88,-89.5 194.88,-89.5 188.88,-89.5 182.88,-83.5 182.88,-77.5 182.88,-77.5 182.88,-12 182.88,-12 182.88,-6 188.88,0 194.88,0 194.88,0 264.12,0 264.12,0 270.12,0 276.12,-6 276.12,-12 276.12,-12 276.12,-77.5 276.12,-77.5 276.12,-83.5 270.12,-89.5 264.12,-89.5"/>
<text xml:space="preserve" text-anchor="start" x="200.25" y="-69.2" font-family="Times,serif" font-weight="bold" font-size="14.00">Resuming</text>
<text xml:space="preserve" text-anchor="start" x="190.88" y="-44" font-family="Times,serif" font-size="10.00">$&gt;()</text>
<text xml:space="preserve" text-anchor="start" x="190.88" y="-32.75" font-family="Times,serif" font-size="10.00">resume_complete()</text>
<text xml:space="preserve" text-anchor="start" x="190.88" y="-21.5" font-family="Times,serif" font-size="10.00">status()</text>
<text xml:space="preserve" text-anchor="start" x="216" y="-10.25" font-family="Times,serif" font-size="10.00"> &#160;&#160;&#160;&#160;&#160;&#160;&#160;&#160;&#160;&#160;&#160;</text>
<polygon fill="#00688b" stroke="#00688b" points="182.88,-59 182.88,-59 276.12,-59 276.12,-59 182.88,-59"/>
<path fill="none" stroke="#00688b" d="M194.88,0C194.88,0 264.12,0 264.12,0 270.12,0 276.12,-6 276.12,-12 276.12,-12 276.12,-77.5 276.12,-77.5 276.12,-83.5 270.12,-89.5 264.12,-89.5 264.12,-89.5 194.88,-89.5 194.88,-89.5 188.88,-89.5 182.88,-83.5 182.88,-77.5 182.88,-77.5 182.88,-12 182.88,-12 182.88,-6 188.88,0 194.88,0"/>
</g>
<!-- Suspending&#45;&gt;Resuming -->
<g id="edge7" class="edge">
<title>Suspending&#45;&gt;Resuming</title>
<path fill="none" stroke="red" d="M201.26,-285.53C206.8,-279.55 211.69,-273.04 215.5,-266 243.06,-215.05 242.95,-147.46 238.24,-100.66"/>
<polygon fill="red" stroke="red" points="241.72,-100.28 237.13,-90.73 234.76,-101.06 241.72,-100.28"/>
<text xml:space="preserve" text-anchor="middle" x="252.61" y="-181.7" font-family="Times,serif" font-size="14.00"> get </text>
</g>
<!-- Suspended&#45;&gt;Resuming -->
<g id="edge8" class="edge">
<title>Suspended&#45;&gt;Resuming</title>
<path fill="none" stroke="red" d="M161.28,-142.22C171.06,-128.39 181.98,-112.95 192.17,-98.54"/>
<polygon fill="red" stroke="red" points="194.95,-100.67 197.86,-90.49 189.23,-96.63 194.95,-100.67"/>
<text xml:space="preserve" text-anchor="middle" x="194.97" y="-110.7" font-family="Times,serif" font-size="14.00"> get </text>
</g>
<!-- Resuming&#45;&gt;Active -->
<g id="edge9" class="edge">
<title>Resuming&#45;&gt;Active</title>
<path fill="none" stroke="red" d="M254.74,-89.3C267.99,-116.19 281.5,-151.91 281.5,-185.75 281.5,-494.25 281.5,-494.25 281.5,-494.25 281.5,-561.78 207.93,-610.37 161.51,-634.3"/>
<polygon fill="red" stroke="red" points="160.23,-631.03 152.84,-638.63 163.35,-637.29 160.23,-631.03"/>
<text xml:space="preserve" text-anchor="middle" x="333.62" y="-329.32" font-family="Times,serif" font-size="14.00"> resume_complete </text>
</g>
</g>
</svg>
