<?xml version="1.0" encoding="UTF-8" standalone="no"?>
<!DOCTYPE svg PUBLIC "-//W3C//DTD SVG 1.1//EN"
 "http://www.w3.org/Graphics/SVG/1.1/DTD/svg11.dtd">
<!-- Generated by graphviz version 14.1.5 (20260411.2331)
 -->
<!-- Title: BlockRequest Pages: 1 -->
<svg width="227pt" height="564pt"
 viewBox="0.00 0.00 227.00 564.00" xmlns="http://www.w3.org/2000/svg" xmlns:xlink="http://www.w3.org/1999/xlink">
<g id="graph0" class="graph" transform="scale(1 1) rotate(0) translate(4 559.65)">
<title>BlockRequest</title>
<polygon fill="white" stroke="none" points="-4,4 -4,-559.65 222.96,-559.65 222.96,4 -4,4"/>
<!-- Entry -->
<g id="node1" class="node">
<title>Entry</title>
<ellipse fill="black" stroke="#00688b" cx="108" cy="-548.45" rx="7.2" ry="7.2"/>
</g>
<!-- Idle -->
<g id="node2" class="node">
<title>Idle</title>
<path fill="azure" stroke="none" d="M159.5,-504.25C159.5,-504.25 56.5,-504.25 56.5,-504.25 50.5,-504.25 44.5,-498.25 44.5,-492.25 44.5,-492.25 44.5,-438 44.5,-438 44.5,-432 50.5,-426 56.5,-426 56.5,-426 159.5,-426 159.5,-426 165.5,-426 171.5,-432 171.5,-438 171.5,-438 171.5,-492.25 171.5,-492.25 171.5,-498.25 165.5,-504.25 159.5,-504.25"/>
<text xml:space="preserve" text-anchor="start" x="96.75" y="-483.95" font-family="Times,serif" font-weight="bold" font-size="14.00">Idle</text>
<text xml:space="preserve" text-anchor="start" x="52.5" y="-458.75" font-family="Times,serif" font-size="10.00">submit(sector: int, size: int)</text>
<text xml:space="preserve" text-anchor="start" x="52.5" y="-447.5" font-family="Times,serif" font-size="10.00">status()</text>
<text xml:space="preserve" text-anchor="start" x="94.5" y="-436.25" font-family="Times,serif" font-size="10.00"> &#160;&#160;&#160;&#160;&#160;&#160;&#160;&#160;&#160;&#160;&#160;</text>
<polygon fill="#00688b" stroke="#00688b" points="44.5,-473.75 44.5,-473.75 171.5,-473.75 171.5,-473.75 44.5,-473.75"/>
<path fill="none" stroke="#00688b" d="M56.5,-426C56.5,-426 159.5,-426 159.5,-426 165.5,-426 171.5,-432 171.5,-438 171.5,-438 171.5,-492.25 171.5,-492.25 171.5,-498.25 165.5,-504.25 159.5,-504.25 159.5,-504.25 56.5,-504.25 56.5,-504.25 50.5,-504.25 44.5,-498.25 44.5,-492.25 44.5,-492.25 44.5,-438 44.5,-438 44.5,-432 50.5,-426 56.5,-426"/>
</g>
<!-- Entry&#45;&gt;Idle -->
<g id="edge1" class="edge">
<title>Entry&#45;&gt;Idle</title>
<path fill="none" stroke="red" d="M108,-540.79C108,-534.78 108,-525.32 108,-515.13"/>
<polygon fill="red" stroke="red" points="111.5,-515.44 108,-505.44 104.5,-515.44 111.5,-515.44"/>
</g>
<!-- Queued -->
<g id="node3" class="node">
<title>Queued</title>
<path fill="azure" stroke="none" d="M126.88,-373.5C126.88,-373.5 89.12,-373.5 89.12,-373.5 83.12,-373.5 77.12,-367.5 77.12,-361.5 77.12,-361.5 77.12,-307.25 77.12,-307.25 77.12,-301.25 83.12,-295.25 89.12,-295.25 89.12,-295.25 126.88,-295.25 126.88,-295.25 132.88,-295.25 138.88,-301.25 138.88,-307.25 138.88,-307.25 138.88,-361.5 138.88,-361.5 138.88,-367.5 132.88,-373.5 126.88,-373.5"/>
<text xml:space="preserve" text-anchor="start" x="85.12" y="-353.2" font-family="Times,serif" font-weight="bold" font-size="14.00">Queued</text>
<text xml:space="preserve" text-anchor="start" x="85.12" y="-328" font-family="Times,serif" font-size="10.00">dispatch()</text>
<text xml:space="preserve" text-anchor="start" x="85.12" y="-316.75" font-family="Times,serif" font-size="10.00">status()</text>
<text xml:space="preserve" text-anchor="start" x="91.88" y="-305.5" font-family="Times,serif" font-size="10.00"> &#160;&#160;&#160;&#160;&#160;&#160;&#160;&#160;&#160;&#160;&#160;</text>
<polygon fill="#00688b" stroke="#00688b" points="77.12,-343 77.12,-343 138.88,-343 138.88,-343 77.12,-343"/>
<path fill="none" stroke="#00688b" d="M89.12,-295.25C89.12,-295.25 126.88,-295.25 126.88,-295.25 132.88,-295.25 138.88,-301.25 138.88,-307.25 138.88,-307.25 138.88,-361.5 138.88,-361.5 138.88,-367.5 132.88,-373.5 126.88,-373.5 126.88,-373.5 89.12,-373.5 89.12,-373.5 83.12,-373.5 77.12,-367.5 77.12,-361.5 77.12,-361.5 77.12,-307.25 77.12,-307.25 77.12,-301.25 83.12,-295.25 89.12,-295.25"/>
</g>
<!-- Idle&#45;&gt;Queued -->
<g id="edge2" class="edge">
<title>Idle&#45;&gt;Queued</title>
<path fill="none" stroke="red" d="M108,-426.19C108,-413.21 108,-398.49 108,-384.74"/>
<polygon fill="red" stroke="red" points="111.5,-385 108,-375 104.5,-385 111.5,-385"/>
<text xml:space="preserve" text-anchor="middle" x="130.5" y="-394.7" font-family="Times,serif" font-size="14.00"> submit </text>
</g>
<!-- InFlight -->
<g id="node4" class="node">
<title>InFlight</title>
<path fill="azure" stroke="none" d="M152.75,-242.75C152.75,-242.75 63.25,-242.75 63.25,-242.75 57.25,-242.75 51.25,-236.75 51.25,-230.75 51.25,-230.75 51.25,-142.75 51.25,-142.75 51.25,-136.75 57.25,-130.75 63.25,-130.75 63.25,-130.75 152.75,-130.75 152.75,-130.75 158.75,-130.75 164.75,-136.75 164.75,-142.75 164.75,-142.75 164.75,-230.75 164.75,-230.75 164.75,-236.75 158.75,-242.75 152.75,-242.75"/>
<text xml:space="preserve" text-anchor="start" x="84.38" y="-222.45" font-family="Times,serif" font-weight="bold" font-size="14.00">InFlight</text>
<text xml:space="preserve" text-anchor="start" x="59.25" y="-197.25" font-family="Times,serif" font-size="10.00">$&gt;()</text>
<text xml:space="preserve" text-anchor="start" x="59.25" y="-186" font-family="Times,serif" font-size="10.00">&lt;$()</text>
<text xml:space="preserve" text-anchor="start" x="59.25" y="-174.75" font-family="Times,serif" font-size="10.00">complete(success: bool)</text>
<text xml:space="preserve" text-anchor="start" x="59.25" y="-163.5" font-family="Times,serif" font-size="10.00">timeout()</text>
<text xml:space="preserve" text-anchor="start" x="59.25" y="-152.25" font-family="Times,serif" font-size="10.00">status()</text>
<text xml:space="preserve" text-anchor="start" x="94.5" y="-141" font-family="Times,serif" font-size="10.00"> &#160;&#160;&#160;&#160;&#160;&#160;&#160;&#160;&#160;&#160;&#160;</text>
<polygon fill="#00688b" stroke="#00688b" points="51.25,-212.25 51.25,-212.25 164.75,-212.25 164.75,-212.25 51.25,-212.25"/>
<path fill="none" stroke="#00688b" d="M63.25,-130.75C63.25,-130.75 152.75,-130.75 152.75,-130.75 158.75,-130.75 164.75,-136.75 164.75,-142.75 164.75,-142.75 164.75,-230.75 164.75,-230.75 164.75,-236.75 158.75,-242.75 152.75,-242.75 152.75,-242.75 63.25,-242.75 63.25,-242.75 57.25,-242.75 51.25,-236.75 51.25,-230.75 51.25,-230.75 51.25,-142.75 51.25,-142.75 51.25,-136.75 57.25,-130.75 63.25,-130.75"/>
</g>
<!-- Queued&#45;&gt;InFlight -->
<g id="edge3" class="edge">
<title>Queued&#45;&gt;InFlight</title>
<path fill="none" stroke="red" d="M77.3,-320.43C52.25,-307.74 22.65,-286.56 33.5,-260.75 36.26,-254.18 39.94,-247.9 44.18,-241.98"/>
<polygon fill="red" stroke="red" points="46.89,-244.2 50.32,-234.17 41.39,-239.87 46.89,-244.2"/>
<text xml:space="preserve" text-anchor="middle" x="59.75" y="-263.95" font-family="Times,serif" font-size="14.00"> dispatch </text>
</g>
<!-- InFlight&#45;&gt;Queued -->
<g id="edge5" class="edge">
<title>InFlight&#45;&gt;Queued</title>
<path fill="none" stroke="red" d="M108,-242.72C108,-256.33 108,-270.83 108,-284.15"/>
<polygon fill="red" stroke="red" points="104.5,-283.98 108,-293.98 111.5,-283.98 104.5,-283.98"/>
<text xml:space="preserve" text-anchor="middle" x="136.88" y="-263.95" font-family="Times,serif" font-size="14.00"> complete </text>
</g>
<!-- InFlight&#45;&gt;Queued -->
<g id="edge7" class="edge">
<title>InFlight&#45;&gt;Queued</title>
<path fill="none" stroke="red" d="M158.23,-242.4C161.75,-248.3 164.77,-254.45 167,-260.75 173.25,-278.42 161.88,-294.91 147.51,-307.7"/>
<polygon fill="red" stroke="red" points="145.53,-304.8 139.99,-313.83 149.95,-310.23 145.53,-304.8"/>
<text xml:space="preserve" text-anchor="middle" x="193.49" y="-263.95" font-family="Times,serif" font-size="14.00"> timeout </text>
</g>
<!-- Done -->
<g id="node5" class="node">
<title>Done</title>
<path fill="azure" stroke="none" d="M42,-78.25C42,-78.25 12,-78.25 12,-78.25 6,-78.25 0,-72.25 0,-66.25 0,-66.25 0,-12 0,-12 0,-6 6,0 12,0 12,0 42,0 42,0 48,0 54,-6 54,-12 54,-12 54,-66.25 54,-66.25 54,-72.25 48,-78.25 42,-78.25"/>
<text xml:space="preserve" text-anchor="start" x="12" y="-57.95" font-family="Times,serif" font-weight="bold" font-size="14.00">Done</text>
<text xml:space="preserve" text-anchor="start" x="12" y="-32.75" font-family="Times,serif" font-size="10.00">$&gt;()</text>
<text xml:space="preserve" text-anchor="start" x="12" y="-21.5" font-family="Times,serif" font-size="10.00">status()</text>
<text xml:space="preserve" text-anchor="start" x="13.12" y="-10.25" font-family="Times,serif" font-size="10.00"> &#160;&#160;&#160;&#160;&#160;&#160;&#160;&#160;&#160;&#160;&#160;</text>
<polygon fill="#00688b" stroke="#00688b" points="4,-47.75 4,-47.75 50,-47.75 50,-47.75 4,-47.75"/>
<path fill="none" stroke="#00688b" d="M16,0C16,0 38,0 38,0 44,0 50,-6 50,-12 50,-12 50,-66.25 50,-66.25 50,-72.25 44,-78.25 38,-78.25 38,-78.25 16,-78.25 16,-78.25 10,-78.25 4,-72.25 4,-66.25 4,-66.25 4,-12 4,-12 4,-6 10,0 16,0"/>
</g>
<!-- InFlight&#45;&gt;Done -->
<g id="edge4" class="edge">
<title>InFlight&#45;&gt;Done</title>
<path fill="none" stroke="red" d="M55.62,-131.17C51.37,-125.22 47.49,-119.03 44.25,-112.75 40.46,-105.38 37.48,-97.17 35.15,-88.98"/>
<polygon fill="red" stroke="red" points="38.58,-88.24 32.73,-79.4 31.79,-89.95 38.58,-88.24"/>
<text xml:space="preserve" text-anchor="middle" x="73.12" y="-99.45" font-family="Times,serif" font-size="14.00"> complete </text>
</g>
<!-- Error -->
<g id="node6" class="node">
<title>Error</title>
<path fill="azure" stroke="none" d="M163,-78.25C163,-78.25 133,-78.25 133,-78.25 127,-78.25 121,-72.25 121,-66.25 121,-66.25 121,-12 121,-12 121,-6 127,0 133,0 133,0 163,0 163,0 169,0 175,-6 175,-12 175,-12 175,-66.25 175,-66.25 175,-72.25 169,-78.25 163,-78.25"/>
<text xml:space="preserve" text-anchor="start" x="131.12" y="-57.95" font-family="Times,serif" font-weight="bold" font-size="14.00">Error</text>
<text xml:space="preserve" text-anchor="start" x="131.12" y="-32.75" font-family="Times,serif" font-size="10.00">$&gt;()</text>
<text xml:space="preserve" text-anchor="start" x="131.12" y="-21.5" font-family="Times,serif" font-size="10.00">status()</text>
<text xml:space="preserve" text-anchor="start" x="132.25" y="-10.25" font-family="Times,serif" font-size="10.00"> &#160;&#160;&#160;&#160;&#160;&#160;&#160;&#160;&#160;&#160;&#160;</text>
<polygon fill="#00688b" stroke="#00688b" points="123.12,-47.75 123.12,-47.75 172.88,-47.75 172.88,-47.75 123.12,-47.75"/>
<path fill="none" stroke="#00688b" d="M135.12,0C135.12,0 160.88,0 160.88,0 166.88,0 172.88,-6 172.88,-12 172.88,-12 172.88,-66.25 172.88,-66.25 172.88,-72.25 166.88,-78.25 160.88,-78.25 160.88,-78.25 135.12,-78.25 135.12,-78.25 129.12,-78.25 123.12,-72.25 123.12,-66.25 123.12,-66.25 123.12,-12 123.12,-12 123.12,-6 129.12,0 135.12,0"/>
</g>
<!-- InFlight&#45;&gt;Error -->
<g id="edge6" class="edge">
<title>InFlight&#45;&gt;Error</title>
<path fill="none" stroke="red" d="M103.69,-130.97C104.17,-119.3 105.75,-107.2 109.25,-96.25 110.79,-91.42 112.9,-86.64 115.34,-82.03"/>
<polygon fill="red" stroke="red" points="118.29,-83.93 120.36,-73.54 112.26,-80.36 118.29,-83.93"/>
<text xml:space="preserve" text-anchor="middle" x="138.12" y="-99.45" font-family="Times,serif" font-size="14.00"> complete </text>
</g>
<!-- InFlight&#45;&gt;Error -->
<g id="edge8" class="edge">
<title>InFlight&#45;&gt;Error</title>
<path fill="none" stroke="red" d="M158.23,-131.1C161.75,-125.2 164.77,-119.05 167,-112.75 169.66,-105.23 169.96,-97.16 168.88,-89.23"/>
<polygon fill="red" stroke="red" points="172.35,-88.72 166.85,-79.66 165.5,-90.17 172.35,-88.72"/>
<text xml:space="preserve" text-anchor="middle" x="194.21" y="-99.45" font-family="Times,serif" font-size="14.00"> timeout </text>
</g>
</g>
</svg>
