<?xml version="1.0" encoding="UTF-8" standalone="no"?>
<!DOCTYPE svg PUBLIC "-//W3C//DTD SVG 1.1//EN"
 "http://www.w3.org/Graphics/SVG/1.1/DTD/svg11.dtd">
<!-- Generated by graphviz version 14.1.5 (20260411.2331)
 -->
<!-- Title: UsbEnumerator Pages: 1 -->
<svg width="722pt" height="840pt"
 viewBox="0.00 0.00 722.00 840.00" xmlns="http://www.w3.org/2000/svg" xmlns:xlink="http://www.w3.org/1999/xlink">
<g id="graph0" class="graph" transform="scale(1 1) rotate(0) translate(4 835.5)">
<title>UsbEnumerator</title>
<polygon fill="white" stroke="none" points="-4,4 -4,-835.5 718.05,-835.5 718.05,4 -4,4"/>
<g id="clust1" class="cluster">
<title>cluster_Enumerating</title>
<path fill="none" stroke="black" d="M154.05,-253.5C154.05,-253.5 368.05,-253.5 368.05,-253.5 374.05,-253.5 380.05,-259.5 380.05,-265.5 380.05,-265.5 380.05,-811.5 380.05,-811.5 380.05,-817.5 374.05,-823.5 368.05,-823.5 368.05,-823.5 154.05,-823.5 154.05,-823.5 148.05,-823.5 142.05,-817.5 142.05,-811.5 142.05,-811.5 142.05,-265.5 142.05,-265.5 142.05,-259.5 148.05,-253.5 154.05,-253.5"/>
<text xml:space="preserve" text-anchor="start" x="225.8" y="-802.75" font-family="Times,serif" font-size="14.00">Enumerating</text>
<polygon fill="black" stroke="black" points="221.8,-796 221.8,-796 300.3,-796 300.3,-796 221.8,-796"/>
</g>
<!-- Entry -->
<g id="node1" class="node">
<title>Entry</title>
<ellipse fill="black" stroke="#00688b" cx="594.05" cy="-732.25" rx="7.2" ry="7.2"/>
</g>
<!-- Detached -->
<g id="node2" class="node">
<title>Detached</title>
<path fill="azure" stroke="none" d="M595.68,-629.38C595.68,-629.38 532.43,-629.38 532.43,-629.38 526.43,-629.38 520.43,-623.38 520.43,-617.38 520.43,-617.38 520.43,-563.12 520.43,-563.12 520.43,-557.12 526.43,-551.12 532.43,-551.12 532.43,-551.12 595.68,-551.12 595.68,-551.12 601.68,-551.12 607.68,-557.12 607.68,-563.12 607.68,-563.12 607.68,-617.38 607.68,-617.38 607.68,-623.38 601.68,-629.38 595.68,-629.38"/>
<text xml:space="preserve" text-anchor="start" x="537.05" y="-609.08" font-family="Times,serif" font-weight="bold" font-size="14.00">Detached</text>
<text xml:space="preserve" text-anchor="start" x="528.43" y="-583.88" font-family="Times,serif" font-size="10.00">plug_in(port: int)</text>
<text xml:space="preserve" text-anchor="start" x="528.43" y="-572.62" font-family="Times,serif" font-size="10.00">status()</text>
<text xml:space="preserve" text-anchor="start" x="550.55" y="-561.38" font-family="Times,serif" font-size="10.00"> &#160;&#160;&#160;&#160;&#160;&#160;&#160;&#160;&#160;&#160;&#160;</text>
<polygon fill="#00688b" stroke="#00688b" points="520.43,-598.88 520.43,-598.88 607.68,-598.88 607.68,-598.88 520.43,-598.88"/>
<path fill="none" stroke="#00688b" d="M532.43,-551.12C532.43,-551.12 595.68,-551.12 595.68,-551.12 601.68,-551.12 607.68,-557.12 607.68,-563.12 607.68,-563.12 607.68,-617.38 607.68,-617.38 607.68,-623.38 601.68,-629.38 595.68,-629.38 595.68,-629.38 532.43,-629.38 532.43,-629.38 526.43,-629.38 520.43,-623.38 520.43,-617.38 520.43,-617.38 520.43,-563.12 520.43,-563.12 520.43,-557.12 526.43,-551.12 532.43,-551.12"/>
</g>
<!-- Entry&#45;&gt;Detached -->
<g id="edge1" class="edge">
<title>Entry&#45;&gt;Detached</title>
<path fill="none" stroke="red" d="M593.06,-724.72C590.97,-711.26 585.83,-679.43 580.05,-653 579.16,-648.92 578.19,-644.7 577.17,-640.47"/>
<polygon fill="red" stroke="red" points="580.58,-639.69 574.78,-630.82 573.78,-641.37 580.58,-639.69"/>
</g>
<!-- Resetting -->
<g id="node4" class="node">
<title>Resetting</title>
<path fill="azure" stroke="none" d="M258.18,-777C258.18,-777 161.93,-777 161.93,-777 155.93,-777 149.93,-771 149.93,-765 149.93,-765 149.93,-699.5 149.93,-699.5 149.93,-693.5 155.93,-687.5 161.93,-687.5 161.93,-687.5 258.18,-687.5 258.18,-687.5 264.18,-687.5 270.18,-693.5 270.18,-699.5 270.18,-699.5 270.18,-765 270.18,-765 270.18,-771 264.18,-777 258.18,-777"/>
<text xml:space="preserve" text-anchor="start" x="183.05" y="-756.7" font-family="Times,serif" font-weight="bold" font-size="14.00">Resetting</text>
<text xml:space="preserve" text-anchor="start" x="157.93" y="-731.5" font-family="Times,serif" font-size="10.00">$&gt;()</text>
<text xml:space="preserve" text-anchor="start" x="157.93" y="-720.25" font-family="Times,serif" font-size="10.00">reset_done(success: bool)</text>
<text xml:space="preserve" text-anchor="start" x="157.93" y="-709" font-family="Times,serif" font-size="10.00">status()</text>
<text xml:space="preserve" text-anchor="start" x="192.05" y="-697.75" font-family="Times,serif" font-size="10.00"> &#160;&#160;&#160;&#160;&#160;&#160;&#160;&#160;&#160;&#160;&#160;&#160;&#160;&#160;&#160;</text>
<polygon fill="#00688b" stroke="#00688b" points="149.93,-746.5 149.93,-746.5 270.18,-746.5 270.18,-746.5 149.93,-746.5"/>
<path fill="none" stroke="#00688b" d="M161.93,-687.5C161.93,-687.5 258.18,-687.5 258.18,-687.5 264.18,-687.5 270.18,-693.5 270.18,-699.5 270.18,-699.5 270.18,-765 270.18,-765 270.18,-771 264.18,-777 258.18,-777 258.18,-777 161.93,-777 161.93,-777 155.93,-777 149.93,-771 149.93,-765 149.93,-765 149.93,-699.5 149.93,-699.5 149.93,-693.5 155.93,-687.5 161.93,-687.5"/>
</g>
<!-- Detached&#45;&gt;Resetting -->
<g id="edge2" class="edge">
<title>Detached&#45;&gt;Resetting</title>
<path fill="none" stroke="red" d="M520.68,-614.54C501.39,-625.47 478.71,-639.13 459.3,-653 450.14,-659.55 450.11,-664.41 440.05,-669.5 408.71,-685.39 397.07,-678.67 363.05,-687.5 336.03,-694.52 306.5,-702.81 280.65,-710.28"/>
<polygon fill="red" stroke="red" points="279.9,-706.86 271.27,-713.01 281.85,-713.58 279.9,-706.86"/>
<text xml:space="preserve" text-anchor="middle" x="483.68" y="-656.2" font-family="Times,serif" font-size="14.00"> plug_in </text>
</g>
<!-- Enumerating -->
<g id="node3" class="node">
<title>Enumerating</title>
<ellipse fill="azure" stroke="#00688b" cx="372.05" cy="-732.25" rx="0.36" ry="0.36"/>
</g>
<!-- Enumerating&#45;&gt;Detached -->
<g id="edge12" class="edge">
<title>Enumerating&#45;&gt;Detached</title>
<path fill="none" stroke="red" d="M380.05,-729.42C402.9,-723.86 469.5,-705.33 512.05,-669.5 522.19,-660.97 531.12,-649.97 538.6,-638.94"/>
<polygon fill="red" stroke="red" points="541.52,-640.87 543.98,-630.57 535.63,-637.09 541.52,-640.87"/>
<text xml:space="preserve" text-anchor="middle" x="550.6" y="-656.2" font-family="Times,serif" font-size="14.00"> unplug </text>
</g>
<!-- Resetting&#45;&gt;Resetting -->
<g id="edge4" class="edge">
<title>Resetting&#45;&gt;Resetting</title>
<path fill="none" stroke="red" d="M270,-744.78C280.7,-743.15 288.18,-738.98 288.18,-732.25 288.18,-728.15 285.4,-725 280.81,-722.79"/>
<polygon fill="red" stroke="red" points="282.03,-719.5 271.45,-720.13 280.11,-726.23 282.03,-719.5"/>
<text xml:space="preserve" text-anchor="middle" x="321.18" y="-727.2" font-family="Times,serif" font-size="14.00"> reset_done </text>
</g>
<!-- Addressing -->
<g id="node5" class="node">
<title>Addressing</title>
<path fill="azure" stroke="none" d="M299.8,-635C299.8,-635 162.3,-635 162.3,-635 156.3,-635 150.3,-629 150.3,-623 150.3,-623 150.3,-557.5 150.3,-557.5 150.3,-551.5 156.3,-545.5 162.3,-545.5 162.3,-545.5 299.8,-545.5 299.8,-545.5 305.8,-545.5 311.8,-551.5 311.8,-557.5 311.8,-557.5 311.8,-623 311.8,-623 311.8,-629 305.8,-635 299.8,-635"/>
<text xml:space="preserve" text-anchor="start" x="198.43" y="-614.7" font-family="Times,serif" font-weight="bold" font-size="14.00">Addressing</text>
<text xml:space="preserve" text-anchor="start" x="158.3" y="-589.5" font-family="Times,serif" font-size="10.00">$&gt;()</text>
<text xml:space="preserve" text-anchor="start" x="158.3" y="-578.25" font-family="Times,serif" font-size="10.00">address_set(success: bool, addr: int)</text>
<text xml:space="preserve" text-anchor="start" x="158.3" y="-567" font-family="Times,serif" font-size="10.00">status()</text>
<text xml:space="preserve" text-anchor="start" x="213.05" y="-555.75" font-family="Times,serif" font-size="10.00"> &#160;&#160;&#160;&#160;&#160;&#160;&#160;&#160;&#160;&#160;&#160;&#160;&#160;&#160;&#160;</text>
<polygon fill="#00688b" stroke="#00688b" points="150.3,-604.5 150.3,-604.5 311.8,-604.5 311.8,-604.5 150.3,-604.5"/>
<path fill="none" stroke="#00688b" d="M162.3,-545.5C162.3,-545.5 299.8,-545.5 299.8,-545.5 305.8,-545.5 311.8,-551.5 311.8,-557.5 311.8,-557.5 311.8,-623 311.8,-623 311.8,-629 305.8,-635 299.8,-635 299.8,-635 162.3,-635 162.3,-635 156.3,-635 150.3,-629 150.3,-623 150.3,-623 150.3,-557.5 150.3,-557.5 150.3,-551.5 156.3,-545.5 162.3,-545.5"/>
</g>
<!-- Resetting&#45;&gt;Addressing -->
<g id="edge3" class="edge">
<title>Resetting&#45;&gt;Addressing</title>
<path fill="none" stroke="red" d="M216.58,-687.72C218.56,-674.55 220.75,-659.92 222.83,-646.11"/>
<polygon fill="red" stroke="red" points="226.28,-646.66 224.3,-636.25 219.36,-645.62 226.28,-646.66"/>
<text xml:space="preserve" text-anchor="middle" x="254.18" y="-656.2" font-family="Times,serif" font-size="14.00"> reset_done </text>
</g>
<!-- Failed -->
<g id="node11" class="node">
<title>Failed</title>
<path fill="azure" stroke="none" d="M403.68,-89.5C403.68,-89.5 340.43,-89.5 340.43,-89.5 334.43,-89.5 328.43,-83.5 328.43,-77.5 328.43,-77.5 328.43,-12 328.43,-12 328.43,-6 334.43,0 340.43,0 340.43,0 403.68,0 403.68,0 409.68,0 415.68,-6 415.68,-12 415.68,-12 415.68,-77.5 415.68,-77.5 415.68,-83.5 409.68,-89.5 403.68,-89.5"/>
<text xml:space="preserve" text-anchor="start" x="354.05" y="-69.2" font-family="Times,serif" font-weight="bold" font-size="14.00">Failed</text>
<text xml:space="preserve" text-anchor="start" x="336.43" y="-44" font-family="Times,serif" font-size="10.00">$&gt;()</text>
<text xml:space="preserve" text-anchor="start" x="336.43" y="-32.75" font-family="Times,serif" font-size="10.00">plug_in(port: int)</text>
<text xml:space="preserve" text-anchor="start" x="336.43" y="-21.5" font-family="Times,serif" font-size="10.00">status()</text>
<text xml:space="preserve" text-anchor="start" x="358.55" y="-10.25" font-family="Times,serif" font-size="10.00"> &#160;&#160;&#160;&#160;&#160;&#160;&#160;&#160;&#160;&#160;&#160;</text>
<polygon fill="#00688b" stroke="#00688b" points="328.43,-59 328.43,-59 415.68,-59 415.68,-59 328.43,-59"/>
<path fill="none" stroke="#00688b" d="M340.43,0C340.43,0 403.68,0 403.68,0 409.68,0 415.68,-6 415.68,-12 415.68,-12 415.68,-77.5 415.68,-77.5 415.68,-83.5 409.68,-89.5 403.68,-89.5 403.68,-89.5 340.43,-89.5 340.43,-89.5 334.43,-89.5 328.43,-83.5 328.43,-77.5 328.43,-77.5 328.43,-12 328.43,-12 328.43,-6 334.43,0 340.43,0"/>
</g>
<!-- Resetting&#45;&gt;Failed -->
<g id="edge5" class="edge">
<title>Resetting&#45;&gt;Failed</title>
<path fill="none" stroke="red" d="M269.92,-708.02C316.07,-685.75 372.05,-647.19 372.05,-591.25 372.05,-591.25 372.05,-591.25 372.05,-174.5 372.05,-150.22 372.05,-123.35 372.05,-100.48"/>
<polygon fill="red" stroke="red" points="375.55,-100.77 372.05,-90.77 368.55,-100.77 375.55,-100.77"/>
<text xml:space="preserve" text-anchor="middle" x="405.05" y="-372.2" font-family="Times,serif" font-size="14.00"> reset_done </text>
</g>
<!-- ReadingDescriptors -->
<g id="node6" class="node">
<title>ReadingDescriptors</title>
<path fill="azure" stroke="none" d="M331.93,-493C331.93,-493 162.18,-493 162.18,-493 156.18,-493 150.18,-487 150.18,-481 150.18,-481 150.18,-415.5 150.18,-415.5 150.18,-409.5 156.18,-403.5 162.18,-403.5 162.18,-403.5 331.93,-403.5 331.93,-403.5 337.93,-403.5 343.93,-409.5 343.93,-415.5 343.93,-415.5 343.93,-481 343.93,-481 343.93,-487 337.93,-493 331.93,-493"/>
<text xml:space="preserve" text-anchor="start" x="189.68" y="-472.7" font-family="Times,serif" font-weight="bold" font-size="14.00">ReadingDescriptors</text>
<text xml:space="preserve" text-anchor="start" x="158.18" y="-447.5" font-family="Times,serif" font-size="10.00">$&gt;()</text>
<text xml:space="preserve" text-anchor="start" x="158.18" y="-436.25" font-family="Times,serif" font-size="10.00">descriptors_read(success: bool, product: str)</text>
<text xml:space="preserve" text-anchor="start" x="158.18" y="-425" font-family="Times,serif" font-size="10.00">status()</text>
<text xml:space="preserve" text-anchor="start" x="229.05" y="-413.75" font-family="Times,serif" font-size="10.00"> &#160;&#160;&#160;&#160;&#160;&#160;&#160;&#160;&#160;&#160;&#160;&#160;&#160;&#160;&#160;</text>
<polygon fill="#00688b" stroke="#00688b" points="150.18,-462.5 150.18,-462.5 343.93,-462.5 343.93,-462.5 150.18,-462.5"/>
<path fill="none" stroke="#00688b" d="M162.18,-403.5C162.18,-403.5 331.93,-403.5 331.93,-403.5 337.93,-403.5 343.93,-409.5 343.93,-415.5 343.93,-415.5 343.93,-481 343.93,-481 343.93,-487 337.93,-493 331.93,-493 331.93,-493 162.18,-493 162.18,-493 156.18,-493 150.18,-487 150.18,-481 150.18,-481 150.18,-415.5 150.18,-415.5 150.18,-409.5 156.18,-403.5 162.18,-403.5"/>
</g>
<!-- Addressing&#45;&gt;ReadingDescriptors -->
<g id="edge6" class="edge">
<title>Addressing&#45;&gt;ReadingDescriptors</title>
<path fill="none" stroke="red" d="M236.03,-545.72C237.53,-532.55 239.21,-517.92 240.79,-504.11"/>
<polygon fill="red" stroke="red" points="244.25,-504.59 241.91,-494.26 237.3,-503.79 244.25,-504.59"/>
<text xml:space="preserve" text-anchor="middle" x="274.41" y="-514.2" font-family="Times,serif" font-size="14.00"> address_set </text>
</g>
<!-- UndoReset -->
<g id="node9" class="node">
<title>UndoReset</title>
<path fill="azure" stroke="none" d="M94.55,-209C94.55,-209 39.55,-209 39.55,-209 33.55,-209 27.55,-203 27.55,-197 27.55,-197 27.55,-154 27.55,-154 27.55,-148 33.55,-142 39.55,-142 39.55,-142 94.55,-142 94.55,-142 100.55,-142 106.55,-148 106.55,-154 106.55,-154 106.55,-197 106.55,-197 106.55,-203 100.55,-209 94.55,-209"/>
<text xml:space="preserve" text-anchor="start" x="35.55" y="-188.7" font-family="Times,serif" font-weight="bold" font-size="14.00">UndoReset</text>
<text xml:space="preserve" text-anchor="start" x="35.55" y="-163.5" font-family="Times,serif" font-size="10.00">$&gt;()</text>
<text xml:space="preserve" text-anchor="start" x="35.55" y="-152.25" font-family="Times,serif" font-size="10.00"> &#160;&#160;&#160;&#160;&#160;&#160;&#160;&#160;&#160;&#160;&#160;</text>
<polygon fill="#00688b" stroke="#00688b" points="27.55,-178.5 27.55,-178.5 106.55,-178.5 106.55,-178.5 27.55,-178.5"/>
<path fill="none" stroke="#00688b" d="M39.55,-142C39.55,-142 94.55,-142 94.55,-142 100.55,-142 106.55,-148 106.55,-154 106.55,-154 106.55,-197 106.55,-197 106.55,-203 100.55,-209 94.55,-209 94.55,-209 39.55,-209 39.55,-209 33.55,-209 27.55,-203 27.55,-197 27.55,-197 27.55,-154 27.55,-154 27.55,-148 33.55,-142 39.55,-142"/>
</g>
<!-- Addressing&#45;&gt;UndoReset -->
<g id="edge7" class="edge">
<title>Addressing&#45;&gt;UndoReset</title>
<path fill="none" stroke="red" d="M170.62,-545.65C117.12,-502.97 42.77,-432.6 11.05,-351 -4.64,-310.61 -2.35,-294.71 11.05,-253.5 15.13,-240.98 22.09,-228.79 29.74,-217.95"/>
<polygon fill="red" stroke="red" points="32.5,-220.1 35.69,-210 26.9,-215.91 32.5,-220.1"/>
<text xml:space="preserve" text-anchor="middle" x="61.49" y="-372.2" font-family="Times,serif" font-size="14.00"> address_set </text>
</g>
<!-- BindingDriver -->
<g id="node7" class="node">
<title>BindingDriver</title>
<path fill="azure" stroke="none" d="M331.8,-351C331.8,-351 224.3,-351 224.3,-351 218.3,-351 212.3,-345 212.3,-339 212.3,-339 212.3,-273.5 212.3,-273.5 212.3,-267.5 218.3,-261.5 224.3,-261.5 224.3,-261.5 331.8,-261.5 331.8,-261.5 337.8,-261.5 343.8,-267.5 343.8,-273.5 343.8,-273.5 343.8,-339 343.8,-339 343.8,-345 337.8,-351 331.8,-351"/>
<text xml:space="preserve" text-anchor="start" x="236.05" y="-330.7" font-family="Times,serif" font-weight="bold" font-size="14.00">BindingDriver</text>
<text xml:space="preserve" text-anchor="start" x="220.3" y="-305.5" font-family="Times,serif" font-size="10.00">$&gt;()</text>
<text xml:space="preserve" text-anchor="start" x="220.3" y="-294.25" font-family="Times,serif" font-size="10.00">driver_bound(success: bool)</text>
<text xml:space="preserve" text-anchor="start" x="220.3" y="-283" font-family="Times,serif" font-size="10.00">status()</text>
<text xml:space="preserve" text-anchor="start" x="260.05" y="-271.75" font-family="Times,serif" font-size="10.00"> &#160;&#160;&#160;&#160;&#160;&#160;&#160;&#160;&#160;&#160;&#160;&#160;&#160;&#160;&#160;</text>
<polygon fill="#00688b" stroke="#00688b" points="212.3,-320.5 212.3,-320.5 343.8,-320.5 343.8,-320.5 212.3,-320.5"/>
<path fill="none" stroke="#00688b" d="M224.3,-261.5C224.3,-261.5 331.8,-261.5 331.8,-261.5 337.8,-261.5 343.8,-267.5 343.8,-273.5 343.8,-273.5 343.8,-339 343.8,-339 343.8,-345 337.8,-351 331.8,-351 331.8,-351 224.3,-351 224.3,-351 218.3,-351 212.3,-345 212.3,-339 212.3,-339 212.3,-273.5 212.3,-273.5 212.3,-267.5 218.3,-261.5 224.3,-261.5"/>
</g>
<!-- ReadingDescriptors&#45;&gt;BindingDriver -->
<g id="edge8" class="edge">
<title>ReadingDescriptors&#45;&gt;BindingDriver</title>
<path fill="none" stroke="red" d="M248.19,-403.84C249.12,-392.4 250.69,-380.15 253.3,-369 253.87,-366.58 254.52,-364.13 255.23,-361.67"/>
<polygon fill="red" stroke="red" points="258.5,-362.95 258.22,-352.35 251.83,-360.81 258.5,-362.95"/>
<text xml:space="preserve" text-anchor="middle" x="301.68" y="-372.2" font-family="Times,serif" font-size="14.00"> descriptors_read </text>
</g>
<!-- UndoAddress -->
<g id="node8" class="node">
<title>UndoAddress</title>
<path fill="azure" stroke="none" d="M102.43,-339.75C102.43,-339.75 31.68,-339.75 31.68,-339.75 25.68,-339.75 19.68,-333.75 19.68,-327.75 19.68,-327.75 19.68,-284.75 19.68,-284.75 19.68,-278.75 25.68,-272.75 31.68,-272.75 31.68,-272.75 102.43,-272.75 102.43,-272.75 108.43,-272.75 114.43,-278.75 114.43,-284.75 114.43,-284.75 114.43,-327.75 114.43,-327.75 114.43,-333.75 108.43,-339.75 102.43,-339.75"/>
<text xml:space="preserve" text-anchor="start" x="27.68" y="-319.45" font-family="Times,serif" font-weight="bold" font-size="14.00">UndoAddress</text>
<text xml:space="preserve" text-anchor="start" x="27.68" y="-294.25" font-family="Times,serif" font-size="10.00">$&gt;()</text>
<text xml:space="preserve" text-anchor="start" x="27.68" y="-283" font-family="Times,serif" font-size="10.00"> &#160;&#160;&#160;&#160;&#160;&#160;&#160;&#160;&#160;&#160;&#160;</text>
<polygon fill="#00688b" stroke="#00688b" points="19.68,-309.25 19.68,-309.25 114.43,-309.25 114.43,-309.25 19.68,-309.25"/>
<path fill="none" stroke="#00688b" d="M31.68,-272.75C31.68,-272.75 102.43,-272.75 102.43,-272.75 108.43,-272.75 114.43,-278.75 114.43,-284.75 114.43,-284.75 114.43,-327.75 114.43,-327.75 114.43,-333.75 108.43,-339.75 102.43,-339.75 102.43,-339.75 31.68,-339.75 31.68,-339.75 25.68,-339.75 19.68,-333.75 19.68,-327.75 19.68,-327.75 19.68,-284.75 19.68,-284.75 19.68,-278.75 25.68,-272.75 31.68,-272.75"/>
</g>
<!-- ReadingDescriptors&#45;&gt;UndoAddress -->
<g id="edge9" class="edge">
<title>ReadingDescriptors&#45;&gt;UndoAddress</title>
<path fill="none" stroke="red" d="M174.41,-403.63C165.77,-397.78 157.22,-391.67 149.3,-385.5 134.5,-373.96 119.33,-360.18 106.11,-347.42"/>
<polygon fill="red" stroke="red" points="108.83,-345.19 99.23,-340.69 103.93,-350.19 108.83,-345.19"/>
<text xml:space="preserve" text-anchor="middle" x="197.68" y="-372.2" font-family="Times,serif" font-size="14.00"> descriptors_read </text>
</g>
<!-- BindingDriver&#45;&gt;UndoAddress -->
<g id="edge11" class="edge">
<title>BindingDriver&#45;&gt;UndoAddress</title>
<path fill="none" stroke="red" d="M212.46,-306.25C184.69,-306.25 152.59,-306.25 125.62,-306.25"/>
<polygon fill="red" stroke="red" points="125.92,-302.75 115.92,-306.25 125.92,-309.75 125.92,-302.75"/>
<text xml:space="preserve" text-anchor="middle" x="163.37" y="-312.45" font-family="Times,serif" font-size="14.00"> driver_bound </text>
</g>
<!-- Configured -->
<g id="node10" class="node">
<title>Configured</title>
<path fill="azure" stroke="none" d="M702.05,-777C702.05,-777 644.05,-777 644.05,-777 638.05,-777 632.05,-771 632.05,-765 632.05,-765 632.05,-699.5 632.05,-699.5 632.05,-693.5 638.05,-687.5 644.05,-687.5 644.05,-687.5 702.05,-687.5 702.05,-687.5 708.05,-687.5 714.05,-693.5 714.05,-699.5 714.05,-699.5 714.05,-765 714.05,-765 714.05,-771 708.05,-777 702.05,-777"/>
<text xml:space="preserve" text-anchor="start" x="640.05" y="-756.7" font-family="Times,serif" font-weight="bold" font-size="14.00">Configured</text>
<text xml:space="preserve" text-anchor="start" x="640.05" y="-731.5" font-family="Times,serif" font-size="10.00">$&gt;()</text>
<text xml:space="preserve" text-anchor="start" x="640.05" y="-720.25" font-family="Times,serif" font-size="10.00">unplug()</text>
<text xml:space="preserve" text-anchor="start" x="640.05" y="-709" font-family="Times,serif" font-size="10.00">status()</text>
<text xml:space="preserve" text-anchor="start" x="644.18" y="-697.75" font-family="Times,serif" font-size="10.00"> &#160;&#160;&#160;&#160;&#160;&#160;&#160;&#160;&#160;&#160;&#160;</text>
<polygon fill="#00688b" stroke="#00688b" points="632.05,-746.5 632.05,-746.5 714.05,-746.5 714.05,-746.5 632.05,-746.5"/>
<path fill="none" stroke="#00688b" d="M644.05,-687.5C644.05,-687.5 702.05,-687.5 702.05,-687.5 708.05,-687.5 714.05,-693.5 714.05,-699.5 714.05,-699.5 714.05,-765 714.05,-765 714.05,-771 708.05,-777 702.05,-777 702.05,-777 644.05,-777 644.05,-777 638.05,-777 632.05,-771 632.05,-765 632.05,-765 632.05,-699.5 632.05,-699.5 632.05,-693.5 638.05,-687.5 644.05,-687.5"/>
</g>
<!-- BindingDriver&#45;&gt;Configured -->
<g id="edge10" class="edge">
<title>BindingDriver&#45;&gt;Configured</title>
<path fill="none" stroke="red" d="M343.79,-310.92C394.73,-316.74 464.72,-331.55 514.05,-369 516.85,-371.12 656.64,-595.48 671.05,-653 672.92,-660.44 674.06,-668.4 674.7,-676.3"/>
<polygon fill="red" stroke="red" points="671.2,-676.43 675.24,-686.23 678.19,-676.06 671.2,-676.43"/>
<text xml:space="preserve" text-anchor="middle" x="648.81" y="-514.2" font-family="Times,serif" font-size="14.00"> driver_bound </text>
</g>
<!-- UndoAddress&#45;&gt;UndoReset -->
<g id="edge13" class="edge">
<title>UndoAddress&#45;&gt;UndoReset</title>
<path fill="none" stroke="red" d="M67.05,-272.76C67.05,-256.9 67.05,-237.59 67.05,-220.44"/>
<polygon fill="red" stroke="red" points="70.55,-220.49 67.05,-210.49 63.55,-220.49 70.55,-220.49"/>
<text xml:space="preserve" text-anchor="middle" x="78.3" y="-230.2" font-family="Times,serif" font-size="14.00"> $&gt; </text>
</g>
<!-- UndoReset&#45;&gt;Failed -->
<g id="edge14" class="edge">
<title>UndoReset&#45;&gt;Failed</title>
<path fill="none" stroke="red" d="M106.3,-157.93C160.18,-135.19 257.28,-94.2 318,-68.57"/>
<polygon fill="red" stroke="red" points="319.28,-71.83 327.13,-64.71 316.56,-65.38 319.28,-71.83"/>
<text xml:space="preserve" text-anchor="middle" x="230.8" y="-110.7" font-family="Times,serif" font-size="14.00"> $&gt; </text>
</g>
<!-- Configured&#45;&gt;Detached -->
<g id="edge15" class="edge">
<title>Configured&#45;&gt;Detached</title>
<path fill="none" stroke="red" d="M639.16,-687.72C626.83,-671.87 612.83,-653.9 600.3,-637.8"/>
<polygon fill="red" stroke="red" points="603.34,-636.01 594.43,-630.27 597.82,-640.31 603.34,-636.01"/>
<text xml:space="preserve" text-anchor="middle" x="644.32" y="-656.2" font-family="Times,serif" font-size="14.00"> unplug </text>
</g>
<!-- Failed&#45;&gt;Resetting -->
<g id="edge16" class="edge">
<title>Failed&#45;&gt;Resetting</title>
<path fill="none" stroke="red" d="M389.58,-89.38C413.37,-153.71 451.59,-278.01 439.05,-385.5 435.57,-415.4 444.48,-598.96 353.05,-669.5 331.61,-686.05 305.05,-699.1 280.66,-708.86"/>
<polygon fill="red" stroke="red" points="279.48,-705.56 271.41,-712.43 282,-712.09 279.48,-705.56"/>
<text xml:space="preserve" text-anchor="middle" x="464.88" y="-372.2" font-family="Times,serif" font-size="14.00"> plug_in </text>
</g>
</g>
</svg>
