<?xml version="1.0" encoding="UTF-8" standalone="no"?>
<!DOCTYPE svg PUBLIC "-//W3C//DTD SVG 1.1//EN"
 "http://www.w3.org/Graphics/SVG/1.1/DTD/svg11.dtd">
<!-- Generated by graphviz version 14.1.5 (20260411.2331)
 -->
<!-- Title: WatchdogDevice Pages: 1 -->
<svg width="150pt" height="455pt"
 viewBox="0.00 0.00 150.00 455.00" xmlns="http://www.w3.org/2000/svg" xmlns:xlink="http://www.w3.org/1999/xlink">
<g id="graph0" class="graph" transform="scale(1 1) rotate(0) translate(4 451.4)">
<title>WatchdogDevice</title>
<polygon fill="white" stroke="none" points="-4,4 -4,-451.4 145.5,-451.4 145.5,4 -4,4"/>
<!-- Entry -->
<g id="node1" class="node">
<title>Entry</title>
<ellipse fill="black" stroke="#00688b" cx="44.75" cy="-440.2" rx="7.2" ry="7.2"/>
</g>
<!-- Inactive -->
<g id="node2" class="node">
<title>Inactive</title>
<path fill="azure" stroke="none" d="M64,-396C64,-396 25.5,-396 25.5,-396 19.5,-396 13.5,-390 13.5,-384 13.5,-384 13.5,-329.75 13.5,-329.75 13.5,-323.75 19.5,-317.75 25.5,-317.75 25.5,-317.75 64,-317.75 64,-317.75 70,-317.75 76,-323.75 76,-329.75 76,-329.75 76,-384 76,-384 76,-390 70,-396 64,-396"/>
<text xml:space="preserve" text-anchor="start" x="21.5" y="-375.7" font-family="Times,serif" font-weight="bold" font-size="14.00">Inactive</text>
<text xml:space="preserve" text-anchor="start" x="21.5" y="-350.5" font-family="Times,serif" font-size="10.00">open()</text>
<text xml:space="preserve" text-anchor="start" x="21.5" y="-339.25" font-family="Times,serif" font-size="10.00">status()</text>
<text xml:space="preserve" text-anchor="start" x="22.62" y="-328" font-family="Times,serif" font-size="10.00"> &#160;&#160;&#160;&#160;&#160;&#160;&#160;&#160;&#160;&#160;&#160;</text>
<polygon fill="#00688b" stroke="#00688b" points="13.5,-365.5 13.5,-365.5 76,-365.5 76,-365.5 13.5,-365.5"/>
<path fill="none" stroke="#00688b" d="M25.5,-317.75C25.5,-317.75 64,-317.75 64,-317.75 70,-317.75 76,-323.75 76,-329.75 76,-329.75 76,-384 76,-384 76,-390 70,-396 64,-396 64,-396 25.5,-396 25.5,-396 19.5,-396 13.5,-390 13.5,-384 13.5,-384 13.5,-329.75 13.5,-329.75 13.5,-323.75 19.5,-317.75 25.5,-317.75"/>
</g>
<!-- Entry&#45;&gt;Inactive -->
<g id="edge1" class="edge">
<title>Entry&#45;&gt;Inactive</title>
<path fill="none" stroke="red" d="M44.75,-432.54C44.75,-426.53 44.75,-417.07 44.75,-406.88"/>
<polygon fill="red" stroke="red" points="48.25,-407.19 44.75,-397.19 41.25,-407.19 48.25,-407.19"/>
</g>
<!-- Armed -->
<g id="node3" class="node">
<title>Armed</title>
<path fill="azure" stroke="none" d="M77.5,-265.25C77.5,-265.25 12,-265.25 12,-265.25 6,-265.25 0,-259.25 0,-253.25 0,-253.25 0,-142.75 0,-142.75 0,-136.75 6,-130.75 12,-130.75 12,-130.75 77.5,-130.75 77.5,-130.75 83.5,-130.75 89.5,-136.75 89.5,-142.75 89.5,-142.75 89.5,-253.25 89.5,-253.25 89.5,-259.25 83.5,-265.25 77.5,-265.25"/>
<text xml:space="preserve" text-anchor="start" x="24.12" y="-244.95" font-family="Times,serif" font-weight="bold" font-size="14.00">Armed</text>
<text xml:space="preserve" text-anchor="start" x="8" y="-219.75" font-family="Times,serif" font-size="10.00">$&gt;()</text>
<text xml:space="preserve" text-anchor="start" x="8" y="-208.5" font-family="Times,serif" font-size="10.00">&lt;$()</text>
<text xml:space="preserve" text-anchor="start" x="8" y="-197.25" font-family="Times,serif" font-size="10.00">ping()</text>
<text xml:space="preserve" text-anchor="start" x="8" y="-186" font-family="Times,serif" font-size="10.00">write(data: str)</text>
<text xml:space="preserve" text-anchor="start" x="8" y="-174.75" font-family="Times,serif" font-size="10.00">close()</text>
<text xml:space="preserve" text-anchor="start" x="8" y="-163.5" font-family="Times,serif" font-size="10.00">timeout_expired()</text>
<text xml:space="preserve" text-anchor="start" x="8" y="-152.25" font-family="Times,serif" font-size="10.00">status()</text>
<text xml:space="preserve" text-anchor="start" x="31.25" y="-141" font-family="Times,serif" font-size="10.00"> &#160;&#160;&#160;&#160;&#160;&#160;&#160;&#160;&#160;&#160;&#160;</text>
<polygon fill="#00688b" stroke="#00688b" points="0,-234.75 0,-234.75 89.5,-234.75 89.5,-234.75 0,-234.75"/>
<path fill="none" stroke="#00688b" d="M12,-130.75C12,-130.75 77.5,-130.75 77.5,-130.75 83.5,-130.75 89.5,-136.75 89.5,-142.75 89.5,-142.75 89.5,-253.25 89.5,-253.25 89.5,-259.25 83.5,-265.25 77.5,-265.25 77.5,-265.25 12,-265.25 12,-265.25 6,-265.25 0,-259.25 0,-253.25 0,-253.25 0,-142.75 0,-142.75 0,-136.75 6,-130.75 12,-130.75"/>
</g>
<!-- Inactive&#45;&gt;Armed -->
<g id="edge2" class="edge">
<title>Inactive&#45;&gt;Armed</title>
<path fill="none" stroke="red" d="M23.98,-318.05C21.51,-312.08 19.38,-305.86 18,-299.75 16.3,-292.22 15.9,-284.4 16.43,-276.6"/>
<polygon fill="red" stroke="red" points="19.9,-277.07 17.64,-266.72 12.95,-276.22 19.9,-277.07"/>
<text xml:space="preserve" text-anchor="middle" x="34.88" y="-286.45" font-family="Times,serif" font-size="14.00"> open </text>
</g>
<!-- Armed&#45;&gt;Inactive -->
<g id="edge3" class="edge">
<title>Armed&#45;&gt;Inactive</title>
<path fill="none" stroke="red" d="M51.83,-265.11C52.36,-276.65 52.45,-288.55 51.75,-299.75 51.61,-301.96 51.45,-304.21 51.26,-306.48"/>
<polygon fill="red" stroke="red" points="47.78,-306.09 50.28,-316.39 54.74,-306.78 47.78,-306.09"/>
<text xml:space="preserve" text-anchor="middle" x="69.87" y="-286.45" font-family="Times,serif" font-size="14.00"> close </text>
</g>
<!-- Triggered -->
<g id="node4" class="node">
<title>Triggered</title>
<path fill="azure" stroke="none" d="M69.62,-78.25C69.62,-78.25 19.88,-78.25 19.88,-78.25 13.88,-78.25 7.88,-72.25 7.88,-66.25 7.88,-66.25 7.88,-12 7.88,-12 7.88,-6 13.88,0 19.88,0 19.88,0 69.62,0 69.62,0 75.62,0 81.62,-6 81.62,-12 81.62,-12 81.62,-66.25 81.62,-66.25 81.62,-72.25 75.62,-78.25 69.62,-78.25"/>
<text xml:space="preserve" text-anchor="start" x="15.88" y="-57.95" font-family="Times,serif" font-weight="bold" font-size="14.00">Triggered</text>
<text xml:space="preserve" text-anchor="start" x="15.88" y="-32.75" font-family="Times,serif" font-size="10.00">$&gt;()</text>
<text xml:space="preserve" text-anchor="start" x="15.88" y="-21.5" font-family="Times,serif" font-size="10.00">status()</text>
<text xml:space="preserve" text-anchor="start" x="17" y="-10.25" font-family="Times,serif" font-size="10.00"> &#160;&#160;&#160;&#160;&#160;&#160;&#160;&#160;&#160;&#160;&#160;</text>
<polygon fill="#00688b" stroke="#00688b" points="7.88,-47.75 7.88,-47.75 81.62,-47.75 81.62,-47.75 7.88,-47.75"/>
<path fill="none" stroke="#00688b" d="M19.88,0C19.88,0 69.62,0 69.62,0 75.62,0 81.62,-6 81.62,-12 81.62,-12 81.62,-66.25 81.62,-66.25 81.62,-72.25 75.62,-78.25 69.62,-78.25 69.62,-78.25 19.88,-78.25 19.88,-78.25 13.88,-78.25 7.88,-72.25 7.88,-66.25 7.88,-66.25 7.88,-12 7.88,-12 7.88,-6 13.88,0 19.88,0"/>
</g>
<!-- Armed&#45;&gt;Triggered -->
<g id="edge4" class="edge">
<title>Armed&#45;&gt;Triggered</title>
<path fill="none" stroke="red" d="M44.75,-130.93C44.75,-116.94 44.75,-102.41 44.75,-89.18"/>
<polygon fill="red" stroke="red" points="48.25,-89.46 44.75,-79.46 41.25,-89.46 48.25,-89.46"/>
<text xml:space="preserve" text-anchor="middle" x="93.12" y="-99.45" font-family="Times,serif" font-size="14.00"> timeout_expired </text>
</g>
</g>
</svg>
