<?xml version="1.0" encoding="UTF-8" standalone="no"?>
<!DOCTYPE svg PUBLIC "-//W3C//DTD SVG 1.1//EN"
 "http://www.w3.org/Graphics/SVG/1.1/DTD/svg11.dtd">
<!-- Generated by graphviz version 14.1.5 (20260411.2331)
 -->
<!-- Title: OomKiller Pages: 1 -->
<svg width="249pt" height="422pt"
 viewBox="0.00 0.00 249.00 422.00" xmlns="http://www.w3.org/2000/svg" xmlns:xlink="http://www.w3.org/1999/xlink">
<g id="graph0" class="graph" transform="scale(1 1) rotate(0) translate(4 417.65)">
<title>OomKiller</title>
<polygon fill="white" stroke="none" points="-4,4 -4,-417.65 245.22,-417.65 245.22,4 -4,4"/>
<!-- Entry -->
<g id="node1" class="node">
<title>Entry</title>
<ellipse fill="black" stroke="#00688b" cx="105" cy="-406.45" rx="7.2" ry="7.2"/>
</g>
<!-- Normal -->
<g id="node2" class="node">
<title>Normal</title>
<path fill="azure" stroke="none" d="M160.25,-362.25C160.25,-362.25 49.75,-362.25 49.75,-362.25 43.75,-362.25 37.75,-356.25 37.75,-350.25 37.75,-350.25 37.75,-296 37.75,-296 37.75,-290 43.75,-284 49.75,-284 49.75,-284 160.25,-284 160.25,-284 166.25,-284 172.25,-290 172.25,-296 172.25,-296 172.25,-350.25 172.25,-350.25 172.25,-356.25 166.25,-362.25 160.25,-362.25"/>
<text xml:space="preserve" text-anchor="start" x="82.5" y="-341.95" font-family="Times,serif" font-weight="bold" font-size="14.00">Normal</text>
<text xml:space="preserve" text-anchor="start" x="45.75" y="-316.75" font-family="Times,serif" font-size="10.00">oom_detected(gfp_flags: int)</text>
<text xml:space="preserve" text-anchor="start" x="45.75" y="-305.5" font-family="Times,serif" font-size="10.00">status()</text>
<text xml:space="preserve" text-anchor="start" x="91.5" y="-294.25" font-family="Times,serif" font-size="10.00"> &#160;&#160;&#160;&#160;&#160;&#160;&#160;&#160;&#160;&#160;&#160;</text>
<polygon fill="#00688b" stroke="#00688b" points="37.75,-331.75 37.75,-331.75 172.25,-331.75 172.25,-331.75 37.75,-331.75"/>
<path fill="none" stroke="#00688b" d="M49.75,-284C49.75,-284 160.25,-284 160.25,-284 166.25,-284 172.25,-290 172.25,-296 172.25,-296 172.25,-350.25 172.25,-350.25 172.25,-356.25 166.25,-362.25 160.25,-362.25 160.25,-362.25 49.75,-362.25 49.75,-362.25 43.75,-362.25 37.75,-356.25 37.75,-350.25 37.75,-350.25 37.75,-296 37.75,-296 37.75,-290 43.75,-284 49.75,-284"/>
</g>
<!-- Entry&#45;&gt;Normal -->
<g id="edge1" class="edge">
<title>Entry&#45;&gt;Normal</title>
<path fill="none" stroke="red" d="M105,-398.79C105,-392.78 105,-383.32 105,-373.13"/>
<polygon fill="red" stroke="red" points="108.5,-373.44 105,-363.44 101.5,-373.44 108.5,-373.44"/>
</g>
<!-- Selecting -->
<g id="node3" class="node">
<title>Selecting</title>
<path fill="azure" stroke="none" d="M77.88,-231.5C77.88,-231.5 34.12,-231.5 34.12,-231.5 28.12,-231.5 22.12,-225.5 22.12,-219.5 22.12,-219.5 22.12,-165.25 22.12,-165.25 22.12,-159.25 28.12,-153.25 34.12,-153.25 34.12,-153.25 77.88,-153.25 77.88,-153.25 83.88,-153.25 89.88,-159.25 89.88,-165.25 89.88,-165.25 89.88,-219.5 89.88,-219.5 89.88,-225.5 83.88,-231.5 77.88,-231.5"/>
<text xml:space="preserve" text-anchor="start" x="30.12" y="-211.2" font-family="Times,serif" font-weight="bold" font-size="14.00">Selecting</text>
<text xml:space="preserve" text-anchor="start" x="30.12" y="-186" font-family="Times,serif" font-size="10.00">$&gt;()</text>
<text xml:space="preserve" text-anchor="start" x="30.12" y="-174.75" font-family="Times,serif" font-size="10.00">status()</text>
<text xml:space="preserve" text-anchor="start" x="31.25" y="-163.5" font-family="Times,serif" font-size="10.00"> &#160;&#160;&#160;&#160;&#160;&#160;&#160;&#160;&#160;&#160;&#160;</text>
<polygon fill="#00688b" stroke="#00688b" points="22.12,-201 22.12,-201 89.88,-201 89.88,-201 22.12,-201"/>
<path fill="none" stroke="#00688b" d="M34.12,-153.25C34.12,-153.25 77.88,-153.25 77.88,-153.25 83.88,-153.25 89.88,-159.25 89.88,-165.25 89.88,-165.25 89.88,-219.5 89.88,-219.5 89.88,-225.5 83.88,-231.5 77.88,-231.5 77.88,-231.5 34.12,-231.5 34.12,-231.5 28.12,-231.5 22.12,-225.5 22.12,-219.5 22.12,-219.5 22.12,-165.25 22.12,-165.25 22.12,-159.25 28.12,-153.25 34.12,-153.25"/>
</g>
<!-- Normal&#45;&gt;Selecting -->
<g id="edge2" class="edge">
<title>Normal&#45;&gt;Selecting</title>
<path fill="none" stroke="red" d="M66.84,-284.21C62.86,-278.49 59.4,-272.36 57,-266 54.22,-258.62 52.73,-250.52 52.08,-242.48"/>
<polygon fill="red" stroke="red" points="55.59,-242.61 51.72,-232.75 48.6,-242.87 55.59,-242.61"/>
<text xml:space="preserve" text-anchor="middle" x="99" y="-252.7" font-family="Times,serif" font-size="14.00"> oom_detected </text>
</g>
<!-- Killing -->
<g id="node4" class="node">
<title>Killing</title>
<path fill="azure" stroke="none" d="M226,-100.75C226,-100.75 84,-100.75 84,-100.75 78,-100.75 72,-94.75 72,-88.75 72,-88.75 72,-12 72,-12 72,-6 78,0 84,0 84,0 226,0 226,0 232,0 238,-6 238,-12 238,-12 238,-88.75 238,-88.75 238,-94.75 232,-100.75 226,-100.75"/>
<text xml:space="preserve" text-anchor="start" x="134.75" y="-80.45" font-family="Times,serif" font-weight="bold" font-size="14.00">Killing</text>
<text xml:space="preserve" text-anchor="start" x="80" y="-55.25" font-family="Times,serif" font-size="10.00">$&gt;()</text>
<text xml:space="preserve" text-anchor="start" x="80" y="-44" font-family="Times,serif" font-size="10.00">&lt;$()</text>
<text xml:space="preserve" text-anchor="start" x="80" y="-32.75" font-family="Times,serif" font-size="10.00">victim_exited(pid: int, freed_kb: int)</text>
<text xml:space="preserve" text-anchor="start" x="80" y="-21.5" font-family="Times,serif" font-size="10.00">status()</text>
<text xml:space="preserve" text-anchor="start" x="141.5" y="-10.25" font-family="Times,serif" font-size="10.00"> &#160;&#160;&#160;&#160;&#160;&#160;&#160;&#160;&#160;&#160;&#160;</text>
<polygon fill="#00688b" stroke="#00688b" points="72,-70.25 72,-70.25 238,-70.25 238,-70.25 72,-70.25"/>
<path fill="none" stroke="#00688b" d="M84,0C84,0 226,0 226,0 232,0 238,-6 238,-12 238,-12 238,-88.75 238,-88.75 238,-94.75 232,-100.75 226,-100.75 226,-100.75 84,-100.75 84,-100.75 78,-100.75 72,-94.75 72,-88.75 72,-88.75 72,-12 72,-12 72,-6 78,0 84,0"/>
</g>
<!-- Selecting&#45;&gt;Killing -->
<g id="edge4" class="edge">
<title>Selecting&#45;&gt;Killing</title>
<path fill="none" stroke="red" d="M82.79,-153.49C92.32,-140.01 103.29,-124.5 113.75,-109.71"/>
<polygon fill="red" stroke="red" points="116.39,-112.04 119.31,-101.85 110.67,-108 116.39,-112.04"/>
<text xml:space="preserve" text-anchor="middle" x="116.75" y="-121.95" font-family="Times,serif" font-size="14.00"> $&gt; </text>
</g>
<!-- Panic -->
<g id="node5" class="node">
<title>Panic</title>
<path fill="azure" stroke="none" d="M42,-89.5C42,-89.5 12,-89.5 12,-89.5 6,-89.5 0,-83.5 0,-77.5 0,-77.5 0,-23.25 0,-23.25 0,-17.25 6,-11.25 12,-11.25 12,-11.25 42,-11.25 42,-11.25 48,-11.25 54,-17.25 54,-23.25 54,-23.25 54,-77.5 54,-77.5 54,-83.5 48,-89.5 42,-89.5"/>
<text xml:space="preserve" text-anchor="start" x="10.88" y="-69.2" font-family="Times,serif" font-weight="bold" font-size="14.00">Panic</text>
<text xml:space="preserve" text-anchor="start" x="10.88" y="-44" font-family="Times,serif" font-size="10.00">$&gt;()</text>
<text xml:space="preserve" text-anchor="start" x="10.88" y="-32.75" font-family="Times,serif" font-size="10.00">status()</text>
<text xml:space="preserve" text-anchor="start" x="12" y="-21.5" font-family="Times,serif" font-size="10.00"> &#160;&#160;&#160;&#160;&#160;&#160;&#160;&#160;&#160;&#160;&#160;</text>
<polygon fill="#00688b" stroke="#00688b" points="2.88,-59 2.88,-59 51.12,-59 51.12,-59 2.88,-59"/>
<path fill="none" stroke="#00688b" d="M14.88,-11.25C14.88,-11.25 39.12,-11.25 39.12,-11.25 45.12,-11.25 51.12,-17.25 51.12,-23.25 51.12,-23.25 51.12,-77.5 51.12,-77.5 51.12,-83.5 45.12,-89.5 39.12,-89.5 39.12,-89.5 14.88,-89.5 14.88,-89.5 8.88,-89.5 2.88,-83.5 2.88,-77.5 2.88,-77.5 2.88,-23.25 2.88,-23.25 2.88,-17.25 8.88,-11.25 14.88,-11.25"/>
</g>
<!-- Selecting&#45;&gt;Panic -->
<g id="edge3" class="edge">
<title>Selecting&#45;&gt;Panic</title>
<path fill="none" stroke="red" d="M48.15,-153.49C44.77,-137.15 40.76,-117.82 37.16,-100.41"/>
<polygon fill="red" stroke="red" points="40.62,-99.86 35.16,-90.77 33.76,-101.28 40.62,-99.86"/>
<text xml:space="preserve" text-anchor="middle" x="55.35" y="-121.95" font-family="Times,serif" font-size="14.00"> $&gt; </text>
</g>
<!-- Killing&#45;&gt;Normal -->
<g id="edge5" class="edge">
<title>Killing&#45;&gt;Normal</title>
<path fill="none" stroke="red" d="M158.66,-100.42C160.38,-144.8 158.97,-211.37 141,-266 140.11,-268.69 139.07,-271.39 137.9,-274.05"/>
<polygon fill="red" stroke="red" points="134.87,-272.29 133.55,-282.8 141.14,-275.41 134.87,-272.29"/>
<text xml:space="preserve" text-anchor="middle" x="199.97" y="-187.32" font-family="Times,serif" font-size="14.00"> victim_exited </text>
</g>
</g>
</svg>
