<?xml version="1.0" encoding="UTF-8" standalone="no"?>
<!DOCTYPE svg PUBLIC "-//W3C//DTD SVG 1.1//EN"
 "http://www.w3.org/Graphics/SVG/1.1/DTD/svg11.dtd">
<!-- Generated by graphviz version 14.1.5 (20260411.2331)
 -->
<!-- Title: Filesystem Pages: 1 -->
<svg width="306pt" height="487pt"
 viewBox="0.00 0.00 306.00 487.00" xmlns="http://www.w3.org/2000/svg" xmlns:xlink="http://www.w3.org/1999/xlink">
<g id="graph0" class="graph" transform="scale(1 1) rotate(0) translate(4 483.25)">
<title>Filesystem</title>
<polygon fill="white" stroke="none" points="-4,4 -4,-483.25 302.2,-483.25 302.2,4 -4,4"/>
<g id="clust1" class="cluster">
<title>cluster_Mounted</title>
<path fill="none" stroke="black" d="M20,-8C20,-8 155,-8 155,-8 161,-8 167,-14 167,-20 167,-20 167,-459.25 167,-459.25 167,-465.25 161,-471.25 155,-471.25 155,-471.25 20,-471.25 20,-471.25 14,-471.25 8,-465.25 8,-459.25 8,-459.25 8,-20 8,-20 8,-14 14,-8 20,-8"/>
<text xml:space="preserve" text-anchor="start" x="62.75" y="-450.5" font-family="Times,serif" font-size="14.00">Mounted</text>
<polygon fill="black" stroke="black" points="58.75,-443.75 58.75,-443.75 116.25,-443.75 116.25,-443.75 58.75,-443.75"/>
</g>
<g id="clust2" class="cluster">
<title>cluster_Readable</title>
<path fill="none" stroke="black" d="M28,-138.75C28,-138.75 114,-138.75 114,-138.75 120,-138.75 126,-144.75 126,-150.75 126,-150.75 126,-412.75 126,-412.75 126,-418.75 120,-424.75 114,-424.75 114,-424.75 28,-424.75 28,-424.75 22,-424.75 16,-418.75 16,-412.75 16,-412.75 16,-150.75 16,-150.75 16,-144.75 22,-138.75 28,-138.75"/>
<text xml:space="preserve" text-anchor="start" x="45.88" y="-404" font-family="Times,serif" font-size="14.00">Readable</text>
<polygon fill="black" stroke="black" points="41.88,-397.25 41.88,-397.25 100.12,-397.25 100.12,-397.25 41.88,-397.25"/>
</g>
<!-- Entry -->
<g id="node1" class="node">
<title>Entry</title>
<ellipse fill="black" stroke="#00688b" cx="291" cy="-191.5" rx="7.2" ry="7.2"/>
</g>
<!-- Unmounted -->
<g id="node2" class="node">
<title>Unmounted</title>
<path fill="azure" stroke="none" d="M259.12,-94.25C259.12,-94.25 192.88,-94.25 192.88,-94.25 186.88,-94.25 180.88,-88.25 180.88,-82.25 180.88,-82.25 180.88,-28 180.88,-28 180.88,-22 186.88,-16 192.88,-16 192.88,-16 259.12,-16 259.12,-16 265.12,-16 271.12,-22 271.12,-28 271.12,-28 271.12,-82.25 271.12,-82.25 271.12,-88.25 265.12,-94.25 259.12,-94.25"/>
<text xml:space="preserve" text-anchor="start" x="191.5" y="-73.95" font-family="Times,serif" font-weight="bold" font-size="14.00">Unmounted</text>
<text xml:space="preserve" text-anchor="start" x="188.88" y="-48.75" font-family="Times,serif" font-size="10.00">mount(device: str)</text>
<text xml:space="preserve" text-anchor="start" x="188.88" y="-37.5" font-family="Times,serif" font-size="10.00">status()</text>
<text xml:space="preserve" text-anchor="start" x="212.5" y="-26.25" font-family="Times,serif" font-size="10.00"> &#160;&#160;&#160;&#160;&#160;&#160;&#160;&#160;&#160;&#160;&#160;</text>
<polygon fill="#00688b" stroke="#00688b" points="180.88,-63.75 180.88,-63.75 271.12,-63.75 271.12,-63.75 180.88,-63.75"/>
<path fill="none" stroke="#00688b" d="M192.88,-16C192.88,-16 259.12,-16 259.12,-16 265.12,-16 271.12,-22 271.12,-28 271.12,-28 271.12,-82.25 271.12,-82.25 271.12,-88.25 265.12,-94.25 259.12,-94.25 259.12,-94.25 192.88,-94.25 192.88,-94.25 186.88,-94.25 180.88,-88.25 180.88,-82.25 180.88,-82.25 180.88,-28 180.88,-28 180.88,-22 186.88,-16 192.88,-16"/>
</g>
<!-- Entry&#45;&gt;Unmounted -->
<g id="edge1" class="edge">
<title>Entry&#45;&gt;Unmounted</title>
<path fill="none" stroke="red" d="M289.5,-183.95C287.1,-173.95 281.94,-154.39 275,-138.75 269.82,-127.08 263.36,-115 256.84,-103.79"/>
<polygon fill="red" stroke="red" points="260.03,-102.31 251.9,-95.51 254.01,-105.89 260.03,-102.31"/>
</g>
<!-- Active -->
<g id="node6" class="node">
<title>Active</title>
<path fill="azure" stroke="none" d="M87.62,-236.25C87.62,-236.25 36.37,-236.25 36.37,-236.25 30.38,-236.25 24.38,-230.25 24.38,-224.25 24.38,-224.25 24.38,-158.75 24.38,-158.75 24.38,-152.75 30.38,-146.75 36.38,-146.75 36.38,-146.75 87.62,-146.75 87.62,-146.75 93.62,-146.75 99.62,-152.75 99.62,-158.75 99.62,-158.75 99.62,-224.25 99.62,-224.25 99.62,-230.25 93.62,-236.25 87.62,-236.25"/>
<text xml:space="preserve" text-anchor="start" x="43.62" y="-215.95" font-family="Times,serif" font-weight="bold" font-size="14.00">Active</text>
<text xml:space="preserve" text-anchor="start" x="32.38" y="-190.75" font-family="Times,serif" font-size="10.00">write(data: str)</text>
<text xml:space="preserve" text-anchor="start" x="32.38" y="-179.5" font-family="Times,serif" font-size="10.00">freeze()</text>
<text xml:space="preserve" text-anchor="start" x="32.38" y="-168.25" font-family="Times,serif" font-size="10.00">status()</text>
<text xml:space="preserve" text-anchor="start" x="39.5" y="-157" font-family="Times,serif" font-size="10.00"> &#160;&#160;&#160;&#160;&#160;&#160;&#160;&#160;&#160;&#160;&#160;&#160;&#160;&#160;&#160;&#160;&#160;&#160;&#160;</text>
<polygon fill="#00688b" stroke="#00688b" points="24.38,-205.75 24.38,-205.75 99.62,-205.75 99.62,-205.75 24.38,-205.75"/>
<path fill="none" stroke="#00688b" d="M36.38,-146.75C36.38,-146.75 87.62,-146.75 87.62,-146.75 93.62,-146.75 99.62,-152.75 99.62,-158.75 99.62,-158.75 99.62,-224.25 99.62,-224.25 99.62,-230.25 93.62,-236.25 87.62,-236.25 87.62,-236.25 36.37,-236.25 36.37,-236.25 30.38,-236.25 24.38,-230.25 24.38,-224.25 24.38,-224.25 24.38,-158.75 24.38,-158.75 24.38,-152.75 30.38,-146.75 36.38,-146.75"/>
</g>
<!-- Unmounted&#45;&gt;Active -->
<g id="edge2" class="edge">
<title>Unmounted&#45;&gt;Active</title>
<path fill="none" stroke="red" d="M186.85,-94.19C172.41,-106.61 155.32,-119.56 138,-128.75 124.09,-136.14 117.11,-130.02 104,-138.75 103.55,-139.05 103.11,-139.35 102.67,-139.66"/>
<polygon fill="red" stroke="red" points="100.51,-136.9 94.97,-145.93 104.93,-142.33 100.51,-136.9"/>
<text xml:space="preserve" text-anchor="middle" x="183.17" y="-115.45" font-family="Times,serif" font-size="14.00"> mount </text>
</g>
<!-- Mounted -->
<g id="node3" class="node">
<title>Mounted</title>
<ellipse fill="azure" stroke="#00688b" cx="159" cy="-333.5" rx="0.36" ry="0.36"/>
</g>
<!-- Unmounting -->
<g id="node8" class="node">
<title>Unmounting</title>
<path fill="azure" stroke="none" d="M253.75,-225C253.75,-225 188.25,-225 188.25,-225 182.25,-225 176.25,-219 176.25,-213 176.25,-213 176.25,-170 176.25,-170 176.25,-164 182.25,-158 188.25,-158 188.25,-158 253.75,-158 253.75,-158 259.75,-158 265.75,-164 265.75,-170 265.75,-170 265.75,-213 265.75,-213 265.75,-219 259.75,-225 253.75,-225"/>
<text xml:space="preserve" text-anchor="start" x="184.25" y="-204.7" font-family="Times,serif" font-weight="bold" font-size="14.00">Unmounting</text>
<text xml:space="preserve" text-anchor="start" x="184.25" y="-179.5" font-family="Times,serif" font-size="10.00">$&gt;()</text>
<text xml:space="preserve" text-anchor="start" x="184.25" y="-168.25" font-family="Times,serif" font-size="10.00"> &#160;&#160;&#160;&#160;&#160;&#160;&#160;&#160;&#160;&#160;&#160;</text>
<polygon fill="#00688b" stroke="#00688b" points="176.25,-194.5 176.25,-194.5 265.75,-194.5 265.75,-194.5 176.25,-194.5"/>
<path fill="none" stroke="#00688b" d="M188.25,-158C188.25,-158 253.75,-158 253.75,-158 259.75,-158 265.75,-164 265.75,-170 265.75,-170 265.75,-213 265.75,-213 265.75,-219 259.75,-225 253.75,-225 253.75,-225 188.25,-225 188.25,-225 182.25,-225 176.25,-219 176.25,-213 176.25,-213 176.25,-170 176.25,-170 176.25,-164 182.25,-158 188.25,-158"/>
</g>
<!-- Mounted&#45;&gt;Unmounting -->
<g id="edge6" class="edge">
<title>Mounted&#45;&gt;Unmounting</title>
<path fill="none" stroke="red" d="M167,-314.45C175.82,-294.51 190.34,-261.72 202.11,-235.16"/>
<polygon fill="red" stroke="red" points="205.24,-236.73 206.09,-226.17 198.84,-233.89 205.24,-236.73"/>
<text xml:space="preserve" text-anchor="middle" x="219.98" y="-257.45" font-family="Times,serif" font-size="14.00"> unmount </text>
</g>
<!-- Freezing -->
<g id="node4" class="node">
<title>Freezing</title>
<path fill="azure" stroke="none" d="M128.12,-94.25C128.12,-94.25 85.88,-94.25 85.88,-94.25 79.88,-94.25 73.88,-88.25 73.88,-82.25 73.88,-82.25 73.88,-28 73.88,-28 73.88,-22 79.88,-16 85.88,-16 85.88,-16 128.12,-16 128.12,-16 134.12,-16 140.12,-22 140.12,-28 140.12,-28 140.12,-82.25 140.12,-82.25 140.12,-88.25 134.12,-94.25 128.12,-94.25"/>
<text xml:space="preserve" text-anchor="start" x="81.88" y="-73.95" font-family="Times,serif" font-weight="bold" font-size="14.00">Freezing</text>
<text xml:space="preserve" text-anchor="start" x="81.88" y="-48.75" font-family="Times,serif" font-size="10.00">$&gt;()</text>
<text xml:space="preserve" text-anchor="start" x="81.88" y="-37.5" font-family="Times,serif" font-size="10.00">status()</text>
<text xml:space="preserve" text-anchor="start" x="81.88" y="-26.25" font-family="Times,serif" font-size="10.00"> &#160;&#160;&#160;&#160;&#160;&#160;&#160;&#160;&#160;&#160;&#160;&#160;&#160;&#160;&#160;</text>
<polygon fill="#00688b" stroke="#00688b" points="73.88,-63.75 73.88,-63.75 140.12,-63.75 140.12,-63.75 73.88,-63.75"/>
<path fill="none" stroke="#00688b" d="M85.88,-16C85.88,-16 128.12,-16 128.12,-16 134.12,-16 140.12,-22 140.12,-28 140.12,-28 140.12,-82.25 140.12,-82.25 140.12,-88.25 134.12,-94.25 128.12,-94.25 128.12,-94.25 85.88,-94.25 85.88,-94.25 79.88,-94.25 73.88,-88.25 73.88,-82.25 73.88,-82.25 73.88,-28 73.88,-28 73.88,-22 79.88,-16 85.88,-16"/>
</g>
<!-- Frozen -->
<g id="node7" class="node">
<title>Frozen</title>
<path fill="azure" stroke="none" d="M105.62,-378.25C105.62,-378.25 54.37,-378.25 54.37,-378.25 48.38,-378.25 42.38,-372.25 42.38,-366.25 42.38,-366.25 42.38,-300.75 42.38,-300.75 42.38,-294.75 48.38,-288.75 54.38,-288.75 54.38,-288.75 105.62,-288.75 105.62,-288.75 111.62,-288.75 117.62,-294.75 117.62,-300.75 117.62,-300.75 117.62,-366.25 117.62,-366.25 117.62,-372.25 111.62,-378.25 105.62,-378.25"/>
<text xml:space="preserve" text-anchor="start" x="59.75" y="-357.95" font-family="Times,serif" font-weight="bold" font-size="14.00">Frozen</text>
<text xml:space="preserve" text-anchor="start" x="50.38" y="-332.75" font-family="Times,serif" font-size="10.00">write(data: str)</text>
<text xml:space="preserve" text-anchor="start" x="50.38" y="-321.5" font-family="Times,serif" font-size="10.00">thaw()</text>
<text xml:space="preserve" text-anchor="start" x="50.38" y="-310.25" font-family="Times,serif" font-size="10.00">status()</text>
<text xml:space="preserve" text-anchor="start" x="57.5" y="-299" font-family="Times,serif" font-size="10.00"> &#160;&#160;&#160;&#160;&#160;&#160;&#160;&#160;&#160;&#160;&#160;&#160;&#160;&#160;&#160;&#160;&#160;&#160;&#160;</text>
<polygon fill="#00688b" stroke="#00688b" points="42.38,-347.75 42.38,-347.75 117.62,-347.75 117.62,-347.75 42.38,-347.75"/>
<path fill="none" stroke="#00688b" d="M54.38,-288.75C54.38,-288.75 105.62,-288.75 105.62,-288.75 111.62,-288.75 117.62,-294.75 117.62,-300.75 117.62,-300.75 117.62,-366.25 117.62,-366.25 117.62,-372.25 111.62,-378.25 105.62,-378.25 105.62,-378.25 54.37,-378.25 54.37,-378.25 48.38,-378.25 42.38,-372.25 42.38,-366.25 42.38,-366.25 42.38,-300.75 42.38,-300.75 42.38,-294.75 48.38,-288.75 54.38,-288.75"/>
</g>
<!-- Freezing&#45;&gt;Frozen -->
<g id="edge4" class="edge">
<title>Freezing&#45;&gt;Frozen</title>
<path fill="none" stroke="red" d="M125.65,-94.11C127.86,-100.05 129.77,-106.23 131,-112.25 132.47,-119.43 131.74,-121.45 131,-128.75 125.77,-180.43 110.57,-237.67 98.11,-278.3"/>
<polygon fill="red" stroke="red" points="94.85,-277 95.22,-287.59 101.53,-279.08 94.85,-277"/>
<text xml:space="preserve" text-anchor="middle" x="140.81" y="-186.45" font-family="Times,serif" font-size="14.00"> $&gt; </text>
</g>
<!-- Readable -->
<g id="node5" class="node">
<title>Readable</title>
<ellipse fill="azure" stroke="#00688b" cx="24" cy="-333.5" rx="0.36" ry="0.36"/>
</g>
<!-- Active&#45;&gt;Freezing -->
<g id="edge3" class="edge">
<title>Active&#45;&gt;Freezing</title>
<path fill="none" stroke="red" d="M76.61,-146.87C81.11,-133.45 86.08,-118.59 90.68,-104.84"/>
<polygon fill="red" stroke="red" points="93.94,-106.14 93.8,-95.55 87.3,-103.92 93.94,-106.14"/>
<text xml:space="preserve" text-anchor="middle" x="107.44" y="-115.45" font-family="Times,serif" font-size="14.00"> freeze </text>
</g>
<!-- Frozen&#45;&gt;Active -->
<g id="edge5" class="edge">
<title>Frozen&#45;&gt;Active</title>
<path fill="none" stroke="red" d="M53.66,-289.02C51.03,-283.06 48.77,-276.87 47.25,-270.75 45.39,-263.27 45.04,-255.33 45.63,-247.5"/>
<polygon fill="red" stroke="red" points="49.09,-248.02 46.91,-237.65 42.15,-247.12 49.09,-248.02"/>
<text xml:space="preserve" text-anchor="middle" x="64.12" y="-257.45" font-family="Times,serif" font-size="14.00"> thaw </text>
</g>
<!-- Unmounting&#45;&gt;Unmounted -->
<g id="edge7" class="edge">
<title>Unmounting&#45;&gt;Unmounted</title>
<path fill="none" stroke="red" d="M222.2,-158.31C222.79,-142.39 223.52,-122.83 224.18,-105.1"/>
<polygon fill="red" stroke="red" points="227.67,-105.4 224.54,-95.28 220.67,-105.14 227.67,-105.4"/>
<text xml:space="preserve" text-anchor="middle" x="235.05" y="-115.45" font-family="Times,serif" font-size="14.00"> $&gt; </text>
</g>
</g>
</svg>
