<?xml version="1.0" encoding="UTF-8" standalone="no"?>
<!DOCTYPE svg PUBLIC "-//W3C//DTD SVG 1.1//EN"
 "http://www.w3.org/Graphics/SVG/1.1/DTD/svg11.dtd">
<!-- Generated by graphviz version 14.1.5 (20260411.2331)
 -->
<!-- Title: ModuleLoader Pages: 1 -->
<svg width="566pt" height="1132pt"
 viewBox="0.00 0.00 566.00 1132.00" xmlns="http://www.w3.org/2000/svg" xmlns:xlink="http://www.w3.org/1999/xlink">
<g id="graph0" class="graph" transform="scale(1 1) rotate(0) translate(4 1127.65)">
<title>ModuleLoader</title>
<polygon fill="white" stroke="none" points="-4,4 -4,-1127.65 561.5,-1127.65 561.5,4 -4,4"/>
<!-- Entry -->
<g id="node1" class="node">
<title>Entry</title>
<ellipse fill="black" stroke="#00688b" cx="477" cy="-1116.45" rx="7.2" ry="7.2"/>
</g>
<!-- Idle -->
<g id="node2" class="node">
<title>Idle</title>
<path fill="azure" stroke="none" d="M503.38,-1072.25C503.38,-1072.25 450.62,-1072.25 450.62,-1072.25 444.62,-1072.25 438.62,-1066.25 438.62,-1060.25 438.62,-1060.25 438.62,-1006 438.62,-1006 438.62,-1000 444.62,-994 450.62,-994 450.62,-994 503.38,-994 503.38,-994 509.38,-994 515.38,-1000 515.38,-1006 515.38,-1006 515.38,-1060.25 515.38,-1060.25 515.38,-1066.25 509.38,-1072.25 503.38,-1072.25"/>
<text xml:space="preserve" text-anchor="start" x="465.75" y="-1051.95" font-family="Times,serif" font-weight="bold" font-size="14.00">Idle</text>
<text xml:space="preserve" text-anchor="start" x="446.62" y="-1026.75" font-family="Times,serif" font-size="10.00">load(name: str)</text>
<text xml:space="preserve" text-anchor="start" x="446.62" y="-1015.5" font-family="Times,serif" font-size="10.00">status()</text>
<text xml:space="preserve" text-anchor="start" x="463.5" y="-1004.25" font-family="Times,serif" font-size="10.00"> &#160;&#160;&#160;&#160;&#160;&#160;&#160;&#160;&#160;&#160;&#160;</text>
<polygon fill="#00688b" stroke="#00688b" points="438.62,-1041.75 438.62,-1041.75 515.38,-1041.75 515.38,-1041.75 438.62,-1041.75"/>
<path fill="none" stroke="#00688b" d="M450.62,-994C450.62,-994 503.38,-994 503.38,-994 509.38,-994 515.38,-1000 515.38,-1006 515.38,-1006 515.38,-1060.25 515.38,-1060.25 515.38,-1066.25 509.38,-1072.25 503.38,-1072.25 503.38,-1072.25 450.62,-1072.25 450.62,-1072.25 444.62,-1072.25 438.62,-1066.25 438.62,-1060.25 438.62,-1060.25 438.62,-1006 438.62,-1006 438.62,-1000 444.62,-994 450.62,-994"/>
</g>
<!-- Entry&#45;&gt;Idle -->
<g id="edge1" class="edge">
<title>Entry&#45;&gt;Idle</title>
<path fill="none" stroke="red" d="M477,-1108.79C477,-1102.78 477,-1093.32 477,-1083.13"/>
<polygon fill="red" stroke="red" points="480.5,-1083.44 477,-1073.44 473.5,-1083.44 480.5,-1083.44"/>
</g>
<!-- ResolvingSymbols -->
<g id="node3" class="node">
<title>ResolvingSymbols</title>
<path fill="azure" stroke="none" d="M399.25,-941.5C399.25,-941.5 246.75,-941.5 246.75,-941.5 240.75,-941.5 234.75,-935.5 234.75,-929.5 234.75,-929.5 234.75,-864 234.75,-864 234.75,-858 240.75,-852 246.75,-852 246.75,-852 399.25,-852 399.25,-852 405.25,-852 411.25,-858 411.25,-864 411.25,-864 411.25,-929.5 411.25,-929.5 411.25,-935.5 405.25,-941.5 399.25,-941.5"/>
<text xml:space="preserve" text-anchor="start" x="270.12" y="-921.2" font-family="Times,serif" font-weight="bold" font-size="14.00">ResolvingSymbols</text>
<text xml:space="preserve" text-anchor="start" x="242.75" y="-896" font-family="Times,serif" font-size="10.00">$&gt;()</text>
<text xml:space="preserve" text-anchor="start" x="242.75" y="-884.75" font-family="Times,serif" font-size="10.00">resolve_done(success: bool, reason: str)</text>
<text xml:space="preserve" text-anchor="start" x="242.75" y="-873.5" font-family="Times,serif" font-size="10.00">status()</text>
<text xml:space="preserve" text-anchor="start" x="309.5" y="-862.25" font-family="Times,serif" font-size="10.00"> &#160;&#160;&#160;&#160;&#160;&#160;&#160;&#160;&#160;&#160;&#160;</text>
<polygon fill="#00688b" stroke="#00688b" points="234.75,-911 234.75,-911 411.25,-911 411.25,-911 234.75,-911"/>
<path fill="none" stroke="#00688b" d="M246.75,-852C246.75,-852 399.25,-852 399.25,-852 405.25,-852 411.25,-858 411.25,-864 411.25,-864 411.25,-929.5 411.25,-929.5 411.25,-935.5 405.25,-941.5 399.25,-941.5 399.25,-941.5 246.75,-941.5 246.75,-941.5 240.75,-941.5 234.75,-935.5 234.75,-929.5 234.75,-929.5 234.75,-864 234.75,-864 234.75,-858 240.75,-852 246.75,-852"/>
</g>
<!-- Idle&#45;&gt;ResolvingSymbols -->
<g id="edge2" class="edge">
<title>Idle&#45;&gt;ResolvingSymbols</title>
<path fill="none" stroke="red" d="M438.93,-998.91C421.71,-983.88 400.96,-965.77 381.8,-949.06"/>
<polygon fill="red" stroke="red" points="384.1,-946.42 374.27,-942.48 379.5,-951.7 384.1,-946.42"/>
<text xml:space="preserve" text-anchor="middle" x="424.6" y="-962.7" font-family="Times,serif" font-size="14.00"> load </text>
</g>
<!-- AllocatingMemory -->
<g id="node4" class="node">
<title>AllocatingMemory</title>
<path fill="azure" stroke="none" d="M335.75,-799.5C335.75,-799.5 192.25,-799.5 192.25,-799.5 186.25,-799.5 180.25,-793.5 180.25,-787.5 180.25,-787.5 180.25,-722 180.25,-722 180.25,-716 186.25,-710 192.25,-710 192.25,-710 335.75,-710 335.75,-710 341.75,-710 347.75,-716 347.75,-722 347.75,-722 347.75,-787.5 347.75,-787.5 347.75,-793.5 341.75,-799.5 335.75,-799.5"/>
<text xml:space="preserve" text-anchor="start" x="208.88" y="-779.2" font-family="Times,serif" font-weight="bold" font-size="14.00">AllocatingMemory</text>
<text xml:space="preserve" text-anchor="start" x="188.25" y="-754" font-family="Times,serif" font-size="10.00">$&gt;()</text>
<text xml:space="preserve" text-anchor="start" x="188.25" y="-742.75" font-family="Times,serif" font-size="10.00">alloc_done(success: bool, reason: str)</text>
<text xml:space="preserve" text-anchor="start" x="188.25" y="-731.5" font-family="Times,serif" font-size="10.00">status()</text>
<text xml:space="preserve" text-anchor="start" x="250.5" y="-720.25" font-family="Times,serif" font-size="10.00"> &#160;&#160;&#160;&#160;&#160;&#160;&#160;&#160;&#160;&#160;&#160;</text>
<polygon fill="#00688b" stroke="#00688b" points="180.25,-769 180.25,-769 347.75,-769 347.75,-769 180.25,-769"/>
<path fill="none" stroke="#00688b" d="M192.25,-710C192.25,-710 335.75,-710 335.75,-710 341.75,-710 347.75,-716 347.75,-722 347.75,-722 347.75,-787.5 347.75,-787.5 347.75,-793.5 341.75,-799.5 335.75,-799.5 335.75,-799.5 192.25,-799.5 192.25,-799.5 186.25,-799.5 180.25,-793.5 180.25,-787.5 180.25,-787.5 180.25,-722 180.25,-722 180.25,-716 186.25,-710 192.25,-710"/>
</g>
<!-- ResolvingSymbols&#45;&gt;AllocatingMemory -->
<g id="edge3" class="edge">
<title>ResolvingSymbols&#45;&gt;AllocatingMemory</title>
<path fill="none" stroke="red" d="M304.66,-852.22C298.99,-838.79 292.69,-823.83 286.77,-809.78"/>
<polygon fill="red" stroke="red" points="290.03,-808.5 282.92,-800.65 283.58,-811.22 290.03,-808.5"/>
<text xml:space="preserve" text-anchor="middle" x="335.02" y="-820.7" font-family="Times,serif" font-size="14.00"> resolve_done </text>
</g>
<!-- Failed -->
<g id="node11" class="node">
<title>Failed</title>
<path fill="azure" stroke="none" d="M165.38,-89.5C165.38,-89.5 112.62,-89.5 112.62,-89.5 106.62,-89.5 100.62,-83.5 100.62,-77.5 100.62,-77.5 100.62,-12 100.62,-12 100.62,-6 106.62,0 112.62,0 112.62,0 165.38,0 165.38,0 171.38,0 177.38,-6 177.38,-12 177.38,-12 177.38,-77.5 177.38,-77.5 177.38,-83.5 171.38,-89.5 165.38,-89.5"/>
<text xml:space="preserve" text-anchor="start" x="121" y="-69.2" font-family="Times,serif" font-weight="bold" font-size="14.00">Failed</text>
<text xml:space="preserve" text-anchor="start" x="108.62" y="-44" font-family="Times,serif" font-size="10.00">$&gt;()</text>
<text xml:space="preserve" text-anchor="start" x="108.62" y="-32.75" font-family="Times,serif" font-size="10.00">load(name: str)</text>
<text xml:space="preserve" text-anchor="start" x="108.62" y="-21.5" font-family="Times,serif" font-size="10.00">status()</text>
<text xml:space="preserve" text-anchor="start" x="125.5" y="-10.25" font-family="Times,serif" font-size="10.00"> &#160;&#160;&#160;&#160;&#160;&#160;&#160;&#160;&#160;&#160;&#160;</text>
<polygon fill="#00688b" stroke="#00688b" points="100.62,-59 100.62,-59 177.38,-59 177.38,-59 100.62,-59"/>
<path fill="none" stroke="#00688b" d="M112.62,0C112.62,0 165.38,0 165.38,0 171.38,0 177.38,-6 177.38,-12 177.38,-12 177.38,-77.5 177.38,-77.5 177.38,-83.5 171.38,-89.5 165.38,-89.5 165.38,-89.5 112.62,-89.5 112.62,-89.5 106.62,-89.5 100.62,-83.5 100.62,-77.5 100.62,-77.5 100.62,-12 100.62,-12 100.62,-6 106.62,0 112.62,0"/>
</g>
<!-- ResolvingSymbols&#45;&gt;Failed -->
<g id="edge4" class="edge">
<title>ResolvingSymbols&#45;&gt;Failed</title>
<path fill="none" stroke="red" d="M235.17,-893.92C139.52,-886.72 0,-858.58 0,-755.75 0,-755.75 0,-755.75 0,-174.5 0,-123.82 50.36,-87.5 90.45,-66.62"/>
<polygon fill="red" stroke="red" points="91.92,-69.8 99.3,-62.2 88.79,-63.54 91.92,-69.8"/>
<text xml:space="preserve" text-anchor="middle" x="39.75" y="-465.7" font-family="Times,serif" font-size="14.00"> resolve_done </text>
</g>
<!-- Relocating -->
<g id="node5" class="node">
<title>Relocating</title>
<path fill="azure" stroke="none" d="M341.75,-657.5C341.75,-657.5 186.25,-657.5 186.25,-657.5 180.25,-657.5 174.25,-651.5 174.25,-645.5 174.25,-645.5 174.25,-580 174.25,-580 174.25,-574 180.25,-568 186.25,-568 186.25,-568 341.75,-568 341.75,-568 347.75,-568 353.75,-574 353.75,-580 353.75,-580 353.75,-645.5 353.75,-645.5 353.75,-651.5 347.75,-657.5 341.75,-657.5"/>
<text xml:space="preserve" text-anchor="start" x="233.25" y="-637.2" font-family="Times,serif" font-weight="bold" font-size="14.00">Relocating</text>
<text xml:space="preserve" text-anchor="start" x="182.25" y="-612" font-family="Times,serif" font-size="10.00">$&gt;()</text>
<text xml:space="preserve" text-anchor="start" x="182.25" y="-600.75" font-family="Times,serif" font-size="10.00">relocate_done(success: bool, reason: str)</text>
<text xml:space="preserve" text-anchor="start" x="182.25" y="-589.5" font-family="Times,serif" font-size="10.00">status()</text>
<text xml:space="preserve" text-anchor="start" x="250.5" y="-578.25" font-family="Times,serif" font-size="10.00"> &#160;&#160;&#160;&#160;&#160;&#160;&#160;&#160;&#160;&#160;&#160;</text>
<polygon fill="#00688b" stroke="#00688b" points="174.25,-627 174.25,-627 353.75,-627 353.75,-627 174.25,-627"/>
<path fill="none" stroke="#00688b" d="M186.25,-568C186.25,-568 341.75,-568 341.75,-568 347.75,-568 353.75,-574 353.75,-580 353.75,-580 353.75,-645.5 353.75,-645.5 353.75,-651.5 347.75,-657.5 341.75,-657.5 341.75,-657.5 186.25,-657.5 186.25,-657.5 180.25,-657.5 174.25,-651.5 174.25,-645.5 174.25,-645.5 174.25,-580 174.25,-580 174.25,-574 180.25,-568 186.25,-568"/>
</g>
<!-- AllocatingMemory&#45;&gt;Relocating -->
<g id="edge5" class="edge">
<title>AllocatingMemory&#45;&gt;Relocating</title>
<path fill="none" stroke="red" d="M264,-710.22C264,-697.05 264,-682.42 264,-668.61"/>
<polygon fill="red" stroke="red" points="267.5,-668.77 264,-658.77 260.5,-668.77 267.5,-668.77"/>
<text xml:space="preserve" text-anchor="middle" x="297.38" y="-678.7" font-family="Times,serif" font-size="14.00"> alloc_done </text>
</g>
<!-- AllocatingMemory&#45;&gt;Failed -->
<g id="edge6" class="edge">
<title>AllocatingMemory&#45;&gt;Failed</title>
<path fill="none" stroke="red" d="M180.52,-715.32C143.43,-692.02 108,-658.15 108,-613.75 108,-613.75 108,-613.75 108,-174.5 108,-149.6 113.55,-122.74 119.95,-100.02"/>
<polygon fill="red" stroke="red" points="123.23,-101.26 122.71,-90.67 116.52,-99.27 123.23,-101.26"/>
<text xml:space="preserve" text-anchor="middle" x="141.38" y="-394.7" font-family="Times,serif" font-size="14.00"> alloc_done </text>
</g>
<!-- Initializing -->
<g id="node6" class="node">
<title>Initializing</title>
<path fill="azure" stroke="none" d="M374.75,-515.5C374.75,-515.5 237.25,-515.5 237.25,-515.5 231.25,-515.5 225.25,-509.5 225.25,-503.5 225.25,-503.5 225.25,-438 225.25,-438 225.25,-432 231.25,-426 237.25,-426 237.25,-426 374.75,-426 374.75,-426 380.75,-426 386.75,-432 386.75,-438 386.75,-438 386.75,-503.5 386.75,-503.5 386.75,-509.5 380.75,-515.5 374.75,-515.5"/>
<text xml:space="preserve" text-anchor="start" x="274.5" y="-495.2" font-family="Times,serif" font-weight="bold" font-size="14.00">Initializing</text>
<text xml:space="preserve" text-anchor="start" x="233.25" y="-470" font-family="Times,serif" font-size="10.00">$&gt;()</text>
<text xml:space="preserve" text-anchor="start" x="233.25" y="-458.75" font-family="Times,serif" font-size="10.00">init_done(success: bool, reason: str)</text>
<text xml:space="preserve" text-anchor="start" x="233.25" y="-447.5" font-family="Times,serif" font-size="10.00">status()</text>
<text xml:space="preserve" text-anchor="start" x="292.5" y="-436.25" font-family="Times,serif" font-size="10.00"> &#160;&#160;&#160;&#160;&#160;&#160;&#160;&#160;&#160;&#160;&#160;</text>
<polygon fill="#00688b" stroke="#00688b" points="225.25,-485 225.25,-485 386.75,-485 386.75,-485 225.25,-485"/>
<path fill="none" stroke="#00688b" d="M237.25,-426C237.25,-426 374.75,-426 374.75,-426 380.75,-426 386.75,-432 386.75,-438 386.75,-438 386.75,-503.5 386.75,-503.5 386.75,-509.5 380.75,-515.5 374.75,-515.5 374.75,-515.5 237.25,-515.5 237.25,-515.5 231.25,-515.5 225.25,-509.5 225.25,-503.5 225.25,-503.5 225.25,-438 225.25,-438 225.25,-432 231.25,-426 237.25,-426"/>
</g>
<!-- Relocating&#45;&gt;Initializing -->
<g id="edge7" class="edge">
<title>Relocating&#45;&gt;Initializing</title>
<path fill="none" stroke="red" d="M277.06,-568.22C281.05,-554.92 285.49,-540.12 289.67,-526.19"/>
<polygon fill="red" stroke="red" points="292.99,-527.29 292.51,-516.7 286.29,-525.27 292.99,-527.29"/>
<text xml:space="preserve" text-anchor="middle" x="327.88" y="-536.7" font-family="Times,serif" font-size="14.00"> relocate_done </text>
</g>
<!-- UndoAlloc -->
<g id="node8" class="node">
<title>UndoAlloc</title>
<path fill="azure" stroke="none" d="M224.75,-209C224.75,-209 171.25,-209 171.25,-209 165.25,-209 159.25,-203 159.25,-197 159.25,-197 159.25,-154 159.25,-154 159.25,-148 165.25,-142 171.25,-142 171.25,-142 224.75,-142 224.75,-142 230.75,-142 236.75,-148 236.75,-154 236.75,-154 236.75,-197 236.75,-197 236.75,-203 230.75,-209 224.75,-209"/>
<text xml:space="preserve" text-anchor="start" x="167.25" y="-188.7" font-family="Times,serif" font-weight="bold" font-size="14.00">UndoAlloc</text>
<text xml:space="preserve" text-anchor="start" x="167.25" y="-163.5" font-family="Times,serif" font-size="10.00">$&gt;()</text>
<text xml:space="preserve" text-anchor="start" x="167.25" y="-152.25" font-family="Times,serif" font-size="10.00"> &#160;&#160;&#160;&#160;&#160;&#160;&#160;&#160;&#160;&#160;&#160;</text>
<polygon fill="#00688b" stroke="#00688b" points="159.25,-178.5 159.25,-178.5 236.75,-178.5 236.75,-178.5 159.25,-178.5"/>
<path fill="none" stroke="#00688b" d="M171.25,-142C171.25,-142 224.75,-142 224.75,-142 230.75,-142 236.75,-148 236.75,-154 236.75,-154 236.75,-197 236.75,-197 236.75,-203 230.75,-209 224.75,-209 224.75,-209 171.25,-209 171.25,-209 165.25,-209 159.25,-203 159.25,-197 159.25,-197 159.25,-154 159.25,-154 159.25,-148 165.25,-142 171.25,-142"/>
</g>
<!-- Relocating&#45;&gt;UndoAlloc -->
<g id="edge8" class="edge">
<title>Relocating&#45;&gt;UndoAlloc</title>
<path fill="none" stroke="red" d="M237.55,-568.2C229.13,-552.19 220.76,-533.56 216,-515.5 188.78,-412.28 191.07,-285.42 194.73,-220.05"/>
<polygon fill="red" stroke="red" points="198.2,-220.66 195.31,-210.46 191.22,-220.23 198.2,-220.66"/>
<text xml:space="preserve" text-anchor="middle" x="239.08" y="-394.7" font-family="Times,serif" font-size="14.00"> relocate_done </text>
</g>
<!-- UndoRelocate -->
<g id="node7" class="node">
<title>UndoRelocate</title>
<path fill="azure" stroke="none" d="M326.5,-351C326.5,-351 253.5,-351 253.5,-351 247.5,-351 241.5,-345 241.5,-339 241.5,-339 241.5,-296 241.5,-296 241.5,-290 247.5,-284 253.5,-284 253.5,-284 326.5,-284 326.5,-284 332.5,-284 338.5,-290 338.5,-296 338.5,-296 338.5,-339 338.5,-339 338.5,-345 332.5,-351 326.5,-351"/>
<text xml:space="preserve" text-anchor="start" x="249.5" y="-330.7" font-family="Times,serif" font-weight="bold" font-size="14.00">UndoRelocate</text>
<text xml:space="preserve" text-anchor="start" x="249.5" y="-305.5" font-family="Times,serif" font-size="10.00">$&gt;()</text>
<text xml:space="preserve" text-anchor="start" x="249.5" y="-294.25" font-family="Times,serif" font-size="10.00"> &#160;&#160;&#160;&#160;&#160;&#160;&#160;&#160;&#160;&#160;&#160;</text>
<polygon fill="#00688b" stroke="#00688b" points="241.5,-320.5 241.5,-320.5 338.5,-320.5 338.5,-320.5 241.5,-320.5"/>
<path fill="none" stroke="#00688b" d="M253.5,-284C253.5,-284 326.5,-284 326.5,-284 332.5,-284 338.5,-290 338.5,-296 338.5,-296 338.5,-339 338.5,-339 338.5,-345 332.5,-351 326.5,-351 326.5,-351 253.5,-351 253.5,-351 247.5,-351 241.5,-345 241.5,-339 241.5,-339 241.5,-296 241.5,-296 241.5,-290 247.5,-284 253.5,-284"/>
</g>
<!-- Initializing&#45;&gt;UndoRelocate -->
<g id="edge10" class="edge">
<title>Initializing&#45;&gt;UndoRelocate</title>
<path fill="none" stroke="red" d="M301.37,-426C299.24,-405.87 296.72,-382.06 294.6,-361.96"/>
<polygon fill="red" stroke="red" points="298.09,-361.7 293.56,-352.12 291.13,-362.43 298.09,-361.7"/>
<text xml:space="preserve" text-anchor="middle" x="328.68" y="-394.7" font-family="Times,serif" font-size="14.00"> init_done </text>
</g>
<!-- Live -->
<g id="node9" class="node">
<title>Live</title>
<path fill="azure" stroke="none" d="M493,-373.5C493,-373.5 463,-373.5 463,-373.5 457,-373.5 451,-367.5 451,-361.5 451,-361.5 451,-273.5 451,-273.5 451,-267.5 457,-261.5 463,-261.5 463,-261.5 493,-261.5 493,-261.5 499,-261.5 505,-267.5 505,-273.5 505,-273.5 505,-361.5 505,-361.5 505,-367.5 499,-373.5 493,-373.5"/>
<text xml:space="preserve" text-anchor="start" x="465.25" y="-353.2" font-family="Times,serif" font-weight="bold" font-size="14.00">Live</text>
<text xml:space="preserve" text-anchor="start" x="460" y="-328" font-family="Times,serif" font-size="10.00">$&gt;()</text>
<text xml:space="preserve" text-anchor="start" x="460" y="-316.75" font-family="Times,serif" font-size="10.00">acquire()</text>
<text xml:space="preserve" text-anchor="start" x="460" y="-305.5" font-family="Times,serif" font-size="10.00">release()</text>
<text xml:space="preserve" text-anchor="start" x="460" y="-294.25" font-family="Times,serif" font-size="10.00">unload()</text>
<text xml:space="preserve" text-anchor="start" x="460" y="-283" font-family="Times,serif" font-size="10.00">status()</text>
<text xml:space="preserve" text-anchor="start" x="464.5" y="-271.75" font-family="Times,serif" font-size="10.00"> &#160;&#160;&#160;&#160;&#160;&#160;&#160;&#160;&#160;&#160;&#160;</text>
<polygon fill="#00688b" stroke="#00688b" points="452,-343 452,-343 504,-343 504,-343 452,-343"/>
<path fill="none" stroke="#00688b" d="M464,-261.5C464,-261.5 492,-261.5 492,-261.5 498,-261.5 504,-267.5 504,-273.5 504,-273.5 504,-361.5 504,-361.5 504,-367.5 498,-373.5 492,-373.5 492,-373.5 464,-373.5 464,-373.5 458,-373.5 452,-367.5 452,-361.5 452,-361.5 452,-273.5 452,-273.5 452,-267.5 458,-261.5 464,-261.5"/>
</g>
<!-- Initializing&#45;&gt;Live -->
<g id="edge9" class="edge">
<title>Initializing&#45;&gt;Live</title>
<path fill="none" stroke="red" d="M355.75,-426C383.62,-401.5 417.7,-371.52 442.79,-349.46"/>
<polygon fill="red" stroke="red" points="444.93,-352.24 450.13,-343.01 440.31,-346.98 444.93,-352.24"/>
<text xml:space="preserve" text-anchor="middle" x="421.25" y="-394.7" font-family="Times,serif" font-size="14.00"> init_done </text>
</g>
<!-- UndoRelocate&#45;&gt;UndoAlloc -->
<g id="edge11" class="edge">
<title>UndoRelocate&#45;&gt;UndoAlloc</title>
<path fill="none" stroke="red" d="M268.66,-284.03C255.77,-264.42 239.22,-239.22 225.37,-218.15"/>
<polygon fill="red" stroke="red" points="228.47,-216.49 220.05,-210.06 222.62,-220.34 228.47,-216.49"/>
<text xml:space="preserve" text-anchor="middle" x="252.49" y="-230.2" font-family="Times,serif" font-size="14.00"> $&gt; </text>
</g>
<!-- UndoAlloc&#45;&gt;Failed -->
<g id="edge12" class="edge">
<title>UndoAlloc&#45;&gt;Failed</title>
<path fill="none" stroke="red" d="M183.11,-142.01C177.23,-129.18 170.32,-114.09 163.73,-99.72"/>
<polygon fill="red" stroke="red" points="166.99,-98.43 159.64,-90.79 160.63,-101.34 166.99,-98.43"/>
<text xml:space="preserve" text-anchor="middle" x="185.03" y="-110.7" font-family="Times,serif" font-size="14.00"> $&gt; </text>
</g>
<!-- Unloading -->
<g id="node10" class="node">
<title>Unloading</title>
<path fill="azure" stroke="none" d="M538,-209C538,-209 486,-209 486,-209 480,-209 474,-203 474,-197 474,-197 474,-154 474,-154 474,-148 480,-142 486,-142 486,-142 538,-142 538,-142 544,-142 550,-148 550,-154 550,-154 550,-197 550,-197 550,-203 544,-209 538,-209"/>
<text xml:space="preserve" text-anchor="start" x="482" y="-188.7" font-family="Times,serif" font-weight="bold" font-size="14.00">Unloading</text>
<text xml:space="preserve" text-anchor="start" x="482" y="-163.5" font-family="Times,serif" font-size="10.00">$&gt;()</text>
<text xml:space="preserve" text-anchor="start" x="482" y="-152.25" font-family="Times,serif" font-size="10.00"> &#160;&#160;&#160;&#160;&#160;&#160;&#160;&#160;&#160;&#160;&#160;</text>
<polygon fill="#00688b" stroke="#00688b" points="474,-178.5 474,-178.5 550,-178.5 550,-178.5 474,-178.5"/>
<path fill="none" stroke="#00688b" d="M486,-142C486,-142 538,-142 538,-142 544,-142 550,-148 550,-154 550,-154 550,-197 550,-197 550,-203 544,-209 538,-209 538,-209 486,-209 486,-209 480,-209 474,-203 474,-197 474,-197 474,-154 474,-154 474,-148 480,-142 486,-142"/>
</g>
<!-- Live&#45;&gt;Unloading -->
<g id="edge13" class="edge">
<title>Live&#45;&gt;Unloading</title>
<path fill="none" stroke="red" d="M471.77,-261.74C471.95,-250.08 473.3,-237.97 476.75,-227 477.61,-224.28 478.67,-221.57 479.88,-218.92"/>
<polygon fill="red" stroke="red" points="482.87,-220.74 484.49,-210.27 476.7,-217.44 482.87,-220.74"/>
<text xml:space="preserve" text-anchor="middle" x="498.88" y="-230.2" font-family="Times,serif" font-size="14.00"> unload </text>
</g>
<!-- Unloading&#45;&gt;Idle -->
<g id="edge14" class="edge">
<title>Unloading&#45;&gt;Idle</title>
<path fill="none" stroke="red" d="M520.37,-208.79C526.94,-237 535,-279.18 535,-316.5 535,-897.75 535,-897.75 535,-897.75 535,-928.12 522.36,-959.43 508.87,-984.17"/>
<polygon fill="red" stroke="red" points="505.93,-982.27 504.03,-992.69 512.02,-985.73 505.93,-982.27"/>
<text xml:space="preserve" text-anchor="middle" x="546.25" y="-607.7" font-family="Times,serif" font-size="14.00"> $&gt; </text>
</g>
<!-- Failed&#45;&gt;ResolvingSymbols -->
<g id="edge15" class="edge">
<title>Failed&#45;&gt;ResolvingSymbols</title>
<path fill="none" stroke="red" d="M177.3,-46.12C254.82,-49.1 423,-67.85 423,-174.5 423,-755.75 423,-755.75 423,-755.75 423,-788.88 404.23,-819.59 382.95,-843.75"/>
<polygon fill="red" stroke="red" points="380.56,-841.17 376.37,-850.9 385.71,-845.91 380.56,-841.17"/>
<text xml:space="preserve" text-anchor="middle" x="438.38" y="-465.7" font-family="Times,serif" font-size="14.00"> load </text>
</g>
</g>
</svg>
