<?xml version="1.0" encoding="UTF-8" standalone="no"?>
<!DOCTYPE svg PUBLIC "-//W3C//DTD SVG 1.1//EN"
 "http://www.w3.org/Graphics/SVG/1.1/DTD/svg11.dtd">
<!-- Generated by graphviz version 14.1.5 (20260411.2331)
 -->
<!-- Title: SignalContext Pages: 1 -->
<svg width="215pt" height="608pt"
 viewBox="0.00 0.00 215.00 608.00" xmlns="http://www.w3.org/2000/svg" xmlns:xlink="http://www.w3.org/1999/xlink">
<g id="graph0" class="graph" transform="scale(1 1) rotate(0) translate(4 604.48)">
<title>SignalContext</title>
<polygon fill="white" stroke="none" points="-4,4 -4,-604.48 211.25,-604.48 211.25,4 -4,4"/>
<!-- Entry -->
<g id="node1" class="node">
<title>Entry</title>
<ellipse fill="black" stroke="#00688b" cx="53" cy="-593.28" rx="7.2" ry="7.2"/>
</g>
<!-- Kernel -->
<g id="node2" class="node">
<title>Kernel</title>
<path fill="azure" stroke="none" d="M85.38,-549.08C85.38,-549.08 20.62,-549.08 20.62,-549.08 14.62,-549.08 8.62,-543.08 8.62,-537.08 8.62,-537.08 8.62,-471.58 8.62,-471.58 8.62,-465.58 14.62,-459.58 20.62,-459.58 20.62,-459.58 85.38,-459.58 85.38,-459.58 91.38,-459.58 97.38,-465.58 97.38,-471.58 97.38,-471.58 97.38,-537.08 97.38,-537.08 97.38,-543.08 91.38,-549.08 85.38,-549.08"/>
<text xml:space="preserve" text-anchor="start" x="32.75" y="-528.78" font-family="Times,serif" font-weight="bold" font-size="14.00">Kernel</text>
<text xml:space="preserve" text-anchor="start" x="16.62" y="-503.58" font-family="Times,serif" font-size="10.00">enter_user_code()</text>
<text xml:space="preserve" text-anchor="start" x="16.62" y="-492.33" font-family="Times,serif" font-size="10.00">current_mode()</text>
<text xml:space="preserve" text-anchor="start" x="16.62" y="-481.08" font-family="Times,serif" font-size="10.00">depth()</text>
<text xml:space="preserve" text-anchor="start" x="39.5" y="-469.83" font-family="Times,serif" font-size="10.00"> &#160;&#160;&#160;&#160;&#160;&#160;&#160;&#160;&#160;&#160;&#160;</text>
<polygon fill="#00688b" stroke="#00688b" points="8.62,-518.58 8.62,-518.58 97.38,-518.58 97.38,-518.58 8.62,-518.58"/>
<path fill="none" stroke="#00688b" d="M20.62,-459.58C20.62,-459.58 85.38,-459.58 85.38,-459.58 91.38,-459.58 97.38,-465.58 97.38,-471.58 97.38,-471.58 97.38,-537.08 97.38,-537.08 97.38,-543.08 91.38,-549.08 85.38,-549.08 85.38,-549.08 20.62,-549.08 20.62,-549.08 14.62,-549.08 8.62,-543.08 8.62,-537.08 8.62,-537.08 8.62,-471.58 8.62,-471.58 8.62,-465.58 14.62,-459.58 20.62,-459.58"/>
</g>
<!-- Entry&#45;&gt;Kernel -->
<g id="edge1" class="edge">
<title>Entry&#45;&gt;Kernel</title>
<path fill="none" stroke="red" d="M53,-585.75C53,-579.83 53,-570.49 53,-560.24"/>
<polygon fill="red" stroke="red" points="56.5,-560.39 53,-550.39 49.5,-560.39 56.5,-560.39"/>
</g>
<!-- UserMode -->
<g id="node3" class="node">
<title>UserMode</title>
<path fill="azure" stroke="none" d="M94,-407.08C94,-407.08 12,-407.08 12,-407.08 6,-407.08 0,-401.08 0,-395.08 0,-395.08 0,-285.33 0,-285.33 0,-279.33 6,-273.33 12,-273.33 12,-273.33 94,-273.33 94,-273.33 100,-273.33 106,-279.33 106,-285.33 106,-285.33 106,-395.08 106,-395.08 106,-401.08 100,-407.08 94,-407.08"/>
<text xml:space="preserve" text-anchor="start" x="22.62" y="-386.78" font-family="Times,serif" font-weight="bold" font-size="14.00">UserMode</text>
<text xml:space="preserve" text-anchor="start" x="8" y="-361.58" font-family="Times,serif" font-size="10.00">$&gt;()</text>
<text xml:space="preserve" text-anchor="start" x="8" y="-350.33" font-family="Times,serif" font-size="10.00">signal_arrives(sig: str)</text>
<text xml:space="preserve" text-anchor="start" x="8" y="-339.08" font-family="Times,serif" font-size="10.00">current_mode()</text>
<text xml:space="preserve" text-anchor="start" x="8" y="-327.83" font-family="Times,serif" font-size="10.00">depth()</text>
<text xml:space="preserve" text-anchor="start" x="39.5" y="-316.58" font-family="Times,serif" font-size="10.00"> &#160;&#160;&#160;&#160;&#160;&#160;&#160;&#160;&#160;&#160;&#160;</text>
<text xml:space="preserve" text-anchor="start" x="8" y="-294.08" font-family="Times,serif" font-size="9.00" fill="#666666">saved_regs: str</text>
<text xml:space="preserve" text-anchor="start" x="21.12" y="-283.58" font-family="Times,serif" font-size="9.00" fill="#666666"> &#160;&#160;&#160;&#160;&#160;&#160;&#160;&#160;&#160;&#160;&#160;</text>
<polygon fill="#00688b" stroke="#00688b" points="0,-376.58 0,-376.58 106,-376.58 106,-376.58 0,-376.58"/>
<polygon fill="#00688b" stroke="#00688b" points="0,-308.33 0,-308.33 106,-308.33 106,-308.33 0,-308.33"/>
<path fill="none" stroke="#00688b" d="M12,-273.33C12,-273.33 94,-273.33 94,-273.33 100,-273.33 106,-279.33 106,-285.33 106,-285.33 106,-395.08 106,-395.08 106,-401.08 100,-407.08 94,-407.08 94,-407.08 12,-407.08 12,-407.08 6,-407.08 0,-401.08 0,-395.08 0,-395.08 0,-285.33 0,-285.33 0,-279.33 6,-273.33 12,-273.33"/>
</g>
<!-- Kernel&#45;&gt;UserMode -->
<g id="edge2" class="edge">
<title>Kernel&#45;&gt;UserMode</title>
<path fill="none" stroke="red" d="M53,-459.89C53,-447.08 53,-432.67 53,-418.42"/>
<polygon fill="red" stroke="red" points="56.5,-418.57 53,-408.57 49.5,-418.57 56.5,-418.57"/>
<text xml:space="preserve" text-anchor="middle" x="101" y="-428.28" font-family="Times,serif" font-size="14.00"> enter_user_code </text>
</g>
<!-- SignalHandler -->
<g id="node4" class="node">
<title>SignalHandler</title>
<path fill="azure" stroke="none" d="M94,-220.83C94,-220.83 12,-220.83 12,-220.83 6,-220.83 0,-214.83 0,-208.83 0,-208.83 0,-87.83 0,-87.83 0,-81.83 6,-75.83 12,-75.83 12,-75.83 94,-75.83 94,-75.83 100,-75.83 106,-81.83 106,-87.83 106,-87.83 106,-208.83 106,-208.83 106,-214.83 100,-220.83 94,-220.83"/>
<text xml:space="preserve" text-anchor="start" x="10.62" y="-200.53" font-family="Times,serif" font-weight="bold" font-size="14.00">SignalHandler</text>
<text xml:space="preserve" text-anchor="start" x="8" y="-175.33" font-family="Times,serif" font-size="10.00">$&gt;()</text>
<text xml:space="preserve" text-anchor="start" x="8" y="-164.08" font-family="Times,serif" font-size="10.00">signal_arrives(sig: str)</text>
<text xml:space="preserve" text-anchor="start" x="8" y="-152.83" font-family="Times,serif" font-size="10.00">handler_returns()</text>
<text xml:space="preserve" text-anchor="start" x="8" y="-141.58" font-family="Times,serif" font-size="10.00">current_mode()</text>
<text xml:space="preserve" text-anchor="start" x="8" y="-130.33" font-family="Times,serif" font-size="10.00">depth()</text>
<text xml:space="preserve" text-anchor="start" x="39.5" y="-119.08" font-family="Times,serif" font-size="10.00"> &#160;&#160;&#160;&#160;&#160;&#160;&#160;&#160;&#160;&#160;&#160;</text>
<text xml:space="preserve" text-anchor="start" x="8" y="-96.58" font-family="Times,serif" font-size="9.00" fill="#666666">signum: str</text>
<text xml:space="preserve" text-anchor="start" x="14.38" y="-86.08" font-family="Times,serif" font-size="9.00" fill="#666666"> &#160;&#160;&#160;&#160;&#160;&#160;&#160;&#160;&#160;&#160;&#160;</text>
<polygon fill="#00688b" stroke="#00688b" points="0,-190.33 0,-190.33 106,-190.33 106,-190.33 0,-190.33"/>
<polygon fill="#00688b" stroke="#00688b" points="0,-110.83 0,-110.83 106,-110.83 106,-110.83 0,-110.83"/>
<path fill="none" stroke="#00688b" d="M12,-75.83C12,-75.83 94,-75.83 94,-75.83 100,-75.83 106,-81.83 106,-87.83 106,-87.83 106,-208.83 106,-208.83 106,-214.83 100,-220.83 94,-220.83 94,-220.83 12,-220.83 12,-220.83 6,-220.83 0,-214.83 0,-208.83 0,-208.83 0,-87.83 0,-87.83 0,-81.83 6,-75.83 12,-75.83"/>
</g>
<!-- UserMode&#45;&gt;SignalHandler -->
<g id="edge3" class="edge">
<title>UserMode&#45;&gt;SignalHandler</title>
<path fill="none" stroke="red" d="M53,-273.6C53,-260.28 53,-246.12 53,-232.29"/>
<polygon fill="red" stroke="red" points="56.5,-232.3 53,-222.3 49.5,-232.3 56.5,-232.3"/>
<text xml:space="preserve" text-anchor="middle" x="94.62" y="-242.03" font-family="Times,serif" font-size="14.00"> signal_arrives </text>
</g>
<!-- SignalHandler&#45;&gt;SignalHandler -->
<g id="edge4" class="edge">
<title>SignalHandler&#45;&gt;SignalHandler</title>
<path fill="none" stroke="red" d="M105.95,-166.09C116.49,-164.09 124,-158.17 124,-148.33 124,-142.34 121.21,-137.8 116.65,-134.72"/>
<polygon fill="red" stroke="red" points="117.95,-131.47 107.36,-131.13 115.42,-138 117.95,-131.47"/>
<text xml:space="preserve" text-anchor="middle" x="165.62" y="-143.28" font-family="Times,serif" font-size="14.00"> signal_arrives </text>
</g>
<!-- Stack -->
<g id="node5" class="node">
<title>Stack</title>
<ellipse fill="azure" stroke="#00688b" cx="53" cy="-11.67" rx="11.67" ry="11.67"/>
<text xml:space="preserve" text-anchor="middle" x="53" y="-6.62" font-family="Times,serif" font-size="14.00">H*</text>
</g>
<!-- SignalHandler&#45;&gt;Stack -->
<g id="edge5" class="edge">
<title>SignalHandler&#45;&gt;Stack</title>
<path fill="none" stroke="red" d="M53,-76.06C53,-61.21 53,-46.61 53,-35.18"/>
<polygon fill="red" stroke="red" points="56.5,-35.28 53,-25.28 49.5,-35.28 56.5,-35.28"/>
<text xml:space="preserve" text-anchor="middle" x="99.12" y="-44.53" font-family="Times,serif" font-size="14.00"> handler_returns </text>
</g>
</g>
</svg>
