<?xml version="1.0" encoding="UTF-8" standalone="no"?>
<!DOCTYPE svg PUBLIC "-//W3C//DTD SVG 1.1//EN"
 "http://www.w3.org/Graphics/SVG/1.1/DTD/svg11.dtd">
<!-- Generated by graphviz version 14.1.5 (20260411.2331)
 -->
<!-- Title: DhcpClient Pages: 1 -->
<svg width="1000pt" height="960pt"
 viewBox="0.00 0.00 1000.00 960.00" xmlns="http://www.w3.org/2000/svg" xmlns:xlink="http://www.w3.org/1999/xlink">
<g id="graph0" class="graph" transform="scale(1 1) rotate(0) translate(4 956.15)">
<title>DhcpClient</title>
<polygon fill="white" stroke="none" points="-4,4 -4,-956.15 995.88,-956.15 995.88,4 -4,4"/>
<!-- Entry -->
<g id="node1" class="node">
<title>Entry</title>
<ellipse fill="black" stroke="#00688b" cx="565.88" cy="-944.95" rx="7.2" ry="7.2"/>
</g>
<!-- Init -->
<g id="node2" class="node">
<title>Init</title>
<path fill="azure" stroke="none" d="M580.88,-900.75C580.88,-900.75 550.88,-900.75 550.88,-900.75 544.88,-900.75 538.88,-894.75 538.88,-888.75 538.88,-888.75 538.88,-823.25 538.88,-823.25 538.88,-817.25 544.88,-811.25 550.88,-811.25 550.88,-811.25 580.88,-811.25 580.88,-811.25 586.88,-811.25 592.88,-817.25 592.88,-823.25 592.88,-823.25 592.88,-888.75 592.88,-888.75 592.88,-894.75 586.88,-900.75 580.88,-900.75"/>
<text xml:space="preserve" text-anchor="start" x="555.38" y="-880.45" font-family="Times,serif" font-weight="bold" font-size="14.00">Init</text>
<text xml:space="preserve" text-anchor="start" x="551.25" y="-855.25" font-family="Times,serif" font-size="10.00">$&gt;()</text>
<text xml:space="preserve" text-anchor="start" x="551.25" y="-844" font-family="Times,serif" font-size="10.00">start()</text>
<text xml:space="preserve" text-anchor="start" x="551.25" y="-832.75" font-family="Times,serif" font-size="10.00">status()</text>
<text xml:space="preserve" text-anchor="start" x="552.38" y="-821.5" font-family="Times,serif" font-size="10.00"> &#160;&#160;&#160;&#160;&#160;&#160;&#160;&#160;&#160;&#160;&#160;</text>
<polygon fill="#00688b" stroke="#00688b" points="543.25,-870.25 543.25,-870.25 588.5,-870.25 588.5,-870.25 543.25,-870.25"/>
<path fill="none" stroke="#00688b" d="M555.25,-811.25C555.25,-811.25 576.5,-811.25 576.5,-811.25 582.5,-811.25 588.5,-817.25 588.5,-823.25 588.5,-823.25 588.5,-888.75 588.5,-888.75 588.5,-894.75 582.5,-900.75 576.5,-900.75 576.5,-900.75 555.25,-900.75 555.25,-900.75 549.25,-900.75 543.25,-894.75 543.25,-888.75 543.25,-888.75 543.25,-823.25 543.25,-823.25 543.25,-817.25 549.25,-811.25 555.25,-811.25"/>
</g>
<!-- Entry&#45;&gt;Init -->
<g id="edge1" class="edge">
<title>Entry&#45;&gt;Init</title>
<path fill="none" stroke="red" d="M565.88,-937.41C565.88,-931.5 565.88,-922.16 565.88,-911.91"/>
<polygon fill="red" stroke="red" points="569.38,-912.06 565.88,-902.06 562.38,-912.06 569.38,-912.06"/>
</g>
<!-- Selecting -->
<g id="node3" class="node">
<title>Selecting</title>
<path fill="azure" stroke="none" d="M241.75,-758.75C241.75,-758.75 12,-758.75 12,-758.75 6,-758.75 0,-752.75 0,-746.75 0,-746.75 0,-681.25 0,-681.25 0,-675.25 6,-669.25 12,-669.25 12,-669.25 241.75,-669.25 241.75,-669.25 247.75,-669.25 253.75,-675.25 253.75,-681.25 253.75,-681.25 253.75,-746.75 253.75,-746.75 253.75,-752.75 247.75,-758.75 241.75,-758.75"/>
<text xml:space="preserve" text-anchor="start" x="101" y="-738.45" font-family="Times,serif" font-weight="bold" font-size="14.00">Selecting</text>
<text xml:space="preserve" text-anchor="start" x="8" y="-713.25" font-family="Times,serif" font-size="10.00">$&gt;()</text>
<text xml:space="preserve" text-anchor="start" x="8" y="-702" font-family="Times,serif" font-size="10.00">offer_received(server_ip: str, offered_ip: str, lease_sec: int)</text>
<text xml:space="preserve" text-anchor="start" x="8" y="-690.75" font-family="Times,serif" font-size="10.00">status()</text>
<text xml:space="preserve" text-anchor="start" x="113.38" y="-679.5" font-family="Times,serif" font-size="10.00"> &#160;&#160;&#160;&#160;&#160;&#160;&#160;&#160;&#160;&#160;&#160;</text>
<polygon fill="#00688b" stroke="#00688b" points="0,-728.25 0,-728.25 253.75,-728.25 253.75,-728.25 0,-728.25"/>
<path fill="none" stroke="#00688b" d="M12,-669.25C12,-669.25 241.75,-669.25 241.75,-669.25 247.75,-669.25 253.75,-675.25 253.75,-681.25 253.75,-681.25 253.75,-746.75 253.75,-746.75 253.75,-752.75 247.75,-758.75 241.75,-758.75 241.75,-758.75 12,-758.75 12,-758.75 6,-758.75 0,-752.75 0,-746.75 0,-746.75 0,-681.25 0,-681.25 0,-675.25 6,-669.25 12,-669.25"/>
</g>
<!-- Init&#45;&gt;Selecting -->
<g id="edge2" class="edge">
<title>Init&#45;&gt;Selecting</title>
<path fill="none" stroke="red" d="M539.1,-853.4C482.74,-849.27 348.56,-835.45 245.12,-793.25 227.12,-785.9 208.97,-775.64 192.47,-764.96"/>
<polygon fill="red" stroke="red" points="194.49,-762.1 184.22,-759.48 190.62,-767.93 194.49,-762.1"/>
<text xml:space="preserve" text-anchor="middle" x="260.5" y="-779.95" font-family="Times,serif" font-size="14.00"> start </text>
</g>
<!-- Requesting -->
<g id="node4" class="node">
<title>Requesting</title>
<path fill="azure" stroke="none" d="M357.12,-616.75C357.12,-616.75 222.62,-616.75 222.62,-616.75 216.62,-616.75 210.62,-610.75 210.62,-604.75 210.62,-604.75 210.62,-528 210.62,-528 210.62,-522 216.62,-516 222.62,-516 222.62,-516 357.12,-516 357.12,-516 363.12,-516 369.12,-522 369.12,-528 369.12,-528 369.12,-604.75 369.12,-604.75 369.12,-610.75 363.12,-616.75 357.12,-616.75"/>
<text xml:space="preserve" text-anchor="start" x="257.62" y="-596.45" font-family="Times,serif" font-weight="bold" font-size="14.00">Requesting</text>
<text xml:space="preserve" text-anchor="start" x="218.62" y="-571.25" font-family="Times,serif" font-size="10.00">$&gt;()</text>
<text xml:space="preserve" text-anchor="start" x="218.62" y="-560" font-family="Times,serif" font-size="10.00">ack_received(ip: str, lease_sec: int)</text>
<text xml:space="preserve" text-anchor="start" x="218.62" y="-548.75" font-family="Times,serif" font-size="10.00">nak_received()</text>
<text xml:space="preserve" text-anchor="start" x="218.62" y="-537.5" font-family="Times,serif" font-size="10.00">status()</text>
<text xml:space="preserve" text-anchor="start" x="276.38" y="-526.25" font-family="Times,serif" font-size="10.00"> &#160;&#160;&#160;&#160;&#160;&#160;&#160;&#160;&#160;&#160;&#160;</text>
<polygon fill="#00688b" stroke="#00688b" points="210.62,-586.25 210.62,-586.25 369.12,-586.25 369.12,-586.25 210.62,-586.25"/>
<path fill="none" stroke="#00688b" d="M222.62,-516C222.62,-516 357.12,-516 357.12,-516 363.12,-516 369.12,-522 369.12,-528 369.12,-528 369.12,-604.75 369.12,-604.75 369.12,-610.75 363.12,-616.75 357.12,-616.75 357.12,-616.75 222.62,-616.75 222.62,-616.75 216.62,-616.75 210.62,-610.75 210.62,-604.75 210.62,-604.75 210.62,-528 210.62,-528 210.62,-522 216.62,-516 222.62,-516"/>
</g>
<!-- Selecting&#45;&gt;Requesting -->
<g id="edge3" class="edge">
<title>Selecting&#45;&gt;Requesting</title>
<path fill="none" stroke="red" d="M157.9,-669.53C167.4,-657.61 178.34,-645.12 189.62,-634.75 193.76,-630.95 198.14,-627.2 202.65,-623.54"/>
<polygon fill="red" stroke="red" points="204.57,-626.48 210.28,-617.55 200.25,-620.97 204.57,-626.48"/>
<text xml:space="preserve" text-anchor="middle" x="232.75" y="-637.95" font-family="Times,serif" font-size="14.00"> offer_received </text>
</g>
<!-- Requesting&#45;&gt;Init -->
<g id="edge5" class="edge">
<title>Requesting&#45;&gt;Init</title>
<path fill="none" stroke="red" d="M280.52,-616.45C275.4,-658.15 275.11,-717.62 304.38,-758.75 355.94,-831.21 468.3,-849.24 527.54,-853.64"/>
<polygon fill="red" stroke="red" points="527.28,-857.13 537.48,-854.27 527.73,-850.15 527.28,-857.13"/>
<text xml:space="preserve" text-anchor="middle" x="344.12" y="-708.95" font-family="Times,serif" font-size="14.00"> nak_received </text>
</g>
<!-- Bound -->
<g id="node5" class="node">
<title>Bound</title>
<path fill="azure" stroke="none" d="M353,-463.5C353,-463.5 310.75,-463.5 310.75,-463.5 304.75,-463.5 298.75,-457.5 298.75,-451.5 298.75,-451.5 298.75,-374.75 298.75,-374.75 298.75,-368.75 304.75,-362.75 310.75,-362.75 310.75,-362.75 353,-362.75 353,-362.75 359,-362.75 365,-368.75 365,-374.75 365,-374.75 365,-451.5 365,-451.5 365,-457.5 359,-463.5 353,-463.5"/>
<text xml:space="preserve" text-anchor="start" x="312.75" y="-443.2" font-family="Times,serif" font-weight="bold" font-size="14.00">Bound</text>
<text xml:space="preserve" text-anchor="start" x="306.75" y="-418" font-family="Times,serif" font-size="10.00">$&gt;()</text>
<text xml:space="preserve" text-anchor="start" x="306.75" y="-406.75" font-family="Times,serif" font-size="10.00">t1_expired()</text>
<text xml:space="preserve" text-anchor="start" x="306.75" y="-395.5" font-family="Times,serif" font-size="10.00">release()</text>
<text xml:space="preserve" text-anchor="start" x="306.75" y="-384.25" font-family="Times,serif" font-size="10.00">status()</text>
<text xml:space="preserve" text-anchor="start" x="318.38" y="-373" font-family="Times,serif" font-size="10.00"> &#160;&#160;&#160;&#160;&#160;&#160;&#160;&#160;&#160;&#160;&#160;</text>
<polygon fill="#00688b" stroke="#00688b" points="298.75,-433 298.75,-433 365,-433 365,-433 298.75,-433"/>
<path fill="none" stroke="#00688b" d="M310.75,-362.75C310.75,-362.75 353,-362.75 353,-362.75 359,-362.75 365,-368.75 365,-374.75 365,-374.75 365,-451.5 365,-451.5 365,-457.5 359,-463.5 353,-463.5 353,-463.5 310.75,-463.5 310.75,-463.5 304.75,-463.5 298.75,-457.5 298.75,-451.5 298.75,-451.5 298.75,-374.75 298.75,-374.75 298.75,-368.75 304.75,-362.75 310.75,-362.75"/>
</g>
<!-- Requesting&#45;&gt;Bound -->
<g id="edge4" class="edge">
<title>Requesting&#45;&gt;Bound</title>
<path fill="none" stroke="red" d="M296.35,-516.18C298.38,-504.69 300.95,-492.57 304.12,-481.5 304.82,-479.08 305.57,-476.63 306.37,-474.17"/>
<polygon fill="red" stroke="red" points="309.66,-475.38 309.64,-464.78 303.05,-473.08 309.66,-475.38"/>
<text xml:space="preserve" text-anchor="middle" x="343.5" y="-484.7" font-family="Times,serif" font-size="14.00"> ack_received </text>
</g>
<!-- Bound&#45;&gt;Init -->
<g id="edge7" class="edge">
<title>Bound&#45;&gt;Init</title>
<path fill="none" stroke="red" d="M364.8,-449.99C371.92,-459.6 378.6,-470.41 382.88,-481.5 410.12,-552.17 383.01,-576.98 397.88,-651.25 410.87,-716.17 399.91,-742.88 442.88,-793.25 465.09,-819.29 500.96,-835.53 528.25,-844.77"/>
<polygon fill="red" stroke="red" points="526.95,-848.03 537.54,-847.74 529.08,-841.36 526.95,-848.03"/>
<text xml:space="preserve" text-anchor="middle" x="420.38" y="-637.95" font-family="Times,serif" font-size="14.00"> release </text>
</g>
<!-- Renewing -->
<g id="node6" class="node">
<title>Renewing</title>
<path fill="azure" stroke="none" d="M607.12,-310.25C607.12,-310.25 472.62,-310.25 472.62,-310.25 466.62,-310.25 460.62,-304.25 460.62,-298.25 460.62,-298.25 460.62,-187.75 460.62,-187.75 460.62,-181.75 466.62,-175.75 472.62,-175.75 472.62,-175.75 607.12,-175.75 607.12,-175.75 613.12,-175.75 619.12,-181.75 619.12,-187.75 619.12,-187.75 619.12,-298.25 619.12,-298.25 619.12,-304.25 613.12,-310.25 607.12,-310.25"/>
<text xml:space="preserve" text-anchor="start" x="511.38" y="-289.95" font-family="Times,serif" font-weight="bold" font-size="14.00">Renewing</text>
<text xml:space="preserve" text-anchor="start" x="468.62" y="-264.75" font-family="Times,serif" font-size="10.00">$&gt;()</text>
<text xml:space="preserve" text-anchor="start" x="468.62" y="-253.5" font-family="Times,serif" font-size="10.00">ack_received(ip: str, lease_sec: int)</text>
<text xml:space="preserve" text-anchor="start" x="468.62" y="-242.25" font-family="Times,serif" font-size="10.00">nak_received()</text>
<text xml:space="preserve" text-anchor="start" x="468.62" y="-231" font-family="Times,serif" font-size="10.00">t2_expired()</text>
<text xml:space="preserve" text-anchor="start" x="468.62" y="-219.75" font-family="Times,serif" font-size="10.00">lease_expired()</text>
<text xml:space="preserve" text-anchor="start" x="468.62" y="-208.5" font-family="Times,serif" font-size="10.00">release()</text>
<text xml:space="preserve" text-anchor="start" x="468.62" y="-197.25" font-family="Times,serif" font-size="10.00">status()</text>
<text xml:space="preserve" text-anchor="start" x="526.38" y="-186" font-family="Times,serif" font-size="10.00"> &#160;&#160;&#160;&#160;&#160;&#160;&#160;&#160;&#160;&#160;&#160;</text>
<polygon fill="#00688b" stroke="#00688b" points="460.62,-279.75 460.62,-279.75 619.12,-279.75 619.12,-279.75 460.62,-279.75"/>
<path fill="none" stroke="#00688b" d="M472.62,-175.75C472.62,-175.75 607.12,-175.75 607.12,-175.75 613.12,-175.75 619.12,-181.75 619.12,-187.75 619.12,-187.75 619.12,-298.25 619.12,-298.25 619.12,-304.25 613.12,-310.25 607.12,-310.25 607.12,-310.25 472.62,-310.25 472.62,-310.25 466.62,-310.25 460.62,-304.25 460.62,-298.25 460.62,-298.25 460.62,-187.75 460.62,-187.75 460.62,-181.75 466.62,-175.75 472.62,-175.75"/>
</g>
<!-- Bound&#45;&gt;Renewing -->
<g id="edge6" class="edge">
<title>Bound&#45;&gt;Renewing</title>
<path fill="none" stroke="red" d="M322.88,-362.95C323.07,-350.71 325.57,-338.24 332.62,-328.25 346.06,-309.21 360.18,-318.76 381.88,-310.25 404.23,-301.48 428.19,-291.66 450.53,-282.32"/>
<polygon fill="red" stroke="red" points="451.74,-285.6 459.61,-278.51 449.04,-279.15 451.74,-285.6"/>
<text xml:space="preserve" text-anchor="middle" x="365.25" y="-331.45" font-family="Times,serif" font-size="14.00"> t1_expired </text>
</g>
<!-- Renewing&#45;&gt;Init -->
<g id="edge9" class="edge">
<title>Renewing&#45;&gt;Init</title>
<path fill="none" stroke="red" d="M516.13,-310.01C497.87,-364.45 474.16,-444.13 464.38,-516 458.33,-560.37 455.42,-572.88 464.38,-616.75 477.99,-683.44 511,-754.57 535.7,-801.57"/>
<polygon fill="red" stroke="red" points="532.49,-803 540.28,-810.18 538.67,-799.71 532.49,-803"/>
<text xml:space="preserve" text-anchor="middle" x="504.12" y="-561.33" font-family="Times,serif" font-size="14.00"> nak_received </text>
</g>
<!-- Renewing&#45;&gt;Init -->
<g id="edge11" class="edge">
<title>Renewing&#45;&gt;Init</title>
<path fill="none" stroke="red" d="M554.85,-309.91C560.63,-340.78 565.88,-378.16 565.88,-412.12 565.88,-715 565.88,-715 565.88,-715 565.88,-743.03 565.88,-774.22 565.88,-800.04"/>
<polygon fill="red" stroke="red" points="562.38,-799.97 565.88,-809.97 569.38,-799.97 562.38,-799.97"/>
<text xml:space="preserve" text-anchor="middle" x="606.75" y="-561.33" font-family="Times,serif" font-size="14.00"> lease_expired </text>
</g>
<!-- Renewing&#45;&gt;Init -->
<g id="edge12" class="edge">
<title>Renewing&#45;&gt;Init</title>
<path fill="none" stroke="red" d="M619.04,-297.25C652.5,-326.52 683.88,-366.2 683.88,-412.12 683.88,-715 683.88,-715 683.88,-715 683.88,-766.43 636.74,-808.77 602.06,-832.97"/>
<polygon fill="red" stroke="red" points="600.24,-829.97 593.91,-838.46 604.16,-835.77 600.24,-829.97"/>
<text xml:space="preserve" text-anchor="middle" x="706.38" y="-561.33" font-family="Times,serif" font-size="14.00"> release </text>
</g>
<!-- Renewing&#45;&gt;Bound -->
<g id="edge8" class="edge">
<title>Renewing&#45;&gt;Bound</title>
<path fill="none" stroke="red" d="M460.81,-297.8C447.33,-307.62 433.65,-318.01 421.12,-328.25 404.74,-341.66 387.6,-357.32 372.77,-371.46"/>
<polygon fill="red" stroke="red" points="370.66,-368.63 365.88,-378.08 375.51,-373.68 370.66,-368.63"/>
<text xml:space="preserve" text-anchor="middle" x="460.5" y="-331.45" font-family="Times,serif" font-size="14.00"> ack_received </text>
</g>
<!-- Rebinding -->
<g id="node7" class="node">
<title>Rebinding</title>
<path fill="azure" stroke="none" d="M806.12,-123.25C806.12,-123.25 671.62,-123.25 671.62,-123.25 665.62,-123.25 659.62,-117.25 659.62,-111.25 659.62,-111.25 659.62,-12 659.62,-12 659.62,-6 665.62,0 671.62,0 671.62,0 806.12,0 806.12,0 812.12,0 818.12,-6 818.12,-12 818.12,-12 818.12,-111.25 818.12,-111.25 818.12,-117.25 812.12,-123.25 806.12,-123.25"/>
<text xml:space="preserve" text-anchor="start" x="708.88" y="-102.95" font-family="Times,serif" font-weight="bold" font-size="14.00">Rebinding</text>
<text xml:space="preserve" text-anchor="start" x="667.62" y="-77.75" font-family="Times,serif" font-size="10.00">$&gt;()</text>
<text xml:space="preserve" text-anchor="start" x="667.62" y="-66.5" font-family="Times,serif" font-size="10.00">ack_received(ip: str, lease_sec: int)</text>
<text xml:space="preserve" text-anchor="start" x="667.62" y="-55.25" font-family="Times,serif" font-size="10.00">nak_received()</text>
<text xml:space="preserve" text-anchor="start" x="667.62" y="-44" font-family="Times,serif" font-size="10.00">lease_expired()</text>
<text xml:space="preserve" text-anchor="start" x="667.62" y="-32.75" font-family="Times,serif" font-size="10.00">release()</text>
<text xml:space="preserve" text-anchor="start" x="667.62" y="-21.5" font-family="Times,serif" font-size="10.00">status()</text>
<text xml:space="preserve" text-anchor="start" x="725.38" y="-10.25" font-family="Times,serif" font-size="10.00"> &#160;&#160;&#160;&#160;&#160;&#160;&#160;&#160;&#160;&#160;&#160;</text>
<polygon fill="#00688b" stroke="#00688b" points="659.62,-92.75 659.62,-92.75 818.12,-92.75 818.12,-92.75 659.62,-92.75"/>
<path fill="none" stroke="#00688b" d="M671.62,0C671.62,0 806.12,0 806.12,0 812.12,0 818.12,-6 818.12,-12 818.12,-12 818.12,-111.25 818.12,-111.25 818.12,-117.25 812.12,-123.25 806.12,-123.25 806.12,-123.25 671.62,-123.25 671.62,-123.25 665.62,-123.25 659.62,-117.25 659.62,-111.25 659.62,-111.25 659.62,-12 659.62,-12 659.62,-6 665.62,0 671.62,0"/>
</g>
<!-- Renewing&#45;&gt;Rebinding -->
<g id="edge10" class="edge">
<title>Renewing&#45;&gt;Rebinding</title>
<path fill="none" stroke="red" d="M613.13,-175.97C629.45,-161.26 646.8,-145.62 663.22,-130.82"/>
<polygon fill="red" stroke="red" points="665.5,-133.47 670.59,-124.18 660.81,-128.28 665.5,-133.47"/>
<text xml:space="preserve" text-anchor="middle" x="683.91" y="-144.45" font-family="Times,serif" font-size="14.00"> t2_expired </text>
</g>
<!-- Rebinding&#45;&gt;Init -->
<g id="edge14" class="edge">
<title>Rebinding&#45;&gt;Init</title>
<path fill="none" stroke="red" d="M739.12,-123.23C739.53,-256.93 739.72,-569.08 732.88,-616.75 721.01,-699.34 729.84,-736.28 668.88,-793.25 649.33,-811.52 623.5,-826.99 602.59,-837.87"/>
<polygon fill="red" stroke="red" points="601.17,-834.67 593.83,-842.31 604.33,-840.92 601.17,-834.67"/>
<text xml:space="preserve" text-anchor="middle" x="777.6" y="-484.7" font-family="Times,serif" font-size="14.00"> nak_received </text>
</g>
<!-- Rebinding&#45;&gt;Init -->
<g id="edge15" class="edge">
<title>Rebinding&#45;&gt;Init</title>
<path fill="none" stroke="red" d="M794.29,-123.01C818.67,-155.75 841.88,-198.37 841.88,-242 841.88,-715 841.88,-715 841.88,-715 841.88,-820.32 680.07,-846.43 604.24,-852.89"/>
<polygon fill="red" stroke="red" points="604.05,-849.39 594.35,-853.65 604.59,-856.37 604.05,-849.39"/>
<text xml:space="preserve" text-anchor="middle" x="882.75" y="-484.7" font-family="Times,serif" font-size="14.00"> lease_expired </text>
</g>
<!-- Rebinding&#45;&gt;Init -->
<g id="edge16" class="edge">
<title>Rebinding&#45;&gt;Init</title>
<path fill="none" stroke="red" d="M818.1,-93.49C876.88,-122.17 946.88,-171.19 946.88,-242 946.88,-715 946.88,-715 946.88,-715 946.88,-787.55 700.38,-833.97 603.92,-849.35"/>
<polygon fill="red" stroke="red" points="603.5,-845.87 594.16,-850.88 604.58,-852.79 603.5,-845.87"/>
<text xml:space="preserve" text-anchor="middle" x="969.38" y="-484.7" font-family="Times,serif" font-size="14.00"> release </text>
</g>
<!-- Rebinding&#45;&gt;Bound -->
<g id="edge13" class="edge">
<title>Rebinding&#45;&gt;Bound</title>
<path fill="none" stroke="red" d="M659.92,-66.7C577.9,-75.07 450.88,-100.3 373.12,-175.75 316.7,-230.5 314.52,-266.39 320.88,-344.75 321.06,-347.06 321.28,-349.4 321.54,-351.77"/>
<polygon fill="red" stroke="red" points="318.03,-351.93 322.72,-361.43 324.98,-351.08 318.03,-351.93"/>
<text xml:space="preserve" text-anchor="middle" x="412.5" y="-237.95" font-family="Times,serif" font-size="14.00"> ack_received </text>
</g>
</g>
</svg>
