<?xml version="1.0" encoding="UTF-8" standalone="no"?>
<!DOCTYPE svg PUBLIC "-//W3C//DTD SVG 1.1//EN"
 "http://www.w3.org/Graphics/SVG/1.1/DTD/svg11.dtd">
<!-- Generated by graphviz version 14.1.5 (20260411.2331)
 -->
<!-- Title: TlsServerHandshake Pages: 1 -->
<svg width="396pt" height="992pt"
 viewBox="0.00 0.00 396.00 992.00" xmlns="http://www.w3.org/2000/svg" xmlns:xlink="http://www.w3.org/1999/xlink">
<g id="graph0" class="graph" transform="scale(1 1) rotate(0) translate(4 988.4)">
<title>TlsServerHandshake</title>
<polygon fill="white" stroke="none" points="-4,4 -4,-988.4 391.62,-988.4 391.62,4 -4,4"/>
<g id="clust1" class="cluster">
<title>cluster_Handshaking</title>
<path fill="none" stroke="black" d="M78.38,-264.75C78.38,-264.75 242.38,-264.75 242.38,-264.75 248.38,-264.75 254.38,-270.75 254.38,-276.75 254.38,-276.75 254.38,-800.25 254.38,-800.25 254.38,-806.25 248.38,-812.25 242.38,-812.25 242.38,-812.25 78.38,-812.25 78.38,-812.25 72.38,-812.25 66.38,-806.25 66.38,-800.25 66.38,-800.25 66.38,-276.75 66.38,-276.75 66.38,-270.75 72.38,-264.75 78.38,-264.75"/>
<text xml:space="preserve" text-anchor="start" x="124.75" y="-791.5" font-family="Times,serif" font-size="14.00">Handshaking</text>
<text xml:space="preserve" text-anchor="start" x="112" y="-772.75" font-family="Times,serif" font-size="10.00">alert(level: str, desc: str)</text>
<text xml:space="preserve" text-anchor="start" x="142.38" y="-761.5" font-family="Times,serif" font-size="10.00"> &#160;&#160;&#160;&#160;&#160;&#160;&#160;&#160;&#160;&#160;&#160;&#160;&#160;&#160;&#160;</text>
<polygon fill="black" stroke="black" points="108,-784.75 108,-784.75 212.75,-784.75 212.75,-784.75 108,-784.75"/>
</g>
<!-- Entry -->
<g id="node1" class="node">
<title>Entry</title>
<ellipse fill="black" stroke="#00688b" cx="244.38" cy="-977.2" rx="7.2" ry="7.2"/>
</g>
<!-- Idle -->
<g id="node2" class="node">
<title>Idle</title>
<path fill="azure" stroke="none" d="M316.5,-933C316.5,-933 172.25,-933 172.25,-933 166.25,-933 160.25,-927 160.25,-921 160.25,-921 160.25,-866.75 160.25,-866.75 160.25,-860.75 166.25,-854.75 172.25,-854.75 172.25,-854.75 316.5,-854.75 316.5,-854.75 322.5,-854.75 328.5,-860.75 328.5,-866.75 328.5,-866.75 328.5,-921 328.5,-921 328.5,-927 322.5,-933 316.5,-933"/>
<text xml:space="preserve" text-anchor="start" x="233.12" y="-912.7" font-family="Times,serif" font-weight="bold" font-size="14.00">Idle</text>
<text xml:space="preserve" text-anchor="start" x="168.25" y="-887.5" font-family="Times,serif" font-size="10.00">client_hello(version: str, ciphers: list)</text>
<text xml:space="preserve" text-anchor="start" x="168.25" y="-876.25" font-family="Times,serif" font-size="10.00">status()</text>
<text xml:space="preserve" text-anchor="start" x="230.88" y="-865" font-family="Times,serif" font-size="10.00"> &#160;&#160;&#160;&#160;&#160;&#160;&#160;&#160;&#160;&#160;&#160;</text>
<polygon fill="#00688b" stroke="#00688b" points="160.25,-902.5 160.25,-902.5 328.5,-902.5 328.5,-902.5 160.25,-902.5"/>
<path fill="none" stroke="#00688b" d="M172.25,-854.75C172.25,-854.75 316.5,-854.75 316.5,-854.75 322.5,-854.75 328.5,-860.75 328.5,-866.75 328.5,-866.75 328.5,-921 328.5,-921 328.5,-927 322.5,-933 316.5,-933 316.5,-933 172.25,-933 172.25,-933 166.25,-933 160.25,-927 160.25,-921 160.25,-921 160.25,-866.75 160.25,-866.75 160.25,-860.75 166.25,-854.75 172.25,-854.75"/>
</g>
<!-- Entry&#45;&gt;Idle -->
<g id="edge1" class="edge">
<title>Entry&#45;&gt;Idle</title>
<path fill="none" stroke="red" d="M244.38,-969.54C244.38,-963.53 244.38,-954.07 244.38,-943.88"/>
<polygon fill="red" stroke="red" points="247.88,-944.19 244.38,-934.19 240.88,-944.19 247.88,-944.19"/>
</g>
<!-- ServerHello -->
<g id="node4" class="node">
<title>ServerHello</title>
<path fill="azure" stroke="none" d="M203.25,-743.25C203.25,-743.25 141.5,-743.25 141.5,-743.25 135.5,-743.25 129.5,-737.25 129.5,-731.25 129.5,-731.25 129.5,-677 129.5,-677 129.5,-671 135.5,-665 141.5,-665 141.5,-665 203.25,-665 203.25,-665 209.25,-665 215.25,-671 215.25,-677 215.25,-677 215.25,-731.25 215.25,-731.25 215.25,-737.25 209.25,-743.25 203.25,-743.25"/>
<text xml:space="preserve" text-anchor="start" x="137.5" y="-722.95" font-family="Times,serif" font-weight="bold" font-size="14.00">ServerHello</text>
<text xml:space="preserve" text-anchor="start" x="137.5" y="-697.75" font-family="Times,serif" font-size="10.00">$&gt;()</text>
<text xml:space="preserve" text-anchor="start" x="137.5" y="-686.5" font-family="Times,serif" font-size="10.00">status()</text>
<text xml:space="preserve" text-anchor="start" x="137.5" y="-675.25" font-family="Times,serif" font-size="10.00"> &#160;&#160;&#160;&#160;&#160;&#160;&#160;&#160;&#160;&#160;&#160;&#160;&#160;&#160;&#160;</text>
<polygon fill="#00688b" stroke="#00688b" points="129.5,-712.75 129.5,-712.75 215.25,-712.75 215.25,-712.75 129.5,-712.75"/>
<path fill="none" stroke="#00688b" d="M141.5,-665C141.5,-665 203.25,-665 203.25,-665 209.25,-665 215.25,-671 215.25,-677 215.25,-677 215.25,-731.25 215.25,-731.25 215.25,-737.25 209.25,-743.25 203.25,-743.25 203.25,-743.25 141.5,-743.25 141.5,-743.25 135.5,-743.25 129.5,-737.25 129.5,-731.25 129.5,-731.25 129.5,-677 129.5,-677 129.5,-671 135.5,-665 141.5,-665"/>
</g>
<!-- Idle&#45;&gt;ServerHello -->
<g id="edge3" class="edge">
<title>Idle&#45;&gt;ServerHello</title>
<path fill="none" stroke="red" d="M229.8,-854.88C218.63,-825.74 203.13,-785.31 191.04,-753.8"/>
<polygon fill="red" stroke="red" points="194.31,-752.56 187.47,-744.48 187.78,-755.07 194.31,-752.56"/>
<text xml:space="preserve" text-anchor="middle" x="256.71" y="-823.45" font-family="Times,serif" font-size="14.00"> client_hello </text>
</g>
<!-- Closed -->
<g id="node9" class="node">
<title>Closed</title>
<path fill="azure" stroke="none" d="M226.88,-78.25C226.88,-78.25 195.88,-78.25 195.88,-78.25 189.88,-78.25 183.88,-72.25 183.88,-66.25 183.88,-66.25 183.88,-12 183.88,-12 183.88,-6 189.88,0 195.88,0 195.88,0 226.88,0 226.88,0 232.88,0 238.88,-6 238.88,-12 238.88,-12 238.88,-66.25 238.88,-66.25 238.88,-72.25 232.88,-78.25 226.88,-78.25"/>
<text xml:space="preserve" text-anchor="start" x="191.88" y="-57.95" font-family="Times,serif" font-weight="bold" font-size="14.00">Closed</text>
<text xml:space="preserve" text-anchor="start" x="191.88" y="-32.75" font-family="Times,serif" font-size="10.00">$&gt;()</text>
<text xml:space="preserve" text-anchor="start" x="191.88" y="-21.5" font-family="Times,serif" font-size="10.00">status()</text>
<text xml:space="preserve" text-anchor="start" x="193" y="-10.25" font-family="Times,serif" font-size="10.00"> &#160;&#160;&#160;&#160;&#160;&#160;&#160;&#160;&#160;&#160;&#160;</text>
<polygon fill="#00688b" stroke="#00688b" points="183.88,-47.75 183.88,-47.75 238.88,-47.75 238.88,-47.75 183.88,-47.75"/>
<path fill="none" stroke="#00688b" d="M195.88,0C195.88,0 226.88,0 226.88,0 232.88,0 238.88,-6 238.88,-12 238.88,-12 238.88,-66.25 238.88,-66.25 238.88,-72.25 232.88,-78.25 226.88,-78.25 226.88,-78.25 195.88,-78.25 195.88,-78.25 189.88,-78.25 183.88,-72.25 183.88,-66.25 183.88,-66.25 183.88,-12 183.88,-12 183.88,-6 189.88,0 195.88,0"/>
</g>
<!-- Idle&#45;&gt;Closed -->
<g id="edge2" class="edge">
<title>Idle&#45;&gt;Closed</title>
<path fill="none" stroke="red" d="M284.85,-854.93C289.3,-849.21 293.32,-843.09 296.38,-836.75 322.06,-783.44 316.38,-764.3 316.38,-705.12 316.38,-705.12 316.38,-705.12 316.38,-174.5 316.38,-128.75 278.12,-89.28 247.8,-65.17"/>
<polygon fill="red" stroke="red" points="249.96,-62.41 239.89,-59.11 245.7,-67.97 249.96,-62.41"/>
<text xml:space="preserve" text-anchor="middle" x="352" y="-437.57" font-family="Times,serif" font-size="14.00"> client_hello </text>
</g>
<!-- Handshaking -->
<g id="node3" class="node">
<title>Handshaking</title>
<ellipse fill="azure" stroke="#00688b" cx="246.38" cy="-704.12" rx="0.36" ry="0.36"/>
</g>
<!-- Handshaking&#45;&gt;Closed -->
<g id="edge9" class="edge">
<title>Handshaking&#45;&gt;Closed</title>
<path fill="none" stroke="red" d="M254.37,-674.93C261.01,-649.02 269.38,-609.42 269.38,-574.38 269.38,-574.38 269.38,-574.38 269.38,-174.5 269.38,-144.13 256.73,-112.82 243.25,-88.08"/>
<polygon fill="red" stroke="red" points="246.39,-86.52 238.41,-79.56 240.31,-89.98 246.39,-86.52"/>
<text xml:space="preserve" text-anchor="middle" x="285.12" y="-372.2" font-family="Times,serif" font-size="14.00"> alert </text>
</g>
<!-- AwaitClientKeyExchange -->
<g id="node5" class="node">
<title>AwaitClientKeyExchange</title>
<path fill="azure" stroke="none" d="M229.38,-612.5C229.38,-612.5 87.38,-612.5 87.38,-612.5 81.38,-612.5 75.38,-606.5 75.38,-600.5 75.38,-600.5 75.38,-546.25 75.38,-546.25 75.38,-540.25 81.38,-534.25 87.38,-534.25 87.38,-534.25 229.38,-534.25 229.38,-534.25 235.38,-534.25 241.38,-540.25 241.38,-546.25 241.38,-546.25 241.38,-600.5 241.38,-600.5 241.38,-606.5 235.38,-612.5 229.38,-612.5"/>
<text xml:space="preserve" text-anchor="start" x="83.38" y="-592.2" font-family="Times,serif" font-weight="bold" font-size="14.00">AwaitClientKeyExchange</text>
<text xml:space="preserve" text-anchor="start" x="83.38" y="-567" font-family="Times,serif" font-size="10.00">client_key_exchange(key_data: str)</text>
<text xml:space="preserve" text-anchor="start" x="83.38" y="-555.75" font-family="Times,serif" font-size="10.00">status()</text>
<text xml:space="preserve" text-anchor="start" x="138.5" y="-544.5" font-family="Times,serif" font-size="10.00"> &#160;&#160;&#160;&#160;&#160;&#160;&#160;&#160;&#160;&#160;&#160;&#160;&#160;&#160;&#160;</text>
<polygon fill="#00688b" stroke="#00688b" points="75.38,-582 75.38,-582 241.38,-582 241.38,-582 75.38,-582"/>
<path fill="none" stroke="#00688b" d="M87.38,-534.25C87.38,-534.25 229.38,-534.25 229.38,-534.25 235.38,-534.25 241.38,-540.25 241.38,-546.25 241.38,-546.25 241.38,-600.5 241.38,-600.5 241.38,-606.5 235.38,-612.5 229.38,-612.5 229.38,-612.5 87.38,-612.5 87.38,-612.5 81.38,-612.5 75.38,-606.5 75.38,-600.5 75.38,-600.5 75.38,-546.25 75.38,-546.25 75.38,-540.25 81.38,-534.25 87.38,-534.25"/>
</g>
<!-- ServerHello&#45;&gt;AwaitClientKeyExchange -->
<g id="edge4" class="edge">
<title>ServerHello&#45;&gt;AwaitClientKeyExchange</title>
<path fill="none" stroke="red" d="M168.25,-665.19C166.84,-652.21 165.24,-637.49 163.74,-623.74"/>
<polygon fill="red" stroke="red" points="167.24,-623.55 162.68,-613.99 160.28,-624.31 167.24,-623.55"/>
<text xml:space="preserve" text-anchor="middle" x="177.46" y="-633.7" font-family="Times,serif" font-size="14.00"> $&gt; </text>
</g>
<!-- AwaitChangeCipherSpec -->
<g id="node6" class="node">
<title>AwaitChangeCipherSpec</title>
<path fill="azure" stroke="none" d="M224.5,-481.75C224.5,-481.75 86.25,-481.75 86.25,-481.75 80.25,-481.75 74.25,-475.75 74.25,-469.75 74.25,-469.75 74.25,-415.5 74.25,-415.5 74.25,-409.5 80.25,-403.5 86.25,-403.5 86.25,-403.5 224.5,-403.5 224.5,-403.5 230.5,-403.5 236.5,-409.5 236.5,-415.5 236.5,-415.5 236.5,-469.75 236.5,-469.75 236.5,-475.75 230.5,-481.75 224.5,-481.75"/>
<text xml:space="preserve" text-anchor="start" x="82.25" y="-461.45" font-family="Times,serif" font-weight="bold" font-size="14.00">AwaitChangeCipherSpec</text>
<text xml:space="preserve" text-anchor="start" x="82.25" y="-436.25" font-family="Times,serif" font-size="10.00">client_change_cipher_spec()</text>
<text xml:space="preserve" text-anchor="start" x="82.25" y="-425" font-family="Times,serif" font-size="10.00">status()</text>
<text xml:space="preserve" text-anchor="start" x="123.12" y="-413.75" font-family="Times,serif" font-size="10.00"> &#160;&#160;&#160;&#160;&#160;&#160;&#160;&#160;&#160;&#160;&#160;&#160;&#160;&#160;&#160;</text>
<polygon fill="#00688b" stroke="#00688b" points="74.25,-451.25 74.25,-451.25 236.5,-451.25 236.5,-451.25 74.25,-451.25"/>
<path fill="none" stroke="#00688b" d="M86.25,-403.5C86.25,-403.5 224.5,-403.5 224.5,-403.5 230.5,-403.5 236.5,-409.5 236.5,-415.5 236.5,-415.5 236.5,-469.75 236.5,-469.75 236.5,-475.75 230.5,-481.75 224.5,-481.75 224.5,-481.75 86.25,-481.75 86.25,-481.75 80.25,-481.75 74.25,-475.75 74.25,-469.75 74.25,-469.75 74.25,-415.5 74.25,-415.5 74.25,-409.5 80.25,-403.5 86.25,-403.5"/>
</g>
<!-- AwaitClientKeyExchange&#45;&gt;AwaitChangeCipherSpec -->
<g id="edge5" class="edge">
<title>AwaitClientKeyExchange&#45;&gt;AwaitChangeCipherSpec</title>
<path fill="none" stroke="red" d="M139.34,-534.42C137.08,-528.47 135.14,-522.29 133.88,-516.25 132.25,-508.46 132.59,-500.3 134.07,-492.38"/>
<polygon fill="red" stroke="red" points="137.41,-493.41 136.44,-482.86 130.62,-491.72 137.41,-493.41"/>
<text xml:space="preserve" text-anchor="middle" x="194.62" y="-502.95" font-family="Times,serif" font-size="14.00"> client_key_exchange </text>
</g>
<!-- AwaitClientFinished -->
<g id="node7" class="node">
<title>AwaitClientFinished</title>
<path fill="azure" stroke="none" d="M198,-351C198,-351 86.75,-351 86.75,-351 80.75,-351 74.75,-345 74.75,-339 74.75,-339 74.75,-284.75 74.75,-284.75 74.75,-278.75 80.75,-272.75 86.75,-272.75 86.75,-272.75 198,-272.75 198,-272.75 204,-272.75 210,-278.75 210,-284.75 210,-284.75 210,-339 210,-339 210,-345 204,-351 198,-351"/>
<text xml:space="preserve" text-anchor="start" x="82.75" y="-330.7" font-family="Times,serif" font-weight="bold" font-size="14.00">AwaitClientFinished</text>
<text xml:space="preserve" text-anchor="start" x="82.75" y="-305.5" font-family="Times,serif" font-size="10.00">client_finished(verify: str)</text>
<text xml:space="preserve" text-anchor="start" x="82.75" y="-294.25" font-family="Times,serif" font-size="10.00">status()</text>
<text xml:space="preserve" text-anchor="start" x="118" y="-283" font-family="Times,serif" font-size="10.00"> &#160;&#160;&#160;&#160;&#160;&#160;&#160;&#160;&#160;&#160;&#160;&#160;&#160;&#160;&#160;</text>
<polygon fill="#00688b" stroke="#00688b" points="74.75,-320.5 74.75,-320.5 210,-320.5 210,-320.5 74.75,-320.5"/>
<path fill="none" stroke="#00688b" d="M86.75,-272.75C86.75,-272.75 198,-272.75 198,-272.75 204,-272.75 210,-278.75 210,-284.75 210,-284.75 210,-339 210,-339 210,-345 204,-351 198,-351 198,-351 86.75,-351 86.75,-351 80.75,-351 74.75,-345 74.75,-339 74.75,-339 74.75,-284.75 74.75,-284.75 74.75,-278.75 80.75,-272.75 86.75,-272.75"/>
</g>
<!-- AwaitChangeCipherSpec&#45;&gt;AwaitClientFinished -->
<g id="edge6" class="edge">
<title>AwaitChangeCipherSpec&#45;&gt;AwaitClientFinished</title>
<path fill="none" stroke="red" d="M105.18,-403.61C100.53,-398.05 96.5,-391.99 93.62,-385.5 89.99,-377.29 90.64,-369 93.78,-361.11"/>
<polygon fill="red" stroke="red" points="96.84,-362.8 98.47,-352.33 90.67,-359.5 96.84,-362.8"/>
<text xml:space="preserve" text-anchor="middle" x="170.5" y="-372.2" font-family="Times,serif" font-size="14.00"> client_change_cipher_spec </text>
</g>
<!-- Established -->
<g id="node8" class="node">
<title>Established</title>
<path fill="azure" stroke="none" d="M100.75,-220.25C100.75,-220.25 12,-220.25 12,-220.25 6,-220.25 0,-214.25 0,-208.25 0,-208.25 0,-142.75 0,-142.75 0,-136.75 6,-130.75 12,-130.75 12,-130.75 100.75,-130.75 100.75,-130.75 106.75,-130.75 112.75,-136.75 112.75,-142.75 112.75,-142.75 112.75,-208.25 112.75,-208.25 112.75,-214.25 106.75,-220.25 100.75,-220.25"/>
<text xml:space="preserve" text-anchor="start" x="23" y="-199.95" font-family="Times,serif" font-weight="bold" font-size="14.00">Established</text>
<text xml:space="preserve" text-anchor="start" x="8" y="-174.75" font-family="Times,serif" font-size="10.00">$&gt;()</text>
<text xml:space="preserve" text-anchor="start" x="8" y="-163.5" font-family="Times,serif" font-size="10.00">alert(level: str, desc: str)</text>
<text xml:space="preserve" text-anchor="start" x="8" y="-152.25" font-family="Times,serif" font-size="10.00">status()</text>
<text xml:space="preserve" text-anchor="start" x="42.88" y="-141" font-family="Times,serif" font-size="10.00"> &#160;&#160;&#160;&#160;&#160;&#160;&#160;&#160;&#160;&#160;&#160;</text>
<polygon fill="#00688b" stroke="#00688b" points="0,-189.75 0,-189.75 112.75,-189.75 112.75,-189.75 0,-189.75"/>
<path fill="none" stroke="#00688b" d="M12,-130.75C12,-130.75 100.75,-130.75 100.75,-130.75 106.75,-130.75 112.75,-136.75 112.75,-142.75 112.75,-142.75 112.75,-208.25 112.75,-208.25 112.75,-214.25 106.75,-220.25 100.75,-220.25 100.75,-220.25 12,-220.25 12,-220.25 6,-220.25 0,-214.25 0,-208.25 0,-208.25 0,-142.75 0,-142.75 0,-136.75 6,-130.75 12,-130.75"/>
</g>
<!-- AwaitClientFinished&#45;&gt;Established -->
<g id="edge7" class="edge">
<title>AwaitClientFinished&#45;&gt;Established</title>
<path fill="none" stroke="red" d="M75.1,-280.66C65.69,-273.52 57.31,-264.94 51.62,-254.75 47.62,-247.56 45.77,-239.39 45.28,-231.12"/>
<polygon fill="red" stroke="red" points="48.78,-231.4 45.38,-221.36 41.78,-231.33 48.78,-231.4"/>
<text xml:space="preserve" text-anchor="middle" x="95.5" y="-241.45" font-family="Times,serif" font-size="14.00"> client_finished </text>
</g>
<!-- AwaitClientFinished&#45;&gt;Closed -->
<g id="edge8" class="edge">
<title>AwaitClientFinished&#45;&gt;Closed</title>
<path fill="none" stroke="red" d="M144.28,-272.89C146.92,-235.92 153.14,-178.49 167.62,-130.75 171.99,-116.36 178.36,-101.4 184.9,-87.89"/>
<polygon fill="red" stroke="red" points="187.9,-89.73 189.23,-79.22 181.63,-86.6 187.9,-89.73"/>
<text xml:space="preserve" text-anchor="middle" x="211.5" y="-170.45" font-family="Times,serif" font-size="14.00"> client_finished </text>
</g>
<!-- Established&#45;&gt;Closed -->
<g id="edge10" class="edge">
<title>Established&#45;&gt;Closed</title>
<path fill="none" stroke="red" d="M79.66,-130.95C87.53,-118.76 97.09,-106.15 107.88,-96.25 126.98,-78.71 152.57,-64.77 173.53,-55.17"/>
<polygon fill="red" stroke="red" points="174.88,-58.4 182.62,-51.16 172.06,-51.99 174.88,-58.4"/>
<text xml:space="preserve" text-anchor="middle" x="123.62" y="-99.45" font-family="Times,serif" font-size="14.00"> alert </text>
</g>
</g>
</svg>
