<?xml version="1.0" encoding="UTF-8" standalone="no"?>
<!DOCTYPE svg PUBLIC "-//W3C//DTD SVG 1.1//EN"
 "http://www.w3.org/Graphics/SVG/1.1/DTD/svg11.dtd">
<!-- Generated by graphviz version 14.1.5 (20260411.2331)
 -->
<!-- Title: WifiStation Pages: 1 -->
<svg width="801pt" height="766pt"
 viewBox="0.00 0.00 801.00 766.00" xmlns="http://www.w3.org/2000/svg" xmlns:xlink="http://www.w3.org/1999/xlink">
<g id="graph0" class="graph" transform="scale(1 1) rotate(0) translate(4 762)">
<title>WifiStation</title>
<polygon fill="white" stroke="none" points="-4,4 -4,-762 796.68,-762 796.68,4 -4,4"/>
<g id="clust1" class="cluster">
<title>cluster_Associated</title>
<path fill="none" stroke="black" d="M20,-8C20,-8 273,-8 273,-8 279,-8 285,-14 285,-20 285,-20 285,-596.75 285,-596.75 285,-602.75 279,-608.75 273,-608.75 273,-608.75 20,-608.75 20,-608.75 14,-608.75 8,-602.75 8,-596.75 8,-596.75 8,-20 8,-20 8,-14 14,-8 20,-8"/>
<text xml:space="preserve" text-anchor="start" x="116.88" y="-588" font-family="Times,serif" font-size="14.00">Associated</text>
<text xml:space="preserve" text-anchor="start" x="109" y="-569.25" font-family="Times,serif" font-size="10.00">deauth(reason: str)</text>
<text xml:space="preserve" text-anchor="start" x="109" y="-558" font-family="Times,serif" font-size="10.00">disconnect()</text>
<text xml:space="preserve" text-anchor="start" x="128.5" y="-546.75" font-family="Times,serif" font-size="10.00"> &#160;&#160;&#160;&#160;&#160;&#160;&#160;&#160;&#160;&#160;&#160;&#160;&#160;&#160;&#160;</text>
<polygon fill="black" stroke="black" points="105,-581.25 105,-581.25 188,-581.25 188,-581.25 105,-581.25"/>
</g>
<!-- Entry -->
<g id="node1" class="node">
<title>Entry</title>
<ellipse fill="black" stroke="#00688b" cx="765" cy="-411.5" rx="7.2" ry="7.2"/>
</g>
<!-- Disconnected -->
<g id="node2" class="node">
<title>Disconnected</title>
<path fill="azure" stroke="none" d="M536.38,-291.75C536.38,-291.75 423.62,-291.75 423.62,-291.75 417.62,-291.75 411.62,-285.75 411.62,-279.75 411.62,-279.75 411.62,-225.5 411.62,-225.5 411.62,-219.5 417.62,-213.5 423.62,-213.5 423.62,-213.5 536.38,-213.5 536.38,-213.5 542.38,-213.5 548.38,-219.5 548.38,-225.5 548.38,-225.5 548.38,-279.75 548.38,-279.75 548.38,-285.75 542.38,-291.75 536.38,-291.75"/>
<text xml:space="preserve" text-anchor="start" x="441.75" y="-271.45" font-family="Times,serif" font-weight="bold" font-size="14.00">Disconnected</text>
<text xml:space="preserve" text-anchor="start" x="419.62" y="-246.25" font-family="Times,serif" font-size="10.00">scan_done(bssid: str, ssid: str)</text>
<text xml:space="preserve" text-anchor="start" x="419.62" y="-235" font-family="Times,serif" font-size="10.00">status()</text>
<text xml:space="preserve" text-anchor="start" x="466.5" y="-223.75" font-family="Times,serif" font-size="10.00"> &#160;&#160;&#160;&#160;&#160;&#160;&#160;&#160;&#160;&#160;&#160;</text>
<polygon fill="#00688b" stroke="#00688b" points="411.62,-261.25 411.62,-261.25 548.38,-261.25 548.38,-261.25 411.62,-261.25"/>
<path fill="none" stroke="#00688b" d="M423.62,-213.5C423.62,-213.5 536.38,-213.5 536.38,-213.5 542.38,-213.5 548.38,-219.5 548.38,-225.5 548.38,-225.5 548.38,-279.75 548.38,-279.75 548.38,-285.75 542.38,-291.75 536.38,-291.75 536.38,-291.75 423.62,-291.75 423.62,-291.75 417.62,-291.75 411.62,-285.75 411.62,-279.75 411.62,-279.75 411.62,-225.5 411.62,-225.5 411.62,-219.5 417.62,-213.5 423.62,-213.5"/>
</g>
<!-- Entry&#45;&gt;Disconnected -->
<g id="edge1" class="edge">
<title>Entry&#45;&gt;Disconnected</title>
<path fill="none" stroke="red" d="M763.09,-404.2C757.8,-387.86 741.4,-343.79 712,-321 668.19,-287.04 607.79,-270.19 559.6,-261.83"/>
<polygon fill="red" stroke="red" points="560.18,-258.38 549.75,-260.22 559.05,-265.29 560.18,-258.38"/>
</g>
<!-- Authenticating -->
<g id="node4" class="node">
<title>Authenticating</title>
<path fill="azure" stroke="none" d="M246.25,-456.25C246.25,-456.25 135.75,-456.25 135.75,-456.25 129.75,-456.25 123.75,-450.25 123.75,-444.25 123.75,-444.25 123.75,-378.75 123.75,-378.75 123.75,-372.75 129.75,-366.75 135.75,-366.75 135.75,-366.75 246.25,-366.75 246.25,-366.75 252.25,-366.75 258.25,-372.75 258.25,-378.75 258.25,-378.75 258.25,-444.25 258.25,-444.25 258.25,-450.25 252.25,-456.25 246.25,-456.25"/>
<text xml:space="preserve" text-anchor="start" x="147.88" y="-435.95" font-family="Times,serif" font-weight="bold" font-size="14.00">Authenticating</text>
<text xml:space="preserve" text-anchor="start" x="131.75" y="-410.75" font-family="Times,serif" font-size="10.00">$&gt;()</text>
<text xml:space="preserve" text-anchor="start" x="131.75" y="-399.5" font-family="Times,serif" font-size="10.00">auth_response(success: bool)</text>
<text xml:space="preserve" text-anchor="start" x="131.75" y="-388.25" font-family="Times,serif" font-size="10.00">status()</text>
<text xml:space="preserve" text-anchor="start" x="173" y="-377" font-family="Times,serif" font-size="10.00"> &#160;&#160;&#160;&#160;&#160;&#160;&#160;&#160;&#160;&#160;&#160;&#160;&#160;&#160;&#160;</text>
<polygon fill="#00688b" stroke="#00688b" points="123.75,-425.75 123.75,-425.75 258.25,-425.75 258.25,-425.75 123.75,-425.75"/>
<path fill="none" stroke="#00688b" d="M135.75,-366.75C135.75,-366.75 246.25,-366.75 246.25,-366.75 252.25,-366.75 258.25,-372.75 258.25,-378.75 258.25,-378.75 258.25,-444.25 258.25,-444.25 258.25,-450.25 252.25,-456.25 246.25,-456.25 246.25,-456.25 135.75,-456.25 135.75,-456.25 129.75,-456.25 123.75,-450.25 123.75,-444.25 123.75,-444.25 123.75,-378.75 123.75,-378.75 123.75,-372.75 129.75,-366.75 135.75,-366.75"/>
</g>
<!-- Disconnected&#45;&gt;Authenticating -->
<g id="edge2" class="edge">
<title>Disconnected&#45;&gt;Authenticating</title>
<path fill="none" stroke="red" d="M411.91,-284.46C390.69,-295.06 367.6,-307.65 347.5,-321 338.04,-327.28 337.98,-332.09 328,-337.5 303.53,-350.77 293,-343.24 268,-355.5 264.5,-357.22 260.99,-359.08 257.5,-361.07"/>
<polygon fill="red" stroke="red" points="255.82,-357.99 249.04,-366.13 259.41,-364 255.82,-357.99"/>
<text xml:space="preserve" text-anchor="middle" x="379.75" y="-324.2" font-family="Times,serif" font-size="14.00"> scan_done </text>
</g>
<!-- Associated -->
<g id="node3" class="node">
<title>Associated</title>
<ellipse fill="azure" stroke="#00688b" cx="277" cy="-411.5" rx="0.36" ry="0.36"/>
</g>
<!-- Associated&#45;&gt;Disconnected -->
<g id="edge10" class="edge">
<title>Associated&#45;&gt;Disconnected</title>
<path fill="none" stroke="red" d="M285,-407.72C307.49,-399.61 372.52,-374.22 416,-337.5 428.39,-327.04 439.86,-313.78 449.57,-300.92"/>
<polygon fill="red" stroke="red" points="452.36,-303.03 455.42,-292.89 446.7,-298.91 452.36,-303.03"/>
<text xml:space="preserve" text-anchor="middle" x="454.27" y="-324.2" font-family="Times,serif" font-size="14.00"> deauth </text>
</g>
<!-- Associated&#45;&gt;Disconnected -->
<g id="edge11" class="edge">
<title>Associated&#45;&gt;Disconnected</title>
<path fill="none" stroke="red" d="M285,-410.57C316.49,-410.38 432.56,-404.98 480,-337.5 486.98,-327.57 489.42,-315.21 489.53,-303.06"/>
<polygon fill="red" stroke="red" points="493.02,-302.9 489.06,-293.08 486.03,-303.23 493.02,-302.9"/>
<text xml:space="preserve" text-anchor="middle" x="519.89" y="-324.2" font-family="Times,serif" font-size="14.00"> disconnect </text>
</g>
<!-- Authenticating&#45;&gt;Disconnected -->
<g id="edge4" class="edge">
<title>Authenticating&#45;&gt;Disconnected</title>
<path fill="none" stroke="red" d="M206.02,-366.83C213.65,-350.37 224.5,-332.8 239.25,-321 245.83,-315.74 333.08,-292.05 400.67,-274.24"/>
<polygon fill="red" stroke="red" points="401.52,-277.64 410.3,-271.71 399.74,-270.87 401.52,-277.64"/>
<text xml:space="preserve" text-anchor="middle" x="281.62" y="-324.2" font-family="Times,serif" font-size="14.00"> auth_response </text>
</g>
<!-- Associating -->
<g id="node5" class="node">
<title>Associating</title>
<path fill="azure" stroke="none" d="M265,-303C265,-303 117,-303 117,-303 111,-303 105,-297 105,-291 105,-291 105,-214.25 105,-214.25 105,-208.25 111,-202.25 117,-202.25 117,-202.25 265,-202.25 265,-202.25 271,-202.25 277,-208.25 277,-214.25 277,-214.25 277,-291 277,-291 277,-297 271,-303 265,-303"/>
<text xml:space="preserve" text-anchor="start" x="158" y="-282.7" font-family="Times,serif" font-weight="bold" font-size="14.00">Associating</text>
<text xml:space="preserve" text-anchor="start" x="113" y="-257.5" font-family="Times,serif" font-size="10.00">$&gt;()</text>
<text xml:space="preserve" text-anchor="start" x="113" y="-246.25" font-family="Times,serif" font-size="10.00">assoc_response(success: bool, aid: int)</text>
<text xml:space="preserve" text-anchor="start" x="113" y="-235" font-family="Times,serif" font-size="10.00">disassoc(reason: str)</text>
<text xml:space="preserve" text-anchor="start" x="113" y="-223.75" font-family="Times,serif" font-size="10.00">status()</text>
<text xml:space="preserve" text-anchor="start" x="173" y="-212.5" font-family="Times,serif" font-size="10.00"> &#160;&#160;&#160;&#160;&#160;&#160;&#160;&#160;&#160;&#160;&#160;&#160;&#160;&#160;&#160;</text>
<polygon fill="#00688b" stroke="#00688b" points="105,-272.5 105,-272.5 277,-272.5 277,-272.5 105,-272.5"/>
<path fill="none" stroke="#00688b" d="M117,-202.25C117,-202.25 265,-202.25 265,-202.25 271,-202.25 277,-208.25 277,-214.25 277,-214.25 277,-291 277,-291 277,-297 271,-303 265,-303 265,-303 117,-303 117,-303 111,-303 105,-297 105,-291 105,-291 105,-214.25 105,-214.25 105,-208.25 111,-202.25 117,-202.25"/>
</g>
<!-- Authenticating&#45;&gt;Associating -->
<g id="edge3" class="edge">
<title>Authenticating&#45;&gt;Associating</title>
<path fill="none" stroke="red" d="M124.14,-393.14C81.84,-378.54 38.69,-354.61 59.25,-321 59.97,-319.82 75.2,-311.76 95.07,-301.61"/>
<polygon fill="red" stroke="red" points="96.48,-304.82 103.81,-297.16 93.31,-298.58 96.48,-304.82"/>
<text xml:space="preserve" text-anchor="middle" x="101.62" y="-324.2" font-family="Times,serif" font-size="14.00"> auth_response </text>
</g>
<!-- Associating&#45;&gt;Disconnected -->
<g id="edge6" class="edge">
<title>Associating&#45;&gt;Disconnected</title>
<path fill="none" stroke="red" d="M276.93,-252.62C316.15,-252.62 362.3,-252.62 400.69,-252.62"/>
<polygon fill="red" stroke="red" points="400.3,-256.13 410.3,-252.63 400.3,-249.13 400.3,-256.13"/>
<text xml:space="preserve" text-anchor="middle" x="344.31" y="-258.82" font-family="Times,serif" font-size="14.00"> assoc_response </text>
</g>
<!-- Associating&#45;&gt;Authenticating -->
<g id="edge7" class="edge">
<title>Associating&#45;&gt;Authenticating</title>
<path fill="none" stroke="red" d="M171.74,-302.8C170,-308.85 168.51,-315.02 167.5,-321 165.55,-332.52 166.6,-344.72 169.11,-356.29"/>
<polygon fill="red" stroke="red" points="165.65,-356.87 171.54,-365.67 172.43,-355.11 165.65,-356.87"/>
<text xml:space="preserve" text-anchor="middle" x="193.75" y="-324.2" font-family="Times,serif" font-size="14.00"> disassoc </text>
</g>
<!-- KeyNegotiation -->
<g id="node6" class="node">
<title>KeyNegotiation</title>
<path fill="azure" stroke="none" d="M245.38,-149.75C245.38,-149.75 126.62,-149.75 126.62,-149.75 120.62,-149.75 114.62,-143.75 114.62,-137.75 114.62,-137.75 114.62,-28 114.62,-28 114.62,-22 120.62,-16 126.62,-16 126.62,-16 245.38,-16 245.38,-16 251.38,-16 257.38,-22 257.38,-28 257.38,-28 257.38,-137.75 257.38,-137.75 257.38,-143.75 251.38,-149.75 245.38,-149.75"/>
<text xml:space="preserve" text-anchor="start" x="140.62" y="-129.45" font-family="Times,serif" font-weight="bold" font-size="14.00">KeyNegotiation</text>
<text xml:space="preserve" text-anchor="start" x="122.62" y="-104.25" font-family="Times,serif" font-size="10.00">$&gt;()</text>
<text xml:space="preserve" text-anchor="start" x="122.62" y="-93" font-family="Times,serif" font-size="10.00">eapol_key_msg(msg_num: int)</text>
<text xml:space="preserve" text-anchor="start" x="122.62" y="-81.75" font-family="Times,serif" font-size="10.00">disassoc(reason: str)</text>
<text xml:space="preserve" text-anchor="start" x="122.62" y="-70.5" font-family="Times,serif" font-size="10.00">status()</text>
<text xml:space="preserve" text-anchor="start" x="168" y="-59.25" font-family="Times,serif" font-size="10.00"> &#160;&#160;&#160;&#160;&#160;&#160;&#160;&#160;&#160;&#160;&#160;&#160;&#160;&#160;&#160;</text>
<text xml:space="preserve" text-anchor="start" x="122.62" y="-36.75" font-family="Times,serif" font-size="9.00" fill="#666666">key_step: int</text>
<text xml:space="preserve" text-anchor="start" x="127.12" y="-26.25" font-family="Times,serif" font-size="9.00" fill="#666666"> &#160;&#160;&#160;&#160;&#160;&#160;&#160;&#160;&#160;&#160;&#160;&#160;&#160;&#160;&#160;</text>
<polygon fill="#00688b" stroke="#00688b" points="114.62,-119.25 114.62,-119.25 257.38,-119.25 257.38,-119.25 114.62,-119.25"/>
<polygon fill="#00688b" stroke="#00688b" points="114.62,-51 114.62,-51 257.38,-51 257.38,-51 114.62,-51"/>
<path fill="none" stroke="#00688b" d="M126.62,-16C126.62,-16 245.38,-16 245.38,-16 251.38,-16 257.38,-22 257.38,-28 257.38,-28 257.38,-137.75 257.38,-137.75 257.38,-143.75 251.38,-149.75 245.38,-149.75 245.38,-149.75 126.62,-149.75 126.62,-149.75 120.62,-149.75 114.62,-143.75 114.62,-137.75 114.62,-137.75 114.62,-28 114.62,-28 114.62,-22 120.62,-16 126.62,-16"/>
</g>
<!-- Associating&#45;&gt;KeyNegotiation -->
<g id="edge5" class="edge">
<title>Associating&#45;&gt;KeyNegotiation</title>
<path fill="none" stroke="red" d="M189.54,-202.65C189.15,-189.53 188.72,-175.02 188.29,-160.77"/>
<polygon fill="red" stroke="red" points="191.8,-160.85 188,-150.95 184.8,-161.05 191.8,-160.85"/>
<text xml:space="preserve" text-anchor="middle" x="234.32" y="-170.95" font-family="Times,serif" font-size="14.00"> assoc_response </text>
</g>
<!-- KeyNegotiation&#45;&gt;Authenticating -->
<g id="edge9" class="edge">
<title>KeyNegotiation&#45;&gt;Authenticating</title>
<path fill="none" stroke="red" d="M114.86,-123.95C87.21,-143.62 58.6,-170.08 43.5,-202.25 24.48,-242.79 39.34,-258.42 43.5,-303 44.95,-318.54 40.69,-324.98 50,-337.5 65.84,-358.79 89.7,-374.39 113.31,-385.57"/>
<polygon fill="red" stroke="red" points="111.81,-388.73 122.37,-389.63 114.68,-382.34 111.81,-388.73"/>
<text xml:space="preserve" text-anchor="middle" x="69.75" y="-247.57" font-family="Times,serif" font-size="14.00"> disassoc </text>
</g>
<!-- Connected -->
<g id="node7" class="node">
<title>Connected</title>
<path fill="azure" stroke="none" d="M629.5,-467.5C629.5,-467.5 556.5,-467.5 556.5,-467.5 550.5,-467.5 544.5,-461.5 544.5,-455.5 544.5,-455.5 544.5,-367.5 544.5,-367.5 544.5,-361.5 550.5,-355.5 556.5,-355.5 556.5,-355.5 629.5,-355.5 629.5,-355.5 635.5,-355.5 641.5,-361.5 641.5,-367.5 641.5,-367.5 641.5,-455.5 641.5,-455.5 641.5,-461.5 635.5,-467.5 629.5,-467.5"/>
<text xml:space="preserve" text-anchor="start" x="562.25" y="-447.2" font-family="Times,serif" font-weight="bold" font-size="14.00">Connected</text>
<text xml:space="preserve" text-anchor="start" x="552.5" y="-422" font-family="Times,serif" font-size="10.00">$&gt;()</text>
<text xml:space="preserve" text-anchor="start" x="552.5" y="-410.75" font-family="Times,serif" font-size="10.00">disassoc(reason: str)</text>
<text xml:space="preserve" text-anchor="start" x="552.5" y="-399.5" font-family="Times,serif" font-size="10.00">deauth(reason: str)</text>
<text xml:space="preserve" text-anchor="start" x="552.5" y="-388.25" font-family="Times,serif" font-size="10.00">disconnect()</text>
<text xml:space="preserve" text-anchor="start" x="552.5" y="-377" font-family="Times,serif" font-size="10.00">status()</text>
<text xml:space="preserve" text-anchor="start" x="579.5" y="-365.75" font-family="Times,serif" font-size="10.00"> &#160;&#160;&#160;&#160;&#160;&#160;&#160;&#160;&#160;&#160;&#160;</text>
<polygon fill="#00688b" stroke="#00688b" points="544.5,-437 544.5,-437 641.5,-437 641.5,-437 544.5,-437"/>
<path fill="none" stroke="#00688b" d="M556.5,-355.5C556.5,-355.5 629.5,-355.5 629.5,-355.5 635.5,-355.5 641.5,-361.5 641.5,-367.5 641.5,-367.5 641.5,-455.5 641.5,-455.5 641.5,-461.5 635.5,-467.5 629.5,-467.5 629.5,-467.5 556.5,-467.5 556.5,-467.5 550.5,-467.5 544.5,-461.5 544.5,-455.5 544.5,-455.5 544.5,-367.5 544.5,-367.5 544.5,-361.5 550.5,-355.5 556.5,-355.5"/>
</g>
<!-- KeyNegotiation&#45;&gt;Connected -->
<g id="edge8" class="edge">
<title>KeyNegotiation&#45;&gt;Connected</title>
<path fill="none" stroke="red" d="M257.03,-89.11C380.13,-102.64 627.98,-150.79 712,-321 728.32,-354.05 689.54,-378.05 651.97,-392.83"/>
<polygon fill="red" stroke="red" points="651.02,-389.45 642.88,-396.22 653.47,-396.01 651.02,-389.45"/>
<text xml:space="preserve" text-anchor="middle" x="746.18" y="-247.57" font-family="Times,serif" font-size="14.00"> eapol_key_msg </text>
</g>
<!-- Connected&#45;&gt;Disconnected -->
<g id="edge13" class="edge">
<title>Connected&#45;&gt;Disconnected</title>
<path fill="none" stroke="red" d="M641.16,-376.85C658.95,-360.21 671.96,-339.73 659,-321 636.48,-288.46 596.14,-271.62 559.44,-262.91"/>
<polygon fill="red" stroke="red" points="560.19,-259.49 549.68,-260.78 558.7,-266.33 560.19,-259.49"/>
<text xml:space="preserve" text-anchor="middle" x="685.97" y="-324.2" font-family="Times,serif" font-size="14.00"> deauth </text>
</g>
<!-- Connected&#45;&gt;Disconnected -->
<g id="edge14" class="edge">
<title>Connected&#45;&gt;Disconnected</title>
<path fill="none" stroke="red" d="M585.91,-355.93C582.66,-343.76 577.92,-331.39 571,-321 565.75,-313.12 559.26,-305.82 552.18,-299.16"/>
<polygon fill="red" stroke="red" points="554.59,-296.62 544.77,-292.64 549.96,-301.87 554.59,-296.62"/>
<text xml:space="preserve" text-anchor="middle" x="611.85" y="-324.2" font-family="Times,serif" font-size="14.00"> disconnect </text>
</g>
<!-- Connected&#45;&gt;Authenticating -->
<g id="edge12" class="edge">
<title>Connected&#45;&gt;Authenticating</title>
<path fill="none" stroke="red" d="M544.51,-447.27C486.98,-487.28 386.54,-549.68 289,-574.12 237.47,-587.04 211.98,-519.23 200.16,-467.23"/>
<polygon fill="red" stroke="red" points="203.61,-466.6 198.1,-457.55 196.76,-468.06 203.61,-466.6"/>
<text xml:space="preserve" text-anchor="middle" x="401" y="-619.95" font-family="Times,serif" font-size="14.00"> disassoc </text>
</g>
</g>
</svg>
