<?xml version="1.0" encoding="UTF-8" standalone="no"?>
<!DOCTYPE svg PUBLIC "-//W3C//DTD SVG 1.1//EN"
 "http://www.w3.org/Graphics/SVG/1.1/DTD/svg11.dtd">
<!-- Generated by graphviz version 14.1.5 (20260411.2331)
 -->
<!-- Title: BgpSession Pages: 1 -->
<svg width="1549pt" height="874pt"
 viewBox="0.00 0.00 1549.00 874.00" xmlns="http://www.w3.org/2000/svg" xmlns:xlink="http://www.w3.org/1999/xlink">
<g id="graph0" class="graph" transform="scale(1 1) rotate(0) translate(4 870.4)">
<title>BgpSession</title>
<polygon fill="white" stroke="none" points="-4,4 -4,-870.4 1544.55,-870.4 1544.55,4 -4,4"/>
<!-- Entry -->
<g id="node1" class="node">
<title>Entry</title>
<ellipse fill="black" stroke="#00688b" cx="798.3" cy="-859.2" rx="7.2" ry="7.2"/>
</g>
<!-- Idle -->
<g id="node2" class="node">
<title>Idle</title>
<path fill="azure" stroke="none" d="M823.55,-815C823.55,-815 773.05,-815 773.05,-815 767.05,-815 761.05,-809 761.05,-803 761.05,-803 761.05,-748.75 761.05,-748.75 761.05,-742.75 767.05,-736.75 773.05,-736.75 773.05,-736.75 823.55,-736.75 823.55,-736.75 829.55,-736.75 835.55,-742.75 835.55,-748.75 835.55,-748.75 835.55,-803 835.55,-803 835.55,-809 829.55,-815 823.55,-815"/>
<text xml:space="preserve" text-anchor="start" x="787.05" y="-794.7" font-family="Times,serif" font-weight="bold" font-size="14.00">Idle</text>
<text xml:space="preserve" text-anchor="start" x="769.05" y="-769.5" font-family="Times,serif" font-size="10.00">manual_start()</text>
<text xml:space="preserve" text-anchor="start" x="769.05" y="-758.25" font-family="Times,serif" font-size="10.00">status()</text>
<text xml:space="preserve" text-anchor="start" x="784.8" y="-747" font-family="Times,serif" font-size="10.00"> &#160;&#160;&#160;&#160;&#160;&#160;&#160;&#160;&#160;&#160;&#160;</text>
<polygon fill="#00688b" stroke="#00688b" points="761.05,-784.5 761.05,-784.5 835.55,-784.5 835.55,-784.5 761.05,-784.5"/>
<path fill="none" stroke="#00688b" d="M773.05,-736.75C773.05,-736.75 823.55,-736.75 823.55,-736.75 829.55,-736.75 835.55,-742.75 835.55,-748.75 835.55,-748.75 835.55,-803 835.55,-803 835.55,-809 829.55,-815 823.55,-815 823.55,-815 773.05,-815 773.05,-815 767.05,-815 761.05,-809 761.05,-803 761.05,-803 761.05,-748.75 761.05,-748.75 761.05,-742.75 767.05,-736.75 773.05,-736.75"/>
</g>
<!-- Entry&#45;&gt;Idle -->
<g id="edge1" class="edge">
<title>Entry&#45;&gt;Idle</title>
<path fill="none" stroke="red" d="M798.3,-851.54C798.3,-845.53 798.3,-836.07 798.3,-825.88"/>
<polygon fill="red" stroke="red" points="801.8,-826.19 798.3,-816.19 794.8,-826.19 801.8,-826.19"/>
</g>
<!-- Connect -->
<g id="node3" class="node">
<title>Connect</title>
<path fill="azure" stroke="none" d="M311.55,-684.25C311.55,-684.25 195.05,-684.25 195.05,-684.25 189.05,-684.25 183.05,-678.25 183.05,-672.25 183.05,-672.25 183.05,-573 183.05,-573 183.05,-567 189.05,-561 195.05,-561 195.05,-561 311.55,-561 311.55,-561 317.55,-561 323.55,-567 323.55,-573 323.55,-573 323.55,-672.25 323.55,-672.25 323.55,-678.25 317.55,-684.25 311.55,-684.25"/>
<text xml:space="preserve" text-anchor="start" x="229.3" y="-663.95" font-family="Times,serif" font-weight="bold" font-size="14.00">Connect</text>
<text xml:space="preserve" text-anchor="start" x="191.05" y="-638.75" font-family="Times,serif" font-size="10.00">$&gt;()</text>
<text xml:space="preserve" text-anchor="start" x="191.05" y="-627.5" font-family="Times,serif" font-size="10.00">tcp_connection_confirmed()</text>
<text xml:space="preserve" text-anchor="start" x="191.05" y="-616.25" font-family="Times,serif" font-size="10.00">tcp_connection_fails()</text>
<text xml:space="preserve" text-anchor="start" x="191.05" y="-605" font-family="Times,serif" font-size="10.00">connect_retry_timer_expired()</text>
<text xml:space="preserve" text-anchor="start" x="191.05" y="-593.75" font-family="Times,serif" font-size="10.00">manual_stop()</text>
<text xml:space="preserve" text-anchor="start" x="191.05" y="-582.5" font-family="Times,serif" font-size="10.00">status()</text>
<text xml:space="preserve" text-anchor="start" x="239.8" y="-571.25" font-family="Times,serif" font-size="10.00"> &#160;&#160;&#160;&#160;&#160;&#160;&#160;&#160;&#160;&#160;&#160;</text>
<polygon fill="#00688b" stroke="#00688b" points="183.05,-653.75 183.05,-653.75 323.55,-653.75 323.55,-653.75 183.05,-653.75"/>
<path fill="none" stroke="#00688b" d="M195.05,-561C195.05,-561 311.55,-561 311.55,-561 317.55,-561 323.55,-567 323.55,-573 323.55,-573 323.55,-672.25 323.55,-672.25 323.55,-678.25 317.55,-684.25 311.55,-684.25 311.55,-684.25 195.05,-684.25 195.05,-684.25 189.05,-684.25 183.05,-678.25 183.05,-672.25 183.05,-672.25 183.05,-573 183.05,-573 183.05,-567 189.05,-561 195.05,-561"/>
</g>
<!-- Idle&#45;&gt;Connect -->
<g id="edge2" class="edge">
<title>Idle&#45;&gt;Connect</title>
<path fill="none" stroke="red" d="M761.22,-773.44C666.55,-769.29 418.25,-755.14 345.3,-718.75 337.34,-714.78 325.78,-704.51 313.52,-692.11"/>
<polygon fill="red" stroke="red" points="316.35,-690 306.88,-685.24 311.31,-694.87 316.35,-690"/>
<text xml:space="preserve" text-anchor="middle" x="384.3" y="-705.45" font-family="Times,serif" font-size="14.00"> manual_start </text>
</g>
<!-- Connect&#45;&gt;Idle -->
<g id="edge5" class="edge">
<title>Connect&#45;&gt;Idle</title>
<path fill="none" stroke="red" d="M233.49,-684.21C232.9,-696.89 235.48,-709.27 244.05,-718.75 277.69,-755.97 621,-769.73 749.82,-773.6"/>
<polygon fill="red" stroke="red" points="749.63,-777.1 759.72,-773.89 749.83,-770.1 749.63,-777.1"/>
<text xml:space="preserve" text-anchor="middle" x="282.67" y="-705.45" font-family="Times,serif" font-size="14.00"> manual_stop </text>
</g>
<!-- Active -->
<g id="node4" class="node">
<title>Active</title>
<path fill="azure" stroke="none" d="M311.55,-310.25C311.55,-310.25 195.05,-310.25 195.05,-310.25 189.05,-310.25 183.05,-304.25 183.05,-298.25 183.05,-298.25 183.05,-210.25 183.05,-210.25 183.05,-204.25 189.05,-198.25 195.05,-198.25 195.05,-198.25 311.55,-198.25 311.55,-198.25 317.55,-198.25 323.55,-204.25 323.55,-210.25 323.55,-210.25 323.55,-298.25 323.55,-298.25 323.55,-304.25 317.55,-310.25 311.55,-310.25"/>
<text xml:space="preserve" text-anchor="start" x="234.92" y="-289.95" font-family="Times,serif" font-weight="bold" font-size="14.00">Active</text>
<text xml:space="preserve" text-anchor="start" x="191.05" y="-264.75" font-family="Times,serif" font-size="10.00">$&gt;()</text>
<text xml:space="preserve" text-anchor="start" x="191.05" y="-253.5" font-family="Times,serif" font-size="10.00">tcp_connection_confirmed()</text>
<text xml:space="preserve" text-anchor="start" x="191.05" y="-242.25" font-family="Times,serif" font-size="10.00">connect_retry_timer_expired()</text>
<text xml:space="preserve" text-anchor="start" x="191.05" y="-231" font-family="Times,serif" font-size="10.00">manual_stop()</text>
<text xml:space="preserve" text-anchor="start" x="191.05" y="-219.75" font-family="Times,serif" font-size="10.00">status()</text>
<text xml:space="preserve" text-anchor="start" x="239.8" y="-208.5" font-family="Times,serif" font-size="10.00"> &#160;&#160;&#160;&#160;&#160;&#160;&#160;&#160;&#160;&#160;&#160;</text>
<polygon fill="#00688b" stroke="#00688b" points="183.05,-279.75 183.05,-279.75 323.55,-279.75 323.55,-279.75 183.05,-279.75"/>
<path fill="none" stroke="#00688b" d="M195.05,-198.25C195.05,-198.25 311.55,-198.25 311.55,-198.25 317.55,-198.25 323.55,-204.25 323.55,-210.25 323.55,-210.25 323.55,-298.25 323.55,-298.25 323.55,-304.25 317.55,-310.25 311.55,-310.25 311.55,-310.25 195.05,-310.25 195.05,-310.25 189.05,-310.25 183.05,-304.25 183.05,-298.25 183.05,-298.25 183.05,-210.25 183.05,-210.25 183.05,-204.25 189.05,-198.25 195.05,-198.25"/>
</g>
<!-- Connect&#45;&gt;Active -->
<g id="edge4" class="edge">
<title>Connect&#45;&gt;Active</title>
<path fill="none" stroke="red" d="M253.3,-561.13C253.3,-495.13 253.3,-389.81 253.3,-321.6"/>
<polygon fill="red" stroke="red" points="256.8,-321.66 253.3,-311.66 249.8,-321.66 256.8,-321.66"/>
<text xml:space="preserve" text-anchor="middle" x="313.3" y="-436.2" font-family="Times,serif" font-size="14.00"> tcp_connection_fails </text>
</g>
<!-- OpenSent -->
<g id="node5" class="node">
<title>OpenSent</title>
<path fill="azure" stroke="none" d="M579.55,-508.5C579.55,-508.5 403.05,-508.5 403.05,-508.5 397.05,-508.5 391.05,-502.5 391.05,-496.5 391.05,-496.5 391.05,-386 391.05,-386 391.05,-380 397.05,-374 403.05,-374 403.05,-374 579.55,-374 579.55,-374 585.55,-374 591.55,-380 591.55,-386 591.55,-386 591.55,-496.5 591.55,-496.5 591.55,-502.5 585.55,-508.5 579.55,-508.5"/>
<text xml:space="preserve" text-anchor="start" x="462.42" y="-488.2" font-family="Times,serif" font-weight="bold" font-size="14.00">OpenSent</text>
<text xml:space="preserve" text-anchor="start" x="399.05" y="-463" font-family="Times,serif" font-size="10.00">$&gt;()</text>
<text xml:space="preserve" text-anchor="start" x="399.05" y="-451.75" font-family="Times,serif" font-size="10.00">open_received(asn: int, hold_time: int)</text>
<text xml:space="preserve" text-anchor="start" x="399.05" y="-440.5" font-family="Times,serif" font-size="10.00">tcp_connection_fails()</text>
<text xml:space="preserve" text-anchor="start" x="399.05" y="-429.25" font-family="Times,serif" font-size="10.00">notification_received(code: int, subcode: int)</text>
<text xml:space="preserve" text-anchor="start" x="399.05" y="-418" font-family="Times,serif" font-size="10.00">hold_timer_expired()</text>
<text xml:space="preserve" text-anchor="start" x="399.05" y="-406.75" font-family="Times,serif" font-size="10.00">manual_stop()</text>
<text xml:space="preserve" text-anchor="start" x="399.05" y="-395.5" font-family="Times,serif" font-size="10.00">status()</text>
<text xml:space="preserve" text-anchor="start" x="477.8" y="-384.25" font-family="Times,serif" font-size="10.00"> &#160;&#160;&#160;&#160;&#160;&#160;&#160;&#160;&#160;&#160;&#160;</text>
<polygon fill="#00688b" stroke="#00688b" points="391.05,-478 391.05,-478 591.55,-478 591.55,-478 391.05,-478"/>
<path fill="none" stroke="#00688b" d="M403.05,-374C403.05,-374 579.55,-374 579.55,-374 585.55,-374 591.55,-380 591.55,-386 591.55,-386 591.55,-496.5 591.55,-496.5 591.55,-502.5 585.55,-508.5 579.55,-508.5 579.55,-508.5 403.05,-508.5 403.05,-508.5 397.05,-508.5 391.05,-502.5 391.05,-496.5 391.05,-496.5 391.05,-386 391.05,-386 391.05,-380 397.05,-374 403.05,-374"/>
</g>
<!-- Connect&#45;&gt;OpenSent -->
<g id="edge3" class="edge">
<title>Connect&#45;&gt;OpenSent</title>
<path fill="none" stroke="red" d="M264.54,-561.07C269.56,-548.08 276.81,-535.56 287.3,-526.5 318.17,-499.83 339.15,-522.94 377.3,-508.5 378.45,-508.06 379.6,-507.62 380.75,-507.16"/>
<polygon fill="red" stroke="red" points="381.9,-510.48 389.76,-503.38 379.19,-504.02 381.9,-510.48"/>
<text xml:space="preserve" text-anchor="middle" x="363.8" y="-529.7" font-family="Times,serif" font-size="14.00"> tcp_connection_confirmed </text>
</g>
<!-- Active&#45;&gt;Idle -->
<g id="edge8" class="edge">
<title>Active&#45;&gt;Idle</title>
<path fill="none" stroke="red" d="M183.19,-285.19C153.46,-299.5 119.28,-318.17 91.3,-339.5 14.6,-397.96 -23.37,-454.99 16.05,-543 18.86,-549.28 148.74,-691.26 231.3,-718.75 327.12,-750.66 630.83,-767.37 749.82,-772.83"/>
<polygon fill="red" stroke="red" points="749.42,-776.32 759.56,-773.27 749.73,-769.32 749.42,-776.32"/>
<text xml:space="preserve" text-anchor="middle" x="54.67" y="-529.7" font-family="Times,serif" font-size="14.00"> manual_stop </text>
</g>
<!-- Active&#45;&gt;Connect -->
<g id="edge7" class="edge">
<title>Active&#45;&gt;Connect</title>
<path fill="none" stroke="red" d="M183.37,-284.77C146.72,-304.28 105.21,-333.75 84.3,-374 56.74,-427.05 56.14,-455.77 84.3,-508.5 103.44,-544.36 139.55,-570.84 173.49,-589.14"/>
<polygon fill="red" stroke="red" points="171.63,-592.11 182.12,-593.62 174.86,-585.9 171.63,-592.11"/>
<text xml:space="preserve" text-anchor="middle" x="166.8" y="-436.2" font-family="Times,serif" font-size="14.00"> connect_retry_timer_expired </text>
</g>
<!-- Active&#45;&gt;OpenSent -->
<g id="edge6" class="edge">
<title>Active&#45;&gt;OpenSent</title>
<path fill="none" stroke="red" d="M323.45,-273.89C362.03,-287.04 408.55,-308.02 441.3,-339.5 448.74,-346.66 455.24,-355.15 460.87,-364.13"/>
<polygon fill="red" stroke="red" points="457.82,-365.85 465.88,-372.72 463.87,-362.32 457.82,-365.85"/>
<text xml:space="preserve" text-anchor="middle" x="531.66" y="-342.7" font-family="Times,serif" font-size="14.00"> tcp_connection_confirmed </text>
</g>
<!-- OpenSent&#45;&gt;Idle -->
<g id="edge11" class="edge">
<title>OpenSent&#45;&gt;Idle</title>
<path fill="none" stroke="red" d="M455.32,-508.45C432.06,-561.22 412.6,-634.3 451.05,-684.25 487.38,-731.46 663.16,-758.7 749.81,-769.47"/>
<polygon fill="red" stroke="red" points="749.32,-772.94 759.67,-770.67 750.16,-765.99 749.32,-772.94"/>
<text xml:space="preserve" text-anchor="middle" x="512.17" y="-617.58" font-family="Times,serif" font-size="14.00"> notification_received </text>
</g>
<!-- OpenSent&#45;&gt;Idle -->
<g id="edge12" class="edge">
<title>OpenSent&#45;&gt;Idle</title>
<path fill="none" stroke="red" d="M542.47,-508.44C553.7,-524.99 564.77,-543.14 573.3,-561 597.88,-612.53 572.56,-640.75 609.55,-684.25 645.97,-727.09 707.28,-751.24 750.11,-763.65"/>
<polygon fill="red" stroke="red" points="749.09,-767 759.66,-766.3 750.96,-760.26 749.09,-767"/>
<text xml:space="preserve" text-anchor="middle" x="666.92" y="-617.58" font-family="Times,serif" font-size="14.00"> hold_timer_expired </text>
</g>
<!-- OpenSent&#45;&gt;Idle -->
<g id="edge13" class="edge">
<title>OpenSent&#45;&gt;Idle</title>
<path fill="none" stroke="red" d="M591.37,-472.46C637.77,-491.13 690.09,-519.62 724.3,-561 760.64,-604.96 740.98,-630.5 760.05,-684.25 764.96,-698.09 770.88,-712.86 776.59,-726.38"/>
<polygon fill="red" stroke="red" points="773.35,-727.69 780.5,-735.51 779.78,-724.94 773.35,-727.69"/>
<text xml:space="preserve" text-anchor="middle" x="798.67" y="-617.58" font-family="Times,serif" font-size="14.00"> manual_stop </text>
</g>
<!-- OpenSent&#45;&gt;Active -->
<g id="edge10" class="edge">
<title>OpenSent&#45;&gt;Active</title>
<path fill="none" stroke="red" d="M391.26,-380.4C386.59,-378.15 381.92,-376 377.3,-374 351.75,-362.93 339.49,-372.81 317.3,-356 304.41,-346.24 293.44,-333.08 284.4,-319.49"/>
<polygon fill="red" stroke="red" points="287.56,-317.93 279.27,-311.33 281.63,-321.66 287.56,-317.93"/>
<text xml:space="preserve" text-anchor="middle" x="377.3" y="-342.7" font-family="Times,serif" font-size="14.00"> tcp_connection_fails </text>
</g>
<!-- OpenConfirm -->
<g id="node6" class="node">
<title>OpenConfirm</title>
<path fill="azure" stroke="none" d="M1012.55,-321.5C1012.55,-321.5 836.05,-321.5 836.05,-321.5 830.05,-321.5 824.05,-315.5 824.05,-309.5 824.05,-309.5 824.05,-199 824.05,-199 824.05,-193 830.05,-187 836.05,-187 836.05,-187 1012.55,-187 1012.55,-187 1018.55,-187 1024.55,-193 1024.55,-199 1024.55,-199 1024.55,-309.5 1024.55,-309.5 1024.55,-315.5 1018.55,-321.5 1012.55,-321.5"/>
<text xml:space="preserve" text-anchor="start" x="883.05" y="-301.2" font-family="Times,serif" font-weight="bold" font-size="14.00">OpenConfirm</text>
<text xml:space="preserve" text-anchor="start" x="832.05" y="-276" font-family="Times,serif" font-size="10.00">$&gt;()</text>
<text xml:space="preserve" text-anchor="start" x="832.05" y="-264.75" font-family="Times,serif" font-size="10.00">keepalive_received()</text>
<text xml:space="preserve" text-anchor="start" x="832.05" y="-253.5" font-family="Times,serif" font-size="10.00">notification_received(code: int, subcode: int)</text>
<text xml:space="preserve" text-anchor="start" x="832.05" y="-242.25" font-family="Times,serif" font-size="10.00">hold_timer_expired()</text>
<text xml:space="preserve" text-anchor="start" x="832.05" y="-231" font-family="Times,serif" font-size="10.00">keepalive_timer_expired()</text>
<text xml:space="preserve" text-anchor="start" x="832.05" y="-219.75" font-family="Times,serif" font-size="10.00">manual_stop()</text>
<text xml:space="preserve" text-anchor="start" x="832.05" y="-208.5" font-family="Times,serif" font-size="10.00">status()</text>
<text xml:space="preserve" text-anchor="start" x="910.8" y="-197.25" font-family="Times,serif" font-size="10.00"> &#160;&#160;&#160;&#160;&#160;&#160;&#160;&#160;&#160;&#160;&#160;</text>
<polygon fill="#00688b" stroke="#00688b" points="824.05,-291 824.05,-291 1024.55,-291 1024.55,-291 824.05,-291"/>
<path fill="none" stroke="#00688b" d="M836.05,-187C836.05,-187 1012.55,-187 1012.55,-187 1018.55,-187 1024.55,-193 1024.55,-199 1024.55,-199 1024.55,-309.5 1024.55,-309.5 1024.55,-315.5 1018.55,-321.5 1012.55,-321.5 1012.55,-321.5 836.05,-321.5 836.05,-321.5 830.05,-321.5 824.05,-315.5 824.05,-309.5 824.05,-309.5 824.05,-199 824.05,-199 824.05,-193 830.05,-187 836.05,-187"/>
</g>
<!-- OpenSent&#45;&gt;OpenConfirm -->
<g id="edge9" class="edge">
<title>OpenSent&#45;&gt;OpenConfirm</title>
<path fill="none" stroke="red" d="M591.15,-382.81C619.14,-367.78 649.89,-352.23 679.05,-339.5 722.12,-320.69 770.85,-303.21 813.46,-289.1"/>
<polygon fill="red" stroke="red" points="814.31,-292.51 822.72,-286.06 812.12,-285.86 814.31,-292.51"/>
<text xml:space="preserve" text-anchor="middle" x="722.17" y="-342.7" font-family="Times,serif" font-size="14.00"> open_received </text>
</g>
<!-- OpenConfirm&#45;&gt;Idle -->
<g id="edge15" class="edge">
<title>OpenConfirm&#45;&gt;Idle</title>
<path fill="none" stroke="red" d="M877.19,-321.42C842.7,-374.14 798.79,-451.33 780.05,-526.5 778.27,-533.62 775.71,-537.09 780.05,-543 795.83,-564.5 821.52,-539.5 837.3,-561 872.8,-609.37 849.17,-680.15 826.15,-726.84"/>
<polygon fill="red" stroke="red" points="823.08,-725.16 821.66,-735.66 829.32,-728.34 823.08,-725.16"/>
<text xml:space="preserve" text-anchor="middle" x="841.17" y="-529.7" font-family="Times,serif" font-size="14.00"> notification_received </text>
</g>
<!-- OpenConfirm&#45;&gt;Idle -->
<g id="edge16" class="edge">
<title>OpenConfirm&#45;&gt;Idle</title>
<path fill="none" stroke="red" d="M923.22,-321.48C921.33,-380.13 916.18,-467.86 902.3,-543 890.4,-607.4 881.19,-622.18 860.3,-684.25 855.07,-699.78 855.71,-704.69 847.3,-718.75 845.44,-721.86 843.4,-724.96 841.24,-728.01"/>
<polygon fill="red" stroke="red" points="838.6,-725.71 835.39,-735.8 844.19,-729.91 838.6,-725.71"/>
<text xml:space="preserve" text-anchor="middle" x="962.25" y="-529.7" font-family="Times,serif" font-size="14.00"> hold_timer_expired </text>
</g>
<!-- OpenConfirm&#45;&gt;Idle -->
<g id="edge17" class="edge">
<title>OpenConfirm&#45;&gt;Idle</title>
<path fill="none" stroke="red" d="M973.9,-321.43C1011.49,-380.06 1052.14,-467.77 1023.3,-543 988.84,-632.86 899.5,-706.43 844.33,-745.17"/>
<polygon fill="red" stroke="red" points="842.59,-742.12 836.36,-750.68 846.57,-747.88 842.59,-742.12"/>
<text xml:space="preserve" text-anchor="middle" x="1066.66" y="-529.7" font-family="Times,serif" font-size="14.00"> manual_stop </text>
</g>
<!-- Established -->
<g id="node7" class="node">
<title>Established</title>
<path fill="azure" stroke="none" d="M1321.55,-134.5C1321.55,-134.5 1145.05,-134.5 1145.05,-134.5 1139.05,-134.5 1133.05,-128.5 1133.05,-122.5 1133.05,-122.5 1133.05,-12 1133.05,-12 1133.05,-6 1139.05,0 1145.05,0 1145.05,0 1321.55,0 1321.55,0 1327.55,0 1333.55,-6 1333.55,-12 1333.55,-12 1333.55,-122.5 1333.55,-122.5 1333.55,-128.5 1327.55,-134.5 1321.55,-134.5"/>
<text xml:space="preserve" text-anchor="start" x="1199.92" y="-114.2" font-family="Times,serif" font-weight="bold" font-size="14.00">Established</text>
<text xml:space="preserve" text-anchor="start" x="1141.05" y="-89" font-family="Times,serif" font-size="10.00">$&gt;()</text>
<text xml:space="preserve" text-anchor="start" x="1141.05" y="-77.75" font-family="Times,serif" font-size="10.00">keepalive_received()</text>
<text xml:space="preserve" text-anchor="start" x="1141.05" y="-66.5" font-family="Times,serif" font-size="10.00">keepalive_timer_expired()</text>
<text xml:space="preserve" text-anchor="start" x="1141.05" y="-55.25" font-family="Times,serif" font-size="10.00">notification_received(code: int, subcode: int)</text>
<text xml:space="preserve" text-anchor="start" x="1141.05" y="-44" font-family="Times,serif" font-size="10.00">hold_timer_expired()</text>
<text xml:space="preserve" text-anchor="start" x="1141.05" y="-32.75" font-family="Times,serif" font-size="10.00">manual_stop()</text>
<text xml:space="preserve" text-anchor="start" x="1141.05" y="-21.5" font-family="Times,serif" font-size="10.00">status()</text>
<text xml:space="preserve" text-anchor="start" x="1219.8" y="-10.25" font-family="Times,serif" font-size="10.00"> &#160;&#160;&#160;&#160;&#160;&#160;&#160;&#160;&#160;&#160;&#160;</text>
<polygon fill="#00688b" stroke="#00688b" points="1133.05,-104 1133.05,-104 1333.55,-104 1333.55,-104 1133.05,-104"/>
<path fill="none" stroke="#00688b" d="M1145.05,0C1145.05,0 1321.55,0 1321.55,0 1327.55,0 1333.55,-6 1333.55,-12 1333.55,-12 1333.55,-122.5 1333.55,-122.5 1333.55,-128.5 1327.55,-134.5 1321.55,-134.5 1321.55,-134.5 1145.05,-134.5 1145.05,-134.5 1139.05,-134.5 1133.05,-128.5 1133.05,-122.5 1133.05,-122.5 1133.05,-12 1133.05,-12 1133.05,-6 1139.05,0 1145.05,0"/>
</g>
<!-- OpenConfirm&#45;&gt;Established -->
<g id="edge14" class="edge">
<title>OpenConfirm&#45;&gt;Established</title>
<path fill="none" stroke="red" d="M985.23,-187.04C998.71,-174.56 1013.49,-162.35 1028.55,-152.5 1057.3,-133.69 1090.94,-117.74 1122.55,-104.95"/>
<polygon fill="red" stroke="red" points="1123.77,-108.23 1131.77,-101.29 1121.19,-101.73 1123.77,-108.23"/>
<text xml:space="preserve" text-anchor="middle" x="1084.42" y="-155.7" font-family="Times,serif" font-size="14.00"> keepalive_received </text>
</g>
<!-- Established&#45;&gt;Idle -->
<g id="edge18" class="edge">
<title>Established&#45;&gt;Idle</title>
<path fill="none" stroke="red" d="M1189.87,-134.35C1171.51,-168.43 1154.3,-211.52 1154.3,-253.25 1154.3,-623.62 1154.3,-623.62 1154.3,-623.62 1154.3,-755.75 944.01,-774.12 846.68,-775.55"/>
<polygon fill="red" stroke="red" points="846.87,-772.05 836.9,-775.64 846.93,-779.05 846.87,-772.05"/>
<text xml:space="preserve" text-anchor="middle" x="1215.42" y="-436.2" font-family="Times,serif" font-size="14.00"> notification_received </text>
</g>
<!-- Established&#45;&gt;Idle -->
<g id="edge19" class="edge">
<title>Established&#45;&gt;Idle</title>
<path fill="none" stroke="red" d="M1276.73,-134.35C1295.08,-168.43 1312.3,-211.52 1312.3,-253.25 1312.3,-623.62 1312.3,-623.62 1312.3,-623.62 1312.3,-720.14 974.54,-759.57 846.61,-771.04"/>
<polygon fill="red" stroke="red" points="846.43,-767.54 836.77,-771.9 847.04,-774.52 846.43,-767.54"/>
<text xml:space="preserve" text-anchor="middle" x="1369.67" y="-436.2" font-family="Times,serif" font-size="14.00"> hold_timer_expired </text>
</g>
<!-- Established&#45;&gt;Idle -->
<g id="edge20" class="edge">
<title>Established&#45;&gt;Idle</title>
<path fill="none" stroke="red" d="M1333.51,-104.22C1395.49,-133.6 1463.3,-182.02 1463.3,-253.25 1463.3,-623.62 1463.3,-623.62 1463.3,-623.62 1463.3,-750.13 999.98,-770.83 846.8,-774.21"/>
<polygon fill="red" stroke="red" points="846.91,-770.71 836.99,-774.41 847.06,-777.71 846.91,-770.71"/>
<text xml:space="preserve" text-anchor="middle" x="1501.92" y="-436.2" font-family="Times,serif" font-size="14.00"> manual_stop </text>
</g>
</g>
</svg>
