<?xml version="1.0" encoding="UTF-8" standalone="no"?>
<!DOCTYPE svg PUBLIC "-//W3C//DTD SVG 1.1//EN"
 "http://www.w3.org/Graphics/SVG/1.1/DTD/svg11.dtd">
<!-- Generated by graphviz version 14.1.5 (20260411.2331)
 -->
<!-- Title: PppLcp Pages: 1 -->
<svg width="1559pt" height="1203pt"
 viewBox="0.00 0.00 1559.00 1203.00" xmlns="http://www.w3.org/2000/svg" xmlns:xlink="http://www.w3.org/1999/xlink">
<g id="graph0" class="graph" transform="scale(1 1) rotate(0) translate(4 1199.4)">
<title>PppLcp</title>
<polygon fill="white" stroke="none" points="-4,4 -4,-1199.4 1555.08,-1199.4 1555.08,4 -4,4"/>
<!-- Entry -->
<g id="node1" class="node">
<title>Entry</title>
<ellipse fill="black" stroke="#00688b" cx="1403.08" cy="-1188.2" rx="7.2" ry="7.2"/>
</g>
<!-- Initial -->
<g id="node2" class="node">
<title>Initial</title>
<path fill="azure" stroke="none" d="M1418.08,-1144C1418.08,-1144 1388.08,-1144 1388.08,-1144 1382.08,-1144 1376.08,-1138 1376.08,-1132 1376.08,-1132 1376.08,-1066.5 1376.08,-1066.5 1376.08,-1060.5 1382.08,-1054.5 1388.08,-1054.5 1388.08,-1054.5 1418.08,-1054.5 1418.08,-1054.5 1424.08,-1054.5 1430.08,-1060.5 1430.08,-1066.5 1430.08,-1066.5 1430.08,-1132 1430.08,-1132 1430.08,-1138 1424.08,-1144 1418.08,-1144"/>
<text xml:space="preserve" text-anchor="start" x="1385.45" y="-1123.7" font-family="Times,serif" font-weight="bold" font-size="14.00">Initial</text>
<text xml:space="preserve" text-anchor="start" x="1385.45" y="-1098.5" font-family="Times,serif" font-size="10.00">up()</text>
<text xml:space="preserve" text-anchor="start" x="1385.45" y="-1087.25" font-family="Times,serif" font-size="10.00">open()</text>
<text xml:space="preserve" text-anchor="start" x="1385.45" y="-1076" font-family="Times,serif" font-size="10.00">status()</text>
<text xml:space="preserve" text-anchor="start" x="1386.58" y="-1064.75" font-family="Times,serif" font-size="10.00"> &#160;&#160;&#160;&#160;&#160;&#160;&#160;&#160;&#160;&#160;&#160;</text>
<polygon fill="#00688b" stroke="#00688b" points="1377.45,-1113.5 1377.45,-1113.5 1428.7,-1113.5 1428.7,-1113.5 1377.45,-1113.5"/>
<path fill="none" stroke="#00688b" d="M1389.45,-1054.5C1389.45,-1054.5 1416.7,-1054.5 1416.7,-1054.5 1422.7,-1054.5 1428.7,-1060.5 1428.7,-1066.5 1428.7,-1066.5 1428.7,-1132 1428.7,-1132 1428.7,-1138 1422.7,-1144 1416.7,-1144 1416.7,-1144 1389.45,-1144 1389.45,-1144 1383.45,-1144 1377.45,-1138 1377.45,-1132 1377.45,-1132 1377.45,-1066.5 1377.45,-1066.5 1377.45,-1060.5 1383.45,-1054.5 1389.45,-1054.5"/>
</g>
<!-- Entry&#45;&gt;Initial -->
<g id="edge1" class="edge">
<title>Entry&#45;&gt;Initial</title>
<path fill="none" stroke="red" d="M1403.08,-1180.66C1403.08,-1174.75 1403.08,-1165.41 1403.08,-1155.16"/>
<polygon fill="red" stroke="red" points="1406.58,-1155.31 1403.08,-1145.31 1399.58,-1155.31 1406.58,-1155.31"/>
</g>
<!-- Starting -->
<g id="node3" class="node">
<title>Starting</title>
<path fill="azure" stroke="none" d="M896.7,-1002C896.7,-1002 857.45,-1002 857.45,-1002 851.45,-1002 845.45,-996 845.45,-990 845.45,-990 845.45,-924.5 845.45,-924.5 845.45,-918.5 851.45,-912.5 857.45,-912.5 857.45,-912.5 896.7,-912.5 896.7,-912.5 902.7,-912.5 908.7,-918.5 908.7,-924.5 908.7,-924.5 908.7,-990 908.7,-990 908.7,-996 902.7,-1002 896.7,-1002"/>
<text xml:space="preserve" text-anchor="start" x="853.45" y="-981.7" font-family="Times,serif" font-weight="bold" font-size="14.00">Starting</text>
<text xml:space="preserve" text-anchor="start" x="853.45" y="-956.5" font-family="Times,serif" font-size="10.00">up()</text>
<text xml:space="preserve" text-anchor="start" x="853.45" y="-945.25" font-family="Times,serif" font-size="10.00">close()</text>
<text xml:space="preserve" text-anchor="start" x="853.45" y="-934" font-family="Times,serif" font-size="10.00">status()</text>
<text xml:space="preserve" text-anchor="start" x="854.58" y="-922.75" font-family="Times,serif" font-size="10.00"> &#160;&#160;&#160;&#160;&#160;&#160;&#160;&#160;&#160;&#160;&#160;</text>
<polygon fill="#00688b" stroke="#00688b" points="845.45,-971.5 845.45,-971.5 908.7,-971.5 908.7,-971.5 845.45,-971.5"/>
<path fill="none" stroke="#00688b" d="M857.45,-912.5C857.45,-912.5 896.7,-912.5 896.7,-912.5 902.7,-912.5 908.7,-918.5 908.7,-924.5 908.7,-924.5 908.7,-990 908.7,-990 908.7,-996 902.7,-1002 896.7,-1002 896.7,-1002 857.45,-1002 857.45,-1002 851.45,-1002 845.45,-996 845.45,-990 845.45,-990 845.45,-924.5 845.45,-924.5 845.45,-918.5 851.45,-912.5 857.45,-912.5"/>
</g>
<!-- Initial&#45;&gt;Starting -->
<g id="edge3" class="edge">
<title>Initial&#45;&gt;Starting</title>
<path fill="none" stroke="red" d="M1376.27,-1091.11C1290.71,-1068.34 1023.69,-997.27 919.41,-969.52"/>
<polygon fill="red" stroke="red" points="920.41,-966.16 909.84,-966.97 918.61,-972.93 920.41,-966.16"/>
<text xml:space="preserve" text-anchor="middle" x="1172.72" y="-1023.2" font-family="Times,serif" font-size="14.00"> open </text>
</g>
<!-- Closed -->
<g id="node4" class="node">
<title>Closed</title>
<path fill="azure" stroke="none" d="M1406.83,-100.75C1406.83,-100.75 1233.33,-100.75 1233.33,-100.75 1227.33,-100.75 1221.33,-94.75 1221.33,-88.75 1221.33,-88.75 1221.33,-12 1221.33,-12 1221.33,-6 1227.33,0 1233.33,0 1233.33,0 1406.83,0 1406.83,0 1412.83,0 1418.83,-6 1418.83,-12 1418.83,-12 1418.83,-88.75 1418.83,-88.75 1418.83,-94.75 1412.83,-100.75 1406.83,-100.75"/>
<text xml:space="preserve" text-anchor="start" x="1300.58" y="-80.45" font-family="Times,serif" font-weight="bold" font-size="14.00">Closed</text>
<text xml:space="preserve" text-anchor="start" x="1229.33" y="-55.25" font-family="Times,serif" font-size="10.00">open()</text>
<text xml:space="preserve" text-anchor="start" x="1229.33" y="-44" font-family="Times,serif" font-size="10.00">down()</text>
<text xml:space="preserve" text-anchor="start" x="1229.33" y="-32.75" font-family="Times,serif" font-size="10.00">receive_configure_request(acceptable: bool)</text>
<text xml:space="preserve" text-anchor="start" x="1229.33" y="-21.5" font-family="Times,serif" font-size="10.00">status()</text>
<text xml:space="preserve" text-anchor="start" x="1306.58" y="-10.25" font-family="Times,serif" font-size="10.00"> &#160;&#160;&#160;&#160;&#160;&#160;&#160;&#160;&#160;&#160;&#160;</text>
<polygon fill="#00688b" stroke="#00688b" points="1221.33,-70.25 1221.33,-70.25 1418.83,-70.25 1418.83,-70.25 1221.33,-70.25"/>
<path fill="none" stroke="#00688b" d="M1233.33,0C1233.33,0 1406.83,0 1406.83,0 1412.83,0 1418.83,-6 1418.83,-12 1418.83,-12 1418.83,-88.75 1418.83,-88.75 1418.83,-94.75 1412.83,-100.75 1406.83,-100.75 1406.83,-100.75 1233.33,-100.75 1233.33,-100.75 1227.33,-100.75 1221.33,-94.75 1221.33,-88.75 1221.33,-88.75 1221.33,-12 1221.33,-12 1221.33,-6 1227.33,0 1233.33,0"/>
</g>
<!-- Initial&#45;&gt;Closed -->
<g id="edge2" class="edge">
<title>Initial&#45;&gt;Closed</title>
<path fill="none" stroke="red" d="M1430.01,-1084.18C1467.29,-1062.54 1530.08,-1017.32 1530.08,-958.25 1530.08,-958.25 1530.08,-958.25 1530.08,-208.25 1530.08,-151.4 1480.07,-112.68 1428.86,-87.93"/>
<polygon fill="red" stroke="red" points="1430.54,-84.85 1419.99,-83.8 1427.58,-91.19 1430.54,-84.85"/>
<text xml:space="preserve" text-anchor="middle" x="1540.58" y="-572.58" font-family="Times,serif" font-size="14.00"> up </text>
</g>
<!-- Starting&#45;&gt;Initial -->
<g id="edge5" class="edge">
<title>Starting&#45;&gt;Initial</title>
<path fill="none" stroke="red" d="M908.55,-972.01C948.77,-989.15 1020.86,-1018.39 1084.83,-1036.5 1184.33,-1064.68 1304.96,-1084.22 1365.12,-1093"/>
<polygon fill="red" stroke="red" points="1364.42,-1096.44 1374.82,-1094.4 1365.42,-1089.51 1364.42,-1096.44"/>
<text xml:space="preserve" text-anchor="middle" x="1102.45" y="-1023.2" font-family="Times,serif" font-size="14.00"> close </text>
</g>
<!-- ReqSent -->
<g id="node8" class="node">
<title>ReqSent</title>
<path fill="azure" stroke="none" d="M902.83,-860C902.83,-860 729.33,-860 729.33,-860 723.33,-860 717.33,-854 717.33,-848 717.33,-848 717.33,-715 717.33,-715 717.33,-709 723.33,-703 729.33,-703 729.33,-703 902.83,-703 902.83,-703 908.83,-703 914.83,-709 914.83,-715 914.83,-715 914.83,-848 914.83,-848 914.83,-854 908.83,-860 902.83,-860"/>
<text xml:space="preserve" text-anchor="start" x="791.7" y="-839.7" font-family="Times,serif" font-weight="bold" font-size="14.00">ReqSent</text>
<text xml:space="preserve" text-anchor="start" x="725.33" y="-814.5" font-family="Times,serif" font-size="10.00">timeout_positive()</text>
<text xml:space="preserve" text-anchor="start" x="725.33" y="-803.25" font-family="Times,serif" font-size="10.00">timeout_negative()</text>
<text xml:space="preserve" text-anchor="start" x="725.33" y="-792" font-family="Times,serif" font-size="10.00">receive_configure_request(acceptable: bool)</text>
<text xml:space="preserve" text-anchor="start" x="725.33" y="-780.75" font-family="Times,serif" font-size="10.00">receive_configure_ack()</text>
<text xml:space="preserve" text-anchor="start" x="725.33" y="-769.5" font-family="Times,serif" font-size="10.00">receive_configure_nak()</text>
<text xml:space="preserve" text-anchor="start" x="725.33" y="-758.25" font-family="Times,serif" font-size="10.00">receive_terminate_request()</text>
<text xml:space="preserve" text-anchor="start" x="725.33" y="-747" font-family="Times,serif" font-size="10.00">close()</text>
<text xml:space="preserve" text-anchor="start" x="725.33" y="-735.75" font-family="Times,serif" font-size="10.00">down()</text>
<text xml:space="preserve" text-anchor="start" x="725.33" y="-724.5" font-family="Times,serif" font-size="10.00">status()</text>
<text xml:space="preserve" text-anchor="start" x="802.58" y="-713.25" font-family="Times,serif" font-size="10.00"> &#160;&#160;&#160;&#160;&#160;&#160;&#160;&#160;&#160;&#160;&#160;</text>
<polygon fill="#00688b" stroke="#00688b" points="717.33,-829.5 717.33,-829.5 914.83,-829.5 914.83,-829.5 717.33,-829.5"/>
<path fill="none" stroke="#00688b" d="M729.33,-703C729.33,-703 902.83,-703 902.83,-703 908.83,-703 914.83,-709 914.83,-715 914.83,-715 914.83,-848 914.83,-848 914.83,-854 908.83,-860 902.83,-860 902.83,-860 729.33,-860 729.33,-860 723.33,-860 717.33,-854 717.33,-848 717.33,-848 717.33,-715 717.33,-715 717.33,-709 723.33,-703 729.33,-703"/>
</g>
<!-- Starting&#45;&gt;ReqSent -->
<g id="edge4" class="edge">
<title>Starting&#45;&gt;ReqSent</title>
<path fill="none" stroke="red" d="M865.73,-912.52C862.53,-901.2 858.88,-889.08 855.08,-878 854.22,-875.5 853.33,-872.97 852.42,-870.42"/>
<polygon fill="red" stroke="red" points="855.8,-869.48 849.06,-861.3 849.23,-871.89 855.8,-869.48"/>
<text xml:space="preserve" text-anchor="middle" x="870.4" y="-881.2" font-family="Times,serif" font-size="14.00"> up </text>
</g>
<!-- Closed&#45;&gt;Initial -->
<g id="edge7" class="edge">
<title>Closed&#45;&gt;Initial</title>
<path fill="none" stroke="red" d="M1394.44,-100.53C1426.2,-127.82 1456.08,-165 1456.08,-208.25 1456.08,-958.25 1456.08,-958.25 1456.08,-958.25 1456.08,-988.06 1445.44,-1019.26 1433.69,-1044.62"/>
<polygon fill="red" stroke="red" points="1430.66,-1042.86 1429.46,-1053.39 1436.96,-1045.91 1430.66,-1042.86"/>
<text xml:space="preserve" text-anchor="middle" x="1474.83" y="-572.58" font-family="Times,serif" font-size="14.00"> down </text>
</g>
<!-- Closed&#45;&gt;ReqSent -->
<g id="edge6" class="edge">
<title>Closed&#45;&gt;ReqSent</title>
<path fill="none" stroke="red" d="M1333.52,-100.7C1363.42,-222.67 1419.91,-539.12 1247.08,-685 1220.07,-707.79 1123.75,-696.15 1089.08,-703 1034.48,-713.79 974.91,-730.14 925.39,-745.05"/>
<polygon fill="red" stroke="red" points="924.65,-741.62 916.1,-747.87 926.69,-748.32 924.65,-741.62"/>
<text xml:space="preserve" text-anchor="middle" x="1383.63" y="-379.95" font-family="Times,serif" font-size="14.00"> open </text>
</g>
<!-- Stopped -->
<g id="node5" class="node">
<title>Stopped</title>
<path fill="azure" stroke="none" d="M392.83,-100.75C392.83,-100.75 219.33,-100.75 219.33,-100.75 213.33,-100.75 207.33,-94.75 207.33,-88.75 207.33,-88.75 207.33,-12 207.33,-12 207.33,-6 213.33,0 219.33,0 219.33,0 392.83,0 392.83,0 398.83,0 404.83,-6 404.83,-12 404.83,-12 404.83,-88.75 404.83,-88.75 404.83,-94.75 398.83,-100.75 392.83,-100.75"/>
<text xml:space="preserve" text-anchor="start" x="282.45" y="-80.45" font-family="Times,serif" font-weight="bold" font-size="14.00">Stopped</text>
<text xml:space="preserve" text-anchor="start" x="215.33" y="-55.25" font-family="Times,serif" font-size="10.00">open()</text>
<text xml:space="preserve" text-anchor="start" x="215.33" y="-44" font-family="Times,serif" font-size="10.00">down()</text>
<text xml:space="preserve" text-anchor="start" x="215.33" y="-32.75" font-family="Times,serif" font-size="10.00">receive_configure_request(acceptable: bool)</text>
<text xml:space="preserve" text-anchor="start" x="215.33" y="-21.5" font-family="Times,serif" font-size="10.00">status()</text>
<text xml:space="preserve" text-anchor="start" x="292.58" y="-10.25" font-family="Times,serif" font-size="10.00"> &#160;&#160;&#160;&#160;&#160;&#160;&#160;&#160;&#160;&#160;&#160;</text>
<polygon fill="#00688b" stroke="#00688b" points="207.33,-70.25 207.33,-70.25 404.83,-70.25 404.83,-70.25 207.33,-70.25"/>
<path fill="none" stroke="#00688b" d="M219.33,0C219.33,0 392.83,0 392.83,0 398.83,0 404.83,-6 404.83,-12 404.83,-12 404.83,-88.75 404.83,-88.75 404.83,-94.75 398.83,-100.75 392.83,-100.75 392.83,-100.75 219.33,-100.75 219.33,-100.75 213.33,-100.75 207.33,-94.75 207.33,-88.75 207.33,-88.75 207.33,-12 207.33,-12 207.33,-6 213.33,0 219.33,0"/>
</g>
<!-- Stopped&#45;&gt;Starting -->
<g id="edge9" class="edge">
<title>Stopped&#45;&gt;Starting</title>
<path fill="none" stroke="red" d="M207.35,-79.52C168.8,-95.27 127.59,-118.86 101.08,-153.25 -33.88,-328.33 -29.31,-464.46 90.08,-650.5 165.11,-767.43 197.17,-799.18 322.08,-860 497.85,-945.58 737.55,-956.19 834.14,-956.74"/>
<polygon fill="red" stroke="red" points="833.95,-960.24 843.95,-956.76 833.96,-953.24 833.95,-960.24"/>
<text xml:space="preserve" text-anchor="middle" x="30.42" y="-473.45" font-family="Times,serif" font-size="14.00"> down </text>
</g>
<!-- Stopped&#45;&gt;Stopped -->
<g id="edge8" class="edge">
<title>Stopped&#45;&gt;Stopped</title>
<path fill="none" stroke="red" d="M404.45,-62.55C415.6,-60.27 422.83,-56.21 422.83,-50.38 422.83,-46.73 420.01,-43.77 415.17,-41.52"/>
<polygon fill="red" stroke="red" points="416.49,-38.26 405.9,-38.65 414.42,-44.95 416.49,-38.26"/>
<text xml:space="preserve" text-anchor="middle" x="439.7" y="-45.33" font-family="Times,serif" font-size="14.00"> open </text>
</g>
<!-- Stopped&#45;&gt;ReqSent -->
<g id="edge11" class="edge">
<title>Stopped&#45;&gt;ReqSent</title>
<path fill="none" stroke="red" d="M249.47,-100.4C244.5,-106.24 239.92,-112.4 236.08,-118.75 214.65,-154.2 210.08,-166.83 210.08,-208.25 210.08,-578.62 210.08,-578.62 210.08,-578.62 210.08,-611.17 203.34,-625.42 224.08,-650.5 271.67,-708.07 482.61,-689.53 556.08,-703 606.37,-712.22 660.75,-727.56 706.72,-742.16"/>
<polygon fill="red" stroke="red" points="705.58,-745.47 716.17,-745.2 707.72,-738.81 705.58,-745.47"/>
<text xml:space="preserve" text-anchor="middle" x="285.45" y="-379.95" font-family="Times,serif" font-size="14.00"> receive_configure_request </text>
</g>
<!-- AckSent -->
<g id="node10" class="node">
<title>AckSent</title>
<path fill="azure" stroke="none" d="M650.83,-650.5C650.83,-650.5 477.33,-650.5 477.33,-650.5 471.33,-650.5 465.33,-644.5 465.33,-638.5 465.33,-638.5 465.33,-516.75 465.33,-516.75 465.33,-510.75 471.33,-504.75 477.33,-504.75 477.33,-504.75 650.83,-504.75 650.83,-504.75 656.83,-504.75 662.83,-510.75 662.83,-516.75 662.83,-516.75 662.83,-638.5 662.83,-638.5 662.83,-644.5 656.83,-650.5 650.83,-650.5"/>
<text xml:space="preserve" text-anchor="start" x="539.7" y="-630.2" font-family="Times,serif" font-weight="bold" font-size="14.00">AckSent</text>
<text xml:space="preserve" text-anchor="start" x="473.33" y="-605" font-family="Times,serif" font-size="10.00">receive_configure_ack()</text>
<text xml:space="preserve" text-anchor="start" x="473.33" y="-593.75" font-family="Times,serif" font-size="10.00">timeout_positive()</text>
<text xml:space="preserve" text-anchor="start" x="473.33" y="-582.5" font-family="Times,serif" font-size="10.00">timeout_negative()</text>
<text xml:space="preserve" text-anchor="start" x="473.33" y="-571.25" font-family="Times,serif" font-size="10.00">receive_configure_request(acceptable: bool)</text>
<text xml:space="preserve" text-anchor="start" x="473.33" y="-560" font-family="Times,serif" font-size="10.00">receive_configure_nak()</text>
<text xml:space="preserve" text-anchor="start" x="473.33" y="-548.75" font-family="Times,serif" font-size="10.00">close()</text>
<text xml:space="preserve" text-anchor="start" x="473.33" y="-537.5" font-family="Times,serif" font-size="10.00">down()</text>
<text xml:space="preserve" text-anchor="start" x="473.33" y="-526.25" font-family="Times,serif" font-size="10.00">status()</text>
<text xml:space="preserve" text-anchor="start" x="550.58" y="-515" font-family="Times,serif" font-size="10.00"> &#160;&#160;&#160;&#160;&#160;&#160;&#160;&#160;&#160;&#160;&#160;</text>
<polygon fill="#00688b" stroke="#00688b" points="465.33,-620 465.33,-620 662.83,-620 662.83,-620 465.33,-620"/>
<path fill="none" stroke="#00688b" d="M477.33,-504.75C477.33,-504.75 650.83,-504.75 650.83,-504.75 656.83,-504.75 662.83,-510.75 662.83,-516.75 662.83,-516.75 662.83,-638.5 662.83,-638.5 662.83,-644.5 656.83,-650.5 650.83,-650.5 650.83,-650.5 477.33,-650.5 477.33,-650.5 471.33,-650.5 465.33,-644.5 465.33,-638.5 465.33,-638.5 465.33,-516.75 465.33,-516.75 465.33,-510.75 471.33,-504.75 477.33,-504.75"/>
</g>
<!-- Stopped&#45;&gt;AckSent -->
<g id="edge10" class="edge">
<title>Stopped&#45;&gt;AckSent</title>
<path fill="none" stroke="red" d="M404.49,-65.26C436.14,-74.91 467.95,-91.21 487.08,-118.75 525.73,-174.38 481.01,-207.83 445.08,-265.25 438.95,-275.04 430.86,-272.62 426.33,-283.25 423.45,-290 424.65,-292.61 426.33,-299.75 442.75,-369.62 479.58,-442.02 511.03,-495.25"/>
<polygon fill="red" stroke="red" points="507.92,-496.87 516.06,-503.66 513.93,-493.28 507.92,-496.87"/>
<text xml:space="preserve" text-anchor="middle" x="501.7" y="-286.45" font-family="Times,serif" font-size="14.00"> receive_configure_request </text>
</g>
<!-- Closing -->
<g id="node6" class="node">
<title>Closing</title>
<path fill="azure" stroke="none" d="M1219.2,-265.25C1219.2,-265.25 1128.95,-265.25 1128.95,-265.25 1122.95,-265.25 1116.95,-259.25 1116.95,-253.25 1116.95,-253.25 1116.95,-165.25 1116.95,-165.25 1116.95,-159.25 1122.95,-153.25 1128.95,-153.25 1128.95,-153.25 1219.2,-153.25 1219.2,-153.25 1225.2,-153.25 1231.2,-159.25 1231.2,-165.25 1231.2,-165.25 1231.2,-253.25 1231.2,-253.25 1231.2,-259.25 1225.2,-265.25 1219.2,-265.25"/>
<text xml:space="preserve" text-anchor="start" x="1152.33" y="-244.95" font-family="Times,serif" font-weight="bold" font-size="14.00">Closing</text>
<text xml:space="preserve" text-anchor="start" x="1124.95" y="-219.75" font-family="Times,serif" font-size="10.00">timeout_positive()</text>
<text xml:space="preserve" text-anchor="start" x="1124.95" y="-208.5" font-family="Times,serif" font-size="10.00">timeout_negative()</text>
<text xml:space="preserve" text-anchor="start" x="1124.95" y="-197.25" font-family="Times,serif" font-size="10.00">receive_terminate_ack()</text>
<text xml:space="preserve" text-anchor="start" x="1124.95" y="-186" font-family="Times,serif" font-size="10.00">down()</text>
<text xml:space="preserve" text-anchor="start" x="1124.95" y="-174.75" font-family="Times,serif" font-size="10.00">status()</text>
<text xml:space="preserve" text-anchor="start" x="1160.58" y="-163.5" font-family="Times,serif" font-size="10.00"> &#160;&#160;&#160;&#160;&#160;&#160;&#160;&#160;&#160;&#160;&#160;</text>
<polygon fill="#00688b" stroke="#00688b" points="1116.95,-234.75 1116.95,-234.75 1231.2,-234.75 1231.2,-234.75 1116.95,-234.75"/>
<path fill="none" stroke="#00688b" d="M1128.95,-153.25C1128.95,-153.25 1219.2,-153.25 1219.2,-153.25 1225.2,-153.25 1231.2,-159.25 1231.2,-165.25 1231.2,-165.25 1231.2,-253.25 1231.2,-253.25 1231.2,-259.25 1225.2,-265.25 1219.2,-265.25 1219.2,-265.25 1128.95,-265.25 1128.95,-265.25 1122.95,-265.25 1116.95,-259.25 1116.95,-253.25 1116.95,-253.25 1116.95,-165.25 1116.95,-165.25 1116.95,-159.25 1122.95,-153.25 1128.95,-153.25"/>
</g>
<!-- Closing&#45;&gt;Initial -->
<g id="edge14" class="edge">
<title>Closing&#45;&gt;Initial</title>
<path fill="none" stroke="red" d="M1231.05,-223.77C1280.42,-238.5 1349.92,-267.05 1389.08,-317.75 1407.47,-341.57 1403.08,-353.91 1403.08,-384 1403.08,-958.25 1403.08,-958.25 1403.08,-958.25 1403.08,-986.28 1403.08,-1017.47 1403.08,-1043.29"/>
<polygon fill="red" stroke="red" points="1399.58,-1043.22 1403.08,-1053.22 1406.58,-1043.22 1399.58,-1043.22"/>
<text xml:space="preserve" text-anchor="middle" x="1421.83" y="-671.7" font-family="Times,serif" font-size="14.00"> down </text>
</g>
<!-- Closing&#45;&gt;Closed -->
<g id="edge12" class="edge">
<title>Closing&#45;&gt;Closed</title>
<path fill="none" stroke="red" d="M1117.01,-191.68C1073.61,-176.14 1025.24,-150.55 1050.08,-118.75 1070.21,-92.97 1144.6,-75.61 1210.2,-64.98"/>
<polygon fill="red" stroke="red" points="1210.66,-68.45 1219.99,-63.44 1209.57,-61.54 1210.66,-68.45"/>
<text xml:space="preserve" text-anchor="middle" x="1101.08" y="-121.95" font-family="Times,serif" font-size="14.00"> timeout_negative </text>
</g>
<!-- Closing&#45;&gt;Closed -->
<g id="edge13" class="edge">
<title>Closing&#45;&gt;Closed</title>
<path fill="none" stroke="red" d="M1165.67,-153.36C1166.26,-141.2 1168.98,-128.92 1175.58,-118.75 1184.66,-104.75 1197.48,-93.61 1211.78,-84.75"/>
<polygon fill="red" stroke="red" points="1213.11,-88.02 1220.04,-80.01 1209.63,-81.95 1213.11,-88.02"/>
<text xml:space="preserve" text-anchor="middle" x="1240.83" y="-121.95" font-family="Times,serif" font-size="14.00"> receive_terminate_ack </text>
</g>
<!-- Stopping -->
<g id="node7" class="node">
<title>Stopping</title>
<path fill="azure" stroke="none" d="M424.2,-265.25C424.2,-265.25 333.95,-265.25 333.95,-265.25 327.95,-265.25 321.95,-259.25 321.95,-253.25 321.95,-253.25 321.95,-165.25 321.95,-165.25 321.95,-159.25 327.95,-153.25 333.95,-153.25 333.95,-153.25 424.2,-153.25 424.2,-153.25 430.2,-153.25 436.2,-159.25 436.2,-165.25 436.2,-165.25 436.2,-253.25 436.2,-253.25 436.2,-259.25 430.2,-265.25 424.2,-265.25"/>
<text xml:space="preserve" text-anchor="start" x="353.2" y="-244.95" font-family="Times,serif" font-weight="bold" font-size="14.00">Stopping</text>
<text xml:space="preserve" text-anchor="start" x="329.95" y="-219.75" font-family="Times,serif" font-size="10.00">timeout_positive()</text>
<text xml:space="preserve" text-anchor="start" x="329.95" y="-208.5" font-family="Times,serif" font-size="10.00">timeout_negative()</text>
<text xml:space="preserve" text-anchor="start" x="329.95" y="-197.25" font-family="Times,serif" font-size="10.00">receive_terminate_ack()</text>
<text xml:space="preserve" text-anchor="start" x="329.95" y="-186" font-family="Times,serif" font-size="10.00">down()</text>
<text xml:space="preserve" text-anchor="start" x="329.95" y="-174.75" font-family="Times,serif" font-size="10.00">status()</text>
<text xml:space="preserve" text-anchor="start" x="365.58" y="-163.5" font-family="Times,serif" font-size="10.00"> &#160;&#160;&#160;&#160;&#160;&#160;&#160;&#160;&#160;&#160;&#160;</text>
<polygon fill="#00688b" stroke="#00688b" points="321.95,-234.75 321.95,-234.75 436.2,-234.75 436.2,-234.75 321.95,-234.75"/>
<path fill="none" stroke="#00688b" d="M333.95,-153.25C333.95,-153.25 424.2,-153.25 424.2,-153.25 430.2,-153.25 436.2,-159.25 436.2,-165.25 436.2,-165.25 436.2,-253.25 436.2,-253.25 436.2,-259.25 430.2,-265.25 424.2,-265.25 424.2,-265.25 333.95,-265.25 333.95,-265.25 327.95,-265.25 321.95,-259.25 321.95,-253.25 321.95,-253.25 321.95,-165.25 321.95,-165.25 321.95,-159.25 327.95,-153.25 333.95,-153.25"/>
</g>
<!-- Stopping&#45;&gt;Starting -->
<g id="edge17" class="edge">
<title>Stopping&#45;&gt;Starting</title>
<path fill="none" stroke="red" d="M384.56,-264.87C387.62,-315.1 387.14,-390.87 365.08,-452.25 283.7,-678.61 -110.54,-718.17 53.08,-894.5 106.56,-952.14 672.9,-956.34 834.35,-956.36"/>
<polygon fill="red" stroke="red" points="834.18,-959.86 844.18,-956.36 834.18,-952.86 834.18,-959.86"/>
<text xml:space="preserve" text-anchor="middle" x="355.58" y="-572.58" font-family="Times,serif" font-size="14.00"> down </text>
</g>
<!-- Stopping&#45;&gt;Stopped -->
<g id="edge15" class="edge">
<title>Stopping&#45;&gt;Stopped</title>
<path fill="none" stroke="red" d="M322.26,-192.81C293.46,-181.79 261.06,-163.74 244.08,-135.25 239.19,-127.05 238.94,-118.67 241.64,-110.53"/>
<polygon fill="red" stroke="red" points="244.68,-112.27 245.84,-101.74 238.37,-109.25 244.68,-112.27"/>
<text xml:space="preserve" text-anchor="middle" x="295.08" y="-121.95" font-family="Times,serif" font-size="14.00"> timeout_negative </text>
</g>
<!-- Stopping&#45;&gt;Stopped -->
<g id="edge16" class="edge">
<title>Stopping&#45;&gt;Stopped</title>
<path fill="none" stroke="red" d="M360.75,-153.64C356.33,-141.96 351.35,-129.81 346.08,-118.75 344.78,-116.02 343.4,-113.26 341.98,-110.49"/>
<polygon fill="red" stroke="red" points="345.14,-108.99 337.33,-101.82 338.97,-112.29 345.14,-108.99"/>
<text xml:space="preserve" text-anchor="middle" x="417.72" y="-121.95" font-family="Times,serif" font-size="14.00"> receive_terminate_ack </text>
</g>
<!-- ReqSent&#45;&gt;Starting -->
<g id="edge23" class="edge">
<title>ReqSent&#45;&gt;Starting</title>
<path fill="none" stroke="red" d="M805.92,-859.73C806.72,-871.69 809,-883.66 813.58,-894.5 818.76,-906.77 827.71,-917.81 837.28,-927.04"/>
<polygon fill="red" stroke="red" points="834.87,-929.58 844.64,-933.66 839.55,-924.37 834.87,-929.58"/>
<text xml:space="preserve" text-anchor="middle" x="832.33" y="-881.2" font-family="Times,serif" font-size="14.00"> down </text>
</g>
<!-- ReqSent&#45;&gt;Stopped -->
<g id="edge18" class="edge">
<title>ReqSent&#45;&gt;Stopped</title>
<path fill="none" stroke="red" d="M717.37,-745.21C669.33,-729.56 610.35,-712.55 556.08,-703 488.77,-691.16 312.99,-709.19 249.08,-685 225.84,-676.2 221.52,-669.13 205.08,-650.5 101.13,-532.75 40.46,-468.04 86.08,-317.75 117.27,-215 147.83,-195.35 223.08,-118.75 226.54,-115.23 230.17,-111.71 233.91,-108.24"/>
<polygon fill="red" stroke="red" points="236.04,-111.03 241.11,-101.73 231.35,-105.84 236.04,-111.03"/>
<text xml:space="preserve" text-anchor="middle" x="137.08" y="-379.95" font-family="Times,serif" font-size="14.00"> timeout_negative </text>
</g>
<!-- ReqSent&#45;&gt;Closing -->
<g id="edge22" class="edge">
<title>ReqSent&#45;&gt;Closing</title>
<path fill="none" stroke="red" d="M914.72,-748.64C966.22,-732.99 1030.55,-714.97 1089.08,-703 1120.02,-696.67 1209.05,-708.57 1230.08,-685 1257.24,-654.55 1243.21,-357.28 1233.08,-317.75 1229.39,-303.37 1223.34,-288.85 1216.48,-275.33"/>
<polygon fill="red" stroke="red" points="1219.59,-273.73 1211.81,-266.54 1213.41,-277.02 1219.59,-273.73"/>
<text xml:space="preserve" text-anchor="middle" x="1262.79" y="-473.45" font-family="Times,serif" font-size="14.00"> close </text>
</g>
<!-- ReqSent&#45;&gt;ReqSent -->
<g id="edge21" class="edge">
<title>ReqSent&#45;&gt;ReqSent</title>
<path fill="none" stroke="red" d="M914.45,-798.14C925.6,-795.03 932.83,-789.48 932.83,-781.5 932.83,-776.39 929.86,-772.27 924.8,-769.16"/>
<polygon fill="red" stroke="red" points="926.43,-766.05 915.85,-765.44 923.74,-772.51 926.43,-766.05"/>
<text xml:space="preserve" text-anchor="middle" x="1008.2" y="-776.45" font-family="Times,serif" font-size="14.00"> receive_terminate_request </text>
</g>
<!-- AckRcvd -->
<g id="node9" class="node">
<title>AckRcvd</title>
<path fill="azure" stroke="none" d="M1194.83,-644.88C1194.83,-644.88 1021.33,-644.88 1021.33,-644.88 1015.33,-644.88 1009.33,-638.88 1009.33,-632.88 1009.33,-632.88 1009.33,-522.38 1009.33,-522.38 1009.33,-516.38 1015.33,-510.38 1021.33,-510.38 1021.33,-510.38 1194.83,-510.38 1194.83,-510.38 1200.83,-510.38 1206.83,-516.38 1206.83,-522.38 1206.83,-522.38 1206.83,-632.88 1206.83,-632.88 1206.83,-638.88 1200.83,-644.88 1194.83,-644.88"/>
<text xml:space="preserve" text-anchor="start" x="1081.45" y="-624.58" font-family="Times,serif" font-weight="bold" font-size="14.00">AckRcvd</text>
<text xml:space="preserve" text-anchor="start" x="1017.33" y="-599.38" font-family="Times,serif" font-size="10.00">receive_configure_request(acceptable: bool)</text>
<text xml:space="preserve" text-anchor="start" x="1017.33" y="-588.12" font-family="Times,serif" font-size="10.00">timeout_positive()</text>
<text xml:space="preserve" text-anchor="start" x="1017.33" y="-576.88" font-family="Times,serif" font-size="10.00">timeout_negative()</text>
<text xml:space="preserve" text-anchor="start" x="1017.33" y="-565.62" font-family="Times,serif" font-size="10.00">receive_configure_ack()</text>
<text xml:space="preserve" text-anchor="start" x="1017.33" y="-554.38" font-family="Times,serif" font-size="10.00">close()</text>
<text xml:space="preserve" text-anchor="start" x="1017.33" y="-543.12" font-family="Times,serif" font-size="10.00">down()</text>
<text xml:space="preserve" text-anchor="start" x="1017.33" y="-531.88" font-family="Times,serif" font-size="10.00">status()</text>
<text xml:space="preserve" text-anchor="start" x="1094.58" y="-520.62" font-family="Times,serif" font-size="10.00"> &#160;&#160;&#160;&#160;&#160;&#160;&#160;&#160;&#160;&#160;&#160;</text>
<polygon fill="#00688b" stroke="#00688b" points="1009.33,-614.38 1009.33,-614.38 1206.83,-614.38 1206.83,-614.38 1009.33,-614.38"/>
<path fill="none" stroke="#00688b" d="M1021.33,-510.38C1021.33,-510.38 1194.83,-510.38 1194.83,-510.38 1200.83,-510.38 1206.83,-516.38 1206.83,-522.38 1206.83,-522.38 1206.83,-632.88 1206.83,-632.88 1206.83,-638.88 1200.83,-644.88 1194.83,-644.88 1194.83,-644.88 1021.33,-644.88 1021.33,-644.88 1015.33,-644.88 1009.33,-638.88 1009.33,-632.88 1009.33,-632.88 1009.33,-522.38 1009.33,-522.38 1009.33,-516.38 1015.33,-510.38 1021.33,-510.38"/>
</g>
<!-- ReqSent&#45;&gt;AckRcvd -->
<g id="edge20" class="edge">
<title>ReqSent&#45;&gt;AckRcvd</title>
<path fill="none" stroke="red" d="M815.01,-703.11C818.25,-690.11 823.99,-677.83 833.58,-668.5 856.14,-646.55 944.1,-660.1 974.08,-650.5 982.39,-647.84 990.78,-644.67 999.11,-641.16"/>
<polygon fill="red" stroke="red" points="1000.46,-644.39 1008.21,-637.16 997.65,-637.98 1000.46,-644.39"/>
<text xml:space="preserve" text-anchor="middle" x="898.83" y="-671.7" font-family="Times,serif" font-size="14.00"> receive_configure_ack </text>
</g>
<!-- ReqSent&#45;&gt;AckSent -->
<g id="edge19" class="edge">
<title>ReqSent&#45;&gt;AckSent</title>
<path fill="none" stroke="red" d="M717.53,-767.55C623.46,-752.92 491.56,-725.72 460.33,-685 450.63,-672.36 451.65,-659.63 458.78,-647.58"/>
<polygon fill="red" stroke="red" points="461.43,-649.89 464.46,-639.74 455.76,-645.79 461.43,-649.89"/>
<text xml:space="preserve" text-anchor="middle" x="535.7" y="-671.7" font-family="Times,serif" font-size="14.00"> receive_configure_request </text>
</g>
<!-- AckRcvd&#45;&gt;Starting -->
<g id="edge29" class="edge">
<title>AckRcvd&#45;&gt;Starting</title>
<path fill="none" stroke="red" d="M1206.5,-625.18C1225.97,-641.3 1238.23,-661.36 1230.08,-685 1197.87,-778.38 1170.94,-799.21 1093.08,-860 1039.72,-901.66 965.47,-929.59 919.39,-944.19"/>
<polygon fill="red" stroke="red" points="918.56,-940.78 910.04,-947.08 920.63,-947.47 918.56,-940.78"/>
<text xml:space="preserve" text-anchor="middle" x="1241.38" y="-776.45" font-family="Times,serif" font-size="14.00"> down </text>
</g>
<!-- AckRcvd&#45;&gt;Stopped -->
<g id="edge26" class="edge">
<title>AckRcvd&#45;&gt;Stopped</title>
<path fill="none" stroke="red" d="M1131.83,-510.65C1134,-497.25 1134.32,-483.27 1131.08,-470.25 1112.53,-395.78 1107.62,-368.53 1050.08,-317.75 1026.77,-297.18 556.49,-128.82 527.08,-118.75 491.05,-106.42 451.35,-93.97 415.66,-83.18"/>
<polygon fill="red" stroke="red" points="416.76,-79.86 406.17,-80.33 414.74,-86.56 416.76,-79.86"/>
<text xml:space="preserve" text-anchor="middle" x="1061.82" y="-286.45" font-family="Times,serif" font-size="14.00"> timeout_negative </text>
</g>
<!-- AckRcvd&#45;&gt;Closing -->
<g id="edge28" class="edge">
<title>AckRcvd&#45;&gt;Closing</title>
<path fill="none" stroke="red" d="M1166.09,-510.4C1170.52,-502.8 1174.33,-494.85 1177.08,-486.75 1200.49,-417.82 1195.11,-333.53 1186.84,-276.27"/>
<polygon fill="red" stroke="red" points="1190.34,-276.05 1185.38,-266.69 1183.42,-277.1 1190.34,-276.05"/>
<text xml:space="preserve" text-anchor="middle" x="1211.52" y="-379.95" font-family="Times,serif" font-size="14.00"> close </text>
</g>
<!-- AckRcvd&#45;&gt;ReqSent -->
<g id="edge25" class="edge">
<title>AckRcvd&#45;&gt;ReqSent</title>
<path fill="none" stroke="red" d="M1019.17,-644.64C993.38,-663.73 970.41,-680.63 964.08,-685 951.2,-693.9 937.56,-703.06 923.96,-712.01"/>
<polygon fill="red" stroke="red" points="922.28,-708.93 915.84,-717.35 926.12,-714.79 922.28,-708.93"/>
<text xml:space="preserve" text-anchor="middle" x="1034.84" y="-671.7" font-family="Times,serif" font-size="14.00"> timeout_positive </text>
</g>
<!-- AckRcvd&#45;&gt;ReqSent -->
<g id="edge27" class="edge">
<title>AckRcvd&#45;&gt;ReqSent</title>
<path fill="none" stroke="red" d="M1105.12,-644.76C1101.72,-659.35 1095.87,-673.77 1086.08,-685 1045.7,-731.28 981.44,-755.13 925.73,-767.42"/>
<polygon fill="red" stroke="red" points="925.26,-763.95 916.19,-769.42 926.7,-770.8 925.26,-763.95"/>
<text xml:space="preserve" text-anchor="middle" x="1161.05" y="-671.7" font-family="Times,serif" font-size="14.00"> receive_configure_ack </text>
</g>
<!-- Opened -->
<g id="node11" class="node">
<title>Opened</title>
<path fill="azure" stroke="none" d="M1028.83,-452.25C1028.83,-452.25 855.33,-452.25 855.33,-452.25 849.33,-452.25 843.33,-446.25 843.33,-440.25 843.33,-440.25 843.33,-329.75 843.33,-329.75 843.33,-323.75 849.33,-317.75 855.33,-317.75 855.33,-317.75 1028.83,-317.75 1028.83,-317.75 1034.83,-317.75 1040.83,-323.75 1040.83,-329.75 1040.83,-329.75 1040.83,-440.25 1040.83,-440.25 1040.83,-446.25 1034.83,-452.25 1028.83,-452.25"/>
<text xml:space="preserve" text-anchor="start" x="919.2" y="-431.95" font-family="Times,serif" font-weight="bold" font-size="14.00">Opened</text>
<text xml:space="preserve" text-anchor="start" x="851.33" y="-406.75" font-family="Times,serif" font-size="10.00">$&gt;()</text>
<text xml:space="preserve" text-anchor="start" x="851.33" y="-395.5" font-family="Times,serif" font-size="10.00">&lt;$()</text>
<text xml:space="preserve" text-anchor="start" x="851.33" y="-384.25" font-family="Times,serif" font-size="10.00">receive_configure_request(acceptable: bool)</text>
<text xml:space="preserve" text-anchor="start" x="851.33" y="-373" font-family="Times,serif" font-size="10.00">receive_terminate_request()</text>
<text xml:space="preserve" text-anchor="start" x="851.33" y="-361.75" font-family="Times,serif" font-size="10.00">close()</text>
<text xml:space="preserve" text-anchor="start" x="851.33" y="-350.5" font-family="Times,serif" font-size="10.00">down()</text>
<text xml:space="preserve" text-anchor="start" x="851.33" y="-339.25" font-family="Times,serif" font-size="10.00">status()</text>
<text xml:space="preserve" text-anchor="start" x="928.58" y="-328" font-family="Times,serif" font-size="10.00"> &#160;&#160;&#160;&#160;&#160;&#160;&#160;&#160;&#160;&#160;&#160;</text>
<polygon fill="#00688b" stroke="#00688b" points="843.33,-421.75 843.33,-421.75 1040.83,-421.75 1040.83,-421.75 843.33,-421.75"/>
<path fill="none" stroke="#00688b" d="M855.33,-317.75C855.33,-317.75 1028.83,-317.75 1028.83,-317.75 1034.83,-317.75 1040.83,-323.75 1040.83,-329.75 1040.83,-329.75 1040.83,-440.25 1040.83,-440.25 1040.83,-446.25 1034.83,-452.25 1028.83,-452.25 1028.83,-452.25 855.33,-452.25 855.33,-452.25 849.33,-452.25 843.33,-446.25 843.33,-440.25 843.33,-440.25 843.33,-329.75 843.33,-329.75 843.33,-323.75 849.33,-317.75 855.33,-317.75"/>
</g>
<!-- AckRcvd&#45;&gt;Opened -->
<g id="edge24" class="edge">
<title>AckRcvd&#45;&gt;Opened</title>
<path fill="none" stroke="red" d="M1009.33,-520.1C997.09,-510.14 985.63,-498.98 976.33,-486.75 970.8,-479.48 966.14,-471.27 962.2,-462.74"/>
<polygon fill="red" stroke="red" points="965.46,-461.47 958.34,-453.62 959.02,-464.2 965.46,-461.47"/>
<text xml:space="preserve" text-anchor="middle" x="1051.7" y="-473.45" font-family="Times,serif" font-size="14.00"> receive_configure_request </text>
</g>
<!-- AckSent&#45;&gt;Starting -->
<g id="edge35" class="edge">
<title>AckSent&#45;&gt;Starting</title>
<path fill="none" stroke="red" d="M465.53,-614.22C432.96,-625.89 396.5,-638.85 363.08,-650.5 358.6,-652.06 285.88,-646.35 310.08,-685 429.37,-875.52 723.81,-935.06 834.28,-951.05"/>
<polygon fill="red" stroke="red" points="833.72,-954.51 844.11,-952.42 834.69,-947.57 833.72,-954.51"/>
<text xml:space="preserve" text-anchor="middle" x="533.33" y="-776.45" font-family="Times,serif" font-size="14.00"> down </text>
</g>
<!-- AckSent&#45;&gt;Stopped -->
<g id="edge31" class="edge">
<title>AckSent&#45;&gt;Stopped</title>
<path fill="none" stroke="red" d="M579.91,-504.93C597.79,-402.6 612.04,-216.31 506.08,-118.75 481.01,-95.67 447.77,-80.47 415.6,-70.47"/>
<polygon fill="red" stroke="red" points="416.77,-67.17 406.19,-67.7 414.79,-73.88 416.77,-67.17"/>
<text xml:space="preserve" text-anchor="middle" x="638.98" y="-286.45" font-family="Times,serif" font-size="14.00"> timeout_negative </text>
</g>
<!-- AckSent&#45;&gt;Closing -->
<g id="edge34" class="edge">
<title>AckSent&#45;&gt;Closing</title>
<path fill="none" stroke="red" d="M583.31,-505.07C606.06,-435.66 651.18,-333.67 730.08,-283.25 791.19,-244.2 997.23,-223.39 1105.81,-214.91"/>
<polygon fill="red" stroke="red" points="1105.75,-218.42 1115.45,-214.17 1105.21,-211.44 1105.75,-218.42"/>
<text xml:space="preserve" text-anchor="middle" x="705.2" y="-379.95" font-family="Times,serif" font-size="14.00"> close </text>
</g>
<!-- AckSent&#45;&gt;ReqSent -->
<g id="edge32" class="edge">
<title>AckSent&#45;&gt;ReqSent</title>
<path fill="none" stroke="red" d="M604.23,-650.41C613.13,-662.84 623.25,-674.98 634.33,-685 655.68,-704.32 681.65,-720.95 707.2,-734.68"/>
<polygon fill="red" stroke="red" points="705.52,-737.75 716,-739.28 708.77,-731.54 705.52,-737.75"/>
<text xml:space="preserve" text-anchor="middle" x="709.7" y="-671.7" font-family="Times,serif" font-size="14.00"> receive_configure_request </text>
</g>
<!-- AckSent&#45;&gt;ReqSent -->
<g id="edge33" class="edge">
<title>AckSent&#45;&gt;ReqSent</title>
<path fill="none" stroke="red" d="M465.65,-613.84C397.58,-638.3 319.01,-666.81 317.83,-668.5 313.62,-674.51 313.16,-679.35 317.83,-685 366.11,-743.42 574.68,-766.45 706.18,-775.28"/>
<polygon fill="red" stroke="red" points="705.76,-778.76 715.97,-775.91 706.22,-771.77 705.76,-778.76"/>
<text xml:space="preserve" text-anchor="middle" x="383.45" y="-671.7" font-family="Times,serif" font-size="14.00"> receive_configure_nak </text>
</g>
<!-- AckSent&#45;&gt;Opened -->
<g id="edge30" class="edge">
<title>AckSent&#45;&gt;Opened</title>
<path fill="none" stroke="red" d="M662.8,-539.34C698.62,-524.52 738.91,-506.34 774.08,-486.75 785.23,-480.54 786.83,-477.14 797.58,-470.25 809.15,-462.83 821.39,-455.27 833.64,-447.89"/>
<polygon fill="red" stroke="red" points="835.39,-450.92 842.17,-442.78 831.79,-444.92 835.39,-450.92"/>
<text xml:space="preserve" text-anchor="middle" x="862.83" y="-473.45" font-family="Times,serif" font-size="14.00"> receive_configure_ack </text>
</g>
<!-- Opened&#45;&gt;Starting -->
<g id="edge40" class="edge">
<title>Opened&#45;&gt;Starting</title>
<path fill="none" stroke="red" d="M1040.64,-405.46C1099.72,-422.12 1171.76,-452.1 1216.08,-504.75 1318.68,-626.64 1362.2,-734.48 1264.08,-860 1221.64,-914.28 1011.28,-942.34 919.75,-952.14"/>
<polygon fill="red" stroke="red" points="919.51,-948.64 909.92,-953.16 920.23,-955.6 919.51,-948.64"/>
<text xml:space="preserve" text-anchor="middle" x="1334.61" y="-671.7" font-family="Times,serif" font-size="14.00"> down </text>
</g>
<!-- Opened&#45;&gt;Closing -->
<g id="edge39" class="edge">
<title>Opened&#45;&gt;Closing</title>
<path fill="none" stroke="red" d="M1040.55,-349.28C1067.97,-336.53 1096.42,-320.11 1119.08,-299.75 1127.13,-292.51 1134.41,-283.82 1140.84,-274.73"/>
<polygon fill="red" stroke="red" points="1143.74,-276.68 1146.38,-266.42 1137.92,-272.8 1143.74,-276.68"/>
<text xml:space="preserve" text-anchor="middle" x="1150.42" y="-286.45" font-family="Times,serif" font-size="14.00"> close </text>
</g>
<!-- Opened&#45;&gt;Stopping -->
<g id="edge38" class="edge">
<title>Opened&#45;&gt;Stopping</title>
<path fill="none" stroke="red" d="M843.57,-337.38C801.55,-318.74 751.58,-298.2 705.08,-283.25 617.78,-255.18 513.97,-233.94 447.34,-221.8"/>
<polygon fill="red" stroke="red" points="448.11,-218.38 437.65,-220.05 446.87,-225.27 448.11,-218.38"/>
<text xml:space="preserve" text-anchor="middle" x="826.93" y="-286.45" font-family="Times,serif" font-size="14.00"> receive_terminate_request </text>
</g>
<!-- Opened&#45;&gt;ReqSent -->
<g id="edge37" class="edge">
<title>Opened&#45;&gt;ReqSent</title>
<path fill="none" stroke="red" d="M944.25,-452.02C941.74,-464.8 936.85,-477.18 928.08,-486.75 903.81,-513.21 874.18,-478.84 849.33,-504.75 798.11,-558.17 826.81,-594.9 819.08,-668.5 818.28,-676.13 817.65,-684.06 817.17,-692.02"/>
<polygon fill="red" stroke="red" points="813.68,-691.6 816.65,-701.77 820.67,-691.97 813.68,-691.6"/>
<text xml:space="preserve" text-anchor="middle" x="924.7" y="-572.58" font-family="Times,serif" font-size="14.00"> receive_configure_request </text>
</g>
<!-- Opened&#45;&gt;AckSent -->
<g id="edge36" class="edge">
<title>Opened&#45;&gt;AckSent</title>
<path fill="none" stroke="red" d="M843.54,-418.02C805.26,-429.77 760.87,-442.55 720.08,-452.25 675.82,-462.77 655.97,-443.29 619.33,-470.25 610.21,-476.96 602.48,-485.61 595.95,-495.09"/>
<polygon fill="red" stroke="red" points="593,-493.19 590.62,-503.51 598.92,-496.93 593,-493.19"/>
<text xml:space="preserve" text-anchor="middle" x="694.7" y="-473.45" font-family="Times,serif" font-size="14.00"> receive_configure_request </text>
</g>
</g>
</svg>
