<?xml version="1.0" encoding="UTF-8" standalone="no"?>
<!DOCTYPE svg PUBLIC "-//W3C//DTD SVG 1.1//EN"
 "http://www.w3.org/Graphics/SVG/1.1/DTD/svg11.dtd">
<!-- Generated by graphviz version 14.1.5 (20260411.2331)
 -->
<!-- Title: NtpAssociation Pages: 1 -->
<svg width="244pt" height="336pt"
 viewBox="0.00 0.00 244.00 336.00" xmlns="http://www.w3.org/2000/svg" xmlns:xlink="http://www.w3.org/1999/xlink">
<g id="graph0" class="graph" transform="scale(1 1) rotate(0) translate(4 331.9)">
<title>NtpAssociation</title>
<polygon fill="white" stroke="none" points="-4,4 -4,-331.9 239.62,-331.9 239.62,4 -4,4"/>
<!-- Entry -->
<g id="node1" class="node">
<title>Entry</title>
<ellipse fill="black" stroke="#00688b" cx="113.75" cy="-320.7" rx="7.2" ry="7.2"/>
</g>
<!-- Unsynced -->
<g id="node2" class="node">
<title>Unsynced</title>
<path fill="azure" stroke="none" d="M215.5,-276.5C215.5,-276.5 12,-276.5 12,-276.5 6,-276.5 0,-270.5 0,-264.5 0,-264.5 0,-176.5 0,-176.5 0,-170.5 6,-164.5 12,-164.5 12,-164.5 215.5,-164.5 215.5,-164.5 221.5,-164.5 227.5,-170.5 227.5,-176.5 227.5,-176.5 227.5,-264.5 227.5,-264.5 227.5,-270.5 221.5,-276.5 215.5,-276.5"/>
<text xml:space="preserve" text-anchor="start" x="85.62" y="-256.2" font-family="Times,serif" font-weight="bold" font-size="14.00">Unsynced</text>
<text xml:space="preserve" text-anchor="start" x="8" y="-231" font-family="Times,serif" font-size="10.00">$&gt;()</text>
<text xml:space="preserve" text-anchor="start" x="8" y="-219.75" font-family="Times,serif" font-size="10.00">poll_tick()</text>
<text xml:space="preserve" text-anchor="start" x="8" y="-208.5" font-family="Times,serif" font-size="10.00">response_received(offset_ms: float, delay_ms: float)</text>
<text xml:space="preserve" text-anchor="start" x="8" y="-197.25" font-family="Times,serif" font-size="10.00">poll_timeout()</text>
<text xml:space="preserve" text-anchor="start" x="8" y="-186" font-family="Times,serif" font-size="10.00">status()</text>
<text xml:space="preserve" text-anchor="start" x="100.25" y="-174.75" font-family="Times,serif" font-size="10.00"> &#160;&#160;&#160;&#160;&#160;&#160;&#160;&#160;&#160;&#160;&#160;</text>
<polygon fill="#00688b" stroke="#00688b" points="0,-246 0,-246 227.5,-246 227.5,-246 0,-246"/>
<path fill="none" stroke="#00688b" d="M12,-164.5C12,-164.5 215.5,-164.5 215.5,-164.5 221.5,-164.5 227.5,-170.5 227.5,-176.5 227.5,-176.5 227.5,-264.5 227.5,-264.5 227.5,-270.5 221.5,-276.5 215.5,-276.5 215.5,-276.5 12,-276.5 12,-276.5 6,-276.5 0,-270.5 0,-264.5 0,-264.5 0,-176.5 0,-176.5 0,-170.5 6,-164.5 12,-164.5"/>
</g>
<!-- Entry&#45;&gt;Unsynced -->
<g id="edge1" class="edge">
<title>Entry&#45;&gt;Unsynced</title>
<path fill="none" stroke="red" d="M113.75,-313.26C113.75,-307.37 113.75,-297.98 113.75,-287.42"/>
<polygon fill="red" stroke="red" points="117.25,-287.59 113.75,-277.59 110.25,-287.59 117.25,-287.59"/>
</g>
<!-- Synced -->
<g id="node3" class="node">
<title>Synced</title>
<path fill="azure" stroke="none" d="M215.5,-112C215.5,-112 12,-112 12,-112 6,-112 0,-106 0,-100 0,-100 0,-12 0,-12 0,-6 6,0 12,0 12,0 215.5,0 215.5,0 221.5,0 227.5,-6 227.5,-12 227.5,-12 227.5,-100 227.5,-100 227.5,-106 221.5,-112 215.5,-112"/>
<text xml:space="preserve" text-anchor="start" x="93.12" y="-91.7" font-family="Times,serif" font-weight="bold" font-size="14.00">Synced</text>
<text xml:space="preserve" text-anchor="start" x="8" y="-66.5" font-family="Times,serif" font-size="10.00">$&gt;()</text>
<text xml:space="preserve" text-anchor="start" x="8" y="-55.25" font-family="Times,serif" font-size="10.00">poll_tick()</text>
<text xml:space="preserve" text-anchor="start" x="8" y="-44" font-family="Times,serif" font-size="10.00">response_received(offset_ms: float, delay_ms: float)</text>
<text xml:space="preserve" text-anchor="start" x="8" y="-32.75" font-family="Times,serif" font-size="10.00">poll_timeout()</text>
<text xml:space="preserve" text-anchor="start" x="8" y="-21.5" font-family="Times,serif" font-size="10.00">status()</text>
<text xml:space="preserve" text-anchor="start" x="100.25" y="-10.25" font-family="Times,serif" font-size="10.00"> &#160;&#160;&#160;&#160;&#160;&#160;&#160;&#160;&#160;&#160;&#160;</text>
<polygon fill="#00688b" stroke="#00688b" points="0,-81.5 0,-81.5 227.5,-81.5 227.5,-81.5 0,-81.5"/>
<path fill="none" stroke="#00688b" d="M12,0C12,0 215.5,0 215.5,0 221.5,0 227.5,-6 227.5,-12 227.5,-12 227.5,-100 227.5,-100 227.5,-106 221.5,-112 215.5,-112 215.5,-112 12,-112 12,-112 6,-112 0,-106 0,-100 0,-100 0,-12 0,-12 0,-6 6,0 12,0"/>
</g>
<!-- Unsynced&#45;&gt;Synced -->
<g id="edge2" class="edge">
<title>Unsynced&#45;&gt;Synced</title>
<path fill="none" stroke="red" d="M58.81,-164.78C55.09,-158.94 51.88,-152.82 49.5,-146.5 46.39,-138.26 46.48,-130.08 48.72,-122.22"/>
<polygon fill="red" stroke="red" points="51.89,-123.69 52.43,-113.11 45.41,-121.05 51.89,-123.69"/>
<text xml:space="preserve" text-anchor="middle" x="103.12" y="-133.2" font-family="Times,serif" font-size="14.00"> response_received </text>
</g>
<!-- Synced&#45;&gt;Unsynced -->
<g id="edge3" class="edge">
<title>Synced&#45;&gt;Unsynced</title>
<path fill="none" stroke="red" d="M153.89,-111.65C158.15,-122.89 159.92,-134.86 156.75,-146.5 156.05,-149.07 155.23,-151.65 154.32,-154.21"/>
<polygon fill="red" stroke="red" points="151.16,-152.68 150.63,-163.26 157.65,-155.32 151.16,-152.68"/>
<text xml:space="preserve" text-anchor="middle" x="196.99" y="-133.2" font-family="Times,serif" font-size="14.00"> poll_timeout </text>
</g>
</g>
</svg>
