<?xml version="1.0" encoding="UTF-8" standalone="no"?>
<!DOCTYPE svg PUBLIC "-//W3C//DTD SVG 1.1//EN"
 "http://www.w3.org/Graphics/SVG/1.1/DTD/svg11.dtd">
<!-- Generated by graphviz version 14.1.5 (20260411.2331)
 -->
<!-- Title: HttpConnection Pages: 1 -->
<svg width="665pt" height="628pt"
 viewBox="0.00 0.00 665.00 628.00" xmlns="http://www.w3.org/2000/svg" xmlns:xlink="http://www.w3.org/1999/xlink">
<g id="graph0" class="graph" transform="scale(1 1) rotate(0) translate(4 623.75)">
<title>HttpConnection</title>
<polygon fill="white" stroke="none" points="-4,4 -4,-623.75 660.65,-623.75 660.65,4 -4,4"/>
<g id="clust1" class="cluster">
<title>cluster_Open</title>
<path fill="none" stroke="black" d="M296.07,-8C296.07,-8 598.07,-8 598.07,-8 604.07,-8 610.07,-14 610.07,-20 610.07,-20 610.07,-599.75 610.07,-599.75 610.07,-605.75 604.07,-611.75 598.07,-611.75 598.07,-611.75 296.07,-611.75 296.07,-611.75 290.07,-611.75 284.07,-605.75 284.07,-599.75 284.07,-599.75 284.07,-20 284.07,-20 284.07,-14 290.07,-8 296.07,-8"/>
<text xml:space="preserve" text-anchor="start" x="432.45" y="-591" font-family="Times,serif" font-size="14.00">Open</text>
<text xml:space="preserve" text-anchor="start" x="388.57" y="-572.25" font-family="Times,serif" font-size="10.00">connection_error(reason: str)</text>
<text xml:space="preserve" text-anchor="start" x="388.57" y="-561" font-family="Times,serif" font-size="10.00">close()</text>
<text xml:space="preserve" text-anchor="start" x="429.07" y="-549.75" font-family="Times,serif" font-size="10.00"> &#160;&#160;&#160;&#160;&#160;&#160;&#160;&#160;&#160;&#160;&#160;&#160;&#160;&#160;&#160;</text>
<polygon fill="black" stroke="black" points="384.57,-584.25 384.57,-584.25 509.57,-584.25 509.57,-584.25 384.57,-584.25"/>
</g>
<!-- Entry -->
<g id="node1" class="node">
<title>Entry</title>
<ellipse fill="black" stroke="#00688b" cx="53.07" cy="-322.25" rx="7.2" ry="7.2"/>
</g>
<!-- Disconnected -->
<g id="node2" class="node">
<title>Disconnected</title>
<path fill="azure" stroke="none" d="M155.07,-219.38C155.07,-219.38 55.07,-219.38 55.07,-219.38 49.07,-219.38 43.07,-213.38 43.07,-207.38 43.07,-207.38 43.07,-153.12 43.07,-153.12 43.07,-147.12 49.07,-141.12 55.07,-141.12 55.07,-141.12 155.07,-141.12 155.07,-141.12 161.07,-141.12 167.07,-147.12 167.07,-153.12 167.07,-153.12 167.07,-207.38 167.07,-207.38 167.07,-213.38 161.07,-219.38 155.07,-219.38"/>
<text xml:space="preserve" text-anchor="start" x="66.82" y="-199.07" font-family="Times,serif" font-weight="bold" font-size="14.00">Disconnected</text>
<text xml:space="preserve" text-anchor="start" x="51.07" y="-173.88" font-family="Times,serif" font-size="10.00">connect(host: str, port: int)</text>
<text xml:space="preserve" text-anchor="start" x="51.07" y="-162.62" font-family="Times,serif" font-size="10.00">status()</text>
<text xml:space="preserve" text-anchor="start" x="91.57" y="-151.38" font-family="Times,serif" font-size="10.00"> &#160;&#160;&#160;&#160;&#160;&#160;&#160;&#160;&#160;&#160;&#160;</text>
<polygon fill="#00688b" stroke="#00688b" points="43.07,-188.88 43.07,-188.88 167.07,-188.88 167.07,-188.88 43.07,-188.88"/>
<path fill="none" stroke="#00688b" d="M55.07,-141.12C55.07,-141.12 155.07,-141.12 155.07,-141.12 161.07,-141.12 167.07,-147.12 167.07,-153.12 167.07,-153.12 167.07,-207.38 167.07,-207.38 167.07,-213.38 161.07,-219.38 155.07,-219.38 155.07,-219.38 55.07,-219.38 55.07,-219.38 49.07,-219.38 43.07,-213.38 43.07,-207.38 43.07,-207.38 43.07,-153.12 43.07,-153.12 43.07,-147.12 49.07,-141.12 55.07,-141.12"/>
</g>
<!-- Entry&#45;&gt;Disconnected -->
<g id="edge1" class="edge">
<title>Entry&#45;&gt;Disconnected</title>
<path fill="none" stroke="red" d="M55.31,-315.23C60.76,-300.56 75.16,-261.8 87.07,-229.71"/>
<polygon fill="red" stroke="red" points="90.27,-231.15 90.47,-220.55 83.71,-228.71 90.27,-231.15"/>
</g>
<!-- Connecting -->
<g id="node3" class="node">
<title>Connecting</title>
<path fill="azure" stroke="none" d="M89.07,-83C89.07,-83 31.07,-83 31.07,-83 25.07,-83 19.07,-77 19.07,-71 19.07,-71 19.07,-28 19.07,-28 19.07,-22 25.07,-16 31.07,-16 31.07,-16 89.07,-16 89.07,-16 95.07,-16 101.07,-22 101.07,-28 101.07,-28 101.07,-71 101.07,-71 101.07,-77 95.07,-83 89.07,-83"/>
<text xml:space="preserve" text-anchor="start" x="27.07" y="-62.7" font-family="Times,serif" font-weight="bold" font-size="14.00">Connecting</text>
<text xml:space="preserve" text-anchor="start" x="27.07" y="-37.5" font-family="Times,serif" font-size="10.00">$&gt;()</text>
<text xml:space="preserve" text-anchor="start" x="27.07" y="-26.25" font-family="Times,serif" font-size="10.00"> &#160;&#160;&#160;&#160;&#160;&#160;&#160;&#160;&#160;&#160;&#160;</text>
<polygon fill="#00688b" stroke="#00688b" points="19.07,-52.5 19.07,-52.5 101.07,-52.5 101.07,-52.5 19.07,-52.5"/>
<path fill="none" stroke="#00688b" d="M31.07,-16C31.07,-16 89.07,-16 89.07,-16 95.07,-16 101.07,-22 101.07,-28 101.07,-28 101.07,-71 101.07,-71 101.07,-77 95.07,-83 89.07,-83 89.07,-83 31.07,-83 31.07,-83 25.07,-83 19.07,-77 19.07,-71 19.07,-71 19.07,-28 19.07,-28 19.07,-22 25.07,-16 31.07,-16"/>
</g>
<!-- Disconnected&#45;&gt;Connecting -->
<g id="edge2" class="edge">
<title>Disconnected&#45;&gt;Connecting</title>
<path fill="none" stroke="red" d="M91.82,-141.32C86.6,-126.4 80.58,-109.18 75.2,-93.77"/>
<polygon fill="red" stroke="red" points="78.51,-92.65 71.91,-84.37 71.91,-94.96 78.51,-92.65"/>
<text xml:space="preserve" text-anchor="middle" x="107.32" y="-104.2" font-family="Times,serif" font-size="14.00"> connect </text>
</g>
<!-- Idle -->
<g id="node5" class="node">
<title>Idle</title>
<path fill="azure" stroke="none" d="M469.32,-531.5C469.32,-531.5 334.82,-531.5 334.82,-531.5 328.82,-531.5 322.82,-525.5 322.82,-519.5 322.82,-519.5 322.82,-431.5 322.82,-431.5 322.82,-425.5 328.82,-419.5 334.82,-419.5 334.82,-419.5 469.32,-419.5 469.32,-419.5 475.32,-419.5 481.32,-425.5 481.32,-431.5 481.32,-431.5 481.32,-519.5 481.32,-519.5 481.32,-525.5 475.32,-531.5 469.32,-531.5"/>
<text xml:space="preserve" text-anchor="start" x="390.82" y="-511.2" font-family="Times,serif" font-weight="bold" font-size="14.00">Idle</text>
<text xml:space="preserve" text-anchor="start" x="330.82" y="-486" font-family="Times,serif" font-size="10.00">$&gt;()</text>
<text xml:space="preserve" text-anchor="start" x="330.82" y="-474.75" font-family="Times,serif" font-size="10.00">&lt;$()</text>
<text xml:space="preserve" text-anchor="start" x="330.82" y="-463.5" font-family="Times,serif" font-size="10.00">send_request(method: str, path: str)</text>
<text xml:space="preserve" text-anchor="start" x="330.82" y="-452.25" font-family="Times,serif" font-size="10.00">keep_alive_timeout()</text>
<text xml:space="preserve" text-anchor="start" x="330.82" y="-441" font-family="Times,serif" font-size="10.00">status()</text>
<text xml:space="preserve" text-anchor="start" x="384.07" y="-429.75" font-family="Times,serif" font-size="10.00"> &#160;&#160;&#160;&#160;&#160;&#160;&#160;&#160;&#160;&#160;&#160;&#160;&#160;&#160;&#160;</text>
<polygon fill="#00688b" stroke="#00688b" points="322.82,-501 322.82,-501 481.32,-501 481.32,-501 322.82,-501"/>
<path fill="none" stroke="#00688b" d="M334.82,-419.5C334.82,-419.5 469.32,-419.5 469.32,-419.5 475.32,-419.5 481.32,-425.5 481.32,-431.5 481.32,-431.5 481.32,-519.5 481.32,-519.5 481.32,-525.5 475.32,-531.5 469.32,-531.5 469.32,-531.5 334.82,-531.5 334.82,-531.5 328.82,-531.5 322.82,-525.5 322.82,-519.5 322.82,-519.5 322.82,-431.5 322.82,-431.5 322.82,-425.5 328.82,-419.5 334.82,-419.5"/>
</g>
<!-- Connecting&#45;&gt;Idle -->
<g id="edge3" class="edge">
<title>Connecting&#45;&gt;Idle</title>
<path fill="none" stroke="red" d="M44.22,-82.82C15.64,-146.28 -35.18,-287.86 37.07,-367 56.44,-388.21 136.89,-379.46 165.07,-385 226.26,-397.03 243.01,-396.74 301.07,-419.5 304.93,-421.01 308.81,-422.64 312.71,-424.35"/>
<polygon fill="red" stroke="red" points="311.09,-427.46 321.64,-428.44 314.01,-421.09 311.09,-427.46"/>
<text xml:space="preserve" text-anchor="middle" x="20.95" y="-246.2" font-family="Times,serif" font-size="14.00"> tcp up </text>
</g>
<!-- Open -->
<g id="node4" class="node">
<title>Open</title>
<ellipse fill="azure" stroke="#00688b" cx="292.07" cy="-475.5" rx="0.36" ry="0.36"/>
</g>
<!-- Open&#45;&gt;Disconnected -->
<g id="edge11" class="edge">
<title>Open&#45;&gt;Disconnected</title>
<path fill="none" stroke="red" d="M284.07,-472.86C253.87,-466.17 146.38,-437.9 105.32,-367 81.42,-325.73 85.05,-270.14 92.38,-230.56"/>
<polygon fill="red" stroke="red" points="95.8,-231.31 94.34,-220.82 88.94,-229.94 95.8,-231.31"/>
<text xml:space="preserve" text-anchor="middle" x="155.2" y="-317.2" font-family="Times,serif" font-size="14.00"> connection_error </text>
</g>
<!-- Closing -->
<g id="node9" class="node">
<title>Closing</title>
<path fill="azure" stroke="none" d="M261.82,-355.75C261.82,-355.75 226.32,-355.75 226.32,-355.75 220.32,-355.75 214.32,-349.75 214.32,-343.75 214.32,-343.75 214.32,-300.75 214.32,-300.75 214.32,-294.75 220.32,-288.75 226.32,-288.75 226.32,-288.75 261.82,-288.75 261.82,-288.75 267.82,-288.75 273.82,-294.75 273.82,-300.75 273.82,-300.75 273.82,-343.75 273.82,-343.75 273.82,-349.75 267.82,-355.75 261.82,-355.75"/>
<text xml:space="preserve" text-anchor="start" x="222.32" y="-335.45" font-family="Times,serif" font-weight="bold" font-size="14.00">Closing</text>
<text xml:space="preserve" text-anchor="start" x="222.32" y="-310.25" font-family="Times,serif" font-size="10.00">$&gt;()</text>
<text xml:space="preserve" text-anchor="start" x="222.32" y="-299" font-family="Times,serif" font-size="10.00"> &#160;&#160;&#160;&#160;&#160;&#160;&#160;&#160;&#160;&#160;&#160;</text>
<polygon fill="#00688b" stroke="#00688b" points="214.32,-325.25 214.32,-325.25 273.82,-325.25 273.82,-325.25 214.32,-325.25"/>
<path fill="none" stroke="#00688b" d="M226.32,-288.75C226.32,-288.75 261.82,-288.75 261.82,-288.75 267.82,-288.75 273.82,-294.75 273.82,-300.75 273.82,-300.75 273.82,-343.75 273.82,-343.75 273.82,-349.75 267.82,-355.75 261.82,-355.75 261.82,-355.75 226.32,-355.75 226.32,-355.75 220.32,-355.75 214.32,-349.75 214.32,-343.75 214.32,-343.75 214.32,-300.75 214.32,-300.75 214.32,-294.75 220.32,-288.75 226.32,-288.75"/>
</g>
<!-- Open&#45;&gt;Closing -->
<g id="edge12" class="edge">
<title>Open&#45;&gt;Closing</title>
<path fill="none" stroke="red" d="M284.07,-470.97C265.58,-462.3 220.12,-437.99 202.82,-401.5 196.59,-388.34 200.63,-374.19 208.19,-361.6"/>
<polygon fill="red" stroke="red" points="210.94,-363.78 213.7,-353.56 205.16,-359.83 210.94,-363.78"/>
<text xml:space="preserve" text-anchor="middle" x="220.45" y="-388.2" font-family="Times,serif" font-size="14.00"> close </text>
</g>
<!-- AwaitingResponse -->
<g id="node6" class="node">
<title>AwaitingResponse</title>
<path fill="azure" stroke="none" d="M569.57,-367C569.57,-367 304.57,-367 304.57,-367 298.57,-367 292.57,-361 292.57,-355 292.57,-355 292.57,-289.5 292.57,-289.5 292.57,-283.5 298.57,-277.5 304.57,-277.5 304.57,-277.5 569.57,-277.5 569.57,-277.5 575.57,-277.5 581.57,-283.5 581.57,-289.5 581.57,-289.5 581.57,-355 581.57,-355 581.57,-361 575.57,-367 569.57,-367"/>
<text xml:space="preserve" text-anchor="start" x="383.82" y="-346.7" font-family="Times,serif" font-weight="bold" font-size="14.00">AwaitingResponse</text>
<text xml:space="preserve" text-anchor="start" x="300.57" y="-321.5" font-family="Times,serif" font-size="10.00">$&gt;()</text>
<text xml:space="preserve" text-anchor="start" x="300.57" y="-310.25" font-family="Times,serif" font-size="10.00">headers_received(status: int, keep_alive: bool, content_length: int)</text>
<text xml:space="preserve" text-anchor="start" x="300.57" y="-299" font-family="Times,serif" font-size="10.00">status()</text>
<text xml:space="preserve" text-anchor="start" x="419.07" y="-287.75" font-family="Times,serif" font-size="10.00"> &#160;&#160;&#160;&#160;&#160;&#160;&#160;&#160;&#160;&#160;&#160;&#160;&#160;&#160;&#160;</text>
<polygon fill="#00688b" stroke="#00688b" points="292.57,-336.5 292.57,-336.5 581.57,-336.5 581.57,-336.5 292.57,-336.5"/>
<path fill="none" stroke="#00688b" d="M304.57,-277.5C304.57,-277.5 569.57,-277.5 569.57,-277.5 575.57,-277.5 581.57,-283.5 581.57,-289.5 581.57,-289.5 581.57,-355 581.57,-355 581.57,-361 575.57,-367 569.57,-367 569.57,-367 304.57,-367 304.57,-367 298.57,-367 292.57,-361 292.57,-355 292.57,-355 292.57,-289.5 292.57,-289.5 292.57,-283.5 298.57,-277.5 304.57,-277.5"/>
</g>
<!-- Idle&#45;&gt;AwaitingResponse -->
<g id="edge4" class="edge">
<title>Idle&#45;&gt;AwaitingResponse</title>
<path fill="none" stroke="red" d="M414.71,-419.9C417.86,-406.28 421.24,-391.67 424.39,-378.04"/>
<polygon fill="red" stroke="red" points="427.79,-378.88 426.64,-368.35 420.97,-377.3 427.79,-378.88"/>
<text xml:space="preserve" text-anchor="middle" x="461.71" y="-388.2" font-family="Times,serif" font-size="14.00"> send_request </text>
</g>
<!-- Idle&#45;&gt;Closing -->
<g id="edge5" class="edge">
<title>Idle&#45;&gt;Closing</title>
<path fill="none" stroke="red" d="M322.83,-420.81C315.29,-414.61 307.98,-408.13 301.32,-401.5 290.3,-390.52 279.77,-377.27 270.82,-364.82"/>
<polygon fill="red" stroke="red" points="273.77,-362.93 265.16,-356.74 268.03,-366.94 273.77,-362.93"/>
<text xml:space="preserve" text-anchor="middle" x="358.7" y="-388.2" font-family="Times,serif" font-size="14.00"> keep_alive_timeout </text>
</g>
<!-- ReceivingBody -->
<g id="node7" class="node">
<title>ReceivingBody</title>
<path fill="azure" stroke="none" d="M436.07,-225C436.07,-225 306.07,-225 306.07,-225 300.07,-225 294.07,-219 294.07,-213 294.07,-213 294.07,-147.5 294.07,-147.5 294.07,-141.5 300.07,-135.5 306.07,-135.5 306.07,-135.5 436.07,-135.5 436.07,-135.5 442.07,-135.5 448.07,-141.5 448.07,-147.5 448.07,-147.5 448.07,-213 448.07,-213 448.07,-219 442.07,-225 436.07,-225"/>
<text xml:space="preserve" text-anchor="start" x="327.95" y="-204.7" font-family="Times,serif" font-weight="bold" font-size="14.00">ReceivingBody</text>
<text xml:space="preserve" text-anchor="start" x="302.07" y="-179.5" font-family="Times,serif" font-size="10.00">body_chunk_received(chunk: str)</text>
<text xml:space="preserve" text-anchor="start" x="302.07" y="-168.25" font-family="Times,serif" font-size="10.00">body_complete()</text>
<text xml:space="preserve" text-anchor="start" x="302.07" y="-157" font-family="Times,serif" font-size="10.00">status()</text>
<text xml:space="preserve" text-anchor="start" x="353.07" y="-145.75" font-family="Times,serif" font-size="10.00"> &#160;&#160;&#160;&#160;&#160;&#160;&#160;&#160;&#160;&#160;&#160;&#160;&#160;&#160;&#160;</text>
<polygon fill="#00688b" stroke="#00688b" points="294.07,-194.5 294.07,-194.5 448.07,-194.5 448.07,-194.5 294.07,-194.5"/>
<path fill="none" stroke="#00688b" d="M306.07,-135.5C306.07,-135.5 436.07,-135.5 436.07,-135.5 442.07,-135.5 448.07,-141.5 448.07,-147.5 448.07,-147.5 448.07,-213 448.07,-213 448.07,-219 442.07,-225 436.07,-225 436.07,-225 306.07,-225 306.07,-225 300.07,-225 294.07,-219 294.07,-213 294.07,-213 294.07,-147.5 294.07,-147.5 294.07,-141.5 300.07,-135.5 306.07,-135.5"/>
</g>
<!-- AwaitingResponse&#45;&gt;ReceivingBody -->
<g id="edge7" class="edge">
<title>AwaitingResponse&#45;&gt;ReceivingBody</title>
<path fill="none" stroke="red" d="M402.98,-277.55C399.23,-271.67 395.73,-265.57 392.82,-259.5 389.27,-252.07 386.2,-243.95 383.58,-235.85"/>
<polygon fill="red" stroke="red" points="386.95,-234.9 380.73,-226.33 380.25,-236.91 386.95,-234.9"/>
<text xml:space="preserve" text-anchor="middle" x="435.95" y="-246.2" font-family="Times,serif" font-size="14.00"> body expected </text>
</g>
<!-- ResponseComplete -->
<g id="node8" class="node">
<title>ResponseComplete</title>
<path fill="azure" stroke="none" d="M485.2,-83C485.2,-83 382.95,-83 382.95,-83 376.95,-83 370.95,-77 370.95,-71 370.95,-71 370.95,-28 370.95,-28 370.95,-22 376.95,-16 382.95,-16 382.95,-16 485.2,-16 485.2,-16 491.2,-16 497.2,-22 497.2,-28 497.2,-28 497.2,-71 497.2,-71 497.2,-77 491.2,-83 485.2,-83"/>
<text xml:space="preserve" text-anchor="start" x="378.95" y="-62.7" font-family="Times,serif" font-weight="bold" font-size="14.00">ResponseComplete</text>
<text xml:space="preserve" text-anchor="start" x="378.95" y="-37.5" font-family="Times,serif" font-size="10.00">$&gt;()</text>
<text xml:space="preserve" text-anchor="start" x="378.95" y="-26.25" font-family="Times,serif" font-size="10.00"> &#160;&#160;&#160;&#160;&#160;&#160;&#160;&#160;&#160;&#160;&#160;&#160;&#160;&#160;&#160;</text>
<polygon fill="#00688b" stroke="#00688b" points="370.95,-52.5 370.95,-52.5 497.2,-52.5 497.2,-52.5 370.95,-52.5"/>
<path fill="none" stroke="#00688b" d="M382.95,-16C382.95,-16 485.2,-16 485.2,-16 491.2,-16 497.2,-22 497.2,-28 497.2,-28 497.2,-71 497.2,-71 497.2,-77 491.2,-83 485.2,-83 485.2,-83 382.95,-83 382.95,-83 376.95,-83 370.95,-77 370.95,-71 370.95,-71 370.95,-28 370.95,-28 370.95,-22 376.95,-16 382.95,-16"/>
</g>
<!-- AwaitingResponse&#45;&gt;ResponseComplete -->
<g id="edge6" class="edge">
<title>AwaitingResponse&#45;&gt;ResponseComplete</title>
<path fill="none" stroke="red" d="M471.19,-277.68C474.4,-271.83 477.17,-265.7 479.07,-259.5 499.8,-192.17 504.15,-166.83 479.07,-101 477.98,-98.12 476.63,-95.29 475.09,-92.55"/>
<polygon fill="red" stroke="red" points="478.07,-90.7 469.67,-84.24 472.21,-94.53 478.07,-90.7"/>
<text xml:space="preserve" text-anchor="middle" x="532.66" y="-175.2" font-family="Times,serif" font-size="14.00"> empty body </text>
</g>
<!-- ReceivingBody&#45;&gt;ResponseComplete -->
<g id="edge8" class="edge">
<title>ReceivingBody&#45;&gt;ResponseComplete</title>
<path fill="none" stroke="red" d="M376,-135.6C378.44,-123.93 382.1,-111.61 387.57,-101 389.16,-97.92 390.99,-94.89 392.98,-91.94"/>
<polygon fill="red" stroke="red" points="395.72,-94.12 398.9,-84.01 390.11,-89.93 395.72,-94.12"/>
<text xml:space="preserve" text-anchor="middle" x="433.32" y="-104.2" font-family="Times,serif" font-size="14.00"> body_complete </text>
</g>
<!-- ResponseComplete&#45;&gt;Idle -->
<g id="edge9" class="edge">
<title>ResponseComplete&#45;&gt;Idle</title>
<path fill="none" stroke="red" d="M496.98,-74.91C524.06,-88.64 553.49,-108.53 571.07,-135.5 573.91,-139.84 612.95,-329.39 591.07,-367 569.39,-404.28 529.41,-429.7 491.79,-446.42"/>
<polygon fill="red" stroke="red" points="490.48,-443.17 482.65,-450.31 493.22,-449.61 490.48,-443.17"/>
<text xml:space="preserve" text-anchor="middle" x="624.78" y="-246.2" font-family="Times,serif" font-size="14.00"> keep&#45;alive </text>
</g>
<!-- ResponseComplete&#45;&gt;Closing -->
<g id="edge10" class="edge">
<title>ResponseComplete&#45;&gt;Closing</title>
<path fill="none" stroke="red" d="M371.03,-55.8C319.02,-63.89 248.27,-84.25 213.07,-135.5 183.93,-177.93 202.36,-238.42 220.87,-278.71"/>
<polygon fill="red" stroke="red" points="217.66,-280.13 225.14,-287.64 223.98,-277.11 217.66,-280.13"/>
<text xml:space="preserve" text-anchor="middle" x="249.07" y="-175.2" font-family="Times,serif" font-size="14.00"> server close </text>
</g>
<!-- Closing&#45;&gt;Disconnected -->
<g id="edge13" class="edge">
<title>Closing&#45;&gt;Disconnected</title>
<path fill="none" stroke="red" d="M215.57,-288.76C210.74,-284.52 205.51,-280.59 200.07,-277.5 172.05,-261.58 153.24,-281.65 129.82,-259.5 121.52,-251.64 115.99,-241.02 112.31,-230.14"/>
<polygon fill="red" stroke="red" points="115.73,-229.38 109.63,-220.73 109,-231.3 115.73,-229.38"/>
<text xml:space="preserve" text-anchor="middle" x="160.95" y="-246.2" font-family="Times,serif" font-size="14.00"> tcp closed </text>
</g>
</g>
</svg>
