<?xml version="1.0" encoding="UTF-8" standalone="no"?>
<!DOCTYPE svg PUBLIC "-//W3C//DTD SVG 1.1//EN"
 "http://www.w3.org/Graphics/SVG/1.1/DTD/svg11.dtd">
<!-- Generated by graphviz version 14.1.5 (20260411.2331)
 -->
<!-- Title: HttpConnection Pages: 1 -->
<svg width="662pt" height="594pt"
 viewBox="0.00 0.00 662.00 594.00" xmlns="http://www.w3.org/2000/svg" xmlns:xlink="http://www.w3.org/1999/xlink">
<g id="graph0" class="graph" transform="scale(1 1) rotate(0) translate(4 590)">
<title>HttpConnection</title>
<polygon fill="white" stroke="none" points="-4,4 -4,-590 658.24,-590 658.24,4 -4,4"/>
<g id="clust1" class="cluster">
<title>cluster_Open</title>
<path fill="none" stroke="black" d="M293.42,-8C293.42,-8 596.42,-8 596.42,-8 602.42,-8 608.42,-14 608.42,-20 608.42,-20 608.42,-566 608.42,-566 608.42,-572 602.42,-578 596.42,-578 596.42,-578 293.42,-578 293.42,-578 287.42,-578 281.42,-572 281.42,-566 281.42,-566 281.42,-20 281.42,-20 281.42,-14 287.42,-8 293.42,-8"/>
<text xml:space="preserve" text-anchor="start" x="430.29" y="-557.25" font-family="Times,serif" font-size="14.00">Open</text>
<polygon fill="black" stroke="black" points="426.29,-550.5 426.29,-550.5 463.54,-550.5 463.54,-550.5 426.29,-550.5"/>
</g>
<!-- Entry -->
<g id="node1" class="node">
<title>Entry</title>
<ellipse fill="black" stroke="#00688b" cx="51.42" cy="-322.25" rx="7.2" ry="7.2"/>
</g>
<!-- Disconnected -->
<g id="node2" class="node">
<title>Disconnected</title>
<path fill="azure" stroke="none" d="M156.42,-219.38C156.42,-219.38 56.42,-219.38 56.42,-219.38 50.42,-219.38 44.42,-213.38 44.42,-207.38 44.42,-207.38 44.42,-153.12 44.42,-153.12 44.42,-147.12 50.42,-141.12 56.42,-141.12 56.42,-141.12 156.42,-141.12 156.42,-141.12 162.42,-141.12 168.42,-147.12 168.42,-153.12 168.42,-153.12 168.42,-207.38 168.42,-207.38 168.42,-213.38 162.42,-219.38 156.42,-219.38"/>
<text xml:space="preserve" text-anchor="start" x="68.17" y="-199.07" font-family="Times,serif" font-weight="bold" font-size="14.00">Disconnected</text>
<text xml:space="preserve" text-anchor="start" x="52.42" y="-173.88" font-family="Times,serif" font-size="10.00">connect(host: str, port: int)</text>
<text xml:space="preserve" text-anchor="start" x="52.42" y="-162.62" font-family="Times,serif" font-size="10.00">status()</text>
<text xml:space="preserve" text-anchor="start" x="92.92" y="-151.38" font-family="Times,serif" font-size="10.00"> &#160;&#160;&#160;&#160;&#160;&#160;&#160;&#160;&#160;&#160;&#160;</text>
<polygon fill="#00688b" stroke="#00688b" points="44.42,-188.88 44.42,-188.88 168.42,-188.88 168.42,-188.88 44.42,-188.88"/>
<path fill="none" stroke="#00688b" d="M56.42,-141.12C56.42,-141.12 156.42,-141.12 156.42,-141.12 162.42,-141.12 168.42,-147.12 168.42,-153.12 168.42,-153.12 168.42,-207.38 168.42,-207.38 168.42,-213.38 162.42,-219.38 156.42,-219.38 156.42,-219.38 56.42,-219.38 56.42,-219.38 50.42,-219.38 44.42,-213.38 44.42,-207.38 44.42,-207.38 44.42,-153.12 44.42,-153.12 44.42,-147.12 50.42,-141.12 56.42,-141.12"/>
</g>
<!-- Entry&#45;&gt;Disconnected -->
<g id="edge1" class="edge">
<title>Entry&#45;&gt;Disconnected</title>
<path fill="none" stroke="red" d="M53.58,-315.13C58.29,-301.9 69.87,-269.67 80.42,-243 82.13,-238.68 83.94,-234.21 85.77,-229.73"/>
<polygon fill="red" stroke="red" points="88.9,-231.33 89.49,-220.75 82.43,-228.65 88.9,-231.33"/>
</g>
<!-- Connecting -->
<g id="node3" class="node">
<title>Connecting</title>
<path fill="azure" stroke="none" d="M90.42,-83C90.42,-83 32.42,-83 32.42,-83 26.42,-83 20.42,-77 20.42,-71 20.42,-71 20.42,-28 20.42,-28 20.42,-22 26.42,-16 32.42,-16 32.42,-16 90.42,-16 90.42,-16 96.42,-16 102.42,-22 102.42,-28 102.42,-28 102.42,-71 102.42,-71 102.42,-77 96.42,-83 90.42,-83"/>
<text xml:space="preserve" text-anchor="start" x="28.42" y="-62.7" font-family="Times,serif" font-weight="bold" font-size="14.00">Connecting</text>
<text xml:space="preserve" text-anchor="start" x="28.42" y="-37.5" font-family="Times,serif" font-size="10.00">$&gt;()</text>
<text xml:space="preserve" text-anchor="start" x="28.42" y="-26.25" font-family="Times,serif" font-size="10.00"> &#160;&#160;&#160;&#160;&#160;&#160;&#160;&#160;&#160;&#160;&#160;</text>
<polygon fill="#00688b" stroke="#00688b" points="20.42,-52.5 20.42,-52.5 102.42,-52.5 102.42,-52.5 20.42,-52.5"/>
<path fill="none" stroke="#00688b" d="M32.42,-16C32.42,-16 90.42,-16 90.42,-16 96.42,-16 102.42,-22 102.42,-28 102.42,-28 102.42,-71 102.42,-71 102.42,-77 96.42,-83 90.42,-83 90.42,-83 32.42,-83 32.42,-83 26.42,-83 20.42,-77 20.42,-71 20.42,-71 20.42,-28 20.42,-28 20.42,-22 26.42,-16 32.42,-16"/>
</g>
<!-- Disconnected&#45;&gt;Connecting -->
<g id="edge2" class="edge">
<title>Disconnected&#45;&gt;Connecting</title>
<path fill="none" stroke="red" d="M93.16,-141.32C87.94,-126.4 81.93,-109.18 76.54,-93.77"/>
<polygon fill="red" stroke="red" points="79.86,-92.65 73.26,-84.37 73.25,-94.96 79.86,-92.65"/>
<text xml:space="preserve" text-anchor="middle" x="108.67" y="-104.2" font-family="Times,serif" font-size="14.00"> connect </text>
</g>
<!-- Idle -->
<g id="node5" class="node">
<title>Idle</title>
<path fill="azure" stroke="none" d="M466.67,-531.5C466.67,-531.5 332.17,-531.5 332.17,-531.5 326.17,-531.5 320.17,-525.5 320.17,-519.5 320.17,-519.5 320.17,-431.5 320.17,-431.5 320.17,-425.5 326.17,-419.5 332.17,-419.5 332.17,-419.5 466.67,-419.5 466.67,-419.5 472.67,-419.5 478.67,-425.5 478.67,-431.5 478.67,-431.5 478.67,-519.5 478.67,-519.5 478.67,-525.5 472.67,-531.5 466.67,-531.5"/>
<text xml:space="preserve" text-anchor="start" x="388.17" y="-511.2" font-family="Times,serif" font-weight="bold" font-size="14.00">Idle</text>
<text xml:space="preserve" text-anchor="start" x="328.17" y="-486" font-family="Times,serif" font-size="10.00">$&gt;()</text>
<text xml:space="preserve" text-anchor="start" x="328.17" y="-474.75" font-family="Times,serif" font-size="10.00">&lt;$()</text>
<text xml:space="preserve" text-anchor="start" x="328.17" y="-463.5" font-family="Times,serif" font-size="10.00">send_request(method: str, path: str)</text>
<text xml:space="preserve" text-anchor="start" x="328.17" y="-452.25" font-family="Times,serif" font-size="10.00">keep_alive_timeout()</text>
<text xml:space="preserve" text-anchor="start" x="328.17" y="-441" font-family="Times,serif" font-size="10.00">status()</text>
<text xml:space="preserve" text-anchor="start" x="381.42" y="-429.75" font-family="Times,serif" font-size="10.00"> &#160;&#160;&#160;&#160;&#160;&#160;&#160;&#160;&#160;&#160;&#160;&#160;&#160;&#160;&#160;</text>
<polygon fill="#00688b" stroke="#00688b" points="320.17,-501 320.17,-501 478.67,-501 478.67,-501 320.17,-501"/>
<path fill="none" stroke="#00688b" d="M332.17,-419.5C332.17,-419.5 466.67,-419.5 466.67,-419.5 472.67,-419.5 478.67,-425.5 478.67,-431.5 478.67,-431.5 478.67,-519.5 478.67,-519.5 478.67,-525.5 472.67,-531.5 466.67,-531.5 466.67,-531.5 332.17,-531.5 332.17,-531.5 326.17,-531.5 320.17,-525.5 320.17,-519.5 320.17,-519.5 320.17,-431.5 320.17,-431.5 320.17,-425.5 326.17,-419.5 332.17,-419.5"/>
</g>
<!-- Connecting&#45;&gt;Idle -->
<g id="edge3" class="edge">
<title>Connecting&#45;&gt;Idle</title>
<path fill="none" stroke="red" d="M45.24,-83C16.36,-146.14 -34.75,-286.27 35.42,-367 54.26,-388.68 135.24,-379.44 163.42,-385 224.17,-397 240.78,-396.85 298.42,-419.5 302.27,-421.01 306.16,-422.64 310.05,-424.36"/>
<polygon fill="red" stroke="red" points="308.43,-427.46 318.98,-428.45 311.35,-421.1 308.43,-427.46"/>
<text xml:space="preserve" text-anchor="middle" x="11.73" y="-246.2" font-family="Times,serif" font-size="14.00"> $&gt; </text>
</g>
<!-- Open -->
<g id="node4" class="node">
<title>Open</title>
<ellipse fill="azure" stroke="#00688b" cx="289.42" cy="-475.5" rx="0.36" ry="0.36"/>
</g>
<!-- Open&#45;&gt;Disconnected -->
<g id="edge11" class="edge">
<title>Open&#45;&gt;Disconnected</title>
<path fill="none" stroke="red" d="M281.42,-472.83C251.31,-466.08 144.42,-437.66 103.67,-367 79.84,-325.68 84.46,-270.1 92.61,-230.54"/>
<polygon fill="red" stroke="red" points="96.03,-231.31 94.78,-220.79 89.19,-229.8 96.03,-231.31"/>
<text xml:space="preserve" text-anchor="middle" x="153.54" y="-317.2" font-family="Times,serif" font-size="14.00"> connection_error </text>
</g>
<!-- Closing -->
<g id="node9" class="node">
<title>Closing</title>
<path fill="azure" stroke="none" d="M260.17,-355.75C260.17,-355.75 224.67,-355.75 224.67,-355.75 218.67,-355.75 212.67,-349.75 212.67,-343.75 212.67,-343.75 212.67,-300.75 212.67,-300.75 212.67,-294.75 218.67,-288.75 224.67,-288.75 224.67,-288.75 260.17,-288.75 260.17,-288.75 266.17,-288.75 272.17,-294.75 272.17,-300.75 272.17,-300.75 272.17,-343.75 272.17,-343.75 272.17,-349.75 266.17,-355.75 260.17,-355.75"/>
<text xml:space="preserve" text-anchor="start" x="220.67" y="-335.45" font-family="Times,serif" font-weight="bold" font-size="14.00">Closing</text>
<text xml:space="preserve" text-anchor="start" x="220.67" y="-310.25" font-family="Times,serif" font-size="10.00">$&gt;()</text>
<text xml:space="preserve" text-anchor="start" x="220.67" y="-299" font-family="Times,serif" font-size="10.00"> &#160;&#160;&#160;&#160;&#160;&#160;&#160;&#160;&#160;&#160;&#160;</text>
<polygon fill="#00688b" stroke="#00688b" points="212.67,-325.25 212.67,-325.25 272.17,-325.25 272.17,-325.25 212.67,-325.25"/>
<path fill="none" stroke="#00688b" d="M224.67,-288.75C224.67,-288.75 260.17,-288.75 260.17,-288.75 266.17,-288.75 272.17,-294.75 272.17,-300.75 272.17,-300.75 272.17,-343.75 272.17,-343.75 272.17,-349.75 266.17,-355.75 260.17,-355.75 260.17,-355.75 224.67,-355.75 224.67,-355.75 218.67,-355.75 212.67,-349.75 212.67,-343.75 212.67,-343.75 212.67,-300.75 212.67,-300.75 212.67,-294.75 218.67,-288.75 224.67,-288.75"/>
</g>
<!-- Open&#45;&gt;Closing -->
<g id="edge12" class="edge">
<title>Open&#45;&gt;Closing</title>
<path fill="none" stroke="red" d="M281.42,-470.9C263.07,-462.14 218.22,-437.74 201.17,-401.5 194.97,-388.32 199.02,-374.17 206.58,-361.58"/>
<polygon fill="red" stroke="red" points="209.32,-363.77 212.08,-353.54 203.55,-359.81 209.32,-363.77"/>
<text xml:space="preserve" text-anchor="middle" x="218.79" y="-388.2" font-family="Times,serif" font-size="14.00"> close </text>
</g>
<!-- AwaitingResponse -->
<g id="node6" class="node">
<title>AwaitingResponse</title>
<path fill="azure" stroke="none" d="M566.92,-367C566.92,-367 301.92,-367 301.92,-367 295.92,-367 289.92,-361 289.92,-355 289.92,-355 289.92,-289.5 289.92,-289.5 289.92,-283.5 295.92,-277.5 301.92,-277.5 301.92,-277.5 566.92,-277.5 566.92,-277.5 572.92,-277.5 578.92,-283.5 578.92,-289.5 578.92,-289.5 578.92,-355 578.92,-355 578.92,-361 572.92,-367 566.92,-367"/>
<text xml:space="preserve" text-anchor="start" x="381.17" y="-346.7" font-family="Times,serif" font-weight="bold" font-size="14.00">AwaitingResponse</text>
<text xml:space="preserve" text-anchor="start" x="297.92" y="-321.5" font-family="Times,serif" font-size="10.00">$&gt;()</text>
<text xml:space="preserve" text-anchor="start" x="297.92" y="-310.25" font-family="Times,serif" font-size="10.00">headers_received(status: int, keep_alive: bool, content_length: int)</text>
<text xml:space="preserve" text-anchor="start" x="297.92" y="-299" font-family="Times,serif" font-size="10.00">status()</text>
<text xml:space="preserve" text-anchor="start" x="416.42" y="-287.75" font-family="Times,serif" font-size="10.00"> &#160;&#160;&#160;&#160;&#160;&#160;&#160;&#160;&#160;&#160;&#160;&#160;&#160;&#160;&#160;</text>
<polygon fill="#00688b" stroke="#00688b" points="289.92,-336.5 289.92,-336.5 578.92,-336.5 578.92,-336.5 289.92,-336.5"/>
<path fill="none" stroke="#00688b" d="M301.92,-277.5C301.92,-277.5 566.92,-277.5 566.92,-277.5 572.92,-277.5 578.92,-283.5 578.92,-289.5 578.92,-289.5 578.92,-355 578.92,-355 578.92,-361 572.92,-367 566.92,-367 566.92,-367 301.92,-367 301.92,-367 295.92,-367 289.92,-361 289.92,-355 289.92,-355 289.92,-289.5 289.92,-289.5 289.92,-283.5 295.92,-277.5 301.92,-277.5"/>
</g>
<!-- Idle&#45;&gt;AwaitingResponse -->
<g id="edge4" class="edge">
<title>Idle&#45;&gt;AwaitingResponse</title>
<path fill="none" stroke="red" d="M412.05,-419.9C415.21,-406.28 418.59,-391.67 421.74,-378.04"/>
<polygon fill="red" stroke="red" points="425.14,-378.88 423.98,-368.35 418.32,-377.3 425.14,-378.88"/>
<text xml:space="preserve" text-anchor="middle" x="459.05" y="-388.2" font-family="Times,serif" font-size="14.00"> send_request </text>
</g>
<!-- Idle&#45;&gt;Closing -->
<g id="edge5" class="edge">
<title>Idle&#45;&gt;Closing</title>
<path fill="none" stroke="red" d="M320.37,-421.08C312.75,-414.81 305.38,-408.23 298.67,-401.5 287.75,-390.54 277.39,-377.3 268.6,-364.84"/>
<polygon fill="red" stroke="red" points="271.6,-363.04 263.05,-356.77 265.83,-367 271.6,-363.04"/>
<text xml:space="preserve" text-anchor="middle" x="356.04" y="-388.2" font-family="Times,serif" font-size="14.00"> keep_alive_timeout </text>
</g>
<!-- ReceivingBody -->
<g id="node7" class="node">
<title>ReceivingBody</title>
<path fill="azure" stroke="none" d="M431.42,-225C431.42,-225 301.42,-225 301.42,-225 295.42,-225 289.42,-219 289.42,-213 289.42,-213 289.42,-147.5 289.42,-147.5 289.42,-141.5 295.42,-135.5 301.42,-135.5 301.42,-135.5 431.42,-135.5 431.42,-135.5 437.42,-135.5 443.42,-141.5 443.42,-147.5 443.42,-147.5 443.42,-213 443.42,-213 443.42,-219 437.42,-225 431.42,-225"/>
<text xml:space="preserve" text-anchor="start" x="323.29" y="-204.7" font-family="Times,serif" font-weight="bold" font-size="14.00">ReceivingBody</text>
<text xml:space="preserve" text-anchor="start" x="297.42" y="-179.5" font-family="Times,serif" font-size="10.00">body_chunk_received(chunk: str)</text>
<text xml:space="preserve" text-anchor="start" x="297.42" y="-168.25" font-family="Times,serif" font-size="10.00">body_complete()</text>
<text xml:space="preserve" text-anchor="start" x="297.42" y="-157" font-family="Times,serif" font-size="10.00">status()</text>
<text xml:space="preserve" text-anchor="start" x="348.42" y="-145.75" font-family="Times,serif" font-size="10.00"> &#160;&#160;&#160;&#160;&#160;&#160;&#160;&#160;&#160;&#160;&#160;&#160;&#160;&#160;&#160;</text>
<polygon fill="#00688b" stroke="#00688b" points="289.42,-194.5 289.42,-194.5 443.42,-194.5 443.42,-194.5 289.42,-194.5"/>
<path fill="none" stroke="#00688b" d="M301.42,-135.5C301.42,-135.5 431.42,-135.5 431.42,-135.5 437.42,-135.5 443.42,-141.5 443.42,-147.5 443.42,-147.5 443.42,-213 443.42,-213 443.42,-219 437.42,-225 431.42,-225 431.42,-225 301.42,-225 301.42,-225 295.42,-225 289.42,-219 289.42,-213 289.42,-213 289.42,-147.5 289.42,-147.5 289.42,-141.5 295.42,-135.5 301.42,-135.5"/>
</g>
<!-- AwaitingResponse&#45;&gt;ReceivingBody -->
<g id="edge7" class="edge">
<title>AwaitingResponse&#45;&gt;ReceivingBody</title>
<path fill="none" stroke="red" d="M384.57,-277.86C380.1,-272.1 376.15,-265.94 373.17,-259.5 369.82,-252.27 367.65,-244.26 366.29,-236.2"/>
<polygon fill="red" stroke="red" points="369.77,-235.86 365.06,-226.37 362.83,-236.72 369.77,-235.86"/>
<text xml:space="preserve" text-anchor="middle" x="423.79" y="-246.2" font-family="Times,serif" font-size="14.00"> headers_received </text>
</g>
<!-- ResponseComplete -->
<g id="node8" class="node">
<title>ResponseComplete</title>
<path fill="azure" stroke="none" d="M480.54,-83C480.54,-83 378.29,-83 378.29,-83 372.29,-83 366.29,-77 366.29,-71 366.29,-71 366.29,-28 366.29,-28 366.29,-22 372.29,-16 378.29,-16 378.29,-16 480.54,-16 480.54,-16 486.54,-16 492.54,-22 492.54,-28 492.54,-28 492.54,-71 492.54,-71 492.54,-77 486.54,-83 480.54,-83"/>
<text xml:space="preserve" text-anchor="start" x="374.29" y="-62.7" font-family="Times,serif" font-weight="bold" font-size="14.00">ResponseComplete</text>
<text xml:space="preserve" text-anchor="start" x="374.29" y="-37.5" font-family="Times,serif" font-size="10.00">$&gt;()</text>
<text xml:space="preserve" text-anchor="start" x="374.29" y="-26.25" font-family="Times,serif" font-size="10.00"> &#160;&#160;&#160;&#160;&#160;&#160;&#160;&#160;&#160;&#160;&#160;&#160;&#160;&#160;&#160;</text>
<polygon fill="#00688b" stroke="#00688b" points="366.29,-52.5 366.29,-52.5 492.54,-52.5 492.54,-52.5 366.29,-52.5"/>
<path fill="none" stroke="#00688b" d="M378.29,-16C378.29,-16 480.54,-16 480.54,-16 486.54,-16 492.54,-22 492.54,-28 492.54,-28 492.54,-71 492.54,-71 492.54,-77 486.54,-83 480.54,-83 480.54,-83 378.29,-83 378.29,-83 372.29,-83 366.29,-77 366.29,-71 366.29,-71 366.29,-28 366.29,-28 366.29,-22 372.29,-16 378.29,-16"/>
</g>
<!-- AwaitingResponse&#45;&gt;ResponseComplete -->
<g id="edge6" class="edge">
<title>AwaitingResponse&#45;&gt;ResponseComplete</title>
<path fill="none" stroke="red" d="M466.92,-277.54C469.98,-271.71 472.61,-265.62 474.42,-259.5 494.39,-191.94 499.49,-166.83 474.42,-101 473.32,-98.12 471.97,-95.29 470.44,-92.55"/>
<polygon fill="red" stroke="red" points="473.41,-90.7 465.01,-84.24 467.55,-94.53 473.41,-90.7"/>
<text xml:space="preserve" text-anchor="middle" x="541.99" y="-175.2" font-family="Times,serif" font-size="14.00"> headers_received </text>
</g>
<!-- ReceivingBody&#45;&gt;ResponseComplete -->
<g id="edge8" class="edge">
<title>ReceivingBody&#45;&gt;ResponseComplete</title>
<path fill="none" stroke="red" d="M371.35,-135.6C373.79,-123.93 377.45,-111.61 382.92,-101 384.51,-97.92 386.33,-94.89 388.32,-91.94"/>
<polygon fill="red" stroke="red" points="391.06,-94.12 394.24,-84.01 385.45,-89.93 391.06,-94.12"/>
<text xml:space="preserve" text-anchor="middle" x="428.67" y="-104.2" font-family="Times,serif" font-size="14.00"> body_complete </text>
</g>
<!-- ResponseComplete&#45;&gt;Idle -->
<g id="edge9" class="edge">
<title>ResponseComplete&#45;&gt;Idle</title>
<path fill="none" stroke="red" d="M492.47,-65.45C529.1,-77.72 572.27,-99.18 594.42,-135.5 648,-223.38 642.03,-279.14 588.42,-367 566.04,-403.67 526.21,-428.98 488.86,-445.78"/>
<polygon fill="red" stroke="red" points="487.59,-442.52 479.8,-449.7 490.37,-448.95 487.59,-442.52"/>
<text xml:space="preserve" text-anchor="middle" x="642.99" y="-246.2" font-family="Times,serif" font-size="14.00"> $&gt; </text>
</g>
<!-- ResponseComplete&#45;&gt;Closing -->
<g id="edge10" class="edge">
<title>ResponseComplete&#45;&gt;Closing</title>
<path fill="none" stroke="red" d="M366.32,-65.06C328.42,-77.27 282.86,-98.81 257.92,-135.5 229.52,-177.28 229.99,-237.16 234.68,-277.55"/>
<polygon fill="red" stroke="red" points="231.21,-277.94 235.98,-287.4 238.15,-277.03 231.21,-277.94"/>
<text xml:space="preserve" text-anchor="middle" x="269.17" y="-175.2" font-family="Times,serif" font-size="14.00"> $&gt; </text>
</g>
<!-- Closing&#45;&gt;Disconnected -->
<g id="edge13" class="edge">
<title>Closing&#45;&gt;Disconnected</title>
<path fill="none" stroke="red" d="M212.91,-290.87C194.91,-272.34 171.54,-248.29 151.29,-227.44"/>
<polygon fill="red" stroke="red" points="153.94,-225.14 144.46,-220.41 148.91,-230.02 153.94,-225.14"/>
<text xml:space="preserve" text-anchor="middle" x="189.75" y="-246.2" font-family="Times,serif" font-size="14.00"> $&gt; </text>
</g>
</g>
</svg>
