<?xml version="1.0" encoding="UTF-8" standalone="no"?>
<!DOCTYPE svg PUBLIC "-//W3C//DTD SVG 1.1//EN"
 "http://www.w3.org/Graphics/SVG/1.1/DTD/svg11.dtd">
<!-- Generated by graphviz version 14.1.5 (20260411.2331)
 -->
<!-- Title: SmtpClient Pages: 1 -->
<svg width="994pt" height="1106pt"
 viewBox="0.00 0.00 994.00 1106.00" xmlns="http://www.w3.org/2000/svg" xmlns:xlink="http://www.w3.org/1999/xlink">
<g id="graph0" class="graph" transform="scale(1 1) rotate(0) translate(4 1101.75)">
<title>SmtpClient</title>
<polygon fill="white" stroke="none" points="-4,4 -4,-1101.75 990.33,-1101.75 990.33,4 -4,4"/>
<g id="clust1" class="cluster">
<title>cluster_Connected</title>
<path fill="none" stroke="black" d="M100.06,-8C100.06,-8 710.06,-8 710.06,-8 716.06,-8 722.06,-14 722.06,-20 722.06,-20 722.06,-1077.75 722.06,-1077.75 722.06,-1083.75 716.06,-1089.75 710.06,-1089.75 710.06,-1089.75 100.06,-1089.75 100.06,-1089.75 94.06,-1089.75 88.06,-1083.75 88.06,-1077.75 88.06,-1077.75 88.06,-20 88.06,-20 88.06,-14 94.06,-8 100.06,-8"/>
<text xml:space="preserve" text-anchor="start" x="376.18" y="-1069" font-family="Times,serif" font-size="14.00">Connected</text>
<polygon fill="black" stroke="black" points="372.18,-1062.25 372.18,-1062.25 437.93,-1062.25 437.93,-1062.25 372.18,-1062.25"/>
</g>
<!-- Entry -->
<g id="node1" class="node">
<title>Entry</title>
<ellipse fill="black" stroke="#00688b" cx="737.06" cy="-873.38" rx="7.2" ry="7.2"/>
</g>
<!-- Disconnected -->
<g id="node2" class="node">
<title>Disconnected</title>
<path fill="azure" stroke="none" d="M810.31,-770.5C810.31,-770.5 741.81,-770.5 741.81,-770.5 735.81,-770.5 729.81,-764.5 729.81,-758.5 729.81,-758.5 729.81,-704.25 729.81,-704.25 729.81,-698.25 735.81,-692.25 741.81,-692.25 741.81,-692.25 810.31,-692.25 810.31,-692.25 816.31,-692.25 822.31,-698.25 822.31,-704.25 822.31,-704.25 822.31,-758.5 822.31,-758.5 822.31,-764.5 816.31,-770.5 810.31,-770.5"/>
<text xml:space="preserve" text-anchor="start" x="737.81" y="-750.2" font-family="Times,serif" font-weight="bold" font-size="14.00">Disconnected</text>
<text xml:space="preserve" text-anchor="start" x="737.81" y="-725" font-family="Times,serif" font-size="10.00">tcp_connected()</text>
<text xml:space="preserve" text-anchor="start" x="737.81" y="-713.75" font-family="Times,serif" font-size="10.00">status()</text>
<text xml:space="preserve" text-anchor="start" x="757.31" y="-702.5" font-family="Times,serif" font-size="10.00"> &#160;&#160;&#160;&#160;&#160;&#160;&#160;&#160;&#160;&#160;&#160;</text>
<polygon fill="#00688b" stroke="#00688b" points="729.81,-740 729.81,-740 822.31,-740 822.31,-740 729.81,-740"/>
<path fill="none" stroke="#00688b" d="M741.81,-692.25C741.81,-692.25 810.31,-692.25 810.31,-692.25 816.31,-692.25 822.31,-698.25 822.31,-704.25 822.31,-704.25 822.31,-758.5 822.31,-758.5 822.31,-764.5 816.31,-770.5 810.31,-770.5 810.31,-770.5 741.81,-770.5 741.81,-770.5 735.81,-770.5 729.81,-764.5 729.81,-758.5 729.81,-758.5 729.81,-704.25 729.81,-704.25 729.81,-698.25 735.81,-692.25 741.81,-692.25"/>
</g>
<!-- Entry&#45;&gt;Disconnected -->
<g id="edge1" class="edge">
<title>Entry&#45;&gt;Disconnected</title>
<path fill="none" stroke="red" d="M738.83,-866C742.98,-851.11 753.61,-812.95 762.45,-781.21"/>
<polygon fill="red" stroke="red" points="765.77,-782.32 765.09,-771.75 759.03,-780.45 765.77,-782.32"/>
</g>
<!-- AwaitGreeting -->
<g id="node4" class="node">
<title>AwaitGreeting</title>
<path fill="azure" stroke="none" d="M701.81,-1043.25C701.81,-1043.25 594.31,-1043.25 594.31,-1043.25 588.31,-1043.25 582.31,-1037.25 582.31,-1031.25 582.31,-1031.25 582.31,-977 582.31,-977 582.31,-971 588.31,-965 594.31,-965 594.31,-965 701.81,-965 701.81,-965 707.81,-965 713.81,-971 713.81,-977 713.81,-977 713.81,-1031.25 713.81,-1031.25 713.81,-1037.25 707.81,-1043.25 701.81,-1043.25"/>
<text xml:space="preserve" text-anchor="start" x="604.93" y="-1022.95" font-family="Times,serif" font-weight="bold" font-size="14.00">AwaitGreeting</text>
<text xml:space="preserve" text-anchor="start" x="590.31" y="-997.75" font-family="Times,serif" font-size="10.00">greeting_received(code: int)</text>
<text xml:space="preserve" text-anchor="start" x="590.31" y="-986.5" font-family="Times,serif" font-size="10.00">status()</text>
<text xml:space="preserve" text-anchor="start" x="630.06" y="-975.25" font-family="Times,serif" font-size="10.00"> &#160;&#160;&#160;&#160;&#160;&#160;&#160;&#160;&#160;&#160;&#160;&#160;&#160;&#160;&#160;</text>
<polygon fill="#00688b" stroke="#00688b" points="582.31,-1012.75 582.31,-1012.75 713.81,-1012.75 713.81,-1012.75 582.31,-1012.75"/>
<path fill="none" stroke="#00688b" d="M594.31,-965C594.31,-965 701.81,-965 701.81,-965 707.81,-965 713.81,-971 713.81,-977 713.81,-977 713.81,-1031.25 713.81,-1031.25 713.81,-1037.25 707.81,-1043.25 701.81,-1043.25 701.81,-1043.25 594.31,-1043.25 594.31,-1043.25 588.31,-1043.25 582.31,-1037.25 582.31,-1031.25 582.31,-1031.25 582.31,-977 582.31,-977 582.31,-971 588.31,-965 594.31,-965"/>
</g>
<!-- Disconnected&#45;&gt;AwaitGreeting -->
<g id="edge2" class="edge">
<title>Disconnected&#45;&gt;AwaitGreeting</title>
<path fill="none" stroke="red" d="M822.14,-760.44C846.67,-778.21 874.5,-803.6 888.06,-834.25 902.12,-866.06 907.83,-883.89 888.06,-912.5 851.62,-965.2 780.36,-987.29 724.91,-996.53"/>
<polygon fill="red" stroke="red" points="724.54,-993.04 715.19,-998.03 725.61,-999.96 724.54,-993.04"/>
<text xml:space="preserve" text-anchor="middle" x="943.58" y="-868.33" font-family="Times,serif" font-size="14.00"> tcp_connected </text>
</g>
<!-- Connected -->
<g id="node3" class="node">
<title>Connected</title>
<ellipse fill="azure" stroke="#00688b" cx="330.06" cy="-1004.12" rx="0.36" ry="0.36"/>
</g>
<!-- AwaitGreeting&#45;&gt;Disconnected -->
<g id="edge4" class="edge">
<title>AwaitGreeting&#45;&gt;Disconnected</title>
<path fill="none" stroke="red" d="M711.68,-965.07C728.86,-951.04 744.94,-933.37 753.06,-912.5 769.53,-870.16 774.74,-818.42 776.15,-781.27"/>
<polygon fill="red" stroke="red" points="779.64,-781.85 776.43,-771.75 772.64,-781.64 779.64,-781.85"/>
<text xml:space="preserve" text-anchor="middle" x="823.8" y="-868.33" font-family="Times,serif" font-size="14.00"> greeting_received </text>
</g>
<!-- AwaitEhlo -->
<g id="node5" class="node">
<title>AwaitEhlo</title>
<path fill="azure" stroke="none" d="M680.93,-912.5C680.93,-912.5 493.18,-912.5 493.18,-912.5 487.18,-912.5 481.18,-906.5 481.18,-900.5 481.18,-900.5 481.18,-846.25 481.18,-846.25 481.18,-840.25 487.18,-834.25 493.18,-834.25 493.18,-834.25 680.93,-834.25 680.93,-834.25 686.93,-834.25 692.93,-840.25 692.93,-846.25 692.93,-846.25 692.93,-900.5 692.93,-900.5 692.93,-906.5 686.93,-912.5 680.93,-912.5"/>
<text xml:space="preserve" text-anchor="start" x="556.31" y="-892.2" font-family="Times,serif" font-weight="bold" font-size="14.00">AwaitEhlo</text>
<text xml:space="preserve" text-anchor="start" x="489.18" y="-867" font-family="Times,serif" font-size="10.00">ehlo_response(code: int, supports_starttls: bool)</text>
<text xml:space="preserve" text-anchor="start" x="489.18" y="-855.75" font-family="Times,serif" font-size="10.00">status()</text>
<text xml:space="preserve" text-anchor="start" x="569.06" y="-844.5" font-family="Times,serif" font-size="10.00"> &#160;&#160;&#160;&#160;&#160;&#160;&#160;&#160;&#160;&#160;&#160;&#160;&#160;&#160;&#160;</text>
<polygon fill="#00688b" stroke="#00688b" points="481.18,-882 481.18,-882 692.93,-882 692.93,-882 481.18,-882"/>
<path fill="none" stroke="#00688b" d="M493.18,-834.25C493.18,-834.25 680.93,-834.25 680.93,-834.25 686.93,-834.25 692.93,-840.25 692.93,-846.25 692.93,-846.25 692.93,-900.5 692.93,-900.5 692.93,-906.5 686.93,-912.5 680.93,-912.5 680.93,-912.5 493.18,-912.5 493.18,-912.5 487.18,-912.5 481.18,-906.5 481.18,-900.5 481.18,-900.5 481.18,-846.25 481.18,-846.25 481.18,-840.25 487.18,-834.25 493.18,-834.25"/>
</g>
<!-- AwaitGreeting&#45;&gt;AwaitEhlo -->
<g id="edge3" class="edge">
<title>AwaitGreeting&#45;&gt;AwaitEhlo</title>
<path fill="none" stroke="red" d="M630.08,-965.19C623.75,-951.82 616.54,-936.61 609.86,-922.51"/>
<polygon fill="red" stroke="red" points="613.2,-921.39 605.76,-913.85 606.88,-924.39 613.2,-921.39"/>
<text xml:space="preserve" text-anchor="middle" x="673.33" y="-933.7" font-family="Times,serif" font-size="14.00"> greeting_received </text>
</g>
<!-- AwaitEhlo&#45;&gt;Disconnected -->
<g id="edge6" class="edge">
<title>AwaitEhlo&#45;&gt;Disconnected</title>
<path fill="none" stroke="red" d="M620.35,-834.51C633.04,-821.96 648.32,-808.88 664.31,-799.75 689.13,-785.57 701.41,-796.24 726.06,-781.75 728.45,-780.34 730.81,-778.8 733.13,-777.15"/>
<polygon fill="red" stroke="red" points="734.91,-780.19 740.63,-771.27 730.6,-774.68 734.91,-780.19"/>
<text xml:space="preserve" text-anchor="middle" x="706.68" y="-802.95" font-family="Times,serif" font-size="14.00"> ehlo_response </text>
</g>
<!-- Ready -->
<g id="node6" class="node">
<title>Ready</title>
<path fill="azure" stroke="none" d="M366.68,-781.75C366.68,-781.75 285.43,-781.75 285.43,-781.75 279.43,-781.75 273.43,-775.75 273.43,-769.75 273.43,-769.75 273.43,-693 273.43,-693 273.43,-687 279.43,-681 285.43,-681 285.43,-681 366.68,-681 366.68,-681 372.68,-681 378.68,-687 378.68,-693 378.68,-693 378.68,-769.75 378.68,-769.75 378.68,-775.75 372.68,-781.75 366.68,-781.75"/>
<text xml:space="preserve" text-anchor="start" x="307.68" y="-761.45" font-family="Times,serif" font-weight="bold" font-size="14.00">Ready</text>
<text xml:space="preserve" text-anchor="start" x="281.43" y="-736.25" font-family="Times,serif" font-size="10.00">starttls()</text>
<text xml:space="preserve" text-anchor="start" x="281.43" y="-725" font-family="Times,serif" font-size="10.00">mail_from(sender: str)</text>
<text xml:space="preserve" text-anchor="start" x="281.43" y="-713.75" font-family="Times,serif" font-size="10.00">quit()</text>
<text xml:space="preserve" text-anchor="start" x="281.43" y="-702.5" font-family="Times,serif" font-size="10.00">status()</text>
<text xml:space="preserve" text-anchor="start" x="308.06" y="-691.25" font-family="Times,serif" font-size="10.00"> &#160;&#160;&#160;&#160;&#160;&#160;&#160;&#160;&#160;&#160;&#160;&#160;&#160;&#160;&#160;</text>
<polygon fill="#00688b" stroke="#00688b" points="273.43,-751.25 273.43,-751.25 378.68,-751.25 378.68,-751.25 273.43,-751.25"/>
<path fill="none" stroke="#00688b" d="M285.43,-681C285.43,-681 366.68,-681 366.68,-681 372.68,-681 378.68,-687 378.68,-693 378.68,-693 378.68,-769.75 378.68,-769.75 378.68,-775.75 372.68,-781.75 366.68,-781.75 366.68,-781.75 285.43,-781.75 285.43,-781.75 279.43,-781.75 273.43,-775.75 273.43,-769.75 273.43,-769.75 273.43,-693 273.43,-693 273.43,-687 279.43,-681 285.43,-681"/>
</g>
<!-- AwaitEhlo&#45;&gt;Ready -->
<g id="edge5" class="edge">
<title>AwaitEhlo&#45;&gt;Ready</title>
<path fill="none" stroke="red" d="M516.08,-834.3C476.17,-812.9 426.81,-786.42 388.4,-765.82"/>
<polygon fill="red" stroke="red" points="390.18,-762.8 379.72,-761.16 386.87,-768.97 390.18,-762.8"/>
<text xml:space="preserve" text-anchor="middle" x="522.31" y="-802.95" font-family="Times,serif" font-size="14.00"> ehlo_response </text>
</g>
<!-- AwaitStartTlsResponse -->
<g id="node7" class="node">
<title>AwaitStartTlsResponse</title>
<path fill="azure" stroke="none" d="M460.93,-628.5C460.93,-628.5 333.18,-628.5 333.18,-628.5 327.18,-628.5 321.18,-622.5 321.18,-616.5 321.18,-616.5 321.18,-562.25 321.18,-562.25 321.18,-556.25 327.18,-550.25 333.18,-550.25 333.18,-550.25 460.93,-550.25 460.93,-550.25 466.93,-550.25 472.93,-556.25 472.93,-562.25 472.93,-562.25 472.93,-616.5 472.93,-616.5 472.93,-622.5 466.93,-628.5 460.93,-628.5"/>
<text xml:space="preserve" text-anchor="start" x="329.18" y="-608.2" font-family="Times,serif" font-weight="bold" font-size="14.00">AwaitStartTlsResponse</text>
<text xml:space="preserve" text-anchor="start" x="329.18" y="-583" font-family="Times,serif" font-size="10.00">starttls_response(code: int)</text>
<text xml:space="preserve" text-anchor="start" x="329.18" y="-571.75" font-family="Times,serif" font-size="10.00">status()</text>
<text xml:space="preserve" text-anchor="start" x="365.93" y="-560.5" font-family="Times,serif" font-size="10.00"> &#160;&#160;&#160;&#160;&#160;&#160;&#160;&#160;&#160;&#160;&#160;&#160;&#160;&#160;&#160;</text>
<polygon fill="#00688b" stroke="#00688b" points="321.18,-598 321.18,-598 472.93,-598 472.93,-598 321.18,-598"/>
<path fill="none" stroke="#00688b" d="M333.18,-550.25C333.18,-550.25 460.93,-550.25 460.93,-550.25 466.93,-550.25 472.93,-556.25 472.93,-562.25 472.93,-562.25 472.93,-616.5 472.93,-616.5 472.93,-622.5 466.93,-628.5 460.93,-628.5 460.93,-628.5 333.18,-628.5 333.18,-628.5 327.18,-628.5 321.18,-622.5 321.18,-616.5 321.18,-616.5 321.18,-562.25 321.18,-562.25 321.18,-556.25 327.18,-550.25 333.18,-550.25"/>
</g>
<!-- Ready&#45;&gt;AwaitStartTlsResponse -->
<g id="edge7" class="edge">
<title>Ready&#45;&gt;AwaitStartTlsResponse</title>
<path fill="none" stroke="red" d="M319.94,-681.23C320.32,-669.39 322.37,-657.1 327.56,-646.5 329.11,-643.33 330.93,-640.28 332.97,-637.35"/>
<polygon fill="red" stroke="red" points="335.65,-639.6 339.18,-629.61 330.19,-635.22 335.65,-639.6"/>
<text xml:space="preserve" text-anchor="middle" x="349.31" y="-649.7" font-family="Times,serif" font-size="14.00"> starttls </text>
</g>
<!-- AwaitMailResponse -->
<g id="node9" class="node">
<title>AwaitMailResponse</title>
<path fill="azure" stroke="none" d="M264.18,-628.5C264.18,-628.5 155.93,-628.5 155.93,-628.5 149.93,-628.5 143.93,-622.5 143.93,-616.5 143.93,-616.5 143.93,-562.25 143.93,-562.25 143.93,-556.25 149.93,-550.25 155.93,-550.25 155.93,-550.25 264.18,-550.25 264.18,-550.25 270.18,-550.25 276.18,-556.25 276.18,-562.25 276.18,-562.25 276.18,-616.5 276.18,-616.5 276.18,-622.5 270.18,-628.5 264.18,-628.5"/>
<text xml:space="preserve" text-anchor="start" x="151.93" y="-608.2" font-family="Times,serif" font-weight="bold" font-size="14.00">AwaitMailResponse</text>
<text xml:space="preserve" text-anchor="start" x="151.93" y="-583" font-family="Times,serif" font-size="10.00">mail_response(code: int)</text>
<text xml:space="preserve" text-anchor="start" x="151.93" y="-571.75" font-family="Times,serif" font-size="10.00">status()</text>
<text xml:space="preserve" text-anchor="start" x="184.18" y="-560.5" font-family="Times,serif" font-size="10.00"> &#160;&#160;&#160;&#160;&#160;&#160;&#160;&#160;&#160;&#160;&#160;&#160;&#160;&#160;&#160;</text>
<polygon fill="#00688b" stroke="#00688b" points="143.93,-598 143.93,-598 276.18,-598 276.18,-598 143.93,-598"/>
<path fill="none" stroke="#00688b" d="M155.93,-550.25C155.93,-550.25 264.18,-550.25 264.18,-550.25 270.18,-550.25 276.18,-556.25 276.18,-562.25 276.18,-562.25 276.18,-616.5 276.18,-616.5 276.18,-622.5 270.18,-628.5 264.18,-628.5 264.18,-628.5 155.93,-628.5 155.93,-628.5 149.93,-628.5 143.93,-622.5 143.93,-616.5 143.93,-616.5 143.93,-562.25 143.93,-562.25 143.93,-556.25 149.93,-550.25 155.93,-550.25"/>
</g>
<!-- Ready&#45;&gt;AwaitMailResponse -->
<g id="edge8" class="edge">
<title>Ready&#45;&gt;AwaitMailResponse</title>
<path fill="none" stroke="red" d="M273.52,-729.23C225.32,-725.05 156.36,-710.46 122.06,-663 111.43,-648.31 119.66,-634.83 134.61,-623.59"/>
<polygon fill="red" stroke="red" points="136.48,-626.55 142.84,-618.08 132.58,-620.73 136.48,-626.55"/>
<text xml:space="preserve" text-anchor="middle" x="155.06" y="-649.7" font-family="Times,serif" font-size="14.00"> mail_from </text>
</g>
<!-- AwaitQuitResponse -->
<g id="node15" class="node">
<title>AwaitQuitResponse</title>
<path fill="azure" stroke="none" d="M635.81,-628.5C635.81,-628.5 528.31,-628.5 528.31,-628.5 522.31,-628.5 516.31,-622.5 516.31,-616.5 516.31,-616.5 516.31,-562.25 516.31,-562.25 516.31,-556.25 522.31,-550.25 528.31,-550.25 528.31,-550.25 635.81,-550.25 635.81,-550.25 641.81,-550.25 647.81,-556.25 647.81,-562.25 647.81,-562.25 647.81,-616.5 647.81,-616.5 647.81,-622.5 641.81,-628.5 635.81,-628.5"/>
<text xml:space="preserve" text-anchor="start" x="524.31" y="-608.2" font-family="Times,serif" font-weight="bold" font-size="14.00">AwaitQuitResponse</text>
<text xml:space="preserve" text-anchor="start" x="524.31" y="-583" font-family="Times,serif" font-size="10.00">quit_response(code: int)</text>
<text xml:space="preserve" text-anchor="start" x="524.31" y="-571.75" font-family="Times,serif" font-size="10.00">status()</text>
<text xml:space="preserve" text-anchor="start" x="555.81" y="-560.5" font-family="Times,serif" font-size="10.00"> &#160;&#160;&#160;&#160;&#160;&#160;&#160;&#160;&#160;&#160;&#160;&#160;&#160;&#160;&#160;</text>
<polygon fill="#00688b" stroke="#00688b" points="516.31,-598 516.31,-598 647.81,-598 647.81,-598 516.31,-598"/>
<path fill="none" stroke="#00688b" d="M528.31,-550.25C528.31,-550.25 635.81,-550.25 635.81,-550.25 641.81,-550.25 647.81,-556.25 647.81,-562.25 647.81,-562.25 647.81,-616.5 647.81,-616.5 647.81,-622.5 641.81,-628.5 635.81,-628.5 635.81,-628.5 528.31,-628.5 528.31,-628.5 522.31,-628.5 516.31,-622.5 516.31,-616.5 516.31,-616.5 516.31,-562.25 516.31,-562.25 516.31,-556.25 522.31,-550.25 528.31,-550.25"/>
</g>
<!-- Ready&#45;&gt;AwaitQuitResponse -->
<g id="edge9" class="edge">
<title>Ready&#45;&gt;AwaitQuitResponse</title>
<path fill="none" stroke="red" d="M378.58,-715.2C414.06,-703.71 461.16,-685.98 499.06,-663 506.65,-658.4 519.63,-647.59 533.11,-635.69"/>
<polygon fill="red" stroke="red" points="535.26,-638.46 540.39,-629.19 530.6,-633.24 535.26,-638.46"/>
<text xml:space="preserve" text-anchor="middle" x="534.07" y="-649.7" font-family="Times,serif" font-size="14.00"> quit </text>
</g>
<!-- AwaitStartTlsResponse&#45;&gt;Ready -->
<g id="edge11" class="edge">
<title>AwaitStartTlsResponse&#45;&gt;Ready</title>
<path fill="none" stroke="red" d="M385.4,-628.43C381.4,-639.79 376.53,-652.11 371.06,-663 369.68,-665.73 368.21,-668.49 366.68,-671.24"/>
<polygon fill="red" stroke="red" points="363.67,-669.45 361.65,-679.85 369.72,-672.98 363.67,-669.45"/>
<text xml:space="preserve" text-anchor="middle" x="426.81" y="-649.7" font-family="Times,serif" font-size="14.00"> starttls_response </text>
</g>
<!-- TlsHandshake -->
<g id="node8" class="node">
<title>TlsHandshake</title>
<path fill="azure" stroke="none" d="M700.68,-492.12C700.68,-492.12 601.43,-492.12 601.43,-492.12 595.43,-492.12 589.43,-486.12 589.43,-480.12 589.43,-480.12 589.43,-425.88 589.43,-425.88 589.43,-419.88 595.43,-413.88 601.43,-413.88 601.43,-413.88 700.68,-413.88 700.68,-413.88 706.68,-413.88 712.68,-419.88 712.68,-425.88 712.68,-425.88 712.68,-480.12 712.68,-480.12 712.68,-486.12 706.68,-492.12 700.68,-492.12"/>
<text xml:space="preserve" text-anchor="start" x="609.06" y="-471.82" font-family="Times,serif" font-weight="bold" font-size="14.00">TlsHandshake</text>
<text xml:space="preserve" text-anchor="start" x="597.43" y="-446.62" font-family="Times,serif" font-size="10.00">tls_handshake_complete()</text>
<text xml:space="preserve" text-anchor="start" x="597.43" y="-435.38" font-family="Times,serif" font-size="10.00">status()</text>
<text xml:space="preserve" text-anchor="start" x="633.06" y="-424.12" font-family="Times,serif" font-size="10.00"> &#160;&#160;&#160;&#160;&#160;&#160;&#160;&#160;&#160;&#160;&#160;&#160;&#160;&#160;&#160;</text>
<polygon fill="#00688b" stroke="#00688b" points="589.43,-461.62 589.43,-461.62 712.68,-461.62 712.68,-461.62 589.43,-461.62"/>
<path fill="none" stroke="#00688b" d="M601.43,-413.88C601.43,-413.88 700.68,-413.88 700.68,-413.88 706.68,-413.88 712.68,-419.88 712.68,-425.88 712.68,-425.88 712.68,-480.12 712.68,-480.12 712.68,-486.12 706.68,-492.12 700.68,-492.12 700.68,-492.12 601.43,-492.12 601.43,-492.12 595.43,-492.12 589.43,-486.12 589.43,-480.12 589.43,-480.12 589.43,-425.88 589.43,-425.88 589.43,-419.88 595.43,-413.88 601.43,-413.88"/>
</g>
<!-- AwaitStartTlsResponse&#45;&gt;TlsHandshake -->
<g id="edge10" class="edge">
<title>AwaitStartTlsResponse&#45;&gt;TlsHandshake</title>
<path fill="none" stroke="red" d="M468.82,-550.41C503.54,-532.04 545.09,-510.06 579.75,-491.72"/>
<polygon fill="red" stroke="red" points="581.25,-494.89 588.46,-487.12 577.98,-488.7 581.25,-494.89"/>
<text xml:space="preserve" text-anchor="middle" x="580.42" y="-518.95" font-family="Times,serif" font-size="14.00"> starttls_response </text>
</g>
<!-- TlsHandshake&#45;&gt;AwaitEhlo -->
<g id="edge12" class="edge">
<title>TlsHandshake&#45;&gt;AwaitEhlo</title>
<path fill="none" stroke="red" d="M665.38,-491.86C677.32,-530.58 687.93,-590.31 657.06,-628.5 633.05,-658.19 597.06,-616.81 573.06,-646.5 568.45,-652.2 572.81,-655.67 573.06,-663 574.89,-717.91 579.42,-780.8 582.84,-823.2"/>
<polygon fill="red" stroke="red" points="579.34,-823.4 583.64,-833.08 586.32,-822.83 579.34,-823.4"/>
<text xml:space="preserve" text-anchor="middle" x="643.56" y="-649.7" font-family="Times,serif" font-size="14.00"> tls_handshake_complete </text>
</g>
<!-- AwaitMailResponse&#45;&gt;Ready -->
<g id="edge14" class="edge">
<title>AwaitMailResponse&#45;&gt;Ready</title>
<path fill="none" stroke="red" d="M203.44,-628.13C203.14,-639.97 204.79,-652.64 210.81,-663 222.55,-683.23 242.96,-697.99 263.36,-708.43"/>
<polygon fill="red" stroke="red" points="261.77,-711.55 272.3,-712.71 264.79,-705.24 261.77,-711.55"/>
<text xml:space="preserve" text-anchor="middle" x="253.93" y="-649.7" font-family="Times,serif" font-size="14.00"> mail_response </text>
</g>
<!-- AwaitRcpt -->
<g id="node10" class="node">
<title>AwaitRcpt</title>
<path fill="azure" stroke="none" d="M398.18,-497.75C398.18,-497.75 319.93,-497.75 319.93,-497.75 313.93,-497.75 307.93,-491.75 307.93,-485.75 307.93,-485.75 307.93,-420.25 307.93,-420.25 307.93,-414.25 313.93,-408.25 319.93,-408.25 319.93,-408.25 398.18,-408.25 398.18,-408.25 404.18,-408.25 410.18,-414.25 410.18,-420.25 410.18,-420.25 410.18,-485.75 410.18,-485.75 410.18,-491.75 404.18,-497.75 398.18,-497.75"/>
<text xml:space="preserve" text-anchor="start" x="327.93" y="-477.45" font-family="Times,serif" font-weight="bold" font-size="14.00">AwaitRcpt</text>
<text xml:space="preserve" text-anchor="start" x="315.93" y="-452.25" font-family="Times,serif" font-size="10.00">rcpt_to(recipient: str)</text>
<text xml:space="preserve" text-anchor="start" x="315.93" y="-441" font-family="Times,serif" font-size="10.00">data()</text>
<text xml:space="preserve" text-anchor="start" x="315.93" y="-429.75" font-family="Times,serif" font-size="10.00">status()</text>
<text xml:space="preserve" text-anchor="start" x="341.06" y="-418.5" font-family="Times,serif" font-size="10.00"> &#160;&#160;&#160;&#160;&#160;&#160;&#160;&#160;&#160;&#160;&#160;&#160;&#160;&#160;&#160;</text>
<polygon fill="#00688b" stroke="#00688b" points="307.93,-467.25 307.93,-467.25 410.18,-467.25 410.18,-467.25 307.93,-467.25"/>
<path fill="none" stroke="#00688b" d="M319.93,-408.25C319.93,-408.25 398.18,-408.25 398.18,-408.25 404.18,-408.25 410.18,-414.25 410.18,-420.25 410.18,-420.25 410.18,-485.75 410.18,-485.75 410.18,-491.75 404.18,-497.75 398.18,-497.75 398.18,-497.75 319.93,-497.75 319.93,-497.75 313.93,-497.75 307.93,-491.75 307.93,-485.75 307.93,-485.75 307.93,-420.25 307.93,-420.25 307.93,-414.25 313.93,-408.25 319.93,-408.25"/>
</g>
<!-- AwaitMailResponse&#45;&gt;AwaitRcpt -->
<g id="edge13" class="edge">
<title>AwaitMailResponse&#45;&gt;AwaitRcpt</title>
<path fill="none" stroke="red" d="M215.23,-550.38C218.41,-538.26 223.53,-525.47 231.81,-515.75 248.92,-495.64 274.1,-481.53 297.56,-471.93"/>
<polygon fill="red" stroke="red" points="298.71,-475.24 306.78,-468.37 296.19,-468.71 298.71,-475.24"/>
<text xml:space="preserve" text-anchor="middle" x="274.93" y="-518.95" font-family="Times,serif" font-size="14.00"> mail_response </text>
</g>
<!-- AwaitRcptResponse -->
<g id="node11" class="node">
<title>AwaitRcptResponse</title>
<path fill="azure" stroke="none" d="M413.18,-355.75C413.18,-355.75 304.93,-355.75 304.93,-355.75 298.93,-355.75 292.93,-349.75 292.93,-343.75 292.93,-343.75 292.93,-289.5 292.93,-289.5 292.93,-283.5 298.93,-277.5 304.93,-277.5 304.93,-277.5 413.18,-277.5 413.18,-277.5 419.18,-277.5 425.18,-283.5 425.18,-289.5 425.18,-289.5 425.18,-343.75 425.18,-343.75 425.18,-349.75 419.18,-355.75 413.18,-355.75"/>
<text xml:space="preserve" text-anchor="start" x="300.93" y="-335.45" font-family="Times,serif" font-weight="bold" font-size="14.00">AwaitRcptResponse</text>
<text xml:space="preserve" text-anchor="start" x="300.93" y="-310.25" font-family="Times,serif" font-size="10.00">rcpt_response(code: int)</text>
<text xml:space="preserve" text-anchor="start" x="300.93" y="-299" font-family="Times,serif" font-size="10.00">status()</text>
<text xml:space="preserve" text-anchor="start" x="332.06" y="-287.75" font-family="Times,serif" font-size="10.00"> &#160;&#160;&#160;&#160;&#160;&#160;&#160;&#160;&#160;&#160;&#160;&#160;&#160;&#160;&#160;</text>
<polygon fill="#00688b" stroke="#00688b" points="292.93,-325.25 292.93,-325.25 425.18,-325.25 425.18,-325.25 292.93,-325.25"/>
<path fill="none" stroke="#00688b" d="M304.93,-277.5C304.93,-277.5 413.18,-277.5 413.18,-277.5 419.18,-277.5 425.18,-283.5 425.18,-289.5 425.18,-289.5 425.18,-343.75 425.18,-343.75 425.18,-349.75 419.18,-355.75 413.18,-355.75 413.18,-355.75 304.93,-355.75 304.93,-355.75 298.93,-355.75 292.93,-349.75 292.93,-343.75 292.93,-343.75 292.93,-289.5 292.93,-289.5 292.93,-283.5 298.93,-277.5 304.93,-277.5"/>
</g>
<!-- AwaitRcpt&#45;&gt;AwaitRcptResponse -->
<g id="edge15" class="edge">
<title>AwaitRcpt&#45;&gt;AwaitRcptResponse</title>
<path fill="none" stroke="red" d="M359.06,-408.37C359.06,-395.08 359.06,-380.38 359.06,-366.75"/>
<polygon fill="red" stroke="red" points="362.56,-367.12 359.06,-357.12 355.56,-367.12 362.56,-367.12"/>
<text xml:space="preserve" text-anchor="middle" x="381.93" y="-376.95" font-family="Times,serif" font-size="14.00"> rcpt_to </text>
</g>
<!-- AwaitDataResponse -->
<g id="node12" class="node">
<title>AwaitDataResponse</title>
<path fill="azure" stroke="none" d="M563.18,-355.75C563.18,-355.75 454.93,-355.75 454.93,-355.75 448.93,-355.75 442.93,-349.75 442.93,-343.75 442.93,-343.75 442.93,-289.5 442.93,-289.5 442.93,-283.5 448.93,-277.5 454.93,-277.5 454.93,-277.5 563.18,-277.5 563.18,-277.5 569.18,-277.5 575.18,-283.5 575.18,-289.5 575.18,-289.5 575.18,-343.75 575.18,-343.75 575.18,-349.75 569.18,-355.75 563.18,-355.75"/>
<text xml:space="preserve" text-anchor="start" x="450.93" y="-335.45" font-family="Times,serif" font-weight="bold" font-size="14.00">AwaitDataResponse</text>
<text xml:space="preserve" text-anchor="start" x="450.93" y="-310.25" font-family="Times,serif" font-size="10.00">data_response(code: int)</text>
<text xml:space="preserve" text-anchor="start" x="450.93" y="-299" font-family="Times,serif" font-size="10.00">status()</text>
<text xml:space="preserve" text-anchor="start" x="482.81" y="-287.75" font-family="Times,serif" font-size="10.00"> &#160;&#160;&#160;&#160;&#160;&#160;&#160;&#160;&#160;&#160;&#160;&#160;&#160;&#160;&#160;</text>
<polygon fill="#00688b" stroke="#00688b" points="442.93,-325.25 442.93,-325.25 575.18,-325.25 575.18,-325.25 442.93,-325.25"/>
<path fill="none" stroke="#00688b" d="M454.93,-277.5C454.93,-277.5 563.18,-277.5 563.18,-277.5 569.18,-277.5 575.18,-283.5 575.18,-289.5 575.18,-289.5 575.18,-343.75 575.18,-343.75 575.18,-349.75 569.18,-355.75 563.18,-355.75 563.18,-355.75 454.93,-355.75 454.93,-355.75 448.93,-355.75 442.93,-349.75 442.93,-343.75 442.93,-343.75 442.93,-289.5 442.93,-289.5 442.93,-283.5 448.93,-277.5 454.93,-277.5"/>
</g>
<!-- AwaitRcpt&#45;&gt;AwaitDataResponse -->
<g id="edge16" class="edge">
<title>AwaitRcpt&#45;&gt;AwaitDataResponse</title>
<path fill="none" stroke="red" d="M410.13,-440.79C438.96,-431.85 473.26,-416.35 494.06,-390.25 499.47,-383.46 503.07,-375.2 505.44,-366.73"/>
<polygon fill="red" stroke="red" points="508.84,-367.56 507.56,-357.05 502,-366.06 508.84,-367.56"/>
<text xml:space="preserve" text-anchor="middle" x="517.8" y="-376.95" font-family="Times,serif" font-size="14.00"> data </text>
</g>
<!-- AwaitRcptResponse&#45;&gt;AwaitRcpt -->
<g id="edge17" class="edge">
<title>AwaitRcptResponse&#45;&gt;AwaitRcpt</title>
<path fill="none" stroke="red" d="M399.66,-355.74C406.41,-366.37 410.09,-378.3 406.06,-390.25 405.13,-392.99 404.03,-395.7 402.8,-398.37"/>
<polygon fill="red" stroke="red" points="399.75,-396.64 398.12,-407.11 405.93,-399.94 399.75,-396.64"/>
<text xml:space="preserve" text-anchor="middle" x="448.98" y="-376.95" font-family="Times,serif" font-size="14.00"> rcpt_response </text>
</g>
<!-- AwaitRcptResponse&#45;&gt;AwaitRcpt -->
<g id="edge18" class="edge">
<title>AwaitRcptResponse&#45;&gt;AwaitRcpt</title>
<path fill="none" stroke="red" d="M293.18,-349.69C284.91,-356.48 277.6,-364.47 272.56,-373.75 261.62,-393.89 277.25,-411.51 298.11,-424.91"/>
<polygon fill="red" stroke="red" points="296.29,-427.9 306.68,-429.99 299.86,-421.88 296.29,-427.9"/>
<text xml:space="preserve" text-anchor="middle" x="313.81" y="-376.95" font-family="Times,serif" font-size="14.00"> rcpt_response </text>
</g>
<!-- AwaitDataResponse&#45;&gt;Ready -->
<g id="edge20" class="edge">
<title>AwaitDataResponse&#45;&gt;Ready</title>
<path fill="none" stroke="red" d="M535.31,-355.6C539.97,-366.85 541.97,-379.13 537.06,-390.25 508.39,-455.14 477.71,-457.84 419.06,-497.75 375.26,-527.55 340.07,-505.29 312.06,-550.25 289.93,-585.74 294.66,-633.13 304.26,-670.39"/>
<polygon fill="red" stroke="red" points="300.78,-670.94 306.82,-679.65 307.53,-669.08 300.78,-670.94"/>
<text xml:space="preserve" text-anchor="middle" x="414.26" y="-518.95" font-family="Times,serif" font-size="14.00"> data_response </text>
</g>
<!-- SendingBody -->
<g id="node13" class="node">
<title>SendingBody</title>
<path fill="azure" stroke="none" d="M542.81,-225C542.81,-225 465.31,-225 465.31,-225 459.31,-225 453.31,-219 453.31,-213 453.31,-213 453.31,-158.75 453.31,-158.75 453.31,-152.75 459.31,-146.75 465.31,-146.75 465.31,-146.75 542.81,-146.75 542.81,-146.75 548.81,-146.75 554.81,-152.75 554.81,-158.75 554.81,-158.75 554.81,-213 554.81,-213 554.81,-219 548.81,-225 542.81,-225"/>
<text xml:space="preserve" text-anchor="start" x="465.81" y="-204.7" font-family="Times,serif" font-weight="bold" font-size="14.00">SendingBody</text>
<text xml:space="preserve" text-anchor="start" x="461.31" y="-179.5" font-family="Times,serif" font-size="10.00">data_body(body: str)</text>
<text xml:space="preserve" text-anchor="start" x="461.31" y="-168.25" font-family="Times,serif" font-size="10.00">status()</text>
<text xml:space="preserve" text-anchor="start" x="486.06" y="-157" font-family="Times,serif" font-size="10.00"> &#160;&#160;&#160;&#160;&#160;&#160;&#160;&#160;&#160;&#160;&#160;&#160;&#160;&#160;&#160;</text>
<polygon fill="#00688b" stroke="#00688b" points="453.31,-194.5 453.31,-194.5 554.81,-194.5 554.81,-194.5 453.31,-194.5"/>
<path fill="none" stroke="#00688b" d="M465.31,-146.75C465.31,-146.75 542.81,-146.75 542.81,-146.75 548.81,-146.75 554.81,-152.75 554.81,-158.75 554.81,-158.75 554.81,-213 554.81,-213 554.81,-219 548.81,-225 542.81,-225 542.81,-225 465.31,-225 465.31,-225 459.31,-225 453.31,-219 453.31,-213 453.31,-213 453.31,-158.75 453.31,-158.75 453.31,-152.75 459.31,-146.75 465.31,-146.75"/>
</g>
<!-- AwaitDataResponse&#45;&gt;SendingBody -->
<g id="edge19" class="edge">
<title>AwaitDataResponse&#45;&gt;SendingBody</title>
<path fill="none" stroke="red" d="M506.05,-277.6C505.66,-271.55 505.3,-265.36 505.06,-259.5 504.74,-252.05 504.52,-244.18 504.36,-236.46"/>
<polygon fill="red" stroke="red" points="507.86,-236.41 504.19,-226.47 500.86,-236.53 507.86,-236.41"/>
<text xml:space="preserve" text-anchor="middle" x="547.06" y="-246.2" font-family="Times,serif" font-size="14.00"> data_response </text>
</g>
<!-- AwaitFinalResponse -->
<g id="node14" class="node">
<title>AwaitFinalResponse</title>
<path fill="azure" stroke="none" d="M561.93,-94.25C561.93,-94.25 446.18,-94.25 446.18,-94.25 440.18,-94.25 434.18,-88.25 434.18,-82.25 434.18,-82.25 434.18,-28 434.18,-28 434.18,-22 440.18,-16 446.18,-16 446.18,-16 561.93,-16 561.93,-16 567.93,-16 573.93,-22 573.93,-28 573.93,-28 573.93,-82.25 573.93,-82.25 573.93,-88.25 567.93,-94.25 561.93,-94.25"/>
<text xml:space="preserve" text-anchor="start" x="444.81" y="-73.95" font-family="Times,serif" font-weight="bold" font-size="14.00">AwaitFinalResponse</text>
<text xml:space="preserve" text-anchor="start" x="442.18" y="-48.75" font-family="Times,serif" font-size="10.00">data_final_response(code: int)</text>
<text xml:space="preserve" text-anchor="start" x="442.18" y="-37.5" font-family="Times,serif" font-size="10.00">status()</text>
<text xml:space="preserve" text-anchor="start" x="486.06" y="-26.25" font-family="Times,serif" font-size="10.00"> &#160;&#160;&#160;&#160;&#160;&#160;&#160;&#160;&#160;&#160;&#160;&#160;&#160;&#160;&#160;</text>
<polygon fill="#00688b" stroke="#00688b" points="434.18,-63.75 434.18,-63.75 573.93,-63.75 573.93,-63.75 434.18,-63.75"/>
<path fill="none" stroke="#00688b" d="M446.18,-16C446.18,-16 561.93,-16 561.93,-16 567.93,-16 573.93,-22 573.93,-28 573.93,-28 573.93,-82.25 573.93,-82.25 573.93,-88.25 567.93,-94.25 561.93,-94.25 561.93,-94.25 446.18,-94.25 446.18,-94.25 440.18,-94.25 434.18,-88.25 434.18,-82.25 434.18,-82.25 434.18,-28 434.18,-28 434.18,-22 440.18,-16 446.18,-16"/>
</g>
<!-- SendingBody&#45;&gt;AwaitFinalResponse -->
<g id="edge21" class="edge">
<title>SendingBody&#45;&gt;AwaitFinalResponse</title>
<path fill="none" stroke="red" d="M504.06,-146.94C504.06,-133.96 504.06,-119.24 504.06,-105.49"/>
<polygon fill="red" stroke="red" points="507.56,-105.75 504.06,-95.75 500.56,-105.75 507.56,-105.75"/>
<text xml:space="preserve" text-anchor="middle" x="535.93" y="-115.45" font-family="Times,serif" font-size="14.00"> data_body </text>
</g>
<!-- AwaitFinalResponse&#45;&gt;Ready -->
<g id="edge22" class="edge">
<title>AwaitFinalResponse&#45;&gt;Ready</title>
<path fill="none" stroke="red" d="M438.58,-94.12C356,-145.89 216.7,-246.84 149.56,-373.75 -152.71,-945.08 93.44,-636.23 113.06,-663 146.97,-709.3 212.84,-724.58 262.4,-729.24"/>
<polygon fill="red" stroke="red" points="261.9,-732.71 272.15,-730.02 262.46,-725.74 261.9,-732.71"/>
<text xml:space="preserve" text-anchor="middle" x="207.31" y="-376.95" font-family="Times,serif" font-size="14.00"> data_final_response </text>
</g>
<!-- AwaitFinalResponse&#45;&gt;Ready -->
<g id="edge23" class="edge">
<title>AwaitFinalResponse&#45;&gt;Ready</title>
<path fill="none" stroke="red" d="M558.42,-93.99C563.7,-99.58 568.43,-105.69 572.06,-112.25 600.41,-163.53 585.27,-184.52 589.06,-243 589.53,-250.32 589.25,-252.17 589.06,-259.5 587.94,-302.32 587.94,-313.09 584.06,-355.75 582.26,-375.45 573.63,-516.99 561.06,-532.25 544.97,-551.77 524.15,-531.6 507.06,-550.25 472.23,-588.23 513.12,-623.48 480.06,-663 457.11,-690.43 420.84,-707.04 389.26,-716.9"/>
<polygon fill="red" stroke="red" points="388.38,-713.51 379.77,-719.69 390.35,-720.23 388.38,-713.51"/>
<text xml:space="preserve" text-anchor="middle" x="640.41" y="-376.95" font-family="Times,serif" font-size="14.00"> data_final_response </text>
</g>
<!-- AwaitQuitResponse&#45;&gt;Disconnected -->
<g id="edge24" class="edge">
<title>AwaitQuitResponse&#45;&gt;Disconnected</title>
<path fill="none" stroke="red" d="M647.78,-608.86C671.56,-617.67 697.58,-629.99 718.06,-646.5 730.48,-656.52 741.34,-669.87 750.2,-682.98"/>
<polygon fill="red" stroke="red" points="747.12,-684.65 755.48,-691.16 753,-680.86 747.12,-684.65"/>
<text xml:space="preserve" text-anchor="middle" x="775.23" y="-649.7" font-family="Times,serif" font-size="14.00"> quit_response </text>
</g>
</g>
</svg>
