<?xml version="1.0" encoding="UTF-8" standalone="no"?>
<!DOCTYPE svg PUBLIC "-//W3C//DTD SVG 1.1//EN"
 "http://www.w3.org/Graphics/SVG/1.1/DTD/svg11.dtd">
<!-- Generated by graphviz version 14.1.5 (20260411.2331)
 -->
<!-- Title: Substance Pages: 1 -->
<svg width="166pt" height="915pt"
 viewBox="0.00 0.00 166.00 915.00" xmlns="http://www.w3.org/2000/svg" xmlns:xlink="http://www.w3.org/1999/xlink">
<g id="graph0" class="graph" transform="scale(1 1) rotate(0) translate(4 911.15)">
<title>Substance</title>
<polygon fill="white" stroke="none" points="-4,4 -4,-911.15 162.43,-911.15 162.43,4 -4,4"/>
<!-- Entry -->
<g id="node1" class="node">
<title>Entry</title>
<ellipse fill="black" stroke="#00688b" cx="61.62" cy="-899.95" rx="7.2" ry="7.2"/>
</g>
<!-- Solid -->
<g id="node2" class="node">
<title>Solid</title>
<path fill="azure" stroke="none" d="M111.25,-855.75C111.25,-855.75 12,-855.75 12,-855.75 6,-855.75 0,-849.75 0,-843.75 0,-843.75 0,-767 0,-767 0,-761 6,-755 12,-755 12,-755 111.25,-755 111.25,-755 117.25,-755 123.25,-761 123.25,-767 123.25,-767 123.25,-843.75 123.25,-843.75 123.25,-849.75 117.25,-855.75 111.25,-855.75"/>
<text xml:space="preserve" text-anchor="start" x="47" y="-835.45" font-family="Times,serif" font-weight="bold" font-size="14.00">Solid</text>
<text xml:space="preserve" text-anchor="start" x="8" y="-810.25" font-family="Times,serif" font-size="10.00">add_heat(joules: float)</text>
<text xml:space="preserve" text-anchor="start" x="8" y="-799" font-family="Times,serif" font-size="10.00">remove_heat(joules: float)</text>
<text xml:space="preserve" text-anchor="start" x="8" y="-787.75" font-family="Times,serif" font-size="10.00">temperature()</text>
<text xml:space="preserve" text-anchor="start" x="8" y="-776.5" font-family="Times,serif" font-size="10.00">phase()</text>
<text xml:space="preserve" text-anchor="start" x="48.12" y="-765.25" font-family="Times,serif" font-size="10.00"> &#160;&#160;&#160;&#160;&#160;&#160;&#160;&#160;&#160;&#160;&#160;</text>
<polygon fill="#00688b" stroke="#00688b" points="0,-825.25 0,-825.25 123.25,-825.25 123.25,-825.25 0,-825.25"/>
<path fill="none" stroke="#00688b" d="M12,-755C12,-755 111.25,-755 111.25,-755 117.25,-755 123.25,-761 123.25,-767 123.25,-767 123.25,-843.75 123.25,-843.75 123.25,-849.75 117.25,-855.75 111.25,-855.75 111.25,-855.75 12,-855.75 12,-855.75 6,-855.75 0,-849.75 0,-843.75 0,-843.75 0,-767 0,-767 0,-761 6,-755 12,-755"/>
</g>
<!-- Entry&#45;&gt;Solid -->
<g id="edge1" class="edge">
<title>Entry&#45;&gt;Solid</title>
<path fill="none" stroke="red" d="M61.62,-892.29C61.62,-886.39 61.62,-877.11 61.62,-866.81"/>
<polygon fill="red" stroke="red" points="65.13,-866.84 61.63,-856.84 58.13,-866.84 65.13,-866.84"/>
</g>
<!-- Melting -->
<g id="node3" class="node">
<title>Melting</title>
<path fill="azure" stroke="none" d="M111.25,-702.5C111.25,-702.5 12,-702.5 12,-702.5 6,-702.5 0,-696.5 0,-690.5 0,-690.5 0,-613.75 0,-613.75 0,-607.75 6,-601.75 12,-601.75 12,-601.75 111.25,-601.75 111.25,-601.75 117.25,-601.75 123.25,-607.75 123.25,-613.75 123.25,-613.75 123.25,-690.5 123.25,-690.5 123.25,-696.5 117.25,-702.5 111.25,-702.5"/>
<text xml:space="preserve" text-anchor="start" x="38.75" y="-682.2" font-family="Times,serif" font-weight="bold" font-size="14.00">Melting</text>
<text xml:space="preserve" text-anchor="start" x="8" y="-657" font-family="Times,serif" font-size="10.00">add_heat(joules: float)</text>
<text xml:space="preserve" text-anchor="start" x="8" y="-645.75" font-family="Times,serif" font-size="10.00">remove_heat(joules: float)</text>
<text xml:space="preserve" text-anchor="start" x="8" y="-634.5" font-family="Times,serif" font-size="10.00">temperature()</text>
<text xml:space="preserve" text-anchor="start" x="8" y="-623.25" font-family="Times,serif" font-size="10.00">phase()</text>
<text xml:space="preserve" text-anchor="start" x="48.12" y="-612" font-family="Times,serif" font-size="10.00"> &#160;&#160;&#160;&#160;&#160;&#160;&#160;&#160;&#160;&#160;&#160;</text>
<polygon fill="#00688b" stroke="#00688b" points="0,-672 0,-672 123.25,-672 123.25,-672 0,-672"/>
<path fill="none" stroke="#00688b" d="M12,-601.75C12,-601.75 111.25,-601.75 111.25,-601.75 117.25,-601.75 123.25,-607.75 123.25,-613.75 123.25,-613.75 123.25,-690.5 123.25,-690.5 123.25,-696.5 117.25,-702.5 111.25,-702.5 111.25,-702.5 12,-702.5 12,-702.5 6,-702.5 0,-696.5 0,-690.5 0,-690.5 0,-613.75 0,-613.75 0,-607.75 6,-601.75 12,-601.75"/>
</g>
<!-- Solid&#45;&gt;Melting -->
<g id="edge2" class="edge">
<title>Solid&#45;&gt;Melting</title>
<path fill="none" stroke="red" d="M30,-755.2C27.3,-749.25 24.99,-743.11 23.38,-737 21.29,-729.11 21.56,-721.04 23.31,-713.17"/>
<polygon fill="red" stroke="red" points="26.64,-714.25 26.26,-703.66 19.96,-712.18 26.64,-714.25"/>
<text xml:space="preserve" text-anchor="middle" x="51.5" y="-723.7" font-family="Times,serif" font-size="14.00"> add_heat </text>
</g>
<!-- Melting&#45;&gt;Solid -->
<g id="edge4" class="edge">
<title>Melting&#45;&gt;Solid</title>
<path fill="none" stroke="red" d="M77.91,-702.12C80.08,-713.51 81.12,-725.63 79.62,-737 79.32,-739.34 78.95,-741.72 78.54,-744.12"/>
<polygon fill="red" stroke="red" points="75.11,-743.39 76.6,-753.88 81.98,-744.76 75.11,-743.39"/>
<text xml:space="preserve" text-anchor="middle" x="119.33" y="-723.7" font-family="Times,serif" font-size="14.00"> remove_heat </text>
</g>
<!-- Liquid -->
<g id="node4" class="node">
<title>Liquid</title>
<path fill="azure" stroke="none" d="M111.25,-549.25C111.25,-549.25 12,-549.25 12,-549.25 6,-549.25 0,-543.25 0,-537.25 0,-537.25 0,-460.5 0,-460.5 0,-454.5 6,-448.5 12,-448.5 12,-448.5 111.25,-448.5 111.25,-448.5 117.25,-448.5 123.25,-454.5 123.25,-460.5 123.25,-460.5 123.25,-537.25 123.25,-537.25 123.25,-543.25 117.25,-549.25 111.25,-549.25"/>
<text xml:space="preserve" text-anchor="start" x="42.12" y="-528.95" font-family="Times,serif" font-weight="bold" font-size="14.00">Liquid</text>
<text xml:space="preserve" text-anchor="start" x="8" y="-503.75" font-family="Times,serif" font-size="10.00">add_heat(joules: float)</text>
<text xml:space="preserve" text-anchor="start" x="8" y="-492.5" font-family="Times,serif" font-size="10.00">remove_heat(joules: float)</text>
<text xml:space="preserve" text-anchor="start" x="8" y="-481.25" font-family="Times,serif" font-size="10.00">temperature()</text>
<text xml:space="preserve" text-anchor="start" x="8" y="-470" font-family="Times,serif" font-size="10.00">phase()</text>
<text xml:space="preserve" text-anchor="start" x="48.12" y="-458.75" font-family="Times,serif" font-size="10.00"> &#160;&#160;&#160;&#160;&#160;&#160;&#160;&#160;&#160;&#160;&#160;</text>
<polygon fill="#00688b" stroke="#00688b" points="0,-518.75 0,-518.75 123.25,-518.75 123.25,-518.75 0,-518.75"/>
<path fill="none" stroke="#00688b" d="M12,-448.5C12,-448.5 111.25,-448.5 111.25,-448.5 117.25,-448.5 123.25,-454.5 123.25,-460.5 123.25,-460.5 123.25,-537.25 123.25,-537.25 123.25,-543.25 117.25,-549.25 111.25,-549.25 111.25,-549.25 12,-549.25 12,-549.25 6,-549.25 0,-543.25 0,-537.25 0,-537.25 0,-460.5 0,-460.5 0,-454.5 6,-448.5 12,-448.5"/>
</g>
<!-- Melting&#45;&gt;Liquid -->
<g id="edge3" class="edge">
<title>Melting&#45;&gt;Liquid</title>
<path fill="none" stroke="red" d="M30,-601.95C27.3,-596 24.99,-589.86 23.38,-583.75 21.29,-575.86 21.56,-567.79 23.31,-559.92"/>
<polygon fill="red" stroke="red" points="26.64,-561 26.26,-550.41 19.96,-558.93 26.64,-561"/>
<text xml:space="preserve" text-anchor="middle" x="51.5" y="-570.45" font-family="Times,serif" font-size="14.00"> add_heat </text>
</g>
<!-- Liquid&#45;&gt;Melting -->
<g id="edge6" class="edge">
<title>Liquid&#45;&gt;Melting</title>
<path fill="none" stroke="red" d="M77.91,-548.87C80.08,-560.26 81.12,-572.38 79.62,-583.75 79.32,-586.09 78.95,-588.47 78.54,-590.87"/>
<polygon fill="red" stroke="red" points="75.11,-590.14 76.6,-600.63 81.98,-591.51 75.11,-590.14"/>
<text xml:space="preserve" text-anchor="middle" x="119.33" y="-570.45" font-family="Times,serif" font-size="14.00"> remove_heat </text>
</g>
<!-- Boiling -->
<g id="node5" class="node">
<title>Boiling</title>
<path fill="azure" stroke="none" d="M111.25,-396C111.25,-396 12,-396 12,-396 6,-396 0,-390 0,-384 0,-384 0,-307.25 0,-307.25 0,-301.25 6,-295.25 12,-295.25 12,-295.25 111.25,-295.25 111.25,-295.25 117.25,-295.25 123.25,-301.25 123.25,-307.25 123.25,-307.25 123.25,-384 123.25,-384 123.25,-390 117.25,-396 111.25,-396"/>
<text xml:space="preserve" text-anchor="start" x="41" y="-375.7" font-family="Times,serif" font-weight="bold" font-size="14.00">Boiling</text>
<text xml:space="preserve" text-anchor="start" x="8" y="-350.5" font-family="Times,serif" font-size="10.00">add_heat(joules: float)</text>
<text xml:space="preserve" text-anchor="start" x="8" y="-339.25" font-family="Times,serif" font-size="10.00">remove_heat(joules: float)</text>
<text xml:space="preserve" text-anchor="start" x="8" y="-328" font-family="Times,serif" font-size="10.00">temperature()</text>
<text xml:space="preserve" text-anchor="start" x="8" y="-316.75" font-family="Times,serif" font-size="10.00">phase()</text>
<text xml:space="preserve" text-anchor="start" x="48.12" y="-305.5" font-family="Times,serif" font-size="10.00"> &#160;&#160;&#160;&#160;&#160;&#160;&#160;&#160;&#160;&#160;&#160;</text>
<polygon fill="#00688b" stroke="#00688b" points="0,-365.5 0,-365.5 123.25,-365.5 123.25,-365.5 0,-365.5"/>
<path fill="none" stroke="#00688b" d="M12,-295.25C12,-295.25 111.25,-295.25 111.25,-295.25 117.25,-295.25 123.25,-301.25 123.25,-307.25 123.25,-307.25 123.25,-384 123.25,-384 123.25,-390 117.25,-396 111.25,-396 111.25,-396 12,-396 12,-396 6,-396 0,-390 0,-384 0,-384 0,-307.25 0,-307.25 0,-301.25 6,-295.25 12,-295.25"/>
</g>
<!-- Liquid&#45;&gt;Boiling -->
<g id="edge5" class="edge">
<title>Liquid&#45;&gt;Boiling</title>
<path fill="none" stroke="red" d="M30,-448.7C27.3,-442.75 24.99,-436.61 23.38,-430.5 21.29,-422.61 21.56,-414.54 23.31,-406.67"/>
<polygon fill="red" stroke="red" points="26.64,-407.75 26.26,-397.16 19.96,-405.68 26.64,-407.75"/>
<text xml:space="preserve" text-anchor="middle" x="51.5" y="-417.2" font-family="Times,serif" font-size="14.00"> add_heat </text>
</g>
<!-- Boiling&#45;&gt;Liquid -->
<g id="edge8" class="edge">
<title>Boiling&#45;&gt;Liquid</title>
<path fill="none" stroke="red" d="M77.91,-395.62C80.08,-407.01 81.12,-419.13 79.62,-430.5 79.32,-432.84 78.95,-435.22 78.54,-437.62"/>
<polygon fill="red" stroke="red" points="75.11,-436.89 76.6,-447.38 81.98,-438.26 75.11,-436.89"/>
<text xml:space="preserve" text-anchor="middle" x="119.33" y="-417.2" font-family="Times,serif" font-size="14.00"> remove_heat </text>
</g>
<!-- Gas -->
<g id="node6" class="node">
<title>Gas</title>
<path fill="azure" stroke="none" d="M111.25,-242.75C111.25,-242.75 12,-242.75 12,-242.75 6,-242.75 0,-236.75 0,-230.75 0,-230.75 0,-154 0,-154 0,-148 6,-142 12,-142 12,-142 111.25,-142 111.25,-142 117.25,-142 123.25,-148 123.25,-154 123.25,-154 123.25,-230.75 123.25,-230.75 123.25,-236.75 117.25,-242.75 111.25,-242.75"/>
<text xml:space="preserve" text-anchor="start" x="50" y="-222.45" font-family="Times,serif" font-weight="bold" font-size="14.00">Gas</text>
<text xml:space="preserve" text-anchor="start" x="8" y="-197.25" font-family="Times,serif" font-size="10.00">add_heat(joules: float)</text>
<text xml:space="preserve" text-anchor="start" x="8" y="-186" font-family="Times,serif" font-size="10.00">remove_heat(joules: float)</text>
<text xml:space="preserve" text-anchor="start" x="8" y="-174.75" font-family="Times,serif" font-size="10.00">temperature()</text>
<text xml:space="preserve" text-anchor="start" x="8" y="-163.5" font-family="Times,serif" font-size="10.00">phase()</text>
<text xml:space="preserve" text-anchor="start" x="48.12" y="-152.25" font-family="Times,serif" font-size="10.00"> &#160;&#160;&#160;&#160;&#160;&#160;&#160;&#160;&#160;&#160;&#160;</text>
<polygon fill="#00688b" stroke="#00688b" points="0,-212.25 0,-212.25 123.25,-212.25 123.25,-212.25 0,-212.25"/>
<path fill="none" stroke="#00688b" d="M12,-142C12,-142 111.25,-142 111.25,-142 117.25,-142 123.25,-148 123.25,-154 123.25,-154 123.25,-230.75 123.25,-230.75 123.25,-236.75 117.25,-242.75 111.25,-242.75 111.25,-242.75 12,-242.75 12,-242.75 6,-242.75 0,-236.75 0,-230.75 0,-230.75 0,-154 0,-154 0,-148 6,-142 12,-142"/>
</g>
<!-- Boiling&#45;&gt;Gas -->
<g id="edge7" class="edge">
<title>Boiling&#45;&gt;Gas</title>
<path fill="none" stroke="red" d="M30,-295.45C27.3,-289.5 24.99,-283.36 23.38,-277.25 21.29,-269.36 21.56,-261.29 23.31,-253.42"/>
<polygon fill="red" stroke="red" points="26.64,-254.5 26.26,-243.91 19.96,-252.43 26.64,-254.5"/>
<text xml:space="preserve" text-anchor="middle" x="51.5" y="-263.95" font-family="Times,serif" font-size="14.00"> add_heat </text>
</g>
<!-- Gas&#45;&gt;Boiling -->
<g id="edge10" class="edge">
<title>Gas&#45;&gt;Boiling</title>
<path fill="none" stroke="red" d="M77.91,-242.37C80.08,-253.76 81.12,-265.88 79.62,-277.25 79.32,-279.59 78.95,-281.97 78.54,-284.37"/>
<polygon fill="red" stroke="red" points="75.11,-283.64 76.6,-294.13 81.98,-285.01 75.11,-283.64"/>
<text xml:space="preserve" text-anchor="middle" x="119.33" y="-263.95" font-family="Times,serif" font-size="14.00"> remove_heat </text>
</g>
<!-- Plasma -->
<g id="node7" class="node">
<title>Plasma</title>
<path fill="azure" stroke="none" d="M111.25,-89.5C111.25,-89.5 12,-89.5 12,-89.5 6,-89.5 0,-83.5 0,-77.5 0,-77.5 0,-12 0,-12 0,-6 6,0 12,0 12,0 111.25,0 111.25,0 117.25,0 123.25,-6 123.25,-12 123.25,-12 123.25,-77.5 123.25,-77.5 123.25,-83.5 117.25,-89.5 111.25,-89.5"/>
<text xml:space="preserve" text-anchor="start" x="40.25" y="-69.2" font-family="Times,serif" font-weight="bold" font-size="14.00">Plasma</text>
<text xml:space="preserve" text-anchor="start" x="8" y="-44" font-family="Times,serif" font-size="10.00">remove_heat(joules: float)</text>
<text xml:space="preserve" text-anchor="start" x="8" y="-32.75" font-family="Times,serif" font-size="10.00">temperature()</text>
<text xml:space="preserve" text-anchor="start" x="8" y="-21.5" font-family="Times,serif" font-size="10.00">phase()</text>
<text xml:space="preserve" text-anchor="start" x="48.12" y="-10.25" font-family="Times,serif" font-size="10.00"> &#160;&#160;&#160;&#160;&#160;&#160;&#160;&#160;&#160;&#160;&#160;</text>
<polygon fill="#00688b" stroke="#00688b" points="0,-59 0,-59 123.25,-59 123.25,-59 0,-59"/>
<path fill="none" stroke="#00688b" d="M12,0C12,0 111.25,0 111.25,0 117.25,0 123.25,-6 123.25,-12 123.25,-12 123.25,-77.5 123.25,-77.5 123.25,-83.5 117.25,-89.5 111.25,-89.5 111.25,-89.5 12,-89.5 12,-89.5 6,-89.5 0,-83.5 0,-77.5 0,-77.5 0,-12 0,-12 0,-6 6,0 12,0"/>
</g>
<!-- Gas&#45;&gt;Plasma -->
<g id="edge9" class="edge">
<title>Gas&#45;&gt;Plasma</title>
<path fill="none" stroke="red" d="M26.37,-142.19C22.01,-131.02 20.09,-119.04 23.38,-107.5 24.12,-104.89 25.01,-102.28 26.01,-99.7"/>
<polygon fill="red" stroke="red" points="29.19,-101.16 30.09,-90.61 22.8,-98.29 29.19,-101.16"/>
<text xml:space="preserve" text-anchor="middle" x="51.5" y="-110.7" font-family="Times,serif" font-size="14.00"> add_heat </text>
</g>
<!-- Plasma&#45;&gt;Gas -->
<g id="edge11" class="edge">
<title>Plasma&#45;&gt;Gas</title>
<path fill="none" stroke="red" d="M75.97,-89.27C77.48,-95.33 78.77,-101.53 79.62,-107.5 80.73,-115.22 80.63,-123.28 79.77,-131.23"/>
<polygon fill="red" stroke="red" points="76.35,-130.44 78.32,-140.85 83.27,-131.49 76.35,-130.44"/>
<text xml:space="preserve" text-anchor="middle" x="119.43" y="-110.7" font-family="Times,serif" font-size="14.00"> remove_heat </text>
</g>
</g>
</svg>
