<?xml version="1.0" encoding="UTF-8" standalone="no"?>
<!DOCTYPE svg PUBLIC "-//W3C//DTD SVG 1.1//EN"
 "http://www.w3.org/Graphics/SVG/1.1/DTD/svg11.dtd">
<!-- Generated by graphviz version 14.1.5 (20260411.2331)
 -->
<!-- Title: Water Pages: 1 -->
<svg width="206pt" height="489pt"
 viewBox="0.00 0.00 206.00 489.00" xmlns="http://www.w3.org/2000/svg" xmlns:xlink="http://www.w3.org/1999/xlink">
<g id="graph0" class="graph" transform="scale(1 1) rotate(0) translate(4 485.15)">
<title>Water</title>
<polygon fill="white" stroke="none" points="-4,4 -4,-485.15 201.76,-485.15 201.76,4 -4,4"/>
<!-- Entry -->
<g id="node1" class="node">
<title>Entry</title>
<ellipse fill="black" stroke="#00688b" cx="125.76" cy="-473.95" rx="7.2" ry="7.2"/>
</g>
<!-- Liquid -->
<g id="node2" class="node">
<title>Liquid</title>
<path fill="azure" stroke="none" d="M155.88,-429.75C155.88,-429.75 95.63,-429.75 95.63,-429.75 89.63,-429.75 83.63,-423.75 83.63,-417.75 83.63,-417.75 83.63,-341 83.63,-341 83.63,-335 89.63,-329 95.63,-329 95.63,-329 155.88,-329 155.88,-329 161.88,-329 167.88,-335 167.88,-341 167.88,-341 167.88,-417.75 167.88,-417.75 167.88,-423.75 161.88,-429.75 155.88,-429.75"/>
<text xml:space="preserve" text-anchor="start" x="106.26" y="-409.45" font-family="Times,serif" font-weight="bold" font-size="14.00">Liquid</text>
<text xml:space="preserve" text-anchor="start" x="91.63" y="-384.25" font-family="Times,serif" font-size="10.00">cool(delta: float)</text>
<text xml:space="preserve" text-anchor="start" x="91.63" y="-373" font-family="Times,serif" font-size="10.00">heat(delta: float)</text>
<text xml:space="preserve" text-anchor="start" x="91.63" y="-361.75" font-family="Times,serif" font-size="10.00">temperature()</text>
<text xml:space="preserve" text-anchor="start" x="91.63" y="-350.5" font-family="Times,serif" font-size="10.00">phase()</text>
<text xml:space="preserve" text-anchor="start" x="112.26" y="-339.25" font-family="Times,serif" font-size="10.00"> &#160;&#160;&#160;&#160;&#160;&#160;&#160;&#160;&#160;&#160;&#160;</text>
<polygon fill="#00688b" stroke="#00688b" points="83.63,-399.25 83.63,-399.25 167.88,-399.25 167.88,-399.25 83.63,-399.25"/>
<path fill="none" stroke="#00688b" d="M95.63,-329C95.63,-329 155.88,-329 155.88,-329 161.88,-329 167.88,-335 167.88,-341 167.88,-341 167.88,-417.75 167.88,-417.75 167.88,-423.75 161.88,-429.75 155.88,-429.75 155.88,-429.75 95.63,-429.75 95.63,-429.75 89.63,-429.75 83.63,-423.75 83.63,-417.75 83.63,-417.75 83.63,-341 83.63,-341 83.63,-335 89.63,-329 95.63,-329"/>
</g>
<!-- Entry&#45;&gt;Liquid -->
<g id="edge1" class="edge">
<title>Entry&#45;&gt;Liquid</title>
<path fill="none" stroke="red" d="M125.76,-466.29C125.76,-460.39 125.76,-451.11 125.76,-440.81"/>
<polygon fill="red" stroke="red" points="129.26,-440.84 125.76,-430.84 122.26,-440.84 129.26,-440.84"/>
</g>
<!-- Supercooled -->
<g id="node3" class="node">
<title>Supercooled</title>
<path fill="azure" stroke="none" d="M103.38,-276.5C103.38,-276.5 40.13,-276.5 40.13,-276.5 34.13,-276.5 28.13,-270.5 28.13,-264.5 28.13,-264.5 28.13,-165.25 28.13,-165.25 28.13,-159.25 34.13,-153.25 40.13,-153.25 40.13,-153.25 103.38,-153.25 103.38,-153.25 109.38,-153.25 115.38,-159.25 115.38,-165.25 115.38,-165.25 115.38,-264.5 115.38,-264.5 115.38,-270.5 109.38,-276.5 103.38,-276.5"/>
<text xml:space="preserve" text-anchor="start" x="36.13" y="-256.2" font-family="Times,serif" font-weight="bold" font-size="14.00">Supercooled</text>
<text xml:space="preserve" text-anchor="start" x="36.13" y="-231" font-family="Times,serif" font-size="10.00">cool(delta: float)</text>
<text xml:space="preserve" text-anchor="start" x="36.13" y="-219.75" font-family="Times,serif" font-size="10.00">heat(delta: float)</text>
<text xml:space="preserve" text-anchor="start" x="36.13" y="-208.5" font-family="Times,serif" font-size="10.00">nucleate()</text>
<text xml:space="preserve" text-anchor="start" x="36.13" y="-197.25" font-family="Times,serif" font-size="10.00">shake()</text>
<text xml:space="preserve" text-anchor="start" x="36.13" y="-186" font-family="Times,serif" font-size="10.00">temperature()</text>
<text xml:space="preserve" text-anchor="start" x="36.13" y="-174.75" font-family="Times,serif" font-size="10.00">phase()</text>
<text xml:space="preserve" text-anchor="start" x="56.76" y="-163.5" font-family="Times,serif" font-size="10.00"> &#160;&#160;&#160;&#160;&#160;&#160;&#160;&#160;&#160;&#160;&#160;</text>
<polygon fill="#00688b" stroke="#00688b" points="28.13,-246 28.13,-246 115.38,-246 115.38,-246 28.13,-246"/>
<path fill="none" stroke="#00688b" d="M40.13,-153.25C40.13,-153.25 103.38,-153.25 103.38,-153.25 109.38,-153.25 115.38,-159.25 115.38,-165.25 115.38,-165.25 115.38,-264.5 115.38,-264.5 115.38,-270.5 109.38,-276.5 103.38,-276.5 103.38,-276.5 40.13,-276.5 40.13,-276.5 34.13,-276.5 28.13,-270.5 28.13,-264.5 28.13,-264.5 28.13,-165.25 28.13,-165.25 28.13,-159.25 34.13,-153.25 40.13,-153.25"/>
</g>
<!-- Liquid&#45;&gt;Supercooled -->
<g id="edge2" class="edge">
<title>Liquid&#45;&gt;Supercooled</title>
<path fill="none" stroke="red" d="M83.79,-332.48C79.42,-325.67 75.62,-318.43 73.01,-311 70.4,-303.59 68.71,-295.65 67.7,-287.63"/>
<polygon fill="red" stroke="red" points="71.2,-287.44 66.83,-277.79 64.23,-288.06 71.2,-287.44"/>
<text xml:space="preserve" text-anchor="middle" x="88.38" y="-297.7" font-family="Times,serif" font-size="14.00"> cool </text>
</g>
<!-- Supercooled&#45;&gt;Liquid -->
<g id="edge4" class="edge">
<title>Supercooled&#45;&gt;Liquid</title>
<path fill="none" stroke="red" d="M97.19,-276.1C99.52,-282.28 101.76,-288.49 103.76,-294.5 106.31,-302.16 108.76,-310.29 111.03,-318.36"/>
<polygon fill="red" stroke="red" points="107.6,-319.09 113.62,-327.81 114.36,-317.24 107.6,-319.09"/>
<text xml:space="preserve" text-anchor="middle" x="123.71" y="-297.7" font-family="Times,serif" font-size="14.00"> heat </text>
</g>
<!-- Ice -->
<g id="node4" class="node">
<title>Ice</title>
<path fill="azure" stroke="none" d="M124.88,-100.75C124.88,-100.75 64.63,-100.75 64.63,-100.75 58.63,-100.75 52.63,-94.75 52.63,-88.75 52.63,-88.75 52.63,-12 52.63,-12 52.63,-6 58.63,0 64.63,0 64.63,0 124.88,0 124.88,0 130.88,0 136.88,-6 136.88,-12 136.88,-12 136.88,-88.75 136.88,-88.75 136.88,-94.75 130.88,-100.75 124.88,-100.75"/>
<text xml:space="preserve" text-anchor="start" x="86.13" y="-80.45" font-family="Times,serif" font-weight="bold" font-size="14.00">Ice</text>
<text xml:space="preserve" text-anchor="start" x="60.63" y="-55.25" font-family="Times,serif" font-size="10.00">heat(delta: float)</text>
<text xml:space="preserve" text-anchor="start" x="60.63" y="-44" font-family="Times,serif" font-size="10.00">cool(delta: float)</text>
<text xml:space="preserve" text-anchor="start" x="60.63" y="-32.75" font-family="Times,serif" font-size="10.00">temperature()</text>
<text xml:space="preserve" text-anchor="start" x="60.63" y="-21.5" font-family="Times,serif" font-size="10.00">phase()</text>
<text xml:space="preserve" text-anchor="start" x="81.26" y="-10.25" font-family="Times,serif" font-size="10.00"> &#160;&#160;&#160;&#160;&#160;&#160;&#160;&#160;&#160;&#160;&#160;</text>
<polygon fill="#00688b" stroke="#00688b" points="52.63,-70.25 52.63,-70.25 136.88,-70.25 136.88,-70.25 52.63,-70.25"/>
<path fill="none" stroke="#00688b" d="M64.63,0C64.63,0 124.88,0 124.88,0 130.88,0 136.88,-6 136.88,-12 136.88,-12 136.88,-88.75 136.88,-88.75 136.88,-94.75 130.88,-100.75 124.88,-100.75 124.88,-100.75 64.63,-100.75 64.63,-100.75 58.63,-100.75 52.63,-94.75 52.63,-88.75 52.63,-88.75 52.63,-12 52.63,-12 52.63,-6 58.63,0 64.63,0"/>
</g>
<!-- Supercooled&#45;&gt;Ice -->
<g id="edge3" class="edge">
<title>Supercooled&#45;&gt;Ice</title>
<path fill="none" stroke="red" d="M28.21,-182.85C8.76,-164.97 -7.47,-141.57 4.01,-118.75 12.55,-101.77 27.63,-87.99 43.07,-77.42"/>
<polygon fill="red" stroke="red" points="44.87,-80.42 51.4,-72.07 41.09,-74.53 44.87,-80.42"/>
<text xml:space="preserve" text-anchor="middle" x="19.38" y="-121.95" font-family="Times,serif" font-size="14.00"> cool </text>
</g>
<!-- Supercooled&#45;&gt;Ice -->
<g id="edge5" class="edge">
<title>Supercooled&#45;&gt;Ice</title>
<path fill="none" stroke="red" d="M56.12,-153.36C55.11,-141.78 55.45,-129.83 58.26,-118.75 58.88,-116.29 59.62,-113.82 60.44,-111.36"/>
<polygon fill="red" stroke="red" points="63.69,-112.65 64.02,-102.06 57.16,-110.13 63.69,-112.65"/>
<text xml:space="preserve" text-anchor="middle" x="84.51" y="-121.95" font-family="Times,serif" font-size="14.00"> nucleate </text>
</g>
<!-- Supercooled&#45;&gt;Ice -->
<g id="edge6" class="edge">
<title>Supercooled&#45;&gt;Ice</title>
<path fill="none" stroke="red" d="M105.06,-153.52C107.36,-147.48 109.33,-141.33 110.76,-135.25 112.55,-127.6 112.92,-119.52 112.37,-111.52"/>
<polygon fill="red" stroke="red" points="115.87,-111.33 111.21,-101.81 108.92,-112.15 115.87,-111.33"/>
<text xml:space="preserve" text-anchor="middle" x="131.72" y="-121.95" font-family="Times,serif" font-size="14.00"> shake </text>
</g>
<!-- Ice&#45;&gt;Liquid -->
<g id="edge7" class="edge">
<title>Ice&#45;&gt;Liquid</title>
<path fill="none" stroke="red" d="M136.67,-89.06C144.06,-97.99 150.69,-108.06 154.76,-118.75 179.59,-183.98 164.09,-264.61 147.77,-318.55"/>
<polygon fill="red" stroke="red" points="144.5,-317.27 144.85,-327.86 151.18,-319.37 144.5,-317.27"/>
<text xml:space="preserve" text-anchor="middle" x="182.76" y="-209.82" font-family="Times,serif" font-size="14.00"> heat </text>
</g>
</g>
</svg>
