<?xml version="1.0" encoding="UTF-8" standalone="no"?>
<!DOCTYPE svg PUBLIC "-//W3C//DTD SVG 1.1//EN"
 "http://www.w3.org/Graphics/SVG/1.1/DTD/svg11.dtd">
<!-- Generated by graphviz version 14.1.5 (20260411.2331)
 -->
<!-- Title: DecayChain Pages: 1 -->
<svg width="63pt" height="649pt"
 viewBox="0.00 0.00 63.00 649.00" xmlns="http://www.w3.org/2000/svg" xmlns:xlink="http://www.w3.org/1999/xlink">
<g id="graph0" class="graph" transform="scale(1 1) rotate(0) translate(4 645.4)">
<title>DecayChain</title>
<polygon fill="white" stroke="none" points="-4,4 -4,-645.4 58.75,-645.4 58.75,4 -4,4"/>
<!-- Entry -->
<g id="node1" class="node">
<title>Entry</title>
<ellipse fill="black" stroke="#00688b" cx="27" cy="-634.2" rx="7.2" ry="7.2"/>
</g>
<!-- U238 -->
<g id="node2" class="node">
<title>U238</title>
<path fill="azure" stroke="none" d="M42,-590C42,-590 12,-590 12,-590 6,-590 0,-584 0,-578 0,-578 0,-523.75 0,-523.75 0,-517.75 6,-511.75 12,-511.75 12,-511.75 42,-511.75 42,-511.75 48,-511.75 54,-517.75 54,-523.75 54,-523.75 54,-578 54,-578 54,-584 48,-590 42,-590"/>
<text xml:space="preserve" text-anchor="start" x="12" y="-569.7" font-family="Times,serif" font-weight="bold" font-size="14.00">U238</text>
<text xml:space="preserve" text-anchor="start" x="8.62" y="-544.5" font-family="Times,serif" font-size="10.00">tick()</text>
<text xml:space="preserve" text-anchor="start" x="8.62" y="-533.25" font-family="Times,serif" font-size="10.00">nuclide()</text>
<text xml:space="preserve" text-anchor="start" x="13.5" y="-522" font-family="Times,serif" font-size="10.00"> &#160;&#160;&#160;&#160;&#160;&#160;&#160;&#160;&#160;&#160;&#160;</text>
<polygon fill="#00688b" stroke="#00688b" points="0.62,-559.5 0.62,-559.5 53.38,-559.5 53.38,-559.5 0.62,-559.5"/>
<path fill="none" stroke="#00688b" d="M12.62,-511.75C12.62,-511.75 41.38,-511.75 41.38,-511.75 47.38,-511.75 53.38,-517.75 53.38,-523.75 53.38,-523.75 53.38,-578 53.38,-578 53.38,-584 47.38,-590 41.38,-590 41.38,-590 12.62,-590 12.62,-590 6.62,-590 0.62,-584 0.62,-578 0.62,-578 0.62,-523.75 0.62,-523.75 0.62,-517.75 6.62,-511.75 12.62,-511.75"/>
</g>
<!-- Entry&#45;&gt;U238 -->
<g id="edge1" class="edge">
<title>Entry&#45;&gt;U238</title>
<path fill="none" stroke="red" d="M27,-626.54C27,-620.53 27,-611.07 27,-600.88"/>
<polygon fill="red" stroke="red" points="30.5,-601.19 27,-591.19 23.5,-601.19 30.5,-601.19"/>
</g>
<!-- Th234 -->
<g id="node3" class="node">
<title>Th234</title>
<path fill="azure" stroke="none" d="M42,-459.25C42,-459.25 12,-459.25 12,-459.25 6,-459.25 0,-453.25 0,-447.25 0,-447.25 0,-393 0,-393 0,-387 6,-381 12,-381 12,-381 42,-381 42,-381 48,-381 54,-387 54,-393 54,-393 54,-447.25 54,-447.25 54,-453.25 48,-459.25 42,-459.25"/>
<text xml:space="preserve" text-anchor="start" x="8.62" y="-438.95" font-family="Times,serif" font-weight="bold" font-size="14.00">Th234</text>
<text xml:space="preserve" text-anchor="start" x="8.62" y="-413.75" font-family="Times,serif" font-size="10.00">tick()</text>
<text xml:space="preserve" text-anchor="start" x="8.62" y="-402.5" font-family="Times,serif" font-size="10.00">nuclide()</text>
<text xml:space="preserve" text-anchor="start" x="13.5" y="-391.25" font-family="Times,serif" font-size="10.00"> &#160;&#160;&#160;&#160;&#160;&#160;&#160;&#160;&#160;&#160;&#160;</text>
<polygon fill="#00688b" stroke="#00688b" points="0.62,-428.75 0.62,-428.75 53.38,-428.75 53.38,-428.75 0.62,-428.75"/>
<path fill="none" stroke="#00688b" d="M12.62,-381C12.62,-381 41.38,-381 41.38,-381 47.38,-381 53.38,-387 53.38,-393 53.38,-393 53.38,-447.25 53.38,-447.25 53.38,-453.25 47.38,-459.25 41.38,-459.25 41.38,-459.25 12.62,-459.25 12.62,-459.25 6.62,-459.25 0.62,-453.25 0.62,-447.25 0.62,-447.25 0.62,-393 0.62,-393 0.62,-387 6.62,-381 12.62,-381"/>
</g>
<!-- U238&#45;&gt;Th234 -->
<g id="edge2" class="edge">
<title>U238&#45;&gt;Th234</title>
<path fill="none" stroke="red" d="M27,-511.94C27,-498.96 27,-484.24 27,-470.49"/>
<polygon fill="red" stroke="red" points="30.5,-470.75 27,-460.75 23.5,-470.75 30.5,-470.75"/>
<text xml:space="preserve" text-anchor="middle" x="40.88" y="-480.45" font-family="Times,serif" font-size="14.00"> tick </text>
</g>
<!-- Pa234 -->
<g id="node4" class="node">
<title>Pa234</title>
<path fill="azure" stroke="none" d="M42,-328.5C42,-328.5 12,-328.5 12,-328.5 6,-328.5 0,-322.5 0,-316.5 0,-316.5 0,-262.25 0,-262.25 0,-256.25 6,-250.25 12,-250.25 12,-250.25 42,-250.25 42,-250.25 48,-250.25 54,-256.25 54,-262.25 54,-262.25 54,-316.5 54,-316.5 54,-322.5 48,-328.5 42,-328.5"/>
<text xml:space="preserve" text-anchor="start" x="9.38" y="-308.2" font-family="Times,serif" font-weight="bold" font-size="14.00">Pa234</text>
<text xml:space="preserve" text-anchor="start" x="8.62" y="-283" font-family="Times,serif" font-size="10.00">tick()</text>
<text xml:space="preserve" text-anchor="start" x="8.62" y="-271.75" font-family="Times,serif" font-size="10.00">nuclide()</text>
<text xml:space="preserve" text-anchor="start" x="13.5" y="-260.5" font-family="Times,serif" font-size="10.00"> &#160;&#160;&#160;&#160;&#160;&#160;&#160;&#160;&#160;&#160;&#160;</text>
<polygon fill="#00688b" stroke="#00688b" points="0.62,-298 0.62,-298 53.38,-298 53.38,-298 0.62,-298"/>
<path fill="none" stroke="#00688b" d="M12.62,-250.25C12.62,-250.25 41.38,-250.25 41.38,-250.25 47.38,-250.25 53.38,-256.25 53.38,-262.25 53.38,-262.25 53.38,-316.5 53.38,-316.5 53.38,-322.5 47.38,-328.5 41.38,-328.5 41.38,-328.5 12.62,-328.5 12.62,-328.5 6.62,-328.5 0.62,-322.5 0.62,-316.5 0.62,-316.5 0.62,-262.25 0.62,-262.25 0.62,-256.25 6.62,-250.25 12.62,-250.25"/>
</g>
<!-- Th234&#45;&gt;Pa234 -->
<g id="edge3" class="edge">
<title>Th234&#45;&gt;Pa234</title>
<path fill="none" stroke="red" d="M27,-381.19C27,-368.21 27,-353.49 27,-339.74"/>
<polygon fill="red" stroke="red" points="30.5,-340 27,-330 23.5,-340 30.5,-340"/>
<text xml:space="preserve" text-anchor="middle" x="40.88" y="-349.7" font-family="Times,serif" font-size="14.00"> tick </text>
</g>
<!-- U234 -->
<g id="node5" class="node">
<title>U234</title>
<path fill="azure" stroke="none" d="M42,-197.75C42,-197.75 12,-197.75 12,-197.75 6,-197.75 0,-191.75 0,-185.75 0,-185.75 0,-131.5 0,-131.5 0,-125.5 6,-119.5 12,-119.5 12,-119.5 42,-119.5 42,-119.5 48,-119.5 54,-125.5 54,-131.5 54,-131.5 54,-185.75 54,-185.75 54,-191.75 48,-197.75 42,-197.75"/>
<text xml:space="preserve" text-anchor="start" x="12" y="-177.45" font-family="Times,serif" font-weight="bold" font-size="14.00">U234</text>
<text xml:space="preserve" text-anchor="start" x="8.62" y="-152.25" font-family="Times,serif" font-size="10.00">tick()</text>
<text xml:space="preserve" text-anchor="start" x="8.62" y="-141" font-family="Times,serif" font-size="10.00">nuclide()</text>
<text xml:space="preserve" text-anchor="start" x="13.5" y="-129.75" font-family="Times,serif" font-size="10.00"> &#160;&#160;&#160;&#160;&#160;&#160;&#160;&#160;&#160;&#160;&#160;</text>
<polygon fill="#00688b" stroke="#00688b" points="0.62,-167.25 0.62,-167.25 53.38,-167.25 53.38,-167.25 0.62,-167.25"/>
<path fill="none" stroke="#00688b" d="M12.62,-119.5C12.62,-119.5 41.38,-119.5 41.38,-119.5 47.38,-119.5 53.38,-125.5 53.38,-131.5 53.38,-131.5 53.38,-185.75 53.38,-185.75 53.38,-191.75 47.38,-197.75 41.38,-197.75 41.38,-197.75 12.62,-197.75 12.62,-197.75 6.62,-197.75 0.62,-191.75 0.62,-185.75 0.62,-185.75 0.62,-131.5 0.62,-131.5 0.62,-125.5 6.62,-119.5 12.62,-119.5"/>
</g>
<!-- Pa234&#45;&gt;U234 -->
<g id="edge4" class="edge">
<title>Pa234&#45;&gt;U234</title>
<path fill="none" stroke="red" d="M27,-250.44C27,-237.46 27,-222.74 27,-208.99"/>
<polygon fill="red" stroke="red" points="30.5,-209.25 27,-199.25 23.5,-209.25 30.5,-209.25"/>
<text xml:space="preserve" text-anchor="middle" x="40.88" y="-218.95" font-family="Times,serif" font-size="14.00"> tick </text>
</g>
<!-- Pb206 -->
<g id="node6" class="node">
<title>Pb206</title>
<path fill="azure" stroke="none" d="M42,-67C42,-67 12,-67 12,-67 6,-67 0,-61 0,-55 0,-55 0,-12 0,-12 0,-6 6,0 12,0 12,0 42,0 42,0 48,0 54,-6 54,-12 54,-12 54,-55 54,-55 54,-61 48,-67 42,-67"/>
<text xml:space="preserve" text-anchor="start" x="9" y="-46.7" font-family="Times,serif" font-weight="bold" font-size="14.00">Pb206</text>
<text xml:space="preserve" text-anchor="start" x="8.62" y="-21.5" font-family="Times,serif" font-size="10.00">nuclide()</text>
<text xml:space="preserve" text-anchor="start" x="13.5" y="-10.25" font-family="Times,serif" font-size="10.00"> &#160;&#160;&#160;&#160;&#160;&#160;&#160;&#160;&#160;&#160;&#160;</text>
<polygon fill="#00688b" stroke="#00688b" points="0.62,-36.5 0.62,-36.5 53.38,-36.5 53.38,-36.5 0.62,-36.5"/>
<path fill="none" stroke="#00688b" d="M12.62,0C12.62,0 41.38,0 41.38,0 47.38,0 53.38,-6 53.38,-12 53.38,-12 53.38,-55 53.38,-55 53.38,-61 47.38,-67 41.38,-67 41.38,-67 12.62,-67 12.62,-67 6.62,-67 0.62,-61 0.62,-55 0.62,-55 0.62,-12 0.62,-12 0.62,-6 6.62,0 12.62,0"/>
</g>
<!-- U234&#45;&gt;Pb206 -->
<g id="edge5" class="edge">
<title>U234&#45;&gt;Pb206</title>
<path fill="none" stroke="red" d="M27,-119.68C27,-106.56 27,-91.76 27,-78.22"/>
<polygon fill="red" stroke="red" points="30.5,-78.23 27,-68.23 23.5,-78.23 30.5,-78.23"/>
<text xml:space="preserve" text-anchor="middle" x="40.88" y="-88.2" font-family="Times,serif" font-size="14.00"> tick </text>
</g>
</g>
</svg>
