<?xml version="1.0" encoding="UTF-8" standalone="no"?>
<!DOCTYPE svg PUBLIC "-//W3C//DTD SVG 1.1//EN"
 "http://www.w3.org/Graphics/SVG/1.1/DTD/svg11.dtd">
<!-- Generated by graphviz version 14.1.5 (20260411.2331)
 -->
<!-- Title: CellCycle Pages: 1 -->
<svg width="708pt" height="627pt"
 viewBox="0.00 0.00 708.00 627.00" xmlns="http://www.w3.org/2000/svg" xmlns:xlink="http://www.w3.org/1999/xlink">
<g id="graph0" class="graph" transform="scale(1 1) rotate(0) translate(4 623.4)">
<title>CellCycle</title>
<polygon fill="white" stroke="none" points="-4,4 -4,-623.4 704.01,-623.4 704.01,4 -4,4"/>
<g id="clust1" class="cluster">
<title>cluster_Cycling</title>
<path fill="none" stroke="black" d="M20,-8C20,-8 114,-8 114,-8 120,-8 126,-14 126,-20 126,-20 126,-566 126,-566 126,-572 120,-578 114,-578 114,-578 20,-578 20,-578 14,-578 8,-572 8,-566 8,-566 8,-20 8,-20 8,-14 14,-8 20,-8"/>
<text xml:space="preserve" text-anchor="start" x="45.62" y="-557.25" font-family="Times,serif" font-size="14.00">Cycling</text>
<polygon fill="black" stroke="black" points="41.62,-550.5 41.62,-550.5 92.38,-550.5 92.38,-550.5 41.62,-550.5"/>
</g>
<!-- Entry -->
<g id="node1" class="node">
<title>Entry</title>
<ellipse fill="black" stroke="#00688b" cx="118" cy="-612.2" rx="7.2" ry="7.2"/>
</g>
<!-- Cycling -->
<g id="node2" class="node">
<title>Cycling</title>
<ellipse fill="azure" stroke="#00688b" cx="118" cy="-486.75" rx="0.36" ry="0.36"/>
</g>
<!-- Entry&#45;&gt;Cycling -->
<g id="edge1" class="edge">
<title>Entry&#45;&gt;Cycling</title>
<path fill="none" stroke="red" d="M118,-604.56C118,-584.55 118,-524.6 118,-499.26"/>
<polygon fill="red" stroke="red" points="121.5,-499.33 118,-489.33 114.5,-499.33 121.5,-499.33"/>
</g>
<!-- G1_Arrested -->
<g id="node7" class="node">
<title>G1_Arrested</title>
<path fill="azure" stroke="none" d="M394.88,-389.5C394.88,-389.5 327.12,-389.5 327.12,-389.5 321.12,-389.5 315.12,-383.5 315.12,-377.5 315.12,-377.5 315.12,-312 315.12,-312 315.12,-306 321.12,-300 327.12,-300 327.12,-300 394.88,-300 394.88,-300 400.88,-300 406.88,-306 406.88,-312 406.88,-312 406.88,-377.5 406.88,-377.5 406.88,-383.5 400.88,-389.5 394.88,-389.5"/>
<text xml:space="preserve" text-anchor="start" x="323.12" y="-369.2" font-family="Times,serif" font-weight="bold" font-size="14.00">G1_Arrested</text>
<text xml:space="preserve" text-anchor="start" x="323.12" y="-344" font-family="Times,serif" font-size="10.00">damage_repaired()</text>
<text xml:space="preserve" text-anchor="start" x="323.12" y="-332.75" font-family="Times,serif" font-size="10.00">apoptosis_signal()</text>
<text xml:space="preserve" text-anchor="start" x="323.12" y="-321.5" font-family="Times,serif" font-size="10.00">phase()</text>
<text xml:space="preserve" text-anchor="start" x="347.5" y="-310.25" font-family="Times,serif" font-size="10.00"> &#160;&#160;&#160;&#160;&#160;&#160;&#160;&#160;&#160;&#160;&#160;</text>
<polygon fill="#00688b" stroke="#00688b" points="315.12,-359 315.12,-359 406.88,-359 406.88,-359 315.12,-359"/>
<path fill="none" stroke="#00688b" d="M327.12,-300C327.12,-300 394.88,-300 394.88,-300 400.88,-300 406.88,-306 406.88,-312 406.88,-312 406.88,-377.5 406.88,-377.5 406.88,-383.5 400.88,-389.5 394.88,-389.5 394.88,-389.5 327.12,-389.5 327.12,-389.5 321.12,-389.5 315.12,-383.5 315.12,-377.5 315.12,-377.5 315.12,-312 315.12,-312 315.12,-306 321.12,-300 327.12,-300"/>
</g>
<!-- Cycling&#45;&gt;G1_Arrested -->
<g id="edge2" class="edge">
<title>Cycling&#45;&gt;G1_Arrested</title>
<path fill="none" stroke="red" d="M126,-486.1C157.84,-487.02 276.84,-486.05 339,-424 345.6,-417.41 350.26,-409 353.54,-400.16"/>
<polygon fill="red" stroke="red" points="356.86,-401.28 356.45,-390.69 350.17,-399.22 356.86,-401.28"/>
<text xml:space="preserve" text-anchor="middle" x="414.29" y="-410.7" font-family="Times,serif" font-size="14.00"> dna_damage_detected </text>
</g>
<!-- G0_Quiescent -->
<g id="node9" class="node">
<title>G0_Quiescent</title>
<path fill="azure" stroke="none" d="M530.25,-383.88C530.25,-383.88 455.75,-383.88 455.75,-383.88 449.75,-383.88 443.75,-377.88 443.75,-371.88 443.75,-371.88 443.75,-317.62 443.75,-317.62 443.75,-311.62 449.75,-305.62 455.75,-305.62 455.75,-305.62 530.25,-305.62 530.25,-305.62 536.25,-305.62 542.25,-311.62 542.25,-317.62 542.25,-317.62 542.25,-371.88 542.25,-371.88 542.25,-377.88 536.25,-383.88 530.25,-383.88"/>
<text xml:space="preserve" text-anchor="start" x="451.75" y="-363.57" font-family="Times,serif" font-weight="bold" font-size="14.00">G0_Quiescent</text>
<text xml:space="preserve" text-anchor="start" x="451.75" y="-338.38" font-family="Times,serif" font-size="10.00">nutrients_restored()</text>
<text xml:space="preserve" text-anchor="start" x="451.75" y="-327.12" font-family="Times,serif" font-size="10.00">phase()</text>
<text xml:space="preserve" text-anchor="start" x="478" y="-315.88" font-family="Times,serif" font-size="10.00"> &#160;&#160;&#160;&#160;&#160;&#160;&#160;&#160;&#160;&#160;&#160;</text>
<polygon fill="#00688b" stroke="#00688b" points="443.75,-353.38 443.75,-353.38 542.25,-353.38 542.25,-353.38 443.75,-353.38"/>
<path fill="none" stroke="#00688b" d="M455.75,-305.62C455.75,-305.62 530.25,-305.62 530.25,-305.62 536.25,-305.62 542.25,-311.62 542.25,-317.62 542.25,-317.62 542.25,-371.88 542.25,-371.88 542.25,-377.88 536.25,-383.88 530.25,-383.88 530.25,-383.88 455.75,-383.88 455.75,-383.88 449.75,-383.88 443.75,-377.88 443.75,-371.88 443.75,-371.88 443.75,-317.62 443.75,-317.62 443.75,-311.62 449.75,-305.62 455.75,-305.62"/>
</g>
<!-- Cycling&#45;&gt;G0_Quiescent -->
<g id="edge3" class="edge">
<title>Cycling&#45;&gt;G0_Quiescent</title>
<path fill="none" stroke="red" d="M126,-485.62C174.63,-484.67 430.31,-477.18 482,-424 489.59,-416.19 493.53,-405.69 495.36,-394.93"/>
<polygon fill="red" stroke="red" points="498.81,-395.54 496.4,-385.22 491.85,-394.8 498.81,-395.54"/>
<text xml:space="preserve" text-anchor="middle" x="532.7" y="-410.7" font-family="Times,serif" font-size="14.00"> nutrients_low </text>
</g>
<!-- Apoptotic -->
<g id="node10" class="node">
<title>Apoptotic</title>
<path fill="azure" stroke="none" d="M502.5,-94.25C502.5,-94.25 453.5,-94.25 453.5,-94.25 447.5,-94.25 441.5,-88.25 441.5,-82.25 441.5,-82.25 441.5,-39.25 441.5,-39.25 441.5,-33.25 447.5,-27.25 453.5,-27.25 453.5,-27.25 502.5,-27.25 502.5,-27.25 508.5,-27.25 514.5,-33.25 514.5,-39.25 514.5,-39.25 514.5,-82.25 514.5,-82.25 514.5,-88.25 508.5,-94.25 502.5,-94.25"/>
<text xml:space="preserve" text-anchor="start" x="449.5" y="-73.95" font-family="Times,serif" font-weight="bold" font-size="14.00">Apoptotic</text>
<text xml:space="preserve" text-anchor="start" x="449.5" y="-48.75" font-family="Times,serif" font-size="10.00">phase()</text>
<text xml:space="preserve" text-anchor="start" x="450.62" y="-37.5" font-family="Times,serif" font-size="10.00"> &#160;&#160;&#160;&#160;&#160;&#160;&#160;&#160;&#160;&#160;&#160;</text>
<polygon fill="#00688b" stroke="#00688b" points="441.5,-63.75 441.5,-63.75 514.5,-63.75 514.5,-63.75 441.5,-63.75"/>
<path fill="none" stroke="#00688b" d="M453.5,-27.25C453.5,-27.25 502.5,-27.25 502.5,-27.25 508.5,-27.25 514.5,-33.25 514.5,-39.25 514.5,-39.25 514.5,-82.25 514.5,-82.25 514.5,-88.25 508.5,-94.25 502.5,-94.25 502.5,-94.25 453.5,-94.25 453.5,-94.25 447.5,-94.25 441.5,-88.25 441.5,-82.25 441.5,-82.25 441.5,-39.25 441.5,-39.25 441.5,-33.25 447.5,-27.25 453.5,-27.25"/>
</g>
<!-- Cycling&#45;&gt;Apoptotic -->
<g id="edge4" class="edge">
<title>Cycling&#45;&gt;Apoptotic</title>
<path fill="none" stroke="red" d="M126,-485.3C184.64,-481.92 546.81,-459.66 578,-424 586,-414.85 673.9,-439.29 559,-158 550.56,-137.34 535.95,-117.84 521.45,-101.86"/>
<polygon fill="red" stroke="red" points="524.34,-99.83 514.94,-94.94 519.24,-104.62 524.34,-99.83"/>
<text xml:space="preserve" text-anchor="middle" x="651.26" y="-268.7" font-family="Times,serif" font-size="14.00"> apoptosis_signal </text>
</g>
<!-- G1 -->
<g id="node3" class="node">
<title>G1</title>
<path fill="azure" stroke="none" d="M80,-531.5C80,-531.5 50,-531.5 50,-531.5 44,-531.5 38,-525.5 38,-519.5 38,-519.5 38,-454 38,-454 38,-448 44,-442 50,-442 50,-442 80,-442 80,-442 86,-442 92,-448 92,-454 92,-454 92,-519.5 92,-519.5 92,-525.5 86,-531.5 80,-531.5"/>
<text xml:space="preserve" text-anchor="start" x="56" y="-511.2" font-family="Times,serif" font-weight="bold" font-size="14.00">G1</text>
<text xml:space="preserve" text-anchor="start" x="47" y="-486" font-family="Times,serif" font-size="10.00">$&gt;()</text>
<text xml:space="preserve" text-anchor="start" x="47" y="-474.75" font-family="Times,serif" font-size="10.00">tick()</text>
<text xml:space="preserve" text-anchor="start" x="47" y="-463.5" font-family="Times,serif" font-size="10.00">phase()</text>
<text xml:space="preserve" text-anchor="start" x="47" y="-452.25" font-family="Times,serif" font-size="10.00"> &#160;&#160;&#160;&#160;&#160;&#160;&#160;&#160;&#160;&#160;&#160;&#160;&#160;&#160;&#160;</text>
<polygon fill="#00688b" stroke="#00688b" points="39,-501 39,-501 91,-501 91,-501 39,-501"/>
<path fill="none" stroke="#00688b" d="M51,-442C51,-442 79,-442 79,-442 85,-442 91,-448 91,-454 91,-454 91,-519.5 91,-519.5 91,-525.5 85,-531.5 79,-531.5 79,-531.5 51,-531.5 51,-531.5 45,-531.5 39,-525.5 39,-519.5 39,-519.5 39,-454 39,-454 39,-448 45,-442 51,-442"/>
</g>
<!-- S -->
<g id="node4" class="node">
<title>S</title>
<path fill="azure" stroke="none" d="M97,-389.5C97,-389.5 67,-389.5 67,-389.5 61,-389.5 55,-383.5 55,-377.5 55,-377.5 55,-312 55,-312 55,-306 61,-300 67,-300 67,-300 97,-300 97,-300 103,-300 109,-306 109,-312 109,-312 109,-377.5 109,-377.5 109,-383.5 103,-389.5 97,-389.5"/>
<text xml:space="preserve" text-anchor="start" x="78.25" y="-369.2" font-family="Times,serif" font-weight="bold" font-size="14.00">S</text>
<text xml:space="preserve" text-anchor="start" x="64" y="-344" font-family="Times,serif" font-size="10.00">$&gt;()</text>
<text xml:space="preserve" text-anchor="start" x="64" y="-332.75" font-family="Times,serif" font-size="10.00">tick()</text>
<text xml:space="preserve" text-anchor="start" x="64" y="-321.5" font-family="Times,serif" font-size="10.00">phase()</text>
<text xml:space="preserve" text-anchor="start" x="64" y="-310.25" font-family="Times,serif" font-size="10.00"> &#160;&#160;&#160;&#160;&#160;&#160;&#160;&#160;&#160;&#160;&#160;&#160;&#160;&#160;&#160;</text>
<polygon fill="#00688b" stroke="#00688b" points="56,-359 56,-359 108,-359 108,-359 56,-359"/>
<path fill="none" stroke="#00688b" d="M68,-300C68,-300 96,-300 96,-300 102,-300 108,-306 108,-312 108,-312 108,-377.5 108,-377.5 108,-383.5 102,-389.5 96,-389.5 96,-389.5 68,-389.5 68,-389.5 62,-389.5 56,-383.5 56,-377.5 56,-377.5 56,-312 56,-312 56,-306 62,-300 68,-300"/>
</g>
<!-- G1&#45;&gt;S -->
<g id="edge5" class="edge">
<title>G1&#45;&gt;S</title>
<path fill="none" stroke="red" d="M57.95,-442.09C57.17,-430.77 57.26,-418.63 59.25,-407.5 59.67,-405.17 60.16,-402.82 60.72,-400.45"/>
<polygon fill="red" stroke="red" points="64.08,-401.44 63.37,-390.87 57.34,-399.58 64.08,-401.44"/>
<text xml:space="preserve" text-anchor="middle" x="73.12" y="-410.7" font-family="Times,serif" font-size="14.00"> tick </text>
</g>
<!-- G2 -->
<g id="node5" class="node">
<title>G2</title>
<path fill="azure" stroke="none" d="M97,-241.88C97,-241.88 67,-241.88 67,-241.88 61,-241.88 55,-235.88 55,-229.88 55,-229.88 55,-175.62 55,-175.62 55,-169.62 61,-163.62 67,-163.62 67,-163.62 97,-163.62 97,-163.62 103,-163.62 109,-169.62 109,-175.62 109,-175.62 109,-229.88 109,-229.88 109,-235.88 103,-241.88 97,-241.88"/>
<text xml:space="preserve" text-anchor="start" x="73" y="-221.57" font-family="Times,serif" font-weight="bold" font-size="14.00">G2</text>
<text xml:space="preserve" text-anchor="start" x="64" y="-196.38" font-family="Times,serif" font-size="10.00">tick()</text>
<text xml:space="preserve" text-anchor="start" x="64" y="-185.12" font-family="Times,serif" font-size="10.00">phase()</text>
<text xml:space="preserve" text-anchor="start" x="64" y="-173.88" font-family="Times,serif" font-size="10.00"> &#160;&#160;&#160;&#160;&#160;&#160;&#160;&#160;&#160;&#160;&#160;&#160;&#160;&#160;&#160;</text>
<polygon fill="#00688b" stroke="#00688b" points="56,-211.38 56,-211.38 108,-211.38 108,-211.38 56,-211.38"/>
<path fill="none" stroke="#00688b" d="M68,-163.62C68,-163.62 96,-163.62 96,-163.62 102,-163.62 108,-169.62 108,-175.62 108,-175.62 108,-229.88 108,-229.88 108,-235.88 102,-241.88 96,-241.88 96,-241.88 68,-241.88 68,-241.88 62,-241.88 56,-235.88 56,-229.88 56,-229.88 56,-175.62 56,-175.62 56,-169.62 62,-163.62 68,-163.62"/>
</g>
<!-- S&#45;&gt;G2 -->
<g id="edge6" class="edge">
<title>S&#45;&gt;G2</title>
<path fill="none" stroke="red" d="M82,-300.22C82,-285.25 82,-268.39 82,-253"/>
<polygon fill="red" stroke="red" points="85.5,-253.09 82,-243.09 78.5,-253.09 85.5,-253.09"/>
<text xml:space="preserve" text-anchor="middle" x="95.88" y="-268.7" font-family="Times,serif" font-size="14.00"> tick </text>
</g>
<!-- M -->
<g id="node6" class="node">
<title>M</title>
<path fill="azure" stroke="none" d="M106.12,-105.5C106.12,-105.5 27.88,-105.5 27.88,-105.5 21.88,-105.5 15.88,-99.5 15.88,-93.5 15.88,-93.5 15.88,-28 15.88,-28 15.88,-22 21.88,-16 27.88,-16 27.88,-16 106.12,-16 106.12,-16 112.12,-16 118.12,-22 118.12,-28 118.12,-28 118.12,-93.5 118.12,-93.5 118.12,-99.5 112.12,-105.5 106.12,-105.5"/>
<text xml:space="preserve" text-anchor="start" x="60.25" y="-85.2" font-family="Times,serif" font-weight="bold" font-size="14.00">M</text>
<text xml:space="preserve" text-anchor="start" x="23.88" y="-60" font-family="Times,serif" font-size="10.00">tick()</text>
<text xml:space="preserve" text-anchor="start" x="23.88" y="-48.75" font-family="Times,serif" font-size="10.00">spindle_misaligned()</text>
<text xml:space="preserve" text-anchor="start" x="23.88" y="-37.5" font-family="Times,serif" font-size="10.00">phase()</text>
<text xml:space="preserve" text-anchor="start" x="49" y="-26.25" font-family="Times,serif" font-size="10.00"> &#160;&#160;&#160;&#160;&#160;&#160;&#160;&#160;&#160;&#160;&#160;&#160;&#160;&#160;&#160;</text>
<polygon fill="#00688b" stroke="#00688b" points="15.88,-75 15.88,-75 118.12,-75 118.12,-75 15.88,-75"/>
<path fill="none" stroke="#00688b" d="M27.88,-16C27.88,-16 106.12,-16 106.12,-16 112.12,-16 118.12,-22 118.12,-28 118.12,-28 118.12,-93.5 118.12,-93.5 118.12,-99.5 112.12,-105.5 106.12,-105.5 106.12,-105.5 27.88,-105.5 27.88,-105.5 21.88,-105.5 15.88,-99.5 15.88,-93.5 15.88,-93.5 15.88,-28 15.88,-28 15.88,-22 21.88,-16 27.88,-16"/>
</g>
<!-- G2&#45;&gt;M -->
<g id="edge7" class="edge">
<title>G2&#45;&gt;M</title>
<path fill="none" stroke="red" d="M68.61,-163.94C66.38,-156.12 64.42,-147.87 63.25,-140 62.14,-132.5 61.69,-124.55 61.66,-116.71"/>
<polygon fill="red" stroke="red" points="65.16,-116.95 61.87,-106.87 58.16,-116.79 65.16,-116.95"/>
<text xml:space="preserve" text-anchor="middle" x="77.12" y="-126.7" font-family="Times,serif" font-size="14.00"> tick </text>
</g>
<!-- M&#45;&gt;G1 -->
<g id="edge8" class="edge">
<title>M&#45;&gt;G1</title>
<path fill="none" stroke="red" d="M55.49,-105.03C51.66,-121.48 47.89,-140.49 46,-158 34.97,-260.3 35.99,-287.1 46,-389.5 47.33,-403.14 49.71,-417.72 52.33,-431.29"/>
<polygon fill="red" stroke="red" points="48.87,-431.82 54.28,-440.93 55.73,-430.44 48.87,-431.82"/>
<text xml:space="preserve" text-anchor="middle" x="52.06" y="-268.7" font-family="Times,serif" font-size="14.00"> tick </text>
</g>
<!-- M_Arrested -->
<g id="node8" class="node">
<title>M_Arrested</title>
<path fill="azure" stroke="none" d="M262.5,-247.5C262.5,-247.5 195.5,-247.5 195.5,-247.5 189.5,-247.5 183.5,-241.5 183.5,-235.5 183.5,-235.5 183.5,-170 183.5,-170 183.5,-164 189.5,-158 195.5,-158 195.5,-158 262.5,-158 262.5,-158 268.5,-158 274.5,-164 274.5,-170 274.5,-170 274.5,-235.5 274.5,-235.5 274.5,-241.5 268.5,-247.5 262.5,-247.5"/>
<text xml:space="preserve" text-anchor="start" x="193.38" y="-227.2" font-family="Times,serif" font-weight="bold" font-size="14.00">M_Arrested</text>
<text xml:space="preserve" text-anchor="start" x="191.5" y="-202" font-family="Times,serif" font-size="10.00">spindle_aligned()</text>
<text xml:space="preserve" text-anchor="start" x="191.5" y="-190.75" font-family="Times,serif" font-size="10.00">apoptosis_signal()</text>
<text xml:space="preserve" text-anchor="start" x="191.5" y="-179.5" font-family="Times,serif" font-size="10.00">phase()</text>
<text xml:space="preserve" text-anchor="start" x="215.5" y="-168.25" font-family="Times,serif" font-size="10.00"> &#160;&#160;&#160;&#160;&#160;&#160;&#160;&#160;&#160;&#160;&#160;</text>
<polygon fill="#00688b" stroke="#00688b" points="183.5,-217 183.5,-217 274.5,-217 274.5,-217 183.5,-217"/>
<path fill="none" stroke="#00688b" d="M195.5,-158C195.5,-158 262.5,-158 262.5,-158 268.5,-158 274.5,-164 274.5,-170 274.5,-170 274.5,-235.5 274.5,-235.5 274.5,-241.5 268.5,-247.5 262.5,-247.5 262.5,-247.5 195.5,-247.5 195.5,-247.5 189.5,-247.5 183.5,-241.5 183.5,-235.5 183.5,-235.5 183.5,-170 183.5,-170 183.5,-164 189.5,-158 195.5,-158"/>
</g>
<!-- M&#45;&gt;M_Arrested -->
<g id="edge9" class="edge">
<title>M&#45;&gt;M_Arrested</title>
<path fill="none" stroke="red" d="M117.88,-72.64C147.79,-81.54 184.1,-97.12 207,-123.5 212.92,-130.32 217.25,-138.62 220.42,-147.23"/>
<polygon fill="red" stroke="red" points="217.08,-148.27 223.4,-156.78 223.76,-146.19 217.08,-148.27"/>
<text xml:space="preserve" text-anchor="middle" x="273.15" y="-126.7" font-family="Times,serif" font-size="14.00"> spindle_misaligned </text>
</g>
<!-- G1_Arrested&#45;&gt;G1 -->
<g id="edge10" class="edge">
<title>G1_Arrested&#45;&gt;G1</title>
<path fill="none" stroke="red" d="M315.15,-346.43C260.97,-349.45 170.54,-361.66 109.75,-407.5 101.03,-414.07 93.74,-422.88 87.75,-432.2"/>
<polygon fill="red" stroke="red" points="84.78,-430.34 82.74,-440.74 90.82,-433.89 84.78,-430.34"/>
<text xml:space="preserve" text-anchor="middle" x="160.38" y="-410.7" font-family="Times,serif" font-size="14.00"> damage_repaired </text>
</g>
<!-- G1_Arrested&#45;&gt;Apoptotic -->
<g id="edge11" class="edge">
<title>G1_Arrested&#45;&gt;Apoptotic</title>
<path fill="none" stroke="red" d="M387.81,-300.06C411.31,-259.87 444.65,-197.89 464,-140 467.71,-128.91 470.49,-116.58 472.56,-105.06"/>
<polygon fill="red" stroke="red" points="475.99,-105.8 474.16,-95.37 469.08,-104.67 475.99,-105.8"/>
<text xml:space="preserve" text-anchor="middle" x="505.83" y="-197.7" font-family="Times,serif" font-size="14.00"> apoptosis_signal </text>
</g>
<!-- M_Arrested&#45;&gt;M -->
<g id="edge12" class="edge">
<title>M_Arrested&#45;&gt;M</title>
<path fill="none" stroke="red" d="M183.76,-185.76C159.68,-175.53 130.82,-160.33 110,-140 102.67,-132.84 96.26,-124.16 90.78,-115.23"/>
<polygon fill="red" stroke="red" points="93.96,-113.74 85.95,-106.8 87.89,-117.22 93.96,-113.74"/>
<text xml:space="preserve" text-anchor="middle" x="156.5" y="-126.7" font-family="Times,serif" font-size="14.00"> spindle_aligned </text>
</g>
<!-- M_Arrested&#45;&gt;Apoptotic -->
<g id="edge13" class="edge">
<title>M_Arrested&#45;&gt;Apoptotic</title>
<path fill="none" stroke="red" d="M274.45,-175.71C301.2,-160.43 335.72,-140.78 366.5,-123.5 387.88,-111.5 411.63,-98.32 431.7,-87.23"/>
<polygon fill="red" stroke="red" points="433.15,-90.43 440.21,-82.54 429.76,-84.31 433.15,-90.43"/>
<text xml:space="preserve" text-anchor="middle" x="415.25" y="-126.7" font-family="Times,serif" font-size="14.00"> apoptosis_signal </text>
</g>
<!-- G0_Quiescent&#45;&gt;G1 -->
<g id="edge14" class="edge">
<title>G0_Quiescent&#45;&gt;G1</title>
<path fill="none" stroke="red" d="M443.86,-377.65C434.88,-382.31 425.38,-386.53 416,-389.5 336.82,-414.57 306.31,-374.72 230,-407.5 219.72,-411.91 221.1,-419.19 211,-424 169.45,-443.81 149.86,-420.8 109,-442 106.13,-443.49 103.33,-445.23 100.62,-447.14"/>
<polygon fill="red" stroke="red" points="98.61,-444.27 92.98,-453.25 102.98,-449.74 98.61,-444.27"/>
<text xml:space="preserve" text-anchor="middle" x="282.5" y="-410.7" font-family="Times,serif" font-size="14.00"> nutrients_restored </text>
</g>
</g>
</svg>
