<?xml version="1.0" encoding="UTF-8" standalone="no"?>
<!DOCTYPE svg PUBLIC "-//W3C//DTD SVG 1.1//EN"
 "http://www.w3.org/Graphics/SVG/1.1/DTD/svg11.dtd">
<!-- Generated by graphviz version 14.1.5 (20260411.2331)
 -->
<!-- Title: EnzymeMolecule Pages: 1 -->
<svg width="118pt" height="268pt"
 viewBox="0.00 0.00 118.00 268.00" xmlns="http://www.w3.org/2000/svg" xmlns:xlink="http://www.w3.org/1999/xlink">
<g id="graph0" class="graph" transform="scale(1 1) rotate(0) translate(4 264.4)">
<title>EnzymeMolecule</title>
<polygon fill="white" stroke="none" points="-4,4 -4,-264.4 113.74,-264.4 113.74,4 -4,4"/>
<!-- Entry -->
<g id="node1" class="node">
<title>Entry</title>
<ellipse fill="black" stroke="#00688b" cx="51.81" cy="-253.2" rx="7.2" ry="7.2"/>
</g>
<!-- Free -->
<g id="node2" class="node">
<title>Free</title>
<path fill="azure" stroke="none" d="M73.69,-209C73.69,-209 29.94,-209 29.94,-209 23.94,-209 17.94,-203 17.94,-197 17.94,-197 17.94,-142.75 17.94,-142.75 17.94,-136.75 23.94,-130.75 29.94,-130.75 29.94,-130.75 73.69,-130.75 73.69,-130.75 79.69,-130.75 85.69,-136.75 85.69,-142.75 85.69,-142.75 85.69,-197 85.69,-197 85.69,-203 79.69,-209 73.69,-209"/>
<text xml:space="preserve" text-anchor="start" x="38.69" y="-188.7" font-family="Times,serif" font-weight="bold" font-size="14.00">Free</text>
<text xml:space="preserve" text-anchor="start" x="25.94" y="-163.5" font-family="Times,serif" font-size="10.00">tick()</text>
<text xml:space="preserve" text-anchor="start" x="25.94" y="-152.25" font-family="Times,serif" font-size="10.00">state_name()</text>
<text xml:space="preserve" text-anchor="start" x="38.31" y="-141" font-family="Times,serif" font-size="10.00"> &#160;&#160;&#160;&#160;&#160;&#160;&#160;&#160;&#160;&#160;&#160;</text>
<polygon fill="#00688b" stroke="#00688b" points="17.94,-178.5 17.94,-178.5 85.69,-178.5 85.69,-178.5 17.94,-178.5"/>
<path fill="none" stroke="#00688b" d="M29.94,-130.75C29.94,-130.75 73.69,-130.75 73.69,-130.75 79.69,-130.75 85.69,-136.75 85.69,-142.75 85.69,-142.75 85.69,-197 85.69,-197 85.69,-203 79.69,-209 73.69,-209 73.69,-209 29.94,-209 29.94,-209 23.94,-209 17.94,-203 17.94,-197 17.94,-197 17.94,-142.75 17.94,-142.75 17.94,-136.75 23.94,-130.75 29.94,-130.75"/>
</g>
<!-- Entry&#45;&gt;Free -->
<g id="edge1" class="edge">
<title>Entry&#45;&gt;Free</title>
<path fill="none" stroke="red" d="M51.81,-245.54C51.81,-239.53 51.81,-230.07 51.81,-219.88"/>
<polygon fill="red" stroke="red" points="55.31,-220.19 51.81,-210.19 48.31,-220.19 55.31,-220.19"/>
</g>
<!-- Bound -->
<g id="node3" class="node">
<title>Bound</title>
<path fill="azure" stroke="none" d="M73.69,-78.25C73.69,-78.25 29.94,-78.25 29.94,-78.25 23.94,-78.25 17.94,-72.25 17.94,-66.25 17.94,-66.25 17.94,-12 17.94,-12 17.94,-6 23.94,0 29.94,0 29.94,0 73.69,0 73.69,0 79.69,0 85.69,-6 85.69,-12 85.69,-12 85.69,-66.25 85.69,-66.25 85.69,-72.25 79.69,-78.25 73.69,-78.25"/>
<text xml:space="preserve" text-anchor="start" x="32.69" y="-57.95" font-family="Times,serif" font-weight="bold" font-size="14.00">Bound</text>
<text xml:space="preserve" text-anchor="start" x="25.94" y="-32.75" font-family="Times,serif" font-size="10.00">tick()</text>
<text xml:space="preserve" text-anchor="start" x="25.94" y="-21.5" font-family="Times,serif" font-size="10.00">state_name()</text>
<text xml:space="preserve" text-anchor="start" x="38.31" y="-10.25" font-family="Times,serif" font-size="10.00"> &#160;&#160;&#160;&#160;&#160;&#160;&#160;&#160;&#160;&#160;&#160;</text>
<polygon fill="#00688b" stroke="#00688b" points="17.94,-47.75 17.94,-47.75 85.69,-47.75 85.69,-47.75 17.94,-47.75"/>
<path fill="none" stroke="#00688b" d="M29.94,0C29.94,0 73.69,0 73.69,0 79.69,0 85.69,-6 85.69,-12 85.69,-12 85.69,-66.25 85.69,-66.25 85.69,-72.25 79.69,-78.25 73.69,-78.25 73.69,-78.25 29.94,-78.25 29.94,-78.25 23.94,-78.25 17.94,-72.25 17.94,-66.25 17.94,-66.25 17.94,-12 17.94,-12 17.94,-6 23.94,0 29.94,0"/>
</g>
<!-- Free&#45;&gt;Bound -->
<g id="edge2" class="edge">
<title>Free&#45;&gt;Bound</title>
<path fill="none" stroke="red" d="M18.07,-138.68C11.54,-130.94 5.62,-122.12 2.06,-112.75 -2.94,-99.56 2.13,-86.44 10.67,-75.05"/>
<polygon fill="red" stroke="red" points="13.31,-77.35 17.14,-67.47 7.99,-72.8 13.31,-77.35"/>
<text xml:space="preserve" text-anchor="middle" x="15.94" y="-99.45" font-family="Times,serif" font-size="14.00"> tick </text>
</g>
<!-- Bound&#45;&gt;Free -->
<g id="edge3" class="edge">
<title>Bound&#45;&gt;Free</title>
<path fill="none" stroke="red" d="M51.81,-78.23C51.81,-91.23 51.81,-105.95 51.81,-119.69"/>
<polygon fill="red" stroke="red" points="48.31,-119.43 51.81,-129.43 55.31,-119.43 48.31,-119.43"/>
<text xml:space="preserve" text-anchor="middle" x="65.69" y="-99.45" font-family="Times,serif" font-size="14.00"> tick </text>
</g>
<!-- Bound&#45;&gt;Free -->
<g id="edge4" class="edge">
<title>Bound&#45;&gt;Free</title>
<path fill="none" stroke="red" d="M76.53,-77.91C81.09,-88.93 83.63,-101.14 80.81,-112.75 80.21,-115.22 79.48,-117.7 78.65,-120.17"/>
<polygon fill="red" stroke="red" points="75.4,-118.87 75.01,-129.46 81.92,-121.43 75.4,-118.87"/>
<text xml:space="preserve" text-anchor="middle" x="95.87" y="-99.45" font-family="Times,serif" font-size="14.00"> tick </text>
</g>
</g>
</svg>
