<?xml version="1.0" encoding="UTF-8" standalone="no"?>
<!DOCTYPE svg PUBLIC "-//W3C//DTD SVG 1.1//EN"
 "http://www.w3.org/Graphics/SVG/1.1/DTD/svg11.dtd">
<!-- Generated by graphviz version 14.1.5 (20260411.2331)
 -->
<!-- Title: Neuron Pages: 1 -->
<svg width="142pt" height="609pt"
 viewBox="0.00 0.00 142.00 609.00" xmlns="http://www.w3.org/2000/svg" xmlns:xlink="http://www.w3.org/1999/xlink">
<g id="graph0" class="graph" transform="scale(1 1) rotate(0) translate(4 604.65)">
<title>Neuron</title>
<polygon fill="white" stroke="none" points="-4,4 -4,-604.65 137.75,-604.65 137.75,4 -4,4"/>
<!-- Entry -->
<g id="node1" class="node">
<title>Entry</title>
<ellipse fill="black" stroke="#00688b" cx="81.12" cy="-593.45" rx="7.2" ry="7.2"/>
</g>
<!-- Resting -->
<g id="node2" class="node">
<title>Resting</title>
<path fill="azure" stroke="none" d="M121.75,-549.25C121.75,-549.25 40.5,-549.25 40.5,-549.25 34.5,-549.25 28.5,-543.25 28.5,-537.25 28.5,-537.25 28.5,-460.5 28.5,-460.5 28.5,-454.5 34.5,-448.5 40.5,-448.5 40.5,-448.5 121.75,-448.5 121.75,-448.5 127.75,-448.5 133.75,-454.5 133.75,-460.5 133.75,-460.5 133.75,-537.25 133.75,-537.25 133.75,-543.25 127.75,-549.25 121.75,-549.25"/>
<text xml:space="preserve" text-anchor="start" x="59.38" y="-528.95" font-family="Times,serif" font-weight="bold" font-size="14.00">Resting</text>
<text xml:space="preserve" text-anchor="start" x="36.5" y="-503.75" font-family="Times,serif" font-size="10.00">stimulate(input: float)</text>
<text xml:space="preserve" text-anchor="start" x="36.5" y="-492.5" font-family="Times,serif" font-size="10.00">tick()</text>
<text xml:space="preserve" text-anchor="start" x="36.5" y="-481.25" font-family="Times,serif" font-size="10.00">voltage()</text>
<text xml:space="preserve" text-anchor="start" x="36.5" y="-470" font-family="Times,serif" font-size="10.00">phase()</text>
<text xml:space="preserve" text-anchor="start" x="67.62" y="-458.75" font-family="Times,serif" font-size="10.00"> &#160;&#160;&#160;&#160;&#160;&#160;&#160;&#160;&#160;&#160;&#160;</text>
<polygon fill="#00688b" stroke="#00688b" points="28.5,-518.75 28.5,-518.75 133.75,-518.75 133.75,-518.75 28.5,-518.75"/>
<path fill="none" stroke="#00688b" d="M40.5,-448.5C40.5,-448.5 121.75,-448.5 121.75,-448.5 127.75,-448.5 133.75,-454.5 133.75,-460.5 133.75,-460.5 133.75,-537.25 133.75,-537.25 133.75,-543.25 127.75,-549.25 121.75,-549.25 121.75,-549.25 40.5,-549.25 40.5,-549.25 34.5,-549.25 28.5,-543.25 28.5,-537.25 28.5,-537.25 28.5,-460.5 28.5,-460.5 28.5,-454.5 34.5,-448.5 40.5,-448.5"/>
</g>
<!-- Entry&#45;&gt;Resting -->
<g id="edge1" class="edge">
<title>Entry&#45;&gt;Resting</title>
<path fill="none" stroke="red" d="M81.12,-585.79C81.12,-579.89 81.12,-570.61 81.12,-560.31"/>
<polygon fill="red" stroke="red" points="84.63,-560.34 81.13,-550.34 77.63,-560.34 84.63,-560.34"/>
</g>
<!-- Depolarizing -->
<g id="node3" class="node">
<title>Depolarizing</title>
<path fill="azure" stroke="none" d="M78.25,-396C78.25,-396 12,-396 12,-396 6,-396 0,-390 0,-384 0,-384 0,-307.25 0,-307.25 0,-301.25 6,-295.25 12,-295.25 12,-295.25 78.25,-295.25 78.25,-295.25 84.25,-295.25 90.25,-301.25 90.25,-307.25 90.25,-307.25 90.25,-384 90.25,-384 90.25,-390 84.25,-396 78.25,-396"/>
<text xml:space="preserve" text-anchor="start" x="8" y="-375.7" font-family="Times,serif" font-weight="bold" font-size="14.00">Depolarizing</text>
<text xml:space="preserve" text-anchor="start" x="8" y="-350.5" font-family="Times,serif" font-size="10.00">$&gt;()</text>
<text xml:space="preserve" text-anchor="start" x="8" y="-339.25" font-family="Times,serif" font-size="10.00">tick()</text>
<text xml:space="preserve" text-anchor="start" x="8" y="-328" font-family="Times,serif" font-size="10.00">voltage()</text>
<text xml:space="preserve" text-anchor="start" x="8" y="-316.75" font-family="Times,serif" font-size="10.00">phase()</text>
<text xml:space="preserve" text-anchor="start" x="12.88" y="-305.5" font-family="Times,serif" font-size="10.00"> &#160;&#160;&#160;&#160;&#160;&#160;&#160;&#160;&#160;&#160;&#160;</text>
<polygon fill="#00688b" stroke="#00688b" points="0,-365.5 0,-365.5 90.25,-365.5 90.25,-365.5 0,-365.5"/>
<path fill="none" stroke="#00688b" d="M12,-295.25C12,-295.25 78.25,-295.25 78.25,-295.25 84.25,-295.25 90.25,-301.25 90.25,-307.25 90.25,-307.25 90.25,-384 90.25,-384 90.25,-390 84.25,-396 78.25,-396 78.25,-396 12,-396 12,-396 6,-396 0,-390 0,-384 0,-384 0,-307.25 0,-307.25 0,-301.25 6,-295.25 12,-295.25"/>
</g>
<!-- Resting&#45;&gt;Depolarizing -->
<g id="edge2" class="edge">
<title>Resting&#45;&gt;Depolarizing</title>
<path fill="none" stroke="red" d="M52.62,-448.85C50.09,-442.83 47.91,-436.63 46.38,-430.5 44.52,-423.1 43.37,-415.21 42.72,-407.35"/>
<polygon fill="red" stroke="red" points="46.22,-407.21 42.18,-397.42 39.23,-407.59 46.22,-407.21"/>
<text xml:space="preserve" text-anchor="middle" x="75.25" y="-417.2" font-family="Times,serif" font-size="14.00"> stimulate </text>
</g>
<!-- Repolarizing -->
<g id="node4" class="node">
<title>Repolarizing</title>
<path fill="azure" stroke="none" d="M78.25,-242.75C78.25,-242.75 12,-242.75 12,-242.75 6,-242.75 0,-236.75 0,-230.75 0,-230.75 0,-165.25 0,-165.25 0,-159.25 6,-153.25 12,-153.25 12,-153.25 78.25,-153.25 78.25,-153.25 84.25,-153.25 90.25,-159.25 90.25,-165.25 90.25,-165.25 90.25,-230.75 90.25,-230.75 90.25,-236.75 84.25,-242.75 78.25,-242.75"/>
<text xml:space="preserve" text-anchor="start" x="8" y="-222.45" font-family="Times,serif" font-weight="bold" font-size="14.00">Repolarizing</text>
<text xml:space="preserve" text-anchor="start" x="8" y="-197.25" font-family="Times,serif" font-size="10.00">tick()</text>
<text xml:space="preserve" text-anchor="start" x="8" y="-186" font-family="Times,serif" font-size="10.00">voltage()</text>
<text xml:space="preserve" text-anchor="start" x="8" y="-174.75" font-family="Times,serif" font-size="10.00">phase()</text>
<text xml:space="preserve" text-anchor="start" x="12.88" y="-163.5" font-family="Times,serif" font-size="10.00"> &#160;&#160;&#160;&#160;&#160;&#160;&#160;&#160;&#160;&#160;&#160;</text>
<polygon fill="#00688b" stroke="#00688b" points="0,-212.25 0,-212.25 90.25,-212.25 90.25,-212.25 0,-212.25"/>
<path fill="none" stroke="#00688b" d="M12,-153.25C12,-153.25 78.25,-153.25 78.25,-153.25 84.25,-153.25 90.25,-159.25 90.25,-165.25 90.25,-165.25 90.25,-230.75 90.25,-230.75 90.25,-236.75 84.25,-242.75 78.25,-242.75 78.25,-242.75 12,-242.75 12,-242.75 6,-242.75 0,-236.75 0,-230.75 0,-230.75 0,-165.25 0,-165.25 0,-159.25 6,-153.25 12,-153.25"/>
</g>
<!-- Depolarizing&#45;&gt;Repolarizing -->
<g id="edge3" class="edge">
<title>Depolarizing&#45;&gt;Repolarizing</title>
<path fill="none" stroke="red" d="M45.12,-295.32C45.12,-281.91 45.12,-267.31 45.12,-253.63"/>
<polygon fill="red" stroke="red" points="48.63,-253.91 45.13,-243.91 41.63,-253.91 48.63,-253.91"/>
<text xml:space="preserve" text-anchor="middle" x="59" y="-263.95" font-family="Times,serif" font-size="14.00"> tick </text>
</g>
<!-- Refractory -->
<g id="node5" class="node">
<title>Refractory</title>
<path fill="azure" stroke="none" d="M121.75,-100.75C121.75,-100.75 40.5,-100.75 40.5,-100.75 34.5,-100.75 28.5,-94.75 28.5,-88.75 28.5,-88.75 28.5,-12 28.5,-12 28.5,-6 34.5,0 40.5,0 40.5,0 121.75,0 121.75,0 127.75,0 133.75,-6 133.75,-12 133.75,-12 133.75,-88.75 133.75,-88.75 133.75,-94.75 127.75,-100.75 121.75,-100.75"/>
<text xml:space="preserve" text-anchor="start" x="49.62" y="-80.45" font-family="Times,serif" font-weight="bold" font-size="14.00">Refractory</text>
<text xml:space="preserve" text-anchor="start" x="36.5" y="-55.25" font-family="Times,serif" font-size="10.00">stimulate(input: float)</text>
<text xml:space="preserve" text-anchor="start" x="36.5" y="-44" font-family="Times,serif" font-size="10.00">tick()</text>
<text xml:space="preserve" text-anchor="start" x="36.5" y="-32.75" font-family="Times,serif" font-size="10.00">voltage()</text>
<text xml:space="preserve" text-anchor="start" x="36.5" y="-21.5" font-family="Times,serif" font-size="10.00">phase()</text>
<text xml:space="preserve" text-anchor="start" x="67.62" y="-10.25" font-family="Times,serif" font-size="10.00"> &#160;&#160;&#160;&#160;&#160;&#160;&#160;&#160;&#160;&#160;&#160;</text>
<polygon fill="#00688b" stroke="#00688b" points="28.5,-70.25 28.5,-70.25 133.75,-70.25 133.75,-70.25 28.5,-70.25"/>
<path fill="none" stroke="#00688b" d="M40.5,0C40.5,0 121.75,0 121.75,0 127.75,0 133.75,-6 133.75,-12 133.75,-12 133.75,-88.75 133.75,-88.75 133.75,-94.75 127.75,-100.75 121.75,-100.75 121.75,-100.75 40.5,-100.75 40.5,-100.75 34.5,-100.75 28.5,-94.75 28.5,-88.75 28.5,-88.75 28.5,-12 28.5,-12 28.5,-6 34.5,0 40.5,0"/>
</g>
<!-- Repolarizing&#45;&gt;Refractory -->
<g id="edge4" class="edge">
<title>Repolarizing&#45;&gt;Refractory</title>
<path fill="none" stroke="red" d="M55.93,-153.31C59.16,-140.22 62.77,-125.63 66.22,-111.67"/>
<polygon fill="red" stroke="red" points="69.58,-112.67 68.58,-102.12 62.78,-110.99 69.58,-112.67"/>
<text xml:space="preserve" text-anchor="middle" x="78.08" y="-121.95" font-family="Times,serif" font-size="14.00"> tick </text>
</g>
<!-- Refractory&#45;&gt;Resting -->
<g id="edge5" class="edge">
<title>Refractory&#45;&gt;Resting</title>
<path fill="none" stroke="red" d="M92.86,-100.54C94.08,-106.65 95.21,-112.83 96.12,-118.75 98.47,-133.96 98.31,-137.88 99.12,-153.25 105.26,-269 103.01,-298.1 104.12,-414 104.2,-421.33 105.33,-423.27 104.12,-430.5 103.74,-432.83 103.28,-435.2 102.76,-437.57"/>
<polygon fill="red" stroke="red" points="99.38,-436.66 100.34,-447.21 106.17,-438.36 99.38,-436.66"/>
<text xml:space="preserve" text-anchor="middle" x="117.31" y="-263.95" font-family="Times,serif" font-size="14.00"> tick </text>
</g>
</g>
</svg>
