<?xml version="1.0" encoding="UTF-8" standalone="no"?>
<!DOCTYPE svg PUBLIC "-//W3C//DTD SVG 1.1//EN"
 "http://www.w3.org/Graphics/SVG/1.1/DTD/svg11.dtd">
<!-- Generated by graphviz version 14.1.5 (20260411.2331)
 -->
<!-- Title: Person Pages: 1 -->
<svg width="94pt" height="410pt"
 viewBox="0.00 0.00 94.00 410.00" xmlns="http://www.w3.org/2000/svg" xmlns:xlink="http://www.w3.org/1999/xlink">
<g id="graph0" class="graph" transform="scale(1 1) rotate(0) translate(4 406.4)">
<title>Person</title>
<polygon fill="white" stroke="none" points="-4,4 -4,-406.4 89.62,-406.4 89.62,4 -4,4"/>
<!-- Entry -->
<g id="node1" class="node">
<title>Entry</title>
<ellipse fill="black" stroke="#00688b" cx="40.62" cy="-395.2" rx="7.2" ry="7.2"/>
</g>
<!-- Susceptible -->
<g id="node2" class="node">
<title>Susceptible</title>
<path fill="azure" stroke="none" d="M69.25,-351C69.25,-351 12,-351 12,-351 6,-351 0,-345 0,-339 0,-339 0,-284.75 0,-284.75 0,-278.75 6,-272.75 12,-272.75 12,-272.75 69.25,-272.75 69.25,-272.75 75.25,-272.75 81.25,-278.75 81.25,-284.75 81.25,-284.75 81.25,-339 81.25,-339 81.25,-345 75.25,-351 69.25,-351"/>
<text xml:space="preserve" text-anchor="start" x="8" y="-330.7" font-family="Times,serif" font-weight="bold" font-size="14.00">Susceptible</text>
<text xml:space="preserve" text-anchor="start" x="8" y="-305.5" font-family="Times,serif" font-size="10.00">expose()</text>
<text xml:space="preserve" text-anchor="start" x="8" y="-294.25" font-family="Times,serif" font-size="10.00">status()</text>
<text xml:space="preserve" text-anchor="start" x="11.75" y="-283" font-family="Times,serif" font-size="10.00"> &#160;&#160;&#160;&#160;&#160;&#160;&#160;&#160;&#160;&#160;&#160;</text>
<polygon fill="#00688b" stroke="#00688b" points="0,-320.5 0,-320.5 81.25,-320.5 81.25,-320.5 0,-320.5"/>
<path fill="none" stroke="#00688b" d="M12,-272.75C12,-272.75 69.25,-272.75 69.25,-272.75 75.25,-272.75 81.25,-278.75 81.25,-284.75 81.25,-284.75 81.25,-339 81.25,-339 81.25,-345 75.25,-351 69.25,-351 69.25,-351 12,-351 12,-351 6,-351 0,-345 0,-339 0,-339 0,-284.75 0,-284.75 0,-278.75 6,-272.75 12,-272.75"/>
</g>
<!-- Entry&#45;&gt;Susceptible -->
<g id="edge1" class="edge">
<title>Entry&#45;&gt;Susceptible</title>
<path fill="none" stroke="red" d="M40.62,-387.54C40.62,-381.53 40.62,-372.07 40.62,-361.88"/>
<polygon fill="red" stroke="red" points="44.13,-362.19 40.63,-352.19 37.13,-362.19 44.13,-362.19"/>
</g>
<!-- Infected -->
<g id="node3" class="node">
<title>Infected</title>
<path fill="azure" stroke="none" d="M60.25,-220.25C60.25,-220.25 21,-220.25 21,-220.25 15,-220.25 9,-214.25 9,-208.25 9,-208.25 9,-142.75 9,-142.75 9,-136.75 15,-130.75 21,-130.75 21,-130.75 60.25,-130.75 60.25,-130.75 66.25,-130.75 72.25,-136.75 72.25,-142.75 72.25,-142.75 72.25,-208.25 72.25,-208.25 72.25,-214.25 66.25,-220.25 60.25,-220.25"/>
<text xml:space="preserve" text-anchor="start" x="17" y="-199.95" font-family="Times,serif" font-weight="bold" font-size="14.00">Infected</text>
<text xml:space="preserve" text-anchor="start" x="17" y="-174.75" font-family="Times,serif" font-size="10.00">expose()</text>
<text xml:space="preserve" text-anchor="start" x="17" y="-163.5" font-family="Times,serif" font-size="10.00">tick()</text>
<text xml:space="preserve" text-anchor="start" x="17" y="-152.25" font-family="Times,serif" font-size="10.00">status()</text>
<text xml:space="preserve" text-anchor="start" x="20.75" y="-141" font-family="Times,serif" font-size="10.00"> &#160;&#160;&#160;&#160;&#160;&#160;&#160;&#160;&#160;&#160;&#160;</text>
<polygon fill="#00688b" stroke="#00688b" points="9,-189.75 9,-189.75 72.25,-189.75 72.25,-189.75 9,-189.75"/>
<path fill="none" stroke="#00688b" d="M21,-130.75C21,-130.75 60.25,-130.75 60.25,-130.75 66.25,-130.75 72.25,-136.75 72.25,-142.75 72.25,-142.75 72.25,-208.25 72.25,-208.25 72.25,-214.25 66.25,-220.25 60.25,-220.25 60.25,-220.25 21,-220.25 21,-220.25 15,-220.25 9,-214.25 9,-208.25 9,-208.25 9,-142.75 9,-142.75 9,-136.75 15,-130.75 21,-130.75"/>
</g>
<!-- Susceptible&#45;&gt;Infected -->
<g id="edge2" class="edge">
<title>Susceptible&#45;&gt;Infected</title>
<path fill="none" stroke="red" d="M40.62,-273.09C40.62,-260.23 40.62,-245.58 40.62,-231.65"/>
<polygon fill="red" stroke="red" points="44.13,-231.68 40.63,-221.68 37.13,-231.68 44.13,-231.68"/>
<text xml:space="preserve" text-anchor="middle" x="63.12" y="-241.45" font-family="Times,serif" font-size="14.00"> expose </text>
</g>
<!-- Recovered -->
<g id="node4" class="node">
<title>Recovered</title>
<path fill="azure" stroke="none" d="M67,-78.25C67,-78.25 14.25,-78.25 14.25,-78.25 8.25,-78.25 2.25,-72.25 2.25,-66.25 2.25,-66.25 2.25,-12 2.25,-12 2.25,-6 8.25,0 14.25,0 14.25,0 67,0 67,0 73,0 79,-6 79,-12 79,-12 79,-66.25 79,-66.25 79,-72.25 73,-78.25 67,-78.25"/>
<text xml:space="preserve" text-anchor="start" x="10.25" y="-57.95" font-family="Times,serif" font-weight="bold" font-size="14.00">Recovered</text>
<text xml:space="preserve" text-anchor="start" x="10.25" y="-32.75" font-family="Times,serif" font-size="10.00">expose()</text>
<text xml:space="preserve" text-anchor="start" x="10.25" y="-21.5" font-family="Times,serif" font-size="10.00">status()</text>
<text xml:space="preserve" text-anchor="start" x="14" y="-10.25" font-family="Times,serif" font-size="10.00"> &#160;&#160;&#160;&#160;&#160;&#160;&#160;&#160;&#160;&#160;&#160;</text>
<polygon fill="#00688b" stroke="#00688b" points="2.25,-47.75 2.25,-47.75 79,-47.75 79,-47.75 2.25,-47.75"/>
<path fill="none" stroke="#00688b" d="M14.25,0C14.25,0 67,0 67,0 73,0 79,-6 79,-12 79,-12 79,-66.25 79,-66.25 79,-72.25 73,-78.25 67,-78.25 67,-78.25 14.25,-78.25 14.25,-78.25 8.25,-78.25 2.25,-72.25 2.25,-66.25 2.25,-66.25 2.25,-12 2.25,-12 2.25,-6 8.25,0 14.25,0"/>
</g>
<!-- Infected&#45;&gt;Recovered -->
<g id="edge3" class="edge">
<title>Infected&#45;&gt;Recovered</title>
<path fill="none" stroke="red" d="M40.62,-130.87C40.62,-117.58 40.62,-102.88 40.62,-89.25"/>
<polygon fill="red" stroke="red" points="44.13,-89.62 40.63,-79.62 37.13,-89.62 44.13,-89.62"/>
<text xml:space="preserve" text-anchor="middle" x="54.5" y="-99.45" font-family="Times,serif" font-size="14.00"> tick </text>
</g>
</g>
</svg>
