<?xml version="1.0" encoding="UTF-8" standalone="no"?>
<!DOCTYPE svg PUBLIC "-//W3C//DTD SVG 1.1//EN"
 "http://www.w3.org/Graphics/SVG/1.1/DTD/svg11.dtd">
<!-- Generated by graphviz version 14.1.5 (20260411.2331)
 -->
<!-- Title: Titration Pages: 1 -->
<svg width="301pt" height="575pt"
 viewBox="0.00 0.00 301.00 575.00" xmlns="http://www.w3.org/2000/svg" xmlns:xlink="http://www.w3.org/1999/xlink">
<g id="graph0" class="graph" transform="scale(1 1) rotate(0) translate(4 570.9)">
<title>Titration</title>
<polygon fill="white" stroke="none" points="-4,4 -4,-570.9 296.64,-570.9 296.64,4 -4,4"/>
<!-- Entry -->
<g id="node1" class="node">
<title>Entry</title>
<ellipse fill="black" stroke="#00688b" cx="164.32" cy="-559.7" rx="7.2" ry="7.2"/>
</g>
<!-- Setup -->
<g id="node2" class="node">
<title>Setup</title>
<path fill="azure" stroke="none" d="M219.57,-515.5C219.57,-515.5 109.07,-515.5 109.07,-515.5 103.07,-515.5 97.07,-509.5 97.07,-503.5 97.07,-503.5 97.07,-449.25 97.07,-449.25 97.07,-443.25 103.07,-437.25 109.07,-437.25 109.07,-437.25 219.57,-437.25 219.57,-437.25 225.57,-437.25 231.57,-443.25 231.57,-449.25 231.57,-449.25 231.57,-503.5 231.57,-503.5 231.57,-509.5 225.57,-515.5 219.57,-515.5"/>
<text xml:space="preserve" text-anchor="start" x="147.82" y="-495.2" font-family="Times,serif" font-weight="bold" font-size="14.00">Setup</text>
<text xml:space="preserve" text-anchor="start" x="105.07" y="-470" font-family="Times,serif" font-size="10.00">add_drop(volume_mL: float)</text>
<text xml:space="preserve" text-anchor="start" x="105.07" y="-458.75" font-family="Times,serif" font-size="10.00">status()</text>
<text xml:space="preserve" text-anchor="start" x="150.82" y="-447.5" font-family="Times,serif" font-size="10.00"> &#160;&#160;&#160;&#160;&#160;&#160;&#160;&#160;&#160;&#160;&#160;</text>
<polygon fill="#00688b" stroke="#00688b" points="97.07,-485 97.07,-485 231.57,-485 231.57,-485 97.07,-485"/>
<path fill="none" stroke="#00688b" d="M109.07,-437.25C109.07,-437.25 219.57,-437.25 219.57,-437.25 225.57,-437.25 231.57,-443.25 231.57,-449.25 231.57,-449.25 231.57,-503.5 231.57,-503.5 231.57,-509.5 225.57,-515.5 219.57,-515.5 219.57,-515.5 109.07,-515.5 109.07,-515.5 103.07,-515.5 97.07,-509.5 97.07,-503.5 97.07,-503.5 97.07,-449.25 97.07,-449.25 97.07,-443.25 103.07,-437.25 109.07,-437.25"/>
</g>
<!-- Entry&#45;&gt;Setup -->
<g id="edge1" class="edge">
<title>Entry&#45;&gt;Setup</title>
<path fill="none" stroke="red" d="M164.32,-552.04C164.32,-546.03 164.32,-536.57 164.32,-526.38"/>
<polygon fill="red" stroke="red" points="167.82,-526.69 164.32,-516.69 160.82,-526.69 167.82,-526.69"/>
</g>
<!-- Titrating -->
<g id="node3" class="node">
<title>Titrating</title>
<path fill="azure" stroke="none" d="M165.57,-384.75C165.57,-384.75 55.07,-384.75 55.07,-384.75 49.07,-384.75 43.07,-378.75 43.07,-372.75 43.07,-372.75 43.07,-307.25 43.07,-307.25 43.07,-301.25 49.07,-295.25 55.07,-295.25 55.07,-295.25 165.57,-295.25 165.57,-295.25 171.57,-295.25 177.57,-301.25 177.57,-307.25 177.57,-307.25 177.57,-372.75 177.57,-372.75 177.57,-378.75 171.57,-384.75 165.57,-384.75"/>
<text xml:space="preserve" text-anchor="start" x="84.07" y="-364.45" font-family="Times,serif" font-weight="bold" font-size="14.00">Titrating</text>
<text xml:space="preserve" text-anchor="start" x="51.07" y="-339.25" font-family="Times,serif" font-size="10.00">add_drop(volume_mL: float)</text>
<text xml:space="preserve" text-anchor="start" x="51.07" y="-328" font-family="Times,serif" font-size="10.00">observe_color(color: str)</text>
<text xml:space="preserve" text-anchor="start" x="51.07" y="-316.75" font-family="Times,serif" font-size="10.00">status()</text>
<text xml:space="preserve" text-anchor="start" x="96.82" y="-305.5" font-family="Times,serif" font-size="10.00"> &#160;&#160;&#160;&#160;&#160;&#160;&#160;&#160;&#160;&#160;&#160;</text>
<polygon fill="#00688b" stroke="#00688b" points="43.07,-354.25 43.07,-354.25 177.57,-354.25 177.57,-354.25 43.07,-354.25"/>
<path fill="none" stroke="#00688b" d="M55.07,-295.25C55.07,-295.25 165.57,-295.25 165.57,-295.25 171.57,-295.25 177.57,-301.25 177.57,-307.25 177.57,-307.25 177.57,-372.75 177.57,-372.75 177.57,-378.75 171.57,-384.75 165.57,-384.75 165.57,-384.75 55.07,-384.75 55.07,-384.75 49.07,-384.75 43.07,-378.75 43.07,-372.75 43.07,-372.75 43.07,-307.25 43.07,-307.25 43.07,-301.25 49.07,-295.25 55.07,-295.25"/>
</g>
<!-- Setup&#45;&gt;Titrating -->
<g id="edge2" class="edge">
<title>Setup&#45;&gt;Titrating</title>
<path fill="none" stroke="red" d="M149.14,-437.59C143.87,-424.47 137.85,-409.5 132.15,-395.32"/>
<polygon fill="red" stroke="red" points="135.41,-394.05 128.44,-386.08 128.92,-396.66 135.41,-394.05"/>
<text xml:space="preserve" text-anchor="middle" x="169.8" y="-405.95" font-family="Times,serif" font-size="14.00"> add_drop </text>
</g>
<!-- NearEndpoint -->
<g id="node4" class="node">
<title>NearEndpoint</title>
<path fill="azure" stroke="none" d="M161.57,-242.75C161.57,-242.75 51.07,-242.75 51.07,-242.75 45.07,-242.75 39.07,-236.75 39.07,-230.75 39.07,-230.75 39.07,-154 39.07,-154 39.07,-148 45.07,-142 51.07,-142 51.07,-142 161.57,-142 161.57,-142 167.57,-142 173.57,-148 173.57,-154 173.57,-154 173.57,-230.75 173.57,-230.75 173.57,-236.75 167.57,-242.75 161.57,-242.75"/>
<text xml:space="preserve" text-anchor="start" x="65.07" y="-222.45" font-family="Times,serif" font-weight="bold" font-size="14.00">NearEndpoint</text>
<text xml:space="preserve" text-anchor="start" x="47.07" y="-197.25" font-family="Times,serif" font-size="10.00">add_drop(volume_mL: float)</text>
<text xml:space="preserve" text-anchor="start" x="47.07" y="-186" font-family="Times,serif" font-size="10.00">observe_color(color: str)</text>
<text xml:space="preserve" text-anchor="start" x="47.07" y="-174.75" font-family="Times,serif" font-size="10.00">record_endpoint()</text>
<text xml:space="preserve" text-anchor="start" x="47.07" y="-163.5" font-family="Times,serif" font-size="10.00">status()</text>
<text xml:space="preserve" text-anchor="start" x="92.82" y="-152.25" font-family="Times,serif" font-size="10.00"> &#160;&#160;&#160;&#160;&#160;&#160;&#160;&#160;&#160;&#160;&#160;</text>
<polygon fill="#00688b" stroke="#00688b" points="39.07,-212.25 39.07,-212.25 173.57,-212.25 173.57,-212.25 39.07,-212.25"/>
<path fill="none" stroke="#00688b" d="M51.07,-142C51.07,-142 161.57,-142 161.57,-142 167.57,-142 173.57,-148 173.57,-154 173.57,-154 173.57,-230.75 173.57,-230.75 173.57,-236.75 167.57,-242.75 161.57,-242.75 161.57,-242.75 51.07,-242.75 51.07,-242.75 45.07,-242.75 39.07,-236.75 39.07,-230.75 39.07,-230.75 39.07,-154 39.07,-154 39.07,-148 45.07,-142 51.07,-142"/>
</g>
<!-- Titrating&#45;&gt;NearEndpoint -->
<g id="edge3" class="edge">
<title>Titrating&#45;&gt;NearEndpoint</title>
<path fill="none" stroke="red" d="M43.14,-313.84C27.71,-304.74 13.24,-292.76 4.32,-277.25 -7.72,-256.29 7.45,-238.37 29.48,-224.54"/>
<polygon fill="red" stroke="red" points="31.06,-227.66 37.96,-219.62 27.56,-221.61 31.06,-227.66"/>
<text xml:space="preserve" text-anchor="middle" x="46.32" y="-263.95" font-family="Times,serif" font-size="14.00"> observe_color </text>
</g>
<!-- NearEndpoint&#45;&gt;Titrating -->
<g id="edge4" class="edge">
<title>NearEndpoint&#45;&gt;Titrating</title>
<path fill="none" stroke="red" d="M107.67,-242.65C108.04,-255.98 108.44,-270.5 108.81,-284.12"/>
<polygon fill="red" stroke="red" points="105.31,-283.89 109.08,-293.79 112.3,-283.7 105.31,-283.89"/>
<text xml:space="preserve" text-anchor="middle" x="150.56" y="-263.95" font-family="Times,serif" font-size="14.00"> observe_color </text>
</g>
<!-- Complete -->
<g id="node5" class="node">
<title>Complete</title>
<path fill="azure" stroke="none" d="M185.45,-89.5C185.45,-89.5 137.2,-89.5 137.2,-89.5 131.2,-89.5 125.2,-83.5 125.2,-77.5 125.2,-77.5 125.2,-12 125.2,-12 125.2,-6 131.2,0 137.2,0 137.2,0 185.45,0 185.45,0 191.45,0 197.45,-6 197.45,-12 197.45,-12 197.45,-77.5 197.45,-77.5 197.45,-83.5 191.45,-89.5 185.45,-89.5"/>
<text xml:space="preserve" text-anchor="start" x="133.2" y="-69.2" font-family="Times,serif" font-weight="bold" font-size="14.00">Complete</text>
<text xml:space="preserve" text-anchor="start" x="133.2" y="-44" font-family="Times,serif" font-size="10.00">new_trial()</text>
<text xml:space="preserve" text-anchor="start" x="133.2" y="-32.75" font-family="Times,serif" font-size="10.00">result_mL()</text>
<text xml:space="preserve" text-anchor="start" x="133.2" y="-21.5" font-family="Times,serif" font-size="10.00">status()</text>
<text xml:space="preserve" text-anchor="start" x="143.32" y="-10.25" font-family="Times,serif" font-size="10.00"> &#160;&#160;&#160;&#160;&#160;&#160;&#160;&#160;&#160;&#160;&#160;</text>
<polygon fill="#00688b" stroke="#00688b" points="125.2,-59 125.2,-59 197.45,-59 197.45,-59 125.2,-59"/>
<path fill="none" stroke="#00688b" d="M137.2,0C137.2,0 185.45,0 185.45,0 191.45,0 197.45,-6 197.45,-12 197.45,-12 197.45,-77.5 197.45,-77.5 197.45,-83.5 191.45,-89.5 185.45,-89.5 185.45,-89.5 137.2,-89.5 137.2,-89.5 131.2,-89.5 125.2,-83.5 125.2,-77.5 125.2,-77.5 125.2,-12 125.2,-12 125.2,-6 131.2,0 137.2,0"/>
</g>
<!-- NearEndpoint&#45;&gt;Complete -->
<g id="edge5" class="edge">
<title>NearEndpoint&#45;&gt;Complete</title>
<path fill="none" stroke="red" d="M101.19,-142.38C101.5,-130.65 103.16,-118.38 107.32,-107.5 110.02,-100.44 113.92,-93.65 118.41,-87.33"/>
<polygon fill="red" stroke="red" points="121.04,-89.66 124.41,-79.61 115.51,-85.36 121.04,-89.66"/>
<text xml:space="preserve" text-anchor="middle" x="155.32" y="-110.7" font-family="Times,serif" font-size="14.00"> record_endpoint </text>
</g>
<!-- Complete&#45;&gt;Setup -->
<g id="edge6" class="edge">
<title>Complete&#45;&gt;Setup</title>
<path fill="none" stroke="red" d="M195.44,-89.32C198.65,-95.17 201.41,-101.3 203.32,-107.5 244.09,-239.92 244.75,-287.03 203.32,-419.25 202.47,-421.97 201.43,-424.68 200.25,-427.35"/>
<polygon fill="red" stroke="red" points="197.22,-425.58 195.78,-436.08 203.45,-428.78 197.22,-425.58"/>
<text xml:space="preserve" text-anchor="middle" x="263.39" y="-263.95" font-family="Times,serif" font-size="14.00"> new_trial </text>
</g>
</g>
</svg>
