<?xml version="1.0" encoding="UTF-8" standalone="no"?>
<!DOCTYPE svg PUBLIC "-//W3C//DTD SVG 1.1//EN"
 "http://www.w3.org/Graphics/SVG/1.1/DTD/svg11.dtd">
<!-- Generated by graphviz version 14.1.5 (20260411.2331)
 -->
<!-- Title: PCRCycler Pages: 1 -->
<svg width="221pt" height="776pt"
 viewBox="0.00 0.00 221.00 776.00" xmlns="http://www.w3.org/2000/svg" xmlns:xlink="http://www.w3.org/1999/xlink">
<g id="graph0" class="graph" transform="scale(1 1) rotate(0) translate(4 771.9)">
<title>PCRCycler</title>
<polygon fill="white" stroke="none" points="-4,4 -4,-771.9 217,-771.9 217,4 -4,4"/>
<g id="clust1" class="cluster">
<title>cluster_Running</title>
<path fill="none" stroke="black" d="M20,-122.75C20,-122.75 193,-122.75 193,-122.75 199,-122.75 205,-128.75 205,-134.75 205,-134.75 205,-572.5 205,-572.5 205,-578.5 199,-584.5 193,-584.5 193,-584.5 20,-584.5 20,-584.5 14,-584.5 8,-578.5 8,-572.5 8,-572.5 8,-134.75 8,-134.75 8,-128.75 14,-122.75 20,-122.75"/>
<text xml:space="preserve" text-anchor="start" x="83.25" y="-563.75" font-family="Times,serif" font-size="14.00">Running</text>
<polygon fill="black" stroke="black" points="79.25,-557 79.25,-557 133.75,-557 133.75,-557 79.25,-557"/>
</g>
<!-- Entry -->
<g id="node1" class="node">
<title>Entry</title>
<ellipse fill="black" stroke="#00688b" cx="110" cy="-760.7" rx="7.2" ry="7.2"/>
</g>
<!-- Idle -->
<g id="node2" class="node">
<title>Idle</title>
<path fill="azure" stroke="none" d="M133,-716.5C133,-716.5 87,-716.5 87,-716.5 81,-716.5 75,-710.5 75,-704.5 75,-704.5 75,-639 75,-639 75,-633 81,-627 87,-627 87,-627 133,-627 133,-627 139,-627 145,-633 145,-639 145,-639 145,-704.5 145,-704.5 145,-710.5 139,-716.5 133,-716.5"/>
<text xml:space="preserve" text-anchor="start" x="98.75" y="-696.2" font-family="Times,serif" font-weight="bold" font-size="14.00">Idle</text>
<text xml:space="preserve" text-anchor="start" x="83" y="-671" font-family="Times,serif" font-size="10.00">start()</text>
<text xml:space="preserve" text-anchor="start" x="83" y="-659.75" font-family="Times,serif" font-size="10.00">temperature()</text>
<text xml:space="preserve" text-anchor="start" x="83" y="-648.5" font-family="Times,serif" font-size="10.00">phase()</text>
<text xml:space="preserve" text-anchor="start" x="96.5" y="-637.25" font-family="Times,serif" font-size="10.00"> &#160;&#160;&#160;&#160;&#160;&#160;&#160;&#160;&#160;&#160;&#160;</text>
<polygon fill="#00688b" stroke="#00688b" points="75,-686 75,-686 145,-686 145,-686 75,-686"/>
<path fill="none" stroke="#00688b" d="M87,-627C87,-627 133,-627 133,-627 139,-627 145,-633 145,-639 145,-639 145,-704.5 145,-704.5 145,-710.5 139,-716.5 133,-716.5 133,-716.5 87,-716.5 87,-716.5 81,-716.5 75,-710.5 75,-704.5 75,-704.5 75,-639 75,-639 75,-633 81,-627 87,-627"/>
</g>
<!-- Entry&#45;&gt;Idle -->
<g id="edge1" class="edge">
<title>Entry&#45;&gt;Idle</title>
<path fill="none" stroke="red" d="M110,-753.16C110,-747.25 110,-737.91 110,-727.66"/>
<polygon fill="red" stroke="red" points="113.5,-727.81 110,-717.81 106.5,-727.81 113.5,-727.81"/>
</g>
<!-- Denature -->
<g id="node4" class="node">
<title>Denature</title>
<path fill="azure" stroke="none" d="M133.75,-538C133.75,-538 86.25,-538 86.25,-538 80.25,-538 74.25,-532 74.25,-526 74.25,-526 74.25,-449.25 74.25,-449.25 74.25,-443.25 80.25,-437.25 86.25,-437.25 86.25,-437.25 133.75,-437.25 133.75,-437.25 139.75,-437.25 145.75,-443.25 145.75,-449.25 145.75,-449.25 145.75,-526 145.75,-526 145.75,-532 139.75,-538 133.75,-538"/>
<text xml:space="preserve" text-anchor="start" x="83" y="-517.7" font-family="Times,serif" font-weight="bold" font-size="14.00">Denature</text>
<text xml:space="preserve" text-anchor="start" x="82.25" y="-492.5" font-family="Times,serif" font-size="10.00">$&gt;()</text>
<text xml:space="preserve" text-anchor="start" x="82.25" y="-481.25" font-family="Times,serif" font-size="10.00">tick_minute()</text>
<text xml:space="preserve" text-anchor="start" x="82.25" y="-470" font-family="Times,serif" font-size="10.00">temperature()</text>
<text xml:space="preserve" text-anchor="start" x="82.25" y="-458.75" font-family="Times,serif" font-size="10.00">phase()</text>
<text xml:space="preserve" text-anchor="start" x="92" y="-447.5" font-family="Times,serif" font-size="10.00"> &#160;&#160;&#160;&#160;&#160;&#160;&#160;&#160;&#160;&#160;&#160;&#160;&#160;&#160;&#160;</text>
<polygon fill="#00688b" stroke="#00688b" points="74.25,-507.5 74.25,-507.5 145.75,-507.5 145.75,-507.5 74.25,-507.5"/>
<path fill="none" stroke="#00688b" d="M86.25,-437.25C86.25,-437.25 133.75,-437.25 133.75,-437.25 139.75,-437.25 145.75,-443.25 145.75,-449.25 145.75,-449.25 145.75,-526 145.75,-526 145.75,-532 139.75,-538 133.75,-538 133.75,-538 86.25,-538 86.25,-538 80.25,-538 74.25,-532 74.25,-526 74.25,-526 74.25,-449.25 74.25,-449.25 74.25,-443.25 80.25,-437.25 86.25,-437.25"/>
</g>
<!-- Idle&#45;&gt;Denature -->
<g id="edge2" class="edge">
<title>Idle&#45;&gt;Denature</title>
<path fill="none" stroke="red" d="M110,-627.13C110,-603.86 110,-574.85 110,-549.41"/>
<polygon fill="red" stroke="red" points="113.5,-549.51 110,-539.51 106.5,-549.51 113.5,-549.51"/>
<text xml:space="preserve" text-anchor="middle" x="125.38" y="-595.7" font-family="Times,serif" font-size="14.00"> start </text>
</g>
<!-- Running -->
<g id="node3" class="node">
<title>Running</title>
<ellipse fill="azure" stroke="#00688b" cx="43" cy="-487.62" rx="0.36" ry="0.36"/>
</g>
<!-- Anneal -->
<g id="node5" class="node">
<title>Anneal</title>
<path fill="azure" stroke="none" d="M75.75,-384.75C75.75,-384.75 28.25,-384.75 28.25,-384.75 22.25,-384.75 16.25,-378.75 16.25,-372.75 16.25,-372.75 16.25,-296 16.25,-296 16.25,-290 22.25,-284 28.25,-284 28.25,-284 75.75,-284 75.75,-284 81.75,-284 87.75,-290 87.75,-296 87.75,-296 87.75,-372.75 87.75,-372.75 87.75,-378.75 81.75,-384.75 75.75,-384.75"/>
<text xml:space="preserve" text-anchor="start" x="31.38" y="-364.45" font-family="Times,serif" font-weight="bold" font-size="14.00">Anneal</text>
<text xml:space="preserve" text-anchor="start" x="24.25" y="-339.25" font-family="Times,serif" font-size="10.00">$&gt;()</text>
<text xml:space="preserve" text-anchor="start" x="24.25" y="-328" font-family="Times,serif" font-size="10.00">tick_minute()</text>
<text xml:space="preserve" text-anchor="start" x="24.25" y="-316.75" font-family="Times,serif" font-size="10.00">temperature()</text>
<text xml:space="preserve" text-anchor="start" x="24.25" y="-305.5" font-family="Times,serif" font-size="10.00">phase()</text>
<text xml:space="preserve" text-anchor="start" x="34" y="-294.25" font-family="Times,serif" font-size="10.00"> &#160;&#160;&#160;&#160;&#160;&#160;&#160;&#160;&#160;&#160;&#160;&#160;&#160;&#160;&#160;</text>
<polygon fill="#00688b" stroke="#00688b" points="16.25,-354.25 16.25,-354.25 87.75,-354.25 87.75,-354.25 16.25,-354.25"/>
<path fill="none" stroke="#00688b" d="M28.25,-284C28.25,-284 75.75,-284 75.75,-284 81.75,-284 87.75,-290 87.75,-296 87.75,-296 87.75,-372.75 87.75,-372.75 87.75,-378.75 81.75,-384.75 75.75,-384.75 75.75,-384.75 28.25,-384.75 28.25,-384.75 22.25,-384.75 16.25,-378.75 16.25,-372.75 16.25,-372.75 16.25,-296 16.25,-296 16.25,-290 22.25,-284 28.25,-284"/>
</g>
<!-- Denature&#45;&gt;Anneal -->
<g id="edge3" class="edge">
<title>Denature&#45;&gt;Anneal</title>
<path fill="none" stroke="red" d="M74.47,-458.73C63.24,-447.76 52.21,-434.21 46.25,-419.25 43.31,-411.88 41.89,-403.85 41.46,-395.78"/>
<polygon fill="red" stroke="red" points="44.96,-395.93 41.46,-385.93 37.96,-395.93 44.96,-395.93"/>
<text xml:space="preserve" text-anchor="middle" x="82.62" y="-405.95" font-family="Times,serif" font-size="14.00"> tick_minute </text>
</g>
<!-- Extend -->
<g id="node6" class="node">
<title>Extend</title>
<path fill="azure" stroke="none" d="M111.75,-231.5C111.75,-231.5 64.25,-231.5 64.25,-231.5 58.25,-231.5 52.25,-225.5 52.25,-219.5 52.25,-219.5 52.25,-142.75 52.25,-142.75 52.25,-136.75 58.25,-130.75 64.25,-130.75 64.25,-130.75 111.75,-130.75 111.75,-130.75 117.75,-130.75 123.75,-136.75 123.75,-142.75 123.75,-142.75 123.75,-219.5 123.75,-219.5 123.75,-225.5 117.75,-231.5 111.75,-231.5"/>
<text xml:space="preserve" text-anchor="start" x="67.38" y="-211.2" font-family="Times,serif" font-weight="bold" font-size="14.00">Extend</text>
<text xml:space="preserve" text-anchor="start" x="60.25" y="-186" font-family="Times,serif" font-size="10.00">$&gt;()</text>
<text xml:space="preserve" text-anchor="start" x="60.25" y="-174.75" font-family="Times,serif" font-size="10.00">tick_minute()</text>
<text xml:space="preserve" text-anchor="start" x="60.25" y="-163.5" font-family="Times,serif" font-size="10.00">temperature()</text>
<text xml:space="preserve" text-anchor="start" x="60.25" y="-152.25" font-family="Times,serif" font-size="10.00">phase()</text>
<text xml:space="preserve" text-anchor="start" x="70" y="-141" font-family="Times,serif" font-size="10.00"> &#160;&#160;&#160;&#160;&#160;&#160;&#160;&#160;&#160;&#160;&#160;&#160;&#160;&#160;&#160;</text>
<polygon fill="#00688b" stroke="#00688b" points="52.25,-201 52.25,-201 123.75,-201 123.75,-201 52.25,-201"/>
<path fill="none" stroke="#00688b" d="M64.25,-130.75C64.25,-130.75 111.75,-130.75 111.75,-130.75 117.75,-130.75 123.75,-136.75 123.75,-142.75 123.75,-142.75 123.75,-219.5 123.75,-219.5 123.75,-225.5 117.75,-231.5 111.75,-231.5 111.75,-231.5 64.25,-231.5 64.25,-231.5 58.25,-231.5 52.25,-225.5 52.25,-219.5 52.25,-219.5 52.25,-142.75 52.25,-142.75 52.25,-136.75 58.25,-130.75 64.25,-130.75"/>
</g>
<!-- Anneal&#45;&gt;Extend -->
<g id="edge4" class="edge">
<title>Anneal&#45;&gt;Extend</title>
<path fill="none" stroke="red" d="M43.03,-284.44C42.43,-272.82 43.09,-260.59 46.25,-249.5 46.98,-246.93 47.84,-244.37 48.81,-241.82"/>
<polygon fill="red" stroke="red" points="51.93,-243.42 52.71,-232.85 45.51,-240.63 51.93,-243.42"/>
<text xml:space="preserve" text-anchor="middle" x="82.62" y="-252.7" font-family="Times,serif" font-size="14.00"> tick_minute </text>
</g>
<!-- Extend&#45;&gt;Denature -->
<g id="edge6" class="edge">
<title>Extend&#45;&gt;Denature</title>
<path fill="none" stroke="red" d="M113.52,-231.33C115.76,-237.32 117.68,-243.46 119,-249.5 131.93,-308.55 127.08,-377.81 120.59,-426.18"/>
<polygon fill="red" stroke="red" points="117.15,-425.5 119.21,-435.9 124.08,-426.48 117.15,-425.5"/>
<text xml:space="preserve" text-anchor="middle" x="163.5" y="-329.32" font-family="Times,serif" font-size="14.00"> tick_minute </text>
</g>
<!-- FinalHold -->
<g id="node7" class="node">
<title>FinalHold</title>
<path fill="azure" stroke="none" d="M113.62,-78.25C113.62,-78.25 62.37,-78.25 62.37,-78.25 56.38,-78.25 50.38,-72.25 50.38,-66.25 50.38,-66.25 50.38,-12 50.38,-12 50.38,-6 56.38,0 62.38,0 62.38,0 113.62,0 113.62,0 119.62,0 125.62,-6 125.62,-12 125.62,-12 125.62,-66.25 125.62,-66.25 125.62,-72.25 119.62,-78.25 113.62,-78.25"/>
<text xml:space="preserve" text-anchor="start" x="58.38" y="-57.95" font-family="Times,serif" font-weight="bold" font-size="14.00">FinalHold</text>
<text xml:space="preserve" text-anchor="start" x="58.38" y="-32.75" font-family="Times,serif" font-size="10.00">temperature()</text>
<text xml:space="preserve" text-anchor="start" x="58.38" y="-21.5" font-family="Times,serif" font-size="10.00">phase()</text>
<text xml:space="preserve" text-anchor="start" x="71.88" y="-10.25" font-family="Times,serif" font-size="10.00"> &#160;&#160;&#160;&#160;&#160;&#160;&#160;&#160;&#160;&#160;&#160;</text>
<polygon fill="#00688b" stroke="#00688b" points="50.38,-47.75 50.38,-47.75 125.62,-47.75 125.62,-47.75 50.38,-47.75"/>
<path fill="none" stroke="#00688b" d="M62.38,0C62.38,0 113.62,0 113.62,0 119.62,0 125.62,-6 125.62,-12 125.62,-12 125.62,-66.25 125.62,-66.25 125.62,-72.25 119.62,-78.25 113.62,-78.25 113.62,-78.25 62.37,-78.25 62.37,-78.25 56.38,-78.25 50.38,-72.25 50.38,-66.25 50.38,-66.25 50.38,-12 50.38,-12 50.38,-6 56.38,0 62.38,0"/>
</g>
<!-- Extend&#45;&gt;FinalHold -->
<g id="edge5" class="edge">
<title>Extend&#45;&gt;FinalHold</title>
<path fill="none" stroke="red" d="M88,-130.77C88,-117.37 88,-102.87 88,-89.47"/>
<polygon fill="red" stroke="red" points="91.5,-89.56 88,-79.56 84.5,-89.56 91.5,-89.56"/>
<text xml:space="preserve" text-anchor="middle" x="124.38" y="-99.45" font-family="Times,serif" font-size="14.00"> tick_minute </text>
</g>
</g>
</svg>
