<?xml version="1.0" encoding="UTF-8" standalone="no"?>
<!DOCTYPE svg PUBLIC "-//W3C//DTD SVG 1.1//EN"
 "http://www.w3.org/Graphics/SVG/1.1/DTD/svg11.dtd">
<!-- Generated by graphviz version 14.1.5 (20260411.2331)
 -->
<!-- Title: InfusionPump Pages: 1 -->
<svg width="350pt" height="587pt"
 viewBox="0.00 0.00 350.00 587.00" xmlns="http://www.w3.org/2000/svg" xmlns:xlink="http://www.w3.org/1999/xlink">
<g id="graph0" class="graph" transform="scale(1 1) rotate(0) translate(4 582.5)">
<title>InfusionPump</title>
<polygon fill="white" stroke="none" points="-4,4 -4,-582.5 345.75,-582.5 345.75,4 -4,4"/>
<g id="clust1" class="cluster">
<title>cluster_Operational</title>
<path fill="none" stroke="black" d="M20,-8C20,-8 150,-8 150,-8 156,-8 162,-14 162,-20 162,-20 162,-445.75 162,-445.75 162,-451.75 156,-457.75 150,-457.75 150,-457.75 20,-457.75 20,-457.75 14,-457.75 8,-451.75 8,-445.75 8,-445.75 8,-20 8,-20 8,-14 14,-8 20,-8"/>
<text xml:space="preserve" text-anchor="start" x="53.12" y="-437" font-family="Times,serif" font-size="14.00">Operational</text>
<polygon fill="black" stroke="black" points="49.12,-430.25 49.12,-430.25 120.88,-430.25 120.88,-430.25 49.12,-430.25"/>
</g>
<!-- Entry -->
<g id="node1" class="node">
<title>Entry</title>
<ellipse fill="black" stroke="#00688b" cx="154" cy="-539.38" rx="7.2" ry="7.2"/>
</g>
<!-- Operational -->
<g id="node2" class="node">
<title>Operational</title>
<ellipse fill="azure" stroke="#00688b" cx="154" cy="-366.5" rx="0.36" ry="0.36"/>
</g>
<!-- Entry&#45;&gt;Operational -->
<g id="edge1" class="edge">
<title>Entry&#45;&gt;Operational</title>
<path fill="none" stroke="red" d="M154,-531.89C154,-506.2 154,-411.48 154,-378.73"/>
<polygon fill="red" stroke="red" points="157.5,-379.11 154,-369.11 150.5,-379.11 157.5,-379.11"/>
</g>
<!-- Alarm -->
<g id="node7" class="node">
<title>Alarm</title>
<path fill="azure" stroke="none" d="M274.25,-269.25C274.25,-269.25 193.75,-269.25 193.75,-269.25 187.75,-269.25 181.75,-263.25 181.75,-257.25 181.75,-257.25 181.75,-158.75 181.75,-158.75 181.75,-152.75 187.75,-146.75 193.75,-146.75 193.75,-146.75 274.25,-146.75 274.25,-146.75 280.25,-146.75 286.25,-152.75 286.25,-158.75 286.25,-158.75 286.25,-257.25 286.25,-257.25 286.25,-263.25 280.25,-269.25 274.25,-269.25"/>
<text xml:space="preserve" text-anchor="start" x="214.88" y="-248.95" font-family="Times,serif" font-weight="bold" font-size="14.00">Alarm</text>
<text xml:space="preserve" text-anchor="start" x="189.75" y="-223.75" font-family="Times,serif" font-size="10.00">$&gt;()</text>
<text xml:space="preserve" text-anchor="start" x="189.75" y="-212.5" font-family="Times,serif" font-size="10.00">acknowledge_alarm()</text>
<text xml:space="preserve" text-anchor="start" x="189.75" y="-201.25" font-family="Times,serif" font-size="10.00">status()</text>
<text xml:space="preserve" text-anchor="start" x="220.5" y="-190" font-family="Times,serif" font-size="10.00"> &#160;&#160;&#160;&#160;&#160;&#160;&#160;&#160;&#160;&#160;&#160;</text>
<text xml:space="preserve" text-anchor="start" x="189.75" y="-167.5" font-family="Times,serif" font-size="9.00" fill="#666666">reason: str</text>
<text xml:space="preserve" text-anchor="start" x="194.62" y="-157" font-family="Times,serif" font-size="9.00" fill="#666666"> &#160;&#160;&#160;&#160;&#160;&#160;&#160;&#160;&#160;&#160;&#160;</text>
<polygon fill="#00688b" stroke="#00688b" points="181.75,-238.75 181.75,-238.75 286.25,-238.75 286.25,-238.75 181.75,-238.75"/>
<polygon fill="#00688b" stroke="#00688b" points="181.75,-181.75 181.75,-181.75 286.25,-181.75 286.25,-181.75 181.75,-181.75"/>
<path fill="none" stroke="#00688b" d="M193.75,-146.75C193.75,-146.75 274.25,-146.75 274.25,-146.75 280.25,-146.75 286.25,-152.75 286.25,-158.75 286.25,-158.75 286.25,-257.25 286.25,-257.25 286.25,-263.25 280.25,-269.25 274.25,-269.25 274.25,-269.25 193.75,-269.25 193.75,-269.25 187.75,-269.25 181.75,-263.25 181.75,-257.25 181.75,-257.25 181.75,-158.75 181.75,-158.75 181.75,-152.75 187.75,-146.75 193.75,-146.75"/>
</g>
<!-- Operational&#45;&gt;Alarm -->
<g id="edge2" class="edge">
<title>Operational&#45;&gt;Alarm</title>
<path fill="none" stroke="red" d="M162,-361.31C177.31,-352.8 210.53,-331.89 225,-303.75 228.74,-296.48 231.37,-288.47 233.18,-280.29"/>
<polygon fill="red" stroke="red" points="236.6,-281.03 234.9,-270.57 229.71,-279.81 236.6,-281.03"/>
<text xml:space="preserve" text-anchor="middle" x="286.25" y="-290.45" font-family="Times,serif" font-size="14.00"> occlusion_detected </text>
</g>
<!-- Idle -->
<g id="node3" class="node">
<title>Idle</title>
<path fill="azure" stroke="none" d="M123.75,-411.25C123.75,-411.25 28.25,-411.25 28.25,-411.25 22.25,-411.25 16.25,-405.25 16.25,-399.25 16.25,-399.25 16.25,-333.75 16.25,-333.75 16.25,-327.75 22.25,-321.75 28.25,-321.75 28.25,-321.75 123.75,-321.75 123.75,-321.75 129.75,-321.75 135.75,-327.75 135.75,-333.75 135.75,-333.75 135.75,-399.25 135.75,-399.25 135.75,-405.25 129.75,-411.25 123.75,-411.25"/>
<text xml:space="preserve" text-anchor="start" x="64.75" y="-390.95" font-family="Times,serif" font-weight="bold" font-size="14.00">Idle</text>
<text xml:space="preserve" text-anchor="start" x="24.25" y="-365.75" font-family="Times,serif" font-size="10.00">set_rate(ml_per_hr: float)</text>
<text xml:space="preserve" text-anchor="start" x="24.25" y="-354.5" font-family="Times,serif" font-size="10.00">prime()</text>
<text xml:space="preserve" text-anchor="start" x="24.25" y="-343.25" font-family="Times,serif" font-size="10.00">status()</text>
<text xml:space="preserve" text-anchor="start" x="58" y="-332" font-family="Times,serif" font-size="10.00"> &#160;&#160;&#160;&#160;&#160;&#160;&#160;&#160;&#160;&#160;&#160;&#160;&#160;&#160;&#160;</text>
<polygon fill="#00688b" stroke="#00688b" points="16.25,-380.75 16.25,-380.75 135.75,-380.75 135.75,-380.75 16.25,-380.75"/>
<path fill="none" stroke="#00688b" d="M28.25,-321.75C28.25,-321.75 123.75,-321.75 123.75,-321.75 129.75,-321.75 135.75,-327.75 135.75,-333.75 135.75,-333.75 135.75,-399.25 135.75,-399.25 135.75,-405.25 129.75,-411.25 123.75,-411.25 123.75,-411.25 28.25,-411.25 28.25,-411.25 22.25,-411.25 16.25,-405.25 16.25,-399.25 16.25,-399.25 16.25,-333.75 16.25,-333.75 16.25,-327.75 22.25,-321.75 28.25,-321.75"/>
</g>
<!-- Primed -->
<g id="node4" class="node">
<title>Primed</title>
<path fill="azure" stroke="none" d="M82.12,-247.12C82.12,-247.12 27.88,-247.12 27.88,-247.12 21.88,-247.12 15.88,-241.12 15.88,-235.12 15.88,-235.12 15.88,-180.88 15.88,-180.88 15.88,-174.88 21.88,-168.88 27.88,-168.88 27.88,-168.88 82.12,-168.88 82.12,-168.88 88.12,-168.88 94.12,-174.88 94.12,-180.88 94.12,-180.88 94.12,-235.12 94.12,-235.12 94.12,-241.12 88.12,-247.12 82.12,-247.12"/>
<text xml:space="preserve" text-anchor="start" x="33.25" y="-226.82" font-family="Times,serif" font-weight="bold" font-size="14.00">Primed</text>
<text xml:space="preserve" text-anchor="start" x="23.88" y="-201.62" font-family="Times,serif" font-size="10.00">start_infusion()</text>
<text xml:space="preserve" text-anchor="start" x="23.88" y="-190.38" font-family="Times,serif" font-size="10.00">status()</text>
<text xml:space="preserve" text-anchor="start" x="37" y="-179.12" font-family="Times,serif" font-size="10.00"> &#160;&#160;&#160;&#160;&#160;&#160;&#160;&#160;&#160;&#160;&#160;&#160;&#160;&#160;&#160;</text>
<polygon fill="#00688b" stroke="#00688b" points="15.88,-216.62 15.88,-216.62 94.12,-216.62 94.12,-216.62 15.88,-216.62"/>
<path fill="none" stroke="#00688b" d="M27.88,-168.88C27.88,-168.88 82.12,-168.88 82.12,-168.88 88.12,-168.88 94.12,-174.88 94.12,-180.88 94.12,-180.88 94.12,-235.12 94.12,-235.12 94.12,-241.12 88.12,-247.12 82.12,-247.12 82.12,-247.12 27.88,-247.12 27.88,-247.12 21.88,-247.12 15.88,-241.12 15.88,-235.12 15.88,-235.12 15.88,-180.88 15.88,-180.88 15.88,-174.88 21.88,-168.88 27.88,-168.88"/>
</g>
<!-- Idle&#45;&gt;Primed -->
<g id="edge4" class="edge">
<title>Idle&#45;&gt;Primed</title>
<path fill="none" stroke="red" d="M51.26,-321.91C48.79,-315.96 46.68,-309.81 45.25,-303.75 41.78,-289 42.04,-272.67 43.81,-257.78"/>
<polygon fill="red" stroke="red" points="47.23,-258.62 45.2,-248.22 40.3,-257.61 47.23,-258.62"/>
<text xml:space="preserve" text-anchor="middle" x="65.12" y="-290.45" font-family="Times,serif" font-size="14.00"> prime </text>
</g>
<!-- Running -->
<g id="node5" class="node">
<title>Running</title>
<path fill="azure" stroke="none" d="M78.75,-94.25C78.75,-94.25 31.25,-94.25 31.25,-94.25 25.25,-94.25 19.25,-88.25 19.25,-82.25 19.25,-82.25 19.25,-28 19.25,-28 19.25,-22 25.25,-16 31.25,-16 31.25,-16 78.75,-16 78.75,-16 84.75,-16 90.75,-22 90.75,-28 90.75,-28 90.75,-82.25 90.75,-82.25 90.75,-88.25 84.75,-94.25 78.75,-94.25"/>
<text xml:space="preserve" text-anchor="start" x="29.88" y="-73.95" font-family="Times,serif" font-weight="bold" font-size="14.00">Running</text>
<text xml:space="preserve" text-anchor="start" x="27.25" y="-48.75" font-family="Times,serif" font-size="10.00">tick_minute()</text>
<text xml:space="preserve" text-anchor="start" x="27.25" y="-37.5" font-family="Times,serif" font-size="10.00">status()</text>
<text xml:space="preserve" text-anchor="start" x="37" y="-26.25" font-family="Times,serif" font-size="10.00"> &#160;&#160;&#160;&#160;&#160;&#160;&#160;&#160;&#160;&#160;&#160;&#160;&#160;&#160;&#160;</text>
<polygon fill="#00688b" stroke="#00688b" points="19.25,-63.75 19.25,-63.75 90.75,-63.75 90.75,-63.75 19.25,-63.75"/>
<path fill="none" stroke="#00688b" d="M31.25,-16C31.25,-16 78.75,-16 78.75,-16 84.75,-16 90.75,-22 90.75,-28 90.75,-28 90.75,-82.25 90.75,-82.25 90.75,-88.25 84.75,-94.25 78.75,-94.25 78.75,-94.25 31.25,-94.25 31.25,-94.25 25.25,-94.25 19.25,-88.25 19.25,-82.25 19.25,-82.25 19.25,-28 19.25,-28 19.25,-22 25.25,-16 31.25,-16"/>
</g>
<!-- Primed&#45;&gt;Running -->
<g id="edge5" class="edge">
<title>Primed&#45;&gt;Running</title>
<path fill="none" stroke="red" d="M55,-168.93C55,-149.72 55,-126.19 55,-105.59"/>
<polygon fill="red" stroke="red" points="58.5,-105.7 55,-95.7 51.5,-105.7 58.5,-105.7"/>
<text xml:space="preserve" text-anchor="middle" x="95.88" y="-115.45" font-family="Times,serif" font-size="14.00"> start_infusion </text>
</g>
<!-- Off -->
<g id="node6" class="node">
<title>Off</title>
<path fill="azure" stroke="none" d="M95.62,-578.5C95.62,-578.5 56.38,-578.5 56.38,-578.5 50.38,-578.5 44.38,-572.5 44.38,-566.5 44.38,-566.5 44.38,-512.25 44.38,-512.25 44.38,-506.25 50.38,-500.25 56.38,-500.25 56.38,-500.25 95.62,-500.25 95.62,-500.25 101.62,-500.25 107.62,-506.25 107.62,-512.25 107.62,-512.25 107.62,-566.5 107.62,-566.5 107.62,-572.5 101.62,-578.5 95.62,-578.5"/>
<text xml:space="preserve" text-anchor="start" x="65.88" y="-558.2" font-family="Times,serif" font-weight="bold" font-size="14.00">Off</text>
<text xml:space="preserve" text-anchor="start" x="52.38" y="-533" font-family="Times,serif" font-size="10.00">power_on()</text>
<text xml:space="preserve" text-anchor="start" x="52.38" y="-521.75" font-family="Times,serif" font-size="10.00">status()</text>
<text xml:space="preserve" text-anchor="start" x="62.5" y="-510.5" font-family="Times,serif" font-size="10.00"> &#160;&#160;&#160;&#160;&#160;&#160;&#160;&#160;&#160;&#160;&#160;</text>
<polygon fill="#00688b" stroke="#00688b" points="44.38,-548 44.38,-548 107.62,-548 107.62,-548 44.38,-548"/>
<path fill="none" stroke="#00688b" d="M56.38,-500.25C56.38,-500.25 95.62,-500.25 95.62,-500.25 101.62,-500.25 107.62,-506.25 107.62,-512.25 107.62,-512.25 107.62,-566.5 107.62,-566.5 107.62,-572.5 101.62,-578.5 95.62,-578.5 95.62,-578.5 56.38,-578.5 56.38,-578.5 50.38,-578.5 44.38,-572.5 44.38,-566.5 44.38,-566.5 44.38,-512.25 44.38,-512.25 44.38,-506.25 50.38,-500.25 56.38,-500.25"/>
</g>
<!-- Off&#45;&gt;Idle -->
<g id="edge3" class="edge">
<title>Off&#45;&gt;Idle</title>
<path fill="none" stroke="red" d="M76,-500.45C76,-477.52 76,-447.88 76,-422.41"/>
<polygon fill="red" stroke="red" points="79.5,-422.56 76,-412.56 72.5,-422.56 79.5,-422.56"/>
<text xml:space="preserve" text-anchor="middle" x="106.75" y="-468.95" font-family="Times,serif" font-size="14.00"> power_on </text>
</g>
<!-- Alarm&#45;&gt;Idle -->
<g id="edge6" class="edge">
<title>Alarm&#45;&gt;Idle</title>
<path fill="none" stroke="red" d="M181.87,-259.08C176.71,-262.82 171.39,-266.28 166,-269.25 140.87,-283.1 124.9,-267.59 104,-287.25 96.98,-293.86 91.71,-302.35 87.76,-311.29"/>
<polygon fill="red" stroke="red" points="84.55,-309.91 84.25,-320.5 91.09,-312.4 84.55,-309.91"/>
<text xml:space="preserve" text-anchor="middle" x="162.5" y="-290.45" font-family="Times,serif" font-size="14.00"> acknowledge_alarm </text>
</g>
</g>
</svg>
