<?xml version="1.0" encoding="UTF-8" standalone="no"?>
<!DOCTYPE svg PUBLIC "-//W3C//DTD SVG 1.1//EN"
 "http://www.w3.org/Graphics/SVG/1.1/DTD/svg11.dtd">
<!-- Generated by graphviz version 14.1.5 (20260411.2331)
 -->
<!-- Title: Ventilator Pages: 1 -->
<svg width="414pt" height="650pt"
 viewBox="0.00 0.00 414.00 650.00" xmlns="http://www.w3.org/2000/svg" xmlns:xlink="http://www.w3.org/1999/xlink">
<g id="graph0" class="graph" transform="scale(1 1) rotate(0) translate(4 645.9)">
<title>Ventilator</title>
<polygon fill="white" stroke="none" points="-4,4 -4,-645.9 410,-645.9 410,4 -4,4"/>
<g id="clust1" class="cluster">
<title>cluster_Ventilating</title>
<path fill="none" stroke="black" d="M20,-8C20,-8 386,-8 386,-8 392,-8 398,-14 398,-20 398,-20 398,-457.75 398,-457.75 398,-463.75 392,-469.75 386,-469.75 386,-469.75 20,-469.75 20,-469.75 14,-469.75 8,-463.75 8,-457.75 8,-457.75 8,-20 8,-20 8,-14 14,-8 20,-8"/>
<text xml:space="preserve" text-anchor="start" x="173.38" y="-449" font-family="Times,serif" font-size="14.00">Ventilating</text>
<polygon fill="black" stroke="black" points="169.38,-442.25 169.38,-442.25 236.62,-442.25 236.62,-442.25 169.38,-442.25"/>
</g>
<!-- Entry -->
<g id="node1" class="node">
<title>Entry</title>
<ellipse fill="black" stroke="#00688b" cx="212" cy="-634.7" rx="7.2" ry="7.2"/>
</g>
<!-- Off -->
<g id="node2" class="node">
<title>Off</title>
<path fill="azure" stroke="none" d="M231.62,-590.5C231.62,-590.5 192.38,-590.5 192.38,-590.5 186.38,-590.5 180.38,-584.5 180.38,-578.5 180.38,-578.5 180.38,-524.25 180.38,-524.25 180.38,-518.25 186.38,-512.25 192.38,-512.25 192.38,-512.25 231.62,-512.25 231.62,-512.25 237.62,-512.25 243.62,-518.25 243.62,-524.25 243.62,-524.25 243.62,-578.5 243.62,-578.5 243.62,-584.5 237.62,-590.5 231.62,-590.5"/>
<text xml:space="preserve" text-anchor="start" x="201.88" y="-570.2" font-family="Times,serif" font-weight="bold" font-size="14.00">Off</text>
<text xml:space="preserve" text-anchor="start" x="188.38" y="-545" font-family="Times,serif" font-size="10.00">power_on()</text>
<text xml:space="preserve" text-anchor="start" x="188.38" y="-533.75" font-family="Times,serif" font-size="10.00">phase()</text>
<text xml:space="preserve" text-anchor="start" x="198.5" y="-522.5" font-family="Times,serif" font-size="10.00"> &#160;&#160;&#160;&#160;&#160;&#160;&#160;&#160;&#160;&#160;&#160;</text>
<polygon fill="#00688b" stroke="#00688b" points="180.38,-560 180.38,-560 243.62,-560 243.62,-560 180.38,-560"/>
<path fill="none" stroke="#00688b" d="M192.38,-512.25C192.38,-512.25 231.62,-512.25 231.62,-512.25 237.62,-512.25 243.62,-518.25 243.62,-524.25 243.62,-524.25 243.62,-578.5 243.62,-578.5 243.62,-584.5 237.62,-590.5 231.62,-590.5 231.62,-590.5 192.38,-590.5 192.38,-590.5 186.38,-590.5 180.38,-584.5 180.38,-578.5 180.38,-578.5 180.38,-524.25 180.38,-524.25 180.38,-518.25 186.38,-512.25 192.38,-512.25"/>
</g>
<!-- Entry&#45;&gt;Off -->
<g id="edge1" class="edge">
<title>Entry&#45;&gt;Off</title>
<path fill="none" stroke="red" d="M212,-627.04C212,-621.03 212,-611.57 212,-601.38"/>
<polygon fill="red" stroke="red" points="215.5,-601.69 212,-591.69 208.5,-601.69 215.5,-601.69"/>
</g>
<!-- Inspiration -->
<g id="node4" class="node">
<title>Inspiration</title>
<path fill="azure" stroke="none" d="M216.62,-423.25C216.62,-423.25 123.38,-423.25 123.38,-423.25 117.38,-423.25 111.38,-417.25 111.38,-411.25 111.38,-411.25 111.38,-334.5 111.38,-334.5 111.38,-328.5 117.38,-322.5 123.38,-322.5 123.38,-322.5 216.62,-322.5 216.62,-322.5 222.62,-322.5 228.62,-328.5 228.62,-334.5 228.62,-334.5 228.62,-411.25 228.62,-411.25 228.62,-417.25 222.62,-423.25 216.62,-423.25"/>
<text xml:space="preserve" text-anchor="start" x="137.75" y="-402.95" font-family="Times,serif" font-weight="bold" font-size="14.00">Inspiration</text>
<text xml:space="preserve" text-anchor="start" x="119.38" y="-377.75" font-family="Times,serif" font-size="10.00">$&gt;()</text>
<text xml:space="preserve" text-anchor="start" x="119.38" y="-366.5" font-family="Times,serif" font-size="10.00">tick_ms(ms: int)</text>
<text xml:space="preserve" text-anchor="start" x="119.38" y="-355.25" font-family="Times,serif" font-size="10.00">patient_effort_detected()</text>
<text xml:space="preserve" text-anchor="start" x="119.38" y="-344" font-family="Times,serif" font-size="10.00">phase()</text>
<text xml:space="preserve" text-anchor="start" x="152" y="-332.75" font-family="Times,serif" font-size="10.00"> &#160;&#160;&#160;&#160;&#160;&#160;&#160;&#160;&#160;&#160;&#160;&#160;&#160;&#160;&#160;</text>
<polygon fill="#00688b" stroke="#00688b" points="111.38,-392.75 111.38,-392.75 228.62,-392.75 228.62,-392.75 111.38,-392.75"/>
<path fill="none" stroke="#00688b" d="M123.38,-322.5C123.38,-322.5 216.62,-322.5 216.62,-322.5 222.62,-322.5 228.62,-328.5 228.62,-334.5 228.62,-334.5 228.62,-411.25 228.62,-411.25 228.62,-417.25 222.62,-423.25 216.62,-423.25 216.62,-423.25 123.38,-423.25 123.38,-423.25 117.38,-423.25 111.38,-417.25 111.38,-411.25 111.38,-411.25 111.38,-334.5 111.38,-334.5 111.38,-328.5 117.38,-322.5 123.38,-322.5"/>
</g>
<!-- Off&#45;&gt;Inspiration -->
<g id="edge2" class="edge">
<title>Off&#45;&gt;Inspiration</title>
<path fill="none" stroke="red" d="M180.52,-513.15C176.84,-507.14 173.65,-500.75 171.5,-494.25 165.26,-475.34 163.46,-453.82 163.65,-434.27"/>
<polygon fill="red" stroke="red" points="167.14,-434.62 163.94,-424.53 160.15,-434.42 167.14,-434.62"/>
<text xml:space="preserve" text-anchor="middle" x="202.25" y="-480.95" font-family="Times,serif" font-size="14.00"> power_on </text>
</g>
<!-- Ventilating -->
<g id="node3" class="node">
<title>Ventilating</title>
<ellipse fill="azure" stroke="#00688b" cx="255" cy="-372.88" rx="0.36" ry="0.36"/>
</g>
<!-- Ventilating&#45;&gt;Off -->
<g id="edge3" class="edge">
<title>Ventilating&#45;&gt;Off</title>
<path fill="none" stroke="red" d="M239.26,-469.75C237.36,-478.08 235.27,-486.35 233,-494.25 232.31,-496.65 231.57,-499.09 230.79,-501.54"/>
<polygon fill="red" stroke="red" points="227.52,-500.27 227.64,-510.87 234.15,-502.51 227.52,-500.27"/>
<text xml:space="preserve" text-anchor="middle" x="252.26" y="-480.95" font-family="Times,serif" font-size="14.00"> stop </text>
</g>
<!-- Expiration -->
<g id="node5" class="node">
<title>Expiration</title>
<path fill="azure" stroke="none" d="M121.62,-270C121.62,-270 28.38,-270 28.38,-270 22.38,-270 16.38,-264 16.38,-258 16.38,-258 16.38,-181.25 16.38,-181.25 16.38,-175.25 22.38,-169.25 28.38,-169.25 28.38,-169.25 121.62,-169.25 121.62,-169.25 127.62,-169.25 133.62,-175.25 133.62,-181.25 133.62,-181.25 133.62,-258 133.62,-258 133.62,-264 127.62,-270 121.62,-270"/>
<text xml:space="preserve" text-anchor="start" x="43.88" y="-249.7" font-family="Times,serif" font-weight="bold" font-size="14.00">Expiration</text>
<text xml:space="preserve" text-anchor="start" x="24.38" y="-224.5" font-family="Times,serif" font-size="10.00">$&gt;()</text>
<text xml:space="preserve" text-anchor="start" x="24.38" y="-213.25" font-family="Times,serif" font-size="10.00">tick_ms(ms: int)</text>
<text xml:space="preserve" text-anchor="start" x="24.38" y="-202" font-family="Times,serif" font-size="10.00">patient_effort_detected()</text>
<text xml:space="preserve" text-anchor="start" x="24.38" y="-190.75" font-family="Times,serif" font-size="10.00">phase()</text>
<text xml:space="preserve" text-anchor="start" x="57" y="-179.5" font-family="Times,serif" font-size="10.00"> &#160;&#160;&#160;&#160;&#160;&#160;&#160;&#160;&#160;&#160;&#160;&#160;&#160;&#160;&#160;</text>
<polygon fill="#00688b" stroke="#00688b" points="16.38,-239.5 16.38,-239.5 133.62,-239.5 133.62,-239.5 16.38,-239.5"/>
<path fill="none" stroke="#00688b" d="M28.38,-169.25C28.38,-169.25 121.62,-169.25 121.62,-169.25 127.62,-169.25 133.62,-175.25 133.62,-181.25 133.62,-181.25 133.62,-258 133.62,-258 133.62,-264 127.62,-270 121.62,-270 121.62,-270 28.38,-270 28.38,-270 22.38,-270 16.38,-264 16.38,-258 16.38,-258 16.38,-181.25 16.38,-181.25 16.38,-175.25 22.38,-169.25 28.38,-169.25"/>
</g>
<!-- Inspiration&#45;&gt;Expiration -->
<g id="edge4" class="edge">
<title>Inspiration&#45;&gt;Expiration</title>
<path fill="none" stroke="red" d="M126.62,-322.56C122.13,-316.63 117.82,-310.54 114,-304.5 109.11,-296.78 104.48,-288.35 100.21,-279.91"/>
<polygon fill="red" stroke="red" points="103.4,-278.47 95.87,-271.02 97.11,-281.54 103.4,-278.47"/>
<text xml:space="preserve" text-anchor="middle" x="139.5" y="-291.2" font-family="Times,serif" font-size="14.00"> tick_ms </text>
</g>
<!-- Pause -->
<g id="node6" class="node">
<title>Pause</title>
<path fill="azure" stroke="none" d="M216.62,-116.75C216.62,-116.75 123.38,-116.75 123.38,-116.75 117.38,-116.75 111.38,-110.75 111.38,-104.75 111.38,-104.75 111.38,-28 111.38,-28 111.38,-22 117.38,-16 123.38,-16 123.38,-16 216.62,-16 216.62,-16 222.62,-16 228.62,-22 228.62,-28 228.62,-28 228.62,-104.75 228.62,-104.75 228.62,-110.75 222.62,-116.75 216.62,-116.75"/>
<text xml:space="preserve" text-anchor="start" x="153.12" y="-96.45" font-family="Times,serif" font-weight="bold" font-size="14.00">Pause</text>
<text xml:space="preserve" text-anchor="start" x="119.38" y="-71.25" font-family="Times,serif" font-size="10.00">$&gt;()</text>
<text xml:space="preserve" text-anchor="start" x="119.38" y="-60" font-family="Times,serif" font-size="10.00">tick_ms(ms: int)</text>
<text xml:space="preserve" text-anchor="start" x="119.38" y="-48.75" font-family="Times,serif" font-size="10.00">patient_effort_detected()</text>
<text xml:space="preserve" text-anchor="start" x="119.38" y="-37.5" font-family="Times,serif" font-size="10.00">phase()</text>
<text xml:space="preserve" text-anchor="start" x="152" y="-26.25" font-family="Times,serif" font-size="10.00"> &#160;&#160;&#160;&#160;&#160;&#160;&#160;&#160;&#160;&#160;&#160;&#160;&#160;&#160;&#160;</text>
<polygon fill="#00688b" stroke="#00688b" points="111.38,-86.25 111.38,-86.25 228.62,-86.25 228.62,-86.25 111.38,-86.25"/>
<path fill="none" stroke="#00688b" d="M123.38,-16C123.38,-16 216.62,-16 216.62,-16 222.62,-16 228.62,-22 228.62,-28 228.62,-28 228.62,-104.75 228.62,-104.75 228.62,-110.75 222.62,-116.75 216.62,-116.75 216.62,-116.75 123.38,-116.75 123.38,-116.75 117.38,-116.75 111.38,-110.75 111.38,-104.75 111.38,-104.75 111.38,-28 111.38,-28 111.38,-22 117.38,-16 123.38,-16"/>
</g>
<!-- Expiration&#45;&gt;Pause -->
<g id="edge5" class="edge">
<title>Expiration&#45;&gt;Pause</title>
<path fill="none" stroke="red" d="M95.21,-169.6C100.74,-157.87 107.13,-145.6 114,-134.75 115.85,-131.82 117.82,-128.89 119.86,-125.96"/>
<polygon fill="red" stroke="red" points="122.66,-128.06 125.72,-117.92 117.01,-123.94 122.66,-128.06"/>
<text xml:space="preserve" text-anchor="middle" x="139.5" y="-137.95" font-family="Times,serif" font-size="14.00"> tick_ms </text>
</g>
<!-- Pause&#45;&gt;Inspiration -->
<g id="edge6" class="edge">
<title>Pause&#45;&gt;Inspiration</title>
<path fill="none" stroke="red" d="M170,-116.57C170,-169.61 170,-254.1 170,-311.22"/>
<polygon fill="red" stroke="red" points="166.5,-311.1 170,-321.1 173.5,-311.1 166.5,-311.1"/>
<text xml:space="preserve" text-anchor="middle" x="195.5" y="-214.57" font-family="Times,serif" font-size="14.00"> tick_ms </text>
</g>
<!-- Pause&#45;&gt;Inspiration -->
<g id="edge7" class="edge">
<title>Pause&#45;&gt;Inspiration</title>
<path fill="none" stroke="red" d="M202.93,-116.64C211.91,-132.73 220.42,-151.13 225,-169.25 235.97,-212.66 235.97,-226.59 225,-270 221.35,-284.44 215.2,-299.06 208.31,-312.54"/>
<polygon fill="red" stroke="red" points="205.27,-310.8 203.64,-321.27 211.45,-314.11 205.27,-310.8"/>
<text xml:space="preserve" text-anchor="middle" x="299.6" y="-214.57" font-family="Times,serif" font-size="14.00"> patient_effort_detected </text>
</g>
</g>
</svg>
