<?xml version="1.0" encoding="UTF-8" standalone="no"?>
<!DOCTYPE svg PUBLIC "-//W3C//DTD SVG 1.1//EN"
 "http://www.w3.org/Graphics/SVG/1.1/DTD/svg11.dtd">
<!-- Generated by graphviz version 14.1.5 (20260411.2331)
 -->
<!-- Title: AED Pages: 1 -->
<svg width="376pt" height="803pt"
 viewBox="0.00 0.00 376.00 803.00" xmlns="http://www.w3.org/2000/svg" xmlns:xlink="http://www.w3.org/1999/xlink">
<g id="graph0" class="graph" transform="scale(1 1) rotate(0) translate(4 798.65)">
<title>AED</title>
<polygon fill="white" stroke="none" points="-4,4 -4,-798.65 371.98,-798.65 371.98,4 -4,4"/>
<!-- Entry -->
<g id="node1" class="node">
<title>Entry</title>
<ellipse fill="black" stroke="#00688b" cx="152" cy="-787.45" rx="7.2" ry="7.2"/>
</g>
<!-- Off -->
<g id="node2" class="node">
<title>Off</title>
<path fill="azure" stroke="none" d="M171.62,-743.25C171.62,-743.25 132.38,-743.25 132.38,-743.25 126.38,-743.25 120.38,-737.25 120.38,-731.25 120.38,-731.25 120.38,-677 120.38,-677 120.38,-671 126.38,-665 132.38,-665 132.38,-665 171.62,-665 171.62,-665 177.62,-665 183.62,-671 183.62,-677 183.62,-677 183.62,-731.25 183.62,-731.25 183.62,-737.25 177.62,-743.25 171.62,-743.25"/>
<text xml:space="preserve" text-anchor="start" x="141.88" y="-722.95" font-family="Times,serif" font-weight="bold" font-size="14.00">Off</text>
<text xml:space="preserve" text-anchor="start" x="128.38" y="-697.75" font-family="Times,serif" font-size="10.00">power_on()</text>
<text xml:space="preserve" text-anchor="start" x="128.38" y="-686.5" font-family="Times,serif" font-size="10.00">status()</text>
<text xml:space="preserve" text-anchor="start" x="138.5" y="-675.25" font-family="Times,serif" font-size="10.00"> &#160;&#160;&#160;&#160;&#160;&#160;&#160;&#160;&#160;&#160;&#160;</text>
<polygon fill="#00688b" stroke="#00688b" points="120.38,-712.75 120.38,-712.75 183.62,-712.75 183.62,-712.75 120.38,-712.75"/>
<path fill="none" stroke="#00688b" d="M132.38,-665C132.38,-665 171.62,-665 171.62,-665 177.62,-665 183.62,-671 183.62,-677 183.62,-677 183.62,-731.25 183.62,-731.25 183.62,-737.25 177.62,-743.25 171.62,-743.25 171.62,-743.25 132.38,-743.25 132.38,-743.25 126.38,-743.25 120.38,-737.25 120.38,-731.25 120.38,-731.25 120.38,-677 120.38,-677 120.38,-671 126.38,-665 132.38,-665"/>
</g>
<!-- Entry&#45;&gt;Off -->
<g id="edge1" class="edge">
<title>Entry&#45;&gt;Off</title>
<path fill="none" stroke="red" d="M152,-779.79C152,-773.78 152,-764.32 152,-754.13"/>
<polygon fill="red" stroke="red" points="155.5,-754.44 152,-744.44 148.5,-754.44 155.5,-754.44"/>
</g>
<!-- AwaitingPads -->
<g id="node3" class="node">
<title>AwaitingPads</title>
<path fill="azure" stroke="none" d="M188.12,-612.5C188.12,-612.5 115.88,-612.5 115.88,-612.5 109.88,-612.5 103.88,-606.5 103.88,-600.5 103.88,-600.5 103.88,-546.25 103.88,-546.25 103.88,-540.25 109.88,-534.25 115.88,-534.25 115.88,-534.25 188.12,-534.25 188.12,-534.25 194.12,-534.25 200.12,-540.25 200.12,-546.25 200.12,-546.25 200.12,-600.5 200.12,-600.5 200.12,-606.5 194.12,-612.5 188.12,-612.5"/>
<text xml:space="preserve" text-anchor="start" x="111.88" y="-592.2" font-family="Times,serif" font-weight="bold" font-size="14.00">AwaitingPads</text>
<text xml:space="preserve" text-anchor="start" x="111.88" y="-567" font-family="Times,serif" font-size="10.00">pads_attached()</text>
<text xml:space="preserve" text-anchor="start" x="111.88" y="-555.75" font-family="Times,serif" font-size="10.00">status()</text>
<text xml:space="preserve" text-anchor="start" x="130.62" y="-544.5" font-family="Times,serif" font-size="10.00"> &#160;&#160;&#160;&#160;&#160;&#160;&#160;&#160;&#160;&#160;&#160;</text>
<polygon fill="#00688b" stroke="#00688b" points="103.88,-582 103.88,-582 200.12,-582 200.12,-582 103.88,-582"/>
<path fill="none" stroke="#00688b" d="M115.88,-534.25C115.88,-534.25 188.12,-534.25 188.12,-534.25 194.12,-534.25 200.12,-540.25 200.12,-546.25 200.12,-546.25 200.12,-600.5 200.12,-600.5 200.12,-606.5 194.12,-612.5 188.12,-612.5 188.12,-612.5 115.88,-612.5 115.88,-612.5 109.88,-612.5 103.88,-606.5 103.88,-600.5 103.88,-600.5 103.88,-546.25 103.88,-546.25 103.88,-540.25 109.88,-534.25 115.88,-534.25"/>
</g>
<!-- Off&#45;&gt;AwaitingPads -->
<g id="edge2" class="edge">
<title>Off&#45;&gt;AwaitingPads</title>
<path fill="none" stroke="red" d="M152,-665.19C152,-652.21 152,-637.49 152,-623.74"/>
<polygon fill="red" stroke="red" points="155.5,-624 152,-614 148.5,-624 155.5,-624"/>
<text xml:space="preserve" text-anchor="middle" x="182.75" y="-633.7" font-family="Times,serif" font-size="14.00"> power_on </text>
</g>
<!-- Analyzing -->
<g id="node4" class="node">
<title>Analyzing</title>
<path fill="azure" stroke="none" d="M207.62,-481.75C207.62,-481.75 96.38,-481.75 96.38,-481.75 90.38,-481.75 84.38,-475.75 84.38,-469.75 84.38,-469.75 84.38,-415.5 84.38,-415.5 84.38,-409.5 90.38,-403.5 96.38,-403.5 96.38,-403.5 207.62,-403.5 207.62,-403.5 213.62,-403.5 219.62,-409.5 219.62,-415.5 219.62,-415.5 219.62,-469.75 219.62,-469.75 219.62,-475.75 213.62,-481.75 207.62,-481.75"/>
<text xml:space="preserve" text-anchor="start" x="122.75" y="-461.45" font-family="Times,serif" font-weight="bold" font-size="14.00">Analyzing</text>
<text xml:space="preserve" text-anchor="start" x="92.38" y="-436.25" font-family="Times,serif" font-size="10.00">rhythm_detected(rhythm: str)</text>
<text xml:space="preserve" text-anchor="start" x="92.38" y="-425" font-family="Times,serif" font-size="10.00">status()</text>
<text xml:space="preserve" text-anchor="start" x="138.5" y="-413.75" font-family="Times,serif" font-size="10.00"> &#160;&#160;&#160;&#160;&#160;&#160;&#160;&#160;&#160;&#160;&#160;</text>
<polygon fill="#00688b" stroke="#00688b" points="84.38,-451.25 84.38,-451.25 219.62,-451.25 219.62,-451.25 84.38,-451.25"/>
<path fill="none" stroke="#00688b" d="M96.38,-403.5C96.38,-403.5 207.62,-403.5 207.62,-403.5 213.62,-403.5 219.62,-409.5 219.62,-415.5 219.62,-415.5 219.62,-469.75 219.62,-469.75 219.62,-475.75 213.62,-481.75 207.62,-481.75 207.62,-481.75 96.38,-481.75 96.38,-481.75 90.38,-481.75 84.38,-475.75 84.38,-469.75 84.38,-469.75 84.38,-415.5 84.38,-415.5 84.38,-409.5 90.38,-403.5 96.38,-403.5"/>
</g>
<!-- AwaitingPads&#45;&gt;Analyzing -->
<g id="edge3" class="edge">
<title>AwaitingPads&#45;&gt;Analyzing</title>
<path fill="none" stroke="red" d="M152,-534.44C152,-521.46 152,-506.74 152,-492.99"/>
<polygon fill="red" stroke="red" points="155.5,-493.25 152,-483.25 148.5,-493.25 155.5,-493.25"/>
<text xml:space="preserve" text-anchor="middle" x="194" y="-502.95" font-family="Times,serif" font-size="14.00"> pads_attached </text>
</g>
<!-- Charging -->
<g id="node5" class="node">
<title>Charging</title>
<path fill="azure" stroke="none" d="M70,-351C70,-351 12,-351 12,-351 6,-351 0,-345 0,-339 0,-339 0,-273.5 0,-273.5 0,-267.5 6,-261.5 12,-261.5 12,-261.5 70,-261.5 70,-261.5 76,-261.5 82,-267.5 82,-273.5 82,-273.5 82,-339 82,-339 82,-345 76,-351 70,-351"/>
<text xml:space="preserve" text-anchor="start" x="13.62" y="-330.7" font-family="Times,serif" font-weight="bold" font-size="14.00">Charging</text>
<text xml:space="preserve" text-anchor="start" x="8" y="-305.5" font-family="Times,serif" font-size="10.00">$&gt;()</text>
<text xml:space="preserve" text-anchor="start" x="8" y="-294.25" font-family="Times,serif" font-size="10.00">tick_ms(ms: int)</text>
<text xml:space="preserve" text-anchor="start" x="8" y="-283" font-family="Times,serif" font-size="10.00">status()</text>
<text xml:space="preserve" text-anchor="start" x="27.5" y="-271.75" font-family="Times,serif" font-size="10.00"> &#160;&#160;&#160;&#160;&#160;&#160;&#160;&#160;&#160;&#160;&#160;</text>
<polygon fill="#00688b" stroke="#00688b" points="0,-320.5 0,-320.5 82,-320.5 82,-320.5 0,-320.5"/>
<path fill="none" stroke="#00688b" d="M12,-261.5C12,-261.5 70,-261.5 70,-261.5 76,-261.5 82,-267.5 82,-273.5 82,-273.5 82,-339 82,-339 82,-345 76,-351 70,-351 70,-351 12,-351 12,-351 6,-351 0,-345 0,-339 0,-339 0,-273.5 0,-273.5 0,-267.5 6,-261.5 12,-261.5"/>
</g>
<!-- Analyzing&#45;&gt;Charging -->
<g id="edge4" class="edge">
<title>Analyzing&#45;&gt;Charging</title>
<path fill="none" stroke="red" d="M84.62,-417.14C70.79,-409.1 57.8,-398.73 49,-385.5 44.37,-378.54 41.5,-370.44 39.81,-362.14"/>
<polygon fill="red" stroke="red" points="43.28,-361.68 38.39,-352.28 36.35,-362.68 43.28,-361.68"/>
<text xml:space="preserve" text-anchor="middle" x="98.5" y="-372.2" font-family="Times,serif" font-size="14.00"> rhythm_detected </text>
</g>
<!-- NotAdvised -->
<g id="node8" class="node">
<title>NotAdvised</title>
<path fill="azure" stroke="none" d="M181.75,-339.75C181.75,-339.75 122.25,-339.75 122.25,-339.75 116.25,-339.75 110.25,-333.75 110.25,-327.75 110.25,-327.75 110.25,-284.75 110.25,-284.75 110.25,-278.75 116.25,-272.75 122.25,-272.75 122.25,-272.75 181.75,-272.75 181.75,-272.75 187.75,-272.75 193.75,-278.75 193.75,-284.75 193.75,-284.75 193.75,-327.75 193.75,-327.75 193.75,-333.75 187.75,-339.75 181.75,-339.75"/>
<text xml:space="preserve" text-anchor="start" x="118.25" y="-319.45" font-family="Times,serif" font-weight="bold" font-size="14.00">NotAdvised</text>
<text xml:space="preserve" text-anchor="start" x="118.25" y="-294.25" font-family="Times,serif" font-size="10.00">status()</text>
<text xml:space="preserve" text-anchor="start" x="119.38" y="-283" font-family="Times,serif" font-size="10.00"> &#160;&#160;&#160;&#160;&#160;&#160;&#160;&#160;&#160;&#160;&#160;</text>
<polygon fill="#00688b" stroke="#00688b" points="110.25,-309.25 110.25,-309.25 193.75,-309.25 193.75,-309.25 110.25,-309.25"/>
<path fill="none" stroke="#00688b" d="M122.25,-272.75C122.25,-272.75 181.75,-272.75 181.75,-272.75 187.75,-272.75 193.75,-278.75 193.75,-284.75 193.75,-284.75 193.75,-327.75 193.75,-327.75 193.75,-333.75 187.75,-339.75 181.75,-339.75 181.75,-339.75 122.25,-339.75 122.25,-339.75 116.25,-339.75 110.25,-333.75 110.25,-327.75 110.25,-327.75 110.25,-284.75 110.25,-284.75 110.25,-278.75 116.25,-272.75 122.25,-272.75"/>
</g>
<!-- Analyzing&#45;&gt;NotAdvised -->
<g id="edge5" class="edge">
<title>Analyzing&#45;&gt;NotAdvised</title>
<path fill="none" stroke="red" d="M152,-403.84C152,-387.44 152,-368.13 152,-351.1"/>
<polygon fill="red" stroke="red" points="155.5,-351.26 152,-341.26 148.5,-351.26 155.5,-351.26"/>
<text xml:space="preserve" text-anchor="middle" x="201.5" y="-372.2" font-family="Times,serif" font-size="14.00"> rhythm_detected </text>
</g>
<!-- AwaitingClear -->
<g id="node6" class="node">
<title>AwaitingClear</title>
<path fill="azure" stroke="none" d="M166.38,-209C166.38,-209 89.62,-209 89.62,-209 83.62,-209 77.62,-203 77.62,-197 77.62,-197 77.62,-142.75 77.62,-142.75 77.62,-136.75 83.62,-130.75 89.62,-130.75 89.62,-130.75 166.38,-130.75 166.38,-130.75 172.38,-130.75 178.38,-136.75 178.38,-142.75 178.38,-142.75 178.38,-197 178.38,-197 178.38,-203 172.38,-209 166.38,-209"/>
<text xml:space="preserve" text-anchor="start" x="85.62" y="-188.7" font-family="Times,serif" font-weight="bold" font-size="14.00">AwaitingClear</text>
<text xml:space="preserve" text-anchor="start" x="85.62" y="-163.5" font-family="Times,serif" font-size="10.00">confirm_clear()</text>
<text xml:space="preserve" text-anchor="start" x="85.62" y="-152.25" font-family="Times,serif" font-size="10.00">status()</text>
<text xml:space="preserve" text-anchor="start" x="103.25" y="-141" font-family="Times,serif" font-size="10.00"> &#160;&#160;&#160;&#160;&#160;&#160;&#160;&#160;&#160;&#160;&#160;</text>
<polygon fill="#00688b" stroke="#00688b" points="77.62,-178.5 77.62,-178.5 178.38,-178.5 178.38,-178.5 77.62,-178.5"/>
<path fill="none" stroke="#00688b" d="M89.62,-130.75C89.62,-130.75 166.38,-130.75 166.38,-130.75 172.38,-130.75 178.38,-136.75 178.38,-142.75 178.38,-142.75 178.38,-197 178.38,-197 178.38,-203 172.38,-209 166.38,-209 166.38,-209 89.62,-209 89.62,-209 83.62,-209 77.62,-203 77.62,-197 77.62,-197 77.62,-142.75 77.62,-142.75 77.62,-136.75 83.62,-130.75 89.62,-130.75"/>
</g>
<!-- Charging&#45;&gt;AwaitingClear -->
<g id="edge6" class="edge">
<title>Charging&#45;&gt;AwaitingClear</title>
<path fill="none" stroke="red" d="M69.25,-261.62C78.2,-247.8 88.13,-232.45 97.25,-218.37"/>
<polygon fill="red" stroke="red" points="100.09,-220.43 102.58,-210.13 94.21,-216.62 100.09,-220.43"/>
<text xml:space="preserve" text-anchor="middle" x="115.21" y="-230.2" font-family="Times,serif" font-size="14.00"> tick_ms </text>
</g>
<!-- ReadyToShock -->
<g id="node7" class="node">
<title>ReadyToShock</title>
<path fill="azure" stroke="none" d="M236.5,-78.25C236.5,-78.25 157.5,-78.25 157.5,-78.25 151.5,-78.25 145.5,-72.25 145.5,-66.25 145.5,-66.25 145.5,-12 145.5,-12 145.5,-6 151.5,0 157.5,0 157.5,0 236.5,0 236.5,0 242.5,0 248.5,-6 248.5,-12 248.5,-12 248.5,-66.25 248.5,-66.25 248.5,-72.25 242.5,-78.25 236.5,-78.25"/>
<text xml:space="preserve" text-anchor="start" x="153.5" y="-57.95" font-family="Times,serif" font-weight="bold" font-size="14.00">ReadyToShock</text>
<text xml:space="preserve" text-anchor="start" x="153.5" y="-32.75" font-family="Times,serif" font-size="10.00">press_shock()</text>
<text xml:space="preserve" text-anchor="start" x="153.5" y="-21.5" font-family="Times,serif" font-size="10.00">status()</text>
<text xml:space="preserve" text-anchor="start" x="167.75" y="-10.25" font-family="Times,serif" font-size="10.00"> &#160;&#160;&#160;&#160;&#160;&#160;&#160;&#160;&#160;&#160;&#160;</text>
<polygon fill="#00688b" stroke="#00688b" points="145.5,-47.75 145.5,-47.75 248.5,-47.75 248.5,-47.75 145.5,-47.75"/>
<path fill="none" stroke="#00688b" d="M157.5,0C157.5,0 236.5,0 236.5,0 242.5,0 248.5,-6 248.5,-12 248.5,-12 248.5,-66.25 248.5,-66.25 248.5,-72.25 242.5,-78.25 236.5,-78.25 236.5,-78.25 157.5,-78.25 157.5,-78.25 151.5,-78.25 145.5,-72.25 145.5,-66.25 145.5,-66.25 145.5,-12 145.5,-12 145.5,-6 151.5,0 157.5,0"/>
</g>
<!-- AwaitingClear&#45;&gt;ReadyToShock -->
<g id="edge7" class="edge">
<title>AwaitingClear&#45;&gt;ReadyToShock</title>
<path fill="none" stroke="red" d="M148.33,-130.94C155.49,-117.57 163.65,-102.36 171.2,-88.26"/>
<polygon fill="red" stroke="red" points="174.22,-90.03 175.86,-79.57 168.05,-86.73 174.22,-90.03"/>
<text xml:space="preserve" text-anchor="middle" x="208.63" y="-99.45" font-family="Times,serif" font-size="14.00"> confirm_clear </text>
</g>
<!-- ReadyToShock&#45;&gt;Analyzing -->
<g id="edge8" class="edge">
<title>ReadyToShock&#45;&gt;Analyzing</title>
<path fill="none" stroke="red" d="M241.26,-78.06C245.6,-83.71 249.37,-89.81 252,-96.25 300.59,-215.27 316.95,-274.56 252,-385.5 246.27,-395.29 238.13,-403.51 228.94,-410.36"/>
<polygon fill="red" stroke="red" points="227.04,-407.42 220.71,-415.92 230.95,-413.22 227.04,-407.42"/>
<text xml:space="preserve" text-anchor="middle" x="331.23" y="-230.2" font-family="Times,serif" font-size="14.00"> press_shock </text>
</g>
</g>
</svg>
