<?xml version="1.0" encoding="UTF-8" standalone="no"?>
<!DOCTYPE svg PUBLIC "-//W3C//DTD SVG 1.1//EN"
 "http://www.w3.org/Graphics/SVG/1.1/DTD/svg11.dtd">
<!-- Generated by graphviz version 14.1.5 (20260411.2331)
 -->
<!-- Title: ACLS Pages: 1 -->
<svg width="704pt" height="463pt"
 viewBox="0.00 0.00 704.00 463.00" xmlns="http://www.w3.org/2000/svg" xmlns:xlink="http://www.w3.org/1999/xlink">
<g id="graph0" class="graph" transform="scale(1 1) rotate(0) translate(4 458.9)">
<title>ACLS</title>
<polygon fill="white" stroke="none" points="-4,4 -4,-458.9 699.87,-458.9 699.87,4 -4,4"/>
<g id="clust1" class="cluster">
<title>cluster_Coding</title>
<path fill="none" stroke="black" d="M20,-8C20,-8 505,-8 505,-8 511,-8 517,-14 517,-20 517,-20 517,-270.75 517,-270.75 517,-276.75 511,-282.75 505,-282.75 505,-282.75 20,-282.75 20,-282.75 14,-282.75 8,-276.75 8,-270.75 8,-270.75 8,-20 8,-20 8,-14 14,-8 20,-8"/>
<text xml:space="preserve" text-anchor="start" x="242.62" y="-262" font-family="Times,serif" font-size="14.00">Coding</text>
<polygon fill="black" stroke="black" points="238.62,-255.25 238.62,-255.25 286.38,-255.25 286.38,-255.25 238.62,-255.25"/>
</g>
<!-- Entry -->
<g id="node1" class="node">
<title>Entry</title>
<ellipse fill="black" stroke="#00688b" cx="213" cy="-447.7" rx="7.2" ry="7.2"/>
</g>
<!-- PreArrest -->
<g id="node2" class="node">
<title>PreArrest</title>
<path fill="azure" stroke="none" d="M237.88,-403.5C237.88,-403.5 188.12,-403.5 188.12,-403.5 182.12,-403.5 176.12,-397.5 176.12,-391.5 176.12,-391.5 176.12,-337.25 176.12,-337.25 176.12,-331.25 182.12,-325.25 188.12,-325.25 188.12,-325.25 237.88,-325.25 237.88,-325.25 243.88,-325.25 249.88,-331.25 249.88,-337.25 249.88,-337.25 249.88,-391.5 249.88,-391.5 249.88,-397.5 243.88,-403.5 237.88,-403.5"/>
<text xml:space="preserve" text-anchor="start" x="184.12" y="-383.2" font-family="Times,serif" font-weight="bold" font-size="14.00">PreArrest</text>
<text xml:space="preserve" text-anchor="start" x="184.12" y="-358" font-family="Times,serif" font-size="10.00">start_code()</text>
<text xml:space="preserve" text-anchor="start" x="184.12" y="-346.75" font-family="Times,serif" font-size="10.00">phase()</text>
<text xml:space="preserve" text-anchor="start" x="194.62" y="-335.5" font-family="Times,serif" font-size="10.00"> &#160;&#160;&#160;&#160;&#160;&#160;&#160;&#160;&#160;&#160;&#160;</text>
<polygon fill="#00688b" stroke="#00688b" points="176.12,-373 176.12,-373 249.88,-373 249.88,-373 176.12,-373"/>
<path fill="none" stroke="#00688b" d="M188.12,-325.25C188.12,-325.25 237.88,-325.25 237.88,-325.25 243.88,-325.25 249.88,-331.25 249.88,-337.25 249.88,-337.25 249.88,-391.5 249.88,-391.5 249.88,-397.5 243.88,-403.5 237.88,-403.5 237.88,-403.5 188.12,-403.5 188.12,-403.5 182.12,-403.5 176.12,-397.5 176.12,-391.5 176.12,-391.5 176.12,-337.25 176.12,-337.25 176.12,-331.25 182.12,-325.25 188.12,-325.25"/>
</g>
<!-- Entry&#45;&gt;PreArrest -->
<g id="edge1" class="edge">
<title>Entry&#45;&gt;PreArrest</title>
<path fill="none" stroke="red" d="M213,-440.04C213,-434.03 213,-424.57 213,-414.38"/>
<polygon fill="red" stroke="red" points="216.5,-414.69 213,-404.69 209.5,-414.69 216.5,-414.69"/>
</g>
<!-- Analyzing -->
<g id="node4" class="node">
<title>Analyzing</title>
<path fill="azure" stroke="none" d="M263.38,-236.25C263.38,-236.25 162.62,-236.25 162.62,-236.25 156.62,-236.25 150.62,-230.25 150.62,-224.25 150.62,-224.25 150.62,-170 150.62,-170 150.62,-164 156.62,-158 162.62,-158 162.62,-158 263.38,-158 263.38,-158 269.38,-158 275.38,-164 275.38,-170 275.38,-170 275.38,-224.25 275.38,-224.25 275.38,-230.25 269.38,-236.25 263.38,-236.25"/>
<text xml:space="preserve" text-anchor="start" x="183.75" y="-215.95" font-family="Times,serif" font-weight="bold" font-size="14.00">Analyzing</text>
<text xml:space="preserve" text-anchor="start" x="158.62" y="-190.75" font-family="Times,serif" font-size="10.00">rhythm_check(rhythm: str)</text>
<text xml:space="preserve" text-anchor="start" x="158.62" y="-179.5" font-family="Times,serif" font-size="10.00">phase()</text>
<text xml:space="preserve" text-anchor="start" x="195" y="-168.25" font-family="Times,serif" font-size="10.00"> &#160;&#160;&#160;&#160;&#160;&#160;&#160;&#160;&#160;&#160;&#160;&#160;&#160;&#160;&#160;</text>
<polygon fill="#00688b" stroke="#00688b" points="150.62,-205.75 150.62,-205.75 275.38,-205.75 275.38,-205.75 150.62,-205.75"/>
<path fill="none" stroke="#00688b" d="M162.62,-158C162.62,-158 263.38,-158 263.38,-158 269.38,-158 275.38,-164 275.38,-170 275.38,-170 275.38,-224.25 275.38,-224.25 275.38,-230.25 269.38,-236.25 263.38,-236.25 263.38,-236.25 162.62,-236.25 162.62,-236.25 156.62,-236.25 150.62,-230.25 150.62,-224.25 150.62,-224.25 150.62,-170 150.62,-170 150.62,-164 156.62,-158 162.62,-158"/>
</g>
<!-- PreArrest&#45;&gt;Analyzing -->
<g id="edge2" class="edge">
<title>PreArrest&#45;&gt;Analyzing</title>
<path fill="none" stroke="red" d="M213,-325.46C213,-302.35 213,-272.55 213,-247.59"/>
<polygon fill="red" stroke="red" points="216.5,-247.66 213,-237.66 209.5,-247.66 216.5,-247.66"/>
<text xml:space="preserve" text-anchor="middle" x="244.5" y="-293.95" font-family="Times,serif" font-size="14.00"> start_code </text>
</g>
<!-- Coding -->
<g id="node3" class="node">
<title>Coding</title>
<ellipse fill="azure" stroke="#00688b" cx="509" cy="-197.12" rx="0.36" ry="0.36"/>
</g>
<!-- ROSC -->
<g id="node7" class="node">
<title>ROSC</title>
<path fill="azure" stroke="none" d="M567.12,-94.25C567.12,-94.25 536.88,-94.25 536.88,-94.25 530.88,-94.25 524.88,-88.25 524.88,-82.25 524.88,-82.25 524.88,-39.25 524.88,-39.25 524.88,-33.25 530.88,-27.25 536.88,-27.25 536.88,-27.25 567.12,-27.25 567.12,-27.25 573.12,-27.25 579.12,-33.25 579.12,-39.25 579.12,-39.25 579.12,-82.25 579.12,-82.25 579.12,-88.25 573.12,-94.25 567.12,-94.25"/>
<text xml:space="preserve" text-anchor="start" x="532.88" y="-73.95" font-family="Times,serif" font-weight="bold" font-size="14.00">ROSC</text>
<text xml:space="preserve" text-anchor="start" x="532.88" y="-48.75" font-family="Times,serif" font-size="10.00">phase()</text>
<text xml:space="preserve" text-anchor="start" x="534" y="-37.5" font-family="Times,serif" font-size="10.00"> &#160;&#160;&#160;&#160;&#160;&#160;&#160;&#160;&#160;&#160;&#160;</text>
<polygon fill="#00688b" stroke="#00688b" points="524.88,-63.75 524.88,-63.75 579.12,-63.75 579.12,-63.75 524.88,-63.75"/>
<path fill="none" stroke="#00688b" d="M536.88,-27.25C536.88,-27.25 567.12,-27.25 567.12,-27.25 573.12,-27.25 579.12,-33.25 579.12,-39.25 579.12,-39.25 579.12,-82.25 579.12,-82.25 579.12,-88.25 573.12,-94.25 567.12,-94.25 567.12,-94.25 536.88,-94.25 536.88,-94.25 530.88,-94.25 524.88,-88.25 524.88,-82.25 524.88,-82.25 524.88,-39.25 524.88,-39.25 524.88,-33.25 530.88,-27.25 536.88,-27.25"/>
</g>
<!-- Coding&#45;&gt;ROSC -->
<g id="edge3" class="edge">
<title>Coding&#45;&gt;ROSC</title>
<path fill="none" stroke="red" d="M517,-171.13C522.93,-152.59 531.17,-126.86 538.16,-105.01"/>
<polygon fill="red" stroke="red" points="541.48,-106.11 541.19,-95.52 534.81,-103.97 541.48,-106.11"/>
<text xml:space="preserve" text-anchor="middle" x="574.16" y="-126.7" font-family="Times,serif" font-size="14.00"> rosc_achieved </text>
</g>
<!-- Terminated -->
<g id="node8" class="node">
<title>Terminated</title>
<path fill="azure" stroke="none" d="M680.12,-94.25C680.12,-94.25 619.88,-94.25 619.88,-94.25 613.88,-94.25 607.88,-88.25 607.88,-82.25 607.88,-82.25 607.88,-39.25 607.88,-39.25 607.88,-33.25 613.88,-27.25 619.88,-27.25 619.88,-27.25 680.12,-27.25 680.12,-27.25 686.12,-27.25 692.12,-33.25 692.12,-39.25 692.12,-39.25 692.12,-82.25 692.12,-82.25 692.12,-88.25 686.12,-94.25 680.12,-94.25"/>
<text xml:space="preserve" text-anchor="start" x="615.88" y="-73.95" font-family="Times,serif" font-weight="bold" font-size="14.00">Terminated</text>
<text xml:space="preserve" text-anchor="start" x="615.88" y="-48.75" font-family="Times,serif" font-size="10.00">phase()</text>
<text xml:space="preserve" text-anchor="start" x="617" y="-37.5" font-family="Times,serif" font-size="10.00"> &#160;&#160;&#160;&#160;&#160;&#160;&#160;&#160;&#160;&#160;&#160;</text>
<polygon fill="#00688b" stroke="#00688b" points="607.88,-63.75 607.88,-63.75 692.12,-63.75 692.12,-63.75 607.88,-63.75"/>
<path fill="none" stroke="#00688b" d="M619.88,-27.25C619.88,-27.25 680.12,-27.25 680.12,-27.25 686.12,-27.25 692.12,-33.25 692.12,-39.25 692.12,-39.25 692.12,-82.25 692.12,-82.25 692.12,-88.25 686.12,-94.25 680.12,-94.25 680.12,-94.25 619.88,-94.25 619.88,-94.25 613.88,-94.25 607.88,-88.25 607.88,-82.25 607.88,-82.25 607.88,-39.25 607.88,-39.25 607.88,-33.25 613.88,-27.25 619.88,-27.25"/>
</g>
<!-- Coding&#45;&gt;Terminated -->
<g id="edge4" class="edge">
<title>Coding&#45;&gt;Terminated</title>
<path fill="none" stroke="red" d="M517,-194.29C537.28,-189.23 591.23,-173.22 621,-140 629.9,-130.07 636.15,-117.16 640.5,-104.71"/>
<polygon fill="red" stroke="red" points="643.76,-106 643.41,-95.41 637.08,-103.91 643.76,-106"/>
<text xml:space="preserve" text-anchor="middle" x="663.62" y="-126.7" font-family="Times,serif" font-size="14.00"> pronounce </text>
</g>
<!-- CPR_Shockable -->
<g id="node5" class="node">
<title>CPR_Shockable</title>
<path fill="azure" stroke="none" d="M149.88,-105.5C149.88,-105.5 64.12,-105.5 64.12,-105.5 58.12,-105.5 52.12,-99.5 52.12,-93.5 52.12,-93.5 52.12,-28 52.12,-28 52.12,-22 58.12,-16 64.12,-16 64.12,-16 149.88,-16 149.88,-16 155.88,-16 161.88,-22 161.88,-28 161.88,-28 161.88,-93.5 161.88,-93.5 161.88,-99.5 155.88,-105.5 149.88,-105.5"/>
<text xml:space="preserve" text-anchor="start" x="60.12" y="-85.2" font-family="Times,serif" font-weight="bold" font-size="14.00">CPR_Shockable</text>
<text xml:space="preserve" text-anchor="start" x="60.12" y="-60" font-family="Times,serif" font-size="10.00">give_epinephrine()</text>
<text xml:space="preserve" text-anchor="start" x="60.12" y="-48.75" font-family="Times,serif" font-size="10.00">cpr_cycle_complete()</text>
<text xml:space="preserve" text-anchor="start" x="60.12" y="-37.5" font-family="Times,serif" font-size="10.00">phase()</text>
<text xml:space="preserve" text-anchor="start" x="86.38" y="-26.25" font-family="Times,serif" font-size="10.00"> &#160;&#160;&#160;&#160;&#160;&#160;&#160;&#160;&#160;&#160;&#160;&#160;&#160;&#160;&#160;</text>
<polygon fill="#00688b" stroke="#00688b" points="52.12,-75 52.12,-75 161.88,-75 161.88,-75 52.12,-75"/>
<path fill="none" stroke="#00688b" d="M64.12,-16C64.12,-16 149.88,-16 149.88,-16 155.88,-16 161.88,-22 161.88,-28 161.88,-28 161.88,-93.5 161.88,-93.5 161.88,-99.5 155.88,-105.5 149.88,-105.5 149.88,-105.5 64.12,-105.5 64.12,-105.5 58.12,-105.5 52.12,-99.5 52.12,-93.5 52.12,-93.5 52.12,-28 52.12,-28 52.12,-22 58.12,-16 64.12,-16"/>
</g>
<!-- Analyzing&#45;&gt;CPR_Shockable -->
<g id="edge5" class="edge">
<title>Analyzing&#45;&gt;CPR_Shockable</title>
<path fill="none" stroke="red" d="M150.99,-194.22C111.02,-189.38 61.76,-175.85 35.5,-140 25.5,-126.35 31.9,-112.42 44.22,-100.16"/>
<polygon fill="red" stroke="red" points="46.26,-103.02 51.42,-93.77 41.62,-97.79 46.26,-103.02"/>
<text xml:space="preserve" text-anchor="middle" x="78.25" y="-126.7" font-family="Times,serif" font-size="14.00"> rhythm_check </text>
</g>
<!-- CPR_NonShockable -->
<g id="node6" class="node">
<title>CPR_NonShockable</title>
<path fill="azure" stroke="none" d="M391.88,-105.5C391.88,-105.5 282.12,-105.5 282.12,-105.5 276.12,-105.5 270.12,-99.5 270.12,-93.5 270.12,-93.5 270.12,-28 270.12,-28 270.12,-22 276.12,-16 282.12,-16 282.12,-16 391.88,-16 391.88,-16 397.88,-16 403.88,-22 403.88,-28 403.88,-28 403.88,-93.5 403.88,-93.5 403.88,-99.5 397.88,-105.5 391.88,-105.5"/>
<text xml:space="preserve" text-anchor="start" x="278.12" y="-85.2" font-family="Times,serif" font-weight="bold" font-size="14.00">CPR_NonShockable</text>
<text xml:space="preserve" text-anchor="start" x="278.12" y="-60" font-family="Times,serif" font-size="10.00">give_epinephrine()</text>
<text xml:space="preserve" text-anchor="start" x="278.12" y="-48.75" font-family="Times,serif" font-size="10.00">cpr_cycle_complete()</text>
<text xml:space="preserve" text-anchor="start" x="278.12" y="-37.5" font-family="Times,serif" font-size="10.00">phase()</text>
<text xml:space="preserve" text-anchor="start" x="304.38" y="-26.25" font-family="Times,serif" font-size="10.00"> &#160;&#160;&#160;&#160;&#160;&#160;&#160;&#160;&#160;&#160;&#160;&#160;&#160;&#160;&#160;</text>
<polygon fill="#00688b" stroke="#00688b" points="270.12,-75 270.12,-75 403.88,-75 403.88,-75 270.12,-75"/>
<path fill="none" stroke="#00688b" d="M282.12,-16C282.12,-16 391.88,-16 391.88,-16 397.88,-16 403.88,-22 403.88,-28 403.88,-28 403.88,-93.5 403.88,-93.5 403.88,-99.5 397.88,-105.5 391.88,-105.5 391.88,-105.5 282.12,-105.5 282.12,-105.5 276.12,-105.5 270.12,-99.5 270.12,-93.5 270.12,-93.5 270.12,-28 270.12,-28 270.12,-22 276.12,-16 282.12,-16"/>
</g>
<!-- Analyzing&#45;&gt;CPR_NonShockable -->
<g id="edge6" class="edge">
<title>Analyzing&#45;&gt;CPR_NonShockable</title>
<path fill="none" stroke="red" d="M247.87,-158.34C260.68,-144.45 275.42,-128.48 289.18,-113.57"/>
<polygon fill="red" stroke="red" points="291.46,-116.26 295.67,-106.53 286.32,-111.51 291.46,-116.26"/>
<text xml:space="preserve" text-anchor="middle" x="321.47" y="-126.7" font-family="Times,serif" font-size="14.00"> rhythm_check </text>
</g>
<!-- CPR_Shockable&#45;&gt;Analyzing -->
<g id="edge7" class="edge">
<title>CPR_Shockable&#45;&gt;Analyzing</title>
<path fill="none" stroke="red" d="M123.35,-105.17C128.92,-117.09 135.84,-129.59 144,-140 146.71,-143.46 149.67,-146.84 152.79,-150.12"/>
<polygon fill="red" stroke="red" points="150.17,-152.45 159.74,-156.98 155.08,-147.47 150.17,-152.45"/>
<text xml:space="preserve" text-anchor="middle" x="202.5" y="-126.7" font-family="Times,serif" font-size="14.00"> cpr_cycle_complete </text>
</g>
<!-- CPR_NonShockable&#45;&gt;Analyzing -->
<g id="edge8" class="edge">
<title>CPR_NonShockable&#45;&gt;Analyzing</title>
<path fill="none" stroke="red" d="M369.24,-105.42C374.06,-117.22 375.3,-129.59 368,-140 349.34,-166.61 316.73,-180.65 286.23,-188.04"/>
<polygon fill="red" stroke="red" points="285.61,-184.6 276.59,-190.15 287.11,-191.43 285.61,-184.6"/>
<text xml:space="preserve" text-anchor="middle" x="431.65" y="-126.7" font-family="Times,serif" font-size="14.00"> cpr_cycle_complete </text>
</g>
</g>
</svg>
