<?xml version="1.0" encoding="UTF-8" standalone="no"?>
<!DOCTYPE svg PUBLIC "-//W3C//DTD SVG 1.1//EN"
 "http://www.w3.org/Graphics/SVG/1.1/DTD/svg11.dtd">
<!-- Generated by graphviz version 14.1.5 (20260411.2331)
 -->
<!-- Title: SepsisBundle Pages: 1 -->
<svg width="1319pt" height="467pt"
 viewBox="0.00 0.00 1319.00 467.00" xmlns="http://www.w3.org/2000/svg" xmlns:xlink="http://www.w3.org/1999/xlink">
<g id="graph0" class="graph" transform="scale(1 1) rotate(0) translate(4 462.65)">
<title>SepsisBundle</title>
<polygon fill="white" stroke="none" points="-4,4 -4,-462.65 1314.73,-462.65 1314.73,4 -4,4"/>
<!-- Entry -->
<g id="node1" class="node">
<title>Entry</title>
<ellipse fill="black" stroke="#00688b" cx="629.29" cy="-451.45" rx="7.2" ry="7.2"/>
</g>
<!-- PreRecognition -->
<g id="node2" class="node">
<title>PreRecognition</title>
<path fill="azure" stroke="none" d="M669.91,-407.25C669.91,-407.25 588.66,-407.25 588.66,-407.25 582.66,-407.25 576.66,-401.25 576.66,-395.25 576.66,-395.25 576.66,-341 576.66,-341 576.66,-335 582.66,-329 588.66,-329 588.66,-329 669.91,-329 669.91,-329 675.91,-329 681.91,-335 681.91,-341 681.91,-341 681.91,-395.25 681.91,-395.25 681.91,-401.25 675.91,-407.25 669.91,-407.25"/>
<text xml:space="preserve" text-anchor="start" x="584.66" y="-386.95" font-family="Times,serif" font-weight="bold" font-size="14.00">PreRecognition</text>
<text xml:space="preserve" text-anchor="start" x="584.66" y="-361.75" font-family="Times,serif" font-size="10.00">recognize_sepsis()</text>
<text xml:space="preserve" text-anchor="start" x="584.66" y="-350.5" font-family="Times,serif" font-size="10.00">status()</text>
<text xml:space="preserve" text-anchor="start" x="608.66" y="-339.25" font-family="Times,serif" font-size="10.00"> &#160;&#160;&#160;&#160;&#160;&#160;&#160;&#160;&#160;&#160;&#160;</text>
<polygon fill="#00688b" stroke="#00688b" points="576.66,-376.75 576.66,-376.75 681.91,-376.75 681.91,-376.75 576.66,-376.75"/>
<path fill="none" stroke="#00688b" d="M588.66,-329C588.66,-329 669.91,-329 669.91,-329 675.91,-329 681.91,-335 681.91,-341 681.91,-341 681.91,-395.25 681.91,-395.25 681.91,-401.25 675.91,-407.25 669.91,-407.25 669.91,-407.25 588.66,-407.25 588.66,-407.25 582.66,-407.25 576.66,-401.25 576.66,-395.25 576.66,-395.25 576.66,-341 576.66,-341 576.66,-335 582.66,-329 588.66,-329"/>
</g>
<!-- Entry&#45;&gt;PreRecognition -->
<g id="edge1" class="edge">
<title>Entry&#45;&gt;PreRecognition</title>
<path fill="none" stroke="red" d="M629.29,-443.79C629.29,-437.78 629.29,-428.32 629.29,-418.13"/>
<polygon fill="red" stroke="red" points="632.79,-418.44 629.29,-408.44 625.79,-418.44 632.79,-418.44"/>
</g>
<!-- BundleActive -->
<g id="node3" class="node">
<title>BundleActive</title>
<path fill="azure" stroke="none" d="M687.54,-276.5C687.54,-276.5 571.04,-276.5 571.04,-276.5 565.04,-276.5 559.04,-270.5 559.04,-264.5 559.04,-264.5 559.04,-142.75 559.04,-142.75 559.04,-136.75 565.04,-130.75 571.04,-130.75 571.04,-130.75 687.54,-130.75 687.54,-130.75 693.54,-130.75 699.54,-136.75 699.54,-142.75 699.54,-142.75 699.54,-264.5 699.54,-264.5 699.54,-270.5 693.54,-276.5 687.54,-276.5"/>
<text xml:space="preserve" text-anchor="start" x="590.29" y="-256.2" font-family="Times,serif" font-weight="bold" font-size="14.00">BundleActive</text>
<text xml:space="preserve" text-anchor="start" x="567.04" y="-231" font-family="Times,serif" font-size="10.00">lactate_drawn(value: float)</text>
<text xml:space="preserve" text-anchor="start" x="567.04" y="-219.75" font-family="Times,serif" font-size="10.00">cultures_drawn()</text>
<text xml:space="preserve" text-anchor="start" x="567.04" y="-208.5" font-family="Times,serif" font-size="10.00">antibiotics_given()</text>
<text xml:space="preserve" text-anchor="start" x="567.04" y="-197.25" font-family="Times,serif" font-size="10.00">fluids_complete()</text>
<text xml:space="preserve" text-anchor="start" x="567.04" y="-186" font-family="Times,serif" font-size="10.00">reassess_map(map_mmhg: int)</text>
<text xml:space="preserve" text-anchor="start" x="567.04" y="-174.75" font-family="Times,serif" font-size="10.00">pressors_started()</text>
<text xml:space="preserve" text-anchor="start" x="567.04" y="-163.5" font-family="Times,serif" font-size="10.00">tick_minute()</text>
<text xml:space="preserve" text-anchor="start" x="567.04" y="-152.25" font-family="Times,serif" font-size="10.00">status()</text>
<text xml:space="preserve" text-anchor="start" x="615.79" y="-141" font-family="Times,serif" font-size="10.00"> &#160;&#160;&#160;&#160;&#160;&#160;&#160;&#160;&#160;&#160;&#160;</text>
<polygon fill="#00688b" stroke="#00688b" points="559.04,-246 559.04,-246 699.54,-246 699.54,-246 559.04,-246"/>
<path fill="none" stroke="#00688b" d="M571.04,-130.75C571.04,-130.75 687.54,-130.75 687.54,-130.75 693.54,-130.75 699.54,-136.75 699.54,-142.75 699.54,-142.75 699.54,-264.5 699.54,-264.5 699.54,-270.5 693.54,-276.5 687.54,-276.5 687.54,-276.5 571.04,-276.5 571.04,-276.5 565.04,-276.5 559.04,-270.5 559.04,-264.5 559.04,-264.5 559.04,-142.75 559.04,-142.75 559.04,-136.75 565.04,-130.75 571.04,-130.75"/>
</g>
<!-- PreRecognition&#45;&gt;BundleActive -->
<g id="edge2" class="edge">
<title>PreRecognition&#45;&gt;BundleActive</title>
<path fill="none" stroke="red" d="M629.29,-329.03C629.29,-316.47 629.29,-301.97 629.29,-287.41"/>
<polygon fill="red" stroke="red" points="632.79,-287.81 629.29,-277.81 625.79,-287.81 632.79,-287.81"/>
<text xml:space="preserve" text-anchor="middle" x="678.79" y="-297.7" font-family="Times,serif" font-size="14.00"> recognize_sepsis </text>
</g>
<!-- OnTime -->
<g id="node4" class="node">
<title>OnTime</title>
<path fill="azure" stroke="none" d="M319.91,-78.25C319.91,-78.25 250.66,-78.25 250.66,-78.25 244.66,-78.25 238.66,-72.25 238.66,-66.25 238.66,-66.25 238.66,-12 238.66,-12 238.66,-6 244.66,0 250.66,0 250.66,0 319.91,0 319.91,0 325.91,0 331.91,-6 331.91,-12 331.91,-12 331.91,-66.25 331.91,-66.25 331.91,-72.25 325.91,-78.25 319.91,-78.25"/>
<text xml:space="preserve" text-anchor="start" x="260.54" y="-57.95" font-family="Times,serif" font-weight="bold" font-size="14.00">OnTime</text>
<text xml:space="preserve" text-anchor="start" x="246.66" y="-32.75" font-family="Times,serif" font-size="10.00">bundle_complete()</text>
<text xml:space="preserve" text-anchor="start" x="246.66" y="-21.5" font-family="Times,serif" font-size="10.00">status()</text>
<text xml:space="preserve" text-anchor="start" x="271.79" y="-10.25" font-family="Times,serif" font-size="10.00"> &#160;&#160;&#160;&#160;&#160;&#160;&#160;&#160;&#160;&#160;&#160;</text>
<polygon fill="#00688b" stroke="#00688b" points="238.66,-47.75 238.66,-47.75 331.91,-47.75 331.91,-47.75 238.66,-47.75"/>
<path fill="none" stroke="#00688b" d="M250.66,0C250.66,0 319.91,0 319.91,0 325.91,0 331.91,-6 331.91,-12 331.91,-12 331.91,-66.25 331.91,-66.25 331.91,-72.25 325.91,-78.25 319.91,-78.25 319.91,-78.25 250.66,-78.25 250.66,-78.25 244.66,-78.25 238.66,-72.25 238.66,-66.25 238.66,-66.25 238.66,-12 238.66,-12 238.66,-6 244.66,0 250.66,0"/>
</g>
<!-- BundleActive&#45;&gt;OnTime -->
<g id="edge3" class="edge">
<title>BundleActive&#45;&gt;OnTime</title>
<path fill="none" stroke="red" d="M559.06,-203.51C411.13,-203.71 75.23,-194.9 4.04,-112.75 -26.76,-77.21 136.62,-54.9 227.58,-45.42"/>
<polygon fill="red" stroke="red" points="227.73,-48.92 237.32,-44.42 227.02,-41.95 227.73,-48.92"/>
<text xml:space="preserve" text-anchor="middle" x="45.66" y="-99.45" font-family="Times,serif" font-size="14.00"> lactate_drawn </text>
</g>
<!-- BundleActive&#45;&gt;OnTime -->
<g id="edge5" class="edge">
<title>BundleActive&#45;&gt;OnTime</title>
<path fill="none" stroke="red" d="M559.33,-201.19C431.27,-196.92 167.11,-179.97 110.54,-112.75 74.51,-69.95 163.72,-51.96 227.51,-44.7"/>
<polygon fill="red" stroke="red" points="227.61,-48.21 237.18,-43.67 226.87,-41.25 227.61,-48.21"/>
<text xml:space="preserve" text-anchor="middle" x="155.91" y="-99.45" font-family="Times,serif" font-size="14.00"> cultures_drawn </text>
</g>
<!-- BundleActive&#45;&gt;OnTime -->
<g id="edge7" class="edge">
<title>BundleActive&#45;&gt;OnTime</title>
<path fill="none" stroke="red" d="M559.42,-197.39C454.98,-187.96 265.98,-164.09 224.79,-112.75 215.45,-101.11 220.38,-88.58 230.62,-77.25"/>
<polygon fill="red" stroke="red" points="233.04,-79.77 237.8,-70.3 228.18,-74.74 233.04,-79.77"/>
<text xml:space="preserve" text-anchor="middle" x="275.04" y="-99.45" font-family="Times,serif" font-size="14.00"> antibiotics_given </text>
</g>
<!-- BundleActive&#45;&gt;OnTime -->
<g id="edge9" class="edge">
<title>BundleActive&#45;&gt;OnTime</title>
<path fill="none" stroke="red" d="M559.05,-191.26C499.15,-179.09 412.73,-155.48 348.04,-112.75 337.28,-105.65 327.3,-96.21 318.6,-86.49"/>
<polygon fill="red" stroke="red" points="321.44,-84.42 312.29,-79.08 316.11,-88.96 321.44,-84.42"/>
<text xml:space="preserve" text-anchor="middle" x="395.66" y="-99.45" font-family="Times,serif" font-size="14.00"> fluids_complete </text>
</g>
<!-- BundleActive&#45;&gt;OnTime -->
<g id="edge11" class="edge">
<title>BundleActive&#45;&gt;OnTime</title>
<path fill="none" stroke="red" d="M559.4,-166.27C530.26,-150.54 496.33,-131.46 466.54,-112.75 455.81,-106.01 454.53,-102.09 443.29,-96.25 411.31,-79.63 373.31,-65.96 342.59,-56.27"/>
<polygon fill="red" stroke="red" points="343.66,-52.94 333.08,-53.33 341.6,-59.63 343.66,-52.94"/>
<text xml:space="preserve" text-anchor="middle" x="507.41" y="-99.45" font-family="Times,serif" font-size="14.00"> reassess_map </text>
</g>
<!-- BundleActive&#45;&gt;OnTime -->
<g id="edge13" class="edge">
<title>BundleActive&#45;&gt;OnTime</title>
<path fill="none" stroke="red" d="M586,-130.9C575.16,-117.7 562.5,-105.26 548.29,-96.25 485.58,-56.49 399.28,-44.47 342.9,-41.07"/>
<polygon fill="red" stroke="red" points="343.37,-37.59 333.21,-40.56 343.01,-44.58 343.37,-37.59"/>
<text xml:space="preserve" text-anchor="middle" x="615.44" y="-99.45" font-family="Times,serif" font-size="14.00"> pressors_started </text>
</g>
<!-- Late -->
<g id="node5" class="node">
<title>Late</title>
<path fill="azure" stroke="none" d="M1004.91,-78.25C1004.91,-78.25 935.66,-78.25 935.66,-78.25 929.66,-78.25 923.66,-72.25 923.66,-66.25 923.66,-66.25 923.66,-12 923.66,-12 923.66,-6 929.66,0 935.66,0 935.66,0 1004.91,0 1004.91,0 1010.91,0 1016.91,-6 1016.91,-12 1016.91,-12 1016.91,-66.25 1016.91,-66.25 1016.91,-72.25 1010.91,-78.25 1004.91,-78.25"/>
<text xml:space="preserve" text-anchor="start" x="957.16" y="-57.95" font-family="Times,serif" font-weight="bold" font-size="14.00">Late</text>
<text xml:space="preserve" text-anchor="start" x="931.66" y="-32.75" font-family="Times,serif" font-size="10.00">bundle_complete()</text>
<text xml:space="preserve" text-anchor="start" x="931.66" y="-21.5" font-family="Times,serif" font-size="10.00">status()</text>
<text xml:space="preserve" text-anchor="start" x="956.79" y="-10.25" font-family="Times,serif" font-size="10.00"> &#160;&#160;&#160;&#160;&#160;&#160;&#160;&#160;&#160;&#160;&#160;</text>
<polygon fill="#00688b" stroke="#00688b" points="923.66,-47.75 923.66,-47.75 1016.91,-47.75 1016.91,-47.75 923.66,-47.75"/>
<path fill="none" stroke="#00688b" d="M935.66,0C935.66,0 1004.91,0 1004.91,0 1010.91,0 1016.91,-6 1016.91,-12 1016.91,-12 1016.91,-66.25 1016.91,-66.25 1016.91,-72.25 1010.91,-78.25 1004.91,-78.25 1004.91,-78.25 935.66,-78.25 935.66,-78.25 929.66,-78.25 923.66,-72.25 923.66,-66.25 923.66,-66.25 923.66,-12 923.66,-12 923.66,-6 929.66,0 935.66,0"/>
</g>
<!-- BundleActive&#45;&gt;Late -->
<g id="edge4" class="edge">
<title>BundleActive&#45;&gt;Late</title>
<path fill="none" stroke="red" d="M658.22,-130.92C666.43,-117.72 676.61,-105.27 689.04,-96.25 724.03,-70.84 841.03,-54.07 912.63,-45.92"/>
<polygon fill="red" stroke="red" points="912.66,-49.44 922.21,-44.85 911.88,-42.48 912.66,-49.44"/>
<text xml:space="preserve" text-anchor="middle" x="730.66" y="-99.45" font-family="Times,serif" font-size="14.00"> lactate_drawn </text>
</g>
<!-- BundleActive&#45;&gt;Late -->
<g id="edge6" class="edge">
<title>BundleActive&#45;&gt;Late</title>
<path fill="none" stroke="red" d="M699.25,-159.74C722.65,-145.11 748.76,-128.47 772.29,-112.75 782.82,-105.71 784.21,-101.92 795.54,-96.25 832.95,-77.53 877.95,-63.25 912.92,-53.78"/>
<polygon fill="red" stroke="red" points="913.66,-57.2 922.43,-51.26 911.87,-50.43 913.66,-57.2"/>
<text xml:space="preserve" text-anchor="middle" x="840.91" y="-99.45" font-family="Times,serif" font-size="14.00"> cultures_drawn </text>
</g>
<!-- BundleActive&#45;&gt;Late -->
<g id="edge8" class="edge">
<title>BundleActive&#45;&gt;Late</title>
<path fill="none" stroke="red" d="M699.44,-185.8C752.91,-171.19 827.17,-146.96 886.29,-112.75 894.03,-108.27 907.18,-97.51 920.82,-85.6"/>
<polygon fill="red" stroke="red" points="923.01,-88.32 928.19,-79.08 918.38,-83.08 923.01,-88.32"/>
<text xml:space="preserve" text-anchor="middle" x="957.61" y="-99.45" font-family="Times,serif" font-size="14.00"> antibiotics_given </text>
</g>
<!-- BundleActive&#45;&gt;Late -->
<g id="edge10" class="edge">
<title>BundleActive&#45;&gt;Late</title>
<path fill="none" stroke="red" d="M699.22,-196.33C798.43,-185.8 972.22,-160.84 1010.29,-112.75 1016.19,-105.29 1016.38,-96.84 1013.41,-88.4"/>
<polygon fill="red" stroke="red" points="1016.61,-86.98 1009.06,-79.55 1010.33,-90.07 1016.61,-86.98"/>
<text xml:space="preserve" text-anchor="middle" x="1062.91" y="-99.45" font-family="Times,serif" font-size="14.00"> fluids_complete </text>
</g>
<!-- BundleActive&#45;&gt;Late -->
<g id="edge12" class="edge">
<title>BundleActive&#45;&gt;Late</title>
<path fill="none" stroke="red" d="M699.48,-200.23C820.94,-194.46 1062.33,-175.21 1114.29,-112.75 1142.98,-78.25 1079.33,-58.49 1027.7,-48.53"/>
<polygon fill="red" stroke="red" points="1028.53,-45.12 1018.06,-46.76 1027.27,-52.01 1028.53,-45.12"/>
<text xml:space="preserve" text-anchor="middle" x="1162.27" y="-99.45" font-family="Times,serif" font-size="14.00"> reassess_map </text>
</g>
<!-- BundleActive&#45;&gt;Late -->
<g id="edge14" class="edge">
<title>BundleActive&#45;&gt;Late</title>
<path fill="none" stroke="red" d="M699.52,-202.58C838.9,-200.83 1142.63,-188.24 1207.29,-112.75 1258.81,-52.6 1113.76,-41.4 1028.15,-39.86"/>
<polygon fill="red" stroke="red" points="1028.31,-36.36 1018.26,-39.72 1028.21,-43.36 1028.31,-36.36"/>
<text xml:space="preserve" text-anchor="middle" x="1263.48" y="-99.45" font-family="Times,serif" font-size="14.00"> pressors_started </text>
</g>
</g>
</svg>
