<?xml version="1.0" encoding="UTF-8" standalone="no"?>
<!DOCTYPE svg PUBLIC "-//W3C//DTD SVG 1.1//EN"
 "http://www.w3.org/Graphics/SVG/1.1/DTD/svg11.dtd">
<!-- Generated by graphviz version 14.1.5 (20260411.2331)
 -->
<!-- Title: TlsClient Pages: 1 -->
<svg width="1407pt" height="1222pt"
 viewBox="0.00 0.00 1407.00 1222.00" xmlns="http://www.w3.org/2000/svg" xmlns:xlink="http://www.w3.org/1999/xlink">
<g id="graph0" class="graph" transform="scale(1 1) rotate(0) translate(4 1217.65)">
<title>TlsClient</title>
<polygon fill="white" stroke="none" points="-4,4 -4,-1217.65 1403.38,-1217.65 1403.38,4 -4,4"/>
<!-- Entry -->
<g id="node1" class="node">
<title>Entry</title>
<ellipse fill="black" stroke="#00688b" cx="1049.88" cy="-1206.45" rx="7.2" ry="7.2"/>
</g>
<!-- Idle -->
<g id="node2" class="node">
<title>Idle</title>
<path fill="azure" stroke="none" d="M1098,-1162.25C1098,-1162.25 1001.75,-1162.25 1001.75,-1162.25 995.75,-1162.25 989.75,-1156.25 989.75,-1150.25 989.75,-1150.25 989.75,-1096 989.75,-1096 989.75,-1090 995.75,-1084 1001.75,-1084 1001.75,-1084 1098,-1084 1098,-1084 1104,-1084 1110,-1090 1110,-1096 1110,-1096 1110,-1150.25 1110,-1150.25 1110,-1156.25 1104,-1162.25 1098,-1162.25"/>
<text xml:space="preserve" text-anchor="start" x="1038.62" y="-1141.95" font-family="Times,serif" font-weight="bold" font-size="14.00">Idle</text>
<text xml:space="preserve" text-anchor="start" x="997.75" y="-1116.75" font-family="Times,serif" font-size="10.00">connect(server_name: str)</text>
<text xml:space="preserve" text-anchor="start" x="997.75" y="-1105.5" font-family="Times,serif" font-size="10.00">get_status()</text>
<text xml:space="preserve" text-anchor="start" x="1036.38" y="-1094.25" font-family="Times,serif" font-size="10.00"> &#160;&#160;&#160;&#160;&#160;&#160;&#160;&#160;&#160;&#160;&#160;</text>
<polygon fill="#00688b" stroke="#00688b" points="989.75,-1131.75 989.75,-1131.75 1110,-1131.75 1110,-1131.75 989.75,-1131.75"/>
<path fill="none" stroke="#00688b" d="M1001.75,-1084C1001.75,-1084 1098,-1084 1098,-1084 1104,-1084 1110,-1090 1110,-1096 1110,-1096 1110,-1150.25 1110,-1150.25 1110,-1156.25 1104,-1162.25 1098,-1162.25 1098,-1162.25 1001.75,-1162.25 1001.75,-1162.25 995.75,-1162.25 989.75,-1156.25 989.75,-1150.25 989.75,-1150.25 989.75,-1096 989.75,-1096 989.75,-1090 995.75,-1084 1001.75,-1084"/>
</g>
<!-- Entry&#45;&gt;Idle -->
<g id="edge1" class="edge">
<title>Entry&#45;&gt;Idle</title>
<path fill="none" stroke="red" d="M1049.88,-1198.79C1049.88,-1192.78 1049.88,-1183.32 1049.88,-1173.13"/>
<polygon fill="red" stroke="red" points="1053.38,-1173.44 1049.88,-1163.44 1046.38,-1173.44 1053.38,-1173.44"/>
</g>
<!-- WaitingServerHello -->
<g id="node3" class="node">
<title>WaitingServerHello</title>
<path fill="azure" stroke="none" d="M1249.5,-1031.5C1249.5,-1031.5 850.25,-1031.5 850.25,-1031.5 844.25,-1031.5 838.25,-1025.5 838.25,-1019.5 838.25,-1019.5 838.25,-931.5 838.25,-931.5 838.25,-925.5 844.25,-919.5 850.25,-919.5 850.25,-919.5 1249.5,-919.5 1249.5,-919.5 1255.5,-919.5 1261.5,-925.5 1261.5,-931.5 1261.5,-931.5 1261.5,-1019.5 1261.5,-1019.5 1261.5,-1025.5 1255.5,-1031.5 1249.5,-1031.5"/>
<text xml:space="preserve" text-anchor="start" x="991.75" y="-1011.2" font-family="Times,serif" font-weight="bold" font-size="14.00">WaitingServerHello</text>
<text xml:space="preserve" text-anchor="start" x="846.25" y="-986" font-family="Times,serif" font-size="10.00">$&gt;()</text>
<text xml:space="preserve" text-anchor="start" x="846.25" y="-974.75" font-family="Times,serif" font-size="10.00">&lt;$()</text>
<text xml:space="preserve" text-anchor="start" x="846.25" y="-963.5" font-family="Times,serif" font-size="10.00">server_hello_received(key_share: str, server_random: bytes, supported_versions_ext: int, cipher: str)</text>
<text xml:space="preserve" text-anchor="start" x="846.25" y="-952.25" font-family="Times,serif" font-size="10.00">timeout()</text>
<text xml:space="preserve" text-anchor="start" x="846.25" y="-941" font-family="Times,serif" font-size="10.00">get_status()</text>
<text xml:space="preserve" text-anchor="start" x="1036.38" y="-929.75" font-family="Times,serif" font-size="10.00"> &#160;&#160;&#160;&#160;&#160;&#160;&#160;&#160;&#160;&#160;&#160;</text>
<polygon fill="#00688b" stroke="#00688b" points="838.25,-1001 838.25,-1001 1261.5,-1001 1261.5,-1001 838.25,-1001"/>
<path fill="none" stroke="#00688b" d="M850.25,-919.5C850.25,-919.5 1249.5,-919.5 1249.5,-919.5 1255.5,-919.5 1261.5,-925.5 1261.5,-931.5 1261.5,-931.5 1261.5,-1019.5 1261.5,-1019.5 1261.5,-1025.5 1255.5,-1031.5 1249.5,-1031.5 1249.5,-1031.5 850.25,-1031.5 850.25,-1031.5 844.25,-1031.5 838.25,-1025.5 838.25,-1019.5 838.25,-1019.5 838.25,-931.5 838.25,-931.5 838.25,-925.5 844.25,-919.5 850.25,-919.5"/>
</g>
<!-- Idle&#45;&gt;WaitingServerHello -->
<g id="edge2" class="edge">
<title>Idle&#45;&gt;WaitingServerHello</title>
<path fill="none" stroke="red" d="M1049.88,-1084.24C1049.88,-1071.54 1049.88,-1056.98 1049.88,-1042.76"/>
<polygon fill="red" stroke="red" points="1053.38,-1042.98 1049.88,-1032.98 1046.38,-1042.98 1053.38,-1042.98"/>
<text xml:space="preserve" text-anchor="middle" x="1074.62" y="-1052.7" font-family="Times,serif" font-size="14.00"> connect </text>
</g>
<!-- WaitingEncryptedExtensions -->
<g id="node4" class="node">
<title>WaitingEncryptedExtensions</title>
<path fill="azure" stroke="none" d="M838.62,-867C838.62,-867 677.12,-867 677.12,-867 671.12,-867 665.12,-861 665.12,-855 665.12,-855 665.12,-767 665.12,-767 665.12,-761 671.12,-755 677.12,-755 677.12,-755 838.62,-755 838.62,-755 844.62,-755 850.62,-761 850.62,-767 850.62,-767 850.62,-855 850.62,-855 850.62,-861 844.62,-867 838.62,-867"/>
<text xml:space="preserve" text-anchor="start" x="673.12" y="-846.7" font-family="Times,serif" font-weight="bold" font-size="14.00">WaitingEncryptedExtensions</text>
<text xml:space="preserve" text-anchor="start" x="673.12" y="-821.5" font-family="Times,serif" font-size="10.00">$&gt;()</text>
<text xml:space="preserve" text-anchor="start" x="673.12" y="-810.25" font-family="Times,serif" font-size="10.00">&lt;$()</text>
<text xml:space="preserve" text-anchor="start" x="673.12" y="-799" font-family="Times,serif" font-size="10.00">encrypted_extensions_received(data: str)</text>
<text xml:space="preserve" text-anchor="start" x="673.12" y="-787.75" font-family="Times,serif" font-size="10.00">timeout()</text>
<text xml:space="preserve" text-anchor="start" x="673.12" y="-776.5" font-family="Times,serif" font-size="10.00">get_status()</text>
<text xml:space="preserve" text-anchor="start" x="743.25" y="-765.25" font-family="Times,serif" font-size="10.00"> &#160;&#160;&#160;&#160;&#160;&#160;&#160;&#160;&#160;&#160;&#160;</text>
<polygon fill="#00688b" stroke="#00688b" points="665.12,-836.5 665.12,-836.5 850.62,-836.5 850.62,-836.5 665.12,-836.5"/>
<path fill="none" stroke="#00688b" d="M677.12,-755C677.12,-755 838.62,-755 838.62,-755 844.62,-755 850.62,-761 850.62,-767 850.62,-767 850.62,-855 850.62,-855 850.62,-861 844.62,-867 838.62,-867 838.62,-867 677.12,-867 677.12,-867 671.12,-867 665.12,-861 665.12,-855 665.12,-855 665.12,-767 665.12,-767 665.12,-761 671.12,-755 677.12,-755"/>
</g>
<!-- WaitingServerHello&#45;&gt;WaitingEncryptedExtensions -->
<g id="edge6" class="edge">
<title>WaitingServerHello&#45;&gt;WaitingEncryptedExtensions</title>
<path fill="none" stroke="red" d="M838.26,-939.78C801.61,-929.58 771.32,-916.91 759.12,-901.5 753.76,-894.72 750.67,-886.66 749.12,-878.2"/>
<polygon fill="red" stroke="red" points="752.61,-877.99 748.06,-868.42 745.65,-878.74 752.61,-877.99"/>
<text xml:space="preserve" text-anchor="middle" x="822.5" y="-888.2" font-family="Times,serif" font-size="14.00"> server_hello_received </text>
</g>
<!-- Aborted -->
<g id="node9" class="node">
<title>Aborted</title>
<path fill="azure" stroke="none" d="M786.88,-197.75C786.88,-197.75 746.88,-197.75 746.88,-197.75 740.88,-197.75 734.88,-191.75 734.88,-185.75 734.88,-185.75 734.88,-142.75 734.88,-142.75 734.88,-136.75 740.88,-130.75 746.88,-130.75 746.88,-130.75 786.88,-130.75 786.88,-130.75 792.88,-130.75 798.88,-136.75 798.88,-142.75 798.88,-142.75 798.88,-185.75 798.88,-185.75 798.88,-191.75 792.88,-197.75 786.88,-197.75"/>
<text xml:space="preserve" text-anchor="start" x="742.88" y="-177.45" font-family="Times,serif" font-weight="bold" font-size="14.00">Aborted</text>
<text xml:space="preserve" text-anchor="start" x="742.88" y="-152.25" font-family="Times,serif" font-size="10.00">get_status()</text>
<text xml:space="preserve" text-anchor="start" x="753" y="-141" font-family="Times,serif" font-size="10.00"> &#160;&#160;&#160;&#160;&#160;&#160;&#160;&#160;&#160;&#160;&#160;</text>
<polygon fill="#00688b" stroke="#00688b" points="734.88,-167.25 734.88,-167.25 798.88,-167.25 798.88,-167.25 734.88,-167.25"/>
<path fill="none" stroke="#00688b" d="M746.88,-130.75C746.88,-130.75 786.88,-130.75 786.88,-130.75 792.88,-130.75 798.88,-136.75 798.88,-142.75 798.88,-142.75 798.88,-185.75 798.88,-185.75 798.88,-191.75 792.88,-197.75 786.88,-197.75 786.88,-197.75 746.88,-197.75 746.88,-197.75 740.88,-197.75 734.88,-191.75 734.88,-185.75 734.88,-185.75 734.88,-142.75 734.88,-142.75 734.88,-136.75 740.88,-130.75 746.88,-130.75"/>
</g>
<!-- WaitingServerHello&#45;&gt;Aborted -->
<g id="edge3" class="edge">
<title>WaitingServerHello&#45;&gt;Aborted</title>
<path fill="none" stroke="red" d="M961.75,-919.64C929.1,-892.13 899.88,-855.38 899.88,-812 899.88,-812 899.88,-812 899.88,-316.5 899.88,-260.25 847.36,-214.97 808.32,-189.08"/>
<polygon fill="red" stroke="red" points="810.31,-186.2 800.01,-183.74 806.53,-192.09 810.31,-186.2"/>
<text xml:space="preserve" text-anchor="middle" x="963.25" y="-559.2" font-family="Times,serif" font-size="14.00"> server_hello_received </text>
</g>
<!-- WaitingServerHello&#45;&gt;Aborted -->
<g id="edge4" class="edge">
<title>WaitingServerHello&#45;&gt;Aborted</title>
<path fill="none" stroke="red" d="M1049.88,-919.59C1049.88,-888.1 1049.88,-847.83 1049.88,-812 1049.88,-812 1049.88,-812 1049.88,-316.5 1049.88,-208.98 889.01,-177.61 809.85,-168.69"/>
<polygon fill="red" stroke="red" points="810.6,-165.25 800.29,-167.68 809.87,-172.21 810.6,-165.25"/>
<text xml:space="preserve" text-anchor="middle" x="1113.25" y="-559.2" font-family="Times,serif" font-size="14.00"> server_hello_received </text>
</g>
<!-- WaitingServerHello&#45;&gt;Aborted -->
<g id="edge5" class="edge">
<title>WaitingServerHello&#45;&gt;Aborted</title>
<path fill="none" stroke="red" d="M1138,-919.64C1170.65,-892.13 1199.88,-855.38 1199.88,-812 1199.88,-812 1199.88,-812 1199.88,-316.5 1199.88,-234.49 919.51,-186.53 809.99,-170.92"/>
<polygon fill="red" stroke="red" points="810.6,-167.47 800.21,-169.55 809.63,-174.41 810.6,-167.47"/>
<text xml:space="preserve" text-anchor="middle" x="1263.25" y="-559.2" font-family="Times,serif" font-size="14.00"> server_hello_received </text>
</g>
<!-- WaitingServerHello&#45;&gt;Aborted -->
<g id="edge7" class="edge">
<title>WaitingServerHello&#45;&gt;Aborted</title>
<path fill="none" stroke="red" d="M1261.49,-926.97C1311.13,-902.81 1349.88,-866.49 1349.88,-812 1349.88,-812 1349.88,-812 1349.88,-316.5 1349.88,-204.97 945.09,-174.29 810.1,-167.16"/>
<polygon fill="red" stroke="red" points="810.31,-163.67 800.15,-166.66 809.95,-170.66 810.31,-163.67"/>
<text xml:space="preserve" text-anchor="middle" x="1374.62" y="-559.2" font-family="Times,serif" font-size="14.00"> timeout </text>
</g>
<!-- WaitingCertificate -->
<g id="node5" class="node">
<title>WaitingCertificate</title>
<path fill="azure" stroke="none" d="M697.88,-702.5C697.88,-702.5 561.88,-702.5 561.88,-702.5 555.88,-702.5 549.88,-696.5 549.88,-690.5 549.88,-690.5 549.88,-602.5 549.88,-602.5 549.88,-596.5 555.88,-590.5 561.88,-590.5 561.88,-590.5 697.88,-590.5 697.88,-590.5 703.88,-590.5 709.88,-596.5 709.88,-602.5 709.88,-602.5 709.88,-690.5 709.88,-690.5 709.88,-696.5 703.88,-702.5 697.88,-702.5"/>
<text xml:space="preserve" text-anchor="start" x="575.88" y="-682.2" font-family="Times,serif" font-weight="bold" font-size="14.00">WaitingCertificate</text>
<text xml:space="preserve" text-anchor="start" x="557.88" y="-657" font-family="Times,serif" font-size="10.00">$&gt;()</text>
<text xml:space="preserve" text-anchor="start" x="557.88" y="-645.75" font-family="Times,serif" font-size="10.00">&lt;$()</text>
<text xml:space="preserve" text-anchor="start" x="557.88" y="-634.5" font-family="Times,serif" font-size="10.00">certificate_received(cert_chain: str)</text>
<text xml:space="preserve" text-anchor="start" x="557.88" y="-623.25" font-family="Times,serif" font-size="10.00">timeout()</text>
<text xml:space="preserve" text-anchor="start" x="557.88" y="-612" font-family="Times,serif" font-size="10.00">get_status()</text>
<text xml:space="preserve" text-anchor="start" x="616.38" y="-600.75" font-family="Times,serif" font-size="10.00"> &#160;&#160;&#160;&#160;&#160;&#160;&#160;&#160;&#160;&#160;&#160;</text>
<polygon fill="#00688b" stroke="#00688b" points="549.88,-672 549.88,-672 709.88,-672 709.88,-672 549.88,-672"/>
<path fill="none" stroke="#00688b" d="M561.88,-590.5C561.88,-590.5 697.88,-590.5 697.88,-590.5 703.88,-590.5 709.88,-596.5 709.88,-602.5 709.88,-602.5 709.88,-690.5 709.88,-690.5 709.88,-696.5 703.88,-702.5 697.88,-702.5 697.88,-702.5 561.88,-702.5 561.88,-702.5 555.88,-702.5 549.88,-696.5 549.88,-690.5 549.88,-690.5 549.88,-602.5 549.88,-602.5 549.88,-596.5 555.88,-590.5 561.88,-590.5"/>
</g>
<!-- WaitingEncryptedExtensions&#45;&gt;WaitingCertificate -->
<g id="edge8" class="edge">
<title>WaitingEncryptedExtensions&#45;&gt;WaitingCertificate</title>
<path fill="none" stroke="red" d="M665.24,-772.54C651.54,-762.99 639.23,-751.26 630.88,-737 626.72,-729.9 624.23,-721.91 622.91,-713.71"/>
<polygon fill="red" stroke="red" points="626.41,-713.55 621.93,-703.95 619.45,-714.24 626.41,-713.55"/>
<text xml:space="preserve" text-anchor="middle" x="719.38" y="-723.7" font-family="Times,serif" font-size="14.00"> encrypted_extensions_received </text>
</g>
<!-- WaitingEncryptedExtensions&#45;&gt;Aborted -->
<g id="edge9" class="edge">
<title>WaitingEncryptedExtensions&#45;&gt;Aborted</title>
<path fill="none" stroke="red" d="M800.28,-755.17C803.34,-749.27 805.97,-743.16 807.88,-737 810.04,-729.99 807.94,-727.83 807.88,-720.5 805.87,-500.85 819.11,-443.31 780.88,-227 779.81,-220.98 778.55,-214.66 777.22,-208.45"/>
<polygon fill="red" stroke="red" points="780.7,-207.99 775.13,-198.98 773.87,-209.5 780.7,-207.99"/>
<text xml:space="preserve" text-anchor="middle" x="833.28" y="-476.95" font-family="Times,serif" font-size="14.00"> timeout </text>
</g>
<!-- WaitingCertVerify -->
<g id="node6" class="node">
<title>WaitingCertVerify</title>
<path fill="azure" stroke="none" d="M511.38,-538C511.38,-538 402.38,-538 402.38,-538 396.38,-538 390.38,-532 390.38,-526 390.38,-526 390.38,-438 390.38,-438 390.38,-432 396.38,-426 402.38,-426 402.38,-426 511.38,-426 511.38,-426 517.38,-426 523.38,-432 523.38,-438 523.38,-438 523.38,-526 523.38,-526 523.38,-532 517.38,-538 511.38,-538"/>
<text xml:space="preserve" text-anchor="start" x="402.5" y="-517.7" font-family="Times,serif" font-weight="bold" font-size="14.00">WaitingCertVerify</text>
<text xml:space="preserve" text-anchor="start" x="398.38" y="-492.5" font-family="Times,serif" font-size="10.00">$&gt;()</text>
<text xml:space="preserve" text-anchor="start" x="398.38" y="-481.25" font-family="Times,serif" font-size="10.00">&lt;$()</text>
<text xml:space="preserve" text-anchor="start" x="398.38" y="-470" font-family="Times,serif" font-size="10.00">cert_verify_received(sig: str)</text>
<text xml:space="preserve" text-anchor="start" x="398.38" y="-458.75" font-family="Times,serif" font-size="10.00">timeout()</text>
<text xml:space="preserve" text-anchor="start" x="398.38" y="-447.5" font-family="Times,serif" font-size="10.00">get_status()</text>
<text xml:space="preserve" text-anchor="start" x="443.38" y="-436.25" font-family="Times,serif" font-size="10.00"> &#160;&#160;&#160;&#160;&#160;&#160;&#160;&#160;&#160;&#160;&#160;</text>
<polygon fill="#00688b" stroke="#00688b" points="390.38,-507.5 390.38,-507.5 523.38,-507.5 523.38,-507.5 390.38,-507.5"/>
<path fill="none" stroke="#00688b" d="M402.38,-426C402.38,-426 511.38,-426 511.38,-426 517.38,-426 523.38,-432 523.38,-438 523.38,-438 523.38,-526 523.38,-526 523.38,-532 517.38,-538 511.38,-538 511.38,-538 402.38,-538 402.38,-538 396.38,-538 390.38,-532 390.38,-526 390.38,-526 390.38,-438 390.38,-438 390.38,-432 396.38,-426 402.38,-426"/>
</g>
<!-- WaitingCertificate&#45;&gt;WaitingCertVerify -->
<g id="edge10" class="edge">
<title>WaitingCertificate&#45;&gt;WaitingCertVerify</title>
<path fill="none" stroke="red" d="M550.2,-609.69C532.86,-599.41 515.61,-586.97 501.88,-572.5 495,-565.26 488.95,-556.77 483.7,-547.95"/>
<polygon fill="red" stroke="red" points="486.76,-546.25 478.84,-539.22 480.64,-549.66 486.76,-546.25"/>
<text xml:space="preserve" text-anchor="middle" x="558.88" y="-559.2" font-family="Times,serif" font-size="14.00"> certificate_received </text>
</g>
<!-- WaitingCertificate&#45;&gt;Aborted -->
<g id="edge11" class="edge">
<title>WaitingCertificate&#45;&gt;Aborted</title>
<path fill="none" stroke="red" d="M623.94,-590.65C618.03,-526.29 612.26,-424.22 630.88,-391.5 638.56,-377.98 650.27,-384.87 660.88,-373.5 706.12,-324.99 736.81,-253.49 753.08,-208.16"/>
<polygon fill="red" stroke="red" points="756.31,-209.53 756.31,-198.93 749.71,-207.21 756.31,-209.53"/>
<text xml:space="preserve" text-anchor="middle" x="687.88" y="-394.7" font-family="Times,serif" font-size="14.00"> certificate_received </text>
</g>
<!-- WaitingCertificate&#45;&gt;Aborted -->
<g id="edge12" class="edge">
<title>WaitingCertificate&#45;&gt;Aborted</title>
<path fill="none" stroke="red" d="M663.52,-590.65C690.42,-543.91 726.56,-474 744.88,-408 763.64,-340.38 767.32,-258.51 767.59,-209.22"/>
<polygon fill="red" stroke="red" points="771.09,-209.23 767.6,-199.23 764.09,-209.23 771.09,-209.23"/>
<text xml:space="preserve" text-anchor="middle" x="773.41" y="-394.7" font-family="Times,serif" font-size="14.00"> timeout </text>
</g>
<!-- WaitingServerFinished -->
<g id="node7" class="node">
<title>WaitingServerFinished</title>
<path fill="azure" stroke="none" d="M301.62,-373.5C301.62,-373.5 170.12,-373.5 170.12,-373.5 164.12,-373.5 158.12,-367.5 158.12,-361.5 158.12,-361.5 158.12,-273.5 158.12,-273.5 158.12,-267.5 164.12,-261.5 170.12,-261.5 170.12,-261.5 301.62,-261.5 301.62,-261.5 307.62,-261.5 313.62,-267.5 313.62,-273.5 313.62,-273.5 313.62,-361.5 313.62,-361.5 313.62,-367.5 307.62,-373.5 301.62,-373.5"/>
<text xml:space="preserve" text-anchor="start" x="168.75" y="-353.2" font-family="Times,serif" font-weight="bold" font-size="14.00">WaitingServerFinished</text>
<text xml:space="preserve" text-anchor="start" x="166.12" y="-328" font-family="Times,serif" font-size="10.00">$&gt;()</text>
<text xml:space="preserve" text-anchor="start" x="166.12" y="-316.75" font-family="Times,serif" font-size="10.00">&lt;$()</text>
<text xml:space="preserve" text-anchor="start" x="166.12" y="-305.5" font-family="Times,serif" font-size="10.00">server_finished_received(mac: str)</text>
<text xml:space="preserve" text-anchor="start" x="166.12" y="-294.25" font-family="Times,serif" font-size="10.00">timeout()</text>
<text xml:space="preserve" text-anchor="start" x="166.12" y="-283" font-family="Times,serif" font-size="10.00">get_status()</text>
<text xml:space="preserve" text-anchor="start" x="222.38" y="-271.75" font-family="Times,serif" font-size="10.00"> &#160;&#160;&#160;&#160;&#160;&#160;&#160;&#160;&#160;&#160;&#160;</text>
<polygon fill="#00688b" stroke="#00688b" points="158.12,-343 158.12,-343 313.62,-343 313.62,-343 158.12,-343"/>
<path fill="none" stroke="#00688b" d="M170.12,-261.5C170.12,-261.5 301.62,-261.5 301.62,-261.5 307.62,-261.5 313.62,-267.5 313.62,-273.5 313.62,-273.5 313.62,-361.5 313.62,-361.5 313.62,-367.5 307.62,-373.5 301.62,-373.5 301.62,-373.5 170.12,-373.5 170.12,-373.5 164.12,-373.5 158.12,-367.5 158.12,-361.5 158.12,-361.5 158.12,-273.5 158.12,-273.5 158.12,-267.5 164.12,-261.5 170.12,-261.5"/>
</g>
<!-- WaitingCertVerify&#45;&gt;WaitingServerFinished -->
<g id="edge13" class="edge">
<title>WaitingCertVerify&#45;&gt;WaitingServerFinished</title>
<path fill="none" stroke="red" d="M390.56,-455.71C363.59,-443.62 333.08,-427.49 308.62,-408 299.03,-400.36 289.87,-391.25 281.47,-381.81"/>
<polygon fill="red" stroke="red" points="284.14,-379.55 274.97,-374.23 278.83,-384.1 284.14,-379.55"/>
<text xml:space="preserve" text-anchor="middle" x="368.25" y="-394.7" font-family="Times,serif" font-size="14.00"> cert_verify_received </text>
</g>
<!-- WaitingCertVerify&#45;&gt;Aborted -->
<g id="edge14" class="edge">
<title>WaitingCertVerify&#45;&gt;Aborted</title>
<path fill="none" stroke="red" d="M439.74,-426.25C428.27,-378.12 420.91,-308.58 455.62,-261.5 487.76,-217.93 645.86,-185.7 723.58,-172.22"/>
<polygon fill="red" stroke="red" points="724.13,-175.67 733.4,-170.54 722.95,-168.77 724.13,-175.67"/>
<text xml:space="preserve" text-anchor="middle" x="515.25" y="-312.45" font-family="Times,serif" font-size="14.00"> cert_verify_received </text>
</g>
<!-- WaitingCertVerify&#45;&gt;Aborted -->
<g id="edge15" class="edge">
<title>WaitingCertVerify&#45;&gt;Aborted</title>
<path fill="none" stroke="red" d="M523.08,-431.54C541.91,-414.82 561.04,-394.92 574.88,-373.5 603.28,-329.52 580.17,-303.54 611.38,-261.5 627.36,-239.97 638.27,-241.43 660.88,-227 681.67,-213.73 705.34,-199.83 725.03,-188.58"/>
<polygon fill="red" stroke="red" points="726.65,-191.69 733.62,-183.71 723.19,-185.6 726.65,-191.69"/>
<text xml:space="preserve" text-anchor="middle" x="636.12" y="-312.45" font-family="Times,serif" font-size="14.00"> timeout </text>
</g>
<!-- Established -->
<g id="node8" class="node">
<title>Established</title>
<path fill="azure" stroke="none" d="M103.75,-209C103.75,-209 12,-209 12,-209 6,-209 0,-203 0,-197 0,-197 0,-131.5 0,-131.5 0,-125.5 6,-119.5 12,-119.5 12,-119.5 103.75,-119.5 103.75,-119.5 109.75,-119.5 115.75,-125.5 115.75,-131.5 115.75,-131.5 115.75,-197 115.75,-197 115.75,-203 109.75,-209 103.75,-209"/>
<text xml:space="preserve" text-anchor="start" x="24.5" y="-188.7" font-family="Times,serif" font-weight="bold" font-size="14.00">Established</text>
<text xml:space="preserve" text-anchor="start" x="8" y="-163.5" font-family="Times,serif" font-size="10.00">send_app_data(data: str)</text>
<text xml:space="preserve" text-anchor="start" x="8" y="-152.25" font-family="Times,serif" font-size="10.00">close()</text>
<text xml:space="preserve" text-anchor="start" x="8" y="-141" font-family="Times,serif" font-size="10.00">get_status()</text>
<text xml:space="preserve" text-anchor="start" x="44.38" y="-129.75" font-family="Times,serif" font-size="10.00"> &#160;&#160;&#160;&#160;&#160;&#160;&#160;&#160;&#160;&#160;&#160;</text>
<polygon fill="#00688b" stroke="#00688b" points="0,-178.5 0,-178.5 115.75,-178.5 115.75,-178.5 0,-178.5"/>
<path fill="none" stroke="#00688b" d="M12,-119.5C12,-119.5 103.75,-119.5 103.75,-119.5 109.75,-119.5 115.75,-125.5 115.75,-131.5 115.75,-131.5 115.75,-197 115.75,-197 115.75,-203 109.75,-209 103.75,-209 103.75,-209 12,-209 12,-209 6,-209 0,-203 0,-197 0,-197 0,-131.5 0,-131.5 0,-125.5 6,-119.5 12,-119.5"/>
</g>
<!-- WaitingServerFinished&#45;&gt;Established -->
<g id="edge16" class="edge">
<title>WaitingServerFinished&#45;&gt;Established</title>
<path fill="none" stroke="red" d="M158.36,-304.71C121.69,-294.83 81.1,-276.71 58.62,-243.5 53.97,-236.62 51.49,-228.55 50.42,-220.27"/>
<polygon fill="red" stroke="red" points="53.93,-220.21 49.85,-210.43 46.94,-220.62 53.93,-220.21"/>
<text xml:space="preserve" text-anchor="middle" x="130.25" y="-230.2" font-family="Times,serif" font-size="14.00"> server_finished_received </text>
</g>
<!-- WaitingServerFinished&#45;&gt;Aborted -->
<g id="edge17" class="edge">
<title>WaitingServerFinished&#45;&gt;Aborted</title>
<path fill="none" stroke="red" d="M215.5,-261.94C214.15,-249.21 216.07,-236.58 224.62,-227 257.75,-189.89 601.34,-172.12 723.81,-166.92"/>
<polygon fill="red" stroke="red" points="723.6,-170.43 733.44,-166.52 723.31,-163.44 723.6,-170.43"/>
<text xml:space="preserve" text-anchor="middle" x="296.25" y="-230.2" font-family="Times,serif" font-size="14.00"> server_finished_received </text>
</g>
<!-- WaitingServerFinished&#45;&gt;Aborted -->
<g id="edge18" class="edge">
<title>WaitingServerFinished&#45;&gt;Aborted</title>
<path fill="none" stroke="red" d="M313.46,-275.4C331.53,-265.33 350.55,-254.33 367.88,-243.5 378.7,-236.74 379.56,-231.82 391.38,-227 505.23,-180.52 652.03,-168.99 723.68,-166.15"/>
<polygon fill="red" stroke="red" points="723.55,-169.66 733.42,-165.81 723.3,-162.66 723.55,-169.66"/>
<text xml:space="preserve" text-anchor="middle" x="416.12" y="-230.2" font-family="Times,serif" font-size="14.00"> timeout </text>
</g>
<!-- Closed -->
<g id="node10" class="node">
<title>Closed</title>
<path fill="azure" stroke="none" d="M77.5,-67C77.5,-67 38.25,-67 38.25,-67 32.25,-67 26.25,-61 26.25,-55 26.25,-55 26.25,-12 26.25,-12 26.25,-6 32.25,0 38.25,0 38.25,0 77.5,0 77.5,0 83.5,0 89.5,-6 89.5,-12 89.5,-12 89.5,-55 89.5,-55 89.5,-61 83.5,-67 77.5,-67"/>
<text xml:space="preserve" text-anchor="start" x="38.38" y="-46.7" font-family="Times,serif" font-weight="bold" font-size="14.00">Closed</text>
<text xml:space="preserve" text-anchor="start" x="34.25" y="-21.5" font-family="Times,serif" font-size="10.00">get_status()</text>
<text xml:space="preserve" text-anchor="start" x="44.38" y="-10.25" font-family="Times,serif" font-size="10.00"> &#160;&#160;&#160;&#160;&#160;&#160;&#160;&#160;&#160;&#160;&#160;</text>
<polygon fill="#00688b" stroke="#00688b" points="26.25,-36.5 26.25,-36.5 89.5,-36.5 89.5,-36.5 26.25,-36.5"/>
<path fill="none" stroke="#00688b" d="M38.25,0C38.25,0 77.5,0 77.5,0 83.5,0 89.5,-6 89.5,-12 89.5,-12 89.5,-55 89.5,-55 89.5,-61 83.5,-67 77.5,-67 77.5,-67 38.25,-67 38.25,-67 32.25,-67 26.25,-61 26.25,-55 26.25,-55 26.25,-12 26.25,-12 26.25,-6 32.25,0 38.25,0"/>
</g>
<!-- Established&#45;&gt;Closed -->
<g id="edge19" class="edge">
<title>Established&#45;&gt;Closed</title>
<path fill="none" stroke="red" d="M57.88,-119.66C57.88,-106.23 57.88,-91.45 57.88,-78.03"/>
<polygon fill="red" stroke="red" points="61.38,-78.16 57.88,-68.16 54.38,-78.16 61.38,-78.16"/>
<text xml:space="preserve" text-anchor="middle" x="75.5" y="-88.2" font-family="Times,serif" font-size="14.00"> close </text>
</g>
</g>
</svg>
