<?xml version="1.0" encoding="UTF-8" standalone="no"?>
<!DOCTYPE svg PUBLIC "-//W3C//DTD SVG 1.1//EN"
 "http://www.w3.org/Graphics/SVG/1.1/DTD/svg11.dtd">
<!-- Generated by graphviz version 14.1.5 (20260411.2331)
 -->
<!-- Title: OAuthPkceFlow Pages: 1 -->
<svg width="761pt" height="926pt"
 viewBox="0.00 0.00 761.00 926.00" xmlns="http://www.w3.org/2000/svg" xmlns:xlink="http://www.w3.org/1999/xlink">
<g id="graph0" class="graph" transform="scale(1 1) rotate(0) translate(4 922.4)">
<title>OAuthPkceFlow</title>
<polygon fill="white" stroke="none" points="-4,4 -4,-922.4 757.25,-922.4 757.25,4 -4,4"/>
<!-- Entry -->
<g id="node1" class="node">
<title>Entry</title>
<ellipse fill="black" stroke="#00688b" cx="540.75" cy="-911.2" rx="7.2" ry="7.2"/>
</g>
<!-- Idle -->
<g id="node2" class="node">
<title>Idle</title>
<path fill="azure" stroke="none" d="M629,-867C629,-867 452.5,-867 452.5,-867 446.5,-867 440.5,-861 440.5,-855 440.5,-855 440.5,-800.75 440.5,-800.75 440.5,-794.75 446.5,-788.75 452.5,-788.75 452.5,-788.75 629,-788.75 629,-788.75 635,-788.75 641,-794.75 641,-800.75 641,-800.75 641,-855 641,-855 641,-861 635,-867 629,-867"/>
<text xml:space="preserve" text-anchor="start" x="529.5" y="-846.7" font-family="Times,serif" font-weight="bold" font-size="14.00">Idle</text>
<text xml:space="preserve" text-anchor="start" x="448.5" y="-821.5" font-family="Times,serif" font-size="10.00">start(client_id: str, redirect_uri: str, scope: str)</text>
<text xml:space="preserve" text-anchor="start" x="448.5" y="-810.25" font-family="Times,serif" font-size="10.00">get_status()</text>
<text xml:space="preserve" text-anchor="start" x="527.25" y="-799" font-family="Times,serif" font-size="10.00"> &#160;&#160;&#160;&#160;&#160;&#160;&#160;&#160;&#160;&#160;&#160;</text>
<polygon fill="#00688b" stroke="#00688b" points="440.5,-836.5 440.5,-836.5 641,-836.5 641,-836.5 440.5,-836.5"/>
<path fill="none" stroke="#00688b" d="M452.5,-788.75C452.5,-788.75 629,-788.75 629,-788.75 635,-788.75 641,-794.75 641,-800.75 641,-800.75 641,-855 641,-855 641,-861 635,-867 629,-867 629,-867 452.5,-867 452.5,-867 446.5,-867 440.5,-861 440.5,-855 440.5,-855 440.5,-800.75 440.5,-800.75 440.5,-794.75 446.5,-788.75 452.5,-788.75"/>
</g>
<!-- Entry&#45;&gt;Idle -->
<g id="edge1" class="edge">
<title>Entry&#45;&gt;Idle</title>
<path fill="none" stroke="red" d="M540.75,-903.54C540.75,-897.53 540.75,-888.07 540.75,-877.88"/>
<polygon fill="red" stroke="red" points="544.25,-878.19 540.75,-868.19 537.25,-878.19 544.25,-878.19"/>
</g>
<!-- AwaitingRedirect -->
<g id="node3" class="node">
<title>AwaitingRedirect</title>
<path fill="azure" stroke="none" d="M621.5,-736.25C621.5,-736.25 460,-736.25 460,-736.25 454,-736.25 448,-730.25 448,-724.25 448,-724.25 448,-636.25 448,-636.25 448,-630.25 454,-624.25 460,-624.25 460,-624.25 621.5,-624.25 621.5,-624.25 627.5,-624.25 633.5,-630.25 633.5,-636.25 633.5,-636.25 633.5,-724.25 633.5,-724.25 633.5,-730.25 627.5,-736.25 621.5,-736.25"/>
<text xml:space="preserve" text-anchor="start" x="489.75" y="-715.95" font-family="Times,serif" font-weight="bold" font-size="14.00">AwaitingRedirect</text>
<text xml:space="preserve" text-anchor="start" x="456" y="-690.75" font-family="Times,serif" font-size="10.00">$&gt;()</text>
<text xml:space="preserve" text-anchor="start" x="456" y="-679.5" font-family="Times,serif" font-size="10.00">&lt;$()</text>
<text xml:space="preserve" text-anchor="start" x="456" y="-668.25" font-family="Times,serif" font-size="10.00">authorization_redirect(code: str, state: str)</text>
<text xml:space="preserve" text-anchor="start" x="456" y="-657" font-family="Times,serif" font-size="10.00">timeout()</text>
<text xml:space="preserve" text-anchor="start" x="456" y="-645.75" font-family="Times,serif" font-size="10.00">get_status()</text>
<text xml:space="preserve" text-anchor="start" x="527.25" y="-634.5" font-family="Times,serif" font-size="10.00"> &#160;&#160;&#160;&#160;&#160;&#160;&#160;&#160;&#160;&#160;&#160;</text>
<polygon fill="#00688b" stroke="#00688b" points="448,-705.75 448,-705.75 633.5,-705.75 633.5,-705.75 448,-705.75"/>
<path fill="none" stroke="#00688b" d="M460,-624.25C460,-624.25 621.5,-624.25 621.5,-624.25 627.5,-624.25 633.5,-630.25 633.5,-636.25 633.5,-636.25 633.5,-724.25 633.5,-724.25 633.5,-730.25 627.5,-736.25 621.5,-736.25 621.5,-736.25 460,-736.25 460,-736.25 454,-736.25 448,-730.25 448,-724.25 448,-724.25 448,-636.25 448,-636.25 448,-630.25 454,-624.25 460,-624.25"/>
</g>
<!-- Idle&#45;&gt;AwaitingRedirect -->
<g id="edge2" class="edge">
<title>Idle&#45;&gt;AwaitingRedirect</title>
<path fill="none" stroke="red" d="M540.75,-788.99C540.75,-776.29 540.75,-761.73 540.75,-747.51"/>
<polygon fill="red" stroke="red" points="544.25,-747.73 540.75,-737.73 537.25,-747.73 544.25,-747.73"/>
<text xml:space="preserve" text-anchor="middle" x="556.12" y="-757.45" font-family="Times,serif" font-size="14.00"> start </text>
</g>
<!-- ExchangingCode -->
<g id="node4" class="node">
<title>ExchangingCode</title>
<path fill="azure" stroke="none" d="M486.5,-571.75C486.5,-571.75 265,-571.75 265,-571.75 259,-571.75 253,-565.75 253,-559.75 253,-559.75 253,-460.5 253,-460.5 253,-454.5 259,-448.5 265,-448.5 265,-448.5 486.5,-448.5 486.5,-448.5 492.5,-448.5 498.5,-454.5 498.5,-460.5 498.5,-460.5 498.5,-559.75 498.5,-559.75 498.5,-565.75 492.5,-571.75 486.5,-571.75"/>
<text xml:space="preserve" text-anchor="start" x="326.62" y="-551.45" font-family="Times,serif" font-weight="bold" font-size="14.00">ExchangingCode</text>
<text xml:space="preserve" text-anchor="start" x="261" y="-526.25" font-family="Times,serif" font-size="10.00">$&gt;()</text>
<text xml:space="preserve" text-anchor="start" x="261" y="-515" font-family="Times,serif" font-size="10.00">&lt;$()</text>
<text xml:space="preserve" text-anchor="start" x="261" y="-503.75" font-family="Times,serif" font-size="10.00">exchange_response(access_token: str, refresh_token: str)</text>
<text xml:space="preserve" text-anchor="start" x="261" y="-492.5" font-family="Times,serif" font-size="10.00">exchange_error(reason: str)</text>
<text xml:space="preserve" text-anchor="start" x="261" y="-481.25" font-family="Times,serif" font-size="10.00">timeout()</text>
<text xml:space="preserve" text-anchor="start" x="261" y="-470" font-family="Times,serif" font-size="10.00">get_status()</text>
<text xml:space="preserve" text-anchor="start" x="362.25" y="-458.75" font-family="Times,serif" font-size="10.00"> &#160;&#160;&#160;&#160;&#160;&#160;&#160;&#160;&#160;&#160;&#160;</text>
<polygon fill="#00688b" stroke="#00688b" points="253,-541.25 253,-541.25 498.5,-541.25 498.5,-541.25 253,-541.25"/>
<path fill="none" stroke="#00688b" d="M265,-448.5C265,-448.5 486.5,-448.5 486.5,-448.5 492.5,-448.5 498.5,-454.5 498.5,-460.5 498.5,-460.5 498.5,-559.75 498.5,-559.75 498.5,-565.75 492.5,-571.75 486.5,-571.75 486.5,-571.75 265,-571.75 265,-571.75 259,-571.75 253,-565.75 253,-559.75 253,-559.75 253,-460.5 253,-460.5 253,-454.5 259,-448.5 265,-448.5"/>
</g>
<!-- AwaitingRedirect&#45;&gt;ExchangingCode -->
<g id="edge4" class="edge">
<title>AwaitingRedirect&#45;&gt;ExchangingCode</title>
<path fill="none" stroke="red" d="M448.05,-645.42C430,-635.21 412.75,-622.31 400,-606.25 394.35,-599.13 390,-590.85 386.66,-582.21"/>
<polygon fill="red" stroke="red" points="390.05,-581.32 383.54,-572.96 383.42,-583.55 390.05,-581.32"/>
<text xml:space="preserve" text-anchor="middle" x="463.38" y="-592.95" font-family="Times,serif" font-size="14.00"> authorization_redirect </text>
</g>
<!-- Failed -->
<g id="node7" class="node">
<title>Failed</title>
<path fill="azure" stroke="none" d="M437.38,-67C437.38,-67 398.12,-67 398.12,-67 392.12,-67 386.12,-61 386.12,-55 386.12,-55 386.12,-12 386.12,-12 386.12,-6 392.12,0 398.12,0 398.12,0 437.38,0 437.38,0 443.38,0 449.38,-6 449.38,-12 449.38,-12 449.38,-55 449.38,-55 449.38,-61 443.38,-67 437.38,-67"/>
<text xml:space="preserve" text-anchor="start" x="399.75" y="-46.7" font-family="Times,serif" font-weight="bold" font-size="14.00">Failed</text>
<text xml:space="preserve" text-anchor="start" x="394.12" y="-21.5" font-family="Times,serif" font-size="10.00">get_status()</text>
<text xml:space="preserve" text-anchor="start" x="404.25" y="-10.25" font-family="Times,serif" font-size="10.00"> &#160;&#160;&#160;&#160;&#160;&#160;&#160;&#160;&#160;&#160;&#160;</text>
<polygon fill="#00688b" stroke="#00688b" points="386.12,-36.5 386.12,-36.5 449.38,-36.5 449.38,-36.5 386.12,-36.5"/>
<path fill="none" stroke="#00688b" d="M398.12,0C398.12,0 437.38,0 437.38,0 443.38,0 449.38,-6 449.38,-12 449.38,-12 449.38,-55 449.38,-55 449.38,-61 443.38,-67 437.38,-67 437.38,-67 398.12,-67 398.12,-67 392.12,-67 386.12,-61 386.12,-55 386.12,-55 386.12,-12 386.12,-12 386.12,-6 392.12,0 398.12,0"/>
</g>
<!-- AwaitingRedirect&#45;&gt;Failed -->
<g id="edge3" class="edge">
<title>AwaitingRedirect&#45;&gt;Failed</title>
<path fill="none" stroke="red" d="M540.75,-624.35C540.75,-591.5 540.75,-548.92 540.75,-511.12 540.75,-511.12 540.75,-511.12 540.75,-180.12 540.75,-128.03 494.23,-84.93 458.41,-59.47"/>
<polygon fill="red" stroke="red" points="460.58,-56.71 450.35,-53.93 456.61,-62.48 460.58,-56.71"/>
<text xml:space="preserve" text-anchor="middle" x="604.12" y="-340.57" font-family="Times,serif" font-size="14.00"> authorization_redirect </text>
</g>
<!-- AwaitingRedirect&#45;&gt;Failed -->
<g id="edge5" class="edge">
<title>AwaitingRedirect&#45;&gt;Failed</title>
<path fill="none" stroke="red" d="M633.2,-626.08C669.99,-597.56 703.75,-558.49 703.75,-511.12 703.75,-511.12 703.75,-511.12 703.75,-180.12 703.75,-72.19 539.98,-44.22 460.29,-37"/>
<polygon fill="red" stroke="red" points="460.94,-33.54 450.68,-36.2 460.36,-40.52 460.94,-33.54"/>
<text xml:space="preserve" text-anchor="middle" x="728.5" y="-340.57" font-family="Times,serif" font-size="14.00"> timeout </text>
</g>
<!-- Authorized -->
<g id="node5" class="node">
<title>Authorized</title>
<path fill="azure" stroke="none" d="M205.38,-396C205.38,-396 148.12,-396 148.12,-396 142.12,-396 136.12,-390 136.12,-384 136.12,-384 136.12,-307.25 136.12,-307.25 136.12,-301.25 142.12,-295.25 148.12,-295.25 148.12,-295.25 205.38,-295.25 205.38,-295.25 211.38,-295.25 217.38,-301.25 217.38,-307.25 217.38,-307.25 217.38,-384 217.38,-384 217.38,-390 211.38,-396 205.38,-396"/>
<text xml:space="preserve" text-anchor="start" x="144.12" y="-375.7" font-family="Times,serif" font-weight="bold" font-size="14.00">Authorized</text>
<text xml:space="preserve" text-anchor="start" x="144.12" y="-350.5" font-family="Times,serif" font-size="10.00">use_token()</text>
<text xml:space="preserve" text-anchor="start" x="144.12" y="-339.25" font-family="Times,serif" font-size="10.00">refresh()</text>
<text xml:space="preserve" text-anchor="start" x="144.12" y="-328" font-family="Times,serif" font-size="10.00">revoke()</text>
<text xml:space="preserve" text-anchor="start" x="144.12" y="-316.75" font-family="Times,serif" font-size="10.00">get_status()</text>
<text xml:space="preserve" text-anchor="start" x="154.62" y="-305.5" font-family="Times,serif" font-size="10.00"> &#160;&#160;&#160;&#160;&#160;&#160;&#160;&#160;&#160;&#160;&#160;</text>
<polygon fill="#00688b" stroke="#00688b" points="136.12,-365.5 136.12,-365.5 217.38,-365.5 217.38,-365.5 136.12,-365.5"/>
<path fill="none" stroke="#00688b" d="M148.12,-295.25C148.12,-295.25 205.38,-295.25 205.38,-295.25 211.38,-295.25 217.38,-301.25 217.38,-307.25 217.38,-307.25 217.38,-384 217.38,-384 217.38,-390 211.38,-396 205.38,-396 205.38,-396 148.12,-396 148.12,-396 142.12,-396 136.12,-390 136.12,-384 136.12,-384 136.12,-307.25 136.12,-307.25 136.12,-301.25 142.12,-295.25 148.12,-295.25"/>
</g>
<!-- ExchangingCode&#45;&gt;Authorized -->
<g id="edge6" class="edge">
<title>ExchangingCode&#45;&gt;Authorized</title>
<path fill="none" stroke="red" d="M256.66,-448.55C248.77,-442.86 241.21,-436.84 234.25,-430.5 226.03,-423.01 218.37,-414.13 211.49,-404.99"/>
<polygon fill="red" stroke="red" points="214.45,-403.12 205.77,-397.04 208.77,-407.21 214.45,-403.12"/>
<text xml:space="preserve" text-anchor="middle" x="290.5" y="-417.2" font-family="Times,serif" font-size="14.00"> exchange_response </text>
</g>
<!-- ExchangingCode&#45;&gt;Failed -->
<g id="edge7" class="edge">
<title>ExchangingCode&#45;&gt;Failed</title>
<path fill="none" stroke="red" d="M366.6,-448.7C360.37,-398.29 354.53,-324.63 362.25,-260.75 370.1,-195.79 390.2,-122.57 403.92,-77.48"/>
<polygon fill="red" stroke="red" points="407.22,-78.68 406.82,-68.09 400.53,-76.61 407.22,-78.68"/>
<text xml:space="preserve" text-anchor="middle" x="408" y="-263.95" font-family="Times,serif" font-size="14.00"> exchange_error </text>
</g>
<!-- ExchangingCode&#45;&gt;Failed -->
<g id="edge8" class="edge">
<title>ExchangingCode&#45;&gt;Failed</title>
<path fill="none" stroke="red" d="M402.19,-448.51C420.75,-402.52 443.94,-337.19 453.75,-277.25 465.18,-207.43 446.63,-126.04 432.19,-77.48"/>
<polygon fill="red" stroke="red" points="435.62,-76.73 429.35,-68.19 428.93,-78.78 435.62,-76.73"/>
<text xml:space="preserve" text-anchor="middle" x="480.5" y="-263.95" font-family="Times,serif" font-size="14.00"> timeout </text>
</g>
<!-- Refreshing -->
<g id="node6" class="node">
<title>Refreshing</title>
<path fill="azure" stroke="none" d="M233.5,-242.75C233.5,-242.75 12,-242.75 12,-242.75 6,-242.75 0,-236.75 0,-230.75 0,-230.75 0,-131.5 0,-131.5 0,-125.5 6,-119.5 12,-119.5 12,-119.5 233.5,-119.5 233.5,-119.5 239.5,-119.5 245.5,-125.5 245.5,-131.5 245.5,-131.5 245.5,-230.75 245.5,-230.75 245.5,-236.75 239.5,-242.75 233.5,-242.75"/>
<text xml:space="preserve" text-anchor="start" x="91.25" y="-222.45" font-family="Times,serif" font-weight="bold" font-size="14.00">Refreshing</text>
<text xml:space="preserve" text-anchor="start" x="8" y="-197.25" font-family="Times,serif" font-size="10.00">$&gt;()</text>
<text xml:space="preserve" text-anchor="start" x="8" y="-186" font-family="Times,serif" font-size="10.00">&lt;$()</text>
<text xml:space="preserve" text-anchor="start" x="8" y="-174.75" font-family="Times,serif" font-size="10.00">exchange_response(access_token: str, refresh_token: str)</text>
<text xml:space="preserve" text-anchor="start" x="8" y="-163.5" font-family="Times,serif" font-size="10.00">exchange_error(reason: str)</text>
<text xml:space="preserve" text-anchor="start" x="8" y="-152.25" font-family="Times,serif" font-size="10.00">timeout()</text>
<text xml:space="preserve" text-anchor="start" x="8" y="-141" font-family="Times,serif" font-size="10.00">get_status()</text>
<text xml:space="preserve" text-anchor="start" x="109.25" y="-129.75" font-family="Times,serif" font-size="10.00"> &#160;&#160;&#160;&#160;&#160;&#160;&#160;&#160;&#160;&#160;&#160;</text>
<polygon fill="#00688b" stroke="#00688b" points="0,-212.25 0,-212.25 245.5,-212.25 245.5,-212.25 0,-212.25"/>
<path fill="none" stroke="#00688b" d="M12,-119.5C12,-119.5 233.5,-119.5 233.5,-119.5 239.5,-119.5 245.5,-125.5 245.5,-131.5 245.5,-131.5 245.5,-230.75 245.5,-230.75 245.5,-236.75 239.5,-242.75 233.5,-242.75 233.5,-242.75 12,-242.75 12,-242.75 6,-242.75 0,-236.75 0,-230.75 0,-230.75 0,-131.5 0,-131.5 0,-125.5 6,-119.5 12,-119.5"/>
</g>
<!-- Authorized&#45;&gt;Refreshing -->
<g id="edge9" class="edge">
<title>Authorized&#45;&gt;Refreshing</title>
<path fill="none" stroke="red" d="M136.36,-323.96C118.94,-312.72 100.38,-297.03 90.75,-277.25 87.15,-269.85 85.96,-261.94 86.43,-253.96"/>
<polygon fill="red" stroke="red" points="89.87,-254.59 87.88,-244.19 82.95,-253.56 89.87,-254.59"/>
<text xml:space="preserve" text-anchor="middle" x="113.25" y="-263.95" font-family="Times,serif" font-size="14.00"> refresh </text>
</g>
<!-- Revoked -->
<g id="node8" class="node">
<title>Revoked</title>
<path fill="azure" stroke="none" d="M317.88,-214.62C317.88,-214.62 275.62,-214.62 275.62,-214.62 269.62,-214.62 263.62,-208.62 263.62,-202.62 263.62,-202.62 263.62,-159.62 263.62,-159.62 263.62,-153.62 269.62,-147.62 275.62,-147.62 275.62,-147.62 317.88,-147.62 317.88,-147.62 323.88,-147.62 329.88,-153.62 329.88,-159.62 329.88,-159.62 329.88,-202.62 329.88,-202.62 329.88,-208.62 323.88,-214.62 317.88,-214.62"/>
<text xml:space="preserve" text-anchor="start" x="271.62" y="-194.32" font-family="Times,serif" font-weight="bold" font-size="14.00">Revoked</text>
<text xml:space="preserve" text-anchor="start" x="271.62" y="-169.12" font-family="Times,serif" font-size="10.00">get_status()</text>
<text xml:space="preserve" text-anchor="start" x="281.75" y="-157.88" font-family="Times,serif" font-size="10.00"> &#160;&#160;&#160;&#160;&#160;&#160;&#160;&#160;&#160;&#160;&#160;</text>
<polygon fill="#00688b" stroke="#00688b" points="263.62,-184.12 263.62,-184.12 329.88,-184.12 329.88,-184.12 263.62,-184.12"/>
<path fill="none" stroke="#00688b" d="M275.62,-147.62C275.62,-147.62 317.88,-147.62 317.88,-147.62 323.88,-147.62 329.88,-153.62 329.88,-159.62 329.88,-159.62 329.88,-202.62 329.88,-202.62 329.88,-208.62 323.88,-214.62 317.88,-214.62 317.88,-214.62 275.62,-214.62 275.62,-214.62 269.62,-214.62 263.62,-208.62 263.62,-202.62 263.62,-202.62 263.62,-159.62 263.62,-159.62 263.62,-153.62 269.62,-147.62 275.62,-147.62"/>
</g>
<!-- Authorized&#45;&gt;Revoked -->
<g id="edge10" class="edge">
<title>Authorized&#45;&gt;Revoked</title>
<path fill="none" stroke="red" d="M216.94,-323.81C235.46,-312.35 256.27,-296.53 269.75,-277.25 280.4,-262.02 286.87,-242.65 290.8,-225.37"/>
<polygon fill="red" stroke="red" points="294.17,-226.37 292.72,-215.87 287.3,-224.98 294.17,-226.37"/>
<text xml:space="preserve" text-anchor="middle" x="301.14" y="-263.95" font-family="Times,serif" font-size="14.00"> revoke </text>
</g>
<!-- Refreshing&#45;&gt;Authorized -->
<g id="edge11" class="edge">
<title>Refreshing&#45;&gt;Authorized</title>
<path fill="none" stroke="red" d="M142.86,-242.64C147.42,-256.37 152.27,-270.95 156.82,-284.65"/>
<polygon fill="red" stroke="red" points="153.45,-285.61 159.92,-293.99 160.09,-283.4 153.45,-285.61"/>
<text xml:space="preserve" text-anchor="middle" x="209.23" y="-263.95" font-family="Times,serif" font-size="14.00"> exchange_response </text>
</g>
<!-- Refreshing&#45;&gt;Failed -->
<g id="edge12" class="edge">
<title>Refreshing&#45;&gt;Failed</title>
<path fill="none" stroke="red" d="M140.67,-119.84C147.14,-106.68 155.78,-94.01 167.25,-85 199.02,-60.03 312.41,-45.03 375.18,-38.45"/>
<polygon fill="red" stroke="red" points="375.18,-41.97 384.78,-37.47 374.47,-35 375.18,-41.97"/>
<text xml:space="preserve" text-anchor="middle" x="213" y="-88.2" font-family="Times,serif" font-size="14.00"> exchange_error </text>
</g>
<!-- Refreshing&#45;&gt;Failed -->
<g id="edge13" class="edge">
<title>Refreshing&#45;&gt;Failed</title>
<path fill="none" stroke="red" d="M229.83,-119.52C251.91,-107.65 275.17,-95.61 297.25,-85 322.84,-72.7 352.22,-60.36 375.56,-50.95"/>
<polygon fill="red" stroke="red" points="376.76,-54.24 384.75,-47.28 374.16,-47.74 376.76,-54.24"/>
<text xml:space="preserve" text-anchor="middle" x="322" y="-88.2" font-family="Times,serif" font-size="14.00"> timeout </text>
</g>
</g>
</svg>
