<?xml version="1.0" encoding="UTF-8" standalone="no"?>
<!DOCTYPE svg PUBLIC "-//W3C//DTD SVG 1.1//EN"
 "http://www.w3.org/Graphics/SVG/1.1/DTD/svg11.dtd">
<!-- Generated by graphviz version 14.1.5 (20260411.2331)
 -->
<!-- Title: WebAuthnCeremony Pages: 1 -->
<svg width="1515pt" height="433pt"
 viewBox="0.00 0.00 1515.00 433.00" xmlns="http://www.w3.org/2000/svg" xmlns:xlink="http://www.w3.org/1999/xlink">
<g id="graph0" class="graph" transform="scale(1 1) rotate(0) translate(4 428.9)">
<title>WebAuthnCeremony</title>
<polygon fill="white" stroke="none" points="-4,4 -4,-428.9 1510.81,-428.9 1510.81,4 -4,4"/>
<!-- Entry -->
<g id="node1" class="node">
<title>Entry</title>
<ellipse fill="black" stroke="#00688b" cx="645.75" cy="-417.7" rx="7.2" ry="7.2"/>
</g>
<!-- Idle -->
<g id="node2" class="node">
<title>Idle</title>
<path fill="azure" stroke="none" d="M770.75,-373.5C770.75,-373.5 520.75,-373.5 520.75,-373.5 514.75,-373.5 508.75,-367.5 508.75,-361.5 508.75,-361.5 508.75,-296 508.75,-296 508.75,-290 514.75,-284 520.75,-284 520.75,-284 770.75,-284 770.75,-284 776.75,-284 782.75,-290 782.75,-296 782.75,-296 782.75,-361.5 782.75,-361.5 782.75,-367.5 776.75,-373.5 770.75,-373.5"/>
<text xml:space="preserve" text-anchor="start" x="634.5" y="-353.2" font-family="Times,serif" font-weight="bold" font-size="14.00">Idle</text>
<text xml:space="preserve" text-anchor="start" x="516.75" y="-328" font-family="Times,serif" font-size="10.00">begin_registration(user_id: str, rp_id: str)</text>
<text xml:space="preserve" text-anchor="start" x="516.75" y="-316.75" font-family="Times,serif" font-size="10.00">begin_authentication(user_id: str, rp_id: str, uv_required: bool)</text>
<text xml:space="preserve" text-anchor="start" x="516.75" y="-305.5" font-family="Times,serif" font-size="10.00">get_status()</text>
<text xml:space="preserve" text-anchor="start" x="632.25" y="-294.25" font-family="Times,serif" font-size="10.00"> &#160;&#160;&#160;&#160;&#160;&#160;&#160;&#160;&#160;&#160;&#160;</text>
<polygon fill="#00688b" stroke="#00688b" points="508.75,-343 508.75,-343 782.75,-343 782.75,-343 508.75,-343"/>
<path fill="none" stroke="#00688b" d="M520.75,-284C520.75,-284 770.75,-284 770.75,-284 776.75,-284 782.75,-290 782.75,-296 782.75,-296 782.75,-361.5 782.75,-361.5 782.75,-367.5 776.75,-373.5 770.75,-373.5 770.75,-373.5 520.75,-373.5 520.75,-373.5 514.75,-373.5 508.75,-367.5 508.75,-361.5 508.75,-361.5 508.75,-296 508.75,-296 508.75,-290 514.75,-284 520.75,-284"/>
</g>
<!-- Entry&#45;&gt;Idle -->
<g id="edge1" class="edge">
<title>Entry&#45;&gt;Idle</title>
<path fill="none" stroke="red" d="M645.75,-410.16C645.75,-404.25 645.75,-394.91 645.75,-384.66"/>
<polygon fill="red" stroke="red" points="649.25,-384.81 645.75,-374.81 642.25,-384.81 649.25,-384.81"/>
</g>
<!-- AwaitingRegistration -->
<g id="node3" class="node">
<title>AwaitingRegistration</title>
<path fill="azure" stroke="none" d="M507.75,-231.5C507.75,-231.5 299.75,-231.5 299.75,-231.5 293.75,-231.5 287.75,-225.5 287.75,-219.5 287.75,-219.5 287.75,-131.5 287.75,-131.5 287.75,-125.5 293.75,-119.5 299.75,-119.5 299.75,-119.5 507.75,-119.5 507.75,-119.5 513.75,-119.5 519.75,-125.5 519.75,-131.5 519.75,-131.5 519.75,-219.5 519.75,-219.5 519.75,-225.5 513.75,-231.5 507.75,-231.5"/>
<text xml:space="preserve" text-anchor="start" x="341.88" y="-211.2" font-family="Times,serif" font-weight="bold" font-size="14.00">AwaitingRegistration</text>
<text xml:space="preserve" text-anchor="start" x="295.75" y="-186" font-family="Times,serif" font-size="10.00">$&gt;()</text>
<text xml:space="preserve" text-anchor="start" x="295.75" y="-174.75" font-family="Times,serif" font-size="10.00">&lt;$()</text>
<text xml:space="preserve" text-anchor="start" x="295.75" y="-163.5" font-family="Times,serif" font-size="10.00">registration_response(attestation: str, client_data: str)</text>
<text xml:space="preserve" text-anchor="start" x="295.75" y="-152.25" font-family="Times,serif" font-size="10.00">timeout()</text>
<text xml:space="preserve" text-anchor="start" x="295.75" y="-141" font-family="Times,serif" font-size="10.00">get_status()</text>
<text xml:space="preserve" text-anchor="start" x="390.25" y="-129.75" font-family="Times,serif" font-size="10.00"> &#160;&#160;&#160;&#160;&#160;&#160;&#160;&#160;&#160;&#160;&#160;</text>
<polygon fill="#00688b" stroke="#00688b" points="287.75,-201 287.75,-201 519.75,-201 519.75,-201 287.75,-201"/>
<path fill="none" stroke="#00688b" d="M299.75,-119.5C299.75,-119.5 507.75,-119.5 507.75,-119.5 513.75,-119.5 519.75,-125.5 519.75,-131.5 519.75,-131.5 519.75,-219.5 519.75,-219.5 519.75,-225.5 513.75,-231.5 507.75,-231.5 507.75,-231.5 299.75,-231.5 299.75,-231.5 293.75,-231.5 287.75,-225.5 287.75,-219.5 287.75,-219.5 287.75,-131.5 287.75,-131.5 287.75,-125.5 293.75,-119.5 299.75,-119.5"/>
</g>
<!-- Idle&#45;&gt;AwaitingRegistration -->
<g id="edge2" class="edge">
<title>Idle&#45;&gt;AwaitingRegistration</title>
<path fill="none" stroke="red" d="M575.75,-284C552.48,-269.46 526.13,-252.99 501.17,-237.39"/>
<polygon fill="red" stroke="red" points="503.3,-234.59 492.97,-232.26 499.59,-240.53 503.3,-234.59"/>
<text xml:space="preserve" text-anchor="middle" x="599.3" y="-252.7" font-family="Times,serif" font-size="14.00"> begin_registration </text>
</g>
<!-- AwaitingAssertion -->
<g id="node4" class="node">
<title>AwaitingAssertion</title>
<path fill="azure" stroke="none" d="M1138.88,-231.5C1138.88,-231.5 916.62,-231.5 916.62,-231.5 910.62,-231.5 904.62,-225.5 904.62,-219.5 904.62,-219.5 904.62,-131.5 904.62,-131.5 904.62,-125.5 910.62,-119.5 916.62,-119.5 916.62,-119.5 1138.88,-119.5 1138.88,-119.5 1144.88,-119.5 1150.88,-125.5 1150.88,-131.5 1150.88,-131.5 1150.88,-219.5 1150.88,-219.5 1150.88,-225.5 1144.88,-231.5 1138.88,-231.5"/>
<text xml:space="preserve" text-anchor="start" x="974.12" y="-211.2" font-family="Times,serif" font-weight="bold" font-size="14.00">AwaitingAssertion</text>
<text xml:space="preserve" text-anchor="start" x="912.62" y="-186" font-family="Times,serif" font-size="10.00">$&gt;()</text>
<text xml:space="preserve" text-anchor="start" x="912.62" y="-174.75" font-family="Times,serif" font-size="10.00">&lt;$()</text>
<text xml:space="preserve" text-anchor="start" x="912.62" y="-163.5" font-family="Times,serif" font-size="10.00">assertion_response(assertion: str, client_data: str, sig: str)</text>
<text xml:space="preserve" text-anchor="start" x="912.62" y="-152.25" font-family="Times,serif" font-size="10.00">timeout()</text>
<text xml:space="preserve" text-anchor="start" x="912.62" y="-141" font-family="Times,serif" font-size="10.00">get_status()</text>
<text xml:space="preserve" text-anchor="start" x="1014.25" y="-129.75" font-family="Times,serif" font-size="10.00"> &#160;&#160;&#160;&#160;&#160;&#160;&#160;&#160;&#160;&#160;&#160;</text>
<polygon fill="#00688b" stroke="#00688b" points="904.62,-201 904.62,-201 1150.88,-201 1150.88,-201 904.62,-201"/>
<path fill="none" stroke="#00688b" d="M916.62,-119.5C916.62,-119.5 1138.88,-119.5 1138.88,-119.5 1144.88,-119.5 1150.88,-125.5 1150.88,-131.5 1150.88,-131.5 1150.88,-219.5 1150.88,-219.5 1150.88,-225.5 1144.88,-231.5 1138.88,-231.5 1138.88,-231.5 916.62,-231.5 916.62,-231.5 910.62,-231.5 904.62,-225.5 904.62,-219.5 904.62,-219.5 904.62,-131.5 904.62,-131.5 904.62,-125.5 910.62,-119.5 916.62,-119.5"/>
</g>
<!-- Idle&#45;&gt;AwaitingAssertion -->
<g id="edge3" class="edge">
<title>Idle&#45;&gt;AwaitingAssertion</title>
<path fill="none" stroke="red" d="M756.24,-284C799.37,-266.92 849.21,-247.19 894.33,-229.33"/>
<polygon fill="red" stroke="red" points="895.36,-232.68 903.37,-225.75 892.78,-226.18 895.36,-232.68"/>
<text xml:space="preserve" text-anchor="middle" x="897.12" y="-252.7" font-family="Times,serif" font-size="14.00"> begin_authentication </text>
</g>
<!-- Registered -->
<g id="node5" class="node">
<title>Registered</title>
<path fill="azure" stroke="none" d="M65.5,-67C65.5,-67 12,-67 12,-67 6,-67 0,-61 0,-55 0,-55 0,-12 0,-12 0,-6 6,0 12,0 12,0 65.5,0 65.5,0 71.5,0 77.5,-6 77.5,-12 77.5,-12 77.5,-55 77.5,-55 77.5,-61 71.5,-67 65.5,-67"/>
<text xml:space="preserve" text-anchor="start" x="8" y="-46.7" font-family="Times,serif" font-weight="bold" font-size="14.00">Registered</text>
<text xml:space="preserve" text-anchor="start" x="8" y="-21.5" font-family="Times,serif" font-size="10.00">get_status()</text>
<text xml:space="preserve" text-anchor="start" x="18.12" y="-10.25" font-family="Times,serif" font-size="10.00"> &#160;&#160;&#160;&#160;&#160;&#160;&#160;&#160;&#160;&#160;&#160;</text>
<polygon fill="#00688b" stroke="#00688b" points="0,-36.5 0,-36.5 77.5,-36.5 77.5,-36.5 0,-36.5"/>
<path fill="none" stroke="#00688b" d="M12,0C12,0 65.5,0 65.5,0 71.5,0 77.5,-6 77.5,-12 77.5,-12 77.5,-55 77.5,-55 77.5,-61 71.5,-67 65.5,-67 65.5,-67 12,-67 12,-67 6,-67 0,-61 0,-55 0,-55 0,-12 0,-12 0,-6 6,0 12,0"/>
</g>
<!-- AwaitingRegistration&#45;&gt;Registered -->
<g id="edge7" class="edge">
<title>AwaitingRegistration&#45;&gt;Registered</title>
<path fill="none" stroke="red" d="M287.79,-164.68C197.51,-154.55 82.24,-135.34 49.75,-101.5 43.68,-95.17 40.2,-86.87 38.33,-78.26"/>
<polygon fill="red" stroke="red" points="41.81,-77.83 36.93,-68.42 34.88,-78.82 41.81,-77.83"/>
<text xml:space="preserve" text-anchor="middle" x="111.25" y="-88.2" font-family="Times,serif" font-size="14.00"> registration_response </text>
</g>
<!-- Failed -->
<g id="node7" class="node">
<title>Failed</title>
<path fill="azure" stroke="none" d="M781.38,-67C781.38,-67 742.12,-67 742.12,-67 736.12,-67 730.12,-61 730.12,-55 730.12,-55 730.12,-12 730.12,-12 730.12,-6 736.12,0 742.12,0 742.12,0 781.38,0 781.38,0 787.38,0 793.38,-6 793.38,-12 793.38,-12 793.38,-55 793.38,-55 793.38,-61 787.38,-67 781.38,-67"/>
<text xml:space="preserve" text-anchor="start" x="743.75" y="-46.7" font-family="Times,serif" font-weight="bold" font-size="14.00">Failed</text>
<text xml:space="preserve" text-anchor="start" x="738.12" y="-21.5" font-family="Times,serif" font-size="10.00">get_status()</text>
<text xml:space="preserve" text-anchor="start" x="748.25" y="-10.25" font-family="Times,serif" font-size="10.00"> &#160;&#160;&#160;&#160;&#160;&#160;&#160;&#160;&#160;&#160;&#160;</text>
<polygon fill="#00688b" stroke="#00688b" points="730.12,-36.5 730.12,-36.5 793.38,-36.5 793.38,-36.5 730.12,-36.5"/>
<path fill="none" stroke="#00688b" d="M742.12,0C742.12,0 781.38,0 781.38,0 787.38,0 793.38,-6 793.38,-12 793.38,-12 793.38,-55 793.38,-55 793.38,-61 787.38,-67 781.38,-67 781.38,-67 742.12,-67 742.12,-67 736.12,-67 730.12,-61 730.12,-55 730.12,-55 730.12,-12 730.12,-12 730.12,-6 736.12,0 742.12,0"/>
</g>
<!-- AwaitingRegistration&#45;&gt;Failed -->
<g id="edge4" class="edge">
<title>AwaitingRegistration&#45;&gt;Failed</title>
<path fill="none" stroke="red" d="M288.08,-162.36C217.12,-150.45 146.71,-127.61 185.75,-85 221.63,-45.84 591.87,-36.91 719.1,-35"/>
<polygon fill="red" stroke="red" points="718.82,-38.5 728.77,-34.86 718.72,-31.5 718.82,-38.5"/>
<text xml:space="preserve" text-anchor="middle" x="247.25" y="-88.2" font-family="Times,serif" font-size="14.00"> registration_response </text>
</g>
<!-- AwaitingRegistration&#45;&gt;Failed -->
<g id="edge5" class="edge">
<title>AwaitingRegistration&#45;&gt;Failed</title>
<path fill="none" stroke="red" d="M331.45,-119.83C323.82,-108.16 321.94,-96.03 331.75,-85 357.24,-56.34 615.49,-41.28 719.09,-36.35"/>
<polygon fill="red" stroke="red" points="719.02,-39.86 728.84,-35.9 718.69,-32.86 719.02,-39.86"/>
<text xml:space="preserve" text-anchor="middle" x="393.25" y="-88.2" font-family="Times,serif" font-size="14.00"> registration_response </text>
</g>
<!-- AwaitingRegistration&#45;&gt;Failed -->
<g id="edge6" class="edge">
<title>AwaitingRegistration&#45;&gt;Failed</title>
<path fill="none" stroke="red" d="M438.88,-119.6C449.81,-106.4 462.95,-93.63 477.75,-85 518.03,-61.51 649.99,-45.47 718.94,-38.47"/>
<polygon fill="red" stroke="red" points="719.13,-41.97 728.73,-37.5 718.44,-35.01 719.13,-41.97"/>
<text xml:space="preserve" text-anchor="middle" x="539.25" y="-88.2" font-family="Times,serif" font-size="14.00"> registration_response </text>
</g>
<!-- AwaitingRegistration&#45;&gt;Failed -->
<g id="edge8" class="edge">
<title>AwaitingRegistration&#45;&gt;Failed</title>
<path fill="none" stroke="red" d="M519.75,-132.61C546.45,-122.67 574.67,-111.91 600.75,-101.5 618.04,-94.6 622.09,-92.21 639.25,-85 666.01,-73.75 696.15,-61.32 719.83,-51.61"/>
<polygon fill="red" stroke="red" points="720.9,-54.96 728.83,-47.93 718.25,-48.48 720.9,-54.96"/>
<text xml:space="preserve" text-anchor="middle" x="664" y="-88.2" font-family="Times,serif" font-size="14.00"> timeout </text>
</g>
<!-- Authenticated -->
<g id="node6" class="node">
<title>Authenticated</title>
<path fill="azure" stroke="none" d="M1470.62,-67C1470.62,-67 1396.88,-67 1396.88,-67 1390.88,-67 1384.88,-61 1384.88,-55 1384.88,-55 1384.88,-12 1384.88,-12 1384.88,-6 1390.88,0 1396.88,0 1396.88,0 1470.62,0 1470.62,0 1476.62,0 1482.62,-6 1482.62,-12 1482.62,-12 1482.62,-55 1482.62,-55 1482.62,-61 1476.62,-67 1470.62,-67"/>
<text xml:space="preserve" text-anchor="start" x="1392.88" y="-46.7" font-family="Times,serif" font-weight="bold" font-size="14.00">Authenticated</text>
<text xml:space="preserve" text-anchor="start" x="1392.88" y="-21.5" font-family="Times,serif" font-size="10.00">get_status()</text>
<text xml:space="preserve" text-anchor="start" x="1403" y="-10.25" font-family="Times,serif" font-size="10.00"> &#160;&#160;&#160;&#160;&#160;&#160;&#160;&#160;&#160;&#160;&#160;</text>
<polygon fill="#00688b" stroke="#00688b" points="1384.88,-36.5 1384.88,-36.5 1482.62,-36.5 1482.62,-36.5 1384.88,-36.5"/>
<path fill="none" stroke="#00688b" d="M1396.88,0C1396.88,0 1470.62,0 1470.62,0 1476.62,0 1482.62,-6 1482.62,-12 1482.62,-12 1482.62,-55 1482.62,-55 1482.62,-61 1476.62,-67 1470.62,-67 1470.62,-67 1396.88,-67 1396.88,-67 1390.88,-67 1384.88,-61 1384.88,-55 1384.88,-55 1384.88,-12 1384.88,-12 1384.88,-6 1390.88,0 1396.88,0"/>
</g>
<!-- AwaitingAssertion&#45;&gt;Authenticated -->
<g id="edge14" class="edge">
<title>AwaitingAssertion&#45;&gt;Authenticated</title>
<path fill="none" stroke="red" d="M1150.75,-168.4C1221.04,-160.29 1308.5,-142.05 1376.75,-101.5 1387.71,-94.99 1397.58,-85.61 1405.91,-75.91"/>
<polygon fill="red" stroke="red" points="1408.6,-78.15 1412.16,-68.17 1403.15,-73.75 1408.6,-78.15"/>
<text xml:space="preserve" text-anchor="middle" x="1452.06" y="-88.2" font-family="Times,serif" font-size="14.00"> assertion_response </text>
</g>
<!-- AwaitingAssertion&#45;&gt;Failed -->
<g id="edge9" class="edge">
<title>AwaitingAssertion&#45;&gt;Failed</title>
<path fill="none" stroke="red" d="M905.05,-163.32C822.21,-152.93 723.38,-134.03 697.25,-101.5 684.13,-85.16 700.88,-68.17 720.6,-55.39"/>
<polygon fill="red" stroke="red" points="722.35,-58.42 729.1,-50.26 718.73,-52.43 722.35,-58.42"/>
<text xml:space="preserve" text-anchor="middle" x="752" y="-88.2" font-family="Times,serif" font-size="14.00"> assertion_response </text>
</g>
<!-- AwaitingAssertion&#45;&gt;Failed -->
<g id="edge10" class="edge">
<title>AwaitingAssertion&#45;&gt;Failed</title>
<path fill="none" stroke="red" d="M904.88,-138.21C879.25,-128.17 853.11,-115.96 830.25,-101.5 818.61,-94.13 807.33,-84.52 797.4,-74.89"/>
<polygon fill="red" stroke="red" points="800,-72.54 790.46,-67.91 795.03,-77.47 800,-72.54"/>
<text xml:space="preserve" text-anchor="middle" x="885" y="-88.2" font-family="Times,serif" font-size="14.00"> assertion_response </text>
</g>
<!-- AwaitingAssertion&#45;&gt;Failed -->
<g id="edge11" class="edge">
<title>AwaitingAssertion&#45;&gt;Failed</title>
<path fill="none" stroke="red" d="M982.82,-119.76C970.03,-106.87 955.31,-94.22 939.75,-85 897.43,-59.91 842.04,-46.77 804.36,-40.25"/>
<polygon fill="red" stroke="red" points="805.2,-36.85 794.76,-38.69 804.07,-43.75 805.2,-36.85"/>
<text xml:space="preserve" text-anchor="middle" x="1016.79" y="-88.2" font-family="Times,serif" font-size="14.00"> assertion_response </text>
</g>
<!-- AwaitingAssertion&#45;&gt;Failed -->
<g id="edge12" class="edge">
<title>AwaitingAssertion&#45;&gt;Failed</title>
<path fill="none" stroke="red" d="M1075.51,-119.85C1080.8,-107.68 1081.54,-95.33 1072.75,-85 1038.78,-45.07 881.36,-36.63 804.37,-34.9"/>
<polygon fill="red" stroke="red" points="804.76,-31.41 794.69,-34.71 804.62,-38.41 804.76,-31.41"/>
<text xml:space="preserve" text-anchor="middle" x="1134.06" y="-88.2" font-family="Times,serif" font-size="14.00"> assertion_response </text>
</g>
<!-- AwaitingAssertion&#45;&gt;Failed -->
<g id="edge13" class="edge">
<title>AwaitingAssertion&#45;&gt;Failed</title>
<path fill="none" stroke="red" d="M1150.79,-146.51C1189.46,-132.07 1216.58,-111.78 1192.75,-85 1167.19,-56.28 908.35,-41.25 804.51,-36.34"/>
<polygon fill="red" stroke="red" points="804.88,-32.86 794.73,-35.89 804.56,-39.85 804.88,-32.86"/>
<text xml:space="preserve" text-anchor="middle" x="1255.77" y="-88.2" font-family="Times,serif" font-size="14.00"> assertion_response </text>
</g>
<!-- AwaitingAssertion&#45;&gt;Failed -->
<g id="edge15" class="edge">
<title>AwaitingAssertion&#45;&gt;Failed</title>
<path fill="none" stroke="red" d="M1150.53,-171.7C1251.44,-165.15 1369.56,-145.04 1314.75,-85 1280.51,-47.49 928.02,-37.52 804.35,-35.16"/>
<polygon fill="red" stroke="red" points="804.69,-31.67 794.63,-34.98 804.56,-38.67 804.69,-31.67"/>
<text xml:space="preserve" text-anchor="middle" x="1348.12" y="-88.2" font-family="Times,serif" font-size="14.00"> timeout </text>
</g>
</g>
</svg>
