<?xml version="1.0" encoding="UTF-8" standalone="no"?>
<!DOCTYPE svg PUBLIC "-//W3C//DTD SVG 1.1//EN"
 "http://www.w3.org/Graphics/SVG/1.1/DTD/svg11.dtd">
<!-- Generated by graphviz version 14.1.5 (20260411.2331)
 -->
<!-- Title: MfaAuth Pages: 1 -->
<svg width="449pt" height="574pt"
 viewBox="0.00 0.00 449.00 574.00" xmlns="http://www.w3.org/2000/svg" xmlns:xlink="http://www.w3.org/1999/xlink">
<g id="graph0" class="graph" transform="scale(1 1) rotate(0) translate(4 570.15)">
<title>MfaAuth</title>
<polygon fill="white" stroke="none" points="-4,4 -4,-570.15 445.3,-570.15 445.3,4 -4,4"/>
<!-- Entry -->
<g id="node1" class="node">
<title>Entry</title>
<ellipse fill="black" stroke="#00688b" cx="148.46" cy="-558.95" rx="7.2" ry="7.2"/>
</g>
<!-- Idle -->
<g id="node2" class="node">
<title>Idle</title>
<path fill="azure" stroke="none" d="M193.21,-514.75C193.21,-514.75 103.71,-514.75 103.71,-514.75 97.71,-514.75 91.71,-508.75 91.71,-502.75 91.71,-502.75 91.71,-448.5 91.71,-448.5 91.71,-442.5 97.71,-436.5 103.71,-436.5 103.71,-436.5 193.21,-436.5 193.21,-436.5 199.21,-436.5 205.21,-442.5 205.21,-448.5 205.21,-448.5 205.21,-502.75 205.21,-502.75 205.21,-508.75 199.21,-514.75 193.21,-514.75"/>
<text xml:space="preserve" text-anchor="start" x="137.21" y="-494.45" font-family="Times,serif" font-weight="bold" font-size="14.00">Idle</text>
<text xml:space="preserve" text-anchor="start" x="99.71" y="-469.25" font-family="Times,serif" font-size="10.00">submit_username(u: str)</text>
<text xml:space="preserve" text-anchor="start" x="99.71" y="-458" font-family="Times,serif" font-size="10.00">get_status()</text>
<text xml:space="preserve" text-anchor="start" x="134.96" y="-446.75" font-family="Times,serif" font-size="10.00"> &#160;&#160;&#160;&#160;&#160;&#160;&#160;&#160;&#160;&#160;&#160;</text>
<polygon fill="#00688b" stroke="#00688b" points="91.71,-484.25 91.71,-484.25 205.21,-484.25 205.21,-484.25 91.71,-484.25"/>
<path fill="none" stroke="#00688b" d="M103.71,-436.5C103.71,-436.5 193.21,-436.5 193.21,-436.5 199.21,-436.5 205.21,-442.5 205.21,-448.5 205.21,-448.5 205.21,-502.75 205.21,-502.75 205.21,-508.75 199.21,-514.75 193.21,-514.75 193.21,-514.75 103.71,-514.75 103.71,-514.75 97.71,-514.75 91.71,-508.75 91.71,-502.75 91.71,-502.75 91.71,-448.5 91.71,-448.5 91.71,-442.5 97.71,-436.5 103.71,-436.5"/>
</g>
<!-- Entry&#45;&gt;Idle -->
<g id="edge1" class="edge">
<title>Entry&#45;&gt;Idle</title>
<path fill="none" stroke="red" d="M148.46,-551.29C148.46,-545.28 148.46,-535.82 148.46,-525.63"/>
<polygon fill="red" stroke="red" points="151.96,-525.94 148.46,-515.94 144.96,-525.94 151.96,-525.94"/>
</g>
<!-- AwaitingPassword -->
<g id="node3" class="node">
<title>AwaitingPassword</title>
<path fill="azure" stroke="none" d="M198.46,-384C198.46,-384 98.46,-384 98.46,-384 92.46,-384 86.46,-378 86.46,-372 86.46,-372 86.46,-317.75 86.46,-317.75 86.46,-311.75 92.46,-305.75 98.46,-305.75 98.46,-305.75 198.46,-305.75 198.46,-305.75 204.46,-305.75 210.46,-311.75 210.46,-317.75 210.46,-317.75 210.46,-372 210.46,-372 210.46,-378 204.46,-384 198.46,-384"/>
<text xml:space="preserve" text-anchor="start" x="94.46" y="-363.7" font-family="Times,serif" font-weight="bold" font-size="14.00">AwaitingPassword</text>
<text xml:space="preserve" text-anchor="start" x="94.46" y="-338.5" font-family="Times,serif" font-size="10.00">submit_password(p: str)</text>
<text xml:space="preserve" text-anchor="start" x="94.46" y="-327.25" font-family="Times,serif" font-size="10.00">get_status()</text>
<text xml:space="preserve" text-anchor="start" x="129.71" y="-316" font-family="Times,serif" font-size="10.00"> &#160;&#160;&#160;&#160;&#160;&#160;&#160;&#160;&#160;&#160;&#160;</text>
<polygon fill="#00688b" stroke="#00688b" points="86.46,-353.5 86.46,-353.5 210.46,-353.5 210.46,-353.5 86.46,-353.5"/>
<path fill="none" stroke="#00688b" d="M98.46,-305.75C98.46,-305.75 198.46,-305.75 198.46,-305.75 204.46,-305.75 210.46,-311.75 210.46,-317.75 210.46,-317.75 210.46,-372 210.46,-372 210.46,-378 204.46,-384 198.46,-384 198.46,-384 98.46,-384 98.46,-384 92.46,-384 86.46,-378 86.46,-372 86.46,-372 86.46,-317.75 86.46,-317.75 86.46,-311.75 92.46,-305.75 98.46,-305.75"/>
</g>
<!-- Idle&#45;&gt;AwaitingPassword -->
<g id="edge2" class="edge">
<title>Idle&#45;&gt;AwaitingPassword</title>
<path fill="none" stroke="red" d="M148.46,-436.69C148.46,-423.71 148.46,-408.99 148.46,-395.24"/>
<polygon fill="red" stroke="red" points="151.96,-395.5 148.46,-385.5 144.96,-395.5 151.96,-395.5"/>
<text xml:space="preserve" text-anchor="middle" x="200.59" y="-405.2" font-family="Times,serif" font-size="14.00"> submit_username </text>
</g>
<!-- AwaitingPassword&#45;&gt;AwaitingPassword -->
<g id="edge5" class="edge">
<title>AwaitingPassword&#45;&gt;AwaitingPassword</title>
<path fill="none" stroke="red" d="M210.18,-356.37C220.96,-354.83 228.46,-351 228.46,-344.88 228.46,-341.14 225.68,-338.26 221.06,-336.23"/>
<polygon fill="red" stroke="red" points="222.21,-332.91 211.65,-333.77 220.44,-339.68 222.21,-332.91"/>
<text xml:space="preserve" text-anchor="middle" x="279.84" y="-339.82" font-family="Times,serif" font-size="14.00"> submit_password </text>
</g>
<!-- AwaitingSecondFactor -->
<g id="node4" class="node">
<title>AwaitingSecondFactor</title>
<path fill="azure" stroke="none" d="M361.46,-253.25C361.46,-253.25 237.46,-253.25 237.46,-253.25 231.46,-253.25 225.46,-247.25 225.46,-241.25 225.46,-241.25 225.46,-154 225.46,-154 225.46,-148 231.46,-142 237.46,-142 237.46,-142 361.46,-142 361.46,-142 367.46,-142 373.46,-148 373.46,-154 373.46,-154 373.46,-241.25 373.46,-241.25 373.46,-247.25 367.46,-253.25 361.46,-253.25"/>
<text xml:space="preserve" text-anchor="start" x="233.46" y="-232.95" font-family="Times,serif" font-weight="bold" font-size="14.00">AwaitingSecondFactor</text>
<text xml:space="preserve" text-anchor="start" x="233.46" y="-207.75" font-family="Times,serif" font-size="10.00">submit_second_factor(code: str)</text>
<text xml:space="preserve" text-anchor="start" x="233.46" y="-196.5" font-family="Times,serif" font-size="10.00">get_status()</text>
<text xml:space="preserve" text-anchor="start" x="285.21" y="-185.25" font-family="Times,serif" font-size="10.00"> &#160;&#160;&#160;&#160;&#160;&#160;&#160;&#160;&#160;&#160;&#160;</text>
<text xml:space="preserve" text-anchor="start" x="233.46" y="-162.75" font-family="Times,serif" font-size="9.00" fill="#666666">attempts: int</text>
<text xml:space="preserve" text-anchor="start" x="241.34" y="-152.25" font-family="Times,serif" font-size="9.00" fill="#666666"> &#160;&#160;&#160;&#160;&#160;&#160;&#160;&#160;&#160;&#160;&#160;</text>
<polygon fill="#00688b" stroke="#00688b" points="225.46,-222.75 225.46,-222.75 373.46,-222.75 373.46,-222.75 225.46,-222.75"/>
<polygon fill="#00688b" stroke="#00688b" points="225.46,-177 225.46,-177 373.46,-177 373.46,-177 225.46,-177"/>
<path fill="none" stroke="#00688b" d="M237.46,-142C237.46,-142 361.46,-142 361.46,-142 367.46,-142 373.46,-148 373.46,-154 373.46,-154 373.46,-241.25 373.46,-241.25 373.46,-247.25 367.46,-253.25 361.46,-253.25 361.46,-253.25 237.46,-253.25 237.46,-253.25 231.46,-253.25 225.46,-247.25 225.46,-241.25 225.46,-241.25 225.46,-154 225.46,-154 225.46,-148 231.46,-142 237.46,-142"/>
</g>
<!-- AwaitingPassword&#45;&gt;AwaitingSecondFactor -->
<g id="edge3" class="edge">
<title>AwaitingPassword&#45;&gt;AwaitingSecondFactor</title>
<path fill="none" stroke="red" d="M210.23,-329.73C234.35,-321.28 260.29,-308.09 277.46,-287.75 283.39,-280.74 287.76,-272.37 290.97,-263.61"/>
<polygon fill="red" stroke="red" points="294.26,-264.83 293.9,-254.25 287.58,-262.75 294.26,-264.83"/>
<text xml:space="preserve" text-anchor="middle" x="338.19" y="-274.45" font-family="Times,serif" font-size="14.00"> submit_password </text>
</g>
<!-- Locked -->
<g id="node6" class="node">
<title>Locked</title>
<path fill="azure" stroke="none" d="M142.09,-89.5C142.09,-89.5 66.84,-89.5 66.84,-89.5 60.84,-89.5 54.84,-83.5 54.84,-77.5 54.84,-77.5 54.84,-12 54.84,-12 54.84,-6 60.84,0 66.84,0 66.84,0 142.09,0 142.09,0 148.09,0 154.09,-6 154.09,-12 154.09,-12 154.09,-77.5 154.09,-77.5 154.09,-83.5 148.09,-89.5 142.09,-89.5"/>
<text xml:space="preserve" text-anchor="start" x="83.09" y="-69.2" font-family="Times,serif" font-weight="bold" font-size="14.00">Locked</text>
<text xml:space="preserve" text-anchor="start" x="62.84" y="-44" font-family="Times,serif" font-size="10.00">$&gt;()</text>
<text xml:space="preserve" text-anchor="start" x="62.84" y="-32.75" font-family="Times,serif" font-size="10.00">cooldown_elapsed()</text>
<text xml:space="preserve" text-anchor="start" x="62.84" y="-21.5" font-family="Times,serif" font-size="10.00">get_status()</text>
<text xml:space="preserve" text-anchor="start" x="90.96" y="-10.25" font-family="Times,serif" font-size="10.00"> &#160;&#160;&#160;&#160;&#160;&#160;&#160;&#160;&#160;&#160;&#160;</text>
<polygon fill="#00688b" stroke="#00688b" points="54.84,-59 54.84,-59 154.09,-59 154.09,-59 54.84,-59"/>
<path fill="none" stroke="#00688b" d="M66.84,0C66.84,0 142.09,0 142.09,0 148.09,0 154.09,-6 154.09,-12 154.09,-12 154.09,-77.5 154.09,-77.5 154.09,-83.5 148.09,-89.5 142.09,-89.5 142.09,-89.5 66.84,-89.5 66.84,-89.5 60.84,-89.5 54.84,-83.5 54.84,-77.5 54.84,-77.5 54.84,-12 54.84,-12 54.84,-6 60.84,0 66.84,0"/>
</g>
<!-- AwaitingPassword&#45;&gt;Locked -->
<g id="edge4" class="edge">
<title>AwaitingPassword&#45;&gt;Locked</title>
<path fill="none" stroke="red" d="M130.77,-305.89C124.19,-289.98 117.43,-271.07 113.71,-253.25 103.1,-202.27 101.51,-142.77 102.15,-100.59"/>
<polygon fill="red" stroke="red" points="105.65,-100.75 102.35,-90.68 98.65,-100.61 105.65,-100.75"/>
<text xml:space="preserve" text-anchor="middle" x="165.09" y="-192.57" font-family="Times,serif" font-size="14.00"> submit_password </text>
</g>
<!-- AwaitingSecondFactor&#45;&gt;AwaitingPassword -->
<g id="edge8" class="edge">
<title>AwaitingSecondFactor&#45;&gt;AwaitingPassword</title>
<path fill="none" stroke="red" d="M225.87,-246.38C221.07,-248.85 216.24,-251.16 211.46,-253.25 183.8,-265.34 164.27,-247.24 145.96,-271.25 140.86,-277.94 138.59,-286.07 138.02,-294.44"/>
<polygon fill="red" stroke="red" points="134.52,-294.43 138.16,-304.38 141.52,-294.33 134.52,-294.43"/>
<text xml:space="preserve" text-anchor="middle" x="209.71" y="-274.45" font-family="Times,serif" font-size="14.00"> submit_second_factor </text>
</g>
<!-- Authenticated -->
<g id="node5" class="node">
<title>Authenticated</title>
<path fill="azure" stroke="none" d="M404.34,-83.88C404.34,-83.88 330.59,-83.88 330.59,-83.88 324.59,-83.88 318.59,-77.88 318.59,-71.88 318.59,-71.88 318.59,-17.62 318.59,-17.62 318.59,-11.62 324.59,-5.62 330.59,-5.62 330.59,-5.62 404.34,-5.62 404.34,-5.62 410.34,-5.62 416.34,-11.62 416.34,-17.62 416.34,-17.62 416.34,-71.88 416.34,-71.88 416.34,-77.88 410.34,-83.88 404.34,-83.88"/>
<text xml:space="preserve" text-anchor="start" x="326.59" y="-63.58" font-family="Times,serif" font-weight="bold" font-size="14.00">Authenticated</text>
<text xml:space="preserve" text-anchor="start" x="326.59" y="-38.38" font-family="Times,serif" font-size="10.00">logout()</text>
<text xml:space="preserve" text-anchor="start" x="326.59" y="-27.12" font-family="Times,serif" font-size="10.00">get_status()</text>
<text xml:space="preserve" text-anchor="start" x="336.71" y="-15.88" font-family="Times,serif" font-size="10.00"> &#160;&#160;&#160;&#160;&#160;&#160;&#160;&#160;&#160;&#160;&#160;</text>
<polygon fill="#00688b" stroke="#00688b" points="318.59,-53.38 318.59,-53.38 416.34,-53.38 416.34,-53.38 318.59,-53.38"/>
<path fill="none" stroke="#00688b" d="M330.59,-5.62C330.59,-5.62 404.34,-5.62 404.34,-5.62 410.34,-5.62 416.34,-11.62 416.34,-17.62 416.34,-17.62 416.34,-71.88 416.34,-71.88 416.34,-77.88 410.34,-83.88 404.34,-83.88 404.34,-83.88 330.59,-83.88 330.59,-83.88 324.59,-83.88 318.59,-77.88 318.59,-71.88 318.59,-71.88 318.59,-17.62 318.59,-17.62 318.59,-11.62 324.59,-5.62 330.59,-5.62"/>
</g>
<!-- AwaitingSecondFactor&#45;&gt;Authenticated -->
<g id="edge6" class="edge">
<title>AwaitingSecondFactor&#45;&gt;Authenticated</title>
<path fill="none" stroke="red" d="M291.13,-142.31C291.32,-130.44 293.15,-118.23 297.96,-107.5 301.24,-100.21 305.84,-93.43 311.15,-87.24"/>
<polygon fill="red" stroke="red" points="313.4,-89.95 317.71,-80.27 308.31,-85.15 313.4,-89.95"/>
<text xml:space="preserve" text-anchor="middle" x="361.71" y="-110.7" font-family="Times,serif" font-size="14.00"> submit_second_factor </text>
</g>
<!-- AwaitingSecondFactor&#45;&gt;Locked -->
<g id="edge7" class="edge">
<title>AwaitingSecondFactor&#45;&gt;Locked</title>
<path fill="none" stroke="red" d="M225.66,-149.32C220.91,-146.74 216.16,-144.28 211.46,-142 190.41,-131.77 180.7,-138.03 161.96,-124 152.56,-116.95 144.01,-107.94 136.55,-98.56"/>
<polygon fill="red" stroke="red" points="139.46,-96.6 130.65,-90.71 133.86,-100.8 139.46,-96.6"/>
<text xml:space="preserve" text-anchor="middle" x="225.71" y="-110.7" font-family="Times,serif" font-size="14.00"> submit_second_factor </text>
</g>
<!-- Authenticated&#45;&gt;Idle -->
<g id="edge9" class="edge">
<title>Authenticated&#45;&gt;Idle</title>
<path fill="none" stroke="red" d="M411.12,-83.78C416.97,-91.03 422.11,-99.02 425.46,-107.5 455.42,-183.15 421.22,-211.27 393.46,-287.75 376.8,-333.65 376.06,-350.56 340.46,-384 305.28,-417.06 255.83,-440.02 215.93,-454.55"/>
<polygon fill="red" stroke="red" points="214.9,-451.2 206.64,-457.83 217.23,-457.8 214.9,-451.2"/>
<text xml:space="preserve" text-anchor="middle" x="420.3" y="-274.45" font-family="Times,serif" font-size="14.00"> logout </text>
</g>
<!-- Locked&#45;&gt;Idle -->
<g id="edge10" class="edge">
<title>Locked&#45;&gt;Idle</title>
<path fill="none" stroke="red" d="M66.93,-89.25C30.27,-137.19 -16.83,-216.92 6.46,-287.75 24.44,-342.4 65.78,-393.61 99.24,-428.55"/>
<polygon fill="red" stroke="red" points="96.58,-430.83 106.06,-435.55 101.59,-425.94 96.58,-430.83"/>
<text xml:space="preserve" text-anchor="middle" x="60.46" y="-274.45" font-family="Times,serif" font-size="14.00"> cooldown_elapsed </text>
</g>
</g>
</svg>
