<?xml version="1.0" encoding="UTF-8" standalone="no"?>
<!DOCTYPE svg PUBLIC "-//W3C//DTD SVG 1.1//EN"
 "http://www.w3.org/Graphics/SVG/1.1/DTD/svg11.dtd">
<!-- Generated by graphviz version 14.1.5 (20260411.2331)
 -->
<!-- Title: KerberosClient Pages: 1 -->
<svg width="610pt" height="544pt"
 viewBox="0.00 0.00 610.00 544.00" xmlns="http://www.w3.org/2000/svg" xmlns:xlink="http://www.w3.org/1999/xlink">
<g id="graph0" class="graph" transform="scale(1 1) rotate(0) translate(4 540.25)">
<title>KerberosClient</title>
<polygon fill="white" stroke="none" points="-4,4 -4,-540.25 606.24,-540.25 606.24,4 -4,4"/>
<g id="clust1" class="cluster">
<title>cluster_HasValidTgt</title>
<path fill="none" stroke="black" d="M298.75,-111.5C298.75,-111.5 565.75,-111.5 565.75,-111.5 571.75,-111.5 577.75,-117.5 577.75,-123.5 577.75,-123.5 577.75,-516.25 577.75,-516.25 577.75,-522.25 571.75,-528.25 565.75,-528.25 565.75,-528.25 298.75,-528.25 298.75,-528.25 292.75,-528.25 286.75,-522.25 286.75,-516.25 286.75,-516.25 286.75,-123.5 286.75,-123.5 286.75,-117.5 292.75,-111.5 298.75,-111.5"/>
<text xml:space="preserve" text-anchor="start" x="398.12" y="-507.5" font-family="Times,serif" font-size="14.00">HasValidTgt</text>
<polygon fill="black" stroke="black" points="394.12,-500.75 394.12,-500.75 470.38,-500.75 470.38,-500.75 394.12,-500.75"/>
</g>
<!-- Entry -->
<g id="node1" class="node">
<title>Entry</title>
<ellipse fill="black" stroke="#00688b" cx="56.75" cy="-442.62" rx="7.2" ry="7.2"/>
</g>
<!-- Idle -->
<g id="node2" class="node">
<title>Idle</title>
<path fill="azure" stroke="none" d="M149.5,-345.38C149.5,-345.38 12,-345.38 12,-345.38 6,-345.38 0,-339.38 0,-333.38 0,-333.38 0,-279.12 0,-279.12 0,-273.12 6,-267.12 12,-267.12 12,-267.12 149.5,-267.12 149.5,-267.12 155.5,-267.12 161.5,-273.12 161.5,-279.12 161.5,-279.12 161.5,-333.38 161.5,-333.38 161.5,-339.38 155.5,-345.38 149.5,-345.38"/>
<text xml:space="preserve" text-anchor="start" x="69.5" y="-325.07" font-family="Times,serif" font-weight="bold" font-size="14.00">Idle</text>
<text xml:space="preserve" text-anchor="start" x="8" y="-299.88" font-family="Times,serif" font-size="10.00">authenticate(user: str, password: str)</text>
<text xml:space="preserve" text-anchor="start" x="8" y="-288.62" font-family="Times,serif" font-size="10.00">get_status()</text>
<text xml:space="preserve" text-anchor="start" x="67.25" y="-277.38" font-family="Times,serif" font-size="10.00"> &#160;&#160;&#160;&#160;&#160;&#160;&#160;&#160;&#160;&#160;&#160;</text>
<polygon fill="#00688b" stroke="#00688b" points="0,-314.88 0,-314.88 161.5,-314.88 161.5,-314.88 0,-314.88"/>
<path fill="none" stroke="#00688b" d="M12,-267.12C12,-267.12 149.5,-267.12 149.5,-267.12 155.5,-267.12 161.5,-273.12 161.5,-279.12 161.5,-279.12 161.5,-333.38 161.5,-333.38 161.5,-339.38 155.5,-345.38 149.5,-345.38 149.5,-345.38 12,-345.38 12,-345.38 6,-345.38 0,-339.38 0,-333.38 0,-333.38 0,-279.12 0,-279.12 0,-273.12 6,-267.12 12,-267.12"/>
</g>
<!-- Entry&#45;&gt;Idle -->
<g id="edge1" class="edge">
<title>Entry&#45;&gt;Idle</title>
<path fill="none" stroke="red" d="M57.91,-435.14C60.44,-420.97 66.67,-386.08 71.99,-356.32"/>
<polygon fill="red" stroke="red" points="75.39,-357.17 73.7,-346.71 68.5,-355.94 75.39,-357.17"/>
</g>
<!-- AwaitingTgt -->
<g id="node3" class="node">
<title>AwaitingTgt</title>
<path fill="azure" stroke="none" d="M238,-209C238,-209 25.5,-209 25.5,-209 19.5,-209 13.5,-203 13.5,-197 13.5,-197 13.5,-131.5 13.5,-131.5 13.5,-125.5 19.5,-119.5 25.5,-119.5 25.5,-119.5 238,-119.5 238,-119.5 244,-119.5 250,-125.5 250,-131.5 250,-131.5 250,-197 250,-197 250,-203 244,-209 238,-209"/>
<text xml:space="preserve" text-anchor="start" x="95.38" y="-188.7" font-family="Times,serif" font-weight="bold" font-size="14.00">AwaitingTgt</text>
<text xml:space="preserve" text-anchor="start" x="21.5" y="-163.5" font-family="Times,serif" font-size="10.00">preauth_accepted(tgt: str, session_key: str, expiry: int)</text>
<text xml:space="preserve" text-anchor="start" x="21.5" y="-152.25" font-family="Times,serif" font-size="10.00">preauth_rejected(reason: str)</text>
<text xml:space="preserve" text-anchor="start" x="21.5" y="-141" font-family="Times,serif" font-size="10.00">get_status()</text>
<text xml:space="preserve" text-anchor="start" x="118.25" y="-129.75" font-family="Times,serif" font-size="10.00"> &#160;&#160;&#160;&#160;&#160;&#160;&#160;&#160;&#160;&#160;&#160;</text>
<polygon fill="#00688b" stroke="#00688b" points="13.5,-178.5 13.5,-178.5 250,-178.5 250,-178.5 13.5,-178.5"/>
<path fill="none" stroke="#00688b" d="M25.5,-119.5C25.5,-119.5 238,-119.5 238,-119.5 244,-119.5 250,-125.5 250,-131.5 250,-131.5 250,-197 250,-197 250,-203 244,-209 238,-209 238,-209 25.5,-209 25.5,-209 19.5,-209 13.5,-203 13.5,-197 13.5,-197 13.5,-131.5 13.5,-131.5 13.5,-125.5 19.5,-119.5 25.5,-119.5"/>
</g>
<!-- Idle&#45;&gt;AwaitingTgt -->
<g id="edge2" class="edge">
<title>Idle&#45;&gt;AwaitingTgt</title>
<path fill="none" stroke="red" d="M60.36,-267.33C55.99,-254.21 54.2,-239.65 60,-227 61.46,-223.82 63.17,-220.73 65.09,-217.76"/>
<polygon fill="red" stroke="red" points="67.81,-219.97 70.93,-209.85 62.18,-215.81 67.81,-219.97"/>
<text xml:space="preserve" text-anchor="middle" x="96.38" y="-230.2" font-family="Times,serif" font-size="14.00"> authenticate </text>
</g>
<!-- HasTgt -->
<g id="node5" class="node">
<title>HasTgt</title>
<path fill="azure" stroke="none" d="M463.88,-481.75C463.88,-481.75 373.62,-481.75 373.62,-481.75 367.62,-481.75 361.62,-475.75 361.62,-469.75 361.62,-469.75 361.62,-415.5 361.62,-415.5 361.62,-409.5 367.62,-403.5 373.62,-403.5 373.62,-403.5 463.88,-403.5 463.88,-403.5 469.88,-403.5 475.88,-409.5 475.88,-415.5 475.88,-415.5 475.88,-469.75 475.88,-469.75 475.88,-475.75 469.88,-481.75 463.88,-481.75"/>
<text xml:space="preserve" text-anchor="start" x="397" y="-461.45" font-family="Times,serif" font-weight="bold" font-size="14.00">HasTgt</text>
<text xml:space="preserve" text-anchor="start" x="369.62" y="-436.25" font-family="Times,serif" font-size="10.00">request_service(spn: str)</text>
<text xml:space="preserve" text-anchor="start" x="369.62" y="-425" font-family="Times,serif" font-size="10.00">get_status()</text>
<text xml:space="preserve" text-anchor="start" x="400.75" y="-413.75" font-family="Times,serif" font-size="10.00"> &#160;&#160;&#160;&#160;&#160;&#160;&#160;&#160;&#160;&#160;&#160;&#160;&#160;&#160;&#160;</text>
<polygon fill="#00688b" stroke="#00688b" points="361.62,-451.25 361.62,-451.25 475.88,-451.25 475.88,-451.25 361.62,-451.25"/>
<path fill="none" stroke="#00688b" d="M373.62,-403.5C373.62,-403.5 463.88,-403.5 463.88,-403.5 469.88,-403.5 475.88,-409.5 475.88,-415.5 475.88,-415.5 475.88,-469.75 475.88,-469.75 475.88,-475.75 469.88,-481.75 463.88,-481.75 463.88,-481.75 373.62,-481.75 373.62,-481.75 367.62,-481.75 361.62,-475.75 361.62,-469.75 361.62,-469.75 361.62,-415.5 361.62,-415.5 361.62,-409.5 367.62,-403.5 373.62,-403.5"/>
</g>
<!-- AwaitingTgt&#45;&gt;HasTgt -->
<g id="edge3" class="edge">
<title>AwaitingTgt&#45;&gt;HasTgt</title>
<path fill="none" stroke="red" d="M173.01,-208.9C177.1,-214.7 180.81,-220.79 183.75,-227 207.71,-277.67 171.72,-307.24 206.75,-351 225.69,-374.65 296.38,-402.03 350.98,-420.45"/>
<polygon fill="red" stroke="red" points="349.64,-423.69 360.24,-423.53 351.85,-417.05 349.64,-423.69"/>
<text xml:space="preserve" text-anchor="middle" x="257.75" y="-301.2" font-family="Times,serif" font-size="14.00"> preauth_accepted </text>
</g>
<!-- Failed -->
<g id="node8" class="node">
<title>Failed</title>
<path fill="azure" stroke="none" d="M151.38,-67C151.38,-67 112.12,-67 112.12,-67 106.12,-67 100.12,-61 100.12,-55 100.12,-55 100.12,-12 100.12,-12 100.12,-6 106.12,0 112.12,0 112.12,0 151.38,0 151.38,0 157.38,0 163.38,-6 163.38,-12 163.38,-12 163.38,-55 163.38,-55 163.38,-61 157.38,-67 151.38,-67"/>
<text xml:space="preserve" text-anchor="start" x="113.75" y="-46.7" font-family="Times,serif" font-weight="bold" font-size="14.00">Failed</text>
<text xml:space="preserve" text-anchor="start" x="108.12" y="-21.5" font-family="Times,serif" font-size="10.00">get_status()</text>
<text xml:space="preserve" text-anchor="start" x="118.25" y="-10.25" font-family="Times,serif" font-size="10.00"> &#160;&#160;&#160;&#160;&#160;&#160;&#160;&#160;&#160;&#160;&#160;</text>
<polygon fill="#00688b" stroke="#00688b" points="100.12,-36.5 100.12,-36.5 163.38,-36.5 163.38,-36.5 100.12,-36.5"/>
<path fill="none" stroke="#00688b" d="M112.12,0C112.12,0 151.38,0 151.38,0 157.38,0 163.38,-6 163.38,-12 163.38,-12 163.38,-55 163.38,-55 163.38,-61 157.38,-67 151.38,-67 151.38,-67 112.12,-67 112.12,-67 106.12,-67 100.12,-61 100.12,-55 100.12,-55 100.12,-12 100.12,-12 100.12,-6 106.12,0 112.12,0"/>
</g>
<!-- AwaitingTgt&#45;&gt;Failed -->
<g id="edge4" class="edge">
<title>AwaitingTgt&#45;&gt;Failed</title>
<path fill="none" stroke="red" d="M131.75,-119.66C131.75,-106.23 131.75,-91.45 131.75,-78.03"/>
<polygon fill="red" stroke="red" points="135.25,-78.16 131.75,-68.16 128.25,-78.16 135.25,-78.16"/>
<text xml:space="preserve" text-anchor="middle" x="180.5" y="-88.2" font-family="Times,serif" font-size="14.00"> preauth_rejected </text>
</g>
<!-- HasValidTgt -->
<g id="node4" class="node">
<title>HasValidTgt</title>
<ellipse fill="azure" stroke="#00688b" cx="294.75" cy="-442.62" rx="0.36" ry="0.36"/>
</g>
<!-- HasValidTgt&#45;&gt;Idle -->
<g id="edge5" class="edge">
<title>HasValidTgt&#45;&gt;Idle</title>
<path fill="none" stroke="red" d="M286.75,-439.66C264.55,-433.95 200.83,-415.82 156,-385.5 142.81,-376.58 130.13,-365.02 119.06,-353.54"/>
<polygon fill="red" stroke="red" points="121.71,-351.26 112.33,-346.34 116.6,-356.04 121.71,-351.26"/>
<text xml:space="preserve" text-anchor="middle" x="169.88" y="-372.2" font-family="Times,serif" font-size="14.00"> tick </text>
</g>
<!-- HasValidTgt&#45;&gt;Idle -->
<g id="edge6" class="edge">
<title>HasValidTgt&#45;&gt;Idle</title>
<path fill="none" stroke="red" d="M286.75,-440.58C252.49,-435.95 118.62,-416.12 91.75,-385.5 84.71,-377.47 80.93,-367.09 79.08,-356.53"/>
<polygon fill="red" stroke="red" points="82.56,-356.15 77.95,-346.61 75.61,-356.94 82.56,-356.15"/>
<text xml:space="preserve" text-anchor="middle" x="112.75" y="-372.2" font-family="Times,serif" font-size="14.00"> logout </text>
</g>
<!-- AwaitingServiceTicket -->
<g id="node6" class="node">
<title>AwaitingServiceTicket</title>
<path fill="azure" stroke="none" d="M493.62,-351C493.62,-351 329.88,-351 329.88,-351 323.88,-351 317.88,-345 317.88,-339 317.88,-339 317.88,-273.5 317.88,-273.5 317.88,-267.5 323.88,-261.5 329.88,-261.5 329.88,-261.5 493.62,-261.5 493.62,-261.5 499.62,-261.5 505.62,-267.5 505.62,-273.5 505.62,-273.5 505.62,-339 505.62,-339 505.62,-345 499.62,-351 493.62,-351"/>
<text xml:space="preserve" text-anchor="start" x="346.12" y="-330.7" font-family="Times,serif" font-weight="bold" font-size="14.00">AwaitingServiceTicket</text>
<text xml:space="preserve" text-anchor="start" x="325.88" y="-305.5" font-family="Times,serif" font-size="10.00">service_ticket_received(st: str, expiry: int)</text>
<text xml:space="preserve" text-anchor="start" x="325.88" y="-294.25" font-family="Times,serif" font-size="10.00">service_ticket_rejected(reason: str)</text>
<text xml:space="preserve" text-anchor="start" x="325.88" y="-283" font-family="Times,serif" font-size="10.00">get_status()</text>
<text xml:space="preserve" text-anchor="start" x="393.75" y="-271.75" font-family="Times,serif" font-size="10.00"> &#160;&#160;&#160;&#160;&#160;&#160;&#160;&#160;&#160;&#160;&#160;&#160;&#160;&#160;&#160;</text>
<polygon fill="#00688b" stroke="#00688b" points="317.88,-320.5 317.88,-320.5 505.62,-320.5 505.62,-320.5 317.88,-320.5"/>
<path fill="none" stroke="#00688b" d="M329.88,-261.5C329.88,-261.5 493.62,-261.5 493.62,-261.5 499.62,-261.5 505.62,-267.5 505.62,-273.5 505.62,-273.5 505.62,-339 505.62,-339 505.62,-345 499.62,-351 493.62,-351 493.62,-351 329.88,-351 329.88,-351 323.88,-351 317.88,-345 317.88,-339 317.88,-339 317.88,-273.5 317.88,-273.5 317.88,-267.5 323.88,-261.5 329.88,-261.5"/>
</g>
<!-- HasTgt&#45;&gt;AwaitingServiceTicket -->
<g id="edge7" class="edge">
<title>HasTgt&#45;&gt;AwaitingServiceTicket</title>
<path fill="none" stroke="red" d="M442.18,-403.66C446.43,-392.63 448.7,-380.46 445.75,-369 445.12,-366.54 444.37,-364.08 443.52,-361.63"/>
<polygon fill="red" stroke="red" points="446.79,-360.38 439.81,-352.4 440.29,-362.98 446.79,-360.38"/>
<text xml:space="preserve" text-anchor="middle" x="492.83" y="-372.2" font-family="Times,serif" font-size="14.00"> request_service </text>
</g>
<!-- AwaitingServiceTicket&#45;&gt;HasTgt -->
<g id="edge9" class="edge">
<title>AwaitingServiceTicket&#45;&gt;HasTgt</title>
<path fill="none" stroke="red" d="M318.28,-347.43C306.32,-358.24 300.92,-371.02 309.75,-385.5 319.39,-401.3 335.05,-412.84 351.54,-421.2"/>
<polygon fill="red" stroke="red" points="349.95,-424.32 360.49,-425.36 352.9,-417.97 349.95,-424.32"/>
<text xml:space="preserve" text-anchor="middle" x="375.75" y="-372.2" font-family="Times,serif" font-size="14.00"> service_ticket_rejected </text>
</g>
<!-- HasServiceTicket -->
<g id="node7" class="node">
<title>HasServiceTicket</title>
<path fill="azure" stroke="none" d="M430.75,-209C430.75,-209 336.75,-209 336.75,-209 330.75,-209 324.75,-203 324.75,-197 324.75,-197 324.75,-131.5 324.75,-131.5 324.75,-125.5 330.75,-119.5 336.75,-119.5 336.75,-119.5 430.75,-119.5 430.75,-119.5 436.75,-119.5 442.75,-125.5 442.75,-131.5 442.75,-131.5 442.75,-197 442.75,-197 442.75,-203 436.75,-209 430.75,-209"/>
<text xml:space="preserve" text-anchor="start" x="332.75" y="-188.7" font-family="Times,serif" font-weight="bold" font-size="14.00">HasServiceTicket</text>
<text xml:space="preserve" text-anchor="start" x="332.75" y="-163.5" font-family="Times,serif" font-size="10.00">tick(now: int)</text>
<text xml:space="preserve" text-anchor="start" x="332.75" y="-152.25" font-family="Times,serif" font-size="10.00">request_service(spn: str)</text>
<text xml:space="preserve" text-anchor="start" x="332.75" y="-141" font-family="Times,serif" font-size="10.00">get_status()</text>
<text xml:space="preserve" text-anchor="start" x="363.88" y="-129.75" font-family="Times,serif" font-size="10.00"> &#160;&#160;&#160;&#160;&#160;&#160;&#160;&#160;&#160;&#160;&#160;&#160;&#160;&#160;&#160;</text>
<polygon fill="#00688b" stroke="#00688b" points="324.75,-178.5 324.75,-178.5 442.75,-178.5 442.75,-178.5 324.75,-178.5"/>
<path fill="none" stroke="#00688b" d="M336.75,-119.5C336.75,-119.5 430.75,-119.5 430.75,-119.5 436.75,-119.5 442.75,-125.5 442.75,-131.5 442.75,-131.5 442.75,-197 442.75,-197 442.75,-203 436.75,-209 430.75,-209 430.75,-209 336.75,-209 336.75,-209 330.75,-209 324.75,-203 324.75,-197 324.75,-197 324.75,-131.5 324.75,-131.5 324.75,-125.5 330.75,-119.5 336.75,-119.5"/>
</g>
<!-- AwaitingServiceTicket&#45;&gt;HasServiceTicket -->
<g id="edge8" class="edge">
<title>AwaitingServiceTicket&#45;&gt;HasServiceTicket</title>
<path fill="none" stroke="red" d="M327.62,-261.73C322.2,-256.26 317.44,-250.19 313.75,-243.5 307.42,-232.02 310.17,-220.81 317.4,-210.63"/>
<polygon fill="red" stroke="red" points="319.98,-213 323.81,-203.12 314.65,-208.46 319.98,-213"/>
<text xml:space="preserve" text-anchor="middle" x="381.25" y="-230.2" font-family="Times,serif" font-size="14.00"> service_ticket_received </text>
</g>
<!-- HasServiceTicket&#45;&gt;Idle -->
<g id="edge10" class="edge">
<title>HasServiceTicket&#45;&gt;Idle</title>
<path fill="none" stroke="red" d="M325.08,-192.36C281.54,-212.48 221.35,-240.29 171.6,-263.27"/>
<polygon fill="red" stroke="red" points="170.14,-260.09 162.53,-267.47 173.07,-266.45 170.14,-260.09"/>
<text xml:space="preserve" text-anchor="middle" x="255.21" y="-230.2" font-family="Times,serif" font-size="14.00"> tick </text>
</g>
<!-- HasServiceTicket&#45;&gt;HasTgt -->
<g id="edge11" class="edge">
<title>HasServiceTicket&#45;&gt;HasTgt</title>
<path fill="none" stroke="red" d="M442.61,-170.99C479.15,-177.94 523.45,-193.26 546.75,-227 586.79,-284.99 581.78,-326.83 542.75,-385.5 529.7,-405.11 508.02,-417.96 486.39,-426.34"/>
<polygon fill="red" stroke="red" points="485.49,-422.95 477.25,-429.6 487.84,-429.54 485.49,-422.95"/>
<text xml:space="preserve" text-anchor="middle" x="588.37" y="-301.2" font-family="Times,serif" font-size="14.00"> tick </text>
</g>
<!-- HasServiceTicket&#45;&gt;AwaitingServiceTicket -->
<g id="edge12" class="edge">
<title>HasServiceTicket&#45;&gt;AwaitingServiceTicket</title>
<path fill="none" stroke="red" d="M437.8,-208.83C442.19,-214.48 445.99,-220.56 448.75,-227 452.09,-234.78 452.17,-242.94 450.25,-250.91"/>
<polygon fill="red" stroke="red" points="447,-249.61 447.03,-260.21 453.61,-251.91 447,-249.61"/>
<text xml:space="preserve" text-anchor="middle" x="497.26" y="-230.2" font-family="Times,serif" font-size="14.00"> request_service </text>
</g>
</g>
</svg>
