<?xml version="1.0" encoding="UTF-8" standalone="no"?>
<!DOCTYPE svg PUBLIC "-//W3C//DTD SVG 1.1//EN"
 "http://www.w3.org/Graphics/SVG/1.1/DTD/svg11.dtd">
<!-- Generated by graphviz version 14.1.5 (20260411.2331)
 -->
<!-- Title: NoiseXxInitiator Pages: 1 -->
<svg width="370pt" height="609pt"
 viewBox="0.00 0.00 370.00 609.00" xmlns="http://www.w3.org/2000/svg" xmlns:xlink="http://www.w3.org/1999/xlink">
<g id="graph0" class="graph" transform="scale(1 1) rotate(0) translate(4 604.65)">
<title>NoiseXxInitiator</title>
<polygon fill="white" stroke="none" points="-4,4 -4,-604.65 365.86,-604.65 365.86,4 -4,4"/>
<!-- Entry -->
<g id="node1" class="node">
<title>Entry</title>
<ellipse fill="black" stroke="#00688b" cx="204.75" cy="-593.45" rx="7.2" ry="7.2"/>
</g>
<!-- Idle -->
<g id="node2" class="node">
<title>Idle</title>
<path fill="azure" stroke="none" d="M254.75,-549.25C254.75,-549.25 154.75,-549.25 154.75,-549.25 148.75,-549.25 142.75,-543.25 142.75,-537.25 142.75,-537.25 142.75,-483 142.75,-483 142.75,-477 148.75,-471 154.75,-471 154.75,-471 254.75,-471 254.75,-471 260.75,-471 266.75,-477 266.75,-483 266.75,-483 266.75,-537.25 266.75,-537.25 266.75,-543.25 260.75,-549.25 254.75,-549.25"/>
<text xml:space="preserve" text-anchor="start" x="193.5" y="-528.95" font-family="Times,serif" font-weight="bold" font-size="14.00">Idle</text>
<text xml:space="preserve" text-anchor="start" x="150.75" y="-503.75" font-family="Times,serif" font-size="10.00">start(remote_endpoint: str)</text>
<text xml:space="preserve" text-anchor="start" x="150.75" y="-492.5" font-family="Times,serif" font-size="10.00">get_status()</text>
<text xml:space="preserve" text-anchor="start" x="191.25" y="-481.25" font-family="Times,serif" font-size="10.00"> &#160;&#160;&#160;&#160;&#160;&#160;&#160;&#160;&#160;&#160;&#160;</text>
<polygon fill="#00688b" stroke="#00688b" points="142.75,-518.75 142.75,-518.75 266.75,-518.75 266.75,-518.75 142.75,-518.75"/>
<path fill="none" stroke="#00688b" d="M154.75,-471C154.75,-471 254.75,-471 254.75,-471 260.75,-471 266.75,-477 266.75,-483 266.75,-483 266.75,-537.25 266.75,-537.25 266.75,-543.25 260.75,-549.25 254.75,-549.25 254.75,-549.25 154.75,-549.25 154.75,-549.25 148.75,-549.25 142.75,-543.25 142.75,-537.25 142.75,-537.25 142.75,-483 142.75,-483 142.75,-477 148.75,-471 154.75,-471"/>
</g>
<!-- Entry&#45;&gt;Idle -->
<g id="edge1" class="edge">
<title>Entry&#45;&gt;Idle</title>
<path fill="none" stroke="red" d="M204.75,-585.79C204.75,-579.78 204.75,-570.32 204.75,-560.13"/>
<polygon fill="red" stroke="red" points="208.25,-560.44 204.75,-550.44 201.25,-560.44 208.25,-560.44"/>
</g>
<!-- AwaitingMsg2 -->
<g id="node3" class="node">
<title>AwaitingMsg2</title>
<path fill="azure" stroke="none" d="M264.5,-418.5C264.5,-418.5 145,-418.5 145,-418.5 139,-418.5 133,-412.5 133,-406.5 133,-406.5 133,-318.5 133,-318.5 133,-312.5 139,-306.5 145,-306.5 145,-306.5 264.5,-306.5 264.5,-306.5 270.5,-306.5 276.5,-312.5 276.5,-318.5 276.5,-318.5 276.5,-406.5 276.5,-406.5 276.5,-412.5 270.5,-418.5 264.5,-418.5"/>
<text xml:space="preserve" text-anchor="start" x="162.38" y="-398.2" font-family="Times,serif" font-weight="bold" font-size="14.00">AwaitingMsg2</text>
<text xml:space="preserve" text-anchor="start" x="141" y="-373" font-family="Times,serif" font-size="10.00">$&gt;()</text>
<text xml:space="preserve" text-anchor="start" x="141" y="-361.75" font-family="Times,serif" font-size="10.00">&lt;$()</text>
<text xml:space="preserve" text-anchor="start" x="141" y="-350.5" font-family="Times,serif" font-size="10.00">msg2_received(payload: bytes)</text>
<text xml:space="preserve" text-anchor="start" x="141" y="-339.25" font-family="Times,serif" font-size="10.00">timeout()</text>
<text xml:space="preserve" text-anchor="start" x="141" y="-328" font-family="Times,serif" font-size="10.00">get_status()</text>
<text xml:space="preserve" text-anchor="start" x="191.25" y="-316.75" font-family="Times,serif" font-size="10.00"> &#160;&#160;&#160;&#160;&#160;&#160;&#160;&#160;&#160;&#160;&#160;</text>
<polygon fill="#00688b" stroke="#00688b" points="133,-388 133,-388 276.5,-388 276.5,-388 133,-388"/>
<path fill="none" stroke="#00688b" d="M145,-306.5C145,-306.5 264.5,-306.5 264.5,-306.5 270.5,-306.5 276.5,-312.5 276.5,-318.5 276.5,-318.5 276.5,-406.5 276.5,-406.5 276.5,-412.5 270.5,-418.5 264.5,-418.5 264.5,-418.5 145,-418.5 145,-418.5 139,-418.5 133,-412.5 133,-406.5 133,-406.5 133,-318.5 133,-318.5 133,-312.5 139,-306.5 145,-306.5"/>
</g>
<!-- Idle&#45;&gt;AwaitingMsg2 -->
<g id="edge2" class="edge">
<title>Idle&#45;&gt;AwaitingMsg2</title>
<path fill="none" stroke="red" d="M204.75,-471.24C204.75,-458.54 204.75,-443.98 204.75,-429.76"/>
<polygon fill="red" stroke="red" points="208.25,-429.98 204.75,-419.98 201.25,-429.98 208.25,-429.98"/>
<text xml:space="preserve" text-anchor="middle" x="220.12" y="-439.7" font-family="Times,serif" font-size="14.00"> start </text>
</g>
<!-- AwaitingAck -->
<g id="node4" class="node">
<title>AwaitingAck</title>
<path fill="azure" stroke="none" d="M133.62,-254C133.62,-254 65.88,-254 65.88,-254 59.88,-254 53.88,-248 53.88,-242 53.88,-242 53.88,-154 53.88,-154 53.88,-148 59.88,-142 65.88,-142 65.88,-142 133.62,-142 133.62,-142 139.62,-142 145.62,-148 145.62,-154 145.62,-154 145.62,-242 145.62,-242 145.62,-248 139.62,-254 133.62,-254"/>
<text xml:space="preserve" text-anchor="start" x="61.88" y="-233.7" font-family="Times,serif" font-weight="bold" font-size="14.00">AwaitingAck</text>
<text xml:space="preserve" text-anchor="start" x="61.88" y="-208.5" font-family="Times,serif" font-size="10.00">$&gt;()</text>
<text xml:space="preserve" text-anchor="start" x="61.88" y="-197.25" font-family="Times,serif" font-size="10.00">&lt;$()</text>
<text xml:space="preserve" text-anchor="start" x="61.88" y="-186" font-family="Times,serif" font-size="10.00">msg3_ack()</text>
<text xml:space="preserve" text-anchor="start" x="61.88" y="-174.75" font-family="Times,serif" font-size="10.00">timeout()</text>
<text xml:space="preserve" text-anchor="start" x="61.88" y="-163.5" font-family="Times,serif" font-size="10.00">get_status()</text>
<text xml:space="preserve" text-anchor="start" x="72" y="-152.25" font-family="Times,serif" font-size="10.00"> &#160;&#160;&#160;&#160;&#160;&#160;&#160;&#160;&#160;&#160;&#160;</text>
<polygon fill="#00688b" stroke="#00688b" points="53.88,-223.5 53.88,-223.5 145.62,-223.5 145.62,-223.5 53.88,-223.5"/>
<path fill="none" stroke="#00688b" d="M65.88,-142C65.88,-142 133.62,-142 133.62,-142 139.62,-142 145.62,-148 145.62,-154 145.62,-154 145.62,-242 145.62,-242 145.62,-248 139.62,-254 133.62,-254 133.62,-254 65.88,-254 65.88,-254 59.88,-254 53.88,-248 53.88,-242 53.88,-242 53.88,-154 53.88,-154 53.88,-148 59.88,-142 65.88,-142"/>
</g>
<!-- AwaitingMsg2&#45;&gt;AwaitingAck -->
<g id="edge3" class="edge">
<title>AwaitingMsg2&#45;&gt;AwaitingAck</title>
<path fill="none" stroke="red" d="M133.07,-324.97C120.1,-314.97 108.31,-302.84 100.75,-288.5 96.92,-281.22 94.62,-273.13 93.4,-264.86"/>
<polygon fill="red" stroke="red" points="96.9,-264.7 92.49,-255.06 89.93,-265.34 96.9,-264.7"/>
<text xml:space="preserve" text-anchor="middle" x="145.75" y="-275.2" font-family="Times,serif" font-size="14.00"> msg2_received </text>
</g>
<!-- Aborted -->
<g id="node6" class="node">
<title>Aborted</title>
<path fill="azure" stroke="none" d="M224.75,-78.25C224.75,-78.25 184.75,-78.25 184.75,-78.25 178.75,-78.25 172.75,-72.25 172.75,-66.25 172.75,-66.25 172.75,-23.25 172.75,-23.25 172.75,-17.25 178.75,-11.25 184.75,-11.25 184.75,-11.25 224.75,-11.25 224.75,-11.25 230.75,-11.25 236.75,-17.25 236.75,-23.25 236.75,-23.25 236.75,-66.25 236.75,-66.25 236.75,-72.25 230.75,-78.25 224.75,-78.25"/>
<text xml:space="preserve" text-anchor="start" x="180.75" y="-57.95" font-family="Times,serif" font-weight="bold" font-size="14.00">Aborted</text>
<text xml:space="preserve" text-anchor="start" x="180.75" y="-32.75" font-family="Times,serif" font-size="10.00">get_status()</text>
<text xml:space="preserve" text-anchor="start" x="190.88" y="-21.5" font-family="Times,serif" font-size="10.00"> &#160;&#160;&#160;&#160;&#160;&#160;&#160;&#160;&#160;&#160;&#160;</text>
<polygon fill="#00688b" stroke="#00688b" points="172.75,-47.75 172.75,-47.75 236.75,-47.75 236.75,-47.75 172.75,-47.75"/>
<path fill="none" stroke="#00688b" d="M184.75,-11.25C184.75,-11.25 224.75,-11.25 224.75,-11.25 230.75,-11.25 236.75,-17.25 236.75,-23.25 236.75,-23.25 236.75,-66.25 236.75,-66.25 236.75,-72.25 230.75,-78.25 224.75,-78.25 224.75,-78.25 184.75,-78.25 184.75,-78.25 178.75,-78.25 172.75,-72.25 172.75,-66.25 172.75,-66.25 172.75,-23.25 172.75,-23.25 172.75,-17.25 178.75,-11.25 184.75,-11.25"/>
</g>
<!-- AwaitingMsg2&#45;&gt;Aborted -->
<g id="edge4" class="edge">
<title>AwaitingMsg2&#45;&gt;Aborted</title>
<path fill="none" stroke="red" d="M204.75,-306.5C204.75,-244.81 204.75,-145.99 204.75,-89.38"/>
<polygon fill="red" stroke="red" points="208.25,-89.48 204.75,-79.48 201.25,-89.48 208.25,-89.48"/>
<text xml:space="preserve" text-anchor="middle" x="249.75" y="-192.95" font-family="Times,serif" font-size="14.00"> msg2_received </text>
</g>
<!-- AwaitingMsg2&#45;&gt;Aborted -->
<g id="edge5" class="edge">
<title>AwaitingMsg2&#45;&gt;Aborted</title>
<path fill="none" stroke="red" d="M265.85,-306.68C279.24,-291.12 291.56,-273.15 298.75,-254 316.25,-207.4 317.53,-188.1 298.75,-142 287.85,-115.24 265.54,-91.87 245.39,-74.86"/>
<polygon fill="red" stroke="red" points="247.77,-72.29 237.8,-68.69 243.35,-77.72 247.77,-72.29"/>
<text xml:space="preserve" text-anchor="middle" x="337.11" y="-192.95" font-family="Times,serif" font-size="14.00"> timeout </text>
</g>
<!-- Transport -->
<g id="node5" class="node">
<title>Transport</title>
<path fill="azure" stroke="none" d="M95.5,-89.5C95.5,-89.5 12,-89.5 12,-89.5 6,-89.5 0,-83.5 0,-77.5 0,-77.5 0,-12 0,-12 0,-6 6,0 12,0 12,0 95.5,0 95.5,0 101.5,0 107.5,-6 107.5,-12 107.5,-12 107.5,-77.5 107.5,-77.5 107.5,-83.5 101.5,-89.5 95.5,-89.5"/>
<text xml:space="preserve" text-anchor="start" x="24.12" y="-69.2" font-family="Times,serif" font-weight="bold" font-size="14.00">Transport</text>
<text xml:space="preserve" text-anchor="start" x="8" y="-44" font-family="Times,serif" font-size="10.00">send(plaintext: bytes)</text>
<text xml:space="preserve" text-anchor="start" x="8" y="-32.75" font-family="Times,serif" font-size="10.00">recv(ciphertext: bytes)</text>
<text xml:space="preserve" text-anchor="start" x="8" y="-21.5" font-family="Times,serif" font-size="10.00">get_status()</text>
<text xml:space="preserve" text-anchor="start" x="40.25" y="-10.25" font-family="Times,serif" font-size="10.00"> &#160;&#160;&#160;&#160;&#160;&#160;&#160;&#160;&#160;&#160;&#160;</text>
<polygon fill="#00688b" stroke="#00688b" points="0,-59 0,-59 107.5,-59 107.5,-59 0,-59"/>
<path fill="none" stroke="#00688b" d="M12,0C12,0 95.5,0 95.5,0 101.5,0 107.5,-6 107.5,-12 107.5,-12 107.5,-77.5 107.5,-77.5 107.5,-83.5 101.5,-89.5 95.5,-89.5 95.5,-89.5 12,-89.5 12,-89.5 6,-89.5 0,-83.5 0,-77.5 0,-77.5 0,-12 0,-12 0,-6 6,0 12,0"/>
</g>
<!-- AwaitingAck&#45;&gt;Transport -->
<g id="edge6" class="edge">
<title>AwaitingAck&#45;&gt;Transport</title>
<path fill="none" stroke="red" d="M61.84,-142.26C58.99,-136.29 56.54,-130.15 54.75,-124 52.61,-116.64 51.37,-108.72 50.73,-100.84"/>
<polygon fill="red" stroke="red" points="54.23,-100.75 50.26,-90.92 47.23,-101.08 54.23,-100.75"/>
<text xml:space="preserve" text-anchor="middle" x="86.25" y="-110.7" font-family="Times,serif" font-size="14.00"> msg3_ack </text>
</g>
<!-- AwaitingAck&#45;&gt;Aborted -->
<g id="edge7" class="edge">
<title>AwaitingAck&#45;&gt;Aborted</title>
<path fill="none" stroke="red" d="M121.28,-142.23C127,-130.32 133.72,-118.12 141.25,-107.5 148.06,-97.9 156.47,-88.52 164.92,-80.09"/>
<polygon fill="red" stroke="red" points="167.12,-82.83 171.89,-73.37 162.26,-77.79 167.12,-82.83"/>
<text xml:space="preserve" text-anchor="middle" x="166" y="-110.7" font-family="Times,serif" font-size="14.00"> timeout </text>
</g>
</g>
</svg>
