<?xml version="1.0" encoding="UTF-8" standalone="no"?>
<!DOCTYPE svg PUBLIC "-//W3C//DTD SVG 1.1//EN"
 "http://www.w3.org/Graphics/SVG/1.1/DTD/svg11.dtd">
<!-- Generated by graphviz version 14.1.5 (20260411.2331)
 -->
<!-- Title: DoubleRatchetSession Pages: 1 -->
<svg width="205pt" height="410pt"
 viewBox="0.00 0.00 205.00 410.00" xmlns="http://www.w3.org/2000/svg" xmlns:xlink="http://www.w3.org/1999/xlink">
<g id="graph0" class="graph" transform="scale(1 1) rotate(0) translate(4 406.4)">
<title>DoubleRatchetSession</title>
<polygon fill="white" stroke="none" points="-4,4 -4,-406.4 200.75,-406.4 200.75,4 -4,4"/>
<!-- Entry -->
<g id="node1" class="node">
<title>Entry</title>
<ellipse fill="black" stroke="#00688b" cx="98.38" cy="-395.2" rx="7.2" ry="7.2"/>
</g>
<!-- Uninit -->
<g id="node2" class="node">
<title>Uninit</title>
<path fill="azure" stroke="none" d="M184.75,-351C184.75,-351 12,-351 12,-351 6,-351 0,-345 0,-339 0,-339 0,-284.75 0,-284.75 0,-278.75 6,-272.75 12,-272.75 12,-272.75 184.75,-272.75 184.75,-272.75 190.75,-272.75 196.75,-278.75 196.75,-284.75 196.75,-284.75 196.75,-339 196.75,-339 196.75,-345 190.75,-351 184.75,-351"/>
<text xml:space="preserve" text-anchor="start" x="80" y="-330.7" font-family="Times,serif" font-weight="bold" font-size="14.00">Uninit</text>
<text xml:space="preserve" text-anchor="start" x="8" y="-305.5" font-family="Times,serif" font-size="10.00">initialize(shared_secret: str, remote_pub: str)</text>
<text xml:space="preserve" text-anchor="start" x="8" y="-294.25" font-family="Times,serif" font-size="10.00">get_status()</text>
<text xml:space="preserve" text-anchor="start" x="84.88" y="-283" font-family="Times,serif" font-size="10.00"> &#160;&#160;&#160;&#160;&#160;&#160;&#160;&#160;&#160;&#160;&#160;</text>
<polygon fill="#00688b" stroke="#00688b" points="0,-320.5 0,-320.5 196.75,-320.5 196.75,-320.5 0,-320.5"/>
<path fill="none" stroke="#00688b" d="M12,-272.75C12,-272.75 184.75,-272.75 184.75,-272.75 190.75,-272.75 196.75,-278.75 196.75,-284.75 196.75,-284.75 196.75,-339 196.75,-339 196.75,-345 190.75,-351 184.75,-351 184.75,-351 12,-351 12,-351 6,-351 0,-345 0,-339 0,-339 0,-284.75 0,-284.75 0,-278.75 6,-272.75 12,-272.75"/>
</g>
<!-- Entry&#45;&gt;Uninit -->
<g id="edge1" class="edge">
<title>Entry&#45;&gt;Uninit</title>
<path fill="none" stroke="red" d="M98.38,-387.54C98.38,-381.53 98.38,-372.07 98.38,-361.88"/>
<polygon fill="red" stroke="red" points="101.88,-362.19 98.38,-352.19 94.88,-362.19 101.88,-362.19"/>
</g>
<!-- Active -->
<g id="node3" class="node">
<title>Active</title>
<path fill="azure" stroke="none" d="M169.75,-220.25C169.75,-220.25 27,-220.25 27,-220.25 21,-220.25 15,-214.25 15,-208.25 15,-208.25 15,-131.5 15,-131.5 15,-125.5 21,-119.5 27,-119.5 27,-119.5 169.75,-119.5 169.75,-119.5 175.75,-119.5 181.75,-125.5 181.75,-131.5 181.75,-131.5 181.75,-208.25 181.75,-208.25 181.75,-214.25 175.75,-220.25 169.75,-220.25"/>
<text xml:space="preserve" text-anchor="start" x="80" y="-199.95" font-family="Times,serif" font-weight="bold" font-size="14.00">Active</text>
<text xml:space="preserve" text-anchor="start" x="23" y="-174.75" font-family="Times,serif" font-size="10.00">send_plaintext(m: str)</text>
<text xml:space="preserve" text-anchor="start" x="23" y="-163.5" font-family="Times,serif" font-size="10.00">receive_ciphertext(header: str, ct: str)</text>
<text xml:space="preserve" text-anchor="start" x="23" y="-152.25" font-family="Times,serif" font-size="10.00">close()</text>
<text xml:space="preserve" text-anchor="start" x="23" y="-141" font-family="Times,serif" font-size="10.00">get_status()</text>
<text xml:space="preserve" text-anchor="start" x="84.88" y="-129.75" font-family="Times,serif" font-size="10.00"> &#160;&#160;&#160;&#160;&#160;&#160;&#160;&#160;&#160;&#160;&#160;</text>
<polygon fill="#00688b" stroke="#00688b" points="15,-189.75 15,-189.75 181.75,-189.75 181.75,-189.75 15,-189.75"/>
<path fill="none" stroke="#00688b" d="M27,-119.5C27,-119.5 169.75,-119.5 169.75,-119.5 175.75,-119.5 181.75,-125.5 181.75,-131.5 181.75,-131.5 181.75,-208.25 181.75,-208.25 181.75,-214.25 175.75,-220.25 169.75,-220.25 169.75,-220.25 27,-220.25 27,-220.25 21,-220.25 15,-214.25 15,-208.25 15,-208.25 15,-131.5 15,-131.5 15,-125.5 21,-119.5 27,-119.5"/>
</g>
<!-- Uninit&#45;&gt;Active -->
<g id="edge2" class="edge">
<title>Uninit&#45;&gt;Active</title>
<path fill="none" stroke="red" d="M98.38,-272.99C98.38,-260.15 98.38,-245.46 98.38,-231.31"/>
<polygon fill="red" stroke="red" points="101.88,-231.63 98.38,-221.63 94.88,-231.63 101.88,-231.63"/>
<text xml:space="preserve" text-anchor="middle" x="125.75" y="-241.45" font-family="Times,serif" font-size="14.00"> initialize </text>
</g>
<!-- Closed -->
<g id="node4" class="node">
<title>Closed</title>
<path fill="azure" stroke="none" d="M118,-67C118,-67 78.75,-67 78.75,-67 72.75,-67 66.75,-61 66.75,-55 66.75,-55 66.75,-12 66.75,-12 66.75,-6 72.75,0 78.75,0 78.75,0 118,0 118,0 124,0 130,-6 130,-12 130,-12 130,-55 130,-55 130,-61 124,-67 118,-67"/>
<text xml:space="preserve" text-anchor="start" x="78.88" y="-46.7" font-family="Times,serif" font-weight="bold" font-size="14.00">Closed</text>
<text xml:space="preserve" text-anchor="start" x="74.75" y="-21.5" font-family="Times,serif" font-size="10.00">get_status()</text>
<text xml:space="preserve" text-anchor="start" x="84.88" y="-10.25" font-family="Times,serif" font-size="10.00"> &#160;&#160;&#160;&#160;&#160;&#160;&#160;&#160;&#160;&#160;&#160;</text>
<polygon fill="#00688b" stroke="#00688b" points="66.75,-36.5 66.75,-36.5 130,-36.5 130,-36.5 66.75,-36.5"/>
<path fill="none" stroke="#00688b" d="M78.75,0C78.75,0 118,0 118,0 124,0 130,-6 130,-12 130,-12 130,-55 130,-55 130,-61 124,-67 118,-67 118,-67 78.75,-67 78.75,-67 72.75,-67 66.75,-61 66.75,-55 66.75,-55 66.75,-12 66.75,-12 66.75,-6 72.75,0 78.75,0"/>
</g>
<!-- Active&#45;&gt;Closed -->
<g id="edge3" class="edge">
<title>Active&#45;&gt;Closed</title>
<path fill="none" stroke="red" d="M98.38,-119.6C98.38,-105.93 98.38,-91.19 98.38,-77.88"/>
<polygon fill="red" stroke="red" points="101.88,-78.13 98.38,-68.13 94.88,-78.13 101.88,-78.13"/>
<text xml:space="preserve" text-anchor="middle" x="116" y="-88.2" font-family="Times,serif" font-size="14.00"> close </text>
</g>
</g>
</svg>
