<?xml version="1.0" encoding="UTF-8" standalone="no"?>
<!DOCTYPE svg PUBLIC "-//W3C//DTD SVG 1.1//EN"
 "http://www.w3.org/Graphics/SVG/1.1/DTD/svg11.dtd">
<!-- Generated by graphviz version 14.1.5 (20260411.2331)
 -->
<!-- Title: MacaroonVerifier Pages: 1 -->
<svg width="425pt" height="552pt"
 viewBox="0.00 0.00 425.00 552.00" xmlns="http://www.w3.org/2000/svg" xmlns:xlink="http://www.w3.org/1999/xlink">
<g id="graph0" class="graph" transform="scale(1 1) rotate(0) translate(4 548.4)">
<title>MacaroonVerifier</title>
<polygon fill="white" stroke="none" points="-4,4 -4,-548.4 420.81,-548.4 420.81,4 -4,4"/>
<!-- Entry -->
<g id="node1" class="node">
<title>Entry</title>
<ellipse fill="black" stroke="#00688b" cx="230.88" cy="-537.2" rx="7.2" ry="7.2"/>
</g>
<!-- Idle -->
<g id="node2" class="node">
<title>Idle</title>
<path fill="azure" stroke="none" d="M296.25,-493C296.25,-493 165.5,-493 165.5,-493 159.5,-493 153.5,-487 153.5,-481 153.5,-481 153.5,-426.75 153.5,-426.75 153.5,-420.75 159.5,-414.75 165.5,-414.75 165.5,-414.75 296.25,-414.75 296.25,-414.75 302.25,-414.75 308.25,-420.75 308.25,-426.75 308.25,-426.75 308.25,-481 308.25,-481 308.25,-487 302.25,-493 296.25,-493"/>
<text xml:space="preserve" text-anchor="start" x="219.62" y="-472.7" font-family="Times,serif" font-weight="bold" font-size="14.00">Idle</text>
<text xml:space="preserve" text-anchor="start" x="161.5" y="-447.5" font-family="Times,serif" font-size="10.00">present(token: str, discharges: list)</text>
<text xml:space="preserve" text-anchor="start" x="161.5" y="-436.25" font-family="Times,serif" font-size="10.00">get_status()</text>
<text xml:space="preserve" text-anchor="start" x="217.38" y="-425" font-family="Times,serif" font-size="10.00"> &#160;&#160;&#160;&#160;&#160;&#160;&#160;&#160;&#160;&#160;&#160;</text>
<polygon fill="#00688b" stroke="#00688b" points="153.5,-462.5 153.5,-462.5 308.25,-462.5 308.25,-462.5 153.5,-462.5"/>
<path fill="none" stroke="#00688b" d="M165.5,-414.75C165.5,-414.75 296.25,-414.75 296.25,-414.75 302.25,-414.75 308.25,-420.75 308.25,-426.75 308.25,-426.75 308.25,-481 308.25,-481 308.25,-487 302.25,-493 296.25,-493 296.25,-493 165.5,-493 165.5,-493 159.5,-493 153.5,-487 153.5,-481 153.5,-481 153.5,-426.75 153.5,-426.75 153.5,-420.75 159.5,-414.75 165.5,-414.75"/>
</g>
<!-- Entry&#45;&gt;Idle -->
<g id="edge1" class="edge">
<title>Entry&#45;&gt;Idle</title>
<path fill="none" stroke="red" d="M230.88,-529.54C230.88,-523.53 230.88,-514.07 230.88,-503.88"/>
<polygon fill="red" stroke="red" points="234.38,-504.19 230.88,-494.19 227.38,-504.19 234.38,-504.19"/>
</g>
<!-- CheckingSignature -->
<g id="node3" class="node">
<title>CheckingSignature</title>
<path fill="azure" stroke="none" d="M282.38,-362.25C282.38,-362.25 179.38,-362.25 179.38,-362.25 173.38,-362.25 167.38,-356.25 167.38,-350.25 167.38,-350.25 167.38,-284.75 167.38,-284.75 167.38,-278.75 173.38,-272.75 179.38,-272.75 179.38,-272.75 282.38,-272.75 282.38,-272.75 288.38,-272.75 294.38,-278.75 294.38,-284.75 294.38,-284.75 294.38,-350.25 294.38,-350.25 294.38,-356.25 288.38,-362.25 282.38,-362.25"/>
<text xml:space="preserve" text-anchor="start" x="175.38" y="-341.95" font-family="Times,serif" font-weight="bold" font-size="14.00">CheckingSignature</text>
<text xml:space="preserve" text-anchor="start" x="175.38" y="-316.75" font-family="Times,serif" font-size="10.00">$&gt;()</text>
<text xml:space="preserve" text-anchor="start" x="175.38" y="-305.5" font-family="Times,serif" font-size="10.00">sig_verified(passed: bool)</text>
<text xml:space="preserve" text-anchor="start" x="175.38" y="-294.25" font-family="Times,serif" font-size="10.00">get_status()</text>
<text xml:space="preserve" text-anchor="start" x="214.75" y="-283" font-family="Times,serif" font-size="10.00"> &#160;&#160;&#160;&#160;&#160;&#160;&#160;&#160;&#160;&#160;&#160;</text>
<polygon fill="#00688b" stroke="#00688b" points="167.38,-331.75 167.38,-331.75 294.38,-331.75 294.38,-331.75 167.38,-331.75"/>
<path fill="none" stroke="#00688b" d="M179.38,-272.75C179.38,-272.75 282.38,-272.75 282.38,-272.75 288.38,-272.75 294.38,-278.75 294.38,-284.75 294.38,-284.75 294.38,-350.25 294.38,-350.25 294.38,-356.25 288.38,-362.25 282.38,-362.25 282.38,-362.25 179.38,-362.25 179.38,-362.25 173.38,-362.25 167.38,-356.25 167.38,-350.25 167.38,-350.25 167.38,-284.75 167.38,-284.75 167.38,-278.75 173.38,-272.75 179.38,-272.75"/>
</g>
<!-- Idle&#45;&gt;CheckingSignature -->
<g id="edge2" class="edge">
<title>Idle&#45;&gt;CheckingSignature</title>
<path fill="none" stroke="red" d="M230.88,-415.09C230.88,-402.23 230.88,-387.58 230.88,-373.65"/>
<polygon fill="red" stroke="red" points="234.38,-373.68 230.88,-363.68 227.38,-373.68 234.38,-373.68"/>
<text xml:space="preserve" text-anchor="middle" x="254.12" y="-383.45" font-family="Times,serif" font-size="14.00"> present </text>
</g>
<!-- CheckingCaveats -->
<g id="node4" class="node">
<title>CheckingCaveats</title>
<path fill="azure" stroke="none" d="M199.75,-220.25C199.75,-220.25 12,-220.25 12,-220.25 6,-220.25 0,-214.25 0,-208.25 0,-208.25 0,-142.75 0,-142.75 0,-136.75 6,-130.75 12,-130.75 12,-130.75 199.75,-130.75 199.75,-130.75 205.75,-130.75 211.75,-136.75 211.75,-142.75 211.75,-142.75 211.75,-208.25 211.75,-208.25 211.75,-214.25 205.75,-220.25 199.75,-220.25"/>
<text xml:space="preserve" text-anchor="start" x="55.62" y="-199.95" font-family="Times,serif" font-weight="bold" font-size="14.00">CheckingCaveats</text>
<text xml:space="preserve" text-anchor="start" x="8" y="-174.75" font-family="Times,serif" font-size="10.00">$&gt;()</text>
<text xml:space="preserve" text-anchor="start" x="8" y="-163.5" font-family="Times,serif" font-size="10.00">caveat_verified(passed: bool, caveat_index: int)</text>
<text xml:space="preserve" text-anchor="start" x="8" y="-152.25" font-family="Times,serif" font-size="10.00">get_status()</text>
<text xml:space="preserve" text-anchor="start" x="92.38" y="-141" font-family="Times,serif" font-size="10.00"> &#160;&#160;&#160;&#160;&#160;&#160;&#160;&#160;&#160;&#160;&#160;</text>
<polygon fill="#00688b" stroke="#00688b" points="0,-189.75 0,-189.75 211.75,-189.75 211.75,-189.75 0,-189.75"/>
<path fill="none" stroke="#00688b" d="M12,-130.75C12,-130.75 199.75,-130.75 199.75,-130.75 205.75,-130.75 211.75,-136.75 211.75,-142.75 211.75,-142.75 211.75,-208.25 211.75,-208.25 211.75,-214.25 205.75,-220.25 199.75,-220.25 199.75,-220.25 12,-220.25 12,-220.25 6,-220.25 0,-214.25 0,-208.25 0,-208.25 0,-142.75 0,-142.75 0,-136.75 6,-130.75 12,-130.75"/>
</g>
<!-- CheckingSignature&#45;&gt;CheckingCaveats -->
<g id="edge3" class="edge">
<title>CheckingSignature&#45;&gt;CheckingCaveats</title>
<path fill="none" stroke="red" d="M192.01,-272.97C179.43,-258.88 165.35,-243.11 152.28,-228.47"/>
<polygon fill="red" stroke="red" points="155,-226.26 145.72,-221.13 149.77,-230.92 155,-226.26"/>
<text xml:space="preserve" text-anchor="middle" x="208.12" y="-241.45" font-family="Times,serif" font-size="14.00"> sig_verified </text>
</g>
<!-- Rejected -->
<g id="node6" class="node">
<title>Rejected</title>
<path fill="azure" stroke="none" d="M257,-72.62C257,-72.62 214.75,-72.62 214.75,-72.62 208.75,-72.62 202.75,-66.62 202.75,-60.62 202.75,-60.62 202.75,-17.62 202.75,-17.62 202.75,-11.62 208.75,-5.62 214.75,-5.62 214.75,-5.62 257,-5.62 257,-5.62 263,-5.62 269,-11.62 269,-17.62 269,-17.62 269,-60.62 269,-60.62 269,-66.62 263,-72.62 257,-72.62"/>
<text xml:space="preserve" text-anchor="start" x="210.75" y="-52.33" font-family="Times,serif" font-weight="bold" font-size="14.00">Rejected</text>
<text xml:space="preserve" text-anchor="start" x="210.75" y="-27.12" font-family="Times,serif" font-size="10.00">get_status()</text>
<text xml:space="preserve" text-anchor="start" x="220.88" y="-15.88" font-family="Times,serif" font-size="10.00"> &#160;&#160;&#160;&#160;&#160;&#160;&#160;&#160;&#160;&#160;&#160;</text>
<polygon fill="#00688b" stroke="#00688b" points="202.75,-42.12 202.75,-42.12 269,-42.12 269,-42.12 202.75,-42.12"/>
<path fill="none" stroke="#00688b" d="M214.75,-5.62C214.75,-5.62 257,-5.62 257,-5.62 263,-5.62 269,-11.62 269,-17.62 269,-17.62 269,-60.62 269,-60.62 269,-66.62 263,-72.62 257,-72.62 257,-72.62 214.75,-72.62 214.75,-72.62 208.75,-72.62 202.75,-66.62 202.75,-60.62 202.75,-60.62 202.75,-17.62 202.75,-17.62 202.75,-11.62 208.75,-5.62 214.75,-5.62"/>
</g>
<!-- CheckingSignature&#45;&gt;Rejected -->
<g id="edge4" class="edge">
<title>CheckingSignature&#45;&gt;Rejected</title>
<path fill="none" stroke="red" d="M290.92,-272.89C306.59,-258.12 321.43,-240.23 329.88,-220.25 351.42,-169.25 351.5,-140.24 317.88,-96.25 307.4,-82.55 292.61,-71 278.47,-62"/>
<polygon fill="red" stroke="red" points="280.51,-59.14 270.14,-56.96 276.89,-65.13 280.51,-59.14"/>
<text xml:space="preserve" text-anchor="middle" x="380.81" y="-170.45" font-family="Times,serif" font-size="14.00"> sig_verified </text>
</g>
<!-- CheckingCaveats&#45;&gt;CheckingCaveats -->
<g id="edge7" class="edge">
<title>CheckingCaveats&#45;&gt;CheckingCaveats</title>
<path fill="none" stroke="red" d="M211.6,-186.53C222.66,-184.38 229.75,-180.7 229.75,-175.5 229.75,-172.33 227.12,-169.73 222.56,-167.69"/>
<polygon fill="red" stroke="red" points="223.63,-164.36 213.05,-164.9 221.66,-171.07 223.63,-164.36"/>
<text xml:space="preserve" text-anchor="middle" x="275.12" y="-170.45" font-family="Times,serif" font-size="14.00"> caveat_verified </text>
</g>
<!-- Authorized -->
<g id="node5" class="node">
<title>Authorized</title>
<path fill="azure" stroke="none" d="M137.5,-78.25C137.5,-78.25 14.25,-78.25 14.25,-78.25 8.25,-78.25 2.25,-72.25 2.25,-66.25 2.25,-66.25 2.25,-12 2.25,-12 2.25,-6 8.25,0 14.25,0 14.25,0 137.5,0 137.5,0 143.5,0 149.5,-6 149.5,-12 149.5,-12 149.5,-66.25 149.5,-66.25 149.5,-72.25 143.5,-78.25 137.5,-78.25"/>
<text xml:space="preserve" text-anchor="start" x="43.25" y="-57.95" font-family="Times,serif" font-weight="bold" font-size="14.00">Authorized</text>
<text xml:space="preserve" text-anchor="start" x="10.25" y="-32.75" font-family="Times,serif" font-size="10.00">perform(action: str, resource: str)</text>
<text xml:space="preserve" text-anchor="start" x="10.25" y="-21.5" font-family="Times,serif" font-size="10.00">get_status()</text>
<text xml:space="preserve" text-anchor="start" x="62.38" y="-10.25" font-family="Times,serif" font-size="10.00"> &#160;&#160;&#160;&#160;&#160;&#160;&#160;&#160;&#160;&#160;&#160;</text>
<polygon fill="#00688b" stroke="#00688b" points="2.25,-47.75 2.25,-47.75 149.5,-47.75 149.5,-47.75 2.25,-47.75"/>
<path fill="none" stroke="#00688b" d="M14.25,0C14.25,0 137.5,0 137.5,0 143.5,0 149.5,-6 149.5,-12 149.5,-12 149.5,-66.25 149.5,-66.25 149.5,-72.25 143.5,-78.25 137.5,-78.25 137.5,-78.25 14.25,-78.25 14.25,-78.25 8.25,-78.25 2.25,-72.25 2.25,-66.25 2.25,-66.25 2.25,-12 2.25,-12 2.25,-6 8.25,0 14.25,0"/>
</g>
<!-- CheckingCaveats&#45;&gt;Authorized -->
<g id="edge8" class="edge">
<title>CheckingCaveats&#45;&gt;Authorized</title>
<path fill="none" stroke="red" d="M83.05,-130.76C80.75,-124.83 78.75,-118.73 77.38,-112.75 75.66,-105.32 74.67,-97.35 74.17,-89.5"/>
<polygon fill="red" stroke="red" points="77.67,-89.55 73.79,-79.69 70.68,-89.82 77.67,-89.55"/>
<text xml:space="preserve" text-anchor="middle" x="88.62" y="-99.45" font-family="Times,serif" font-size="14.00"> $&gt; </text>
</g>
<!-- CheckingCaveats&#45;&gt;Rejected -->
<g id="edge5" class="edge">
<title>CheckingCaveats&#45;&gt;Rejected</title>
<path fill="none" stroke="red" d="M108.51,-130.91C111,-118.72 115.42,-106.12 123.12,-96.25 123.44,-95.85 161.06,-77.16 192.76,-61.46"/>
<polygon fill="red" stroke="red" points="194.03,-64.74 201.43,-57.16 190.92,-58.46 194.03,-64.74"/>
<text xml:space="preserve" text-anchor="middle" x="168.5" y="-99.45" font-family="Times,serif" font-size="14.00"> caveat_verified </text>
</g>
<!-- CheckingCaveats&#45;&gt;Rejected -->
<g id="edge6" class="edge">
<title>CheckingCaveats&#45;&gt;Rejected</title>
<path fill="none" stroke="red" d="M195.8,-130.81C202.47,-125.35 208.63,-119.34 213.88,-112.75 220.57,-104.35 225.23,-93.94 228.47,-83.64"/>
<polygon fill="red" stroke="red" points="231.83,-84.65 231.07,-74.08 225.07,-82.81 231.83,-84.65"/>
<text xml:space="preserve" text-anchor="middle" x="268.76" y="-99.45" font-family="Times,serif" font-size="14.00"> caveat_verified </text>
</g>
</g>
</svg>
