<?xml version="1.0" encoding="UTF-8" standalone="no"?>
<!DOCTYPE svg PUBLIC "-//W3C//DTD SVG 1.1//EN"
 "http://www.w3.org/Graphics/SVG/1.1/DTD/svg11.dtd">
<!-- Generated by graphviz version 14.1.5 (20260411.2331)
 -->
<!-- Title: ZeroTrustSession Pages: 1 -->
<svg width="1168pt" height="601pt"
 viewBox="0.00 0.00 1168.00 601.00" xmlns="http://www.w3.org/2000/svg" xmlns:xlink="http://www.w3.org/1999/xlink">
<g id="graph0" class="graph" transform="scale(1 1) rotate(0) translate(4 596.5)">
<title>ZeroTrustSession</title>
<polygon fill="white" stroke="none" points="-4,4 -4,-596.5 1163.75,-596.5 1163.75,4 -4,4"/>
<g id="clust1" class="cluster">
<title>cluster_LiveSession</title>
<path fill="none" stroke="black" d="M793.75,-276C793.75,-276 1139.75,-276 1139.75,-276 1145.75,-276 1151.75,-282 1151.75,-288 1151.75,-288 1151.75,-572.5 1151.75,-572.5 1151.75,-578.5 1145.75,-584.5 1139.75,-584.5 1139.75,-584.5 793.75,-584.5 793.75,-584.5 787.75,-584.5 781.75,-578.5 781.75,-572.5 781.75,-572.5 781.75,-288 781.75,-288 781.75,-282 787.75,-276 793.75,-276"/>
<text xml:space="preserve" text-anchor="start" x="933.75" y="-563.75" font-family="Times,serif" font-size="14.00">LiveSession</text>
<polygon fill="black" stroke="black" points="929.75,-557 929.75,-557 1003.75,-557 1003.75,-557 929.75,-557"/>
</g>
<!-- Entry -->
<g id="node1" class="node">
<title>Entry</title>
<ellipse fill="black" stroke="#00688b" cx="152.75" cy="-487.62" rx="7.2" ry="7.2"/>
</g>
<!-- Anonymous -->
<g id="node2" class="node">
<title>Anonymous</title>
<path fill="azure" stroke="none" d="M293.5,-373.5C293.5,-373.5 12,-373.5 12,-373.5 6,-373.5 0,-367.5 0,-361.5 0,-361.5 0,-307.25 0,-307.25 0,-301.25 6,-295.25 12,-295.25 12,-295.25 293.5,-295.25 293.5,-295.25 299.5,-295.25 305.5,-301.25 305.5,-307.25 305.5,-307.25 305.5,-361.5 305.5,-361.5 305.5,-367.5 299.5,-373.5 293.5,-373.5"/>
<text xml:space="preserve" text-anchor="start" x="117.88" y="-353.2" font-family="Times,serif" font-weight="bold" font-size="14.00">Anonymous</text>
<text xml:space="preserve" text-anchor="start" x="8" y="-328" font-family="Times,serif" font-size="10.00">authenticate(user_id: str, device_id: str, channel_id: str, mfa_factor: str)</text>
<text xml:space="preserve" text-anchor="start" x="8" y="-316.75" font-family="Times,serif" font-size="10.00">get_status()</text>
<text xml:space="preserve" text-anchor="start" x="139.25" y="-305.5" font-family="Times,serif" font-size="10.00"> &#160;&#160;&#160;&#160;&#160;&#160;&#160;&#160;&#160;&#160;&#160;</text>
<polygon fill="#00688b" stroke="#00688b" points="0,-343 0,-343 305.5,-343 305.5,-343 0,-343"/>
<path fill="none" stroke="#00688b" d="M12,-295.25C12,-295.25 293.5,-295.25 293.5,-295.25 299.5,-295.25 305.5,-301.25 305.5,-307.25 305.5,-307.25 305.5,-361.5 305.5,-361.5 305.5,-367.5 299.5,-373.5 293.5,-373.5 293.5,-373.5 12,-373.5 12,-373.5 6,-373.5 0,-367.5 0,-361.5 0,-361.5 0,-307.25 0,-307.25 0,-301.25 6,-295.25 12,-295.25"/>
</g>
<!-- Entry&#45;&gt;Anonymous -->
<g id="edge1" class="edge">
<title>Entry&#45;&gt;Anonymous</title>
<path fill="none" stroke="red" d="M152.75,-480.13C152.75,-463.75 152.75,-419.57 152.75,-384.3"/>
<polygon fill="red" stroke="red" points="156.25,-384.71 152.75,-374.71 149.25,-384.71 156.25,-384.71"/>
</g>
<!-- Authenticating -->
<g id="node3" class="node">
<title>Authenticating</title>
<path fill="azure" stroke="none" d="M339.25,-231.5C339.25,-231.5 182.25,-231.5 182.25,-231.5 176.25,-231.5 170.25,-225.5 170.25,-219.5 170.25,-219.5 170.25,-165.25 170.25,-165.25 170.25,-159.25 176.25,-153.25 182.25,-153.25 182.25,-153.25 339.25,-153.25 339.25,-153.25 345.25,-153.25 351.25,-159.25 351.25,-165.25 351.25,-165.25 351.25,-219.5 351.25,-219.5 351.25,-225.5 345.25,-231.5 339.25,-231.5"/>
<text xml:space="preserve" text-anchor="start" x="217.62" y="-211.2" font-family="Times,serif" font-weight="bold" font-size="14.00">Authenticating</text>
<text xml:space="preserve" text-anchor="start" x="178.25" y="-186" font-family="Times,serif" font-size="10.00">auth_result(passed: bool, risk_score: int)</text>
<text xml:space="preserve" text-anchor="start" x="178.25" y="-174.75" font-family="Times,serif" font-size="10.00">get_status()</text>
<text xml:space="preserve" text-anchor="start" x="247.25" y="-163.5" font-family="Times,serif" font-size="10.00"> &#160;&#160;&#160;&#160;&#160;&#160;&#160;&#160;&#160;&#160;&#160;</text>
<polygon fill="#00688b" stroke="#00688b" points="170.25,-201 170.25,-201 351.25,-201 351.25,-201 170.25,-201"/>
<path fill="none" stroke="#00688b" d="M182.25,-153.25C182.25,-153.25 339.25,-153.25 339.25,-153.25 345.25,-153.25 351.25,-159.25 351.25,-165.25 351.25,-165.25 351.25,-219.5 351.25,-219.5 351.25,-225.5 345.25,-231.5 339.25,-231.5 339.25,-231.5 182.25,-231.5 182.25,-231.5 176.25,-231.5 170.25,-225.5 170.25,-219.5 170.25,-219.5 170.25,-165.25 170.25,-165.25 170.25,-159.25 176.25,-153.25 182.25,-153.25"/>
</g>
<!-- Anonymous&#45;&gt;Authenticating -->
<g id="edge2" class="edge">
<title>Anonymous&#45;&gt;Authenticating</title>
<path fill="none" stroke="red" d="M200.96,-295.47C210.59,-286.48 220.09,-276.45 227.75,-266 233.22,-258.54 238.09,-250.02 242.29,-241.51"/>
<polygon fill="red" stroke="red" points="245.4,-243.12 246.44,-232.58 239.05,-240.17 245.4,-243.12"/>
<text xml:space="preserve" text-anchor="middle" x="273.49" y="-252.7" font-family="Times,serif" font-size="14.00"> authenticate </text>
</g>
<!-- Authenticating&#45;&gt;Anonymous -->
<g id="edge3" class="edge">
<title>Authenticating&#45;&gt;Anonymous</title>
<path fill="none" stroke="red" d="M171.98,-231.32C165.91,-236.66 160.51,-242.69 156.25,-249.5 149.86,-259.7 147.23,-272.05 146.59,-284.1"/>
<polygon fill="red" stroke="red" points="143.09,-283.95 146.55,-293.97 150.09,-283.99 143.09,-283.95"/>
<text xml:space="preserve" text-anchor="middle" x="190" y="-252.7" font-family="Times,serif" font-size="14.00"> auth_result </text>
</g>
<!-- StepUpRequired -->
<g id="node4" class="node">
<title>StepUpRequired</title>
<path fill="azure" stroke="none" d="M305.5,-100.75C305.5,-100.75 24,-100.75 24,-100.75 18,-100.75 12,-94.75 12,-88.75 12,-88.75 12,-12 12,-12 12,-6 18,0 24,0 24,0 305.5,0 305.5,0 311.5,0 317.5,-6 317.5,-12 317.5,-12 317.5,-88.75 317.5,-88.75 317.5,-94.75 311.5,-100.75 305.5,-100.75"/>
<text xml:space="preserve" text-anchor="start" x="116.38" y="-80.45" font-family="Times,serif" font-weight="bold" font-size="14.00">StepUpRequired</text>
<text xml:space="preserve" text-anchor="start" x="20" y="-55.25" font-family="Times,serif" font-size="10.00">authenticate(user_id: str, device_id: str, channel_id: str, mfa_factor: str)</text>
<text xml:space="preserve" text-anchor="start" x="20" y="-44" font-family="Times,serif" font-size="10.00">request_resource(resource: str, channel_id: str)</text>
<text xml:space="preserve" text-anchor="start" x="20" y="-32.75" font-family="Times,serif" font-size="10.00">logout()</text>
<text xml:space="preserve" text-anchor="start" x="20" y="-21.5" font-family="Times,serif" font-size="10.00">get_status()</text>
<text xml:space="preserve" text-anchor="start" x="151.25" y="-10.25" font-family="Times,serif" font-size="10.00"> &#160;&#160;&#160;&#160;&#160;&#160;&#160;&#160;&#160;&#160;&#160;</text>
<polygon fill="#00688b" stroke="#00688b" points="12,-70.25 12,-70.25 317.5,-70.25 317.5,-70.25 12,-70.25"/>
<path fill="none" stroke="#00688b" d="M24,0C24,0 305.5,0 305.5,0 311.5,0 317.5,-6 317.5,-12 317.5,-12 317.5,-88.75 317.5,-88.75 317.5,-94.75 311.5,-100.75 305.5,-100.75 305.5,-100.75 24,-100.75 24,-100.75 18,-100.75 12,-94.75 12,-88.75 12,-88.75 12,-12 12,-12 12,-6 18,0 24,0"/>
</g>
<!-- Authenticating&#45;&gt;StepUpRequired -->
<g id="edge4" class="edge">
<title>Authenticating&#45;&gt;StepUpRequired</title>
<path fill="none" stroke="red" d="M253.41,-153.51C250.08,-141.79 245.36,-129.22 238.75,-118.75 236.69,-115.49 234.44,-112.29 232.03,-109.17"/>
<polygon fill="red" stroke="red" points="234.95,-107.2 225.87,-101.73 229.56,-111.66 234.95,-107.2"/>
<text xml:space="preserve" text-anchor="middle" x="280.11" y="-121.95" font-family="Times,serif" font-size="14.00"> auth_result </text>
</g>
<!-- FullAccess -->
<g id="node6" class="node">
<title>FullAccess</title>
<path fill="azure" stroke="none" d="M999.88,-538C999.88,-538 819.62,-538 819.62,-538 813.62,-538 807.62,-532 807.62,-526 807.62,-526 807.62,-449.25 807.62,-449.25 807.62,-443.25 813.62,-437.25 819.62,-437.25 819.62,-437.25 999.88,-437.25 999.88,-437.25 1005.88,-437.25 1011.88,-443.25 1011.88,-449.25 1011.88,-449.25 1011.88,-526 1011.88,-526 1011.88,-532 1005.88,-538 999.88,-538"/>
<text xml:space="preserve" text-anchor="start" x="879" y="-517.7" font-family="Times,serif" font-weight="bold" font-size="14.00">FullAccess</text>
<text xml:space="preserve" text-anchor="start" x="815.62" y="-492.5" font-family="Times,serif" font-size="10.00">request_resource(resource: str, channel_id: str)</text>
<text xml:space="preserve" text-anchor="start" x="815.62" y="-481.25" font-family="Times,serif" font-size="10.00">posture_update(score: int)</text>
<text xml:space="preserve" text-anchor="start" x="815.62" y="-470" font-family="Times,serif" font-size="10.00">risk_signal_update(score: int)</text>
<text xml:space="preserve" text-anchor="start" x="815.62" y="-458.75" font-family="Times,serif" font-size="10.00">get_status()</text>
<text xml:space="preserve" text-anchor="start" x="891.75" y="-447.5" font-family="Times,serif" font-size="10.00"> &#160;&#160;&#160;&#160;&#160;&#160;&#160;&#160;&#160;&#160;&#160;&#160;&#160;&#160;&#160;</text>
<polygon fill="#00688b" stroke="#00688b" points="807.62,-507.5 807.62,-507.5 1011.88,-507.5 1011.88,-507.5 807.62,-507.5"/>
<path fill="none" stroke="#00688b" d="M819.62,-437.25C819.62,-437.25 999.88,-437.25 999.88,-437.25 1005.88,-437.25 1011.88,-443.25 1011.88,-449.25 1011.88,-449.25 1011.88,-526 1011.88,-526 1011.88,-532 1005.88,-538 999.88,-538 999.88,-538 819.62,-538 819.62,-538 813.62,-538 807.62,-532 807.62,-526 807.62,-526 807.62,-449.25 807.62,-449.25 807.62,-443.25 813.62,-437.25 819.62,-437.25"/>
</g>
<!-- Authenticating&#45;&gt;FullAccess -->
<g id="edge5" class="edge">
<title>Authenticating&#45;&gt;FullAccess</title>
<path fill="none" stroke="red" d="M351.14,-204.5C403.94,-215.12 468.8,-235.8 513.75,-276 553.33,-311.4 523.83,-349.17 563.25,-384.75 640.22,-454.21 692.06,-411.07 796.66,-437.01"/>
<polygon fill="red" stroke="red" points="795.61,-440.35 806.17,-439.55 797.41,-433.59 795.61,-440.35"/>
<text xml:space="preserve" text-anchor="middle" x="597" y="-329.32" font-family="Times,serif" font-size="14.00"> auth_result </text>
</g>
<!-- StepUpRequired&#45;&gt;Anonymous -->
<g id="edge7" class="edge">
<title>StepUpRequired&#45;&gt;Anonymous</title>
<path fill="none" stroke="red" d="M137.41,-100.71C129.81,-116.94 122.59,-135.42 118.75,-153.25 111.43,-187.25 113.17,-197.17 118.75,-231.5 121.64,-249.31 127.21,-268.22 133.01,-284.85"/>
<polygon fill="red" stroke="red" points="129.63,-285.78 136.32,-293.99 136.21,-283.4 129.63,-285.78"/>
<text xml:space="preserve" text-anchor="middle" x="139.75" y="-187.32" font-family="Times,serif" font-size="14.00"> logout </text>
</g>
<!-- StepUpRequired&#45;&gt;Authenticating -->
<g id="edge6" class="edge">
<title>StepUpRequired&#45;&gt;Authenticating</title>
<path fill="none" stroke="red" d="M154.34,-100.64C154.11,-112.61 155.99,-124.92 162,-135.25 164.05,-138.77 166.4,-142.08 169.01,-145.2"/>
<polygon fill="red" stroke="red" points="166.46,-147.6 175.9,-152.4 171.51,-142.76 166.46,-147.6"/>
<text xml:space="preserve" text-anchor="middle" x="198.38" y="-121.95" font-family="Times,serif" font-size="14.00"> authenticate </text>
</g>
<!-- LiveSession -->
<g id="node5" class="node">
<title>LiveSession</title>
<ellipse fill="azure" stroke="#00688b" cx="789.75" cy="-487.62" rx="0.36" ry="0.36"/>
</g>
<!-- LiveSession&#45;&gt;Anonymous -->
<g id="edge9" class="edge">
<title>LiveSession&#45;&gt;Anonymous</title>
<path fill="none" stroke="red" d="M781.75,-486.81C733.55,-487.68 477.46,-488.75 285.75,-419.25 259.59,-409.77 233.17,-394.54 210.85,-379.64"/>
<polygon fill="red" stroke="red" points="213.04,-376.89 202.8,-374.15 209.09,-382.67 213.04,-376.89"/>
<text xml:space="preserve" text-anchor="middle" x="306.75" y="-405.95" font-family="Times,serif" font-size="14.00"> logout </text>
</g>
<!-- Terminated -->
<g id="node8" class="node">
<title>Terminated</title>
<path fill="azure" stroke="none" d="M804.88,-225.88C804.88,-225.88 744.62,-225.88 744.62,-225.88 738.62,-225.88 732.62,-219.88 732.62,-213.88 732.62,-213.88 732.62,-170.88 732.62,-170.88 732.62,-164.88 738.62,-158.88 744.62,-158.88 744.62,-158.88 804.88,-158.88 804.88,-158.88 810.88,-158.88 816.88,-164.88 816.88,-170.88 816.88,-170.88 816.88,-213.88 816.88,-213.88 816.88,-219.88 810.88,-225.88 804.88,-225.88"/>
<text xml:space="preserve" text-anchor="start" x="740.62" y="-205.57" font-family="Times,serif" font-weight="bold" font-size="14.00">Terminated</text>
<text xml:space="preserve" text-anchor="start" x="740.62" y="-180.38" font-family="Times,serif" font-size="10.00">get_status()</text>
<text xml:space="preserve" text-anchor="start" x="750.75" y="-169.12" font-family="Times,serif" font-size="10.00"> &#160;&#160;&#160;&#160;&#160;&#160;&#160;&#160;&#160;&#160;&#160;</text>
<polygon fill="#00688b" stroke="#00688b" points="732.62,-195.38 732.62,-195.38 816.88,-195.38 816.88,-195.38 732.62,-195.38"/>
<path fill="none" stroke="#00688b" d="M744.62,-158.88C744.62,-158.88 804.88,-158.88 804.88,-158.88 810.88,-158.88 816.88,-164.88 816.88,-170.88 816.88,-170.88 816.88,-213.88 816.88,-213.88 816.88,-219.88 810.88,-225.88 804.88,-225.88 804.88,-225.88 744.62,-225.88 744.62,-225.88 738.62,-225.88 732.62,-219.88 732.62,-213.88 732.62,-213.88 732.62,-170.88 732.62,-170.88 732.62,-164.88 738.62,-158.88 744.62,-158.88"/>
</g>
<!-- LiveSession&#45;&gt;Terminated -->
<g id="edge8" class="edge">
<title>LiveSession&#45;&gt;Terminated</title>
<path fill="none" stroke="red" d="M781.75,-486.06C727.32,-482.02 411.72,-455.68 355.5,-384.75 325.48,-346.87 324.8,-313.34 355.5,-276 401.26,-220.34 618.99,-201.57 721.35,-195.76"/>
<polygon fill="red" stroke="red" points="721.34,-199.27 731.14,-195.23 720.96,-192.28 721.34,-199.27"/>
<text xml:space="preserve" text-anchor="middle" x="434.62" y="-329.32" font-family="Times,serif" font-size="14.00"> channel_binding_mismatch </text>
</g>
<!-- Degraded -->
<g id="node7" class="node">
<title>Degraded</title>
<path fill="azure" stroke="none" d="M1094.88,-384.75C1094.88,-384.75 914.62,-384.75 914.62,-384.75 908.62,-384.75 902.62,-378.75 902.62,-372.75 902.62,-372.75 902.62,-296 902.62,-296 902.62,-290 908.62,-284 914.62,-284 914.62,-284 1094.88,-284 1094.88,-284 1100.88,-284 1106.88,-290 1106.88,-296 1106.88,-296 1106.88,-372.75 1106.88,-372.75 1106.88,-378.75 1100.88,-384.75 1094.88,-384.75"/>
<text xml:space="preserve" text-anchor="start" x="976.62" y="-364.45" font-family="Times,serif" font-weight="bold" font-size="14.00">Degraded</text>
<text xml:space="preserve" text-anchor="start" x="910.62" y="-339.25" font-family="Times,serif" font-size="10.00">request_resource(resource: str, channel_id: str)</text>
<text xml:space="preserve" text-anchor="start" x="910.62" y="-328" font-family="Times,serif" font-size="10.00">risk_signal_update(score: int)</text>
<text xml:space="preserve" text-anchor="start" x="910.62" y="-316.75" font-family="Times,serif" font-size="10.00">posture_update(score: int)</text>
<text xml:space="preserve" text-anchor="start" x="910.62" y="-305.5" font-family="Times,serif" font-size="10.00">get_status()</text>
<text xml:space="preserve" text-anchor="start" x="986.75" y="-294.25" font-family="Times,serif" font-size="10.00"> &#160;&#160;&#160;&#160;&#160;&#160;&#160;&#160;&#160;&#160;&#160;&#160;&#160;&#160;&#160;</text>
<polygon fill="#00688b" stroke="#00688b" points="902.62,-354.25 902.62,-354.25 1106.88,-354.25 1106.88,-354.25 902.62,-354.25"/>
<path fill="none" stroke="#00688b" d="M914.62,-284C914.62,-284 1094.88,-284 1094.88,-284 1100.88,-284 1106.88,-290 1106.88,-296 1106.88,-296 1106.88,-372.75 1106.88,-372.75 1106.88,-378.75 1100.88,-384.75 1094.88,-384.75 1094.88,-384.75 914.62,-384.75 914.62,-384.75 908.62,-384.75 902.62,-378.75 902.62,-372.75 902.62,-372.75 902.62,-296 902.62,-296 902.62,-290 908.62,-284 914.62,-284"/>
</g>
<!-- FullAccess&#45;&gt;Degraded -->
<g id="edge11" class="edge">
<title>FullAccess&#45;&gt;Degraded</title>
<path fill="none" stroke="red" d="M811.08,-437.4C801.73,-426.78 798.93,-415.03 808.75,-402.75 831.52,-374.29 854.06,-395.93 888.75,-384.75 889.9,-384.38 891.05,-384 892.2,-383.62"/>
<polygon fill="red" stroke="red" points="892.92,-387.08 901.23,-380.51 890.63,-380.46 892.92,-387.08"/>
<text xml:space="preserve" text-anchor="middle" x="853.75" y="-405.95" font-family="Times,serif" font-size="14.00"> posture_update </text>
</g>
<!-- FullAccess&#45;&gt;Degraded -->
<g id="edge13" class="edge">
<title>FullAccess&#45;&gt;Degraded</title>
<path fill="none" stroke="red" d="M910.95,-437.6C912.86,-425.62 916.28,-413.24 922.25,-402.75 924.08,-399.53 926.12,-396.41 928.34,-393.38"/>
<polygon fill="red" stroke="red" points="930.94,-395.74 934.52,-385.77 925.5,-391.33 930.94,-395.74"/>
<text xml:space="preserve" text-anchor="middle" x="977" y="-405.95" font-family="Times,serif" font-size="14.00"> risk_signal_update </text>
</g>
<!-- FullAccess&#45;&gt;Terminated -->
<g id="edge10" class="edge">
<title>FullAccess&#45;&gt;Terminated</title>
<path fill="none" stroke="red" d="M807.65,-440.88C804.66,-439.65 801.68,-438.43 798.75,-437.25 735.18,-411.64 693.11,-440.86 653.75,-384.75 625.99,-345.18 631.18,-318.74 653.75,-276 668.38,-248.3 696.93,-228.13 722.63,-214.65"/>
<polygon fill="red" stroke="red" points="723.94,-217.91 731.32,-210.32 720.81,-211.65 723.94,-217.91"/>
<text xml:space="preserve" text-anchor="middle" x="703.25" y="-329.32" font-family="Times,serif" font-size="14.00"> request_resource </text>
</g>
<!-- FullAccess&#45;&gt;Terminated -->
<g id="edge12" class="edge">
<title>FullAccess&#45;&gt;Terminated</title>
<path fill="none" stroke="red" d="M817.53,-437.38C810.72,-431.78 804.34,-425.74 798.75,-419.25 755.39,-368.96 758.69,-287.11 766.02,-236.97"/>
<polygon fill="red" stroke="red" points="769.44,-237.78 767.55,-227.35 762.52,-236.68 769.44,-237.78"/>
<text xml:space="preserve" text-anchor="middle" x="831.23" y="-329.32" font-family="Times,serif" font-size="14.00"> risk_signal_update </text>
</g>
<!-- Degraded&#45;&gt;FullAccess -->
<g id="edge16" class="edge">
<title>Degraded&#45;&gt;FullAccess</title>
<path fill="none" stroke="red" d="M1034.18,-384.41C1037.66,-396.26 1038.05,-408.58 1031.75,-419.25 1028.4,-424.92 1024.39,-430.15 1019.88,-434.97"/>
<polygon fill="red" stroke="red" points="1017.74,-432.17 1012.96,-441.63 1022.59,-437.21 1017.74,-432.17"/>
<text xml:space="preserve" text-anchor="middle" x="1081.49" y="-405.95" font-family="Times,serif" font-size="14.00"> posture_update </text>
</g>
<!-- Degraded&#45;&gt;Terminated -->
<g id="edge14" class="edge">
<title>Degraded&#45;&gt;Terminated</title>
<path fill="none" stroke="red" d="M982.94,-284.36C975.28,-271.54 965.56,-258.74 953.75,-249.5 917.22,-220.91 865.93,-206.76 827.61,-199.83"/>
<polygon fill="red" stroke="red" points="828.6,-196.45 818.16,-198.23 827.43,-203.35 828.6,-196.45"/>
<text xml:space="preserve" text-anchor="middle" x="1018.38" y="-252.7" font-family="Times,serif" font-size="14.00"> request_resource </text>
</g>
<!-- Degraded&#45;&gt;Terminated -->
<g id="edge15" class="edge">
<title>Degraded&#45;&gt;Terminated</title>
<path fill="none" stroke="red" d="M910,-284.1C902.89,-281.16 895.76,-278.41 888.75,-276 867.94,-268.84 859.35,-276.94 840.25,-266 826.38,-258.06 813.85,-246.13 803.56,-234.23"/>
<polygon fill="red" stroke="red" points="806.49,-232.28 797.43,-226.79 801.09,-236.74 806.49,-232.28"/>
<text xml:space="preserve" text-anchor="middle" x="895" y="-252.7" font-family="Times,serif" font-size="14.00"> risk_signal_update </text>
</g>
</g>
</svg>
