<?xml version="1.0" encoding="UTF-8" standalone="no"?>
<!DOCTYPE svg PUBLIC "-//W3C//DTD SVG 1.1//EN"
 "http://www.w3.org/Graphics/SVG/1.1/DTD/svg11.dtd">
<!-- Generated by graphviz version 14.1.5 (20260411.2331)
 -->
<!-- Title: SecureBoot Pages: 1 -->
<svg width="713pt" height="1274pt"
 viewBox="0.00 0.00 713.00 1274.00" xmlns="http://www.w3.org/2000/svg" xmlns:xlink="http://www.w3.org/1999/xlink">
<g id="graph0" class="graph" transform="scale(1 1) rotate(0) translate(4 1269.65)">
<title>SecureBoot</title>
<polygon fill="white" stroke="none" points="-4,4 -4,-1269.65 708.82,-1269.65 708.82,4 -4,4"/>
<!-- Entry -->
<g id="node1" class="node">
<title>Entry</title>
<ellipse fill="black" stroke="#00688b" cx="559.75" cy="-1258.45" rx="7.2" ry="7.2"/>
</g>
<!-- Rom -->
<g id="node2" class="node">
<title>Rom</title>
<path fill="azure" stroke="none" d="M627.38,-1214.25C627.38,-1214.25 492.12,-1214.25 492.12,-1214.25 486.12,-1214.25 480.12,-1208.25 480.12,-1202.25 480.12,-1202.25 480.12,-1125.5 480.12,-1125.5 480.12,-1119.5 486.12,-1113.5 492.12,-1113.5 492.12,-1113.5 627.38,-1113.5 627.38,-1113.5 633.38,-1113.5 639.38,-1119.5 639.38,-1125.5 639.38,-1125.5 639.38,-1202.25 639.38,-1202.25 639.38,-1208.25 633.38,-1214.25 627.38,-1214.25"/>
<text xml:space="preserve" text-anchor="start" x="545.5" y="-1193.95" font-family="Times,serif" font-weight="bold" font-size="14.00">Rom</text>
<text xml:space="preserve" text-anchor="start" x="488.12" y="-1168.75" font-family="Times,serif" font-size="10.00">$&gt;()</text>
<text xml:space="preserve" text-anchor="start" x="488.12" y="-1157.5" font-family="Times,serif" font-size="10.00">measurement_extended(stage: int)</text>
<text xml:space="preserve" text-anchor="start" x="488.12" y="-1146.25" font-family="Times,serif" font-size="10.00">verify_result(stage: int, passed: int)</text>
<text xml:space="preserve" text-anchor="start" x="488.12" y="-1135" font-family="Times,serif" font-size="10.00">get_stage()</text>
<text xml:space="preserve" text-anchor="start" x="546.25" y="-1123.75" font-family="Times,serif" font-size="10.00"> &#160;&#160;&#160;&#160;&#160;&#160;&#160;&#160;&#160;&#160;&#160;</text>
<polygon fill="#00688b" stroke="#00688b" points="480.12,-1183.75 480.12,-1183.75 639.38,-1183.75 639.38,-1183.75 480.12,-1183.75"/>
<path fill="none" stroke="#00688b" d="M492.12,-1113.5C492.12,-1113.5 627.38,-1113.5 627.38,-1113.5 633.38,-1113.5 639.38,-1119.5 639.38,-1125.5 639.38,-1125.5 639.38,-1202.25 639.38,-1202.25 639.38,-1208.25 633.38,-1214.25 627.38,-1214.25 627.38,-1214.25 492.12,-1214.25 492.12,-1214.25 486.12,-1214.25 480.12,-1208.25 480.12,-1202.25 480.12,-1202.25 480.12,-1125.5 480.12,-1125.5 480.12,-1119.5 486.12,-1113.5 492.12,-1113.5"/>
</g>
<!-- Entry&#45;&gt;Rom -->
<g id="edge1" class="edge">
<title>Entry&#45;&gt;Rom</title>
<path fill="none" stroke="red" d="M559.75,-1250.79C559.75,-1244.89 559.75,-1235.61 559.75,-1225.31"/>
<polygon fill="red" stroke="red" points="563.25,-1225.34 559.75,-1215.34 556.25,-1225.34 563.25,-1225.34"/>
</g>
<!-- VerifyingBootloader -->
<g id="node3" class="node">
<title>VerifyingBootloader</title>
<path fill="azure" stroke="none" d="M545.5,-1061C545.5,-1061 414,-1061 414,-1061 408,-1061 402,-1055 402,-1049 402,-1049 402,-983.5 402,-983.5 402,-977.5 408,-971.5 414,-971.5 414,-971.5 545.5,-971.5 545.5,-971.5 551.5,-971.5 557.5,-977.5 557.5,-983.5 557.5,-983.5 557.5,-1049 557.5,-1049 557.5,-1055 551.5,-1061 545.5,-1061"/>
<text xml:space="preserve" text-anchor="start" x="420.88" y="-1040.7" font-family="Times,serif" font-weight="bold" font-size="14.00">VerifyingBootloader</text>
<text xml:space="preserve" text-anchor="start" x="410" y="-1015.5" font-family="Times,serif" font-size="10.00">$&gt;()</text>
<text xml:space="preserve" text-anchor="start" x="410" y="-1004.25" font-family="Times,serif" font-size="10.00">measurement_extended(stage: int)</text>
<text xml:space="preserve" text-anchor="start" x="410" y="-993" font-family="Times,serif" font-size="10.00">get_stage()</text>
<text xml:space="preserve" text-anchor="start" x="466.25" y="-981.75" font-family="Times,serif" font-size="10.00"> &#160;&#160;&#160;&#160;&#160;&#160;&#160;&#160;&#160;&#160;&#160;</text>
<polygon fill="#00688b" stroke="#00688b" points="402,-1030.5 402,-1030.5 557.5,-1030.5 557.5,-1030.5 402,-1030.5"/>
<path fill="none" stroke="#00688b" d="M414,-971.5C414,-971.5 545.5,-971.5 545.5,-971.5 551.5,-971.5 557.5,-977.5 557.5,-983.5 557.5,-983.5 557.5,-1049 557.5,-1049 557.5,-1055 551.5,-1061 545.5,-1061 545.5,-1061 414,-1061 414,-1061 408,-1061 402,-1055 402,-1049 402,-1049 402,-983.5 402,-983.5 402,-977.5 408,-971.5 414,-971.5"/>
</g>
<!-- Rom&#45;&gt;VerifyingBootloader -->
<g id="edge2" class="edge">
<title>Rom&#45;&gt;VerifyingBootloader</title>
<path fill="none" stroke="red" d="M532.25,-1113.6C528.87,-1107.51 525.47,-1101.37 522.25,-1095.5 517.85,-1087.51 513.23,-1079.04 508.71,-1070.74"/>
<polygon fill="red" stroke="red" points="511.85,-1069.19 504,-1062.08 505.7,-1072.54 511.85,-1069.19"/>
<text xml:space="preserve" text-anchor="middle" x="560.5" y="-1082.2" font-family="Times,serif" font-size="14.00"> verify_result </text>
</g>
<!-- Halted -->
<g id="node12" class="node">
<title>Halted</title>
<path fill="azure" stroke="none" d="M568.25,-765.75C568.25,-765.75 531.25,-765.75 531.25,-765.75 525.25,-765.75 519.25,-759.75 519.25,-753.75 519.25,-753.75 519.25,-710.75 519.25,-710.75 519.25,-704.75 525.25,-698.75 531.25,-698.75 531.25,-698.75 568.25,-698.75 568.25,-698.75 574.25,-698.75 580.25,-704.75 580.25,-710.75 580.25,-710.75 580.25,-753.75 580.25,-753.75 580.25,-759.75 574.25,-765.75 568.25,-765.75"/>
<text xml:space="preserve" text-anchor="start" x="529.88" y="-745.45" font-family="Times,serif" font-weight="bold" font-size="14.00">Halted</text>
<text xml:space="preserve" text-anchor="start" x="527.25" y="-720.25" font-family="Times,serif" font-size="10.00">get_stage()</text>
<text xml:space="preserve" text-anchor="start" x="536.25" y="-709" font-family="Times,serif" font-size="10.00"> &#160;&#160;&#160;&#160;&#160;&#160;&#160;&#160;&#160;&#160;&#160;</text>
<polygon fill="#00688b" stroke="#00688b" points="519.25,-735.25 519.25,-735.25 580.25,-735.25 580.25,-735.25 519.25,-735.25"/>
<path fill="none" stroke="#00688b" d="M531.25,-698.75C531.25,-698.75 568.25,-698.75 568.25,-698.75 574.25,-698.75 580.25,-704.75 580.25,-710.75 580.25,-710.75 580.25,-753.75 580.25,-753.75 580.25,-759.75 574.25,-765.75 568.25,-765.75 568.25,-765.75 531.25,-765.75 531.25,-765.75 525.25,-765.75 519.25,-759.75 519.25,-753.75 519.25,-753.75 519.25,-710.75 519.25,-710.75 519.25,-704.75 525.25,-698.75 531.25,-698.75"/>
</g>
<!-- Rom&#45;&gt;Halted -->
<g id="edge3" class="edge">
<title>Rom&#45;&gt;Halted</title>
<path fill="none" stroke="red" d="M591.99,-1113.75C594.75,-1107.79 597.1,-1101.63 598.75,-1095.5 633.39,-966.51 642.71,-921.11 598.75,-795 596.02,-787.18 591.85,-779.61 587.07,-772.6"/>
<polygon fill="red" stroke="red" points="589.92,-770.58 581.14,-764.65 584.31,-774.76 589.92,-770.58"/>
<text xml:space="preserve" text-anchor="middle" x="666.57" y="-940.2" font-family="Times,serif" font-size="14.00"> verify_result </text>
</g>
<!-- AntirollbackBootloader -->
<g id="node4" class="node">
<title>AntirollbackBootloader</title>
<path fill="azure" stroke="none" d="M517.38,-919C517.38,-919 388.12,-919 388.12,-919 382.12,-919 376.12,-913 376.12,-907 376.12,-907 376.12,-841.5 376.12,-841.5 376.12,-835.5 382.12,-829.5 388.12,-829.5 388.12,-829.5 517.38,-829.5 517.38,-829.5 523.38,-829.5 529.38,-835.5 529.38,-841.5 529.38,-841.5 529.38,-907 529.38,-907 529.38,-913 523.38,-919 517.38,-919"/>
<text xml:space="preserve" text-anchor="start" x="384.12" y="-898.7" font-family="Times,serif" font-weight="bold" font-size="14.00">AntirollbackBootloader</text>
<text xml:space="preserve" text-anchor="start" x="384.12" y="-873.5" font-family="Times,serif" font-size="10.00">$&gt;()</text>
<text xml:space="preserve" text-anchor="start" x="384.12" y="-862.25" font-family="Times,serif" font-size="10.00">antirollback_check(passed: int)</text>
<text xml:space="preserve" text-anchor="start" x="384.12" y="-851" font-family="Times,serif" font-size="10.00">get_stage()</text>
<text xml:space="preserve" text-anchor="start" x="434.75" y="-839.75" font-family="Times,serif" font-size="10.00"> &#160;&#160;&#160;&#160;&#160;&#160;&#160;&#160;&#160;&#160;&#160;</text>
<polygon fill="#00688b" stroke="#00688b" points="376.12,-888.5 376.12,-888.5 529.38,-888.5 529.38,-888.5 376.12,-888.5"/>
<path fill="none" stroke="#00688b" d="M388.12,-829.5C388.12,-829.5 517.38,-829.5 517.38,-829.5 523.38,-829.5 529.38,-835.5 529.38,-841.5 529.38,-841.5 529.38,-907 529.38,-907 529.38,-913 523.38,-919 517.38,-919 517.38,-919 388.12,-919 388.12,-919 382.12,-919 376.12,-913 376.12,-907 376.12,-907 376.12,-841.5 376.12,-841.5 376.12,-835.5 382.12,-829.5 388.12,-829.5"/>
</g>
<!-- VerifyingBootloader&#45;&gt;AntirollbackBootloader -->
<g id="edge4" class="edge">
<title>VerifyingBootloader&#45;&gt;AntirollbackBootloader</title>
<path fill="none" stroke="red" d="M459.44,-971.7C457.33,-965.69 455.5,-959.52 454.25,-953.5 452.69,-945.99 451.74,-937.99 451.21,-930.08"/>
<polygon fill="red" stroke="red" points="454.71,-929.97 450.78,-920.13 447.72,-930.28 454.71,-929.97"/>
<text xml:space="preserve" text-anchor="middle" x="522.5" y="-940.2" font-family="Times,serif" font-size="14.00"> measurement_extended </text>
</g>
<!-- BootloaderRunning -->
<g id="node5" class="node">
<title>BootloaderRunning</title>
<path fill="azure" stroke="none" d="M422.38,-777C422.38,-777 287.12,-777 287.12,-777 281.12,-777 275.12,-771 275.12,-765 275.12,-765 275.12,-699.5 275.12,-699.5 275.12,-693.5 281.12,-687.5 287.12,-687.5 287.12,-687.5 422.38,-687.5 422.38,-687.5 428.38,-687.5 434.38,-693.5 434.38,-699.5 434.38,-699.5 434.38,-765 434.38,-765 434.38,-771 428.38,-777 422.38,-777"/>
<text xml:space="preserve" text-anchor="start" x="297.75" y="-756.7" font-family="Times,serif" font-weight="bold" font-size="14.00">BootloaderRunning</text>
<text xml:space="preserve" text-anchor="start" x="283.12" y="-731.5" font-family="Times,serif" font-size="10.00">$&gt;()</text>
<text xml:space="preserve" text-anchor="start" x="283.12" y="-720.25" font-family="Times,serif" font-size="10.00">verify_result(stage: int, passed: int)</text>
<text xml:space="preserve" text-anchor="start" x="283.12" y="-709" font-family="Times,serif" font-size="10.00">get_stage()</text>
<text xml:space="preserve" text-anchor="start" x="341.25" y="-697.75" font-family="Times,serif" font-size="10.00"> &#160;&#160;&#160;&#160;&#160;&#160;&#160;&#160;&#160;&#160;&#160;</text>
<polygon fill="#00688b" stroke="#00688b" points="275.12,-746.5 275.12,-746.5 434.38,-746.5 434.38,-746.5 275.12,-746.5"/>
<path fill="none" stroke="#00688b" d="M287.12,-687.5C287.12,-687.5 422.38,-687.5 422.38,-687.5 428.38,-687.5 434.38,-693.5 434.38,-699.5 434.38,-699.5 434.38,-765 434.38,-765 434.38,-771 428.38,-777 422.38,-777 422.38,-777 287.12,-777 287.12,-777 281.12,-777 275.12,-771 275.12,-765 275.12,-765 275.12,-699.5 275.12,-699.5 275.12,-693.5 281.12,-687.5 287.12,-687.5"/>
</g>
<!-- AntirollbackBootloader&#45;&gt;BootloaderRunning -->
<g id="edge5" class="edge">
<title>AntirollbackBootloader&#45;&gt;BootloaderRunning</title>
<path fill="none" stroke="red" d="M378.94,-829.64C373.41,-824.12 368.46,-818.07 364.5,-811.5 360.23,-804.41 357.43,-796.29 355.65,-788.04"/>
<polygon fill="red" stroke="red" points="359.12,-787.58 354.05,-778.28 352.21,-788.71 359.12,-787.58"/>
<text xml:space="preserve" text-anchor="middle" x="419.62" y="-798.2" font-family="Times,serif" font-size="14.00"> antirollback_check </text>
</g>
<!-- AntirollbackBootloader&#45;&gt;Halted -->
<g id="edge6" class="edge">
<title>AntirollbackBootloader&#45;&gt;Halted</title>
<path fill="none" stroke="red" d="M469.44,-829.54C474.76,-817.86 481.2,-805.57 488.5,-795 495.07,-785.5 503.18,-776.16 511.33,-767.74"/>
<polygon fill="red" stroke="red" points="513.76,-770.26 518.36,-760.72 508.81,-765.31 513.76,-770.26"/>
<text xml:space="preserve" text-anchor="middle" x="543.62" y="-798.2" font-family="Times,serif" font-size="14.00"> antirollback_check </text>
</g>
<!-- VerifyingKernel -->
<g id="node6" class="node">
<title>VerifyingKernel</title>
<path fill="azure" stroke="none" d="M344.5,-635C344.5,-635 213,-635 213,-635 207,-635 201,-629 201,-623 201,-623 201,-557.5 201,-557.5 201,-551.5 207,-545.5 213,-545.5 213,-545.5 344.5,-545.5 344.5,-545.5 350.5,-545.5 356.5,-551.5 356.5,-557.5 356.5,-557.5 356.5,-623 356.5,-623 356.5,-629 350.5,-635 344.5,-635"/>
<text xml:space="preserve" text-anchor="start" x="231.5" y="-614.7" font-family="Times,serif" font-weight="bold" font-size="14.00">VerifyingKernel</text>
<text xml:space="preserve" text-anchor="start" x="209" y="-589.5" font-family="Times,serif" font-size="10.00">$&gt;()</text>
<text xml:space="preserve" text-anchor="start" x="209" y="-578.25" font-family="Times,serif" font-size="10.00">measurement_extended(stage: int)</text>
<text xml:space="preserve" text-anchor="start" x="209" y="-567" font-family="Times,serif" font-size="10.00">get_stage()</text>
<text xml:space="preserve" text-anchor="start" x="265.25" y="-555.75" font-family="Times,serif" font-size="10.00"> &#160;&#160;&#160;&#160;&#160;&#160;&#160;&#160;&#160;&#160;&#160;</text>
<polygon fill="#00688b" stroke="#00688b" points="201,-604.5 201,-604.5 356.5,-604.5 356.5,-604.5 201,-604.5"/>
<path fill="none" stroke="#00688b" d="M213,-545.5C213,-545.5 344.5,-545.5 344.5,-545.5 350.5,-545.5 356.5,-551.5 356.5,-557.5 356.5,-557.5 356.5,-623 356.5,-623 356.5,-629 350.5,-635 344.5,-635 344.5,-635 213,-635 213,-635 207,-635 201,-629 201,-623 201,-623 201,-557.5 201,-557.5 201,-551.5 207,-545.5 213,-545.5"/>
</g>
<!-- BootloaderRunning&#45;&gt;VerifyingKernel -->
<g id="edge7" class="edge">
<title>BootloaderRunning&#45;&gt;VerifyingKernel</title>
<path fill="none" stroke="red" d="M327.63,-687.68C324.06,-681.62 320.51,-675.44 317.25,-669.5 312.9,-661.57 308.49,-653.08 304.28,-644.73"/>
<polygon fill="red" stroke="red" points="307.52,-643.4 299.93,-636.01 301.26,-646.52 307.52,-643.4"/>
<text xml:space="preserve" text-anchor="middle" x="355.5" y="-656.2" font-family="Times,serif" font-size="14.00"> verify_result </text>
</g>
<!-- Recovery -->
<g id="node11" class="node">
<title>Recovery</title>
<path fill="azure" stroke="none" d="M292.75,-197.75C292.75,-197.75 246.75,-197.75 246.75,-197.75 240.75,-197.75 234.75,-191.75 234.75,-185.75 234.75,-185.75 234.75,-142.75 234.75,-142.75 234.75,-136.75 240.75,-130.75 246.75,-130.75 246.75,-130.75 292.75,-130.75 292.75,-130.75 298.75,-130.75 304.75,-136.75 304.75,-142.75 304.75,-142.75 304.75,-185.75 304.75,-185.75 304.75,-191.75 298.75,-197.75 292.75,-197.75"/>
<text xml:space="preserve" text-anchor="start" x="242.75" y="-177.45" font-family="Times,serif" font-weight="bold" font-size="14.00">Recovery</text>
<text xml:space="preserve" text-anchor="start" x="242.75" y="-152.25" font-family="Times,serif" font-size="10.00">get_stage()</text>
<text xml:space="preserve" text-anchor="start" x="251.75" y="-141" font-family="Times,serif" font-size="10.00"> &#160;&#160;&#160;&#160;&#160;&#160;&#160;&#160;&#160;&#160;&#160;</text>
<polygon fill="#00688b" stroke="#00688b" points="234.75,-167.25 234.75,-167.25 304.75,-167.25 304.75,-167.25 234.75,-167.25"/>
<path fill="none" stroke="#00688b" d="M246.75,-130.75C246.75,-130.75 292.75,-130.75 292.75,-130.75 298.75,-130.75 304.75,-136.75 304.75,-142.75 304.75,-142.75 304.75,-185.75 304.75,-185.75 304.75,-191.75 298.75,-197.75 292.75,-197.75 292.75,-197.75 246.75,-197.75 246.75,-197.75 240.75,-197.75 234.75,-191.75 234.75,-185.75 234.75,-185.75 234.75,-142.75 234.75,-142.75 234.75,-136.75 240.75,-130.75 246.75,-130.75"/>
</g>
<!-- BootloaderRunning&#45;&gt;Recovery -->
<g id="edge8" class="edge">
<title>BootloaderRunning&#45;&gt;Recovery</title>
<path fill="none" stroke="red" d="M385.03,-687.82C388.34,-681.84 391.36,-675.65 393.75,-669.5 406.53,-636.56 407.75,-626.58 407.75,-591.25 407.75,-591.25 407.75,-591.25 407.75,-305.25 407.75,-251.13 354.81,-210.35 314.51,-187.14"/>
<polygon fill="red" stroke="red" points="316.34,-184.15 305.9,-182.35 312.94,-190.27 316.34,-184.15"/>
<text xml:space="preserve" text-anchor="middle" x="446" y="-443.2" font-family="Times,serif" font-size="14.00"> verify_result </text>
</g>
<!-- AntirollbackKernel -->
<g id="node7" class="node">
<title>AntirollbackKernel</title>
<path fill="azure" stroke="none" d="M315.88,-493C315.88,-493 195.62,-493 195.62,-493 189.62,-493 183.62,-487 183.62,-481 183.62,-481 183.62,-415.5 183.62,-415.5 183.62,-409.5 189.62,-403.5 195.62,-403.5 195.62,-403.5 315.88,-403.5 315.88,-403.5 321.88,-403.5 327.88,-409.5 327.88,-415.5 327.88,-415.5 327.88,-481 327.88,-481 327.88,-487 321.88,-493 315.88,-493"/>
<text xml:space="preserve" text-anchor="start" x="198.75" y="-472.7" font-family="Times,serif" font-weight="bold" font-size="14.00">AntirollbackKernel</text>
<text xml:space="preserve" text-anchor="start" x="191.62" y="-447.5" font-family="Times,serif" font-size="10.00">$&gt;()</text>
<text xml:space="preserve" text-anchor="start" x="191.62" y="-436.25" font-family="Times,serif" font-size="10.00">antirollback_check(passed: int)</text>
<text xml:space="preserve" text-anchor="start" x="191.62" y="-425" font-family="Times,serif" font-size="10.00">get_stage()</text>
<text xml:space="preserve" text-anchor="start" x="242.25" y="-413.75" font-family="Times,serif" font-size="10.00"> &#160;&#160;&#160;&#160;&#160;&#160;&#160;&#160;&#160;&#160;&#160;</text>
<polygon fill="#00688b" stroke="#00688b" points="183.62,-462.5 183.62,-462.5 327.88,-462.5 327.88,-462.5 183.62,-462.5"/>
<path fill="none" stroke="#00688b" d="M195.62,-403.5C195.62,-403.5 315.88,-403.5 315.88,-403.5 321.88,-403.5 327.88,-409.5 327.88,-415.5 327.88,-415.5 327.88,-481 327.88,-481 327.88,-487 321.88,-493 315.88,-493 315.88,-493 195.62,-493 195.62,-493 189.62,-493 183.62,-487 183.62,-481 183.62,-481 183.62,-415.5 183.62,-415.5 183.62,-409.5 189.62,-403.5 195.62,-403.5"/>
</g>
<!-- VerifyingKernel&#45;&gt;AntirollbackKernel -->
<g id="edge9" class="edge">
<title>VerifyingKernel&#45;&gt;AntirollbackKernel</title>
<path fill="none" stroke="red" d="M261.63,-545.52C259.85,-539.54 258.31,-533.42 257.25,-527.5 255.92,-520.04 255.09,-512.12 254.62,-504.29"/>
<polygon fill="red" stroke="red" points="258.12,-504.31 254.22,-494.46 251.13,-504.59 258.12,-504.31"/>
<text xml:space="preserve" text-anchor="middle" x="325.5" y="-514.2" font-family="Times,serif" font-size="14.00"> measurement_extended </text>
</g>
<!-- KernelRunning -->
<g id="node8" class="node">
<title>KernelRunning</title>
<path fill="azure" stroke="none" d="M212.38,-351C212.38,-351 77.12,-351 77.12,-351 71.12,-351 65.12,-345 65.12,-339 65.12,-339 65.12,-273.5 65.12,-273.5 65.12,-267.5 71.12,-261.5 77.12,-261.5 77.12,-261.5 212.38,-261.5 212.38,-261.5 218.38,-261.5 224.38,-267.5 224.38,-273.5 224.38,-273.5 224.38,-339 224.38,-339 224.38,-345 218.38,-351 212.38,-351"/>
<text xml:space="preserve" text-anchor="start" x="99.38" y="-330.7" font-family="Times,serif" font-weight="bold" font-size="14.00">KernelRunning</text>
<text xml:space="preserve" text-anchor="start" x="73.12" y="-305.5" font-family="Times,serif" font-size="10.00">$&gt;()</text>
<text xml:space="preserve" text-anchor="start" x="73.12" y="-294.25" font-family="Times,serif" font-size="10.00">verify_result(stage: int, passed: int)</text>
<text xml:space="preserve" text-anchor="start" x="73.12" y="-283" font-family="Times,serif" font-size="10.00">get_stage()</text>
<text xml:space="preserve" text-anchor="start" x="131.25" y="-271.75" font-family="Times,serif" font-size="10.00"> &#160;&#160;&#160;&#160;&#160;&#160;&#160;&#160;&#160;&#160;&#160;</text>
<polygon fill="#00688b" stroke="#00688b" points="65.12,-320.5 65.12,-320.5 224.38,-320.5 224.38,-320.5 65.12,-320.5"/>
<path fill="none" stroke="#00688b" d="M77.12,-261.5C77.12,-261.5 212.38,-261.5 212.38,-261.5 218.38,-261.5 224.38,-267.5 224.38,-273.5 224.38,-273.5 224.38,-339 224.38,-339 224.38,-345 218.38,-351 212.38,-351 212.38,-351 77.12,-351 77.12,-351 71.12,-351 65.12,-345 65.12,-339 65.12,-339 65.12,-273.5 65.12,-273.5 65.12,-267.5 71.12,-261.5 77.12,-261.5"/>
</g>
<!-- AntirollbackKernel&#45;&gt;KernelRunning -->
<g id="edge10" class="edge">
<title>AntirollbackKernel&#45;&gt;KernelRunning</title>
<path fill="none" stroke="red" d="M183.76,-421.23C168.57,-412.29 154.45,-400.6 145.5,-385.5 141.31,-378.43 139.06,-370.33 138.06,-362.08"/>
<polygon fill="red" stroke="red" points="141.57,-362.12 137.51,-352.34 134.58,-362.52 141.57,-362.12"/>
<text xml:space="preserve" text-anchor="middle" x="200.62" y="-372.2" font-family="Times,serif" font-size="14.00"> antirollback_check </text>
</g>
<!-- AntirollbackKernel&#45;&gt;Recovery -->
<g id="edge11" class="edge">
<title>AntirollbackKernel&#45;&gt;Recovery</title>
<path fill="none" stroke="red" d="M257.91,-403.81C260.54,-350.8 264.96,-261.73 267.59,-208.72"/>
<polygon fill="red" stroke="red" points="271.08,-209.01 268.08,-198.85 264.09,-208.67 271.08,-209.01"/>
<text xml:space="preserve" text-anchor="middle" x="319.95" y="-301.2" font-family="Times,serif" font-size="14.00"> antirollback_check </text>
</g>
<!-- VerifyingInit -->
<g id="node9" class="node">
<title>VerifyingInit</title>
<path fill="azure" stroke="none" d="M143.5,-209C143.5,-209 12,-209 12,-209 6,-209 0,-203 0,-197 0,-197 0,-131.5 0,-131.5 0,-125.5 6,-119.5 12,-119.5 12,-119.5 143.5,-119.5 143.5,-119.5 149.5,-119.5 155.5,-125.5 155.5,-131.5 155.5,-131.5 155.5,-197 155.5,-197 155.5,-203 149.5,-209 143.5,-209"/>
<text xml:space="preserve" text-anchor="start" x="40.25" y="-188.7" font-family="Times,serif" font-weight="bold" font-size="14.00">VerifyingInit</text>
<text xml:space="preserve" text-anchor="start" x="8" y="-163.5" font-family="Times,serif" font-size="10.00">$&gt;()</text>
<text xml:space="preserve" text-anchor="start" x="8" y="-152.25" font-family="Times,serif" font-size="10.00">measurement_extended(stage: int)</text>
<text xml:space="preserve" text-anchor="start" x="8" y="-141" font-family="Times,serif" font-size="10.00">get_stage()</text>
<text xml:space="preserve" text-anchor="start" x="64.25" y="-129.75" font-family="Times,serif" font-size="10.00"> &#160;&#160;&#160;&#160;&#160;&#160;&#160;&#160;&#160;&#160;&#160;</text>
<polygon fill="#00688b" stroke="#00688b" points="0,-178.5 0,-178.5 155.5,-178.5 155.5,-178.5 0,-178.5"/>
<path fill="none" stroke="#00688b" d="M12,-119.5C12,-119.5 143.5,-119.5 143.5,-119.5 149.5,-119.5 155.5,-125.5 155.5,-131.5 155.5,-131.5 155.5,-197 155.5,-197 155.5,-203 149.5,-209 143.5,-209 143.5,-209 12,-209 12,-209 6,-209 0,-203 0,-197 0,-197 0,-131.5 0,-131.5 0,-125.5 6,-119.5 12,-119.5"/>
</g>
<!-- KernelRunning&#45;&gt;VerifyingInit -->
<g id="edge12" class="edge">
<title>KernelRunning&#45;&gt;VerifyingInit</title>
<path fill="none" stroke="red" d="M90.42,-261.66C85.97,-256.01 82.1,-249.93 79.25,-243.5 76.03,-236.24 74.21,-228.21 73.3,-220.15"/>
<polygon fill="red" stroke="red" points="76.81,-220.08 72.69,-210.32 69.82,-220.52 76.81,-220.08"/>
<text xml:space="preserve" text-anchor="middle" x="117.5" y="-230.2" font-family="Times,serif" font-size="14.00"> verify_result </text>
</g>
<!-- KernelRunning&#45;&gt;Recovery -->
<g id="edge13" class="edge">
<title>KernelRunning&#45;&gt;Recovery</title>
<path fill="none" stroke="red" d="M158.85,-261.77C164.06,-249.71 170.8,-237.16 179.25,-227 191.84,-211.86 209.04,-198.87 225.07,-188.76"/>
<polygon fill="red" stroke="red" points="226.81,-191.8 233.56,-183.63 223.19,-185.81 226.81,-191.8"/>
<text xml:space="preserve" text-anchor="middle" x="217.5" y="-230.2" font-family="Times,serif" font-size="14.00"> verify_result </text>
</g>
<!-- Booted -->
<g id="node10" class="node">
<title>Booted</title>
<path fill="azure" stroke="none" d="M96.25,-67C96.25,-67 59.25,-67 59.25,-67 53.25,-67 47.25,-61 47.25,-55 47.25,-55 47.25,-12 47.25,-12 47.25,-6 53.25,0 59.25,0 59.25,0 96.25,0 96.25,0 102.25,0 108.25,-6 108.25,-12 108.25,-12 108.25,-55 108.25,-55 108.25,-61 102.25,-67 96.25,-67"/>
<text xml:space="preserve" text-anchor="start" x="57.5" y="-46.7" font-family="Times,serif" font-weight="bold" font-size="14.00">Booted</text>
<text xml:space="preserve" text-anchor="start" x="55.25" y="-21.5" font-family="Times,serif" font-size="10.00">get_stage()</text>
<text xml:space="preserve" text-anchor="start" x="64.25" y="-10.25" font-family="Times,serif" font-size="10.00"> &#160;&#160;&#160;&#160;&#160;&#160;&#160;&#160;&#160;&#160;&#160;</text>
<polygon fill="#00688b" stroke="#00688b" points="47.25,-36.5 47.25,-36.5 108.25,-36.5 108.25,-36.5 47.25,-36.5"/>
<path fill="none" stroke="#00688b" d="M59.25,0C59.25,0 96.25,0 96.25,0 102.25,0 108.25,-6 108.25,-12 108.25,-12 108.25,-55 108.25,-55 108.25,-61 102.25,-67 96.25,-67 96.25,-67 59.25,-67 59.25,-67 53.25,-67 47.25,-61 47.25,-55 47.25,-55 47.25,-12 47.25,-12 47.25,-6 53.25,0 59.25,0"/>
</g>
<!-- VerifyingInit&#45;&gt;Booted -->
<g id="edge14" class="edge">
<title>VerifyingInit&#45;&gt;Booted</title>
<path fill="none" stroke="red" d="M77.75,-119.66C77.75,-106.23 77.75,-91.45 77.75,-78.03"/>
<polygon fill="red" stroke="red" points="81.25,-78.16 77.75,-68.16 74.25,-78.16 81.25,-78.16"/>
<text xml:space="preserve" text-anchor="middle" x="146" y="-88.2" font-family="Times,serif" font-size="14.00"> measurement_extended </text>
</g>
</g>
</svg>
