<?xml version="1.0" encoding="UTF-8" standalone="no"?>
<!DOCTYPE svg PUBLIC "-//W3C//DTD SVG 1.1//EN"
 "http://www.w3.org/Graphics/SVG/1.1/DTD/svg11.dtd">
<!-- Generated by graphviz version 14.1.5 (20260411.2331)
 -->
<!-- Title: StepperDriver Pages: 1 -->
<svg width="491pt" height="631pt"
 viewBox="0.00 0.00 491.00 631.00" xmlns="http://www.w3.org/2000/svg" xmlns:xlink="http://www.w3.org/1999/xlink">
<g id="graph0" class="graph" transform="scale(1 1) rotate(0) translate(4 626.5)">
<title>StepperDriver</title>
<polygon fill="white" stroke="none" points="-4,4 -4,-626.5 487.14,-626.5 487.14,4 -4,4"/>
<g id="clust1" class="cluster">
<title>cluster_Active</title>
<path fill="none" stroke="black" d="M34.2,-132C34.2,-132 239.2,-132 239.2,-132 245.2,-132 251.2,-138 251.2,-144 251.2,-144 251.2,-602.5 251.2,-602.5 251.2,-608.5 245.2,-614.5 239.2,-614.5 239.2,-614.5 34.2,-614.5 34.2,-614.5 28.2,-614.5 22.2,-608.5 22.2,-602.5 22.2,-602.5 22.2,-144 22.2,-144 22.2,-138 28.2,-132 34.2,-132"/>
<text xml:space="preserve" text-anchor="start" x="118.7" y="-593.75" font-family="Times,serif" font-size="14.00">Active</text>
<polygon fill="black" stroke="black" points="114.7,-587 114.7,-587 158.7,-587 158.7,-587 114.7,-587"/>
</g>
<g id="clust2" class="cluster">
<title>cluster_Motion</title>
<path fill="none" stroke="black" d="M42.2,-140C42.2,-140 223.2,-140 223.2,-140 229.2,-140 235.2,-146 235.2,-152 235.2,-152 235.2,-556 235.2,-556 235.2,-562 229.2,-568 223.2,-568 223.2,-568 42.2,-568 42.2,-568 36.2,-568 30.2,-562 30.2,-556 30.2,-556 30.2,-152 30.2,-152 30.2,-146 36.2,-140 42.2,-140"/>
<text xml:space="preserve" text-anchor="start" x="112.45" y="-547.25" font-family="Times,serif" font-size="14.00">Motion</text>
<polygon fill="black" stroke="black" points="108.45,-540.5 108.45,-540.5 156.95,-540.5 156.95,-540.5 108.45,-540.5"/>
</g>
<!-- Entry -->
<g id="node1" class="node">
<title>Entry</title>
<ellipse fill="black" stroke="#00688b" cx="7.2" cy="-192.75" rx="7.2" ry="7.2"/>
</g>
<!-- Idle -->
<g id="node2" class="node">
<title>Idle</title>
<path fill="azure" stroke="none" d="M189.82,-89.5C189.82,-89.5 90.57,-89.5 90.57,-89.5 84.57,-89.5 78.57,-83.5 78.57,-77.5 78.57,-77.5 78.57,-12 78.57,-12 78.57,-6 84.57,0 90.57,0 90.57,0 189.82,0 189.82,0 195.82,0 201.82,-6 201.82,-12 201.82,-12 201.82,-77.5 201.82,-77.5 201.82,-83.5 195.82,-89.5 189.82,-89.5"/>
<text xml:space="preserve" text-anchor="start" x="128.95" y="-69.2" font-family="Times,serif" font-weight="bold" font-size="14.00">Idle</text>
<text xml:space="preserve" text-anchor="start" x="86.57" y="-44" font-family="Times,serif" font-size="10.00">move_to(target_steps: int)</text>
<text xml:space="preserve" text-anchor="start" x="86.57" y="-32.75" font-family="Times,serif" font-size="10.00">tick()</text>
<text xml:space="preserve" text-anchor="start" x="86.57" y="-21.5" font-family="Times,serif" font-size="10.00">status()</text>
<text xml:space="preserve" text-anchor="start" x="126.7" y="-10.25" font-family="Times,serif" font-size="10.00"> &#160;&#160;&#160;&#160;&#160;&#160;&#160;&#160;&#160;&#160;&#160;</text>
<polygon fill="#00688b" stroke="#00688b" points="78.57,-59 78.57,-59 201.82,-59 201.82,-59 78.57,-59"/>
<path fill="none" stroke="#00688b" d="M90.57,0C90.57,0 189.82,0 189.82,0 195.82,0 201.82,-6 201.82,-12 201.82,-12 201.82,-77.5 201.82,-77.5 201.82,-83.5 195.82,-89.5 189.82,-89.5 189.82,-89.5 90.57,-89.5 90.57,-89.5 84.57,-89.5 78.57,-83.5 78.57,-77.5 78.57,-77.5 78.57,-12 78.57,-12 78.57,-6 84.57,0 90.57,0"/>
</g>
<!-- Entry&#45;&gt;Idle -->
<g id="edge1" class="edge">
<title>Entry&#45;&gt;Idle</title>
<path fill="none" stroke="red" d="M7.96,-185.25C9.58,-173.62 14.26,-148.89 26.2,-132 37.87,-115.5 53.64,-100.77 69.74,-88.36"/>
<polygon fill="red" stroke="red" points="71.54,-91.38 77.47,-82.6 67.36,-85.76 71.54,-91.38"/>
</g>
<!-- Accelerating -->
<g id="node6" class="node">
<title>Accelerating</title>
<path fill="azure" stroke="none" d="M192.57,-521.5C192.57,-521.5 127.82,-521.5 127.82,-521.5 121.82,-521.5 115.82,-515.5 115.82,-509.5 115.82,-509.5 115.82,-444 115.82,-444 115.82,-438 121.82,-432 127.82,-432 127.82,-432 192.57,-432 192.57,-432 198.57,-432 204.57,-438 204.57,-444 204.57,-444 204.57,-509.5 204.57,-509.5 204.57,-515.5 198.57,-521.5 192.57,-521.5"/>
<text xml:space="preserve" text-anchor="start" x="123.82" y="-501.2" font-family="Times,serif" font-weight="bold" font-size="14.00">Accelerating</text>
<text xml:space="preserve" text-anchor="start" x="123.82" y="-476" font-family="Times,serif" font-size="10.00">$&gt;()</text>
<text xml:space="preserve" text-anchor="start" x="123.82" y="-464.75" font-family="Times,serif" font-size="10.00">tick()</text>
<text xml:space="preserve" text-anchor="start" x="123.82" y="-453.5" font-family="Times,serif" font-size="10.00">status()</text>
<text xml:space="preserve" text-anchor="start" x="123.82" y="-442.25" font-family="Times,serif" font-size="10.00"> &#160;&#160;&#160;&#160;&#160;&#160;&#160;&#160;&#160;&#160;&#160;&#160;&#160;&#160;&#160;&#160;&#160;&#160;&#160;</text>
<polygon fill="#00688b" stroke="#00688b" points="115.82,-491 115.82,-491 204.57,-491 204.57,-491 115.82,-491"/>
<path fill="none" stroke="#00688b" d="M127.82,-432C127.82,-432 192.57,-432 192.57,-432 198.57,-432 204.57,-438 204.57,-444 204.57,-444 204.57,-509.5 204.57,-509.5 204.57,-515.5 198.57,-521.5 192.57,-521.5 192.57,-521.5 127.82,-521.5 127.82,-521.5 121.82,-521.5 115.82,-515.5 115.82,-509.5 115.82,-509.5 115.82,-444 115.82,-444 115.82,-438 121.82,-432 127.82,-432"/>
</g>
<!-- Idle&#45;&gt;Accelerating -->
<g id="edge2" class="edge">
<title>Idle&#45;&gt;Accelerating</title>
<path fill="none" stroke="red" d="M201.79,-47.65C261.5,-53.16 349.18,-71.81 392.2,-132 456.76,-222.33 432.62,-297.1 358.2,-379.5 313.35,-429.15 273.3,-399.37 214.45,-428.86"/>
<polygon fill="red" stroke="red" points="212.84,-425.75 205.77,-433.63 216.21,-431.88 212.84,-425.75"/>
<text xml:space="preserve" text-anchor="middle" x="455.39" y="-258.7" font-family="Times,serif" font-size="14.00"> move_to </text>
</g>
<!-- Stalled -->
<g id="node3" class="node">
<title>Stalled</title>
<path fill="azure" stroke="none" d="M370.82,-231.88C370.82,-231.88 271.57,-231.88 271.57,-231.88 265.57,-231.88 259.57,-225.88 259.57,-219.88 259.57,-219.88 259.57,-165.62 259.57,-165.62 259.57,-159.62 265.57,-153.62 271.57,-153.62 271.57,-153.62 370.82,-153.62 370.82,-153.62 376.82,-153.62 382.82,-159.62 382.82,-165.62 382.82,-165.62 382.82,-219.88 382.82,-219.88 382.82,-225.88 376.82,-231.88 370.82,-231.88"/>
<text xml:space="preserve" text-anchor="start" x="301.32" y="-211.57" font-family="Times,serif" font-weight="bold" font-size="14.00">Stalled</text>
<text xml:space="preserve" text-anchor="start" x="267.57" y="-186.38" font-family="Times,serif" font-size="10.00">move_to(target_steps: int)</text>
<text xml:space="preserve" text-anchor="start" x="267.57" y="-175.12" font-family="Times,serif" font-size="10.00">status()</text>
<text xml:space="preserve" text-anchor="start" x="307.7" y="-163.88" font-family="Times,serif" font-size="10.00"> &#160;&#160;&#160;&#160;&#160;&#160;&#160;&#160;&#160;&#160;&#160;</text>
<polygon fill="#00688b" stroke="#00688b" points="259.57,-201.38 259.57,-201.38 382.82,-201.38 382.82,-201.38 259.57,-201.38"/>
<path fill="none" stroke="#00688b" d="M271.57,-153.62C271.57,-153.62 370.82,-153.62 370.82,-153.62 376.82,-153.62 382.82,-159.62 382.82,-165.62 382.82,-165.62 382.82,-219.88 382.82,-219.88 382.82,-225.88 376.82,-231.88 370.82,-231.88 370.82,-231.88 271.57,-231.88 271.57,-231.88 265.57,-231.88 259.57,-225.88 259.57,-219.88 259.57,-219.88 259.57,-165.62 259.57,-165.62 259.57,-159.62 265.57,-153.62 271.57,-153.62"/>
</g>
<!-- Stalled&#45;&gt;Accelerating -->
<g id="edge9" class="edge">
<title>Stalled&#45;&gt;Accelerating</title>
<path fill="none" stroke="red" d="M318.2,-231.64C316.31,-244.75 313.22,-259.33 308.2,-272 285.58,-329.06 243.27,-384.81 209.66,-423.53"/>
<polygon fill="red" stroke="red" points="207.17,-421.05 203.19,-430.88 212.42,-425.68 207.17,-421.05"/>
<text xml:space="preserve" text-anchor="middle" x="326.88" y="-329.7" font-family="Times,serif" font-size="14.00"> move_to </text>
</g>
<!-- Active -->
<g id="node4" class="node">
<title>Active</title>
<ellipse fill="azure" stroke="#00688b" cx="243.2" cy="-476.75" rx="0.36" ry="0.36"/>
</g>
<!-- Motion -->
<g id="node5" class="node">
<title>Motion</title>
<ellipse fill="azure" stroke="#00688b" cx="227.2" cy="-334.75" rx="0.36" ry="0.36"/>
</g>
<!-- Motion&#45;&gt;Stalled -->
<g id="edge4" class="edge">
<title>Motion&#45;&gt;Stalled</title>
<path fill="none" stroke="red" d="M235.2,-242.7C239.8,-237.17 245.11,-232.17 250.79,-227.66"/>
<polygon fill="red" stroke="red" points="252.77,-230.54 258.79,-221.82 248.65,-224.88 252.77,-230.54"/>
<text xml:space="preserve" text-anchor="middle" x="267.32" y="-258.7" font-family="Times,serif" font-size="14.00"> stall_detected </text>
</g>
<!-- Decelerating -->
<g id="node8" class="node">
<title>Decelerating</title>
<path fill="azure" stroke="none" d="M172.57,-237.5C172.57,-237.5 107.82,-237.5 107.82,-237.5 101.82,-237.5 95.82,-231.5 95.82,-225.5 95.82,-225.5 95.82,-160 95.82,-160 95.82,-154 101.82,-148 107.82,-148 107.82,-148 172.57,-148 172.57,-148 178.57,-148 184.57,-154 184.57,-160 184.57,-160 184.57,-225.5 184.57,-225.5 184.57,-231.5 178.57,-237.5 172.57,-237.5"/>
<text xml:space="preserve" text-anchor="start" x="103.82" y="-217.2" font-family="Times,serif" font-weight="bold" font-size="14.00">Decelerating</text>
<text xml:space="preserve" text-anchor="start" x="103.82" y="-192" font-family="Times,serif" font-size="10.00">$&gt;()</text>
<text xml:space="preserve" text-anchor="start" x="103.82" y="-180.75" font-family="Times,serif" font-size="10.00">tick()</text>
<text xml:space="preserve" text-anchor="start" x="103.82" y="-169.5" font-family="Times,serif" font-size="10.00">status()</text>
<text xml:space="preserve" text-anchor="start" x="103.82" y="-158.25" font-family="Times,serif" font-size="10.00"> &#160;&#160;&#160;&#160;&#160;&#160;&#160;&#160;&#160;&#160;&#160;&#160;&#160;&#160;&#160;&#160;&#160;&#160;&#160;</text>
<polygon fill="#00688b" stroke="#00688b" points="95.82,-207 95.82,-207 184.57,-207 184.57,-207 95.82,-207"/>
<path fill="none" stroke="#00688b" d="M107.82,-148C107.82,-148 172.57,-148 172.57,-148 178.57,-148 184.57,-154 184.57,-160 184.57,-160 184.57,-225.5 184.57,-225.5 184.57,-231.5 178.57,-237.5 172.57,-237.5 172.57,-237.5 107.82,-237.5 107.82,-237.5 101.82,-237.5 95.82,-231.5 95.82,-225.5 95.82,-225.5 95.82,-160 95.82,-160 95.82,-154 101.82,-148 107.82,-148"/>
</g>
<!-- Motion&#45;&gt;Decelerating -->
<g id="edge3" class="edge">
<title>Motion&#45;&gt;Decelerating</title>
<path fill="none" stroke="red" d="M227.2,-333.67C227.16,-331.98 226.37,-304.75 213.2,-290 200.22,-275.46 186.82,-285.95 173.2,-272 166.46,-265.1 161.01,-256.62 156.63,-247.81"/>
<polygon fill="red" stroke="red" points="159.87,-246.48 152.59,-238.79 153.48,-249.34 159.87,-246.48"/>
<text xml:space="preserve" text-anchor="middle" x="188.2" y="-258.7" font-family="Times,serif" font-size="14.00"> stop </text>
</g>
<!-- Cruising -->
<g id="node7" class="node">
<title>Cruising</title>
<path fill="azure" stroke="none" d="M92.33,-379.5C92.33,-379.5 50.08,-379.5 50.08,-379.5 44.08,-379.5 38.08,-373.5 38.08,-367.5 38.08,-367.5 38.08,-302 38.08,-302 38.08,-296 44.08,-290 50.08,-290 50.08,-290 92.33,-290 92.33,-290 98.33,-290 104.33,-296 104.33,-302 104.33,-302 104.33,-367.5 104.33,-367.5 104.33,-373.5 98.33,-379.5 92.33,-379.5"/>
<text xml:space="preserve" text-anchor="start" x="46.08" y="-359.2" font-family="Times,serif" font-weight="bold" font-size="14.00">Cruising</text>
<text xml:space="preserve" text-anchor="start" x="46.08" y="-334" font-family="Times,serif" font-size="10.00">$&gt;()</text>
<text xml:space="preserve" text-anchor="start" x="46.08" y="-322.75" font-family="Times,serif" font-size="10.00">tick()</text>
<text xml:space="preserve" text-anchor="start" x="46.08" y="-311.5" font-family="Times,serif" font-size="10.00">status()</text>
<text xml:space="preserve" text-anchor="start" x="46.08" y="-300.25" font-family="Times,serif" font-size="10.00"> &#160;&#160;&#160;&#160;&#160;&#160;&#160;&#160;&#160;&#160;&#160;&#160;&#160;&#160;&#160;&#160;&#160;&#160;&#160;</text>
<polygon fill="#00688b" stroke="#00688b" points="38.08,-349 38.08,-349 104.33,-349 104.33,-349 38.08,-349"/>
<path fill="none" stroke="#00688b" d="M50.08,-290C50.08,-290 92.33,-290 92.33,-290 98.33,-290 104.33,-296 104.33,-302 104.33,-302 104.33,-367.5 104.33,-367.5 104.33,-373.5 98.33,-379.5 92.33,-379.5 92.33,-379.5 50.08,-379.5 50.08,-379.5 44.08,-379.5 38.08,-373.5 38.08,-367.5 38.08,-367.5 38.08,-302 38.08,-302 38.08,-296 44.08,-290 50.08,-290"/>
</g>
<!-- Accelerating&#45;&gt;Cruising -->
<g id="edge5" class="edge">
<title>Accelerating&#45;&gt;Cruising</title>
<path fill="none" stroke="red" d="M115.97,-450.13C102.99,-440.45 90.11,-428.27 81.95,-414 77.88,-406.88 75.12,-398.82 73.29,-390.64"/>
<polygon fill="red" stroke="red" points="76.77,-390.22 71.59,-380.98 69.88,-391.44 76.77,-390.22"/>
<text xml:space="preserve" text-anchor="middle" x="108.58" y="-400.7" font-family="Times,serif" font-size="14.00"> at cruise </text>
</g>
<!-- Accelerating&#45;&gt;Decelerating -->
<g id="edge6" class="edge">
<title>Accelerating&#45;&gt;Decelerating</title>
<path fill="none" stroke="red" d="M154.61,-432.21C152.66,-415.72 150.6,-396.77 149.2,-379.5 145.62,-335.46 143.3,-285.43 141.91,-248.39"/>
<polygon fill="red" stroke="red" points="145.42,-248.72 141.56,-238.85 138.43,-248.97 145.42,-248.72"/>
<text xml:space="preserve" text-anchor="middle" x="183.7" y="-329.7" font-family="Times,serif" font-size="14.00"> short move </text>
</g>
<!-- Cruising&#45;&gt;Decelerating -->
<g id="edge7" class="edge">
<title>Cruising&#45;&gt;Decelerating</title>
<path fill="none" stroke="red" d="M60.36,-290.08C59.47,-278.41 60.46,-266.1 65.45,-255.5 70.5,-244.77 78.44,-235.26 87.29,-227.13"/>
<polygon fill="red" stroke="red" points="89.47,-229.87 94.84,-220.73 84.95,-224.53 89.47,-229.87"/>
<text xml:space="preserve" text-anchor="middle" x="100.33" y="-258.7" font-family="Times,serif" font-size="14.00"> begin decel </text>
</g>
<!-- Decelerating&#45;&gt;Idle -->
<g id="edge8" class="edge">
<title>Decelerating&#45;&gt;Idle</title>
<path fill="none" stroke="red" d="M140.2,-148.34C140.2,-133.39 140.2,-116.45 140.2,-100.71"/>
<polygon fill="red" stroke="red" points="143.7,-101.01 140.2,-91.01 136.7,-101.01 143.7,-101.01"/>
<text xml:space="preserve" text-anchor="middle" x="154.07" y="-110.7" font-family="Times,serif" font-size="14.00"> tick </text>
</g>
</g>
</svg>
