<?xml version="1.0" encoding="UTF-8" standalone="no"?>
<!DOCTYPE svg PUBLIC "-//W3C//DTD SVG 1.1//EN"
 "http://www.w3.org/Graphics/SVG/1.1/DTD/svg11.dtd">
<!-- Generated by graphviz version 14.1.5 (20260411.2331)
 -->
<!-- Title: ServoHoming Pages: 1 -->
<svg width="225pt" height="806pt"
 viewBox="0.00 0.00 225.00 806.00" xmlns="http://www.w3.org/2000/svg" xmlns:xlink="http://www.w3.org/1999/xlink">
<g id="graph0" class="graph" transform="scale(1 1) rotate(0) translate(4 801.9)">
<title>ServoHoming</title>
<polygon fill="white" stroke="none" points="-4,4 -4,-801.9 221,-801.9 221,4 -4,4"/>
<g id="clust1" class="cluster">
<title>cluster_Active</title>
<path fill="none" stroke="black" d="M20,-120.75C20,-120.75 197,-120.75 197,-120.75 203,-120.75 209,-126.75 209,-132.75 209,-132.75 209,-613.75 209,-613.75 209,-619.75 203,-625.75 197,-625.75 197,-625.75 20,-625.75 20,-625.75 14,-625.75 8,-619.75 8,-613.75 8,-613.75 8,-132.75 8,-132.75 8,-126.75 14,-120.75 20,-120.75"/>
<text xml:space="preserve" text-anchor="start" x="90.5" y="-605" font-family="Times,serif" font-size="14.00">Active</text>
<polygon fill="black" stroke="black" points="86.5,-598.25 86.5,-598.25 130.5,-598.25 130.5,-598.25 86.5,-598.25"/>
</g>
<g id="clust2" class="cluster">
<title>cluster_Homing</title>
<path fill="none" stroke="black" d="M28,-128.75C28,-128.75 178,-128.75 178,-128.75 184,-128.75 190,-134.75 190,-140.75 190,-140.75 190,-567.25 190,-567.25 190,-573.25 184,-579.25 178,-579.25 178,-579.25 28,-579.25 28,-579.25 22,-579.25 16,-573.25 16,-567.25 16,-567.25 16,-140.75 16,-140.75 16,-134.75 22,-128.75 28,-128.75"/>
<text xml:space="preserve" text-anchor="start" x="80.5" y="-558.5" font-family="Times,serif" font-size="14.00">Homing</text>
<polygon fill="black" stroke="black" points="76.5,-551.75 76.5,-551.75 129.5,-551.75 129.5,-551.75 76.5,-551.75"/>
</g>
<!-- Entry -->
<g id="node1" class="node">
<title>Entry</title>
<ellipse fill="black" stroke="#00688b" cx="60" cy="-790.7" rx="7.2" ry="7.2"/>
</g>
<!-- Unhomed -->
<g id="node2" class="node">
<title>Unhomed</title>
<path fill="azure" stroke="none" d="M84.5,-746.5C84.5,-746.5 35.5,-746.5 35.5,-746.5 29.5,-746.5 23.5,-740.5 23.5,-734.5 23.5,-734.5 23.5,-680.25 23.5,-680.25 23.5,-674.25 29.5,-668.25 35.5,-668.25 35.5,-668.25 84.5,-668.25 84.5,-668.25 90.5,-668.25 96.5,-674.25 96.5,-680.25 96.5,-680.25 96.5,-734.5 96.5,-734.5 96.5,-740.5 90.5,-746.5 84.5,-746.5"/>
<text xml:space="preserve" text-anchor="start" x="31.5" y="-726.2" font-family="Times,serif" font-weight="bold" font-size="14.00">Unhomed</text>
<text xml:space="preserve" text-anchor="start" x="31.5" y="-701" font-family="Times,serif" font-size="10.00">home()</text>
<text xml:space="preserve" text-anchor="start" x="31.5" y="-689.75" font-family="Times,serif" font-size="10.00">status()</text>
<text xml:space="preserve" text-anchor="start" x="32.62" y="-678.5" font-family="Times,serif" font-size="10.00"> &#160;&#160;&#160;&#160;&#160;&#160;&#160;&#160;&#160;&#160;&#160;</text>
<polygon fill="#00688b" stroke="#00688b" points="23.5,-716 23.5,-716 96.5,-716 96.5,-716 23.5,-716"/>
<path fill="none" stroke="#00688b" d="M35.5,-668.25C35.5,-668.25 84.5,-668.25 84.5,-668.25 90.5,-668.25 96.5,-674.25 96.5,-680.25 96.5,-680.25 96.5,-734.5 96.5,-734.5 96.5,-740.5 90.5,-746.5 84.5,-746.5 84.5,-746.5 35.5,-746.5 35.5,-746.5 29.5,-746.5 23.5,-740.5 23.5,-734.5 23.5,-734.5 23.5,-680.25 23.5,-680.25 23.5,-674.25 29.5,-668.25 35.5,-668.25"/>
</g>
<!-- Entry&#45;&gt;Unhomed -->
<g id="edge1" class="edge">
<title>Entry&#45;&gt;Unhomed</title>
<path fill="none" stroke="red" d="M60,-783.04C60,-777.03 60,-767.57 60,-757.38"/>
<polygon fill="red" stroke="red" points="63.5,-757.69 60,-747.69 56.5,-757.69 63.5,-757.69"/>
</g>
<!-- SeekingLimit -->
<g id="node7" class="node">
<title>SeekingLimit</title>
<path fill="azure" stroke="none" d="M106,-532.75C106,-532.75 36,-532.75 36,-532.75 30,-532.75 24,-526.75 24,-520.75 24,-520.75 24,-444 24,-444 24,-438 30,-432 36,-432 36,-432 106,-432 106,-432 112,-432 118,-438 118,-444 118,-444 118,-520.75 118,-520.75 118,-526.75 112,-532.75 106,-532.75"/>
<text xml:space="preserve" text-anchor="start" x="32" y="-512.45" font-family="Times,serif" font-weight="bold" font-size="14.00">SeekingLimit</text>
<text xml:space="preserve" text-anchor="start" x="32" y="-487.25" font-family="Times,serif" font-size="10.00">$&gt;()</text>
<text xml:space="preserve" text-anchor="start" x="32" y="-476" font-family="Times,serif" font-size="10.00">tick()</text>
<text xml:space="preserve" text-anchor="start" x="32" y="-464.75" font-family="Times,serif" font-size="10.00">limit_hit()</text>
<text xml:space="preserve" text-anchor="start" x="32" y="-453.5" font-family="Times,serif" font-size="10.00">status()</text>
<text xml:space="preserve" text-anchor="start" x="32" y="-442.25" font-family="Times,serif" font-size="10.00"> &#160;&#160;&#160;&#160;&#160;&#160;&#160;&#160;&#160;&#160;&#160;&#160;&#160;&#160;&#160;&#160;&#160;&#160;&#160;</text>
<polygon fill="#00688b" stroke="#00688b" points="24,-502.25 24,-502.25 118,-502.25 118,-502.25 24,-502.25"/>
<path fill="none" stroke="#00688b" d="M36,-432C36,-432 106,-432 106,-432 112,-432 118,-438 118,-444 118,-444 118,-520.75 118,-520.75 118,-526.75 112,-532.75 106,-532.75 106,-532.75 36,-532.75 36,-532.75 30,-532.75 24,-526.75 24,-520.75 24,-520.75 24,-444 24,-444 24,-438 30,-432 36,-432"/>
</g>
<!-- Unhomed&#45;&gt;SeekingLimit -->
<g id="edge2" class="edge">
<title>Unhomed&#45;&gt;SeekingLimit</title>
<path fill="none" stroke="red" d="M59.98,-668.3C60.09,-657.16 60.31,-644.96 60.75,-633.75 61.91,-604.12 64.05,-571.26 66.08,-543.83"/>
<polygon fill="red" stroke="red" points="69.56,-544.18 66.82,-533.95 62.58,-543.66 69.56,-544.18"/>
<text xml:space="preserve" text-anchor="middle" x="79.88" y="-636.95" font-family="Times,serif" font-size="14.00"> home </text>
</g>
<!-- Homed -->
<g id="node3" class="node">
<title>Homed</title>
<path fill="azure" stroke="none" d="M125.75,-78.25C125.75,-78.25 90.25,-78.25 90.25,-78.25 84.25,-78.25 78.25,-72.25 78.25,-66.25 78.25,-66.25 78.25,-12 78.25,-12 78.25,-6 84.25,0 90.25,0 90.25,0 125.75,0 125.75,0 131.75,0 137.75,-6 137.75,-12 137.75,-12 137.75,-66.25 137.75,-66.25 137.75,-72.25 131.75,-78.25 125.75,-78.25"/>
<text xml:space="preserve" text-anchor="start" x="86.25" y="-57.95" font-family="Times,serif" font-weight="bold" font-size="14.00">Homed</text>
<text xml:space="preserve" text-anchor="start" x="86.25" y="-32.75" font-family="Times,serif" font-size="10.00">home()</text>
<text xml:space="preserve" text-anchor="start" x="86.25" y="-21.5" font-family="Times,serif" font-size="10.00">status()</text>
<text xml:space="preserve" text-anchor="start" x="87.38" y="-10.25" font-family="Times,serif" font-size="10.00"> &#160;&#160;&#160;&#160;&#160;&#160;&#160;&#160;&#160;&#160;&#160;</text>
<polygon fill="#00688b" stroke="#00688b" points="78.25,-47.75 78.25,-47.75 137.75,-47.75 137.75,-47.75 78.25,-47.75"/>
<path fill="none" stroke="#00688b" d="M90.25,0C90.25,0 125.75,0 125.75,0 131.75,0 137.75,-6 137.75,-12 137.75,-12 137.75,-66.25 137.75,-66.25 137.75,-72.25 131.75,-78.25 125.75,-78.25 125.75,-78.25 90.25,-78.25 90.25,-78.25 84.25,-78.25 78.25,-72.25 78.25,-66.25 78.25,-66.25 78.25,-12 78.25,-12 78.25,-6 84.25,0 90.25,0"/>
</g>
<!-- Homed&#45;&gt;SeekingLimit -->
<g id="edge8" class="edge">
<title>Homed&#45;&gt;SeekingLimit</title>
<path fill="none" stroke="red" d="M131.43,-78.07C134.13,-83.97 136.47,-90.14 138,-96.25 139.78,-103.36 138.1,-105.42 138,-112.75 136.22,-246.67 178.79,-289.27 130,-414 128.36,-418.2 126.33,-422.31 124.03,-426.3"/>
<polygon fill="red" stroke="red" points="121.1,-424.37 118.62,-434.67 126.98,-428.17 121.1,-424.37"/>
<text xml:space="preserve" text-anchor="middle" x="171.14" y="-258.7" font-family="Times,serif" font-size="14.00"> home </text>
</g>
<!-- Fault -->
<g id="node4" class="node">
<title>Fault</title>
<path fill="azure" stroke="none" d="M177,-746.5C177,-746.5 147,-746.5 147,-746.5 141,-746.5 135,-740.5 135,-734.5 135,-734.5 135,-680.25 135,-680.25 135,-674.25 141,-668.25 147,-668.25 147,-668.25 177,-668.25 177,-668.25 183,-668.25 189,-674.25 189,-680.25 189,-680.25 189,-734.5 189,-734.5 189,-740.5 183,-746.5 177,-746.5"/>
<text xml:space="preserve" text-anchor="start" x="146.62" y="-726.2" font-family="Times,serif" font-weight="bold" font-size="14.00">Fault</text>
<text xml:space="preserve" text-anchor="start" x="146.62" y="-701" font-family="Times,serif" font-size="10.00">home()</text>
<text xml:space="preserve" text-anchor="start" x="146.62" y="-689.75" font-family="Times,serif" font-size="10.00">status()</text>
<text xml:space="preserve" text-anchor="start" x="147.75" y="-678.5" font-family="Times,serif" font-size="10.00"> &#160;&#160;&#160;&#160;&#160;&#160;&#160;&#160;&#160;&#160;&#160;</text>
<polygon fill="#00688b" stroke="#00688b" points="138.62,-716 138.62,-716 185.38,-716 185.38,-716 138.62,-716"/>
<path fill="none" stroke="#00688b" d="M150.62,-668.25C150.62,-668.25 173.38,-668.25 173.38,-668.25 179.38,-668.25 185.38,-674.25 185.38,-680.25 185.38,-680.25 185.38,-734.5 185.38,-734.5 185.38,-740.5 179.38,-746.5 173.38,-746.5 173.38,-746.5 150.62,-746.5 150.62,-746.5 144.62,-746.5 138.62,-740.5 138.62,-734.5 138.62,-734.5 138.62,-680.25 138.62,-680.25 138.62,-674.25 144.62,-668.25 150.62,-668.25"/>
</g>
<!-- Fault&#45;&gt;SeekingLimit -->
<g id="edge9" class="edge">
<title>Fault&#45;&gt;SeekingLimit</title>
<path fill="none" stroke="red" d="M137.27,-668.35C133.85,-662.41 130.56,-656.25 127.75,-650.25 111.66,-615.89 97.85,-575.67 87.88,-543.32"/>
<polygon fill="red" stroke="red" points="91.34,-542.68 85.08,-534.13 84.64,-544.71 91.34,-542.68"/>
<text xml:space="preserve" text-anchor="middle" x="146.88" y="-636.95" font-family="Times,serif" font-size="14.00"> home </text>
</g>
<!-- Active -->
<g id="node5" class="node">
<title>Active</title>
<ellipse fill="azure" stroke="#00688b" cx="201" cy="-482.38" rx="0.36" ry="0.36"/>
</g>
<!-- Homing -->
<g id="node6" class="node">
<title>Homing</title>
<ellipse fill="azure" stroke="#00688b" cx="182" cy="-482.38" rx="0.36" ry="0.36"/>
</g>
<!-- Homing&#45;&gt;Fault -->
<g id="edge3" class="edge">
<title>Homing&#45;&gt;Fault</title>
<path fill="none" stroke="red" d="M176.89,-579.25C175.79,-594.81 174.5,-610.74 173,-625.75 171.99,-635.86 170.68,-646.66 169.32,-656.95"/>
<polygon fill="red" stroke="red" points="165.86,-656.42 167.98,-666.8 172.8,-657.36 165.86,-656.42"/>
<text xml:space="preserve" text-anchor="middle" x="188.2" y="-636.95" font-family="Times,serif" font-size="14.00"> fault </text>
</g>
<!-- SeekingLimit&#45;&gt;SeekingLimit -->
<g id="edge4" class="edge">
<title>SeekingLimit&#45;&gt;SeekingLimit</title>
<path fill="none" stroke="red" d="M117.74,-496.39C128.29,-495.13 136,-490.46 136,-482.38 136,-477.45 133.14,-473.79 128.51,-471.4"/>
<polygon fill="red" stroke="red" points="129.77,-468.12 119.2,-468.77 127.87,-474.86 129.77,-468.12"/>
<text xml:space="preserve" text-anchor="middle" x="149.88" y="-477.32" font-family="Times,serif" font-size="14.00"> tick </text>
</g>
<!-- BackingOff -->
<g id="node8" class="node">
<title>BackingOff</title>
<path fill="azure" stroke="none" d="M100.75,-379.5C100.75,-379.5 41.25,-379.5 41.25,-379.5 35.25,-379.5 29.25,-373.5 29.25,-367.5 29.25,-367.5 29.25,-302 29.25,-302 29.25,-296 35.25,-290 41.25,-290 41.25,-290 100.75,-290 100.75,-290 106.75,-290 112.75,-296 112.75,-302 112.75,-302 112.75,-367.5 112.75,-367.5 112.75,-373.5 106.75,-379.5 100.75,-379.5"/>
<text xml:space="preserve" text-anchor="start" x="37.25" y="-359.2" font-family="Times,serif" font-weight="bold" font-size="14.00">BackingOff</text>
<text xml:space="preserve" text-anchor="start" x="37.25" y="-334" font-family="Times,serif" font-size="10.00">$&gt;()</text>
<text xml:space="preserve" text-anchor="start" x="37.25" y="-322.75" font-family="Times,serif" font-size="10.00">tick()</text>
<text xml:space="preserve" text-anchor="start" x="37.25" y="-311.5" font-family="Times,serif" font-size="10.00">status()</text>
<text xml:space="preserve" text-anchor="start" x="37.25" y="-300.25" font-family="Times,serif" font-size="10.00"> &#160;&#160;&#160;&#160;&#160;&#160;&#160;&#160;&#160;&#160;&#160;&#160;&#160;&#160;&#160;&#160;&#160;&#160;&#160;</text>
<polygon fill="#00688b" stroke="#00688b" points="29.25,-349 29.25,-349 112.75,-349 112.75,-349 29.25,-349"/>
<path fill="none" stroke="#00688b" d="M41.25,-290C41.25,-290 100.75,-290 100.75,-290 106.75,-290 112.75,-296 112.75,-302 112.75,-302 112.75,-367.5 112.75,-367.5 112.75,-373.5 106.75,-379.5 100.75,-379.5 100.75,-379.5 41.25,-379.5 41.25,-379.5 35.25,-379.5 29.25,-373.5 29.25,-367.5 29.25,-367.5 29.25,-302 29.25,-302 29.25,-296 35.25,-290 41.25,-290"/>
</g>
<!-- SeekingLimit&#45;&gt;BackingOff -->
<g id="edge5" class="edge">
<title>SeekingLimit&#45;&gt;BackingOff</title>
<path fill="none" stroke="red" d="M71,-432.07C71,-418.66 71,-404.06 71,-390.38"/>
<polygon fill="red" stroke="red" points="74.5,-390.66 71,-380.66 67.5,-390.66 74.5,-390.66"/>
<text xml:space="preserve" text-anchor="middle" x="98.38" y="-400.7" font-family="Times,serif" font-size="14.00"> limit_hit </text>
</g>
<!-- FindingIndex -->
<g id="node9" class="node">
<title>FindingIndex</title>
<path fill="azure" stroke="none" d="M106,-237.5C106,-237.5 36,-237.5 36,-237.5 30,-237.5 24,-231.5 24,-225.5 24,-225.5 24,-148.75 24,-148.75 24,-142.75 30,-136.75 36,-136.75 36,-136.75 106,-136.75 106,-136.75 112,-136.75 118,-142.75 118,-148.75 118,-148.75 118,-225.5 118,-225.5 118,-231.5 112,-237.5 106,-237.5"/>
<text xml:space="preserve" text-anchor="start" x="32" y="-217.2" font-family="Times,serif" font-weight="bold" font-size="14.00">FindingIndex</text>
<text xml:space="preserve" text-anchor="start" x="32" y="-192" font-family="Times,serif" font-size="10.00">$&gt;()</text>
<text xml:space="preserve" text-anchor="start" x="32" y="-180.75" font-family="Times,serif" font-size="10.00">tick()</text>
<text xml:space="preserve" text-anchor="start" x="32" y="-169.5" font-family="Times,serif" font-size="10.00">index_pulse()</text>
<text xml:space="preserve" text-anchor="start" x="32" y="-158.25" font-family="Times,serif" font-size="10.00">status()</text>
<text xml:space="preserve" text-anchor="start" x="37.62" y="-147" font-family="Times,serif" font-size="10.00"> &#160;&#160;&#160;&#160;&#160;&#160;&#160;&#160;&#160;&#160;&#160;&#160;&#160;&#160;&#160;&#160;&#160;&#160;&#160;</text>
<polygon fill="#00688b" stroke="#00688b" points="24,-207 24,-207 118,-207 118,-207 24,-207"/>
<path fill="none" stroke="#00688b" d="M36,-136.75C36,-136.75 106,-136.75 106,-136.75 112,-136.75 118,-142.75 118,-148.75 118,-148.75 118,-225.5 118,-225.5 118,-231.5 112,-237.5 106,-237.5 106,-237.5 36,-237.5 36,-237.5 30,-237.5 24,-231.5 24,-225.5 24,-225.5 24,-148.75 24,-148.75 24,-142.75 30,-136.75 36,-136.75"/>
</g>
<!-- BackingOff&#45;&gt;FindingIndex -->
<g id="edge6" class="edge">
<title>BackingOff&#45;&gt;FindingIndex</title>
<path fill="none" stroke="red" d="M71,-290.06C71,-277.1 71,-262.67 71,-248.83"/>
<polygon fill="red" stroke="red" points="74.5,-248.91 71,-238.91 67.5,-248.91 74.5,-248.91"/>
<text xml:space="preserve" text-anchor="middle" x="84.88" y="-258.7" font-family="Times,serif" font-size="14.00"> tick </text>
</g>
<!-- FindingIndex&#45;&gt;Homed -->
<g id="edge7" class="edge">
<title>FindingIndex&#45;&gt;Homed</title>
<path fill="none" stroke="red" d="M61.1,-137.19C60.17,-123.65 60.9,-109.14 65.25,-96.25 66.97,-91.15 69.36,-86.15 72.14,-81.36"/>
<polygon fill="red" stroke="red" points="74.97,-83.43 77.47,-73.14 69.09,-79.62 74.97,-83.43"/>
<text xml:space="preserve" text-anchor="middle" x="101.62" y="-99.45" font-family="Times,serif" font-size="14.00"> index_pulse </text>
</g>
</g>
</svg>
