<?xml version="1.0" encoding="UTF-8" standalone="no"?>
<!DOCTYPE svg PUBLIC "-//W3C//DTD SVG 1.1//EN"
 "http://www.w3.org/Graphics/SVG/1.1/DTD/svg11.dtd">
<!-- Generated by graphviz version 14.1.5 (20260411.2331)
 -->
<!-- Title: QuadratureDecoder Pages: 1 -->
<svg width="232pt" height="485pt"
 viewBox="0.00 0.00 232.00 485.00" xmlns="http://www.w3.org/2000/svg" xmlns:xlink="http://www.w3.org/1999/xlink">
<g id="graph0" class="graph" transform="scale(1 1) rotate(0) translate(4 480.9)">
<title>QuadratureDecoder</title>
<polygon fill="white" stroke="none" points="-4,4 -4,-480.9 228.27,-480.9 228.27,4 -4,4"/>
<!-- Entry -->
<g id="node1" class="node">
<title>Entry</title>
<ellipse fill="black" stroke="#00688b" cx="116" cy="-469.7" rx="7.2" ry="7.2"/>
</g>
<!-- S00 -->
<g id="node2" class="node">
<title>S00</title>
<path fill="azure" stroke="none" d="M151,-425.5C151,-425.5 81,-425.5 81,-425.5 75,-425.5 69,-419.5 69,-413.5 69,-413.5 69,-370.5 69,-370.5 69,-364.5 75,-358.5 81,-358.5 81,-358.5 151,-358.5 151,-358.5 157,-358.5 163,-364.5 163,-370.5 163,-370.5 163,-413.5 163,-413.5 163,-419.5 157,-425.5 151,-425.5"/>
<text xml:space="preserve" text-anchor="start" x="105.5" y="-405.2" font-family="Times,serif" font-weight="bold" font-size="14.00">S00</text>
<text xml:space="preserve" text-anchor="start" x="77" y="-380" font-family="Times,serif" font-size="10.00">signal(a: int, b: int)</text>
<text xml:space="preserve" text-anchor="start" x="102.5" y="-368.75" font-family="Times,serif" font-size="10.00"> &#160;&#160;&#160;&#160;&#160;&#160;&#160;&#160;&#160;&#160;&#160;</text>
<polygon fill="#00688b" stroke="#00688b" points="69,-395 69,-395 163,-395 163,-395 69,-395"/>
<path fill="none" stroke="#00688b" d="M81,-358.5C81,-358.5 151,-358.5 151,-358.5 157,-358.5 163,-364.5 163,-370.5 163,-370.5 163,-413.5 163,-413.5 163,-419.5 157,-425.5 151,-425.5 151,-425.5 81,-425.5 81,-425.5 75,-425.5 69,-419.5 69,-413.5 69,-413.5 69,-370.5 69,-370.5 69,-364.5 75,-358.5 81,-358.5"/>
</g>
<!-- Entry&#45;&gt;S00 -->
<g id="edge1" class="edge">
<title>Entry&#45;&gt;S00</title>
<path fill="none" stroke="red" d="M116,-462.25C116,-456.27 116,-446.82 116,-436.8"/>
<polygon fill="red" stroke="red" points="119.5,-436.91 116,-426.91 112.5,-436.91 119.5,-436.91"/>
</g>
<!-- S10 -->
<g id="node3" class="node">
<title>S10</title>
<path fill="azure" stroke="none" d="M82,-306C82,-306 12,-306 12,-306 6,-306 0,-300 0,-294 0,-294 0,-251 0,-251 0,-245 6,-239 12,-239 12,-239 82,-239 82,-239 88,-239 94,-245 94,-251 94,-251 94,-294 94,-294 94,-300 88,-306 82,-306"/>
<text xml:space="preserve" text-anchor="start" x="36.5" y="-285.7" font-family="Times,serif" font-weight="bold" font-size="14.00">S10</text>
<text xml:space="preserve" text-anchor="start" x="8" y="-260.5" font-family="Times,serif" font-size="10.00">signal(a: int, b: int)</text>
<text xml:space="preserve" text-anchor="start" x="33.5" y="-249.25" font-family="Times,serif" font-size="10.00"> &#160;&#160;&#160;&#160;&#160;&#160;&#160;&#160;&#160;&#160;&#160;</text>
<polygon fill="#00688b" stroke="#00688b" points="0,-275.5 0,-275.5 94,-275.5 94,-275.5 0,-275.5"/>
<path fill="none" stroke="#00688b" d="M12,-239C12,-239 82,-239 82,-239 88,-239 94,-245 94,-251 94,-251 94,-294 94,-294 94,-300 88,-306 82,-306 82,-306 12,-306 12,-306 6,-306 0,-300 0,-294 0,-294 0,-251 0,-251 0,-245 6,-239 12,-239"/>
</g>
<!-- S00&#45;&gt;S10 -->
<g id="edge2" class="edge">
<title>S00&#45;&gt;S10</title>
<path fill="none" stroke="red" d="M69.09,-375.59C52.9,-367.76 36.52,-356.44 27.25,-340.5 23.02,-333.22 22.53,-324.96 24.08,-316.79"/>
<polygon fill="red" stroke="red" points="27.42,-317.83 26.85,-307.25 20.7,-315.87 27.42,-317.83"/>
<text xml:space="preserve" text-anchor="middle" x="47.12" y="-327.2" font-family="Times,serif" font-size="14.00"> signal </text>
</g>
<!-- S01 -->
<g id="node5" class="node">
<title>S01</title>
<path fill="azure" stroke="none" d="M151,-67C151,-67 81,-67 81,-67 75,-67 69,-61 69,-55 69,-55 69,-12 69,-12 69,-6 75,0 81,0 81,0 151,0 151,0 157,0 163,-6 163,-12 163,-12 163,-55 163,-55 163,-61 157,-67 151,-67"/>
<text xml:space="preserve" text-anchor="start" x="105.5" y="-46.7" font-family="Times,serif" font-weight="bold" font-size="14.00">S01</text>
<text xml:space="preserve" text-anchor="start" x="77" y="-21.5" font-family="Times,serif" font-size="10.00">signal(a: int, b: int)</text>
<text xml:space="preserve" text-anchor="start" x="102.5" y="-10.25" font-family="Times,serif" font-size="10.00"> &#160;&#160;&#160;&#160;&#160;&#160;&#160;&#160;&#160;&#160;&#160;</text>
<polygon fill="#00688b" stroke="#00688b" points="69,-36.5 69,-36.5 163,-36.5 163,-36.5 69,-36.5"/>
<path fill="none" stroke="#00688b" d="M81,0C81,0 151,0 151,0 157,0 163,-6 163,-12 163,-12 163,-55 163,-55 163,-61 157,-67 151,-67 151,-67 81,-67 81,-67 75,-67 69,-61 69,-55 69,-55 69,-12 69,-12 69,-6 75,0 81,0"/>
</g>
<!-- S00&#45;&gt;S01 -->
<g id="edge3" class="edge">
<title>S00&#45;&gt;S01</title>
<path fill="none" stroke="red" d="M125.61,-358.63C127.02,-352.66 128.25,-346.43 129,-340.5 143.27,-227.84 143.27,-197.66 129,-85 128.71,-82.68 128.34,-80.32 127.92,-77.95"/>
<polygon fill="red" stroke="red" points="131.39,-77.42 125.92,-68.35 124.53,-78.85 131.39,-77.42"/>
<text xml:space="preserve" text-anchor="middle" x="159.58" y="-207.7" font-family="Times,serif" font-size="14.00"> signal </text>
</g>
<!-- S10&#45;&gt;S00 -->
<g id="edge5" class="edge">
<title>S10&#45;&gt;S00</title>
<path fill="none" stroke="red" d="M65.98,-305.81C73.81,-319.16 83,-334.8 91.34,-349.01"/>
<polygon fill="red" stroke="red" points="88.11,-350.43 96.2,-357.28 94.15,-346.88 88.11,-350.43"/>
<text xml:space="preserve" text-anchor="middle" x="105.51" y="-327.2" font-family="Times,serif" font-size="14.00"> signal </text>
</g>
<!-- S11 -->
<g id="node4" class="node">
<title>S11</title>
<path fill="azure" stroke="none" d="M82,-186.5C82,-186.5 12,-186.5 12,-186.5 6,-186.5 0,-180.5 0,-174.5 0,-174.5 0,-131.5 0,-131.5 0,-125.5 6,-119.5 12,-119.5 12,-119.5 82,-119.5 82,-119.5 88,-119.5 94,-125.5 94,-131.5 94,-131.5 94,-174.5 94,-174.5 94,-180.5 88,-186.5 82,-186.5"/>
<text xml:space="preserve" text-anchor="start" x="36.5" y="-166.2" font-family="Times,serif" font-weight="bold" font-size="14.00">S11</text>
<text xml:space="preserve" text-anchor="start" x="8" y="-141" font-family="Times,serif" font-size="10.00">signal(a: int, b: int)</text>
<text xml:space="preserve" text-anchor="start" x="33.5" y="-129.75" font-family="Times,serif" font-size="10.00"> &#160;&#160;&#160;&#160;&#160;&#160;&#160;&#160;&#160;&#160;&#160;</text>
<polygon fill="#00688b" stroke="#00688b" points="0,-156 0,-156 94,-156 94,-156 0,-156"/>
<path fill="none" stroke="#00688b" d="M12,-119.5C12,-119.5 82,-119.5 82,-119.5 88,-119.5 94,-125.5 94,-131.5 94,-131.5 94,-174.5 94,-174.5 94,-180.5 88,-186.5 82,-186.5 82,-186.5 12,-186.5 12,-186.5 6,-186.5 0,-180.5 0,-174.5 0,-174.5 0,-131.5 0,-131.5 0,-125.5 6,-119.5 12,-119.5"/>
</g>
<!-- S10&#45;&gt;S11 -->
<g id="edge4" class="edge">
<title>S10&#45;&gt;S11</title>
<path fill="none" stroke="red" d="M12.42,-239C8.27,-233.42 4.66,-227.35 2.25,-221 -0.96,-212.54 0.31,-204.08 4,-196.15"/>
<polygon fill="red" stroke="red" points="6.9,-198.12 9.04,-187.74 0.9,-194.53 6.9,-198.12"/>
<text xml:space="preserve" text-anchor="middle" x="22.12" y="-207.7" font-family="Times,serif" font-size="14.00"> signal </text>
</g>
<!-- S11&#45;&gt;S10 -->
<g id="edge7" class="edge">
<title>S11&#45;&gt;S10</title>
<path fill="none" stroke="red" d="M47,-186.31C47,-199.14 47,-214.1 47,-227.87"/>
<polygon fill="red" stroke="red" points="43.5,-227.57 47,-237.57 50.5,-227.57 43.5,-227.57"/>
<text xml:space="preserve" text-anchor="middle" x="66.88" y="-207.7" font-family="Times,serif" font-size="14.00"> signal </text>
</g>
<!-- S11&#45;&gt;S01 -->
<g id="edge6" class="edge">
<title>S11&#45;&gt;S01</title>
<path fill="none" stroke="red" d="M27.28,-119.7C22.87,-108.25 21.09,-95.59 27.25,-85 34.64,-72.3 46.54,-62.53 59.26,-55.12"/>
<polygon fill="red" stroke="red" points="60.56,-58.4 67.76,-50.62 57.28,-52.21 60.56,-58.4"/>
<text xml:space="preserve" text-anchor="middle" x="47.12" y="-88.2" font-family="Times,serif" font-size="14.00"> signal </text>
</g>
<!-- S01&#45;&gt;S00 -->
<g id="edge8" class="edge">
<title>S01&#45;&gt;S00</title>
<path fill="none" stroke="red" d="M135.16,-66.91C138.31,-72.83 141.4,-79.03 144,-85 166.31,-136.22 174.22,-149.33 183,-204.5 191.21,-256.12 166.08,-312.15 144.29,-349.18"/>
<polygon fill="red" stroke="red" points="141.53,-346.98 139.34,-357.35 147.52,-350.61 141.53,-346.98"/>
<text xml:space="preserve" text-anchor="middle" x="204.39" y="-207.7" font-family="Times,serif" font-size="14.00"> signal </text>
</g>
<!-- S01&#45;&gt;S11 -->
<g id="edge9" class="edge">
<title>S01&#45;&gt;S11</title>
<path fill="none" stroke="red" d="M97.02,-66.81C89.19,-80.16 80,-95.8 71.66,-110.01"/>
<polygon fill="red" stroke="red" points="68.85,-107.88 66.8,-118.28 74.89,-111.43 68.85,-107.88"/>
<text xml:space="preserve" text-anchor="middle" x="105.51" y="-88.2" font-family="Times,serif" font-size="14.00"> signal </text>
</g>
</g>
</svg>
