<?xml version="1.0" encoding="UTF-8" standalone="no"?>
<!DOCTYPE svg PUBLIC "-//W3C//DTD SVG 1.1//EN"
 "http://www.w3.org/Graphics/SVG/1.1/DTD/svg11.dtd">
<!-- Generated by graphviz version 14.1.5 (20260411.2331)
 -->
<!-- Title: PidSupervisor Pages: 1 -->
<svg width="593pt" height="580pt"
 viewBox="0.00 0.00 593.00 580.00" xmlns="http://www.w3.org/2000/svg" xmlns:xlink="http://www.w3.org/1999/xlink">
<g id="graph0" class="graph" transform="scale(1 1) rotate(0) translate(4 575.56)">
<title>PidSupervisor</title>
<polygon fill="white" stroke="none" points="-4,4 -4,-575.56 589.12,-575.56 589.12,4 -4,4"/>
<g id="clust1" class="cluster">
<title>cluster_Enabled</title>
<path fill="none" stroke="black" d="M170.12,-8C170.12,-8 565.12,-8 565.12,-8 571.12,-8 577.12,-14 577.12,-20 577.12,-20 577.12,-551.56 577.12,-551.56 577.12,-557.56 571.12,-563.56 565.12,-563.56 565.12,-563.56 170.12,-563.56 170.12,-563.56 164.12,-563.56 158.12,-557.56 158.12,-551.56 158.12,-551.56 158.12,-20 158.12,-20 158.12,-14 164.12,-8 170.12,-8"/>
<text xml:space="preserve" text-anchor="start" x="345.5" y="-542.81" font-family="Times,serif" font-size="14.00">Enabled</text>
<polygon fill="black" stroke="black" points="341.5,-536.06 341.5,-536.06 393.75,-536.06 393.75,-536.06 341.5,-536.06"/>
</g>
<!-- Entry -->
<g id="node1" class="node">
<title>Entry</title>
<ellipse fill="black" stroke="#00688b" cx="75.12" cy="-516.7" rx="7.2" ry="7.2"/>
</g>
<!-- Disabled -->
<g id="node2" class="node">
<title>Disabled</title>
<path fill="azure" stroke="none" d="M138.25,-451.38C138.25,-451.38 12,-451.38 12,-451.38 6,-451.38 0,-445.38 0,-439.38 0,-439.38 0,-362.62 0,-362.62 0,-356.62 6,-350.62 12,-350.62 12,-350.62 138.25,-350.62 138.25,-350.62 144.25,-350.62 150.25,-356.62 150.25,-362.62 150.25,-362.62 150.25,-439.38 150.25,-439.38 150.25,-445.38 144.25,-451.38 138.25,-451.38"/>
<text xml:space="preserve" text-anchor="start" x="50" y="-431.07" font-family="Times,serif" font-weight="bold" font-size="14.00">Disabled</text>
<text xml:space="preserve" text-anchor="start" x="8" y="-405.88" font-family="Times,serif" font-size="10.00">enable()</text>
<text xml:space="preserve" text-anchor="start" x="8" y="-394.62" font-family="Times,serif" font-size="10.00">tune(kp: float, ki: float, kd: float)</text>
<text xml:space="preserve" text-anchor="start" x="8" y="-383.38" font-family="Times,serif" font-size="10.00">tick(measurement: float)</text>
<text xml:space="preserve" text-anchor="start" x="8" y="-372.12" font-family="Times,serif" font-size="10.00">status()</text>
<text xml:space="preserve" text-anchor="start" x="61.62" y="-360.88" font-family="Times,serif" font-size="10.00"> &#160;&#160;&#160;&#160;&#160;&#160;&#160;&#160;&#160;&#160;&#160;</text>
<polygon fill="#00688b" stroke="#00688b" points="0,-420.88 0,-420.88 150.25,-420.88 150.25,-420.88 0,-420.88"/>
<path fill="none" stroke="#00688b" d="M12,-350.62C12,-350.62 138.25,-350.62 138.25,-350.62 144.25,-350.62 150.25,-356.62 150.25,-362.62 150.25,-362.62 150.25,-439.38 150.25,-439.38 150.25,-445.38 144.25,-451.38 138.25,-451.38 138.25,-451.38 12,-451.38 12,-451.38 6,-451.38 0,-445.38 0,-439.38 0,-439.38 0,-362.62 0,-362.62 0,-356.62 6,-350.62 12,-350.62"/>
</g>
<!-- Entry&#45;&gt;Disabled -->
<g id="edge1" class="edge">
<title>Entry&#45;&gt;Disabled</title>
<path fill="none" stroke="red" d="M75.12,-509.26C75.12,-499.88 75.12,-481.5 75.12,-462.57"/>
<polygon fill="red" stroke="red" points="78.63,-462.62 75.13,-452.62 71.63,-462.62 78.63,-462.62"/>
</g>
<!-- Holding -->
<g id="node5" class="node">
<title>Holding</title>
<path fill="azure" stroke="none" d="M336.62,-292.5C336.62,-292.5 245.62,-292.5 245.62,-292.5 239.62,-292.5 233.62,-286.5 233.62,-280.5 233.62,-280.5 233.62,-181.25 233.62,-181.25 233.62,-175.25 239.62,-169.25 245.62,-169.25 245.62,-169.25 336.62,-169.25 336.62,-169.25 342.62,-169.25 348.62,-175.25 348.62,-181.25 348.62,-181.25 348.62,-280.5 348.62,-280.5 348.62,-286.5 342.62,-292.5 336.62,-292.5"/>
<text xml:space="preserve" text-anchor="start" x="267.5" y="-272.2" font-family="Times,serif" font-weight="bold" font-size="14.00">Holding</text>
<text xml:space="preserve" text-anchor="start" x="241.62" y="-247" font-family="Times,serif" font-size="10.00">$&gt;()</text>
<text xml:space="preserve" text-anchor="start" x="241.62" y="-235.75" font-family="Times,serif" font-size="10.00">set_setpoint(sp: float)</text>
<text xml:space="preserve" text-anchor="start" x="241.62" y="-224.5" font-family="Times,serif" font-size="10.00">set_trajectory(traj: list)</text>
<text xml:space="preserve" text-anchor="start" x="241.62" y="-213.25" font-family="Times,serif" font-size="10.00">start_autotune()</text>
<text xml:space="preserve" text-anchor="start" x="241.62" y="-202" font-family="Times,serif" font-size="10.00">tick(measurement: float)</text>
<text xml:space="preserve" text-anchor="start" x="241.62" y="-190.75" font-family="Times,serif" font-size="10.00">status()</text>
<text xml:space="preserve" text-anchor="start" x="273.12" y="-179.5" font-family="Times,serif" font-size="10.00"> &#160;&#160;&#160;&#160;&#160;&#160;&#160;&#160;&#160;&#160;&#160;&#160;&#160;&#160;&#160;</text>
<polygon fill="#00688b" stroke="#00688b" points="233.62,-262 233.62,-262 348.62,-262 348.62,-262 233.62,-262"/>
<path fill="none" stroke="#00688b" d="M245.62,-169.25C245.62,-169.25 336.62,-169.25 336.62,-169.25 342.62,-169.25 348.62,-175.25 348.62,-181.25 348.62,-181.25 348.62,-280.5 348.62,-280.5 348.62,-286.5 342.62,-292.5 336.62,-292.5 336.62,-292.5 245.62,-292.5 245.62,-292.5 239.62,-292.5 233.62,-286.5 233.62,-280.5 233.62,-280.5 233.62,-181.25 233.62,-181.25 233.62,-175.25 239.62,-169.25 245.62,-169.25"/>
</g>
<!-- Disabled&#45;&gt;Holding -->
<g id="edge2" class="edge">
<title>Disabled&#45;&gt;Holding</title>
<path fill="none" stroke="red" d="M138.47,-350.69C165.66,-329.53 197.42,-304.81 224.91,-283.41"/>
<polygon fill="red" stroke="red" points="226.74,-286.42 232.48,-277.52 222.44,-280.9 226.74,-286.42"/>
<text xml:space="preserve" text-anchor="middle" x="210.98" y="-313.7" font-family="Times,serif" font-size="14.00"> enable </text>
</g>
<!-- Enabled -->
<g id="node3" class="node">
<title>Enabled</title>
<ellipse fill="azure" stroke="#00688b" cx="175.12" cy="-516.7" rx="0.36" ry="0.36"/>
</g>
<!-- Enabled&#45;&gt;Disabled -->
<g id="edge3" class="edge">
<title>Enabled&#45;&gt;Disabled</title>
<path fill="none" stroke="red" d="M158.13,-505.05C152.5,-501.14 146.39,-496.44 141.38,-491.5 131.8,-482.07 122.54,-471.16 114.13,-460.27"/>
<polygon fill="red" stroke="red" points="116.99,-458.25 108.18,-452.36 111.4,-462.46 116.99,-458.25"/>
<text xml:space="preserve" text-anchor="middle" x="164.25" y="-478.2" font-family="Times,serif" font-size="14.00"> disable </text>
</g>
<!-- Saturated -->
<g id="node7" class="node">
<title>Saturated</title>
<path fill="azure" stroke="none" d="M296.62,-457C296.62,-457 205.62,-457 205.62,-457 199.62,-457 193.62,-451 193.62,-445 193.62,-445 193.62,-357 193.62,-357 193.62,-351 199.62,-345 205.62,-345 205.62,-345 296.62,-345 296.62,-345 302.62,-345 308.62,-351 308.62,-357 308.62,-357 308.62,-445 308.62,-445 308.62,-451 302.62,-457 296.62,-457"/>
<text xml:space="preserve" text-anchor="start" x="222.62" y="-436.7" font-family="Times,serif" font-weight="bold" font-size="14.00">Saturated</text>
<text xml:space="preserve" text-anchor="start" x="201.62" y="-411.5" font-family="Times,serif" font-size="10.00">$&gt;()</text>
<text xml:space="preserve" text-anchor="start" x="201.62" y="-400.25" font-family="Times,serif" font-size="10.00">&lt;$()</text>
<text xml:space="preserve" text-anchor="start" x="201.62" y="-389" font-family="Times,serif" font-size="10.00">tick(measurement: float)</text>
<text xml:space="preserve" text-anchor="start" x="201.62" y="-377.75" font-family="Times,serif" font-size="10.00">clear_saturation()</text>
<text xml:space="preserve" text-anchor="start" x="201.62" y="-366.5" font-family="Times,serif" font-size="10.00">status()</text>
<text xml:space="preserve" text-anchor="start" x="233.12" y="-355.25" font-family="Times,serif" font-size="10.00"> &#160;&#160;&#160;&#160;&#160;&#160;&#160;&#160;&#160;&#160;&#160;&#160;&#160;&#160;&#160;</text>
<polygon fill="#00688b" stroke="#00688b" points="193.62,-426.5 193.62,-426.5 308.62,-426.5 308.62,-426.5 193.62,-426.5"/>
<path fill="none" stroke="#00688b" d="M205.62,-345C205.62,-345 296.62,-345 296.62,-345 302.62,-345 308.62,-351 308.62,-357 308.62,-357 308.62,-445 308.62,-445 308.62,-451 302.62,-457 296.62,-457 296.62,-457 205.62,-457 205.62,-457 199.62,-457 193.62,-451 193.62,-445 193.62,-445 193.62,-357 193.62,-357 193.62,-351 199.62,-345 205.62,-345"/>
</g>
<!-- Enabled&#45;&gt;Saturated -->
<g id="edge4" class="edge">
<title>Enabled&#45;&gt;Saturated</title>
<path fill="none" stroke="red" d="M175.18,-515.62C176.21,-514.08 191.48,-491.23 208.06,-466.43"/>
<polygon fill="red" stroke="red" points="210.97,-468.38 213.61,-458.12 205.15,-464.49 210.97,-468.38"/>
<text xml:space="preserve" text-anchor="middle" x="252.5" y="-478.2" font-family="Times,serif" font-size="14.00"> saturate_detected </text>
</g>
<!-- Tuning -->
<g id="node4" class="node">
<title>Tuning</title>
<path fill="azure" stroke="none" d="M303.62,-111.12C303.62,-111.12 212.62,-111.12 212.62,-111.12 206.62,-111.12 200.62,-105.12 200.62,-99.12 200.62,-99.12 200.62,-33.62 200.62,-33.62 200.62,-27.62 206.62,-21.62 212.62,-21.62 212.62,-21.62 303.62,-21.62 303.62,-21.62 309.62,-21.62 315.62,-27.62 315.62,-33.62 315.62,-33.62 315.62,-99.12 315.62,-99.12 315.62,-105.12 309.62,-111.12 303.62,-111.12"/>
<text xml:space="preserve" text-anchor="start" x="237.12" y="-90.83" font-family="Times,serif" font-weight="bold" font-size="14.00">Tuning</text>
<text xml:space="preserve" text-anchor="start" x="208.62" y="-65.62" font-family="Times,serif" font-size="10.00">$&gt;()</text>
<text xml:space="preserve" text-anchor="start" x="208.62" y="-54.38" font-family="Times,serif" font-size="10.00">tick(measurement: float)</text>
<text xml:space="preserve" text-anchor="start" x="208.62" y="-43.12" font-family="Times,serif" font-size="10.00">status()</text>
<text xml:space="preserve" text-anchor="start" x="240.12" y="-31.88" font-family="Times,serif" font-size="10.00"> &#160;&#160;&#160;&#160;&#160;&#160;&#160;&#160;&#160;&#160;&#160;&#160;&#160;&#160;&#160;</text>
<polygon fill="#00688b" stroke="#00688b" points="200.62,-80.62 200.62,-80.62 315.62,-80.62 315.62,-80.62 200.62,-80.62"/>
<path fill="none" stroke="#00688b" d="M212.62,-21.62C212.62,-21.62 303.62,-21.62 303.62,-21.62 309.62,-21.62 315.62,-27.62 315.62,-33.62 315.62,-33.62 315.62,-99.12 315.62,-99.12 315.62,-105.12 309.62,-111.12 303.62,-111.12 303.62,-111.12 212.62,-111.12 212.62,-111.12 206.62,-111.12 200.62,-105.12 200.62,-99.12 200.62,-99.12 200.62,-33.62 200.62,-33.62 200.62,-27.62 206.62,-21.62 212.62,-21.62"/>
</g>
<!-- Tuning&#45;&gt;Holding -->
<g id="edge5" class="edge">
<title>Tuning&#45;&gt;Holding</title>
<path fill="none" stroke="red" d="M266.97,-110.93C269.93,-125.51 273.31,-142.17 276.59,-158.31"/>
<polygon fill="red" stroke="red" points="273.12,-158.78 278.54,-167.88 279.98,-157.39 273.12,-158.78"/>
<text xml:space="preserve" text-anchor="middle" x="288.5" y="-137.95" font-family="Times,serif" font-size="14.00"> tick </text>
</g>
<!-- Holding&#45;&gt;Tuning -->
<g id="edge7" class="edge">
<title>Holding&#45;&gt;Tuning</title>
<path fill="none" stroke="red" d="M233.89,-201.6C214.78,-189.01 195.68,-172.23 185.12,-151.25 177.93,-136.96 183.05,-123.13 193.25,-110.96"/>
<polygon fill="red" stroke="red" points="195.62,-113.56 200,-103.91 190.56,-108.72 195.62,-113.56"/>
<text xml:space="preserve" text-anchor="middle" x="227.12" y="-137.95" font-family="Times,serif" font-size="14.00"> start_autotune </text>
</g>
<!-- Tracking -->
<g id="node6" class="node">
<title>Tracking</title>
<path fill="azure" stroke="none" d="M491.62,-116.75C491.62,-116.75 400.62,-116.75 400.62,-116.75 394.62,-116.75 388.62,-110.75 388.62,-104.75 388.62,-104.75 388.62,-28 388.62,-28 388.62,-22 394.62,-16 400.62,-16 400.62,-16 491.62,-16 491.62,-16 497.62,-16 503.62,-22 503.62,-28 503.62,-28 503.62,-104.75 503.62,-104.75 503.62,-110.75 497.62,-116.75 491.62,-116.75"/>
<text xml:space="preserve" text-anchor="start" x="419.5" y="-96.45" font-family="Times,serif" font-weight="bold" font-size="14.00">Tracking</text>
<text xml:space="preserve" text-anchor="start" x="396.62" y="-71.25" font-family="Times,serif" font-size="10.00">$&gt;()</text>
<text xml:space="preserve" text-anchor="start" x="396.62" y="-60" font-family="Times,serif" font-size="10.00">tick(measurement: float)</text>
<text xml:space="preserve" text-anchor="start" x="396.62" y="-48.75" font-family="Times,serif" font-size="10.00">set_setpoint(sp: float)</text>
<text xml:space="preserve" text-anchor="start" x="396.62" y="-37.5" font-family="Times,serif" font-size="10.00">status()</text>
<text xml:space="preserve" text-anchor="start" x="428.12" y="-26.25" font-family="Times,serif" font-size="10.00"> &#160;&#160;&#160;&#160;&#160;&#160;&#160;&#160;&#160;&#160;&#160;&#160;&#160;&#160;&#160;</text>
<polygon fill="#00688b" stroke="#00688b" points="388.62,-86.25 388.62,-86.25 503.62,-86.25 503.62,-86.25 388.62,-86.25"/>
<path fill="none" stroke="#00688b" d="M400.62,-16C400.62,-16 491.62,-16 491.62,-16 497.62,-16 503.62,-22 503.62,-28 503.62,-28 503.62,-104.75 503.62,-104.75 503.62,-110.75 497.62,-116.75 491.62,-116.75 491.62,-116.75 400.62,-116.75 400.62,-116.75 394.62,-116.75 388.62,-110.75 388.62,-104.75 388.62,-104.75 388.62,-28 388.62,-28 388.62,-22 394.62,-16 400.62,-16"/>
</g>
<!-- Holding&#45;&gt;Tracking -->
<g id="edge6" class="edge">
<title>Holding&#45;&gt;Tracking</title>
<path fill="none" stroke="red" d="M318.27,-169.51C325.34,-157.24 333.67,-144.98 343.12,-134.75 353.63,-123.38 366.43,-113.06 379.39,-104.09"/>
<polygon fill="red" stroke="red" points="381.18,-107.1 387.57,-98.64 377.3,-101.27 381.18,-107.1"/>
<text xml:space="preserve" text-anchor="middle" x="383.62" y="-137.95" font-family="Times,serif" font-size="14.00"> set_trajectory </text>
</g>
<!-- Tracking&#45;&gt;Holding -->
<g id="edge8" class="edge">
<title>Tracking&#45;&gt;Holding</title>
<path fill="none" stroke="red" d="M440,-116.42C436.73,-128.66 431.74,-141.16 424.12,-151.25 407.37,-173.45 382.36,-190.56 358.55,-203.07"/>
<polygon fill="red" stroke="red" points="357.15,-199.85 349.79,-207.47 360.3,-206.11 357.15,-199.85"/>
<text xml:space="preserve" text-anchor="middle" x="447.37" y="-137.95" font-family="Times,serif" font-size="14.00"> tick </text>
</g>
<!-- Tracking&#45;&gt;Holding -->
<g id="edge9" class="edge">
<title>Tracking&#45;&gt;Holding</title>
<path fill="none" stroke="red" d="M469.73,-116.69C472.2,-128.66 471.76,-140.96 465.12,-151.25 441.81,-187.37 397.46,-207.07 359.37,-217.72"/>
<polygon fill="red" stroke="red" points="358.55,-214.32 349.76,-220.23 360.32,-221.09 358.55,-214.32"/>
<text xml:space="preserve" text-anchor="middle" x="506.55" y="-137.95" font-family="Times,serif" font-size="14.00"> set_setpoint </text>
</g>
<!-- Saturated&#45;&gt;Holding -->
<g id="edge10" class="edge">
<title>Saturated&#45;&gt;Holding</title>
<path fill="none" stroke="red" d="M264.11,-345.41C267.3,-332.02 270.76,-317.49 274.1,-303.43"/>
<polygon fill="red" stroke="red" points="277.49,-304.3 276.4,-293.77 270.68,-302.68 277.49,-304.3"/>
<text xml:space="preserve" text-anchor="middle" x="319.2" y="-313.7" font-family="Times,serif" font-size="14.00"> clear_saturation </text>
</g>
</g>
</svg>
